<svg xmlns="http://www.w3.org/2000/svg" xmlns:xlink="http://www.w3.org/1999/xlink" viewBox="0 0 601.15 361.81"><defs><style>.cls-1{isolation:isolate;}.cls-2,.cls-61,.cls-62,.cls-63,.cls-64{fill:#252626;}.cls-3{fill:#a7aaaf;}.cls-4{fill:#232323;}.cls-5{fill:#959aa0;}.cls-6,.cls-74{fill:#231f20;}.cls-10,.cls-11,.cls-21,.cls-23,.cls-28,.cls-36,.cls-37,.cls-38,.cls-39,.cls-48,.cls-7,.cls-9{fill:#61666e;}.cls-10,.cls-11,.cls-12,.cls-17,.cls-21,.cls-23,.cls-26,.cls-28,.cls-36,.cls-37,.cls-38,.cls-39,.cls-41,.cls-43,.cls-45,.cls-48,.cls-58,.cls-61,.cls-64,.cls-7,.cls-9{mix-blend-mode:multiply;}.cls-56,.cls-62,.cls-7{opacity:0.26;}.cls-8{fill:#d3d3d3;}.cls-9{opacity:0.45;}.cls-10,.cls-40{opacity:0.4;}.cls-11{opacity:0.67;}.cls-12{fill:#393b3d;}.cls-13,.cls-16,.cls-18,.cls-19,.cls-25,.cls-29,.cls-30,.cls-31,.cls-34,.cls-47,.cls-49,.cls-52,.cls-54,.cls-55,.cls-56,.cls-59,.cls-60,.cls-67,.cls-68,.cls-72,.cls-73{fill:#fff;}.cls-13,.cls-17{opacity:0.47;}.cls-14,.cls-22{fill:#d4d5d8;}.cls-14{opacity:0.49;}.cls-15,.cls-17{fill:#020202;}.cls-16,.cls-32{opacity:0.61;}.cls-18{opacity:0.3;}.cls-19{opacity:0.18;}.cls-20,.cls-40,.cls-42{fill:#ddd;}.cls-20{opacity:0.85;}.cls-21{opacity:0.75;}.cls-22,.cls-33{opacity:0.74;}.cls-23{opacity:0.1;}.cls-24{fill:#2a2b2d;}.cls-25{opacity:0.64;}.cls-26,.cls-27,.cls-43{fill:#32393f;}.cls-26{opacity:0.52;}.cls-27,.cls-43{opacity:0.53;}.cls-28,.cls-34{opacity:0.29;}.cls-29{opacity:0.59;}.cls-30{opacity:0.34;}.cls-35{fill:#d6d6d6;}.cls-37,.cls-64{opacity:0.39;}.cls-38{opacity:0.11;}.cls-39,.cls-63{opacity:0.23;}.cls-41{fill:#333;opacity:0.12;}.cls-42{opacity:0.35;}.cls-44,.cls-46{fill:#f7f7f7;}.cls-44{opacity:0.25;}.cls-45,.cls-60{opacity:0.28;}.cls-46,.cls-49{opacity:0.46;}.cls-47{opacity:0.41;}.cls-48{opacity:0.72;}.cls-50,.cls-51,.cls-53,.cls-75,.cls-76{fill:none;stroke-miterlimit:10;}.cls-50{stroke:#d4d5d8;}.cls-50,.cls-51,.cls-75{stroke-width:2.83px;}.cls-51{stroke:#9a9ea2;}.cls-52{opacity:0.6;}.cls-53{stroke:#070808;opacity:0.54;}.cls-54{opacity:0.77;}.cls-55{opacity:0.58;}.cls-57{fill:#cfd1d3;}.cls-59{opacity:0.43;}.cls-65{fill:#7c8e8d;}.cls-66{fill:#ababab;}.cls-67{opacity:0.66;}.cls-68{opacity:0.33;}.cls-69{fill:url(#linear-gradient);}.cls-70{fill:url(#linear-gradient-2);}.cls-71{fill:url(#linear-gradient-3);}.cls-72{opacity:0.16;}.cls-73{opacity:0.04;}.cls-74{opacity:0.36;}.cls-75{stroke:#000;}.cls-76{stroke:#eae4e4;stroke-width:1.42px;}.cls-77{fill:#181818;}</style><linearGradient id="linear-gradient" x1="381.96" y1="58.92" x2="404.17" y2="58.92" gradientTransform="translate(41.47 -129.53) rotate(17.66)" gradientUnits="userSpaceOnUse"><stop offset="0" stop-color="#d1d3d4"/><stop offset="1" stop-color="#6d6e71"/></linearGradient><linearGradient id="linear-gradient-2" x1="369.29" y1="80.59" x2="399.69" y2="80.59" gradientTransform="translate(16.93 -63.03) rotate(7.14)" xlink:href="#linear-gradient"/><linearGradient id="linear-gradient-3" x1="386.24" y1="65.27" x2="387.98" y2="65.27" gradientTransform="translate(22.58 -75.35) rotate(8.86)" xlink:href="#linear-gradient"/></defs><g class="cls-1"><g id="Layer_2" data-name="Layer 2"><g id="Scooter"><path class="cls-2" d="M503.6,277.12s-2.29,16.57,3.44,17.23,35-11.11,36.65-13.14,3-23.34-5.17-20.84S507.41,269.56,503.6,277.12Z"/><path class="cls-3" d="M447.18,58.57s4.11-.09,9.19,3.62,15.75,6.53,15.75,6.53-1.57-1.92-1-16.34-1.47-51.17-1.47-51.17a24.91,24.91,0,0,0-9.28,2.88c-4.93,2.63-31.11,24.07-46.54,27.8s-14.85,7.88-14.85,7.88,11.14,2.6,8.4,16.22c-.78,3.08-.54,19.77,1.81,17.71S444.06,58,447.18,58.57Z"/><path class="cls-4" d="M89.26,159.93,67,113.66s-3.39-8.72,14-10.17,57.64-.49,60.06,1.94,7.26,0,7.26,0,4.36-2.82,7.75-2.62,94,10.37,109.46,6c2.9-1,5.32,1,4.84,5.32s-4,18.7-6.86,23.15S95.55,164.07,89.26,159.93Z"/><path class="cls-3" d="M448.62,62.28s28,81.58,38.24,91.37c5.13,7,7.46,38.69-12.12,51.28-18.65,16.32-29.83,28.44-39.62,58.27C423,280.45,407,297.13,378.39,292.05c23.51-10-21.59-19.56-21.59-19.56s21,8,40.56-16.28,47.55-60.6,40.55-92.77c-9.32-29.84-17.25-51.69-24.24-65.73-3.83-7.7-11.65-33.3,7-42.29S448.62,62.28,448.62,62.28Z"/><path class="cls-5" d="M9.56,239.85s34.36-83.22,138.75-93.08S273,136.91,273,136.91s13.1-3.48,15.83,2.32,5.25,5.22-3.55,9.28-42.43,26.69-38.37,51.33-6.18,40.88,38.37,67.56c18.46,5.22,101.39,6.38,118.21,4.06,15.66-1.74,29.58-31.32,29.58-31.32s-11.6,46.4-49.3,51.62c-40,2.9-208.92-5.28-208.92-5.28L159.32,252.9l-37.55-27.26-30.88-.58-33.64,9.86L40.44,266.24,27.1,239.56Z"/><path class="cls-6" d="M520.54,237.45a43.76,43.76,0,1,1-43.75,43.76,43.81,43.81,0,0,1,43.75-43.76m0-36.85a80.61,80.61,0,1,0,80.61,80.61,80.61,80.61,0,0,0-80.61-80.61Z"/><path class="cls-7" d="M14.39,232.88s30.82-66.07,99-79.56c67-13.49,66.38-10,72.24-2.94s21,18.79,35.72,16.43S250.63,151,260.6,147.45s15.6,1.17,9.85,5.86-24.12,18.14-26.9,35.21-2.88,42.72,10.6,64.41c6.45,10.54,41,18.39,37.5,27.52s-9.37,11.6-9.37,11.6l-89.07-11.6-42.78-18.73s-73.25-27.55-76.77-26.37-52.15,21.09-52.15,21.09Z"/><path class="cls-6" d="M99.05,236.69A43.76,43.76,0,1,1,55.3,280.45a43.81,43.81,0,0,1,43.75-43.76m0-36.85a80.61,80.61,0,1,0,80.61,80.61,80.61,80.61,0,0,0-80.61-80.61Z"/><path class="cls-3" d="M4.31,280.45s138,4.9,178.39,3.82c31.42-.85,47-.08,47-.08s31.09-58,0-102.63c-8.52-12.24-71.37-32.26-124.92-14.75s-65.68,33.08-90.42,66.07S4.31,280.45,4.31,280.45Z"/><path class="cls-8" d="M469.61,1.21c1.87-.93,13-2.16,14.59,0s0,66.27,0,66.27a23.83,23.83,0,0,1-3.72,1.24c-1.55.31-8.36,0-8.36,0a8.59,8.59,0,0,1-1.24-6.51c.93-3.4-1.27-57-1.27-57Z"/><path class="cls-9" d="M214,175.73c-37.51-17.65-76.67-12.83-89.35-11.68s-17.55,9.76-22.7,21.41c-3.17,7.2-14.89,15-24,20.32-15,1.14-26,2.44-29.14,2.76-9.1.9-16.49,21.32-28.18,42.33s-8.32,29.56-8.32,29.56l164.44.43s13.26-29,14.13-37.78c2.83-28.94,0-29-4.06-30.93,1.06-7.75,1.33-25.85,5.21-26.68C197.06,184.4,217.92,181.54,214,175.73Z"/><path class="cls-3" d="M470.62,207.53c-1,1.71,14.32-18.35,29.73-22.77s25.94-4.13,25.94-4.13-1.08-6.24-5.1-7.81c0-6-3.49-25.75-12.63-29-9.13-2.68-14.51,0-14.51,0s-5.41,2.76-9.17-1.19-26.36-68.74-36.7-85.84c-4.57-4.33-3.3,2.83-3.3,2.83s32.65,71.39,32.37,86.73c-.92,9.59-1.24,21.73,1.32,31C478.25,186,475.91,198.72,470.62,207.53Z"/><path class="cls-10" d="M176.75,280.86s20-43.32,14.36-62.76c-4.52-15.53-42.3-12.42-60.36-12.61s-35.9-.13-35.9-.13-6.24,2.93-7.79,5.53,25.68,3.67,27,3.91,13.79,30.47,8.06,66.06C134.65,280.26,176.75,280.86,176.75,280.86Z"/><path class="cls-11" d="M213.35,214.13S205.73,260,199.9,272.54s-.44,10.82,3.1,11.36l22.67,3.47s21.32-33.86,15.1-53.55A62,62,0,0,0,239.32,213S211.27,210.5,213.35,214.13Z"/><path class="cls-12" d="M85.52,173.74s60.19-26.33,128.47,2c24,6.6,30.26,59.75,21.33,81.86-4.65,14.36-9.7,26.46-9.7,26.46l4.11.14s20.66-33,11.77-75.56-27.29-39.39-59.71-46C160.84,157.5,105.25,158.94,85.52,173.74Z"/><path class="cls-13" d="M54.37,236.32s45.45-1.78,81.25,0c2.5,0,5-3.1,3.52-4-1.27-.61-10.3-.22-13.85-.48-3.94.48-32.86.89-33.27,1s-35,.72-35.62.93S54.37,236.32,54.37,236.32Z"/><path class="cls-13" d="M56.44,226.84s45.45-1.78,81.25,0c2.5,0,5-3.11,3.52-4-1.27-.61-10.3-.23-13.85-.48-3.94.48-32.86.89-33.27,1s-35,.72-35.62.93S56.44,226.84,56.44,226.84Z"/><path class="cls-13" d="M52.23,245.3s45.46-1.78,81.26,0c2.5,0,5-3.1,3.52-4-1.28-.61-10.3-.22-13.86-.48-3.94.48-32.86.89-33.27,1s-35,.72-35.61.93S52.23,245.3,52.23,245.3Z"/><path class="cls-14" d="M209.63,245.3s-25.21,20.74-22,9.26,6.32-38.8-.83-42.41c-13.71-7.06-138-3.61-138-3.61s2.68-24.89,36.71-34.8c30.67-10.56,71.85-18.26,115.23-3.11,18.75,5.54,30.11,11.59,36.11,39.45C238.81,223.45,209.63,245.3,209.63,245.3Z"/><path class="cls-13" d="M50.81,254.56s45.46-1.78,81.26,0c2.5,0,5-3.11,3.51-4-1.27-.61-10.29-.23-13.85-.48-3.94.48-32.86.89-33.27,1s-35,.71-35.62.93S50.81,254.56,50.81,254.56Z"/><path class="cls-13" d="M49.4,263.81s45.46-1.78,81.25,0c2.5,0,5-3.1,3.52-4-1.27-.61-10.29-.23-13.85-.48-3.94.48-32.86.89-33.27,1s-35,.72-35.62.93S49.4,263.81,49.4,263.81Z"/><path class="cls-13" d="M49.4,273.07s45.46-1.78,81.25,0c2.5,0,5-3.1,3.52-4-1.27-.6-10.29-.22-13.85-.48-3.94.48-32.86.89-33.27,1s-35,.72-35.62.93S49.4,273.07,49.4,273.07Z"/><path class="cls-15" d="M57.14,226c7.37-1.14,80.69,0,80.69,0s5.43-2.87,0-2.87h-79S53.46,226.58,57.14,226Z"/><path class="cls-15" d="M55.13,235.22c7.37-1.14,80.69,0,80.69,0s5.43-2.87,0-2.87h-79S51.44,235.79,55.13,235.22Z"/><path class="cls-15" d="M53.52,244.48c7.37-1.14,80.69,0,80.69,0s5.43-2.87,0-2.87h-79S49.84,245.05,53.52,244.48Z"/><path class="cls-15" d="M52.52,253.74c7.37-1.15,80.69,0,80.69,0s5.43-2.87,0-2.87h-79S48.83,254.31,52.52,253.74Z"/><path class="cls-15" d="M51.11,263c7.37-1.14,80.69,0,80.69,0s5.43-2.87,0-2.87h-79S47.42,263.56,51.11,263Z"/><path class="cls-15" d="M50.1,272.25c7.37-1.14,80.69,0,80.69,0s5.43-2.87,0-2.87h-79S46.41,272.82,50.1,272.25Z"/><path class="cls-16" d="M94.43,174.78a45.94,45.94,0,0,0-7.37,10.68h20.56s2.57.16,3.62-1c.3-1.46.21-1.74,2.78-6.26-.9,3.27-2,4.61-2,5.61-.13.75-.38,1.88-3.14,2.13s-23.31.19-23.06,0S90.29,177.83,94.43,174.78Z"/><path class="cls-17" d="M78.12,167.81s5.06,4.57,11.26,3.44c-.62,1.22-3.86,2.49-3.86,2.49s-24.65,6.34-51,33.84c-5.41,6.28-25,32.27-25,32.27s8.94-19.79,28-40.87C52,184.48,63.47,175.69,78.12,167.81Z"/><path class="cls-18" d="M191.23,148a2.85,2.85,0,0,1,2.26-4.21c13.1-1.1,51.58-4.24,57.9-3.77,2.27,1.41-4.53,3.47-5.09,4.14s-14.15.39-15,6a82.09,82.09,0,0,0-.8,8.41,2.85,2.85,0,0,1-2.21,2.66,24.09,24.09,0,0,1-6.46.29,2.6,2.6,0,0,1-1-.26c-3.55-1.87-2.28-7.76-3.66-9.12s-3.25-4.39-8.86-4.6c-4.06-.16-10.68,1.11-14,1.82a2.83,2.83,0,0,1-3.08-1.41Z"/><path class="cls-19" d="M288.82,136.89l3.08,7.26s-1.44,1.48-6.63,4.36-39.76,20.32-38.37,51.33,4.63,41.32,15.18,50.27,16.75,16,37.42,19.59,92.47,3.62,104,1.76c5.14-1.54,10.16-5.5,14.75-9-2.68,2.65-8.7,17.51-18.29,21s-11.32,12.6-43.14,8-63.24-14.75-74.27-23.24-31-14.45-35.67-40.78-2-33.86,1.14-46.07,22.07-26,27.73-30.57S289.73,142.84,288.82,136.89Z"/><path class="cls-20" d="M482,.82s-10.59,1-11.06,2,3.4,3,4.12,3.18,8.58,1.44,8.58,1.44L483.25,2Z"/><path class="cls-21" d="M373.71,272.65s29.92,6.84,44.52-10.22c8.21-9.58,21.33-27.35,30.21-81.06,1.14-13.65,4.67-38.14-15.38-68.65C425.25,98,417.25,84.3,421.88,65c4.36-5.7,11.1-10.92,18.7-9.53-5.61-4.43-14.71-3.5-19.92,0s-17.62,11.21-11.18,29c7.35,20.35,21.16,53.54,20.82,55.5s10.45,21.61,7,47-29.51,55.13-29.59,56.08S387.2,266.61,373.71,272.65Z"/><path class="cls-22" d="M448.18,56.81s28.52,65.74,36.7,85.84a30.49,30.49,0,0,1-4.57,2.45L447.18,58.57Z"/><path class="cls-23" d="M447.18,58.57l33.13,86.53a105.61,105.61,0,0,1,0,14.83c-.62,6-2.86,7.73-1.74,17.43s-3.9,17.4-3.86,22.48-22.47,28.3-22.47,28.3-13.07,20-15.18,29.41-22.43,22.54-18.83,12.71,18-33.43,20.88-48.08,19.81-56.83,20.45-66.1S438.79,101,438.79,101,421.07,58.84,447.18,58.57Z"/><path class="cls-24" d="M0,280.45H94.43s80.64-.5,85.23,0,46,7,48.36,7.26,155.74,4.05,155.74,4.05a46.7,46.7,0,0,0,5.18-1.5c6.94-2.39,18-9.1,27.8-21,3.77-3,16.32-7,20.32-11.67-4,12.71-22.13,34.88-43.5,35.16s-243.45-5-243.45-5L3.92,284.42Z"/><path class="cls-25" d="M72.5,173.74c3.56-3.7,16.54-15.53,57.32-23.65,7.18-1.34,12.06-1.36,6.22.71s-31.27,3-55.64,22.94C74.21,176.16,68.86,177.51,72.5,173.74Z"/><path class="cls-26" d="M242.47,243.08s7.18,32.23,26.65,35.29c15.3,2.49,12.1,9.34,12.1,9.34l-55.55-.34S240.19,273.83,242.47,243.08Z"/><path class="cls-27" d="M373.71,272.65s16.72,4.14,29.77-1.19,13-3.07,29.58-31.32c6.05-18,18.48-63.95,16.14-78.5-2.07-11.5-1.42-26.65-21.54-58.26-5.28-8.59-10.57-23.65-6.67-35.87.89-2.56,4.14-13.08,19.59-12.09,0,0-8.55-6.83-19.92,0-9.49,7.27-9.13,15.17-6.63,25.74s13.08,30.32,14.19,33.66,11.12,19.19,10.57,41.44,3.34,43.65-10,73.28S382.35,273.89,373.71,272.65Z"/><path class="cls-21" d="M480.59,150.8s.51,10.42-1.55,15.36c-.77,5.84-.45,14.25-.53,16.22s-3.8,17.46-3.8,17.46-4.59,8.79-8.68,13.09-19.51,18-30.71,47.14c-3.05,9.33-14.42,14.24-14.42,11.81s-9.3,3.26-9.3,3.26,10.83-14.4,16.15-24.7,14.54-32.51,18-54.51C452.79,196.72,471.55,195.12,480.59,150.8Z"/><path class="cls-28" d="M447.18,58.57l33.13,86.53s1.32,1,.28,5.7c-3.34-4.43-17.91-44.33-24.58-53.47S428.71,66.3,447.18,58.57Z"/><path class="cls-29" d="M478.51,182.38s4.67-7.58,16.57-11.32,13.24,6.46,9,7.8-8.53-.32-21.84,14.52c-13,14.52-9.68,12.09-9.68,12.09S480.31,195.05,478.51,182.38Z"/><path class="cls-30" d="M508.56,143.84s-3-1.59-2.54,1.26,5.59,25.72,7.89,27.72c-.51,1.23-4,2.51-4,2.51s9-1.32,11.25,0-2.3,3-8.84,4.36c7.94-.95,11.82-1.09,13.94-.92-.95-3-3.61-5.69-5.1-6C520.38,170.38,520.16,149.82,508.56,143.84Z"/><path class="cls-31" d="M523.27,175.06s-13.5-.12-30.51,8.49c-2.75,1.46,1.35.55,3.13-.34s19.83-6.12,27.93-5.13C525,177.6,524.5,175,523.27,175.06Z"/><path class="cls-32" d="M480.31,145.1s.69,12-1.51,21.6c-.52,4.83-1.23,20.52-2.26,25.3-1.57,4.87-1.38,9.89-9.27,18.89,3-2,6.44-6.74,10.29-19.27.91-6.41,1.88-24.81,1.88-24.81s1.16-7,1.55-9.51S480.31,145.1,480.31,145.1Z"/><polygon points="480.31 145.1 484.88 142.65 485.17 142.93 480.33 145.4 480.31 145.1"/><path class="cls-33" d="M225.62,284.05l-7.09,2.23,162.57,5.41s21.63-6.19,30.5-16.55c-12.78,5.87-20.35,13.59-42.54,12.57s-139-8.87-139-8.87Z"/><path class="cls-34" d="M219.62,206.79c-4.49-2.37-10.41-10.8-10.41-10.8s-4.4-8.68-8.44-11.47c-9.71-6.73-8.74.95-14.18,18-3.77-1.54-10.13-3.68-22-2.73-16.09,1.3-101.11.15-101.11.15s25.32-3.92,28.51-8.92a29.85,29.85,0,0,0,4-9.7s-9.39-5.69-14.92-1.76-21.85,8.95-27.28,16.49A27.9,27.9,0,0,1,40.71,206S-.92,258.22,8,274.72c4.14,7.67,6.43-10,6.43-10S37.58,210,48.81,208.54c2-.27,62.24-7.14,130.85,0a31.68,31.68,0,0,1,10.49,7c.31.86.63,1.73,1,2.58,7.24,18.5-11.9,55.47-11.9,55.47s11.9,17.07,20.69-1c11.38-23.28,15.54-56.4,17.09-59.47,2.46-1.43,9.83-.84,20.33-.26C247.25,213.36,225.67,210,219.62,206.79Z"/><path class="cls-35" d="M194.73,182c4-1.59,21.92,15,22.45,26.52.54,12-1.93,28.73-8.23,25.28-9.62-5.27-1.43-17.2-5.36-26.55C200.58,200.11,187,185.07,194.73,182Z"/><path class="cls-15" d="M87.06,185.46c.41-.8,3-6.85,7.37-10.68,1.61-1,19.43-1,19.43-1s1.82.44,1.62,1.65-4.44,7.11-4.24,9.09c-.6,1.18-3.62,1-3.62,1Z"/><path class="cls-36" d="M41.08,280.86l143.34-19.27s12.7-2.83,18.05,3.8,31.69,4.3,34.73-1.58c8.25,9.26,21.42,13,33.25,20.61-16-3.95-44.78,2.95-44.78,2.95l-75.56.34Z"/><path class="cls-37" d="M506,145.1S507.36,156,509.57,161c1.35,2.17-.59,4.16-3.6,5.24-2.75,1-22.32,10-24.89,13.07,1-8.56,2.67-19.69,5.78-25.65,2-4.84-6.55-8.55-6.55-8.55l4.86-2.17s4.8,2.69,8.88.91,12.17-1.18,12.86-.43A2.32,2.32,0,0,0,506,145.1Z"/><path class="cls-36" d="M447.18,58.57l33.13,86.53s-26.53-65.83-30.7-71.94S446.18,60.34,447.18,58.57Z"/><polygon class="cls-36" points="471.87 123.55 481.08 140.2 482.93 137.92 485.17 142.93 480.31 145.1 471.87 123.55"/><path class="cls-38" d="M470.05,40l1.31,22.32s7.73,3.12,10.57,1.9,2.36-9.29,2.36-9.29l-.45-14.68S473.91,40,470.05,40Z"/><path class="cls-39" d="M470.16,21.28l1.31,43.49s7.73,6.08,10.57,3.71,2.36-18.11,2.36-18.11L484,21.76S474,21.28,470.16,21.28Z"/><path class="cls-40" d="M484.29,63.15l-.09,4.33a22.08,22.08,0,0,1-12.08,1.24c-1.94-.86,2.88-2,2.88-2s8.91-.31,9.29-7.69Z"/><path class="cls-41" d="M469.61,1.21s1.44,62,1.05,65.21c-.28,2.26,3.36,2.92,6.59,2.61-1.64-1-2.46-14.5-1.94-17.88s1.08-11.38,1.08-11.38-4.89,1.54-4.73-4.61,0-34.34,0-34.34Z"/><rect class="cls-42" x="470.05" y="13.41" width="14.49" height="13.42"/><path class="cls-43" d="M469.61,1.21s2,60.55,2.51,67.51c-3.05.12-13.65-3.68-22.51-9.79-9-3.51-23.27-9.57-28.95-3.51-3.36,1.31,2.11-10.22,17.35-5.73A200.46,200.46,0,0,1,468.09,61.8S467.62,14.26,469.61,1.21Z"/><path class="cls-18" d="M405.61,34.43a113,113,0,0,0,34.07-16C456.32,6.75,461.14,2.4,469.61,1.21c0,4,.57,12.93.57,12.93s-9.4.57-15.17,5.62-22.36,16.93-31.38,20a139.78,139.78,0,0,1-18,4.69Z"/><path class="cls-35" d="M467.27,11.83s-10.91.79-24.78,14.06c-9.24,9.17,4.69,2.51,4.69,2.51s15-8.23,20.09-8.64C468.46,18.17,467.27,11.83,467.27,11.83Z"/><path class="cls-44" d="M71.31,112.25s7.08-3.76,14.21-3.5l48.69,1.74s5.45,4,5.35,9.37,6.62.87,6.62.87,4.53-12.51,9.59-12,85.68,7.79,92.72,6.87,16.88-1.8,19.2-3.37,1-4-2.14-3.43-27.66,1.53-38,.29c-20.94-.36-32.7-3.88-68.18-6-3.25-.31-6.44-.44-14.68,4.5-3.58-2.19-4.37-4.21-31.49-4.7-21.44,0-33-.32-41.11,2.51A7.42,7.42,0,0,0,67,113.66Z"/><path class="cls-21" d="M414.71,57.66c.77-.77,1.53-11.43,10.75-13.2S469.8,31.89,469.8,31.89l2.32,36.83s-13.53-3-22.51-9.79c-8-5.88-22.17-8-28.95-3.51S414.71,57.66,414.71,57.66Z"/><path d="M141.08,105.43S135.4,138,138.24,148a24.65,24.65,0,0,1,5-.56s4-38.54,5.1-42C145.94,106.27,143.25,108.34,141.08,105.43Z"/><path class="cls-45" d="M67,113.66s21.93,26.46,27.45,28.89,28-3.56,31.76-2.59,9.46-6.2,12.44-17.36,7.55-1.87,7.55-1.87S148.92,142,157.58,140s84.93-5.21,94.27-8.34,18-15.93,15.84-19.37,2-5,2.33-1.57-.92,13.24-6.49,26.61c-9.9,1.75-89.72,5.54-143.29,13.92-12.44,3.52-26.81,8.72-26.81,8.72s-2,4.46-4.17,0Z"/><path class="cls-44" d="M149.55,107.31c.06-.38,3.55-3.88,3.6-1.88s-4.5,26.54-1.8,33.34c1.48,2.68-1.66,4.26-3-1.7S147.72,117.51,149.55,107.31Z"/><path class="cls-44" d="M135,108.76c.07-.37,3.56-3.88,3.6-1.88s-4.49,26.55-1.8,33.35c1.48,2.67-1.66,4.25-3-1.7S133.21,119,135,108.76Z"/><path class="cls-46" d="M256.19,112.71s10-3.71,12.55,1.43c.1,3-10,3.68-10,3.68S248.47,116.6,256.19,112.71Z"/><polygon class="cls-47" points="470.18 15.09 484.54 15.09 484.88 17.55 470.12 18.11 470.18 15.09"/><path class="cls-31" d="M484.2,1.21s1.59,32.69.23,55.6c-.68-6-.11-44.92-1.69-53.23-1.24-1.21-4.07-2.77-10.87-1.21-2.26.52-2.26-1.16-2.26-1.16S477.37-1.51,484.2,1.21Z"/><path class="cls-38" d="M506,145.1S508.49,159,509.57,161s0,4-3.6,5.24-19.43,8.6-24.89,13.07c2.2-4.28,3.8-11.64,4.43-18.31.06-3.68,5-8.79,6.33-10.19,1.08-2.28-9.1-5.7-9.1-5.7h-2.43L483,144s7.82,3.08,9.71,3.08,4.62-1.44,7-2A27.54,27.54,0,0,1,506,145.1Z"/><path class="cls-48" d="M483.71,191.75s2.37-4.25,11-8.9a70.85,70.85,0,0,1,10.83-4.65c5.4-1.46,12.34-3.74,17.33-3.13,0,0,.13-2.42-2.09-2.24s-16.25,3.16-25.23,7.73C490.18,184,480.5,194,483.71,191.75Z"/><path class="cls-49" d="M508.56,143.84s12.35,3.85,11.36,27.56c-1.08,1.8-2.56-6.67-2.56-7.1s-.85-10.22-5.25-14.2C508.7,146.55,505.29,144.26,508.56,143.84Z"/><polygon class="cls-31" points="449.61 58.93 482.93 137.92 481.08 140.2 448.58 58.53 449.61 58.93"/><path class="cls-31" d="M484,25.73s-.23-8.75-5.12-8.64a50.32,50.32,0,0,1-8.56-.49l-.17-1.51h9.64s3.25-.14,3.85-6.3C484.54,13.41,484,25.73,484,25.73Z"/><path class="cls-31" d="M201.68,193.64c-.62-.82,3.8-1.2,7.4,3.57s9.55,12.25,16.59,12.77c0,0-6.46,1.81-8,5.73-2,9.66-5.35,37-16,51.26-6.34-2.18-4.92,8.56,0-13.06S215,210.86,201.68,193.64Z"/><path class="cls-34" d="M191.15,145.42s20.94-5,60.24-5.41c-5.36,2-18.91,1.11-20.65,4.14S228.36,158,228.36,158h-7s2.07-12.67-4.19-12.88S191.15,145.42,191.15,145.42Z"/><path class="cls-31" d="M467.27,11.83l.53,4.77s-16.14,4.85-21.4,9.13c-3.91.16-1.77-2.11,1.39-4.45S458.49,13.37,467.27,11.83Z"/><path class="cls-36" d="M380.24,273.74c-2.3-.38,38.19-16.64,49.73-39.92s18.42-70.52,13.43-97.94c4.84,14,14.51,25.9-6.34,92.45-6.84,17.21-12.74,34.2-28.78,41S386.76,274.83,380.24,273.74Z"/><path class="cls-50" d="M174.84,286.48l203.55,5.57s49.22-1.78,67.39-96.12c7-31.65,5.25-54.22-12.72-83.21-12.48-18.17-21.51-52.74,0-56.26,8-2.34,12.13,0,12.13,0"/><path class="cls-14" d="M448.58,60.23l31.73,84.87s-3.64,51.75-34.53,50.83c2.66-14.56,11.21-39-5.2-69.89s-29.47-54-13.6-66.4C433.06,56.46,446.07,51.86,448.58,60.23Z"/><path class="cls-14" d="M408.75,52s9.18-5.68,16.71-7.5S469.8,31.89,469.8,31.89l-.19-30.68S462-.48,439.68,18.46c-13.35,9-27.59,14.62-34.07,16-4.55,1.3-8,3.89-6.67,10C401.91,43.42,408.75,52,408.75,52Z"/><path class="cls-21" d="M469.8,31.89,425.46,44.46S421.84,47,429.71,47s41.21-2.73,41.21-2.73Z"/><path class="cls-51" d="M416.25,56.81s-14.52,11.32-2.93,39.35c9.94,24,27,61.59,24.22,83.66,0,16.09-16.06,50.19-40.53,74.84-10.27,10-28.2,19.69-28.2,19.69"/><path class="cls-36" d="M208.64,170.08s21.34.77,28.78,26.94c1.88-.81,2.16-18.42,11.14-26.94s-3-8.73-5.21-7.08S226.61,173.34,208.64,170.08Z"/><path class="cls-36" d="M101.28,167.81s5.1-9.55,63.34-19.83c9.72-1,12.61,3.65,19,9.91s15,7.65,20,9.92c-13.65-3.66-35.21-7.26-47.82-6.17S117,161.88,101.28,167.81Z"/><path class="cls-36" d="M311,287.71l67.68,1s21.08.63,37.42-23.15c-7.14,5.39-61.63,19.78-100.72,14.91s-81-14.27-81-14.27l-4.71,18Z"/><path class="cls-52" d="M285.27,135.88s8.23,3.45,6.63,8.27-11.36,5.1-17.59,10.95-29.68,21.36-26.44,53.44,2.89,35.81,37.4,58.86c9.31,2.55,32.9,4.11,32.9,4.11s-2.73,12.36-7.14,16.2c-.51-2.89.51-13.27-9-14.63a79.57,79.57,0,0,1-41.2-19.85c-14.58-13.48-17.42-45.1-16.35-53.39s3.17-26.86,16.75-36.92,24.64-16.18,26.51-17.71S288.09,138.79,285.27,135.88Z"/><path class="cls-53" d="M318.17,271.51s0,7.44-7.14,16.2"/><path class="cls-31" d="M89.38,180.39l-2.32,5.07,5,.62s-3.29,2.51-16.54,7.06S58.39,204.2,59.89,203.83a41.38,41.38,0,0,1,6.94.38c3.75.38,7.82.91,9,1.14,2.15.43-.11.62-4.49,1s-24.45,2.35-25.95,1.78-1.06-1.55,5.45-4.27,7.79-6.1,11.21-9.54S82.72,179.4,89.38,180.39Z"/><path class="cls-31" d="M118.86,202.67s39.34-2.8,61.46-.58c6.92.61,2,3.39-.06,3.26S120,203.46,120,203.46,116.25,203.81,118.86,202.67Z"/><path class="cls-31" d="M281.22,135.33s7.74.18,10.68,6.33c2.05,4.13-2.22,5.75-6.63,6.85-4.48,2.45-10.26,5.09-18.73,13.41,5.51-6.61,17.75-14.86,15-19.3a38.73,38.73,0,0,0-4.81-6.43Z"/><path class="cls-52" d="M383.05,274s-28.8-1.66-44.21-2.5-19.67-.8-19.67-.8S317.62,280.4,313,286c1.46-1.06,5.78-7.74,7.33-13,2-.57,56,2.07,56,2.07Z"/><path class="cls-14" d="M58.41,180.43S86.19,158.09,133.13,148C158.86,144.86,273,136.91,273,136.91s11.59-2.86,18.91,4.75c9.29,8.6-8.33,7.1-13,10.27-17.21,14.88-25.06,23.63-32.34,42.33-6.88-5.27.29-34.92-49.27-36.44S135.22,153.1,58.41,180.43Z"/><path class="cls-14" d="M448.58,60.23s-23-13.61-27.59,7.28,22.41,68.37,22.41,68.37,29.63-6.47,23.87-25.66S448.58,60.23,448.58,60.23Z"/><path class="cls-36" d="M478.21,182.38s2.71,7.68,10.05,4.25c-.95,1.29.7,1.4,3.28-.06s13.6-9,34.46-7.8c0,0,1,1.23-1,1.9s-23-.08-37.34,10.45c-2,2.22-6.72,8.24-7.61,9.15s-10.72,9.8-14.28,12.66c5.11-6.48,11-15.59,11.67-22.26S478.21,182.38,478.21,182.38Z"/><path class="cls-2" d="M487.63,191.12s-1.17,6,5.38,4.82,17.78-6.74,20.6-2.33S538.05,269,538.05,269s7.57-4.5,7.87-4.73S522.51,190,522.51,190s-2.81-9.78-12.5-5.64-8.3,2.45-9.66.44S487.63,191.12,487.63,191.12Z"/><path class="cls-54" d="M492.71,189.22s1.73-2.36,3.28-1.8,2.9,2.16,5.82.85c3.14-.94,9.32-2.42,10-3s6.36-.68,8.18,5.27c1.7,5.39-.88,3-2,1.69s-3.93-5.84-9.21-3.48S494.28,194.16,492.71,189.22Z"/><path class="cls-55" d="M540.07,265.54s-17.93-59.77-18.88-65.7c-.34-4,0-3.71,2.16-.68s20.34,65.73,20.34,65.73S541.75,267.87,540.07,265.54Z"/><path class="cls-54" d="M525.14,207.58s8.21,23,11.93,41.54c1.15,4.8-2.37-6.91-2.55-7.55s-10.78-33.81-10.78-33.81S522.47,202.69,525.14,207.58Z"/><path class="cls-54" d="M509.89,186.05s2.63-2.72,7.46,1c4.55,2.87-1.83.84-1.83.84s-4.59-1.22-5.63-1.07S509.89,186.05,509.89,186.05Z"/><path class="cls-56" d="M491.84,193s-2.08-4.63,7-6.95c.72.86.65,1.88,3.78,1.5a73.48,73.48,0,0,0,9.17-2.26s5.69-3,9.28,4.2c2.76,7.79,23.67,74.32,23.67,74.32s-2.73,3.55-5.18,3.64c-2-2.46-24.09-73.51-24.09-73.51s-2.73-4.75-8.09-3.21S492.37,195,491.84,193Z"/><path class="cls-2" d="M496.84,200.6c1.63-.11,10.4-3.74,10.4-3.74l23.13,66L518.19,269Z"/><polygon class="cls-56" points="498.73 201.42 505.45 197.59 527.9 264.1 520.54 267.77 498.73 201.42"/><path class="cls-57" d="M510,274.35s-2.62,12.44,6.16,10.07,46.44-33.55,46.44-33.55,1-7.24-5.16-5.57S510,274.35,510,274.35Z"/><g class="cls-58"><path class="cls-2" d="M498.64,206.37a14,14,0,0,1,2.05-2.09,20.91,20.91,0,0,1,2.38-1.69,14.14,14.14,0,0,1,5.48-2c-.85.51-1.69.94-2.51,1.42s-1.65.93-2.45,1.43C502,204.41,500.36,205.43,498.64,206.37Z"/></g><g class="cls-58"><path class="cls-2" d="M499.52,209.25a13.45,13.45,0,0,1,2.05-2.08,19.08,19.08,0,0,1,2.39-1.69,13.73,13.73,0,0,1,5.47-2c-.85.5-1.69.94-2.51,1.41s-1.65.94-2.45,1.44C502.83,207.3,501.24,208.31,499.52,209.25Z"/></g><g class="cls-58"><path class="cls-2" d="M501.67,215a13.45,13.45,0,0,1,2.05-2.08,19.73,19.73,0,0,1,2.38-1.69,14,14,0,0,1,5.48-2c-.85.51-1.69.95-2.51,1.42s-1.65.94-2.45,1.44C505,213.07,503.39,214.08,501.67,215Z"/></g><g class="cls-58"><path class="cls-2" d="M500.81,212.14a13.08,13.08,0,0,1,2.05-2.09,19,19,0,0,1,2.38-1.69,14.14,14.14,0,0,1,5.48-2c-.85.5-1.69.94-2.51,1.42s-1.65.93-2.46,1.43C504.12,210.18,502.53,211.2,500.81,212.14Z"/></g><g class="cls-58"><path class="cls-2" d="M502.08,217.47a13.51,13.51,0,0,1,2.05-2.09,20.91,20.91,0,0,1,2.38-1.69,14.14,14.14,0,0,1,5.48-2c-.85.51-1.69.94-2.51,1.42s-1.65.93-2.45,1.43C505.39,215.51,503.8,216.53,502.08,217.47Z"/></g><g class="cls-58"><path class="cls-2" d="M503,220.35a13.45,13.45,0,0,1,2.05-2.08,19.73,19.73,0,0,1,2.38-1.69,13.83,13.83,0,0,1,5.48-2c-.85.5-1.69.94-2.51,1.41s-1.65.94-2.45,1.44C506.27,218.4,504.68,219.41,503,220.35Z"/></g><g class="cls-58"><path class="cls-2" d="M505.11,226.12a13,13,0,0,1,2.05-2.08,19.73,19.73,0,0,1,2.38-1.69,14,14,0,0,1,5.48-2c-.85.51-1.69,1-2.51,1.42s-1.65.94-2.45,1.44C508.42,224.17,506.83,225.18,505.11,226.12Z"/></g><g class="cls-58"><path class="cls-2" d="M504.25,223.24a12.67,12.67,0,0,1,2.05-2.09,19,19,0,0,1,2.38-1.69,14.14,14.14,0,0,1,5.48-2c-.85.5-1.69.94-2.51,1.42s-1.65.93-2.46,1.43C507.56,221.28,506,222.3,504.25,223.24Z"/></g><g class="cls-58"><path class="cls-2" d="M506.4,228.64a13.08,13.08,0,0,1,2.05-2.09,19.73,19.73,0,0,1,2.38-1.69,14.14,14.14,0,0,1,5.48-2c-.85.5-1.69.94-2.51,1.42s-1.65.93-2.45,1.43C509.71,226.68,508.12,227.7,506.4,228.64Z"/></g><g class="cls-58"><path class="cls-2" d="M507.28,231.52a13,13,0,0,1,2.05-2.08,19.73,19.73,0,0,1,2.38-1.69,14,14,0,0,1,5.48-2c-.85.51-1.69.95-2.51,1.42s-1.65.94-2.45,1.44C510.59,229.57,509,230.58,507.28,231.52Z"/></g><g class="cls-58"><path class="cls-2" d="M509.43,237.29a13.51,13.51,0,0,1,2.05-2.09,20.83,20.83,0,0,1,2.38-1.68,14,14,0,0,1,5.48-2c-.85.51-1.69.94-2.51,1.42s-1.65.93-2.45,1.43C512.74,235.33,511.15,236.35,509.43,237.29Z"/></g><g class="cls-58"><path class="cls-2" d="M508.57,234.41a12.29,12.29,0,0,1,2.05-2.09,19,19,0,0,1,2.38-1.69,13.93,13.93,0,0,1,5.48-2c-.85.5-1.69.94-2.52,1.42s-1.64.93-2.45,1.43C511.88,232.45,510.28,233.46,508.57,234.41Z"/></g><g class="cls-58"><path class="cls-2" d="M509.84,240.18a12.68,12.68,0,0,1,2.05-2.09,19,19,0,0,1,2.38-1.69,14,14,0,0,1,5.48-2c-.85.5-1.69.94-2.51,1.41s-1.65.94-2.46,1.44C513.15,238.22,511.56,239.23,509.84,240.18Z"/></g><g class="cls-58"><path class="cls-2" d="M510.72,243.06a13.51,13.51,0,0,1,2-2.09,19.73,19.73,0,0,1,2.38-1.69,14.14,14.14,0,0,1,5.48-2c-.85.5-1.69.94-2.51,1.42s-1.65.93-2.46,1.43C514,241.1,512.44,242.12,510.72,243.06Z"/></g><g class="cls-58"><path class="cls-2" d="M512.87,248.83a13.08,13.08,0,0,1,2-2.09,19,19,0,0,1,2.38-1.69,14,14,0,0,1,5.48-2c-.85.5-1.69.94-2.51,1.42s-1.65.93-2.46,1.43C516.18,246.87,514.59,247.89,512.87,248.83Z"/></g><g class="cls-58"><path class="cls-2" d="M512,245.94a12.61,12.61,0,0,1,2-2.08,19,19,0,0,1,2.38-1.69,13.77,13.77,0,0,1,5.48-2c-.85.5-1.69.94-2.52,1.41s-1.64.94-2.45,1.44C515.32,244,513.72,245,512,245.94Z"/></g><g class="cls-58"><path class="cls-2" d="M513.28,251.71a12.61,12.61,0,0,1,2.05-2.08,19,19,0,0,1,2.38-1.69,14,14,0,0,1,5.48-2c-.85.51-1.69.94-2.52,1.42s-1.64.94-2.45,1.43C516.59,249.76,515,250.77,513.28,251.71Z"/></g><g class="cls-58"><path class="cls-2" d="M514.16,254.6a12.68,12.68,0,0,1,2.05-2.09,19,19,0,0,1,2.38-1.69,14,14,0,0,1,5.48-2c-.85.5-1.69.94-2.51,1.41s-1.65.94-2.46,1.44C517.47,252.64,515.88,253.65,514.16,254.6Z"/></g><g class="cls-58"><path class="cls-2" d="M516.31,260.37a12.29,12.29,0,0,1,2.05-2.09,19,19,0,0,1,2.38-1.69,13.93,13.93,0,0,1,5.48-2c-.85.5-1.69.94-2.52,1.41s-1.64.94-2.45,1.44C519.62,258.41,518,259.42,516.31,260.37Z"/></g><g class="cls-58"><path class="cls-2" d="M515.45,257.48a13.07,13.07,0,0,1,2-2.09,18.9,18.9,0,0,1,2.38-1.68,14,14,0,0,1,5.47-2c-.84.51-1.68.94-2.51,1.42s-1.64.93-2.45,1.43C518.76,255.52,517.16,256.54,515.45,257.48Z"/></g><g class="cls-58"><path class="cls-2" d="M517.41,262a13,13,0,0,1,2.05-2.08,19,19,0,0,1,2.38-1.69,14,14,0,0,1,5.48-2c-.85.51-1.69.95-2.51,1.42s-1.65.94-2.46,1.44C520.72,260.05,519.12,261.06,517.41,262Z"/></g><path class="cls-2" d="M519.56,267.77a12.61,12.61,0,0,1,2.05-2.08A19,19,0,0,1,524,264a13.94,13.94,0,0,1,5.48-2c-.85.51-1.69.94-2.52,1.42s-1.64.94-2.45,1.43C522.87,265.82,521.27,266.83,519.56,267.77Z"/><g class="cls-58"><path class="cls-2" d="M518.7,264.89a12.67,12.67,0,0,1,2-2.09,19,19,0,0,1,2.38-1.69,13.94,13.94,0,0,1,5.47-2c-.84.5-1.68.94-2.51,1.42s-1.64.93-2.45,1.43C522,262.93,520.41,264,518.7,264.89Z"/></g><path class="cls-59" d="M501.48,205.78s-.51,1.14.1.78,3.85-2.3,4.46-2.58c1.38-.63.7-1.44.17-1.3A14.6,14.6,0,0,0,501.48,205.78Z"/><path class="cls-59" d="M501.89,208.76s-.51,1.14.1.78,3.86-2.3,4.47-2.58c1.37-.63.69-1.44.16-1.3A14.78,14.78,0,0,0,501.89,208.76Z"/><path class="cls-59" d="M503.38,211.29s-.51,1.14.1.78,3.86-2.31,4.47-2.58c1.37-.63.69-1.44.17-1.3A14.33,14.33,0,0,0,503.38,211.29Z"/><path class="cls-59" d="M504.27,214.07s-.52,1.13.1.78,3.85-2.31,4.46-2.59c1.38-.62.7-1.44.17-1.3A14.68,14.68,0,0,0,504.27,214.07Z"/><path class="cls-59" d="M504.69,216.86s-.51,1.13.11.78,3.85-2.31,4.46-2.59c1.38-.62.7-1.44.17-1.3A14.59,14.59,0,0,0,504.69,216.86Z"/><path class="cls-59" d="M506,219.5s-.51,1.14.1.78,3.86-2.3,4.47-2.58c1.38-.63.69-1.44.17-1.3A14.68,14.68,0,0,0,506,219.5Z"/><path class="cls-59" d="M507.05,222.39s-.51,1.14.11.78,3.85-2.31,4.46-2.58c1.38-.63.7-1.44.17-1.31A14.8,14.8,0,0,0,507.05,222.39Z"/><path class="cls-59" d="M507.9,225.27s-.51,1.14.1.78,3.86-2.3,4.47-2.58c1.38-.63.69-1.44.17-1.3A14.33,14.33,0,0,0,507.9,225.27Z"/><path class="cls-59" d="M509.65,231.4s-.51,1.14.1.78,3.85-2.31,4.46-2.58c1.38-.63.7-1.44.17-1.3A14.43,14.43,0,0,0,509.65,231.4Z"/><path class="cls-59" d="M508.75,228.21s-.51,1.14.1.78,3.86-2.3,4.47-2.58c1.37-.63.69-1.44.17-1.3A14.68,14.68,0,0,0,508.75,228.21Z"/><path class="cls-59" d="M510.72,234s-.51,1.14.11.78,3.85-2.31,4.46-2.58c1.38-.63.7-1.44.17-1.3A14.54,14.54,0,0,0,510.72,234Z"/><path class="cls-59" d="M511.36,236.77s-.51,1.14.1.78,3.86-2.31,4.47-2.58c1.37-.63.69-1.44.17-1.3A14.33,14.33,0,0,0,511.36,236.77Z"/><path class="cls-59" d="M512.86,239.33s-.51,1.13.1.78,3.86-2.31,4.46-2.59c1.38-.62.7-1.44.17-1.3A14.68,14.68,0,0,0,512.86,239.33Z"/><path class="cls-59" d="M513.51,242.47s-.51,1.14.11.78,3.85-2.31,4.46-2.58c1.38-.63.7-1.44.17-1.3A14.54,14.54,0,0,0,513.51,242.47Z"/><path class="cls-59" d="M514.37,245.34s-.51,1.13.11.78,3.85-2.31,4.46-2.59c1.38-.62.7-1.44.17-1.3A14.59,14.59,0,0,0,514.37,245.34Z"/><path class="cls-59" d="M515.23,248.17s-.51,1.14.11.78,3.85-2.31,4.46-2.58c1.38-.63.7-1.44.17-1.31A14.8,14.8,0,0,0,515.23,248.17Z"/><path class="cls-59" d="M516.3,250.86s-.51,1.14.11.78,3.85-2.3,4.46-2.58c1.38-.63.7-1.44.17-1.3A14.33,14.33,0,0,0,516.3,250.86Z"/><path class="cls-59" d="M518.27,256.18s-.51,1.14.1.78,3.86-2.3,4.47-2.58c1.38-.63.7-1.44.17-1.3A14.33,14.33,0,0,0,518.27,256.18Z"/><path class="cls-59" d="M517.16,253.39s-.51,1.14.1.78,3.86-2.3,4.47-2.58c1.37-.63.69-1.44.17-1.3A14.68,14.68,0,0,0,517.16,253.39Z"/><path class="cls-59" d="M519.77,261.5s-.51,1.14.11.78,3.85-2.31,4.46-2.58c1.38-.63.7-1.44.17-1.3A14.54,14.54,0,0,0,519.77,261.5Z"/><path class="cls-59" d="M521.06,264s-.51,1.14.1.78,3.86-2.31,4.47-2.59c1.38-.62.69-1.43.17-1.3A14.59,14.59,0,0,0,521.06,264Z"/><polygon class="cls-60" points="500.23 199.59 503.6 198.32 526.22 263.75 522.78 265.54 500.23 199.59"/><path class="cls-2" d="M497.48,202.66l10.22-4.34-.46-1.46-5.57,1.46.92-4.38s-1.8-1.68-3.95.5a50.62,50.62,0,0,0-1.8,6.16Z"/><polygon class="cls-61" points="498.64 194.44 501.67 193.44 502.59 193.94 502 196.78 497.52 197.93 498.64 194.44"/><path class="cls-61" d="M497.31,200.5c.32-.19,9.73-3.31,9.73-3.31l.41.8-9.93,3.56Z"/><path class="cls-62" d="M512,281.21s-2.28-5,.88-7,41.49-26.44,41.49-26.44,5-3.12,6.59,0-2.84,5.32-2.84,5.32l-38.77,28.59S515.13,284.74,512,281.21Z"/><path class="cls-31" d="M511.34,276.36s-1,6,4.11,6.41c2.9-.52,3.43-.86,42.66-29.71-2,2-35.17,27.7-42,30.28C515.35,283.52,509.9,283.57,511.34,276.36Z"/><path class="cls-63" d="M532.38,259.12l-2,16.77L519,283.39s-6.1,3.07-8.5,0-1.54-7.3-.52-9S532.38,259.12,532.38,259.12Z"/><path class="cls-2" d="M525,195.78s3.71-3.76,10.39-2.46c1.33,4.74,10.56,36.94,10.56,36.94l-8.63,2.42Z"/><polygon class="cls-56" points="532.38 193.04 535.37 193.32 541.44 216.38 538.5 216.72 532.38 193.04"/><polygon class="cls-56" points="533.72 218.98 542.17 217.13 542.66 222.43 541.2 222.87 539.94 220 533.72 218.98"/><path class="cls-61" d="M526.22,194.84s2.82-1.86,5.29-1.79c.53,1.78,5.79,23.34,5.79,23.34l4.46-.67.41,1.41-9.79,2.14-1-1.56,2.82-.78Z"/><polygon class="cls-64" points="531.51 247.74 537.83 251.71 541.52 249.73 542.66 253.39 534.6 258.4 531.51 247.74"/><path class="cls-65" d="M531.71,273.13l-.39-.92C559,260.46,563.77,255.59,565.65,245c2.06-11.69-11.28-20.91-18.63-24.15-9-4-23.75-15.65-23.89-15.77l.62-.78c.15.11,14.8,11.72,23.68,15.64,10.57,4.66,21.09,14.55,19.2,25.24C564.56,256.86,558.36,261.83,531.71,273.13Z"/><path class="cls-66" d="M523.46,205.65s.07-1.31,1.49-.61c.23,0-1.09-2.23-1.71-1.55s-.82,1.38-.39,2S523.46,205.65,523.46,205.65Z"/><polygon class="cls-61" points="533.72 225.09 543.6 222.15 543.91 223.24 540.36 224.14 535.11 226.12 533.72 225.09"/><path class="cls-56" d="M536.09,225.75c.63-.24,7.82-2.51,7.82-2.51v7h-1.74l-.73-5.16Z"/><polygon class="cls-67" points="533.72 193.94 538.82 215.07 540.22 215.95 534.19 193.44 533.72 193.94"/><path class="cls-60" d="M535.23,218.91c.62-.09,5.3-1.2,5.3-1.2l.57.6s.76,2.89.71,2.75-1.19-2.58-1.81-2.48S535.23,218.91,535.23,218.91Z"/><path class="cls-60" d="M538.52,225.1c.42-.14,4.49-1.27,4.49-1.27a2.74,2.74,0,0,0,0,1.27,25.85,25.85,0,0,1,.28,3.54s-.49-3.86-1.12-3.95A25.93,25.93,0,0,0,538.52,225.1Z"/><path class="cls-68" d="M525,195.78l3.62,10.59s1.77,2.54,1.77,1.26-3-13.4-3-13.4Z"/><path class="cls-59" d="M525,195.78s3.91,9.91,4.23,10,.75.21-.57-4.22-1.95-7-1.95-7A8.38,8.38,0,0,0,525,195.78Z"/><path class="cls-69" d="M387.49,42.66s14.7-1.62,17.77-3.08,3.49,9.52,3.49,9.52L389.28,52Z"/><path class="cls-6" d="M341.72,64l39.91-17.54s8.71,2.66,6.86,11.68c-9.91,4.46-38.42,18.46-38.42,18.46S339.75,74.69,341.72,64Z"/><path class="cls-6" d="M379.32,50.62s-2.72-9,4.88-11.36c6.9-2.14,12.87,6.56,13.38,13.91s-7.26,13-13.5,5.55C379.88,53.68,379.32,50.62,379.32,50.62Z"/><path class="cls-6" d="M403.47,41.21s4.77,7.64,3.72,10.58-9.66,3.84-9.66,3.84a17.58,17.58,0,0,0-4.7-13.46C394.45,40.19,401.46,37.53,403.47,41.21Z"/><path class="cls-70" d="M405.05,48.92a30.22,30.22,0,0,1-.37,7.77A8.76,8.76,0,0,1,401.76,61s-19.86,7.76-25.92,15.4c-.32.89.68,2.93-1.16,3.89s-4.14-.19-3.06-2.44,9.83-10.6,17-14.47c3.29-1.63,9.77-4.33,10.69-6.33.45-1.53.61-6.22-.06-7.47C401.25,48.64,405.05,48.92,405.05,48.92Z"/><path class="cls-6" d="M381.9,50.74s2.43,4.18,3.38,4.5,4-1.21,4-3.28C389.28,50.05,381.9,50.74,381.9,50.74Z"/><circle class="cls-71" cx="395.03" cy="48.73" r="0.87"/><path class="cls-72" d="M387.12,40.93s-.31-1.69,1.09-1.14,7.34,3.09,8.51,12.88c.27,1-.71,1.24-.82.36S395.5,45.35,387.12,40.93Z"/><path class="cls-73" d="M343.46,64.5s3.74,4.79,5.88,5c1.59.16,37.08-16.18,37.08-16.18s1.53-2.23-2.24-5.06c1.49.58,5.44,2.74,2.32,8.25-1.67.88-35.92,16.72-35.92,16.72Z"/><path class="cls-74" d="M375.84,76.4s1.58-4.15,11.12-9.84L400.78,60s2-1,2.94-4.43a21.91,21.91,0,0,0,.17-3.37l1.36-1.6s-.14,6.54-1.52,8.22-1.39,2.13-6.14,3.95c-4.55,1.83-7,2.67-17.31,9.43A57,57,0,0,0,375.84,76.4Z"/><path class="cls-72" d="M379.76,70.15a55.82,55.82,0,0,1,10.82-7.33c2.9-1.4,6.31-2.89,8.92-5a4.79,4.79,0,0,0,.91-4,3.89,3.89,0,0,1-1.34,5.57C396.28,61,389.11,64,379.76,70.15Z"/><path class="cls-75" d="M387.12,40.93s15.28-25.28,27.56-27.52"/><path class="cls-76" d="M442.31,25.4s-4.46-14.59-27.63-12"/><path class="cls-77" d="M441.53,25.61s-1.09,2,0,1.1,3.93-3.26,1.19-2.18C442.89,24.79,443.28,25.89,441.53,25.61Z"/></g></g></g></svg>