<svg xmlns="http://www.w3.org/2000/svg" xmlns:xlink="http://www.w3.org/1999/xlink" viewBox="0 0 669.5 305.17"><defs><style>.cls-1{isolation:isolate;}.cls-2{fill:#101010;}.cls-3{fill:#020202;}.cls-4{fill:url(#linear-gradient);}.cls-5{fill:#191815;}.cls-6{fill:#636464;}.cls-10,.cls-7,.cls-82{fill:#f9f9fa;}.cls-7{opacity:0.44;}.cls-100,.cls-101,.cls-102,.cls-103,.cls-105,.cls-11,.cls-110,.cls-115,.cls-116,.cls-125,.cls-137,.cls-138,.cls-142,.cls-143,.cls-148,.cls-149,.cls-46,.cls-47,.cls-62,.cls-63,.cls-8,.cls-97{fill:#fff;}.cls-8,.cls-86{opacity:0.73;}.cls-116,.cls-9{opacity:0.49;}.cls-10,.cls-92{opacity:0.33;}.cls-11,.cls-78{opacity:0.09;}.cls-12{fill:#9e9d9e;}.cls-13{fill:#939598;}.cls-14{fill:#555656;opacity:0.45;}.cls-15,.cls-16{fill:#606161;}.cls-15{opacity:0.26;}.cls-16,.cls-62{opacity:0.63;}.cls-17{fill:#a6b2b2;}.cls-17,.cls-85{opacity:0.54;}.cls-18{fill:url(#linear-gradient-2);}.cls-19{fill:url(#linear-gradient-3);}.cls-20{fill:url(#linear-gradient-4);}.cls-21{fill:url(#linear-gradient-5);}.cls-22{fill:url(#linear-gradient-6);}.cls-23{fill:url(#linear-gradient-7);}.cls-24{fill:url(#linear-gradient-8);}.cls-25{fill:url(#linear-gradient-9);}.cls-26{fill:url(#linear-gradient-10);}.cls-27,.cls-28,.cls-29,.cls-30,.cls-31,.cls-32,.cls-33,.cls-34,.cls-35{opacity:0.35;}.cls-27{fill:url(#linear-gradient-11);}.cls-28{fill:url(#linear-gradient-12);}.cls-29{fill:url(#linear-gradient-13);}.cls-30{fill:url(#linear-gradient-14);}.cls-31{fill:url(#linear-gradient-15);}.cls-32{fill:url(#linear-gradient-16);}.cls-33{fill:url(#linear-gradient-17);}.cls-34{fill:url(#linear-gradient-18);}.cls-35{fill:url(#linear-gradient-19);}.cls-36{fill:#7d714e;}.cls-37,.cls-93,.cls-94{fill:#37160d;}.cls-108,.cls-109,.cls-113,.cls-114,.cls-118,.cls-119,.cls-120,.cls-130,.cls-132,.cls-134,.cls-144,.cls-150,.cls-37,.cls-38,.cls-50,.cls-55,.cls-60,.cls-64,.cls-65,.cls-67,.cls-75,.cls-77,.cls-78,.cls-79,.cls-81,.cls-87,.cls-93,.cls-94{mix-blend-mode:multiply;}.cls-37,.cls-63{opacity:0.6;}.cls-38{opacity:0.4;}.cls-39{opacity:0.36;}.cls-40{fill:url(#linear-gradient-20);}.cls-123,.cls-124,.cls-41{fill:#c4c4c4;}.cls-42{fill:#212121;}.cls-43{fill:url(#linear-gradient-21);}.cls-44{fill:#171717;}.cls-45{fill:url(#linear-gradient-22);}.cls-46{opacity:0.42;}.cls-120,.cls-47,.cls-55,.cls-58{opacity:0.46;}.cls-48{fill:url(#linear-gradient-23);}.cls-49{fill:#98712a;}.cls-50,.cls-51{fill:#68441a;}.cls-52{fill:#e4ad24;}.cls-53{fill:#eae3dc;}.cls-103,.cls-53{opacity:0.75;}.cls-54{fill:#d1d3d4;}.cls-55{fill:#171818;}.cls-126,.cls-56,.cls-64,.cls-65,.cls-67{fill:#34333a;}.cls-57,.cls-60{fill:#151517;}.cls-58,.cls-59,.cls-61{fill:#929299;}.cls-59{opacity:0.22;}.cls-100,.cls-60{opacity:0.27;}.cls-61{opacity:0.21;}.cls-123,.cls-148,.cls-64,.cls-66{opacity:0.32;}.cls-65,.cls-88{opacity:0.66;}.cls-66{fill:#cacacb;}.cls-67{opacity:0.99;}.cls-68{fill:#8e8e8e;}.cls-69{fill:#dc9727;}.cls-70,.cls-72,.cls-73,.cls-74{fill:#e6d16f;}.cls-71{fill:#151515;}.cls-121,.cls-72,.cls-73{mix-blend-mode:overlay;}.cls-122,.cls-72,.cls-75,.cls-93{opacity:0.37;}.cls-73,.cls-76{opacity:0.24;}.cls-74{opacity:0.69;}.cls-75,.cls-77,.cls-78,.cls-87{fill:#342612;}.cls-76{fill:#906226;}.cls-77{opacity:0.3;}.cls-79,.cls-87{opacity:0.58;}.cls-79{fill:url(#linear-gradient-24);}.cls-80{fill:#e0e1e2;}.cls-114,.cls-80,.cls-89{opacity:0.51;}.cls-147,.cls-81{fill:#231f20;}.cls-81{opacity:0.71;}.cls-82{opacity:0.57;}.cls-83,.cls-92{fill:#9b9a9a;}.cls-136,.cls-84{fill:#d3d3d3;}.cls-85{fill:#070808;}.cls-141,.cls-86{fill:#fdfefe;}.cls-88,.cls-89{fill:#efecd8;}.cls-90{fill:#121212;}.cls-91{fill:#1e1e1e;}.cls-94{opacity:0.59;}.cls-95{fill:url(#linear-gradient-25);}.cls-96{fill:#bab9ba;}.cls-126,.cls-97{opacity:0.61;}.cls-98{fill:#13131a;}.cls-99{fill:#1b1b1b;}.cls-101{opacity:0.31;}.cls-102{opacity:0.18;}.cls-104,.cls-119,.cls-120{fill:#1c0c0d;}.cls-105{opacity:0.55;}.cls-106{fill:#d6d6d6;}.cls-107{fill:#181818;}.cls-108{opacity:0.07;}.cls-109{opacity:0.5;}.cls-111{fill:#434343;}.cls-112{fill:#999;}.cls-113{opacity:0.01;}.cls-115,.cls-136{opacity:0.17;}.cls-117{fill:#351111;}.cls-118,.cls-134{opacity:0.28;}.cls-119,.cls-127{opacity:0.65;}.cls-121{fill:#a04242;}.cls-124,.cls-137{opacity:0.39;}.cls-125{opacity:0.1;}.cls-127,.cls-131{fill:#dcdbdb;}.cls-128,.cls-130{fill:#b5b1b1;}.cls-129{fill:#ddd;}.cls-131{opacity:0.34;}.cls-132,.cls-134{fill:#34333d;}.cls-132{opacity:0.82;}.cls-133{fill:#a2a8aa;}.cls-135{opacity:0.83;}.cls-138,.cls-141{opacity:0.11;}.cls-139{fill:url(#linear-gradient-26);}.cls-140{fill:#2d2d2d;}.cls-142{opacity:0.43;}.cls-143{opacity:0.08;}.cls-144{opacity:0.16;}.cls-145{fill:#414042;}.cls-146{opacity:0.38;}.cls-149{opacity:0.56;}.cls-150{opacity:0.94;fill:url(#linear-gradient-27);}</style><linearGradient id="linear-gradient" x1="73.39" y1="207.2" x2="119.23" y2="207.2" gradientUnits="userSpaceOnUse"><stop offset="0" stop-color="#d1d3d4"/><stop offset="1" stop-color="#6d6e71"/></linearGradient><linearGradient id="linear-gradient-2" x1="328.01" y1="112.98" x2="411.49" y2="112.98" gradientUnits="userSpaceOnUse"><stop offset="0" stop-color="#231f20" stop-opacity="0"/><stop offset="0.53" stop-color="#ccced0"/><stop offset="1" stop-color="#231f20" stop-opacity="0"/></linearGradient><linearGradient id="linear-gradient-3" x1="328.38" y1="115.65" x2="411.07" y2="115.65" xlink:href="#linear-gradient-2"/><linearGradient id="linear-gradient-4" x1="328.91" y1="118.31" x2="411.07" y2="118.31" xlink:href="#linear-gradient-2"/><linearGradient id="linear-gradient-5" x1="329.25" y1="120.97" x2="410.73" y2="120.97" xlink:href="#linear-gradient-2"/><linearGradient id="linear-gradient-6" x1="329.25" y1="123.65" x2="410.73" y2="123.65" xlink:href="#linear-gradient-2"/><linearGradient id="linear-gradient-7" x1="329.59" y1="126.24" x2="410.39" y2="126.24" xlink:href="#linear-gradient-2"/><linearGradient id="linear-gradient-8" x1="330.03" y1="129.15" x2="410.39" y2="129.15" xlink:href="#linear-gradient-2"/><linearGradient id="linear-gradient-9" x1="330.46" y1="132.05" x2="409.86" y2="132.05" xlink:href="#linear-gradient-2"/><linearGradient id="linear-gradient-10" x1="330.82" y1="134.81" x2="409.86" y2="134.81" xlink:href="#linear-gradient-2"/><linearGradient id="linear-gradient-11" x1="334.48" y1="138.39" x2="406.71" y2="138.39" xlink:href="#linear-gradient-2"/><linearGradient id="linear-gradient-12" x1="334.8" y1="141.06" x2="406.35" y2="141.06" xlink:href="#linear-gradient-2"/><linearGradient id="linear-gradient-13" x1="335.25" y1="143.72" x2="406.35" y2="143.72" xlink:href="#linear-gradient-2"/><linearGradient id="linear-gradient-14" x1="335.55" y1="146.38" x2="406.06" y2="146.38" xlink:href="#linear-gradient-2"/><linearGradient id="linear-gradient-15" x1="335.55" y1="149.06" x2="406.06" y2="149.06" xlink:href="#linear-gradient-2"/><linearGradient id="linear-gradient-16" x1="335.84" y1="151.65" x2="405.76" y2="151.65" xlink:href="#linear-gradient-2"/><linearGradient id="linear-gradient-17" x1="336.23" y1="154.56" x2="405.76" y2="154.56" xlink:href="#linear-gradient-2"/><linearGradient id="linear-gradient-18" x1="336.6" y1="157.47" x2="405.31" y2="157.47" xlink:href="#linear-gradient-2"/><linearGradient id="linear-gradient-19" x1="336.91" y1="160.22" x2="405.31" y2="160.22" xlink:href="#linear-gradient-2"/><linearGradient id="linear-gradient-20" x1="93.81" y1="185.96" x2="114.79" y2="185.96" gradientTransform="translate(-18.76 27.24) rotate(-8.18)" xlink:href="#linear-gradient"/><linearGradient id="linear-gradient-21" x1="134" y1="129.17" x2="159.54" y2="132.74" gradientTransform="translate(39.95 -36.05) rotate(17.86)" gradientUnits="userSpaceOnUse"><stop offset="0" stop-color="#808285"/><stop offset="0.31" stop-color="#59585b"/><stop offset="0.6" stop-color="#3b393b"/><stop offset="0.84" stop-color="#292627"/><stop offset="1" stop-color="#231f20"/></linearGradient><linearGradient id="linear-gradient-22" x1="161.2" y1="81.01" x2="170.68" y2="96.18" gradientTransform="translate(-18.76 27.24) rotate(-8.18)" xlink:href="#linear-gradient"/><linearGradient id="linear-gradient-23" x1="120.28" y1="95.18" x2="147.48" y2="95.18" xlink:href="#linear-gradient"/><linearGradient id="linear-gradient-24" x1="547.52" y1="171.4" x2="568.47" y2="171.4" gradientUnits="userSpaceOnUse"><stop offset="0.04" stop-color="#231f20" stop-opacity="0.96"/><stop offset="1" stop-opacity="0"/></linearGradient><linearGradient id="linear-gradient-25" x1="81.85" y1="104.87" x2="89.04" y2="90.77" gradientTransform="translate(175.85 -7.05) rotate(89.9)" gradientUnits="userSpaceOnUse"><stop offset="0" stop-color="#333"/><stop offset="0.53" stop-color="#282526"/><stop offset="1" stop-color="#231f20"/></linearGradient><linearGradient id="linear-gradient-26" x1="477.77" y1="3.97" x2="487.06" y2="8.91" xlink:href="#linear-gradient"/><linearGradient id="linear-gradient-27" x1="556.91" y1="186.26" x2="569.91" y2="186.26" xlink:href="#linear-gradient-24"/></defs><g class="cls-1"><g id="Layer_2" data-name="Layer 2"><g id="Modern_classwic" data-name="Modern classwic"><path d="M489.92,17.52s-3.38,3.18-3.15,3.95a39.35,39.35,0,0,1,.48,4.25s2.72.91,2.67,1.83,1.74,9.87,1.74,9.87l2.87-1.09s6.63-5.8,5-8.78S489.92,17.52,489.92,17.52Z"/><path d="M512,31.42s10.29-1.54,11.34-3.87,4.45,7.3,4.36,7.58-12.11,4.58-12.56,4.58S512,31.42,512,31.42Z"/><path d="M515.74,43.84s5.85-2.75,8.42-3.3,1.35,2.93,1.35,2.93-6.73,2.32-7.65,3.58S515.74,43.84,515.74,43.84Z"/><path d="M518.42,48.52c.18.49,5.16,1.87,5.16,1.87L522.05,53s-2.63,1.56-3,.59A32.5,32.5,0,0,1,518.42,48.52Z"/><path d="M507.73,29.43c.85-.35,10.5-3.93,12.46-8a3.41,3.41,0,0,1,0,2.11s-3.05,3.5-10,6.51-3.4-7.15-3.4-7.15,18,4.58,21.87,12c1.06,1.56-1.05,1.38-1.05,1.38s-6.15-8.53-19.72-11.92A35.26,35.26,0,0,1,507.73,29.43Z"/><path class="cls-2" d="M529.59,1.52s17.7,6.15,25.25,24.28c1.73,3.24,0,7.37,0,7.37s4.93,23.15-4.6,53.54c-1.76.92-8.63,8.45-14.85,6.12S517.61,60,519.43,58s4.47-21.5,4.47-21.5a18,18,0,0,0-7.21-15.67C508,14.23,515.3,6.65,515.3,6.65S523.29-1.59,529.59,1.52Z"/><path d="M549.26,168.34c-.12-.19-11.92-19.45-20-26.28-5.46-4.61-11-8.1-17.4-12.14-3.2-2-6.5-4.09-10.05-6.48-10.61-7.13-18.28-30.64-18.6-31.64l.95-.31c.08.25,7.88,24.18,18.21,31.12,3.53,2.38,6.83,4.46,10,6.47,6.44,4.06,12,7.56,17.51,12.22,8.2,6.93,19.72,25.73,20.21,26.52Z"/><path d="M547.75,161c-3.36-.92-32.86-9.1-36-13.1s-10.4-24.91-11.62-42.62a246.54,246.54,0,0,0-5.34-35l1.52-.36a249.91,249.91,0,0,1,5.38,35.29c1.2,17.43,8.13,37.8,11.28,41.77,2.17,2.72,22.25,9,35.23,12.55Z"/><path d="M463.3,121.48l-1.17-1c.28-.32,28.21-32,48.17-50.67l1.07,1.14C491.46,89.54,463.58,121.16,463.3,121.48Z"/><polygon points="321.27 116.75 321.27 112.36 327.6 108.85 331.69 133.44 322.86 133.44 319.96 130.17 321.27 116.75"/><path class="cls-3" d="M348.43,168.14l-11,3.19-11.48-.77-15.36,14L308,171.91l-20.24,25.4c-2.9-1.16-5.88-2.37-8.71-3.53l-2.59-28.14-9,12.75-5.93,12,1.55,1.76-.1.2-17.79-21.08L228.77,184l14.32,35.91,6.29,3.8-2,7.42,9.7,17.71,125.58,6.93,7.65-5.74,7.05-15.95Z"/><rect class="cls-3" x="224.23" y="73.73" width="8.5" height="121.54" transform="translate(-36.34 121.73) rotate(-27.72)"/><path d="M284.67,196.44l14.68-23.08s11.26-21.34,14.26-38.55S320,92.26,320,92.26l10.82-5.55s-6.56,41.23-8.25,48-2.81,21.46-14.83,42.07S290.11,204,290.11,204Z"/><circle class="cls-4" cx="96.31" cy="207.2" r="22.92"/><polygon points="433 129.88 422.09 124.13 430.42 139.01 433 129.88"/><path d="M404.36,93.33l-16.91-1.39-17.11-5.23H335.25l-6.87,11.16-1.79,6.83,19.51,16.88,29.54-.61,19-.74L417,121.44l5.09,2.69-2.69-4.81,10.53.49,10.06-7,3.68,3.64L408,210.59l-18.4,7.2-13.91,18.4,10.21-4.59-33.93,18.49,35.53,3.73,20.5-9.3s11.44-11.59,12.85-14.7S469.92,99.7,469.92,99.7l4.72-8Z"/><polygon points="407.95 168.41 429.05 170.26 411.89 217.79 398.57 219.13 392.67 172.18 407.95 168.41"/><path d="M411.88,107.44v-.11h0a8.67,8.67,0,0,0-1.44-4s-12.75-6.11-19.29-8.16-15.35,1.52-15.35,1.52l-1.06,10.67H364.56L363.5,96.66s-8.82-3.58-15.36-1.52-19.28,8.16-19.28,8.16a8.67,8.67,0,0,0-1.44,4h0v.08a5.44,5.44,0,0,0,.11,1.32s.06.08.08.12l3.64,27.78h3.53l7.05,39.72,59.07-.68,5.67-39h3l2.23-27.94A4.84,4.84,0,0,0,411.88,107.44Z"/><path class="cls-5" d="M341.74,172.28l30.19-1.44c.31,0,.63,0,.94,0l31.23,1.44a11.82,11.82,0,0,1,10,18.13l-9.61,17.79a36.59,36.59,0,0,1-2.49,4l-13.38,18.64a19.67,19.67,0,0,1-33.28,0L342.7,214.45a27.18,27.18,0,0,1-2.86-4.55l-9-17.9A12.86,12.86,0,0,1,341.74,172.28Z"/><circle class="cls-6" cx="400.25" cy="186.98" r="12.8"/><path class="cls-7" d="M390.31,178.91s2.1-.95,2,.34a10,10,0,0,1-1.37,3.37s-1.65,3.9-.65,7,2.26,4.83,5.67,6.72c1.1.43,3.41,1.84,8.19.19a10.7,10.7,0,0,0,6.35-7.29c0-5.18-.35-6.63-3.72-9.76-1.22-1.37-7.58-3.3-2.59-4.69a11.88,11.88,0,0,0-8.28.12A13.78,13.78,0,0,0,390.31,178.91Z"/><circle cx="400.25" cy="186.98" r="9.62"/><rect class="cls-6" x="391.5" y="180.62" width="17.51" height="0.56"/><rect class="cls-6" x="390.96" y="183" width="18.59" height="0.56"/><rect class="cls-6" x="391.5" y="190.68" width="17.51" height="0.56"/><rect class="cls-6" x="390.96" y="193.06" width="18.59" height="0.56"/><path class="cls-8" d="M393.35,180.9c2.34-.12,4.67-.12,7-.14s4.67,0,7,.14c-2.34.12-4.67.13-7,.14S395.69,181,393.35,180.9Z"/><path class="cls-8" d="M393.25,183.28c2.33-.12,4.67-.13,7-.14s4.67,0,7,.14c-2.34.12-4.67.12-7,.14S395.58,183.4,393.25,183.28Z"/><path class="cls-8" d="M393.25,191c2.33-.12,4.67-.13,7-.14s4.67,0,7,.14c-2.34.12-4.67.12-7,.14S395.58,191.07,393.25,191Z"/><path class="cls-8" d="M393.25,193.34c2.33-.12,4.67-.13,7-.15s4.67,0,7,.15c-2.34.11-4.67.12-7,.14S395.58,193.45,393.25,193.34Z"/><path class="cls-9" d="M390.86,189.61a11.07,11.07,0,0,1,1.28-7.91,10.3,10.3,0,0,1,1.92-2.14,8.54,8.54,0,0,1,4.51-2c-.51-.35-3.3.67-4.54,1.68a8.63,8.63,0,0,0-3.43,6C390.17,188.4,390.83,189.82,390.86,189.61Z"/><path class="cls-10" d="M394.84,177.94s-2.46,1.26-1.59-.45,1.53-2,3.87-2.86,4.42.13,3.77,1S394.84,177.94,394.84,177.94Z"/><path class="cls-11" d="M330.76,183.28s2.33-8.84,8.66-9.16,24.28-1.87,45.85-1.23c7.1.26,16.61.5,16.61.5s-7.29-.91-11.42,4.1a16.24,16.24,0,0,0-4.14,11.27,11.56,11.56,0,0,0,2.94,7.5c-11,4.74-43,21.53-43,21.53l-15.53-28.16S329.28,185.48,330.76,183.28Z"/><path d="M369.63,201.18l4.76-.23h.15l4.93.23a1.87,1.87,0,0,1,1.58,2.86l-1.52,2.81a6.65,6.65,0,0,1-.39.63L377,210.42a3.11,3.11,0,0,1-5.26,0l-2-2.58a4.61,4.61,0,0,1-.46-.72l-1.41-2.83A2,2,0,0,1,369.63,201.18Z"/><path class="cls-12" d="M374.4,212a3.23,3.23,0,0,1-2.75-1.51l-2-2.58a5.09,5.09,0,0,1-.46-.74l-1.42-2.83a2.16,2.16,0,0,1,1.84-3.31l4.77-.23h.16l4.93.23h0a2,2,0,0,1,1.69,3.07l-1.51,2.81a5.35,5.35,0,0,1-.41.64l-2.11,2.95A3.22,3.22,0,0,1,374.4,212Zm-4.78-10.69a1.88,1.88,0,0,0-1.59,2.89l1.42,2.84a3.92,3.92,0,0,0,.44.7l2,2.59a3,3,0,0,0,5,0L379,207.4a6.49,6.49,0,0,0,.39-.62l1.52-2.81a1.73,1.73,0,0,0-1.46-2.65l-4.94-.23h-.13Z"/><circle class="cls-13" cx="350.74" cy="173.91" r="1.17"/><circle class="cls-13" cx="374.47" cy="172.74" r="1.17"/><circle class="cls-13" cx="392.67" cy="173.36" r="1.17"/><circle class="cls-13" cx="412.69" cy="178.66" r="1.17"/><circle class="cls-14" cx="405.54" cy="202.12" r="1.17"/><circle class="cls-14" cx="394.67" cy="219.12" r="1.17"/><circle class="cls-14" cx="372.73" cy="236.19" r="1.17"/><circle class="cls-14" cx="350.73" cy="220.19" r="1.17"/><circle class="cls-13" cx="339.73" cy="203.19" r="1.17"/><circle class="cls-13" cx="331.73" cy="183.19" r="1.17"/><path class="cls-15" d="M333.69,108.91l27.7-1V98.28a12.87,12.87,0,0,0-13.85-1.06,144.54,144.54,0,0,1-15.81,7.08S328.71,109.09,333.69,108.91Z"/><path class="cls-15" d="M405.09,108.91l-27.7-1V98.28a12.87,12.87,0,0,1,13.85-1.06A144.86,144.86,0,0,0,407,104.3S410.07,109.09,405.09,108.91Z"/><path class="cls-16" d="M331.73,107.1s-.52-2.29,2.16-4.82,18-7.08,18-7.08,11.81,1.71,7.8,2C341.6,98.62,333.69,108.91,331.73,107.1Z"/><path class="cls-16" d="M380.56,97.5s1.14-2.06,4.83-2.15,18.15,6.75,18.15,6.75,7.66,9.15,4.46,6.7C393.57,97.76,380.82,100.15,380.56,97.5Z"/><path class="cls-17" d="M330.1,105.1s1.12-3,11.47-6.47c3.6-1.27,6.94-1.25,2.74,2.41s-6.47,6.28-10.62,7.87C330.82,109.22,328.52,109.31,330.1,105.1Z"/><rect class="cls-18" x="328.01" y="112.36" width="83.48" height="1.24"/><rect class="cls-19" x="328.38" y="115.03" width="82.69" height="1.24"/><rect class="cls-20" x="328.91" y="117.69" width="82.16" height="1.24"/><rect class="cls-21" x="329.25" y="120.35" width="81.48" height="1.24"/><rect class="cls-22" x="329.25" y="123.03" width="81.48" height="1.24"/><rect class="cls-23" x="329.59" y="125.62" width="80.8" height="1.24"/><rect class="cls-24" x="330.03" y="128.53" width="80.36" height="1.24"/><rect class="cls-25" x="330.46" y="131.44" width="79.41" height="1.24"/><rect class="cls-26" x="330.82" y="134.19" width="79.04" height="1.24"/><rect class="cls-27" x="334.48" y="137.78" width="72.24" height="1.24"/><rect class="cls-28" x="334.8" y="140.44" width="71.55" height="1.24"/><rect class="cls-29" x="335.25" y="143.1" width="71.1" height="1.24"/><rect class="cls-30" x="335.55" y="145.76" width="70.51" height="1.24"/><rect class="cls-31" x="335.55" y="148.44" width="70.51" height="1.24"/><rect class="cls-32" x="335.84" y="151.03" width="69.92" height="1.24"/><rect class="cls-33" x="336.23" y="153.94" width="69.53" height="1.24"/><rect class="cls-34" x="336.6" y="156.85" width="68.71" height="1.24"/><rect class="cls-35" x="336.91" y="159.6" width="68.4" height="1.24"/><path class="cls-36" d="M329.72,172.46c-6.09,0-15.93-.86-23.47-5.64-9.84-6.24-45.24-44.68-49.25-49l-.62-.68-.28-.53c-.39-.6-3.44-4.86-10.31-6l-10.85-1.75L95.17,89.91l-.18,0a152.82,152.82,0,0,1-21.1-5.75,7.09,7.09,0,1,1,4.88-13.31,137.48,137.48,0,0,0,18.69,5.1L237.1,94.84,248,96.6c12.07,2,18.06,9.42,19.82,12,14.7,16,39.82,42.3,46,46.21,5.91,3.75,16.6,3.61,19.88,3.26l.58,0c.45,0,45.17-1.08,66.66-1.21,9-.06,21.15-8.6,24.09-20.76a2.63,2.63,0,0,0-.34-2.55c-2.58-3.47-12.11-5.56-17.74-5.87a7.09,7.09,0,0,1,.76-14.15c3.42.18,20.91,1.57,28.34,11.54a16.69,16.69,0,0,1,2.75,14.36c-4.69,19.4-23.26,31.51-37.78,31.6-20.5.13-62.41,1.11-66.14,1.2C334.08,172.32,332.21,172.46,329.72,172.46Z"/><path d="M488.63,37s8-1.42,5.41-8.43c2.81-3.14,8.27,1.87,8.27,1.87l8.52,39.89L493.3,80.71l-4.67,9.91a27.83,27.83,0,0,0-4.94,1c-1.72.65-9.05,0-9.05,0Z"/><path class="cls-37" d="M89.62,74.13s7.7,3.91,8.73,10.13c6,.39,29.75,3.83,29.75,3.83l-10,4.42,86.28,12.19s-13.32-8.16-5.54-9,44,.11,44,.11L160.88,85.37Z"/><path d="M89.62,208.87s-.17,3.52,6.69,6.41S251.6,201.5,251.6,201.5s12.81-14.7,5.15-16.52S93.16,200.3,93.16,200.3Z"/><path class="cls-38" d="M192.61,103.11s-5-4.62-3.48-7.35,10.49-6,10.49-6L179,87.67l5.11,11.82,5.88,3.25Z"/><path class="cls-38" d="M176.83,100.6,125,94.66l9.77-10.33s39.11,2.53,40.1,3.34S176.83,100.6,176.83,100.6Z"/><path d="M390.19,258.11h-.55c-32-.54-108.35-2-125.21-4-7.21-.86-12.8-3.8-16.6-8.73-6.5-8.43-5.05-19.54-5-20l8.42,1.16-4.21-.58,4.21.57c0,.08-1,8.14,3.33,13.7,2.35,3,6,4.86,10.85,5.44,16.93,2,99.44,3.55,124.33,4a24.48,24.48,0,0,0,19.78-9.38A75,75,0,0,0,420,220.85c9.3-24.75,51.46-134.56,51.89-135.67l7.94,3c-.43,1.11-42.58,110.89-51.87,135.61a83.53,83.53,0,0,1-11.66,21.57A33,33,0,0,1,390.19,258.11Z"/><path d="M247.06,231.6a5.67,5.67,0,0,1-5.08-3.16c-.51-1-51.37-103.79-61.63-121.07-9.2-15.5-20.64-20-20.75-20.08l4-10.63c.61.22,15.17,5.74,26.55,24.92,8.51,14.33,42.71,82.89,56.4,110.46l40.77-102.13c.06-.15.13-.3.2-.44.48-1,12.24-23.84,42.65-30.81,14.66-3.36,17.43-5.07,17.7-5.25A4.75,4.75,0,0,0,346.36,78a4.52,4.52,0,0,0,3.13,3.56l2.12-11.14c3.52.67,5.92,3.25,6,6.41.11,5.65-5,8.29-24.93,12.85-24,5.5-33.93,22.78-34.95,24.67L252.33,228a5.66,5.66,0,0,1-5,3.56Z"/><path d="M410.12,95.2c-6.67,0-12.82-.1-17.77-.34l-.64,0-.6-.21a125.11,125.11,0,0,0-21.49-5.36l-85.31-2c-6.1,0-127.42,1-146.33,0l-.28,0c-22.9-2.77-50.13-15.55-51.28-16.09l3.63-7.69c.27.13,27,12.68,48.53,15.33,19.21,1,144.46,0,145.73,0h.13l85.89,2.07.25,0a132.58,132.58,0,0,1,22.81,5.59c24,1.09,77.09-1.19,77.63-1.22l.36,8.5C469.61,93.76,436,95.2,410.12,95.2Z"/><path d="M96.31,157.91a51,51,0,1,1-51,51,51,51,0,0,1,51-51m0-45.35a96.31,96.31,0,1,0,96.3,96.31,96.31,96.31,0,0,0-96.3-96.31Z"/><path class="cls-39" d="M113,184.28l-9.85,19.79s-1.55,3,2.4,5.64,7.29-2,7.29-2l8.7-19.39S115.11,184.86,113,184.28Z"/><path class="cls-40" d="M111.74,183.56l-9.85,19.79s-1.55,3,2.4,5.64,7.29-2,7.29-2l8.7-19.39S113.83,184.14,111.74,183.56Z"/><circle class="cls-39" cx="107.51" cy="203.27" r="2.61"/><circle class="cls-41" cx="107.66" cy="203.09" r="2.34"/><polygon class="cls-42" points="115 184.87 117.72 186.08 165.55 79.25 162.08 79.75 115 184.87"/><polygon class="cls-43" points="138.59 165.05 116.77 165.16 142.68 97.41 160.96 101.44 138.59 165.05"/><path class="cls-44" d="M145.74,151.38a2.82,2.82,0,0,1-.65,0l-24.36-2.06a2.83,2.83,0,1,1,.47-5.64l24.37,2.06a2.83,2.83,0,0,1,.17,5.63Z"/><path class="cls-44" d="M149.59,142.87a2.81,2.81,0,0,1-.65,0l-24.36-2.06a2.83,2.83,0,0,1,.47-5.65l24.37,2.06a2.83,2.83,0,0,1,.17,5.63Z"/><path class="cls-44" d="M152.84,135.74a2.73,2.73,0,0,1-.64,0l-24.37-2.06a2.84,2.84,0,0,1,.48-5.65l24.37,2.06a2.83,2.83,0,0,1,.16,5.63Z"/><path class="cls-44" d="M156.05,127.58a2.73,2.73,0,0,1-.64,0L131,125.54a2.84,2.84,0,1,1,.48-5.65L155.88,122a2.83,2.83,0,0,1,.17,5.63Z"/><path class="cls-44" d="M139,167.86a3.51,3.51,0,0,1-.65,0L114,165.82a2.85,2.85,0,0,1-2.59-3.07,2.82,2.82,0,0,1,3.06-2.58l24.37,2.06a2.83,2.83,0,0,1,.17,5.63Z"/><path class="cls-44" d="M141.84,159.31a2.81,2.81,0,0,1-.65,0l-24.36-2.06a2.83,2.83,0,1,1,.47-5.65l24.37,2.06a2.83,2.83,0,0,1,.17,5.63Z"/><path class="cls-44" d="M131.65,184.94a2.81,2.81,0,0,1-.65,0l-24.36-2.06a2.83,2.83,0,1,1,.47-5.65l24.37,2.06a2.83,2.83,0,0,1,.17,5.63Z"/><path class="cls-44" d="M133.4,176.8a2.73,2.73,0,0,1-.64,0l-24.37-2.06a2.84,2.84,0,1,1,.48-5.65l24.36,2.06a2.83,2.83,0,0,1,.17,5.63Z"/><path class="cls-44" d="M158.63,119.92a2.73,2.73,0,0,1-.64,0l-24.37-2.06a2.84,2.84,0,1,1,.48-5.65l24.36,2.06a2.83,2.83,0,0,1,.17,5.63Z"/><path class="cls-44" d="M162.37,111.23a2.73,2.73,0,0,1-.64,0l-24.37-2.06a2.84,2.84,0,1,1,.48-5.65l24.36,2.06a2.83,2.83,0,0,1,.17,5.63Z"/><path class="cls-44" d="M165,103.57a2.73,2.73,0,0,1-.64,0l-24.37-2.06a2.84,2.84,0,0,1,.48-5.65l24.37,2.06a2.83,2.83,0,0,1,.16,5.63Z"/><polygon class="cls-45" points="162.08 79.75 157.93 80.35 156.72 84 148.76 87.49 144.99 96.68 164.14 97.92 164.19 88.68 162.83 85.32 165.55 79.25 162.08 79.75"/><circle class="cls-39" cx="155.92" cy="92.51" r="2.61"/><circle class="cls-41" cx="156.07" cy="92.33" r="2.34"/><polygon class="cls-39" points="150.05 86.92 160.88 85.37 162.32 81.75 157.93 80.35 165.55 79.25 162.83 85.32 164.19 88.68 164.14 97.92 144.99 96.68 161.22 94.83 161.46 88.7 148.76 87.49 150.05 86.92"/><path class="cls-46" d="M144,99.59s14.47,1.37,17.26.91c0,0,1.9-.43-2.52-.86s-13.9-.77-13.9-.77S140.18,98.48,144,99.59Z"/><path class="cls-46" d="M140.82,107.45s14.47,1.37,17.26.92c0,0,1.89-.44-2.53-.87s-13.89-.77-13.89-.77S137,106.34,140.82,107.45Z"/><path class="cls-46" d="M138,116s14.47,1.36,17.26.91c0,0,1.89-.43-2.52-.87s-13.9-.77-13.9-.77S134.16,114.91,138,116Z"/><path class="cls-46" d="M135.37,123.67s14.47,1.37,17.26.92c0,0,1.89-.43-2.53-.87s-13.89-.77-13.89-.77S131.58,122.57,135.37,123.67Z"/><path class="cls-46" d="M132.14,131.65s14.46,1.37,17.26.92c0,0,1.89-.43-2.53-.87s-13.9-.77-13.9-.77S128.34,130.54,132.14,131.65Z"/><path class="cls-46" d="M128.1,139.08s14.47,1.37,17.26.92c0,0,1.89-.44-2.52-.87s-13.9-.77-13.9-.77S124.31,138,128.1,139.08Z"/><path class="cls-46" d="M125.06,147.47s14.46,1.37,17.26.92c0,0,1.89-.44-2.53-.87s-13.9-.77-13.9-.77S121.26,146.36,125.06,147.47Z"/><path class="cls-46" d="M120.66,155.47s14.47,1.37,17.26.92c0,0,1.9-.43-2.52-.87s-13.9-.77-13.9-.77S116.87,154.37,120.66,155.47Z"/><path class="cls-46" d="M116.91,163.5s14.46,1.37,17.26.92c0,0,1.89-.43-2.53-.87s-13.9-.77-13.9-.77S113.11,162.39,116.91,163.5Z"/><path class="cls-46" d="M113.75,173.32s14.46,1.37,17.26.92c0,0,1.89-.44-2.53-.87s-13.9-.77-13.9-.77S110,172.21,113.75,173.32Z"/><path class="cls-46" d="M110,181.21s14.47,1.37,17.26.92c0,0,1.89-.43-2.53-.87s-13.89-.77-13.89-.77S106.17,180.1,110,181.21Z"/><path class="cls-47" d="M149.4,99.05a8.6,8.6,0,0,1,2.81-.4,5.51,5.51,0,0,1,2.82.7s.1,1.12-2.16,1S148.12,100.4,149.4,99.05Z"/><path class="cls-47" d="M146.78,107.24a8.68,8.68,0,0,1,2.81-.4,5.51,5.51,0,0,1,2.82.7s.11,1.12-2.15,1S145.5,108.59,146.78,107.24Z"/><path class="cls-47" d="M143.39,115.59a8.52,8.52,0,0,1,2.82-.41,5.45,5.45,0,0,1,2.82.71s.1,1.11-2.16,1S142.12,116.93,143.39,115.59Z"/><path class="cls-47" d="M140.84,123.44a8.68,8.68,0,0,1,2.81-.4,5.46,5.46,0,0,1,2.82.7s.11,1.12-2.15,1S139.57,124.79,140.84,123.44Z"/><path class="cls-47" d="M137.58,130.89a8.74,8.74,0,0,1,2.81-.41,5.45,5.45,0,0,1,2.82.71s.1,1.11-2.16.95S136.3,132.24,137.58,130.89Z"/><path class="cls-47" d="M133.55,138.65a8.6,8.6,0,0,1,2.81-.4,5.39,5.39,0,0,1,2.82.7s.1,1.11-2.16,1S132.27,140,133.55,138.65Z"/><path class="cls-47" d="M131.41,146.91a8.82,8.82,0,0,1,2.81-.41,5.45,5.45,0,0,1,2.82.71s.11,1.11-2.15.95S130.13,148.26,131.41,146.91Z"/><path class="cls-47" d="M123.39,163.57a8.71,8.71,0,0,1,2.82-.4,5.51,5.51,0,0,1,2.82.7s.1,1.12-2.16,1S122.12,164.92,123.39,163.57Z"/><path class="cls-47" d="M126.65,155.35a8.85,8.85,0,0,1,2.82-.41,5.45,5.45,0,0,1,2.82.71s.1,1.11-2.16.95S125.38,156.7,126.65,155.35Z"/><path class="cls-47" d="M120.79,173.2a8.71,8.71,0,0,1,2.82-.4,5.51,5.51,0,0,1,2.82.7s.1,1.12-2.16,1S119.52,174.55,120.79,173.2Z"/><path class="cls-47" d="M116.41,180.6a8.68,8.68,0,0,1,2.81-.4,5.46,5.46,0,0,1,2.82.7s.11,1.12-2.15.95S115.14,182,116.41,180.6Z"/><path class="cls-48" d="M147.48,90.62s-10.36-1.26-12.72-.72a8.79,8.79,0,0,0-4.12,2.61A14.09,14.09,0,0,1,125,94.66c-2.62.16-4.71,2.56-4.71,2.56l14.29,3.38V97.41s.82-5.06,2.77-5.08S145,96.68,145,96.68Z"/><path class="cls-49" d="M120.28,97.22l-11.8,28.83s4.45,4.08,14.53,3.77c2.84-6.18,11.56-29.22,11.56-29.22Z"/><path class="cls-50" d="M128.75,99.22,116.5,130.09l6.25.39c2.49-4.72,11.82-29.88,11.82-29.88Z"/><path class="cls-51" d="M124.06,98.11l-3.78-.89-11.13,27.19-.67,1.64a15.59,15.59,0,0,0,4.24,2.29,9.41,9.41,0,0,0-2.75-3.08L120.86,98.8Z"/><path class="cls-52" d="M121.52,97.92s6.51,1.37,7.86,1.82c-2.7.39-3.5-.53-4.42,1.79s-10,26.81-10,26.81l.28.77-3.92-1.5a2.93,2.93,0,0,0,1.65-1c.43-.74,9.56-26.9,9.56-26.9A1.79,1.79,0,0,0,121.52,97.92Z"/><path class="cls-50" d="M108.48,126.05s4.62,4.37,14.53,3.77c2.52-5.14,11.56-29.22,11.56-29.22a77.4,77.4,0,0,1-11-1.8c-.8,0,.32,1,.5.9a21.08,21.08,0,0,0,8.44,1.59c-.86,2-10.23,27.05-10.23,27.05S116.44,129.43,108.48,126.05Z"/><path class="cls-53" d="M122.38,98.1a5.49,5.49,0,0,1,2.28.19c1.35.36,6,1.92,3.85,1.54S120.65,98.65,122.38,98.1Z"/><path class="cls-53" d="M123.31,99.49s1.1.29,1,.83S119,115.75,119,115.75s-1,2.78-.24-.57S123.31,99.49,123.31,99.49Z"/><path class="cls-54" d="M120.28,97.22s-.09-1.93,1.11-1.35,10,2.19,10,2.19l4.42-5.73s.72-1.41,4.39-.48A21.89,21.89,0,0,1,146,94.12l-.43,1.06-3.13-1.49s-5.29-3-7.35,2.37a34.71,34.71,0,0,1-.56,4.54Z"/><polygon class="cls-55" points="122.05 96.06 127.03 97.22 128.1 94.3 126.27 95.76 122.05 96.06"/><path class="cls-55" d="M131.41,98.06l4.42-5.73s1.06-1.42,4.39-.48A31.49,31.49,0,0,1,146,94.12a17.8,17.8,0,0,0-8.7-3.17c-1.18.12-2.27.52-3.19,2.64-1,1.57-2.46,3.55-3.13,3.63s-4,0-4,0Z"/><path d="M573.19,149.41a59.46,59.46,0,1,1-59.46,59.46,59.52,59.52,0,0,1,59.46-59.46m0-36.85a96.31,96.31,0,1,0,96.31,96.31,96.31,96.31,0,0,0-96.31-96.31Z"/><path class="cls-56" d="M473.89,23.31S396-7.45,306,37.6a27.17,27.17,0,0,0-16.36,22.15l-6.35,20.32s-.4,2.58,2.81,2.58,68.18-1.83,85.49,1.18,14.05,7,24.09,6.78,81.21-1.26,81.21-1.26S494,80.57,495.51,70,494,32.66,473.89,23.31Z"/><path class="cls-56" d="M283.28,80.07S162.42,71.28,148.36,63.15c-14.05-7.77-19.89-19.76-20.26-30.48-.37-.74,1.85-3.7-5.92-4.07S82.24,34.15,51.91,45.24c-10.35,4.07-3.33,6.6-3.33,6.6S74.47,75.3,152.88,82.65H278.26S282,84.3,283.28,80.07Z"/><path class="cls-57" d="M131.47,49.79s-6.93-16.79,0-26.68c3-3.63,19.13-5.61,23.75,15.17,2.64,4.95,7.92,15.17,28.37,15.5s88.41,8.58,93,7.59,13.83-5.28,13,2.31-6.35,16.39-6.35,16.39-2.38,1.75-12.93-.56c-13.2-1-91.4-6.13-115-11C145.48,65.59,139.39,64.27,131.47,49.79Z"/><path class="cls-58" d="M125.37,33.4s2.47,25.09,17.82,30.41,14.24,6,140.09,16.26l-5,2.58s-122-6-136.63-13.72C131.16,64.25,127,58.74,123.17,36.7,122.34,31.19,125,31,125.37,33.4Z"/><path class="cls-59" d="M75,51.49s31.16-10.39,44-11.76c9.84-1.09,8.73,10.23,6.39,17.57-1.51,3.78-26.07,4.58-26.89,4.58S55.05,65.43,75,51.49Z"/><path class="cls-60" d="M54.1,55.77S50.28,50.48,57.68,48,94.12,34.48,123,32c5.09.72,5.45,4.54,5.45,4.54l4.3-.34s-.41-7.2-10.58-7.55-40.35,6-67.86,15.77c-4.68,1.88-11.25,3.53-5.74,7.47Z"/><path class="cls-61" d="M294.07,62.73s21.64-31,77.22-34.14c28.35-.55,22.38,13.59,22.38,13.59s.38,31-7.83,37c0,3.73-2.61,3.73,0,3.73s4.47,4.11,12.31,3.73,74,0,74,0-.73,1.21-12.22-5.92-4.16-26.45-4.16-26.45,11.73-13.68,5.38-19.55-9-12.95-39.6-14.91-60.35.9-94.34,13.93C309.36,40.58,286.36,68,294.07,62.73Z"/><path class="cls-62" d="M283.28,80.07c-14.92.17-29.85-.42-44.74-1.4s-29.76-2.33-44.59-4c-7.41-.89-14.82-1.79-22.22-2.87s-14.77-2.25-22.1-3.92c-.92-.19-1.84-.41-2.75-.68s-1.83-.49-2.75-.78a18.21,18.21,0,0,1-5.19-2.75,27.6,27.6,0,0,1-7.35-8.77,51.91,51.91,0,0,1-4.15-10.5,61,61,0,0,1-2.07-11c1.37,7.3,3.59,14.54,7.43,20.81a26.27,26.27,0,0,0,7.22,8,17.08,17.08,0,0,0,4.74,2.31c.86.25,1.77.44,2.65.67s1.78.42,2.69.58c7.26,1.39,14.63,2.48,22,3.42s14.77,1.88,22.17,2.72,14.8,1.65,22.21,2.41,14.82,1.48,22.23,2.19l11.13,1q5.57.52,11.13,1C268.4,79.12,275.83,79.54,283.28,80.07Z"/><path class="cls-63" d="M294.07,62.73a51.44,51.44,0,0,1,6.21-7.62,82.08,82.08,0,0,1,7.26-6.68,89.78,89.78,0,0,1,16.69-10.57c1.47-.76,3-1.4,4.5-2.09s3-1.28,4.62-1.82l2.33-.84,2.36-.76c1.57-.53,3.17-.94,4.76-1.4a115.54,115.54,0,0,1,19.53-3.32,90.59,90.59,0,0,1,19.88.27,29.61,29.61,0,0,1,5,1.15,14.32,14.32,0,0,1,4.72,2.49,10,10,0,0,1,1.88,2.07,9.87,9.87,0,0,1,1.19,2.5,16.46,16.46,0,0,1,.67,5.2,68.15,68.15,0,0,1-1.12,9.9c-.56,3.22-1.13,6.44-1.76,9.66a91,91,0,0,1-2.38,9.57A29.39,29.39,0,0,1,388.51,75a31.88,31.88,0,0,1-2.67,4.12,30,30,0,0,0,3.82-8.91,93.61,93.61,0,0,0,1.72-9.6c.47-3.22.88-6.46,1.29-9.7a70.09,70.09,0,0,0,.76-9.6c0-3.12-.8-6.15-3.09-7.87a11.74,11.74,0,0,0-3.94-2,26.4,26.4,0,0,0-4.58-1,76.06,76.06,0,0,0-9.58-.56c-3.22,0-6.45.2-9.67.47a113.27,113.27,0,0,0-37.39,9.41,93.5,93.5,0,0,0-8.63,4.42,88.54,88.54,0,0,0-8.16,5.26A73.13,73.13,0,0,0,294.07,62.73Z"/><path class="cls-64" d="M380.69,30.48s12.89-1,13,11.7-3.47,35.64-7.83,40.69c-3.86.74-9.86-8.62-64.71-3.73-19.92,1-33.84.93-33.84.93s-4-3.47,5.25-12.78,19.54-17.76,30.69-15.45c6.82,2.8,8.06,14.61,21.08,17.94s33.15,5.33,38.8,2.5C387.1,69.62,389.75,34.59,380.69,30.48Z"/><path class="cls-65" d="M389.58,74.13s12.76,8.35,57.08,8.52,35-36.66,35-36.66,3.85-13.55-20.88-23.9c-10-3-46.71-12.85-91.65-2.68-13.22,3.38-46,3.76-79,37.44.14-5.06,6.07-14.69,17.91-20.08s42.41-19.28,79.49-22.55c32.2-3.27,67.95,1.13,86.39,9.26,6.14,2.09,14.72,15.78,16.35,20.65s5.13,19.76,1.39,28.77c-1.63,3-9.29,11.22-15.78,14-3.72-.08-82.18,1.11-82.18,1.11s-1.57-.14-7.84-4.94C385.87,79.31,389.58,74.13,389.58,74.13Z"/><path class="cls-66" d="M389.87,31.43s39.77-9,67.36,4.24c2.77,1.7,3.39,4.63,0,5.55s-19.73,1.23-29.29,7.24S390,77.44,386.48,77c2.81-4.89,7.71-27.9,6.78-36.53S389.87,31.43,389.87,31.43Z"/><path class="cls-66" d="M382.34,26.53S424,19.6,448.41,24.84c8.86,2.62,3.92-1.54,0-3.09s-55.72-9.54-100.27,5.71A144.76,144.76,0,0,1,382.34,26.53Z"/><path class="cls-66" d="M402.87,87.82l67.05-1.07s-6.48.9-3,2.74c-7,.1-66.19,1.13-66.19,1.13S407.59,89,402.87,87.82Z"/><path class="cls-67" d="M287.29,80.07s70.61-2.95,86.83.64c4.53,1.44,15,6.1,19.55,7.11s82.19-1.11,82.19-1.11L393.67,85s-6.33-2.3-15.48-5.85c-7.14-1.32-8.82-2-27.64-3.12S287.29,80.07,287.29,80.07Z"/><path d="M520.19,23.58s7,2.47,7.46,12.74,4.26,33.45,6.62,35.75,11.16,4.56,12.54,1.28c.46,2.42,1.41,9.47,4.19,10.84-.52,1.75,1.23,2.13-6.48,6.43-4.4,2.36-5.33,3.32-9.13,2.21S521,53.51,521,53.51l2.29-10.13S526.48,32,520.19,23.58Z"/><path class="cls-67" d="M469.92,86.75s16.64-6.7,20.28-18.1c1.15-6.11,1.27-21.21-1.93-28.94,3.06,8.09,7.44,19.77,3.36,33a41,41,0,0,1-15.77,14C472.14,86.63,469.92,86.75,469.92,86.75Z"/><rect class="cls-68" x="528.18" y="26.97" width="13.68" height="170.08" transform="translate(-4.67 198.78) rotate(-20.96)"/><polygon class="cls-69" points="550.48 128.79 504.96 9.95 489.21 15.99 534.73 134.83 533.43 137.19 539.48 152.96 541.39 152.23 557.15 146.19 559.11 145.44 553.07 129.66 550.48 128.79"/><rect class="cls-70" x="534.08" y="131.35" width="16.87" height="0.48" transform="translate(-11.18 202.75) rotate(-20.96)"/><rect class="cls-70" x="532.86" y="133.4" width="21.03" height="0.68" transform="translate(-11.89 203.2) rotate(-20.96)"/><rect class="cls-70" x="537.06" y="144.52" width="21.03" height="0.37" transform="translate(-15.53 205.43) rotate(-20.96)"/><polygon class="cls-71" points="539.48 152.96 543.88 154.27 556.66 149.38 559.11 145.44 539.48 152.96"/><polygon class="cls-72" points="533.43 137.19 534.73 134.83 550.48 128.79 553.07 129.66 533.43 137.19"/><rect class="cls-73" x="550.71" y="131.17" width="3.65" height="16.22" transform="translate(-13.26 206.85) rotate(-20.96)"/><rect class="cls-73" x="538.37" y="135.9" width="3.65" height="16.22" transform="translate(-15.77 202.74) rotate(-20.96)"/><polygon class="cls-74" points="546.39 130.36 547.69 131.72 551.11 130.42 548.91 129.14 546.39 130.36"/><polygon class="cls-74" points="538.86 133.37 538.8 135.26 535.39 136.56 536.18 134.15 538.86 133.37"/><polygon class="cls-73" points="546.39 130.36 500.87 11.52 503.98 10.33 548.91 129.14 546.39 130.36"/><polygon class="cls-73" points="536.22 134.26 490.7 15.42 493.8 14.23 538.74 133.04 536.22 134.26"/><polygon class="cls-75" points="489.21 15.99 534.73 134.83 533.43 137.19 539.48 152.96 541.39 152.23 535.59 137.09 536.22 134.26 490.7 15.42 489.21 15.99"/><polygon class="cls-76" points="495.85 13.44 499.18 12.17 544.52 130.56 540.85 131.97 495.85 13.44"/><polygon class="cls-77" points="536.05 133.81 550.31 128.35 536.51 130.38 523.9 106.55 534.56 134.38 536.05 133.81"/><polygon class="cls-78" points="533.68 137.82 547.94 132.36 539.25 138.36 538.28 144.74 542.6 149.26 553.74 147.5 539.48 152.96 533.68 137.82"/><polygon class="cls-77" points="542.75 131.76 543.07 134.22 533.68 137.82 533.43 137.19 534.73 134.83 542.75 131.76"/><polygon class="cls-79" points="547.52 152.84 563.51 192.16 568.48 190.26 553.37 150.64 547.52 152.84"/><polygon class="cls-80" points="554.38 150.25 556.66 149.38 571.82 188.97 570.13 189.62 554.38 150.25"/><polygon class="cls-80" points="543.82 154.15 546.1 153.28 560.81 193.19 559.11 193.84 543.82 154.15"/><polygon class="cls-81" points="556.66 149.38 546.39 155.8 550.84 172.35 543.82 154.15 556.66 149.38"/><path class="cls-82" d="M554.84,151.41s.86-.84,1.46.79,12.77,32.5,12.77,32.5-.22,1.73-2.27-3.4Z"/><path class="cls-82" d="M547.52,155.09l12.63,35s.41,3.34-1,.51-12.72-34.81-12.72-34.81Z"/><polygon class="cls-83" points="505.66 62.77 511.04 75.68 528.7 69.45 523.29 55.7 505.66 62.77"/><polygon class="cls-84" points="512.32 60.8 519.43 57.98 524.51 70.68 516.67 72.9 512.32 60.8"/><polygon class="cls-85" points="505.66 62.77 507.64 61.98 512.32 74.24 528.7 69.45 511.04 75.68 505.66 62.77"/><polygon class="cls-86" points="505.66 62.77 523.29 55.7 523.58 56.41 512.32 60.8 506.01 63.6 505.66 62.77"/><path class="cls-77" d="M529.59,74.24l-1.74-4.54L512,75.36,519,93.85s-3.55-15.25-1.59-17C519.78,74.69,526.7,72.41,529.59,74.24Z"/><polygon class="cls-77" points="523.29 55.7 508.57 57.98 489.21 15.99 506.93 62.26 523.29 55.7"/><polygon class="cls-87" points="489.21 15.99 493.8 14.23 512.32 60.8 509.66 61.98 514.72 74.24 516.67 72.9 515.3 76.02 538.86 133.37 539 135.78 544.8 150.92 539.48 152.96 533.43 137.19 534.73 134.83 511.95 75.36 511.04 75.68 505.66 62.77 506.93 62.26 489.21 15.99"/><polygon class="cls-88" points="525.51 74.24 526.97 74.24 548.22 127.68 546.39 128.35 525.51 74.24"/><polygon class="cls-88" points="503.98 10.33 521.25 56.01 520.01 56.01 502.1 11.05 503.98 10.33"/><polygon class="cls-89" points="537.9 133.11 537.69 133.71 547.29 130.07 546.88 129.66 537.9 133.11"/><polygon class="cls-89" points="537.69 135.56 537.39 136.37 549.29 131.84 548.75 131.32 537.69 135.56"/><circle class="cls-90" cx="309.91" cy="208.68" r="10.72"/><polygon class="cls-89" points="540.99 147 541.16 147.39 553.31 142.71 553.07 142.4 540.99 147"/><polygon class="cls-91" points="505.66 62.77 506.25 61 522.19 54.93 523.29 55.7 505.66 62.77"/><polygon class="cls-92" points="510.83 59.25 518.95 56.16 521.61 55.15 522.49 55.7 509 61.09 509.37 59.81 510.83 59.25"/><path class="cls-55" d="M139.11,92.8s4.9.79,6.36,0c1.22-.62,1-2.34,1-2.34l1,.12L145,96.68A60,60,0,0,0,139.11,92.8Z"/><path class="cls-93" d="M190,102.74l55.76,7.86s4.57,0,11.21,7.17,34.61,37.08,41.93,43.07,9.78,11.35,30.79,11.62c12-.18,71.33-1.42,71.33-1.42s16.86-.63,27.46-13c5.44-7,20.56-25.36,1.42-38.27-11.41-4.92-18.44-6.21-18.44-6.21s24.79,11.31,23.85,21.57c-1.28,6.22-10.75,26.39-35.09,27.74s-74.09,2.25-74.09,2.25-14.12,4-23.53-7.69-45.88-50.15-45.88-50.15-3.53-4.18-24.37-6.06S185,95.12,185,95.12Z"/><path class="cls-94" d="M292.73,155.08l-10.25-10L290,132.05l15.67,15.77s-8.43,12.41-4.87,14.6C294.31,156.61,292.73,155.08,292.73,155.08Z"/><ellipse class="cls-95" cx="78.18" cy="78.57" rx="7.36" ry="9.75" transform="translate(-26.64 114.61) rotate(-64.12)"/><path class="cls-96" d="M74.38,85.08c-4.09-2.22-6.48-6.38-5.46-9.92A6.23,6.23,0,0,1,73.13,71a10.8,10.8,0,0,1,7.13.3,12.24,12.24,0,0,1,5.93,4.51A7.41,7.41,0,0,1,87.44,82h0c-1.16,4-6.25,5.75-11.35,3.87A13.27,13.27,0,0,1,74.38,85.08Zm7.48-12.71a11.75,11.75,0,0,0-1.69-.76,10.52,10.52,0,0,0-7-.29,5.89,5.89,0,0,0-4,3.94c-1.11,3.84,2,8.45,7,10.28s9.87.18,11-3.66A7,7,0,0,0,86,76,11.54,11.54,0,0,0,81.86,72.37Z"/><path class="cls-46" d="M86,76l10.36,2.56s6.36,3.78,0,3.14-9-2.46-9-2.46Z"/><path class="cls-46" d="M195.28,96.68c.47.07,48.48,4.59,55,7.61-2.48-2.59-10.54-3.24-13.28-3.8s-32.73-5.51-39.5-5.37C193.15,96.37,195.28,96.68,195.28,96.68Z"/><path class="cls-46" d="M294.07,147.24s8.79,9.41,11.59,10.84,10.42,2.84,24.44,2.76,73-.62,73-.62S417,154.73,424,144.34c2.42-5.44,11.71-13.54-13.25-22.76-6.19-2.27-5.59-7.34,2-5.31,5.9,1,9,1.84,17.53,9.35,2.82,3.14,7.25,7,3.88,13.39-2.65,5.22-9.86,17.54-24.55,22.32-6.09,1.28-6.46,1.77-30.79,2.48-21.44,1.69-52.6,1.35-52.6,1.35s-12.18,3.59-20.92-4.94C299.79,155.6,294.07,147.24,294.07,147.24Z"/><path class="cls-97" d="M421.86,121.47c.66,0,8.8,4.68,11.14,8.41s-3.1,12.9-3.1,12.9-3.12,3.83-2.18-2.66,2.18-8.88-1.32-12.53S416.15,121.13,421.86,121.47Z"/><path class="cls-97" d="M295.8,149.06s11.41,10.42,18.84,10.54,86.37,0,86.37,0,5.29-.15,18.64-7.95c4.48-3.89,2.72,0,1.39,2.29s-13.31,7.1-27.79,8.48c-14.69-.43-75.93,0-75.93,0s-6,.64-10.13-2.82S292,148.1,295.8,149.06Z"/><path class="cls-97" d="M225.54,97.41l28.77,3.19s3.94.47,8.56,6.24,13.59,19.59,8.53,16-7.86-14.79-21.14-18.6S210,99.1,225.54,97.41Z"/><polygon class="cls-38" points="289.99 132.06 295.02 137.26 292.73 155.08 282.48 145.12 289.99 132.06"/><polygon class="cls-38" points="264.9 126.23 276.65 128.53 282.48 123.65 276.36 138.39 264.9 126.23"/><path class="cls-93" d="M400.3,120.23s25.28,3,24.9,14.58c-3.14-3.37-3.46-4.57-11.95-6.28-6.27-.84-8.89-1.5-8.89-1.5S400.22,124.2,400.3,120.23Z"/><path class="cls-38" d="M303.16,164.52s12.23,6.6,22.48,6.31,79.67-3.15,79.67-3.15,15.29-3.48,23.51-13.12c3.77-4.74,10.34-14.67,9.05-26,1.63,3.08,4.24,9.44-4.29,23.73-5.38,8.44-15.9,15.61-27.82,18.36-7.18.47-81.36,1.84-81.36,1.84S308.54,171.32,303.16,164.52Z"/><path class="cls-38" d="M406.71,115s-1.53,7,1.24,9.23c5.3,4.27,13.77,2.74,16.77,9.3-3.74-2.67-4.37-3.8-17.74-5.87C399.72,126.85,401.94,116.46,406.71,115Z"/><path class="cls-98" d="M458.75,97.87l-65.4,149.6a6.53,6.53,0,0,0,5.22-1.55c2.06-2.08,65.37-148.7,65.37-148.7S460.25,94.44,458.75,97.87Z"/><circle class="cls-99" cx="309.91" cy="208.68" r="5.63"/><path class="cls-100" d="M455.09,108.91s6.77-12.59,5.43-6.63-24.59,54.85-24.59,54.85-.26-2,6.88-20.55C450.89,115.58,455.09,108.91,455.09,108.91Z"/><path class="cls-100" d="M297.79,249.89l86,2.2s7.12,1.29,16.43-12.07c-1.68,5.9-6.68,14.37-22.86,13.84s-96.87-2.9-96.87-2.9Z"/><path class="cls-101" d="M183.49,106.2s6.42,5.84,16.45,26.85,18.32,35.81,20.49,39.48,9.73,24.53-4.52-3.76S179.16,103.16,183.49,106.2Z"/><path class="cls-102" d="M119.33,199.69l99.75-10.19s10.38,4.64,7.13,6.17c-3.7,1.73-108.16,10.21-108.16,10.21Z"/><polygon class="cls-103" points="119.5 198.62 219.17 188.29 219.08 189.5 119.33 199.69 119.5 198.62"/><polygon class="cls-104" points="324.04 82.51 333.19 82.77 332.95 83.25 323.49 83.06 324.04 82.51"/><path class="cls-101" d="M304.23,94.11s10.16-6.32,6.46,0S300.29,100.75,295,109c-5.55,8.73-21.36,51.64-21.36,51.64s-3.46,9,0-7.64,18.22-44.92,18.22-44.92S294.17,102.88,304.23,94.11Z"/><path class="cls-105" d="M263.55,177.24c1-2.15,20.38-50,20.38-50s4.41-8.82.8,4.54-22.62,53.08-22.62,53.08S259.38,185.81,263.55,177.24Z"/><path class="cls-106" d="M229.8,175.4l28.89,12.29a14.6,14.6,0,0,1,3.72,4.59c1.54,2.94,7.67,19.46,7.67,19.46s1.87,3.77-2.56,5.46-15.59,4.05-18.35,3.81c-2.22-.2-6.11-.62-6.28-3.81s1.25-7.51,0-9.21-6.36-3.06-6.36-3.06a6.78,6.78,0,0,1-3.92-4.73c-1.51-5.21-4.94-23.37-4.94-23.37S227,174.19,229.8,175.4Z"/><circle class="cls-107" cx="261.23" cy="202.72" r="1.05"/><circle class="cls-107" cx="231.59" cy="179.77" r="0.71"/><polygon class="cls-108" points="231.59 184.88 236.59 181.26 237.05 180.88 238.45 180.7 259.19 190.29 260.2 190.97 260.52 191.75 260.61 192.63 261.03 193.58 260.69 195.34 259.19 199.75 250.68 202.94 244.44 204.61 239.52 203.77 235.8 202.52 234.63 199.69 231.59 184.88"/><path class="cls-109" d="M234.29,200.23l-3.12-14.81a1.53,1.53,0,0,1,.72-1.5c.88-.52,4.81-3.45,4.81-3.45a2.22,2.22,0,0,1,1.5,0c.83.3,20.26,8.83,20.26,8.83a5.44,5.44,0,0,1,2.77,2.94c.54,1.71-2,7.51-2,7.51s3.5-7.11-.44-9.46c-2.57-1.54-21.07-9.32-21.07-9.32a2.27,2.27,0,0,0-1.6.67c-.73.73-3.78,2.85-3.78,2.85s-.41.2-.36,1.5,2.69,13.7,2.69,13.7Z"/><path class="cls-110" d="M234.29,200.23s1.43,2.66,2.25,2.87,6.16,2,6.78,1.91a12.38,12.38,0,0,0,3.25-.77c1.3-.52,12.27-3.73,12.27-3.73l.35-.76-12.72,4a7.62,7.62,0,0,1-4.08.52,44.51,44.51,0,0,1-5.74-2l-2-2.63Z"/><path class="cls-109" d="M244.14,216.49s1.14-7.55,1-8.32a2.37,2.37,0,0,1,1.49-2.29c.94-.45,11.12-4,11.12-4a1.3,1.3,0,0,1,1.09.36c.36.47.36,1.55,1.75,2.28.52.31.74.43.65,1.33a11.46,11.46,0,0,1-.23,1.51,1.85,1.85,0,0,0-1.3,1,3.55,3.55,0,0,0,.21,3.11c.52.82.39,1.18.27,2.12s-.42,4-.42,4,.31-5.12-.31-5.79a3.31,3.31,0,0,1-.52-3.67c.67-1.92,1.53-2,1.25-2.29a12.31,12.31,0,0,1-2.28-2.94c-.83-.15-3.11.83-3.11.83l-7.23,2.48a2.82,2.82,0,0,0-1.66,2.33C245.49,210.54,244.14,216.49,244.14,216.49Z"/><path class="cls-109" d="M261.82,207.39l.46-2.17a4.82,4.82,0,0,0,1.66-2.84c.06-1,1-1.78,1.55-.71s3.42,9.86,3.42,9.86l-3.83-9.1s-.31-.62-.83.82a7.4,7.4,0,0,1-1.13,2.12C262.81,205.94,262.44,205.68,261.82,207.39Z"/><circle class="cls-107" cx="261.25" cy="209.54" r="1.05"/><path class="cls-108" d="M244.14,216.49l1.77-8.8a2.94,2.94,0,0,1,2.28-2c2-.57,9.28-3.19,9.28-3.19s.93-.09.87.53,2.25,2.66,2.25,2.66a1.9,1.9,0,0,1-.41,1.07c-.43.64-1.47,1.63-1.34,3a4,4,0,0,0,1.1,2.34l-.18,5.53s0,.55-1.61.89-6.08,1.41-9.12,1S244.81,219.17,244.14,216.49Z"/><path class="cls-108" d="M262.3,205.86a10.36,10.36,0,0,0,2-3.38c.16-.53,1-1.11,1.26,0s3.38,9.05,3.38,9.05,1.22,2.39-.53,3.57-6.73,2.32-7.15,2.36c-.34-.19-.2-1.84-.2-1.84l.51-3.67a3.06,3.06,0,0,0,1.44-2.3,2.6,2.6,0,0,0-1.16-2.26"/><path class="cls-110" d="M227.59,175.69s.11-1.51,3.57.29l27.53,11.71a13.94,13.94,0,0,1,3.13,3.56c-.07.58-.4.5-1.23-1-.84-1.13-1.75-1.67-6.28-3.85-4.28-1.9-24.12-10.31-24.12-10.31S227.23,176.52,227.59,175.69Z"/><path class="cls-110" d="M244.14,216.49a4.29,4.29,0,0,0,3.26,2.43,33.88,33.88,0,0,0,12.36-1.29s.26.84-4,1.4-6.39,1-9.5,0A2.94,2.94,0,0,1,244.14,216.49Z"/><path class="cls-110" d="M261,216.88a14.69,14.69,0,0,0,7.14-2.39,4.19,4.19,0,0,0,.74-3c.28.77.95,2.38-.53,3.57s-5.67,2.19-7.15,2.36Z"/><path class="cls-111" d="M320.71,131c-.91,0-14.1-.89-19.7-7.26-3.92-4.46-5.42-10.55-4.44-18.1,1-7.89,3.92-13.72,8.64-17.33,6.8-5.21,15.11-4.09,19.1-3.54.47.06,1.13.15,1.33.16h-.13l.33,11.33a18.65,18.65,0,0,1-3.06-.26c-3-.41-7.62-1-10.68,1.31-2.23,1.71-3.67,5-4.29,9.79-.53,4.13,0,7.19,1.67,9.1,2.26,2.63,8.43,3,8.47,3Z"/><path class="cls-112" d="M321.31,84.44s-1.73,3.51-1.68,11.24c-.26,1.18-3.44.07-3.44.07s-.1-7.44,1.49-11.45C318,83.92,321.2,83.83,321.31,84.44Z"/><polygon class="cls-41" points="316.98 86.71 320.56 86.71 319.96 89.96 316.46 90.11 316.98 86.71"/><path class="cls-113" d="M317.68,84.3s-1.54,4-1.49,11.45c-1.62.35-6.63.29-8.24,10.38s3.49,11.85,4.87,12.18,4.49.89,4.49.89l-.25,6.9s-9.27-.58-12.21-9.12-.76-14.82,1.21-18.09a12.51,12.51,0,0,1,9.21-5.72S315.74,87.35,317.68,84.3Z"/><circle class="cls-6" cx="323.76" cy="123.9" r="7.56"/><path class="cls-7" d="M329.65,128.64s-1.24.57-1.2-.19a6,6,0,0,1,.81-2,7,7,0,0,0,.37-4.14,6.06,6.06,0,0,0-3.37-4,5.67,5.67,0,0,0-4.84-.1,6.31,6.31,0,0,0-3.74,4.32c0,3.06.23,3.91,2.22,5.76.72.81,4.49,1.93,1.55,2.76a7,7,0,0,0,4.88-.09A8.19,8.19,0,0,0,329.65,128.64Z"/><circle cx="323.76" cy="123.9" r="5.69"/><rect class="cls-6" x="318.6" y="127.32" width="10.34" height="0.33" transform="translate(647.97 253.87) rotate(179.8)"/><rect class="cls-6" x="318.27" y="125.92" width="10.98" height="0.33" transform="translate(647.96 251.06) rotate(179.8)"/><rect class="cls-6" x="318.58" y="121.38" width="10.34" height="0.33" transform="translate(647.91 241.99) rotate(179.8)"/><rect class="cls-6" x="318.25" y="119.98" width="10.98" height="0.33" transform="translate(647.9 239.18) rotate(179.8)"/><path class="cls-8" d="M327.84,127.48c-1.37.12-2.75.13-4.13.15s-2.76,0-4.14-.13c1.38-.12,2.76-.13,4.13-.15S326.46,127.36,327.84,127.48Z"/><path class="cls-8" d="M327.9,126.07c-1.38.12-2.76.13-4.13.16s-2.76,0-4.14-.13c1.37-.12,2.75-.14,4.13-.16S326.52,126,327.9,126.07Z"/><path class="cls-8" d="M319.61,121.56c1.38-.12,2.76-.13,4.14-.15s2.76,0,4.14.12c-1.38.13-2.76.14-4.14.16S321,121.67,319.61,121.56Z"/><path class="cls-8" d="M327.88,120.13c-1.38.12-2.76.13-4.14.15s-2.76,0-4.14-.12c1.38-.13,2.76-.14,4.14-.16S326.5,120,327.88,120.13Z"/><path class="cls-9" d="M329.3,122.33a6.53,6.53,0,0,1-.74,4.67,6.25,6.25,0,0,1-1.13,1.27,5.07,5.07,0,0,1-2.66,1.19c.3.21,2-.4,2.68-1a5.13,5.13,0,0,0,2-3.55C329.71,123,329.32,122.2,329.3,122.33Z"/><path class="cls-10" d="M327,129.23s1.46-.75.95.26-.9,1.2-2.29,1.7-2.61-.07-2.23-.61S327,129.23,327,129.23Z"/><path class="cls-114" d="M316.63,120.13l3.49,2.9,7.89,1.61h4.17l-1-5.18-2.3-1.15a7.63,7.63,0,0,0-2.93-1.66,41,41,0,0,0-4.83-.85l-2.53,1.7Z"/><path d="M301,92.79s-6.37,19.88,1.37,27.43,15,7.71,15,7.71,1.75,2.81,4.09,3.17c-3.21-.29-13.76-.93-19.57-6.46s-6.06-12.71-5.31-19S299.57,94.69,301,92.79Z"/><path class="cls-115" d="M317.21,85.16s-1.78,3.76-1.6,5.46c-3.15.87-12.22,2.43-14.46,21.74.91,4.09,0,6.41-.59,2.67s-2.24-10.48,2.6-20.53C306.39,89.65,307.22,88.66,317.21,85.16Z"/><path class="cls-116" d="M317.21,85.16l-.92,2.22s-8.75.22-14,10.53c-.57,1.78-2.66,5-.5-.3s4.26-7.92,8.73-9.79C312,87.11,317.21,85.16,317.21,85.16Z"/><path class="cls-114" d="M296.26,98.54c-.26.52-4.1,20.27-4.9,23s5.49-5.78,5.49-5.78l1.88-15.3S297.48,96.15,296.26,98.54Z"/><polygon class="cls-117" points="324.7 81.47 333.29 81.82 334.37 83.25 331.32 100.5 321.44 99.1 320.56 96.79 323.37 84 324.7 81.47"/><path class="cls-118" d="M317.21,85.76a50.51,50.51,0,0,0-1,10c-1.66.44-4.83.28-7.27,6.4-.47,1.57-2.4,7.66-.41,12.38,1,1.69.88,3.42,8.8,4.67l.64.06a8.41,8.41,0,0,0-1.48,2.62c-1.81-.4-9.41,1.48-10.49-10.29S311.06,96,311.06,96s3.72-.79,4-1.79S316.13,87.82,317.21,85.76Z"/><path class="cls-44" d="M336.62,81.82a38.42,38.42,0,0,1-1,9.83c-1.27,6.45-2.11,8.77-2.82,9.07.2-1.25,1.58-11.33,1.91-12.48S336.62,81.82,336.62,81.82Z"/><polygon class="cls-104" points="323.13 83.82 333.29 84.15 333.02 84.77 322.53 84.53 323.13 83.82"/><polygon class="cls-104" points="322.63 85.28 332.79 85.62 332.52 86.24 322.02 86 322.63 85.28"/><polygon class="cls-104" points="322.25 86.86 332.41 87.19 332.14 87.82 321.65 87.57 322.25 86.86"/><polygon class="cls-104" points="321.81 88.99 331.97 89.32 331.7 89.95 321.21 89.7 321.81 88.99"/><polygon class="cls-104" points="321.81 90.82 331.97 91.16 331.7 91.78 321.21 91.54 321.81 90.82"/><polygon class="cls-104" points="321.54 92.78 331.69 93.11 331.43 93.73 320.93 93.49 321.54 92.78"/><path class="cls-104" d="M321.45,94.36c.46.1,9.73.76,9.73.76l-.13,5.38-10.8-1.64Z"/><polygon class="cls-119" points="321.07 94.5 331.22 94.83 330.96 95.46 320.46 95.21 321.07 94.5"/><polygon class="cls-120" points="320.94 96.22 331.1 96.56 330.83 97.18 320.34 96.94 320.94 96.22"/><polygon class="cls-120" points="320.94 98.07 331.1 98.4 330.83 99.03 320.34 98.78 320.94 98.07"/><path class="cls-121" d="M324.7,81.66l8.59.36s.48.29-.5.28l-8-.13S323.87,82,324.7,81.66Z"/><path class="cls-121" d="M324.28,83.18l8.58.35s.48.3-.5.29l-8-.13S323.45,83.48,324.28,83.18Z"/><path class="cls-121" d="M323.61,84.63l8.59.36s.48.3-.51.28l-8-.12S322.78,84.94,323.61,84.63Z"/><path class="cls-121" d="M323.47,86.07l8.59.35s.48.3-.51.29l-8-.13S322.64,86.37,323.47,86.07Z"/><path class="cls-121" d="M323,88l8.59.36s.48.29-.51.28l-8-.12S322.19,88.3,323,88Z"/><path class="cls-121" d="M322.67,90.07l8.58.35s.48.3-.5.29l-8-.13S321.84,90.37,322.67,90.07Z"/><path class="cls-121" d="M322.37,91.82l8.59.36s.48.29-.5.28l-8-.12S321.54,92.13,322.37,91.82Z"/><path class="cls-121" d="M322,93.73l8.58.36s.49.3-.5.28l-8-.12S321.17,94,322,93.73Z"/><path class="cls-42" d="M333.29,81.82a2.63,2.63,0,0,1,3.33,0c.2,1.4-2.26,5.58-3.33,18.39-.52,1.49-2.53,1.06-2.48.71S329.81,96.21,333.29,81.82Z"/><path class="cls-122" d="M332.41,101.26s.95-8.28,1.74-12a43.16,43.16,0,0,1,2.47-7.46,2.29,2.29,0,0,1-.07.76c-.12.46-1.35,4.93-1.35,4.93s-1.61,7.87-1.72,10.67C333.46,100.26,333.05,101.26,332.41,101.26Z"/><path class="cls-123" d="M332.7,84.37l2.64.2-2,9h-2.24S332,86.48,332.7,84.37Z"/><path class="cls-124" d="M332.81,85.45s1.58-1.07,1.56-.07S333,92.87,333,92.87s-1.2,1.19-1.2-.6A59.89,59.89,0,0,1,332.81,85.45Z"/><path class="cls-42" d="M321.45,80.71a2.6,2.6,0,0,1,3.32,0c.21,1.4-2.25,5.57-3.32,18.39-.52,1.49-2.54,1.05-2.49.7S318,95.1,321.45,80.71Z"/><path class="cls-122" d="M320.56,100.14s.95-8.27,1.75-12a43.31,43.31,0,0,1,2.46-7.45,2,2,0,0,1-.07.76c-.11.45-1.35,4.93-1.35,4.93s-1.6,7.86-1.72,10.67C321.62,99.15,321.21,100.15,320.56,100.14Z"/><path class="cls-123" d="M320.85,83.25l2.64.2-2,9H319.2S320.2,85.37,320.85,83.25Z"/><path class="cls-124" d="M321,84.34s1.58-1.07,1.56-.07-1.35,7.48-1.35,7.48S320,92.94,320,91.16A59.89,59.89,0,0,1,321,84.34Z"/><path class="cls-115" d="M326.59,82a16,16,0,0,1,4.23.12,13.67,13.67,0,0,1-2.12.08A15.06,15.06,0,0,1,326.59,82Z"/><path class="cls-115" d="M326.34,83.44a15,15,0,0,1,4.23.12,16,16,0,0,1-4.23-.12Z"/><path class="cls-115" d="M325.63,85a16,16,0,0,1,4.23.12,15.09,15.09,0,0,1-2.12.08A14.92,14.92,0,0,1,325.63,85Z"/><path class="cls-115" d="M325.35,86.33a15.1,15.1,0,0,1,2.12-.09,14.93,14.93,0,0,1,2.11.21,16,16,0,0,1-4.23-.12Z"/><path class="cls-115" d="M324.73,88.25a16,16,0,0,1,4.23.12,16,16,0,0,1-4.23-.12Z"/><path class="cls-125" d="M324.22,90.33a15,15,0,0,1,4.23.12,16,16,0,0,1-4.23-.12Z"/><path class="cls-125" d="M324.06,92.08a16,16,0,0,1,4.23.12,16,16,0,0,1-4.23-.12Z"/><path class="cls-125" d="M323.73,94a16,16,0,0,1,4.23.12,15,15,0,0,1-4.23-.12Z"/><path class="cls-126" d="M514.72,9s4.16-6.61,12.07-7.16c2.8-.33,13.59,6.71,13.59,6.71s13.3,7.92,14.44,22.47c-1,.51-5.68,1.46-6.6,10.13a138.69,138.69,0,0,0-1.93,15.91S545.07,48,542,43.82,530.12,20.65,523.29,17,512.59,14.58,514.72,9Z"/><path class="cls-125" d="M323.73,95.78a16,16,0,0,1,4.23.12,16,16,0,0,1-4.23-.12Z"/><path class="cls-125" d="M323.73,97.81a16,16,0,0,1,4.23.12,16,16,0,0,1-4.23-.12Z"/><path d="M420.38,240.29l-1.46-.54c.36-1,1.75-2.15,4.6-4.49,5-4.14,13.47-11.08,17.39-20.29,5.69-13.35,6.61-50.11,6.62-50.48l1.56,0c0,1.52-.94,37.42-6.74,51.06-4.07,9.56-12.69,16.64-17.84,20.87C422.5,238.11,420.61,239.66,420.38,240.29Z"/><path class="cls-127" d="M522.48,3.09a9.64,9.64,0,0,1,4.31-1.24c2,.09,19.58,6.07,26.73,23.11.49,1.37-.59.59-1.07,0S542.24,9.19,525.51,4.39C522.87,4,522.48,3.09,522.48,3.09Z"/><path class="cls-128" d="M554.84,33.17s-5.06,3.26-5.93,19.81S548.09,78.3,551,84.19c.1-.35,1.2.6,2.65-3.9s5.65-17.82,4.67-30.95C558,42.29,556.85,32.87,554.84,33.17Z"/><path class="cls-129" d="M555.79,33.8s-2.46,1.25-3.83,6.83-2.74,24.66-2.27,33.1c.5,2.94,1.79,2.35.89,1.17s.59-19.29.49-21.35.4-11.26,3.24-15.66a25.83,25.83,0,0,0,2.18-2.5Z"/><path class="cls-130" d="M555.09,41s-.2,5.29,0,9-1.1,9,.68,8.09,2.84-3.79,2.7-6.28S557.62,41,557.62,41,556,38,555.09,41Z"/><path class="cls-130" d="M551.09,39.67s-3.47,23.66-1.4,36c.8,1.48,3.14,4,5.59-.86-.85,3-1.61,8.37-4.28,9.37-2.86.11-4.71-14.16-4.71-14.16S545.43,46.06,551.09,39.67Z"/><path class="cls-131" d="M546.29,70s2.05-32.23,3.31-34.26,2.16-4.33,5.22-4.74c0,0,1.57-1.84-.18-1.58a7.51,7.51,0,0,0-5,3.72c-1,2-2.88,18.67-2.88,18.67S546.24,70.61,546.29,70Z"/><path class="cls-132" d="M424.5,13.93v3.61a117.12,117.12,0,0,0,21.61,2.79,18.48,18.48,0,0,0,4-3.66Z"/><path class="cls-132" d="M420.4,11.93s-.53,1.6,1.85,2.5,13.49,2.11,14.37,2.24a107.93,107.93,0,0,0,14.56.74c2.4-.22,3.22-1.45,3.06-2.24C448.27,13.69,420.4,11.93,420.4,11.93Z"/><path class="cls-133" d="M420.79,11.35s8.55-2.13,16.27-1.38a90.1,90.1,0,0,1,10.34,1.38s7.43,1.8,6.84,3.82-8.08.93-16.51,0C429.09,14.21,418.22,13.41,420.79,11.35Z"/><path class="cls-134" d="M435.17,15s12.12-.14,12.83-.92c.43-.35.38-.74-2.55-1.77,2.91,1.06,6.46,3,6.45,4C450.11,16.67,442.4,15.79,435.17,15Z"/><path class="cls-132" d="M453,13.42a1.44,1.44,0,0,1,0,1.26c-.35.54-.84.54-1.78-.17a28.13,28.13,0,0,0-7.65-2.8,26.84,26.84,0,0,1,7.33,3.36,5.67,5.67,0,0,1,1,1.24s1.26-.29,1.68-.46c.69-.27.66-.68.66-.68S454.48,14.17,453,13.42Z"/><path class="cls-46" d="M421.67,12.32a42,42,0,0,0,12.09,2.36c2.39.32,6.45.72,9.05.09,1.37-.08,2.75-1.71,2.75-1.71s-.93-2.29-9.34-2.6C429.64,10.53,421.91,10.6,421.67,12.32Z"/><polygon class="cls-83" points="485.6 8.63 490.11 19.16 506.8 13.52 502.25 1.95 485.6 8.63"/><polygon class="cls-135" points="485.6 8.63 490.11 19.16 506.8 13.52 502.25 1.95 485.6 8.63"/><polygon class="cls-136" points="491.66 7.51 498.37 4.85 502.44 15.02 495.26 17.52 491.66 7.51"/><polygon class="cls-91" points="486.03 10.75 486.59 9.07 501.64 3.34 502.68 4.07 486.03 10.75"/><polygon class="cls-92" points="490.91 7.43 498.58 4.51 501.09 3.55 501.92 4.07 489.19 9.16 489.54 7.95 490.91 7.43"/><polygon class="cls-87" points="506.8 13.52 493.28 26.61 490.7 21.47 490.11 19.16 506.8 13.52"/><path d="M504,2.38,514.8,6s1.78,3.32,1.88,3.68-.13,4.42-.49,4.77.15,2.58-4.37,2.42-9.14-3.74-9.14-3.74l1.78-3.82Z"/><path d="M496.15,2.59s.06-2.67,5.15-2c4.8.67,3.56,7,3.56,7s-.83,6.77-5.14,7.09-4.06-3-4.06-3Z"/><path d="M485.23,1.18l14,1.81a4.42,4.42,0,0,1,2.41,5.27c-.92,3.9-3.1,3.63-3.1,3.63l-13.31-.19Z"/><path class="cls-137" d="M487.25,2.19a4.28,4.28,0,0,1,1.07,1.68c.67.07,13,1.07,13,1.07S500.09,3.1,499.23,3c0,0,.38.91-.72.88S489.17,3.68,487.25,2.19Z"/><path d="M476,6.44a4.74,4.74,0,0,0,.27,1.87c.36.89,4.72,18.61,4.72,18.61a8.3,8.3,0,0,1-1.06,5.83c-1.78,3-3.77,4.52-6.13,4.63-2,.31-3.08,2,0,2.6s6.65-3.31,9.2-6.14a11.61,11.61,0,0,0,2.66-7.09,7.45,7.45,0,0,1,.08-.94l3.14-20.87Z"/><path class="cls-137" d="M500.06,1.18a3.8,3.8,0,0,1,3.31,1c1.32,1.41,1.35,3.8.6,7.41s-.45,0-.45,0,1.11-4.53-.35-6.71c-.91-1-3.51-1.15-3.51-1.15S499.2,1.23,500.06,1.18Z"/><path class="cls-138" d="M487.25,3.87h1.07l13,1.07s1.14,1.67,0,4.41C496.9,9.43,487.25,9,487.25,9Z"/><circle cx="482.42" cy="6.44" r="6.44"/><circle class="cls-139" cx="482.42" cy="6.44" r="5.26"/><path class="cls-137" d="M482.42,6.44l4.08-3.31s-3.27-4.12-8.16,0A9.12,9.12,0,0,0,482.42,6.44Z"/><circle class="cls-140" cx="481.97" cy="6.69" r="1"/><path class="cls-138" d="M486.13,11.7l-2.6,18.12s.05,2.43.76,1,3.38-21.15,3.38-21.15A10.74,10.74,0,0,1,486.13,11.7Z"/><path d="M476.12,36.74s-1.28-4.54-8.34-4-12.8,3.08-15,5.17-2.64,7,1.42,8.35,16.41,1,19.62-.31,3.38-6.91,3.38-6.91Z"/><path class="cls-141" d="M453.66,45.84c.14.06-1.12-3.5,0-6.24.55-1.51.74-2.5,5.48-4.41a44.31,44.31,0,0,1,11-1.94,13,13,0,0,1,2.83.25c-1.29-.46-3.37-1.46-8-.4-4.53.74-9.52,2.34-12.53,5.18a5.58,5.58,0,0,0-1.34,4.34C451.46,43.91,451.7,45,453.66,45.84Z"/><polygon class="cls-142" points="453.22 37.42 454.48 37.93 453.66 39.6 451.91 38.89 453.22 37.42"/><path class="cls-143" d="M456.3,37.42S461,34.15,469.11,34c1.46.21,5.4,1.38,5.82,2-.38.92-3.31,1.42-5.07,1.34s-9.54,2.38-11.25,3.89c-1.89,1-6.57-.38-2.68-3.89"/><path class="cls-56" d="M470.78,39.6a56.94,56.94,0,0,0,7.33-1.67c1.57-.68,4.31-4.87,4.31-4.87s.16-1.25-.8,0S479,37,477.44,37.8,469.7,39.19,470.78,39.6Z"/><path class="cls-106" d="M299.78,219.61l4,14.21s1.67,1.67,5.4,1.67,14,.89,14,.89,3,.39,3.44-2,6.84-28,6.84-28,.74-6-4.57-11.82-7.12-8-7.12-8l-16.08-3.37s-1.64-.58-1.9,1.65.52,11.35.52,11.35l12.34,2.31s3.32,1.55,3.58,2.45,2.57,5.83,2.18,7.54S319,224.57,319,224.57s-1.41,2.18-3.33,1.93S298.56,215.23,299.78,219.61Z"/><circle class="cls-107" cx="309.62" cy="185.7" r="1.05"/><circle class="cls-107" cx="320.99" cy="188.15" r="1.05"/><circle class="cls-107" cx="323.99" cy="234.15" r="1.05"/><circle class="cls-107" cx="306.99" cy="233.15" r="1.05"/><path class="cls-108" d="M305.94,194.84s-.2-6.5.63-7.25c.67-.5,1.25-1,2-.49a2.85,2.85,0,0,0,3.59-.92c.24-.42,6.74.92,6.74.92s-.5,1.91,1,2.66c.12,1,.46.92,0,1.75s-2.54,5.66-2.54,5.66a3.53,3.53,0,0,1-1.83,0c-1.17-.25-9-1.67-9-1.67S306.18,195.51,305.94,194.84Z"/><path class="cls-108" d="M318.24,197.28l3-6.72s.93-1.4,1.58-1.16c.68.58,8.05,7.16,9.53,14.4.27,2.09-.07,3.46-1.13,8.26-.69,2.57-.65,3.53-1.58,3.4s-6.89-.93-6.89-.93-1,.17-.58-1.23,1.16-5,1.16-5a4.71,4.71,0,0,0-.34-2.26c-.48-.93-1.75-5.28-1.75-5.28a3.58,3.58,0,0,0-1.71-1.85C318.31,198.38,317.93,198,318.24,197.28Z"/><path class="cls-108" d="M322.44,215.47l6.75,1s.66,0,.4,1.34-3.4,14.31-3.4,14.31a1.29,1.29,0,0,1-1.15.59c-.72-.08-1.73-.66-2.6.41a2.66,2.66,0,0,1-1.39-1l-2.7-5.29s.17-.24.7-.88a11.52,11.52,0,0,0,1.3-3.6c.44-1.61,1.4-6.23,1.4-6.23A.55.55,0,0,1,322.44,215.47Z"/><path class="cls-108" d="M305.37,231l-2.05-4.75s-2.83-5.36,2.27-3.92c4,2,10,5,10,5s1.66.31,2.79,2.7a24.87,24.87,0,0,0,3.4,4.12s.91,1.24.34,1.19l-12.5-1s-.65.09-.34-.78a1.88,1.88,0,0,0-1-2.48C307.2,230.73,305.78,232,305.37,231Z"/><path class="cls-109" d="M305.94,194.84s.49-6.53,1.23-7.23c.44-.15,1-.4,1.4,0s1.12.46,2.41-.22,1.53-1.17,2.48-1,4.89.94,4.89.94-.49,1.62.55,2,1,2.14,1,2.14.84-1.3-.38-2a2.27,2.27,0,0,1-.66-2.42,59.18,59.18,0,0,0-6.14-1,.87.87,0,0,0-.88.41s-1.21,1.18-2.26.89a4.5,4.5,0,0,1-1.45-.47,1.81,1.81,0,0,0-1.9,1.32A29.55,29.55,0,0,0,305.94,194.84Z"/><path class="cls-110" d="M306.17,195.26s.95.66,10,2c.84.15,1.25.64,2.32-2.6.67-1.5,1.46-3.17,1.46-3.17s-2,3.53-2.29,4.3a1.42,1.42,0,0,1-1.73,1C314.92,196.6,306.17,195.26,306.17,195.26Z"/><path class="cls-109" d="M332.43,205.88a19.19,19.19,0,0,0-2.78-7.55c-2.25-3.24-6.43-7.87-6.43-7.87s-.86-.58-1.53.54-2.65,6.4-2.65,6.4-.23.57.67,1a3.66,3.66,0,0,1,2.33,2.74,59.3,59.3,0,0,0,2,5.62,4.28,4.28,0,0,1,0,2.47c-.38,1.62-1.28,4.31-1.28,4.31s-.11,1.14-.59.7c.06-.91-.28-.28.8-3.88.42-2,.68-3.51-.19-4.91-.42-1.21-1.48-4.64-1.48-4.64s-.08-1-1.71-1.85c-.94-.5-1.81-.54-1.09-2.13l2.8-6.24s1.09-1.6,1.58-1.16,4.66,4.42,6.28,7.16C330.65,199.13,332.65,202.53,332.43,205.88Z"/><path class="cls-110" d="M322.62,214l7,.92s.49.13.85-1.13,1.93-7.9,1.93-7.9-1.31,7-2.05,9.25c-.24.72-1.81.17-1.95.16l-6.3-1.08Z"/><path class="cls-110" d="M319.53,229.13c.05.1,2.18,3.39,2.6,3.25a4.88,4.88,0,0,1,1.87-.67c.83,0,1.24.27,1.55-.09s2.58-7.61,2.58-7.61l-1.94,8.09a1.07,1.07,0,0,1-1.15.59c-.8-.17-1.9-.69-2.6.41,0,0-1.12-.47-1.39-1Z"/><path class="cls-110" d="M306.17,231.35s2-.56,2.68.13a2.26,2.26,0,0,1,.4,2.13c-.08.39-.21.74.34.78l12.5,1s.62-.19-.34-1.19-2.35-2.62-2.35-2.62l1.88,2.92s-.13.31-1.34.18l-9.44-1s-.9.14-.76-.49.18-2.07-.95-2.25A3.76,3.76,0,0,0,306.17,231.35Z"/><path class="cls-109" d="M319.15,228.37c-.06-.1-.34-1.56-.34-1.56a9,9,0,0,0,1.13-1.48c.22-.49,1.52-5.57,1.52-5.57l.82-3.37s.44-.63,1-.5,5.6,1,5.6,1,.84.39.73.91c0,0,.69-1.59-1.46-1.49l-5.69-.83a.53.53,0,0,0-.69.63c.07.83-2,8.56-2,8.56a8.22,8.22,0,0,1-1.36,2.15Z"/><path class="cls-109" d="M304.93,230l-2.19-5.18s-.63-2.12.62-2.59,2.54.28,3.41.71l9.82,5a11,11,0,0,1,2.81,3.71c-1-1.5-3.33-2.75-5.89-4.05s-8.54-4-8.54-4-2.11-.45-1.61,1.12S304.93,230,304.93,230Z"/><path class="cls-144" d="M305.94,191.7a41.8,41.8,0,0,1,4.73-.81c1.06,0,7.81,3.79,7.81,3.79l1.46-3.17.23-.62-.68-1-.93-1.28.34-1.47-6.14-1-.88.41-1.42.86-1.2.24-1.52-.28-.57.28-.9.64Z"/><path class="cls-144" d="M327.28,197.28s5.15,8.6,5.15,8.6l-.06-2.08-2.07-5.19-3.45-5.06L323.46,190l-.62-.59-1.22.69-2.58,6Z"/><path class="cls-144" d="M320.42,223.71l1.86-7.79c1,0,6.91.53,6.91.53l.5.88-1.35,5.79s-.42-2.22-1.06-2.37-4.74,1.3-4.74,1.3l-3.49,3.88Z"/><path class="cls-144" d="M307.74,230.86a12.11,12.11,0,0,1,2.67-1.08c.47.05,5,1.7,5.35,1.8s5.52,2.92,5.52,2.92l-3.54-5.45-11.57-5.63-2.12-.57-.51.78L303,224l2,6,.44,1a.68.68,0,0,0,.8.35A14.37,14.37,0,0,0,307.74,230.86Z"/><circle class="cls-145" cx="268.91" cy="225.68" r="2.03"/><circle class="cls-145" cx="309.91" cy="208.68" r="2.03"/><circle class="cls-145" cx="269.91" cy="187.68" r="2.03"/><path class="cls-128" d="M557.46,189.71A25.82,25.82,0,0,1,569.91,184l1.93,1,3.62,10.48.2,3.06,4.07,9.87-8.79,4.69-5.86-10.48-2.29-1.35-5.33-9.5Z"/><g class="cls-146"><polygon class="cls-147" points="569.91 183.97 571.84 184.98 575.46 195.46 575.61 197.75 579.73 208.39 577.86 209.38 573.5 198.72 573.19 196.5 569.2 186.02 566.69 184.68 569.91 183.97"/></g><g class="cls-146"><polygon class="cls-147" points="559.46 188.17 559.62 190.1 565.29 200.11 567.52 201.48 573.19 211.88 570.93 213.08 565.08 202.6 562.79 201.25 557.46 191.75 557.46 189.71 559.46 188.17"/></g><circle class="cls-148" cx="572.85" cy="205.13" r="5.02"/><circle class="cls-147" cx="572.85" cy="205.13" r="4.37"/><path class="cls-145" d="M572.85,201.76a3.37,3.37,0,1,1-3.38,3.37,3.37,3.37,0,0,1,3.38-3.37m0-1a4.37,4.37,0,1,0,4.37,4.37,4.38,4.38,0,0,0-4.37-4.37Z"/><g class="cls-146"><polygon class="cls-147" points="562.79 201.25 575.46 195.46 575.61 197.75 565.08 202.6 562.79 201.25"/></g><g class="cls-146"><path class="cls-147" d="M557.46,191.75l2.16-1.65,10.73-4.57,1.49-.55-1.93-1a24.5,24.5,0,0,0-10.45,4.2l-2,1.54Z"/></g><polygon class="cls-149" points="557.46 191.29 559.32 189.41 568.48 185.49 571.84 184.98 569.2 186.02 559.62 190.1 557.46 191.75 557.46 191.29"/><polygon class="cls-149" points="561.13 189.46 566.69 199.47 568.91 198.45 564.33 188.1 561.13 189.46"/><path class="cls-150" d="M556.91,188.91a14.74,14.74,0,0,1,5.88-4.94,17.55,17.55,0,0,1,6.67-1.16l.45,1.16A39.08,39.08,0,0,0,563.1,186a30.66,30.66,0,0,0-5.64,3.68Z"/></g></g></g></svg>