<?xml version="1.0" encoding="UTF-8"?><svg id="Layer_2" xmlns="http://www.w3.org/2000/svg" xmlns:xlink="http://www.w3.org/1999/xlink" viewBox="0 0 770.17 468.42"><defs><style>.cls-1{fill:none;}.cls-2{clip-path:url(#clippath);}.cls-3{fill:#fff;}.cls-4{fill:#919191;}.cls-5{fill:#bcbec0;}.cls-6{fill:#626161;}.cls-7{fill:#282828;}.cls-8{clip-path:url(#clippath-1);}.cls-9{clip-path:url(#clippath-4);}.cls-10{clip-path:url(#clippath-3);}.cls-11{clip-path:url(#clippath-2);}.cls-12{clip-path:url(#clippath-7);}.cls-13{clip-path:url(#clippath-8);}.cls-14{clip-path:url(#clippath-6);}.cls-15{clip-path:url(#clippath-5);}.cls-16{clip-path:url(#clippath-9);}.cls-17{clip-path:url(#clippath-60);}.cls-18{clip-path:url(#clippath-69);}.cls-19{clip-path:url(#clippath-20);}.cls-20{clip-path:url(#clippath-21);}.cls-21{clip-path:url(#clippath-24);}.cls-22{clip-path:url(#clippath-23);}.cls-23{clip-path:url(#clippath-22);}.cls-24{clip-path:url(#clippath-25);}.cls-25{clip-path:url(#clippath-44);}.cls-26{clip-path:url(#clippath-45);}.cls-27{clip-path:url(#clippath-40);}.cls-28{clip-path:url(#clippath-42);}.cls-29{clip-path:url(#clippath-41);}.cls-30{clip-path:url(#clippath-47);}.cls-31{clip-path:url(#clippath-43);}.cls-32{clip-path:url(#clippath-46);}.cls-33{clip-path:url(#clippath-48);}.cls-34{clip-path:url(#clippath-49);}.cls-35{clip-path:url(#clippath-84);}.cls-36{clip-path:url(#clippath-88);}.cls-37{clip-path:url(#clippath-86);}.cls-38{clip-path:url(#clippath-81);}.cls-39{clip-path:url(#clippath-83);}.cls-40{clip-path:url(#clippath-85);}.cls-41{clip-path:url(#clippath-80);}.cls-42{clip-path:url(#clippath-87);}.cls-43{clip-path:url(#clippath-82);}.cls-44{clip-path:url(#clippath-98);}.cls-45{clip-path:url(#clippath-89);}.cls-46{clip-path:url(#clippath-27);}.cls-47{clip-path:url(#clippath-28);}.cls-48{clip-path:url(#clippath-26);}.cls-49{clip-path:url(#clippath-29);}.cls-50{clip-path:url(#clippath-34);}.cls-51{clip-path:url(#clippath-35);}.cls-52{clip-path:url(#clippath-36);}.cls-53{clip-path:url(#clippath-37);}.cls-54{clip-path:url(#clippath-39);}.cls-55{clip-path:url(#clippath-33);}.cls-56{clip-path:url(#clippath-32);}.cls-57{clip-path:url(#clippath-30);}.cls-58{clip-path:url(#clippath-38);}.cls-59{clip-path:url(#clippath-31);}.cls-60{clip-path:url(#clippath-95);}.cls-61{clip-path:url(#clippath-99);}.cls-62{clip-path:url(#clippath-93);}.cls-63{clip-path:url(#clippath-94);}.cls-64{clip-path:url(#clippath-91);}.cls-65{clip-path:url(#clippath-96);}.cls-66{clip-path:url(#clippath-90);}.cls-67{clip-path:url(#clippath-92);}.cls-68{clip-path:url(#clippath-97);}.cls-69{clip-path:url(#clippath-53);}.cls-70{clip-path:url(#clippath-54);}.cls-71{clip-path:url(#clippath-50);}.cls-72{clip-path:url(#clippath-51);}.cls-73{clip-path:url(#clippath-52);}.cls-74{clip-path:url(#clippath-55);}.cls-75{clip-path:url(#clippath-56);}.cls-76{clip-path:url(#clippath-57);}.cls-77{clip-path:url(#clippath-58);}.cls-78{clip-path:url(#clippath-79);}.cls-79{clip-path:url(#clippath-61);}.cls-80{clip-path:url(#clippath-64);}.cls-81{clip-path:url(#clippath-62);}.cls-82{clip-path:url(#clippath-68);}.cls-83{clip-path:url(#clippath-67);}.cls-84{clip-path:url(#clippath-73);}.cls-85{clip-path:url(#clippath-59);}.cls-86{clip-path:url(#clippath-65);}.cls-87{clip-path:url(#clippath-63);}.cls-88{clip-path:url(#clippath-66);}.cls-89{clip-path:url(#clippath-70);}.cls-90{clip-path:url(#clippath-75);}.cls-91{clip-path:url(#clippath-72);}.cls-92{clip-path:url(#clippath-78);}.cls-93{clip-path:url(#clippath-71);}.cls-94{clip-path:url(#clippath-77);}.cls-95{clip-path:url(#clippath-74);}.cls-96{clip-path:url(#clippath-76);}.cls-97{clip-path:url(#clippath-14);}.cls-98{clip-path:url(#clippath-13);}.cls-99{clip-path:url(#clippath-12);}.cls-100{clip-path:url(#clippath-10);}.cls-101{clip-path:url(#clippath-15);}.cls-102{clip-path:url(#clippath-17);}.cls-103{clip-path:url(#clippath-16);}.cls-104{clip-path:url(#clippath-19);}.cls-105{clip-path:url(#clippath-11);}.cls-106{clip-path:url(#clippath-18);}.cls-107{clip-path:url(#clippath-100);}.cls-108{clip-path:url(#clippath-102);}.cls-109{clip-path:url(#clippath-103);}.cls-110{clip-path:url(#clippath-104);}.cls-111{clip-path:url(#clippath-101);}</style><clipPath id="clippath"><path class="cls-1" d="M490.96,0l6.91,18.91,3.51,2.89s8.71-.19,17.17-.13c3.6,.03,6.89,2.49,6.28,7.26-.61,4.77-2.45,30.45-2.69,34.48s2.08,24.21,2.08,24.21l-7.46-.98s.73-18.34,1.1-22.5c.37-4.16,2.81-31.79,3.18-34.73s-1.59-3.55-4.28-3.55-15.52,.3-15.52,.3l-2.45,2.14-10.52,19.86-2.81,.12s-4.77-27.76,2.32-48.3h3.18Z"/></clipPath><clipPath id="clippath-1"><path class="cls-1" d="M539.89,83.06c.14-1.51-4.7-2.52-6.41-2.69-2.8-.27-8.1-.7-11.92,.14-.77,.17-.19,15.39,.17,16,.37,.61,10.04,2.01,11.75,1.62s4.86-.76,5.61-1.01,.62-11.98,.8-14.06Z"/></clipPath><clipPath id="clippath-2"><path class="cls-1" d="M539.89,83.06c.14-1.51-4.7-2.52-6.41-2.69-2.8-.27-8.1-.7-11.92,.14-.77,.17-.19,15.39,.17,16,.37,.61,10.04,2.01,11.75,1.62s4.86-.76,5.61-1.01,.62-11.98,.8-14.06Z"/></clipPath><clipPath id="clippath-3"><path class="cls-1" d="M498.39,92.72c0-5.2,1.56-10.75,9.39-10.77,4.71,0,6.7,.31,7.67,.55,.98,.24,7.12,2.38,6.76,9.97-.37,7.58-5.2,9.42-6.79,10.21-1.59,.79-9.33,.58-10.52,.43-1.86-.24-6.52-1.83-6.52-10.39Z"/></clipPath><clipPath id="clippath-4"><path class="cls-1" d="M498.39,92.72c0-5.2,1.56-10.75,9.39-10.77,4.71,0,6.7,.31,7.67,.55,.98,.24,7.12,2.38,6.76,9.97-.37,7.58-5.2,9.42-6.79,10.21-1.59,.79-9.33,.58-10.52,.43-1.86-.24-6.52-1.83-6.52-10.39Z"/></clipPath><clipPath id="clippath-5"><path class="cls-1" d="M498.39,92.72c0-5.2,1.56-10.75,9.39-10.77,4.71,0,6.7,.31,7.67,.55,.98,.24,7.12,2.38,6.76,9.97-.37,7.58-5.2,9.42-6.79,10.21-1.59,.79-9.33,.58-10.52,.43-1.86-.24-6.52-1.83-6.52-10.39Z"/></clipPath><clipPath id="clippath-6"><circle class="cls-1" cx="138.25" cy="353.44" r="58.23"/></clipPath><clipPath id="clippath-7"><circle class="cls-1" cx="138.25" cy="353.44" r="58.23"/></clipPath><clipPath id="clippath-8"><circle class="cls-1" cx="138.25" cy="353.44" r="58.23"/></clipPath><clipPath id="clippath-9"><circle class="cls-1" cx="138.25" cy="353.44" r="58.23"/></clipPath><clipPath id="clippath-10"><circle class="cls-1" cx="138.25" cy="353.44" r="58.23"/></clipPath><clipPath id="clippath-11"><circle class="cls-1" cx="138.25" cy="353.44" r="58.23"/></clipPath><clipPath id="clippath-12"><circle class="cls-1" cx="138.25" cy="353.44" r="58.23"/></clipPath><clipPath id="clippath-13"><circle class="cls-1" cx="138.25" cy="353.44" r="58.23"/></clipPath><clipPath id="clippath-14"><circle class="cls-1" cx="138.25" cy="353.44" r="58.23"/></clipPath><clipPath id="clippath-15"><circle class="cls-1" cx="138.25" cy="353.44" r="58.23"/></clipPath><clipPath id="clippath-16"><circle class="cls-1" cx="138.25" cy="353.44" r="58.23"/></clipPath><clipPath id="clippath-17"><path class="cls-1" d="M238.6,210.87c-10.86,0-15.44,3.41-4.98,21.54,8.29,14.36,19,33.86,21.58,38.76,2.58,4.9,5.38,12.99,18.53,12.99s17.6-1.19,21.47-13.58,11.53-37.02,13.85-45.8c2.32-8.77,2.21-13.91-12.87-13.91h-57.58Z"/></clipPath><clipPath id="clippath-18"><path class="cls-1" d="M238.6,210.87c-10.86,0-15.44,3.41-4.98,21.54,8.29,14.36,19,33.86,21.58,38.76,2.58,4.9,5.38,12.99,18.53,12.99s17.6-1.19,21.47-13.58,11.53-37.02,13.85-45.8c2.32-8.77,2.21-13.91-12.87-13.91h-57.58Z"/></clipPath><clipPath id="clippath-19"><path class="cls-1" d="M238.6,210.87c-10.86,0-15.44,3.41-4.98,21.54,8.29,14.36,19,33.86,21.58,38.76,2.58,4.9,5.38,12.99,18.53,12.99s17.6-1.19,21.47-13.58,11.53-37.02,13.85-45.8c2.32-8.77,2.21-13.91-12.87-13.91h-57.58Z"/></clipPath><clipPath id="clippath-20"><path class="cls-1" d="M238.6,210.87c-10.86,0-15.44,3.41-4.98,21.54,8.29,14.36,19,33.86,21.58,38.76,2.58,4.9,5.38,12.99,18.53,12.99s17.6-1.19,21.47-13.58,11.53-37.02,13.85-45.8c2.32-8.77,2.21-13.91-12.87-13.91h-57.58Z"/></clipPath><clipPath id="clippath-21"><path class="cls-1" d="M238.6,210.87c-10.86,0-15.44,3.41-4.98,21.54,8.29,14.36,19,33.86,21.58,38.76,2.58,4.9,5.38,12.99,18.53,12.99s17.6-1.19,21.47-13.58,11.53-37.02,13.85-45.8c2.32-8.77,2.21-13.91-12.87-13.91h-57.58Z"/></clipPath><clipPath id="clippath-22"><path class="cls-1" d="M238.6,210.87c-10.86,0-15.44,3.41-4.98,21.54,8.29,14.36,19,33.86,21.58,38.76,2.58,4.9,5.38,12.99,18.53,12.99s17.6-1.19,21.47-13.58,11.53-37.02,13.85-45.8c2.32-8.77,2.21-13.91-12.87-13.91h-57.58Z"/></clipPath><clipPath id="clippath-23"><path class="cls-1" d="M238.6,210.87c-10.86,0-15.44,3.41-4.98,21.54,8.29,14.36,19,33.86,21.58,38.76,2.58,4.9,5.38,12.99,18.53,12.99s17.6-1.19,21.47-13.58,11.53-37.02,13.85-45.8c2.32-8.77,2.21-13.91-12.87-13.91h-57.58Z"/></clipPath><clipPath id="clippath-24"><path class="cls-1" d="M238.6,210.87c-10.86,0-15.44,3.41-4.98,21.54,8.29,14.36,19,33.86,21.58,38.76,2.58,4.9,5.38,12.99,18.53,12.99s17.6-1.19,21.47-13.58,11.53-37.02,13.85-45.8c2.32-8.77,2.21-13.91-12.87-13.91h-57.58Z"/></clipPath><clipPath id="clippath-25"><path class="cls-1" d="M261.73,327.4s-17.76-102.25-123.95-102.25c-66.45,0-98.36,48.2-104.23,57.49-5.87,9.29-9.91,15.95-18.34,17.61-9.66,1.9-11.33,2.3-14.04,3.35-1.13,.44-1.99-.47,.15-1.59,5.59-14.01,42.39-97.13,128.84-97.13,94.4,0,95.87,26.85,95.87,26.85l63.43,113.03s-25,9.81-38.29,14.06c-11.49,3.67-17.97-8.91-7.72-17.03,7.2-5.71,18.29-14.38,18.29-14.38Z"/></clipPath><clipPath id="clippath-26"><path class="cls-1" d="M261.73,327.4s-17.76-102.25-123.95-102.25c-66.45,0-98.36,48.2-104.23,57.49-5.87,9.29-9.91,15.95-18.34,17.61-9.66,1.9-11.33,2.3-14.04,3.35-1.13,.44-1.99-.47,.15-1.59,5.59-14.01,42.39-97.13,128.84-97.13,94.4,0,95.87,26.85,95.87,26.85l63.43,113.03s-25,9.81-38.29,14.06c-11.49,3.67-17.97-8.91-7.72-17.03,7.2-5.71,18.29-14.38,18.29-14.38Z"/></clipPath><clipPath id="clippath-27"><path class="cls-1" d="M261.73,327.4s-17.76-102.25-123.95-102.25c-66.45,0-98.36,48.2-104.23,57.49-5.87,9.29-9.91,15.95-18.34,17.61-9.66,1.9-11.33,2.3-14.04,3.35-1.13,.44-1.99-.47,.15-1.59,5.59-14.01,42.39-97.13,128.84-97.13,94.4,0,95.87,26.85,95.87,26.85l63.43,113.03s-25,9.81-38.29,14.06c-11.49,3.67-17.97-8.91-7.72-17.03,7.2-5.71,18.29-14.38,18.29-14.38Z"/></clipPath><clipPath id="clippath-28"><path class="cls-1" d="M261.73,327.4s-17.76-102.25-123.95-102.25c-66.45,0-98.36,48.2-104.23,57.49-5.87,9.29-9.91,15.95-18.34,17.61-9.66,1.9-11.33,2.3-14.04,3.35-1.13,.44-1.99-.47,.15-1.59,5.59-14.01,42.39-97.13,128.84-97.13,94.4,0,95.87,26.85,95.87,26.85l63.43,113.03s-25,9.81-38.29,14.06c-11.49,3.67-17.97-8.91-7.72-17.03,7.2-5.71,18.29-14.38,18.29-14.38Z"/></clipPath><clipPath id="clippath-29"><path class="cls-1" d="M261.73,327.4s-17.76-102.25-123.95-102.25c-66.45,0-98.36,48.2-104.23,57.49-5.87,9.29-9.91,15.95-18.34,17.61-9.66,1.9-11.33,2.3-14.04,3.35-1.13,.44-1.99-.47,.15-1.59,5.59-14.01,42.39-97.13,128.84-97.13,94.4,0,95.87,26.85,95.87,26.85l63.43,113.03s-25,9.81-38.29,14.06c-11.49,3.67-17.97-8.91-7.72-17.03,7.2-5.71,18.29-14.38,18.29-14.38Z"/></clipPath><clipPath id="clippath-30"><path class="cls-1" d="M261.73,327.4s-17.76-102.25-123.95-102.25c-66.45,0-98.36,48.2-104.23,57.49-5.87,9.29-9.91,15.95-18.34,17.61-9.66,1.9-11.33,2.3-14.04,3.35-1.13,.44-1.99-.47,.15-1.59,5.59-14.01,42.39-97.13,128.84-97.13,94.4,0,95.87,26.85,95.87,26.85l63.43,113.03s-25,9.81-38.29,14.06c-11.49,3.67-17.97-8.91-7.72-17.03,7.2-5.71,18.29-14.38,18.29-14.38Z"/></clipPath><clipPath id="clippath-31"><path class="cls-1" d="M261.73,327.4s-17.76-102.25-123.95-102.25c-66.45,0-98.36,48.2-104.23,57.49-5.87,9.29-9.91,15.95-18.34,17.61-9.66,1.9-11.33,2.3-14.04,3.35-1.13,.44-1.99-.47,.15-1.59,5.59-14.01,42.39-97.13,128.84-97.13,94.4,0,95.87,26.85,95.87,26.85l63.43,113.03s-25,9.81-38.29,14.06c-11.49,3.67-17.97-8.91-7.72-17.03,7.2-5.71,18.29-14.38,18.29-14.38Z"/></clipPath><clipPath id="clippath-32"><path class="cls-1" d="M261.73,327.4s-17.76-102.25-123.95-102.25c-66.45,0-98.36,48.2-104.23,57.49-5.87,9.29-9.91,15.95-18.34,17.61-9.66,1.9-11.33,2.3-14.04,3.35-1.13,.44-1.99-.47,.15-1.59,5.59-14.01,42.39-97.13,128.84-97.13,94.4,0,95.87,26.85,95.87,26.85l63.43,113.03s-25,9.81-38.29,14.06c-11.49,3.67-17.97-8.91-7.72-17.03,7.2-5.71,18.29-14.38,18.29-14.38Z"/></clipPath><clipPath id="clippath-33"><path class="cls-1" d="M261.73,327.4s-17.76-102.25-123.95-102.25c-66.45,0-98.36,48.2-104.23,57.49-5.87,9.29-9.91,15.95-18.34,17.61-9.66,1.9-11.33,2.3-14.04,3.35-1.13,.44-1.99-.47,.15-1.59,5.59-14.01,42.39-97.13,128.84-97.13,94.4,0,95.87,26.85,95.87,26.85l63.43,113.03s-25,9.81-38.29,14.06c-11.49,3.67-17.97-8.91-7.72-17.03,7.2-5.71,18.29-14.38,18.29-14.38Z"/></clipPath><clipPath id="clippath-34"><path class="cls-1" d="M261.73,327.4s-17.76-102.25-123.95-102.25c-66.45,0-98.36,48.2-104.23,57.49-5.87,9.29-9.91,15.95-18.34,17.61-9.66,1.9-11.33,2.3-14.04,3.35-1.13,.44-1.99-.47,.15-1.59,5.59-14.01,42.39-97.13,128.84-97.13,94.4,0,95.87,26.85,95.87,26.85l63.43,113.03s-25,9.81-38.29,14.06c-11.49,3.67-17.97-8.91-7.72-17.03,7.2-5.71,18.29-14.38,18.29-14.38Z"/></clipPath><clipPath id="clippath-35"><rect class="cls-1" x="181.82" y="230.42" width="18" height="23.11" rx="1.6" ry="1.6" transform="translate(-106.4 323.36) rotate(-67.05)"/></clipPath><clipPath id="clippath-36"><rect class="cls-1" x="181.82" y="230.42" width="18" height="23.11" rx="1.6" ry="1.6" transform="translate(-106.4 323.36) rotate(-67.05)"/></clipPath><clipPath id="clippath-37"><rect class="cls-1" x="181.82" y="230.42" width="18" height="23.11" rx="1.6" ry="1.6" transform="translate(-106.4 323.36) rotate(-67.05)"/></clipPath><clipPath id="clippath-38"><rect class="cls-1" x="181.82" y="230.42" width="18" height="23.11" rx="1.6" ry="1.6" transform="translate(-106.4 323.36) rotate(-67.05)"/></clipPath><clipPath id="clippath-39"><rect class="cls-1" x="181.82" y="230.42" width="18" height="23.11" rx="1.6" ry="1.6" transform="translate(-106.4 323.36) rotate(-67.05)"/></clipPath><clipPath id="clippath-40"><rect class="cls-1" x="181.82" y="230.42" width="18" height="23.11" rx="1.6" ry="1.6" transform="translate(-106.4 323.36) rotate(-67.05)"/></clipPath><clipPath id="clippath-41"><rect class="cls-1" x="181.82" y="230.42" width="18" height="23.11" rx="1.6" ry="1.6" transform="translate(-106.4 323.36) rotate(-67.05)"/></clipPath><clipPath id="clippath-42"><rect class="cls-1" x="181.82" y="230.42" width="18" height="23.11" rx="1.6" ry="1.6" transform="translate(-106.4 323.36) rotate(-67.05)"/></clipPath><clipPath id="clippath-43"><rect class="cls-1" x="181.82" y="230.42" width="18" height="23.11" rx="1.6" ry="1.6" transform="translate(-106.4 323.36) rotate(-67.05)"/></clipPath><clipPath id="clippath-44"><rect class="cls-1" x="181.82" y="230.42" width="18" height="23.11" rx="1.6" ry="1.6" transform="translate(-106.4 323.36) rotate(-67.05)"/></clipPath><clipPath id="clippath-45"><rect class="cls-1" x="181.82" y="230.42" width="18" height="23.11" rx="1.6" ry="1.6" transform="translate(-106.4 323.36) rotate(-67.05)"/></clipPath><clipPath id="clippath-46"><rect class="cls-1" x="181.82" y="230.42" width="18" height="23.11" rx="1.6" ry="1.6" transform="translate(-106.4 323.36) rotate(-67.05)"/></clipPath><clipPath id="clippath-47"><rect class="cls-1" x="181.82" y="230.42" width="18" height="23.11" rx="1.6" ry="1.6" transform="translate(-106.4 323.36) rotate(-67.05)"/></clipPath><clipPath id="clippath-48"><path class="cls-1" d="M448.86,370.54h-117.6c-21.89,0-32.19-22.53-29.63-32.16l11.43-45.51c.94-3.74,4.73-6.76,8.46-6.76h154.83c8.29,0,14.9,5.04,12.08,16.25-2.82,11.21-9.88,38.99-12.06,46.96s-10.65,21.21-27.51,21.21Z"/></clipPath><clipPath id="clippath-49"><path class="cls-1" d="M448.86,370.54h-117.6c-21.89,0-32.19-22.53-29.63-32.16l11.43-45.51c.94-3.74,4.73-6.76,8.46-6.76h154.83c8.29,0,14.9,5.04,12.08,16.25-2.82,11.21-9.88,38.99-12.06,46.96s-10.65,21.21-27.51,21.21Z"/></clipPath><clipPath id="clippath-50"><path class="cls-1" d="M448.86,370.54h-117.6c-21.89,0-32.19-22.53-29.63-32.16l11.43-45.51c.94-3.74,4.73-6.76,8.46-6.76h154.83c8.29,0,14.9,5.04,12.08,16.25-2.82,11.21-9.88,38.99-12.06,46.96s-10.65,21.21-27.51,21.21Z"/></clipPath><clipPath id="clippath-51"><path class="cls-1" d="M448.86,370.54h-117.6c-21.89,0-32.19-22.53-29.63-32.16l11.43-45.51c.94-3.74,4.73-6.76,8.46-6.76h154.83c8.29,0,14.9,5.04,12.08,16.25-2.82,11.21-9.88,38.99-12.06,46.96s-10.65,21.21-27.51,21.21Z"/></clipPath><clipPath id="clippath-52"><path class="cls-1" d="M448.86,370.54h-117.6c-21.89,0-32.19-22.53-29.63-32.16l11.43-45.51c.94-3.74,4.73-6.76,8.46-6.76h154.83c8.29,0,14.9,5.04,12.08,16.25-2.82,11.21-9.88,38.99-12.06,46.96s-10.65,21.21-27.51,21.21Z"/></clipPath><clipPath id="clippath-53"><path class="cls-1" d="M448.86,370.54h-117.6c-21.89,0-32.19-22.53-29.63-32.16l11.43-45.51c.94-3.74,4.73-6.76,8.46-6.76h154.83c8.29,0,14.9,5.04,12.08,16.25-2.82,11.21-9.88,38.99-12.06,46.96s-10.65,21.21-27.51,21.21Z"/></clipPath><clipPath id="clippath-54"><path class="cls-1" d="M483.33,282.5h-150.7c-9.54,0-15.41-5.32-12.66-16.51l12.32-44.78c.94-3.74,4.73-6.76,8.46-6.76h151.64c12.56,0,15.14,6.84,12.93,14.49-2.21,7.65-13.53,46.79-13.53,46.79-.94,3.74-4.73,6.76-8.46,6.76Z"/></clipPath><clipPath id="clippath-55"><path class="cls-1" d="M483.33,282.5h-150.7c-9.54,0-15.41-5.32-12.66-16.51l12.32-44.78c.94-3.74,4.73-6.76,8.46-6.76h151.64c12.56,0,15.14,6.84,12.93,14.49-2.21,7.65-13.53,46.79-13.53,46.79-.94,3.74-4.73,6.76-8.46,6.76Z"/></clipPath><clipPath id="clippath-56"><path class="cls-1" d="M483.33,282.5h-150.7c-9.54,0-15.41-5.32-12.66-16.51l12.32-44.78c.94-3.74,4.73-6.76,8.46-6.76h151.64c12.56,0,15.14,6.84,12.93,14.49-2.21,7.65-13.53,46.79-13.53,46.79-.94,3.74-4.73,6.76-8.46,6.76Z"/></clipPath><clipPath id="clippath-57"><path class="cls-1" d="M483.33,282.5h-150.7c-9.54,0-15.41-5.32-12.66-16.51l12.32-44.78c.94-3.74,4.73-6.76,8.46-6.76h151.64c12.56,0,15.14,6.84,12.93,14.49-2.21,7.65-13.53,46.79-13.53,46.79-.94,3.74-4.73,6.76-8.46,6.76Z"/></clipPath><clipPath id="clippath-58"><path class="cls-1" d="M483.33,282.5h-150.7c-9.54,0-15.41-5.32-12.66-16.51l12.32-44.78c.94-3.74,4.73-6.76,8.46-6.76h151.64c12.56,0,15.14,6.84,12.93,14.49-2.21,7.65-13.53,46.79-13.53,46.79-.94,3.74-4.73,6.76-8.46,6.76Z"/></clipPath><clipPath id="clippath-59"><path class="cls-1" d="M483.33,282.5h-150.7c-9.54,0-15.41-5.32-12.66-16.51l12.32-44.78c.94-3.74,4.73-6.76,8.46-6.76h151.64c12.56,0,15.14,6.84,12.93,14.49-2.21,7.65-13.53,46.79-13.53,46.79-.94,3.74-4.73,6.76-8.46,6.76Z"/></clipPath><clipPath id="clippath-60"><path class="cls-1" d="M483.33,282.5h-150.7c-9.54,0-15.41-5.32-12.66-16.51l12.32-44.78c.94-3.74,4.73-6.76,8.46-6.76h151.64c12.56,0,15.14,6.84,12.93,14.49-2.21,7.65-13.53,46.79-13.53,46.79-.94,3.74-4.73,6.76-8.46,6.76Z"/></clipPath><clipPath id="clippath-61"><path class="cls-1" d="M483.33,282.5h-150.7c-9.54,0-15.41-5.32-12.66-16.51l12.32-44.78c.94-3.74,4.73-6.76,8.46-6.76h151.64c12.56,0,15.14,6.84,12.93,14.49-2.21,7.65-13.53,46.79-13.53,46.79-.94,3.74-4.73,6.76-8.46,6.76Z"/></clipPath><clipPath id="clippath-62"><path class="cls-1" d="M483.33,282.5h-150.7c-9.54,0-15.41-5.32-12.66-16.51l12.32-44.78c.94-3.74,4.73-6.76,8.46-6.76h151.64c12.56,0,15.14,6.84,12.93,14.49-2.21,7.65-13.53,46.79-13.53,46.79-.94,3.74-4.73,6.76-8.46,6.76Z"/></clipPath><clipPath id="clippath-63"><path class="cls-1" d="M483.33,282.5h-150.7c-9.54,0-15.41-5.32-12.66-16.51l12.32-44.78c.94-3.74,4.73-6.76,8.46-6.76h151.64c12.56,0,15.14,6.84,12.93,14.49-2.21,7.65-13.53,46.79-13.53,46.79-.94,3.74-4.73,6.76-8.46,6.76Z"/></clipPath><clipPath id="clippath-64"><path class="cls-1" d="M483.33,282.5h-150.7c-9.54,0-15.41-5.32-12.66-16.51l12.32-44.78c.94-3.74,4.73-6.76,8.46-6.76h151.64c12.56,0,15.14,6.84,12.93,14.49-2.21,7.65-13.53,46.79-13.53,46.79-.94,3.74-4.73,6.76-8.46,6.76Z"/></clipPath><clipPath id="clippath-65"><path class="cls-1" d="M483.33,282.5h-150.7c-9.54,0-15.41-5.32-12.66-16.51l12.32-44.78c.94-3.74,4.73-6.76,8.46-6.76h151.64c12.56,0,15.14,6.84,12.93,14.49-2.21,7.65-13.53,46.79-13.53,46.79-.94,3.74-4.73,6.76-8.46,6.76Z"/></clipPath><clipPath id="clippath-66"><path class="cls-1" d="M483.33,282.5h-150.7c-9.54,0-15.41-5.32-12.66-16.51l12.32-44.78c.94-3.74,4.73-6.76,8.46-6.76h151.64c12.56,0,15.14,6.84,12.93,14.49-2.21,7.65-13.53,46.79-13.53,46.79-.94,3.74-4.73,6.76-8.46,6.76Z"/></clipPath><clipPath id="clippath-67"><path class="cls-1" d="M334.56,175.3s-4.77,22.38-6.24,26.78c-1.47,4.4-4.22,4.95-9.17,5.14-35.57,1.37-137.21,.76-222.86-4.22,0,0,21.28-31,49.71-41.45,0,0,28.61,12.11,188.56,13.76Z"/></clipPath><clipPath id="clippath-68"><path class="cls-1" d="M334.56,175.3s-4.77,22.38-6.24,26.78c-1.47,4.4-4.22,4.95-9.17,5.14-35.57,1.37-137.21,.76-222.86-4.22,0,0,21.28-31,49.71-41.45,0,0,28.61,12.11,188.56,13.76Z"/></clipPath><clipPath id="clippath-69"><path class="cls-1" d="M334.56,175.3s-4.77,22.38-6.24,26.78c-1.47,4.4-4.22,4.95-9.17,5.14-35.57,1.37-137.21,.76-222.86-4.22,0,0,21.28-31,49.71-41.45,0,0,28.61,12.11,188.56,13.76Z"/></clipPath><clipPath id="clippath-70"><path class="cls-1" d="M334.56,175.3s-4.77,22.38-6.24,26.78c-1.47,4.4-4.22,4.95-9.17,5.14-35.57,1.37-137.21,.76-222.86-4.22,0,0,21.28-31,49.71-41.45,0,0,28.61,12.11,188.56,13.76Z"/></clipPath><clipPath id="clippath-71"><path class="cls-1" d="M334.56,175.3s-4.77,22.38-6.24,26.78c-1.47,4.4-4.22,4.95-9.17,5.14-35.57,1.37-137.21,.76-222.86-4.22,0,0,21.28-31,49.71-41.45,0,0,28.61,12.11,188.56,13.76Z"/></clipPath><clipPath id="clippath-72"><path class="cls-1" d="M334.56,175.3s-4.77,22.38-6.24,26.78c-1.47,4.4-4.22,4.95-9.17,5.14-35.57,1.37-137.21,.76-222.86-4.22,0,0,21.28-31,49.71-41.45,0,0,28.61,12.11,188.56,13.76Z"/></clipPath><clipPath id="clippath-73"><path class="cls-1" d="M334.56,175.3s-4.77,22.38-6.24,26.78c-1.47,4.4-4.22,4.95-9.17,5.14-35.57,1.37-137.21,.76-222.86-4.22,0,0,21.28-31,49.71-41.45,0,0,28.61,12.11,188.56,13.76Z"/></clipPath><clipPath id="clippath-74"><path class="cls-1" d="M214.53,169.37c-.8,.2-3.85,.73-3.85,10.36,0,7.71,0,27.87,0,28.81,0,1.64,12.85,2.11,12.85,0,0-19.44-.66-31.25,.44-36.19,0,0,2.23,.27,2.31,.01,.15-.46-.97-2.49-2.18-2.61-2.39-.25-8.76-.58-9.56-.38Z"/></clipPath><clipPath id="clippath-75"><path class="cls-1" d="M495.1,135.46c-25.92-15.16-108.83-2.69-145.54,30.49-25.67,23.19-13.77,46.31,1.5,46.31h131.82c21.52,0,30.33-20.54,29.59-41.58s-3.25-26.96-17.36-35.22Z"/></clipPath><clipPath id="clippath-76"><path class="cls-1" d="M495.1,135.46c-25.92-15.16-108.83-2.69-145.54,30.49-25.67,23.19-13.77,46.31,1.5,46.31h131.82c21.52,0,30.33-20.54,29.59-41.58s-3.25-26.96-17.36-35.22Z"/></clipPath><clipPath id="clippath-77"><path class="cls-1" d="M495.1,135.46c-25.92-15.16-108.83-2.69-145.54,30.49-25.67,23.19-13.77,46.31,1.5,46.31h131.82c21.52,0,30.33-20.54,29.59-41.58s-3.25-26.96-17.36-35.22Z"/></clipPath><clipPath id="clippath-78"><path class="cls-1" d="M495.1,135.46c-25.92-15.16-108.83-2.69-145.54,30.49-25.67,23.19-13.77,46.31,1.5,46.31h131.82c21.52,0,30.33-20.54,29.59-41.58s-3.25-26.96-17.36-35.22Z"/></clipPath><clipPath id="clippath-79"><path class="cls-1" d="M495.1,135.46c-25.92-15.16-108.83-2.69-145.54,30.49-25.67,23.19-13.77,46.31,1.5,46.31h131.82c21.52,0,30.33-20.54,29.59-41.58s-3.25-26.96-17.36-35.22Z"/></clipPath><clipPath id="clippath-80"><path class="cls-1" d="M495.1,135.46c-25.92-15.16-108.83-2.69-145.54,30.49-25.67,23.19-13.77,46.31,1.5,46.31h131.82c21.52,0,30.33-20.54,29.59-41.58s-3.25-26.96-17.36-35.22Z"/></clipPath><clipPath id="clippath-81"><path class="cls-1" d="M495.1,135.46c-25.92-15.16-108.83-2.69-145.54,30.49-25.67,23.19-13.77,46.31,1.5,46.31h131.82c21.52,0,30.33-20.54,29.59-41.58s-3.25-26.96-17.36-35.22Z"/></clipPath><clipPath id="clippath-82"><path class="cls-1" d="M495.1,135.46c-25.92-15.16-108.83-2.69-145.54,30.49-25.67,23.19-13.77,46.31,1.5,46.31h131.82c21.52,0,30.33-20.54,29.59-41.58s-3.25-26.96-17.36-35.22Z"/></clipPath><clipPath id="clippath-83"><path class="cls-1" d="M495.1,135.46c-25.92-15.16-108.83-2.69-145.54,30.49-25.67,23.19-13.77,46.31,1.5,46.31h131.82c21.52,0,30.33-20.54,29.59-41.58s-3.25-26.96-17.36-35.22Z"/></clipPath><clipPath id="clippath-84"><path class="cls-1" d="M704.2,252.23l14.49-6.14s-60.35-34.03-119.04-1.19c-34.16,19.11-82.91,60.35-67.5,142.52l13.94-11.19c-4.7-22.79-2-87.74,59.26-119.29,52.5-27.04,98.85-4.71,98.85-4.71Z"/></clipPath><clipPath id="clippath-85"><path class="cls-1" d="M704.2,252.23l14.49-6.14s-60.35-34.03-119.04-1.19c-34.16,19.11-82.91,60.35-67.5,142.52l13.94-11.19c-4.7-22.79-2-87.74,59.26-119.29,52.5-27.04,98.85-4.71,98.85-4.71Z"/></clipPath><clipPath id="clippath-86"><path class="cls-1" d="M704.2,252.23l14.49-6.14s-60.35-34.03-119.04-1.19c-34.16,19.11-82.91,60.35-67.5,142.52l13.94-11.19c-4.7-22.79-2-87.74,59.26-119.29,52.5-27.04,98.85-4.71,98.85-4.71Z"/></clipPath><clipPath id="clippath-87"><path class="cls-1" d="M704.2,252.23l14.49-6.14s-60.35-34.03-119.04-1.19c-34.16,19.11-82.91,60.35-67.5,142.52l13.94-11.19c-4.7-22.79-2-87.74,59.26-119.29,52.5-27.04,98.85-4.71,98.85-4.71Z"/></clipPath><clipPath id="clippath-88"><path class="cls-1" d="M469.37,129.49c.78-.15,1.18-4.07-.65-5.01-1.18-.61-36.37,1.66-39.01,3.18-1.91,1.1-1.54,4.96,0,5,1.54,.04,35.38-2.34,39.66-3.17Z"/></clipPath><clipPath id="clippath-89"><path class="cls-1" d="M469.37,129.49c.78-.15,1.18-4.07-.65-5.01-1.18-.61-36.37,1.66-39.01,3.18-1.91,1.1-1.54,4.96,0,5,1.54,.04,35.38-2.34,39.66-3.17Z"/></clipPath><clipPath id="clippath-90"><path class="cls-1" d="M469.37,129.49c.78-.15,1.18-4.07-.65-5.01-1.18-.61-36.37,1.66-39.01,3.18-1.91,1.1-1.54,4.96,0,5,1.54,.04,35.38-2.34,39.66-3.17Z"/></clipPath><clipPath id="clippath-91"><path class="cls-1" d="M469.37,129.49c.78-.15,1.18-4.07-.65-5.01-1.18-.61-36.37,1.66-39.01,3.18-1.91,1.1-1.54,4.96,0,5,1.54,.04,35.38-2.34,39.66-3.17Z"/></clipPath><clipPath id="clippath-92"><path class="cls-1" d="M469.37,129.49c.78-.15,1.18-4.07-.65-5.01-1.18-.61-36.37,1.66-39.01,3.18-1.91,1.1-1.54,4.96,0,5,1.54,.04,35.38-2.34,39.66-3.17Z"/></clipPath><clipPath id="clippath-93"><path class="cls-1" d="M469.37,129.49c.78-.15,1.18-4.07-.65-5.01-1.18-.61-36.37,1.66-39.01,3.18-1.91,1.1-1.54,4.96,0,5,1.54,.04,35.38-2.34,39.66-3.17Z"/></clipPath><clipPath id="clippath-94"><path class="cls-1" d="M469.37,129.49c.78-.15,1.18-4.07-.65-5.01-1.18-.61-36.37,1.66-39.01,3.18-1.91,1.1-1.54,4.96,0,5,1.54,.04,35.38-2.34,39.66-3.17Z"/></clipPath><clipPath id="clippath-95"><path class="cls-1" d="M469.37,129.49c.78-.15,1.18-4.07-.65-5.01-1.18-.61-36.37,1.66-39.01,3.18-1.91,1.1-1.54,4.96,0,5,1.54,.04,35.38-2.34,39.66-3.17Z"/></clipPath><clipPath id="clippath-96"><polygon class="cls-1" points="659.34 347.66 661.13 341.01 647.4 315.6 641.52 311.67 620.41 272.61 621.22 272.17 621.34 269.65 619.07 265.47 616.9 264.18 612.17 255.42 608.58 246.05 608.7 243.53 607.05 240.49 600.75 237.01 599.8 237.53 573.13 188.17 561.58 194.41 588.25 243.77 587.3 244.28 586.75 251.46 588.39 254.5 590.56 255.79 596.44 263.93 601.17 272.69 601.05 275.2 603.31 279.39 605.48 280.67 606.3 280.23 627.4 319.3 627.47 326.37 641.2 351.78 646.14 355.12 651.88 364.78 654.7 366.25 664.6 360.63 664.6 357.32 659.34 347.66"/></clipPath><clipPath id="clippath-97"><polygon class="cls-1" points="659.34 347.66 661.13 341.01 647.4 315.6 641.52 311.67 620.41 272.61 621.22 272.17 621.34 269.65 619.07 265.47 616.9 264.18 612.17 255.42 608.58 246.05 608.7 243.53 607.05 240.49 600.75 237.01 599.8 237.53 573.13 188.17 561.58 194.41 588.25 243.77 587.3 244.28 586.75 251.46 588.39 254.5 590.56 255.79 596.44 263.93 601.17 272.69 601.05 275.2 603.31 279.39 605.48 280.67 606.3 280.23 627.4 319.3 627.47 326.37 641.2 351.78 646.14 355.12 651.88 364.78 654.7 366.25 664.6 360.63 664.6 357.32 659.34 347.66"/></clipPath><clipPath id="clippath-98"><polygon class="cls-1" points="659.34 347.66 661.13 341.01 647.4 315.6 641.52 311.67 620.41 272.61 621.22 272.17 621.34 269.65 619.07 265.47 616.9 264.18 612.17 255.42 608.58 246.05 608.7 243.53 607.05 240.49 600.75 237.01 599.8 237.53 573.13 188.17 561.58 194.41 588.25 243.77 587.3 244.28 586.75 251.46 588.39 254.5 590.56 255.79 596.44 263.93 601.17 272.69 601.05 275.2 603.31 279.39 605.48 280.67 606.3 280.23 627.4 319.3 627.47 326.37 641.2 351.78 646.14 355.12 651.88 364.78 654.7 366.25 664.6 360.63 664.6 357.32 659.34 347.66"/></clipPath><clipPath id="clippath-99"><polygon class="cls-1" points="659.34 347.66 661.13 341.01 647.4 315.6 641.52 311.67 620.41 272.61 621.22 272.17 621.34 269.65 619.07 265.47 616.9 264.18 612.17 255.42 608.58 246.05 608.7 243.53 607.05 240.49 600.75 237.01 599.8 237.53 573.13 188.17 561.58 194.41 588.25 243.77 587.3 244.28 586.75 251.46 588.39 254.5 590.56 255.79 596.44 263.93 601.17 272.69 601.05 275.2 603.31 279.39 605.48 280.67 606.3 280.23 627.4 319.3 627.47 326.37 641.2 351.78 646.14 355.12 651.88 364.78 654.7 366.25 664.6 360.63 664.6 357.32 659.34 347.66"/></clipPath><clipPath id="clippath-100"><polygon class="cls-1" points="659.34 347.66 661.13 341.01 647.4 315.6 641.52 311.67 620.41 272.61 621.22 272.17 621.34 269.65 619.07 265.47 616.9 264.18 612.17 255.42 608.58 246.05 608.7 243.53 607.05 240.49 600.75 237.01 599.8 237.53 573.13 188.17 561.58 194.41 588.25 243.77 587.3 244.28 586.75 251.46 588.39 254.5 590.56 255.79 596.44 263.93 601.17 272.69 601.05 275.2 603.31 279.39 605.48 280.67 606.3 280.23 627.4 319.3 627.47 326.37 641.2 351.78 646.14 355.12 651.88 364.78 654.7 366.25 664.6 360.63 664.6 357.32 659.34 347.66"/></clipPath><clipPath id="clippath-101"><polygon class="cls-1" points="659.34 347.66 661.13 341.01 647.4 315.6 641.52 311.67 620.41 272.61 621.22 272.17 621.34 269.65 619.07 265.47 616.9 264.18 612.17 255.42 608.58 246.05 608.7 243.53 607.05 240.49 600.75 237.01 599.8 237.53 573.13 188.17 561.58 194.41 588.25 243.77 587.3 244.28 586.75 251.46 588.39 254.5 590.56 255.79 596.44 263.93 601.17 272.69 601.05 275.2 603.31 279.39 605.48 280.67 606.3 280.23 627.4 319.3 627.47 326.37 641.2 351.78 646.14 355.12 651.88 364.78 654.7 366.25 664.6 360.63 664.6 357.32 659.34 347.66"/></clipPath><clipPath id="clippath-102"><polygon class="cls-1" points="659.34 347.66 661.13 341.01 647.4 315.6 641.52 311.67 620.41 272.61 621.22 272.17 621.34 269.65 619.07 265.47 616.9 264.18 612.17 255.42 608.58 246.05 608.7 243.53 607.05 240.49 600.75 237.01 599.8 237.53 573.13 188.17 561.58 194.41 588.25 243.77 587.3 244.28 586.75 251.46 588.39 254.5 590.56 255.79 596.44 263.93 601.17 272.69 601.05 275.2 603.31 279.39 605.48 280.67 606.3 280.23 627.4 319.3 627.47 326.37 641.2 351.78 646.14 355.12 651.88 364.78 654.7 366.25 664.6 360.63 664.6 357.32 659.34 347.66"/></clipPath><clipPath id="clippath-103"><polygon class="cls-1" points="659.34 347.66 661.13 341.01 647.4 315.6 641.52 311.67 620.41 272.61 621.22 272.17 621.34 269.65 619.07 265.47 616.9 264.18 612.17 255.42 608.58 246.05 608.7 243.53 607.05 240.49 600.75 237.01 599.8 237.53 573.13 188.17 561.58 194.41 588.25 243.77 587.3 244.28 586.75 251.46 588.39 254.5 590.56 255.79 596.44 263.93 601.17 272.69 601.05 275.2 603.31 279.39 605.48 280.67 606.3 280.23 627.4 319.3 627.47 326.37 641.2 351.78 646.14 355.12 651.88 364.78 654.7 366.25 664.6 360.63 664.6 357.32 659.34 347.66"/></clipPath><clipPath id="clippath-104"><polygon class="cls-1" points="659.34 347.66 661.13 341.01 647.4 315.6 641.52 311.67 620.41 272.61 621.22 272.17 621.34 269.65 619.07 265.47 616.9 264.18 612.17 255.42 608.58 246.05 608.7 243.53 607.05 240.49 600.75 237.01 599.8 237.53 573.13 188.17 561.58 194.41 588.25 243.77 587.3 244.28 586.75 251.46 588.39 254.5 590.56 255.79 596.44 263.93 601.17 272.69 601.05 275.2 603.31 279.39 605.48 280.67 606.3 280.23 627.4 319.3 627.47 326.37 641.2 351.78 646.14 355.12 651.88 364.78 654.7 366.25 664.6 360.63 664.6 357.32 659.34 347.66"/></clipPath></defs><g id="Layer_1-2"><g><circle class="cls-6" cx="654.59" cy="353.24" r="20"/><g><g class="cls-2"><rect class="cls-4" x="479.16" y="-10.16" width="54.92" height="104.81"/></g><path class="cls-6" d="M486.98,5.19c-.95,3.12-1.69,6.87-1.98,13.66-.04,.93,.55,.84,.99,0,.63-1.21,1.84-12.37,2.13-13.66,.22-1-.99-.47-1.13,0Z"/><path class="cls-6" d="M488.69,5.74c.53-.93,7.77,12.46,8.14,13.47,.37,1.01-1.4,2.67,0,7.06,.3,.94-9.96,7.98-10.26,6.97-.29-1.01-.11-17.93,.42-21.69,.53-3.76,1.17-4.89,1.7-5.81Z"/><path class="cls-6" d="M487.79,45.76c-.31,.38-1.05-4.31-.5-5.21,.86-1.42,8.85-10.01,9.12-10.19s-7.96,14.6-8.62,15.4Z"/><path class="cls-6" d="M496.14,22.7c-.03-.52,.85-2.09,1.02-2.27s1.8,.62,1.98,.82c.18,.2-.6,1.3,.03,3.48,.12,.42-1.65,1.25-2.03,.63-.25-.41-.91-1.08-1-2.66Z"/><path class="cls-6" d="M498.81,23.02c-.02-.34,.56-1.38,.68-1.5,.12-.12,1.19,.41,1.31,.54,.12,.13-.4,.51,.01,1.95,.08,.27-1.15,.88-1.4,.47-.17-.27-.54-.42-.6-1.47Z"/><path class="cls-6" d="M501.41,22.45h17.27c1.19,0,5.62,.71,5.62,5.01,0,.4-2.45,30.58-2.54,31.13-.09,.55-.43,5.38-.46,5.78-.03,.4,1.89,22.11,1.9,22.62s-1.65,1.62-1.77-.18c-.12-1.8-1.41-20.82-1.35-22.16,.06-1.35,3.27-35.84,3.33-36.9,.12-2.23-1.97-4.62-4.95-4.47-2.08,.1-16.51-.08-16.91-.08s-.58-.73-.15-.73Z"/><path class="cls-7" d="M487.75,9.41c.26-1.5,8.62,9.53,8.57,10.86-.05,1.33-.49,2.12-.4,3.33,.05,.62-8.3,5.01-8.69,3.48-.39-1.53-.14-13.82,.52-17.68Z"/><path class="cls-7" d="M486.83,6.28c.09-.26,.86-.18,.83,0-.03,.18-1.22,9.84-1.38,10.18-.15,.34-1.04,.46-.95,0,.09-.46,.58-7.46,1.5-10.18Z"/><path class="cls-7" d="M496.83,21.35c-.11,.27-.6,.88-.22,2.13,.26,.86,2,.28,2-.12s-.02-1.16,.09-1.44c.11-.28-1.69-1.01-1.87-.57Z"/><path class="cls-7" d="M499.3,22.1c-.24,.64-.29,1.24-.12,1.3,.24,.08,1.2,.12,1.17-.14s-.03-.57,.06-.81c.09-.24-1-.67-1.12-.35Z"/><path class="cls-7" d="M487.35,42.06c.35-.47,6.74-8.66,6.9-8.72,.16-.06-6.43,10.88-6.59,11.07-.16,.19-.31-2.35-.31-2.35Z"/><path class="cls-3" d="M486.76,35.53c1.89-1.79,9.72-6.83,10.12-6.89,.41-.07-9.31,9.95-9.79,10.25-.48,.3-.33-3.35-.33-3.35Z"/><path class="cls-3" d="M487.98,.53c-.3,.56-.51,1.49-.61,1.93-.1,.44,1.17,.54,1.53,.26,.56-.43,.73-1.64,.82-2,.08-.36-1.6-.44-1.74-.19Z"/><path class="cls-3" d="M490.65,1.33c.05,.08,5.35,13.39,5.49,14.15,.14,.76-6-12.31-6.04-12.79-.04-.49,.18-1.89,.54-1.36Z"/><path class="cls-3" d="M485.94,30.62c.08,.78,.31,5.03,.29,5.44-.02,.41-1.45,.65-1.5,.27s-.27-4.78-.24-5.24,1.42-.77,1.45-.46Z"/><path class="cls-3" d="M501.51,24.62c.08,.53,.11,.37,.23,.49,.11,.11,15.63,.11,16.46,0s3.13,.72,3.31,1.73-.53,10.85-.64,11.79c-.11,.94-1.05,9.64-1.05,10.32s-1.24,14.13-1.24,14.92-1.17,22.6-1.13,23.09,.68,.3,.9,.41c.23,.11,.87-22.75,.94-23.43s1.21-14.09,1.28-14.88c.08-.79,1.09-10.02,1.13-11,.04-.98,.68-10.47,.68-10.96,0-1.24-2.03-2.9-4.14-2.83-2.11,.08-16.72,.34-16.72,.34Z"/></g><g><path class="cls-4" d="M511.94,91.71v-11.13s-3.45-16.45-4.55-21.22-3.55-4.28-7.09-4.28c-2.38,0-11.17-.37-11.17-.37l-4.39-1.61s-4.29-11.73-5.19-13.9c-1.48-3.55-4.05-4.36-5.67-.63-.97,2.23-2.89,6.59-3.68,19.71-.41,6.84-.52,19.78,3.08,19.78,2.97,0,3.34-1.69,5.55-5.3,1.54-2.52,6.43-12.43,6.43-12.43l4.16-.98h10.76c2.93,0,3.67,.61,4.16,3.18,.49,2.57,2.93,18.1,2.93,18.1l.24,10.15,4.43,.93Z"/><path class="cls-6" d="M478.39,45.12c.31,2.29,.04,8.24,.1,10.87,.02,.66,1.31,.68,1.36,0s.29-6.57-.29-10.57c-.11-.78-1.29-1.14-1.18-.3Z"/><path class="cls-6" d="M480.31,46.92c.73,1.04,3.12,6.51,3.55,6.76,.43,.24,2.08,.61,2.63,.92,.55,.31,1.96,.79,2.26,.91,.31,.13,.49,1.78,0,1.84-.26,.03-.97-.14-2.01-.18-.2,0-.27-1.23-.45-1.23-.12,0-.33,1.17-.43,1.17-.49,0-1.31,.16-1.39,.24-.24,.24-4.1,2.41-4.04,1.25,.06-1.16-.12-11.68-.12-11.68Z"/><path class="cls-6" d="M471.61,59.62c-.6,.23-1.38,.32-1.38,.87s-.05,8.76,.46,12.01c.14,.87,1.51-.18,1.51-.18l-.6-12.7Z"/><path class="cls-7" d="M471.5,60.4c-.43,.21-.99,.29-.99,.79s-.04,7.94,.33,10.89c.1,.79,1.09-.17,1.09-.17l-.43-11.52Z"/><ellipse class="cls-3" cx="474.67" cy="57.34" rx="19.62" ry="3.05" transform="translate(383.18 526.63) rotate(-85.86)"/><path class="cls-6" d="M477.54,37.68c.3,.67,.48,2.17,.55,2.65,.05,.36,.94,.59,.92,.34-.09-1.39-.42-2.2-.51-2.52-.09-.32-1.1-.77-.96-.46Z"/><path class="cls-6" d="M477.7,62.42c-.04,.24-1.21,7.72-1.28,8.04-.07,.33,.78,.7,1,.26,.22-.44,1.56-8.49,1.56-8.76s-1.22,.12-1.28,.45Z"/><path class="cls-6" d="M489.46,55.5c1.13,.16,10.96,.25,12.4,.3,1.44,.05,3.56,.25,3.92,1.54s5.05,21.14,5.19,22.22c.14,1.08,.2,11.98,.25,12s-1.28-.27-1.28-.27c0,0,.04-10.2-.05-11.55s-4.96-21.19-4.96-21.69-1.62-1.22-2.93-1.22-11.77-.05-12.18-.23c-.41-.18-.36-1.11-.36-1.11Z"/><path class="cls-3" d="M470.56,58.29c0-.69,.85-12.06,2.07-15.31,.19-.51,1.12,.21,.97,.74-1.45,5.32-2.3,9.63-2.54,11.96-.16,1.57-.5,3.3-.5,2.61Z"/><path class="cls-3" d="M478.27,41.24c.13,.6,.03,1.62,.16,1.79,.12,.17,.95,.54,.95,.17s-.09-1.39-.16-1.65c-.07-.26-.94-.31-.94-.31Z"/><path class="cls-7" d="M478.71,46.11c0,.17,.07,6.83,.12,7.07s.82,.5,.85,.22c.03-.28,0-5.37-.3-7.07-.04-.24-.67-.58-.67-.22Z"/><path class="cls-7" d="M480.96,50.45c.39-.02,1.9,3.13,2.17,3.35,.28,.22,2.26,.85,2.39,.88s2.97,.88,3.03,1.07c.06,.19,.28,1.1,0,1.07s-1.35-.05-1.46-.33-.63-1.32-.99-1.41c-.36-.08-.41,1.41-.66,1.41-.25,0-.88-.05-.99,0s-3.39-.75-3.47-.86-.52-5.17-.03-5.19Z"/><path class="cls-3" d="M479.95,63.21c-.33,.3-.76,3.05-.27,2.7,.49-.35,4.68-5.33,4.81-5.68,.14-.35-3.89,2.39-4.54,2.97Z"/><path class="cls-3" d="M478.25,58.54c.06-.27,1.25-.4,1.21,0-.04,.4-.27,1.44-.29,1.57s-1.08,.47-1.08,.16,.16-1.73,.16-1.73Z"/></g><g><path class="cls-4" d="M515.29,136.69c-.58,.15-8.25-5.98-5.91-9.14,2.33-3.16,8.22-4.94,8-6.05-.22-1.11-5.8,1.78-8.03-1.11-2.22-2.89-4.7-8.52-4.48-9.74,.22-1.22,22.84-13.38,24.17-12.49,1.33,.89,5.33,8.33,5.44,9.33s.45,4.5,.45,4.5l.71,17.62-20.36,7.07Z"/><g><g><g class="cls-8"><rect class="cls-6" x="520.2" y="76.62" width="22.94" height="23.84"/></g><g class="cls-11"><path class="cls-7" d="M522.55,81.93c.73-1.19,9.35-.63,9.85,0,.5,.63-.07,13.02-.32,13.59-.25,.57-8.81-.91-9.31-.84-.5,.07-.22-12.74-.22-12.74Z"/></g></g><path class="cls-4" d="M533.48,81.65c2.71,0,5.28,1.47,5.39,1.83s-.17,11.65-.54,11.83c-.37,.18-1.65-1.29-2.2-2.57s-2.74-1.55-2.65-3.57c.09-2.02,0-7.52,0-7.52Z"/></g><g><path class="cls-7" d="M485.24,100.46s-12.45,3.72-14.81,4.53c-2.36,.81-2.36,4.43-1.47,7,.88,2.58,2.36,4.57,4.27,4.12s15.14-3.47,15.14-3.47l-3.13-12.2Z"/><ellipse class="cls-7" cx="471.67" cy="110.65" rx="3.67" ry="6.09" transform="translate(-12.57 125.72) rotate(-14.99)"/><path class="cls-6" d="M484.18,101.69c-.6,.34-12.56,3.39-13.21,4.04-.64,.64-1.33,3.21-.69,4.36,.64,1.15,13.8-3.58,14.86-3.76s-.96-4.63-.96-4.63Z"/></g><path class="cls-7" d="M486.57,96.23c-2.14,1.47-3.76,5.23-2.8,10.02,.96,4.79,3.56,9.2,7.61,9.49,4.05,.29,8.88-.22,10.93-.52,3.27-.47,10.46-4.92,10.46-4.92l-9.11-14.97-17.1,.9Z"/><path class="cls-4" d="M507.81,113.93c-1.96-3.9-6.95-3.61-8.79-4.2-1.84-.59-3.99-2.57-4.35-5.73-.36-3.18,1.06-6.41,4.42-6.86,3.36-.45,14.88-1.42,20.34,3.6s2.79,7.3,2.79,7.3l-14.41,5.9Z"/><path class="cls-4" d="M509.31,100.93c2.8,.73,6.26,4.2,6.53,5.39,.27,1.2,14.06,.2,14.89,0,.83-.2,4.52-.3,7.22-1.68s1.44-5.21-.13-6.11-.5-1.81-3.8-3.2c-3.29-1.4-6.75-1.53-10.1-2.06-3.35-.53-4.15,.6-4.15,.6l-10.46,7.06Z"/><g><g><g class="cls-10"><rect class="cls-6" x="498.24" y="77.92" width="25.31" height="28"/></g><g class="cls-9"><path class="cls-4" d="M508.63,81.31c1.54,.28,5.69,.97,8.32,4.07,1.4,1.65,4.45,.42,5.27,.4,.83-.02-5.06-4.07-5.95-4.16-.89-.09-7.64-.3-7.64-.3Z"/></g><g class="cls-15"><path class="cls-7" d="M498.39,92.72c.28-2.4,.18-10.12,4.59-10.79,4.4-.67,15.28-.58,15.28,9.67,0,11.07-7.56,12.33-8.3,12.33s-7.53,.31-8.51-.64-3.8-4.25-3.06-10.58Z"/></g></g><g><path class="cls-6" d="M514.2,92.74c0,3.8-2.81,6.98-6.39,7.09-3.69,.12-6.78-3.05-6.78-7.09s3.09-7.21,6.78-7.09c3.57,.11,6.39,3.29,6.39,7.09Z"/><polygon class="cls-6" points="507.81 85.65 488.37 85.03 488.37 100.46 507.81 99.83 507.81 85.65"/><path class="cls-6" d="M495.92,92.74c0,4.13-3.32,7.58-7.54,7.71-4.38,.14-8.05-3.31-8.05-7.71s3.67-7.86,8.05-7.71c4.22,.14,7.54,3.59,7.54,7.71Z"/><path class="cls-7" d="M494.86,92.74c0,3.57-2.87,6.55-6.52,6.67-3.79,.12-6.96-2.86-6.96-6.67s3.17-6.79,6.96-6.67c3.65,.12,6.52,3.1,6.52,6.67Z"/></g><path class="cls-4" d="M508.36,86.36c1.97,.09,4.59,2.45,4.4,3.18-.18,.73-14,.37-15.74,.08-.94-.15-1.05-1.23-1.86-1.96-.85-.77-1.62-1.09-1.72-1.44-.18-.67,12.84,.04,14.92,.13Z"/></g></g><path d="M471.4,217.26c3.92-1.51,26.29-13.56,31.37-13.56,7.19,0,.98,15.27,.98,15.27l-32.35-1.71Z"/><g><path class="cls-6" d="M138.25,244.8c-60,0-108.64,48.64-108.64,108.64s48.64,108.64,108.64,108.64,108.64-48.64,108.64-108.64-48.64-108.64-108.64-108.64Zm0,187c-43.28,0-78.36-35.08-78.36-78.36s35.08-78.36,78.36-78.36,78.36,35.08,78.36,78.36-35.08,78.36-78.36,78.36Z"/><path d="M138.25,238.45c-63.5,0-114.98,51.48-114.98,114.98s51.48,114.98,114.98,114.98,114.98-51.48,114.98-114.98-51.48-114.98-114.98-114.98Zm0,197.92c-45.8,0-82.94-37.13-82.94-82.94s37.13-82.94,82.94-82.94,82.94,37.13,82.94,82.94-37.13,82.94-82.94,82.94Z"/></g><g><path class="cls-6" d="M655.19,244.8c-60,0-108.64,48.64-108.64,108.64s48.64,108.64,108.64,108.64,108.64-48.64,108.64-108.64-48.64-108.64-108.64-108.64Zm0,187c-43.28,0-78.36-35.08-78.36-78.36s35.08-78.36,78.36-78.36,78.36,35.08,78.36,78.36-35.08,78.36-78.36,78.36Z"/><path d="M655.19,238.45c-63.5,0-114.98,51.48-114.98,114.98s51.48,114.98,114.98,114.98,114.98-51.48,114.98-114.98-51.48-114.98-114.98-114.98Zm0,197.92c-45.8,0-82.94-37.13-82.94-82.94s37.13-82.94,82.94-82.94,82.94,37.13,82.94,82.94-37.13,82.94-82.94,82.94Z"/></g><g><path d="M444.44,385.3h-103.57c-16.61,0-37.89-3.94-55.23-34.63-1.93-3.41-4.26-7.55-6.91-12.26-.69-.75-1.19-1.64-1.47-2.62-25.67-45.68-76.98-137.61-77.56-138.65-1.14-2.04-1.09-4.53,.11-6.53,1.21-2,3.44-3.18,5.73-3.13l117.25,3.13c2.01,.05,3.88,1.03,5.07,2.65,1.19,1.62,1.56,3.7,1.01,5.63l-38.3,134.06c2.43,4.33,4.59,8.15,6.38,11.33,15.83,28.03,34.1,28.03,43.92,28.03h103.57c23.09,0,31.22-10.46,36.84-27.33,5.67-17.02,48.39-187.19,48.82-188.9,.87-3.48,4.4-5.59,7.88-4.72,3.48,.87,5.59,4.4,4.72,7.88-1.76,7.03-43.27,172.37-49.1,189.85-5.97,17.91-16.48,36.22-49.17,36.22ZM216.61,200.77c12.59,22.54,43.79,78.41,65,116.23l32.46-113.62-97.47-2.6Z"/><path class="cls-7" d="M536.4,176.66c-.78,3.3-43.43,167.97-43.95,171.32-.53,3.34-9.16,22.28-21.81,28.09s1.56-1.67,4.12-4.18c2.56-2.51,9.74-9.34,14.17-21.99,6.15-17.54,46.25-178.33,46.25-178.33l1.22,5.09Z"/><path class="cls-7" d="M220.02,212.24c1.28,2.11,57.42,98.85,58.58,103.51,1.16,4.65-29.36-47.14-34.16-56.06-4.8-8.92-30.7-57.8-24.42-47.45Z"/><path class="cls-7" d="M322.96,208.68c-.86,5.54-28.71,113.48-30.79,118.37-2.08,4.9,7.28-38.18,13.07-61.85,5.79-23.67,18.76-63.21,17.72-56.52Z"/></g><g><g class="cls-14"><circle cx="138.25" cy="353.44" r="65.32"/></g><g class="cls-12"><path class="cls-7" d="M115.33,295.21c12.36-3.88,14.59,10.79,10.59,14.84-7.1,7.2-22.06,22.04-24.05,26.2-1.99,4.16-24.86,3.82-20.01-7.55,3.18-7.47,33.47-33.48,33.47-33.48Z"/></g><g class="cls-13"><path class="cls-6" d="M104.03,300.69c10.11-3.53,18.44,4.59,13.42,11.48-2.11,2.89-12.18,15.54-16.6,17.48s-16.36-2.35-14.63-7.27c1.74-4.92,17.8-21.69,17.8-21.69Z"/></g><g class="cls-16"><path class="cls-6" d="M79.13,373.08c.18-8.1,11.3-16.95,16.42-11.3,5.12,5.65,16.95,31.61,39.38,34.08,22.42,2.47,37.79-17.13,43.44-24.37,5.65-7.24,22.33-1.37,18.11,5.47-4.22,6.85-31.99,43.81-60.48,40.26-51.03-6.36-56.86-44.14-56.86-44.14Z"/></g><g class="cls-100"><path class="cls-7" d="M79.32,365.11c-.88-7.61,13.05-13.94,18.85-5.97,5.8,7.98,25.94,34.81,40.07,33.54,14.13-1.27,31.9-15.23,36.79-25.38,4.89-10.15,29.91-9.61,22.48,5.8-7.43,15.41-23.57,52.03-56.56,46.95-32.99-5.08-57.29-17.26-61.64-54.95Z"/></g><g class="cls-105"><path class="cls-6" d="M80.99,373.18c-.82-5.5,12.32-12.02,15.35-8.45,3.02,3.57,17.49,32.08,37.68,32.49s39.06-19.51,42.77-24.87,17.71-4.35,16.3,2.61c-1.41,6.96-12.96,42.9-54.84,41.63-54.1-1.65-57.26-43.41-57.26-43.41Z"/></g><g class="cls-99"><path class="cls-4" d="M101.5,303.88c3.67-.66,10.27,9.74,9.21,11.68-1.06,1.94-4.77,7.06-7.59,7.42s-11.59-3.3-10.95-6.36,9.33-12.74,9.33-12.74Z"/></g><g class="cls-98"><path class="cls-4" d="M99.08,372.82c-2.34-3.16-16.45-1.04-14.7,6.18,1.75,7.22,15.11,40.66,46.43,40.66s55.65-26.29,60.32-32.62c4.67-6.33-6.33-14.23-11.83-8.46-5.5,5.77-18.96,21.43-41.06,22.12-29.04,.9-39.17-27.89-39.17-27.89Z"/></g><g class="cls-97"><circle class="cls-6" cx="138.25" cy="353.44" r="49.72"/></g><g class="cls-101"><ellipse class="cls-4" cx="138.25" cy="355.44" rx="49.72" ry="47.71"/></g><g class="cls-103"><circle class="cls-6" cx="138.25" cy="353.44" r="16.45"/></g></g><path d="M529.72,124.83l-22.86,12.56,.97,2.27h2.11v1.46l-10.54,8.11-17.35,51.39,49.73-.44s3.86-21.1,23.42-29.51l-25.49-45.83Z"/><g><g class="cls-102"><rect x="220.96" y="200.26" width="102.58" height="95.91"/></g><g class="cls-106"><path class="cls-7" d="M305.48,219.81c-3.35,7.84-14.53,13.47-24.77,9.65-17.1-6.38-19.1-10.66-34.29-10.52-4.28,.04-9.19,2-7.85,8.33,2.24,10.65,16.33,37.58,18.57,41.6,4.13,7.4,9.64,12,18.42,11.82,8.77-.17,13.28-2.52,15.61-9.49s14.33-51.39,14.33-51.39Z"/></g><g class="cls-104"><path class="cls-6" d="M242.35,232.3c1.97,7.23,15.85,37.63,21.22,43.05s19.07,4.5,22.69,1.14c3.61-3.35,4.95-13.5,5.21-15.68,.26-2.17-1.38,2.12-9.08,3.46-1.75,.3-9.23,.76-15.56-1.82-10.86-4.43-24.48-30.15-24.48-30.15Z"/></g><g class="cls-19"><path class="cls-6" d="M303.97,213.79c-3.23-1.21-48.38-1.86-59.3-1.15s1.41,.67,4.61,.82c3.96,.19,21.7,.76,37.08,2.16,23.11,2.1,22.08-.16,17.61-1.83Z"/></g><g class="cls-20"><path class="cls-4" d="M303.35,213.89c-2.13-.71-32.73-1.18-32.73-1.18,0,0,29.92,2.08,31.52,2.25,3.11,.34,3.88-.18,1.21-1.07Z"/></g><g class="cls-23"><path class="cls-4" d="M286.56,274.95c-3.24,3.49-13.19,5.91-21,1.09-4.22-2.61-.63-1.15,1.69-.45,8.38,2.54,13.48,1.35,17.26-.14,2.26-.9,3.76-2.34,2.05-.5Z"/></g><g class="cls-22"><path class="cls-6" d="M231.72,213.17c-1.7,.68-3.21,2.85-2.13,5.38,.64,1.5,3.1,2.02,2.77,0-.48-2.93,1.57-6.27-.64-5.38Z"/></g><g class="cls-21"><path d="M287.92,261.14c-3.41,1.38-13.86,3.61-23.41-1.94-4.62-2.68-10.64-10.02-5.54-5.5s13.69,9.19,24.81,6.04c5.7-1.61,7.82-.08,4.14,1.41Z"/></g></g><g><path d="M259.43,331.83l-78.02,10.52s-16.96,1.56-20.39-3.84c-1.71-2.69,.72-7.52,.72-7.52l-13.83-6.01-7.78,15.65s-15.09,1.8-12.42,15.25c2.26,11.37,11.88,9.15,16.67,8.47,19.38-2.75,25.54-8.56,39.97-10.76,14.43-2.2,68.23-8.66,68.23-8.66l6.85-13.1Z"/><path class="cls-6" d="M158.26,344.98s9.56-.65,18.02,.53c0,0-11.54-3.85-18.02-.53Z"/><circle class="cls-6" cx="150.82" cy="336.25" r="4.84"/><circle class="cls-6" cx="136.48" cy="354.33" r="5.66"/><circle class="cls-6" cx="149.71" cy="352.81" r="3.11"/><path class="cls-7" d="M251.17,343.2l-70.46,8.99s-14.66,5.54-20.2,6.28c0,0,18.09-8.55,18.21-11.6l76.08-9.89-3.63,6.21Z"/><path class="cls-6" d="M252.66,339.58l-73.55,9.5s-6.63,5.5-11.76,7.15c0,0,7.67-1.91,12.08-4.19l71.21-9.15,2.03-3.32Z"/></g><g><g class="cls-24"><rect x="-5.63" y="190.31" width="312.34" height="204.44"/></g><g class="cls-48"><path class="cls-7" d="M263.16,328.54c-6.64,4.99-18.9,14.58-20.31,15.93-1.42,1.34-3.11,4.81-2.83,7.72,.28,2.9,1.27,1.69,1.34-.5,.07-2.19,1.7-4.8,3.75-6.58,9.41-8.21,31.6-22.62,34.9-26.42,2.42-2.79-4.76,.76-16.85,9.85Z"/></g><g class="cls-46"><path class="cls-7" d="M289.07,341.43c-3.33,1.06-29.45,10.9-35.39,13.02-5.95,2.12-7.36,3.82,0,1.7,7.36-2.12,37.51-12.95,37.51-12.95l-2.12-1.77Z"/></g><g class="cls-47"><path class="cls-7" d="M144.72,201.77c-12.31,.29-15.83,6.37-27.04,12.53-16.11,8.85-35.56,4.74-68.49,29.96-11.63,8.91-21.4,11.22-28.34,14.92s28.38-39.79,51.25-48.36c48.47-18.16,72.62-9.06,72.62-9.06Z"/></g><g class="cls-49"><path class="cls-6" d="M-1.37,304.88c1.09-.24,2.27-.26,3.21-.83,10.47-6.39,12.07-3.7,18.35-8.36,3.11-2.3,25.12-46.67,74.06-68.07,3.76-1.64-.5-.09-4.17,1.13-3.67,1.22-40.74,15.09-70,64.91-2.16,3.68-7.17,1.92-18.77,8.34C-.36,302.93,0,301.48,0,301.48l-1.37,3.4Z"/></g><g class="cls-57"><path class="cls-3" d="M61.78,244.62c-5.46,2.65-8.09,.95-9.94,2.64-3,2.74-21.4,19.08-23.97,24.95s-.61,4.89-2.32,9.17c12.1-15.33,25.72-30.64,36.23-36.76Z"/></g><g class="cls-59"><path class="cls-6" d="M116.31,203.92c-7.4,2.3-9.18,7.11-14.63,9.7-13.15,6.25-21.21,3.78-45.7,20.55-12.08,8.27-20.71,10.52-25.65,11.51s30.08-27.13,42.74-32.39,43.24-9.37,43.24-9.37Z"/></g><g class="cls-56"><path class="cls-7" d="M264.31,328.52c-.43-3.36-4.92-18.72-7.5-25.1-2.59-6.38,.09-1.04,1.73,1.47s7.85,22.17,7.85,22.17l-2.07,1.47Z"/></g><g class="cls-55"><circle class="cls-6" cx="270.99" cy="337.96" r="6.23"/></g><g class="cls-50"><circle class="cls-6" cx="249.46" cy="349.44" r="3.39"/></g></g><g><polygon points="300.31 377.35 314.81 387.07 393.67 387.07 393.67 395.87 312.8 395.87 300.31 386.61 300.31 377.35"/><circle cx="358" cy="384.57" r="7.8"/><path d="M383.41,381.46c0,4.48-.69,16.88,11.25,16.88s9.9-16.88,9.9-16.88h-21.15Z"/></g><g><g><polygon points="159.29 295.26 157.26 300.04 157.93 303.12 146.73 329.57 158.61 334.6 169.81 308.15 172.48 306.48 174.51 301.7 159.29 295.26"/><g><polygon points="190.42 259.08 178.52 254.1 181.28 247.51 193.09 252.68 190.42 259.08"/><polygon points="172.77 301.29 161 296.01 173.07 267.13 184.97 272.11 172.77 301.29"/><rect class="cls-6" x="174.69" y="260.52" width="14.12" height="5.18" transform="translate(-131.11 329.27) rotate(-67.31)"/><g><path class="cls-5" d="M176.39,288.35c-.77-.32-1.27-1.13-1.17-2,.12-1.06,1.08-1.82,2.14-1.7,.75,.08,1.66,.05,2.18-.06-.29-2-2.29-3.1-5.42-4.61-3.19-1.53-7.16-3.44-7.05-7.86,.03-1.15,.56-2.09,1.45-2.58,2.1-1.15,5.05,.53,10.07,3.6,1.03,.63,2.34,1.43,3.45,2.04-.93-1.17-2.54-2.06-4.7-3.15-3.2-1.62-6.83-3.45-6.94-7.81-.02-.99,.41-1.83,1.2-2.31,1.86-1.14,4.55,.21,9.95,3.13,.99,.54,2.23,1.2,3.34,1.76-.99-.9-2.48-1.64-4.39-2.53-3.2-1.48-7.18-3.33-7.02-7.83,.03-.93,.48-1.72,1.24-2.17,1.79-1.07,4.4,.12,9.25,2.48,1.51,.74,3.76,1.84,5.24,2.36-.72-1.42-2.56-2.29-5.21-3.4-3.3-1.39-7.41-3.11-6.89-7.73,.12-1.06,1.03-2.23,2.09-2.11,1.06,.12,2.29,.79,2.06,1.84-.47,2.11,.68,2.95,4.24,4.44,3.44,1.44,7.72,3.24,7.92,8.13,.04,1.07-.4,1.98-1.21,2.52-1.91,1.25-4.72-.02-9.93-2.57-1.31-.64-3.06-1.49-4.36-2.02,.7,.84,2.08,1.55,4.23,2.55,3.3,1.53,7.4,3.43,7.98,8.12,.13,1.02-.25,1.9-1.02,2.43-1.72,1.18-4.12-.03-9.38-2.86-1.31-.71-3.16-1.7-4.61-2.37,.81,.87,2.19,1.6,3.98,2.51,3.18,1.61,7.15,3.61,7.68,8.3,.19,1.66-.73,2.44-1.14,2.69-1.83,1.17-4.23-.19-9.05-3.14-1.54-.94-3.84-2.34-5.34-3.01,.6,1.05,2.1,1.88,4.56,3.06,3.4,1.63,7.62,3.67,7.65,8.59,0,.89-.36,1.71-1.03,2.3-1.59,1.42-4.61,1.2-5.5,1.1-.19-.02-.36-.07-.53-.14Zm13.15-27.92h.01s-.01,0-.01,0Z"/><path class="cls-5" d="M178.06,293.33c-.72-.3-1.21-1.02-1.19-1.84,.04-1.54-2.87-2.94-5.45-4.17-3.49-1.67-7.44-3.56-7.6-7.34-.08-2.02,.78-2.97,1.52-3.41,1.66-.99,3.59,.07,3.95,.3,.91,.55,1.21,1.74,.66,2.65-.44,.73-1.3,1.07-2.09,.88,.66,1.23,3.07,2.39,5.23,3.42,3.63,1.74,7.75,3.71,7.64,7.76-.03,1.07-.92,1.91-1.99,1.88-.25,0-.48-.06-.69-.15Z"/><path class="cls-5" d="M175.73,298.79c-.58-.24-1.03-.76-1.16-1.43-.32-1.73-3.47-2.98-6.24-4.08-3.6-1.44-7.68-3.06-7.27-6.83,.12-1.06,1.07-1.83,2.13-1.71,1.06,.12,1.83,1.07,1.71,2.13-.09,.85,3,2.08,4.85,2.82,3.7,1.48,7.9,3.14,8.61,6.97,.2,1.05-.5,2.06-1.55,2.26-.39,.07-.76,.02-1.1-.12Z"/><path class="cls-5" d="M174.36,302.18c-.3-.13-.58-.33-.79-.61-.76-.99-4.61-2.45-7.17-3.41-4.64-1.75-7.1-2.74-7.9-4.49-.44-.97-.01-2.12,.96-2.56,.93-.43,2.02-.05,2.5,.84,.64,.65,3.74,1.82,5.8,2.59,4.5,1.69,7.55,2.94,8.88,4.68,.65,.85,.48,2.06-.37,2.71-.57,.43-1.3,.5-1.92,.25Zm-12.34-10.12s0,0,0,0t0,0Z"/></g><path d="M181.78,279.73c-2.87-2.57-11.9-4.98-10.86-7.45,.42-1,1.23-2.94,1.23-2.94l7.16,3.91s2.9,1.35,3.83,3.21c0,0-.74,1.78-1.37,3.27Z"/><polygon class="cls-6" points="186.81 257.72 182.03 255.72 180.41 259.58 185.03 261.97 186.81 257.72"/><polygon class="cls-6" points="181.78 269.73 177.16 267.37 178.77 263.51 183.39 265.89 181.78 269.73"/><path d="M169.02,276.82s1.22,1.18,2.96,2.1l-1.67,3.5s-2.26-1.1-2.68-2.28l1.39-3.32Z"/><path d="M174.28,284.35c2.47,1.28,4.31,3.02,4.31,3.02l1.12-2.68s.49-1.44-3.23-3.52c-.71-.4-2.2,3.18-2.2,3.18Z"/></g><g><rect class="cls-5" x="192.36" y="224.89" width="8.89" height="5.9" transform="translate(-89.73 320.24) rotate(-67.05)"/><path class="cls-5" d="M198.8,237.05l-10-4.23c-.52-.22-.76-.82-.54-1.34l.95-2.24c.22-.52,.82-.76,1.34-.54l10,4.23c.52,.22,.76,.82,.54,1.34l-.95,2.24c-.22,.52-.82,.76-1.34,.54Z"/><circle class="cls-5" cx="200.15" cy="219.93" r="5.22"/><circle class="cls-4" cx="200.15" cy="219.93" r="2.77"/><g><g class="cls-51"><path class="cls-5" d="M183.82,225.14s-12.02,22.42-11.81,22.49c.21,.07,27.23,11.88,27.51,11.32,.28-.56,11.1-22.79,11.1-22.79l-26.81-11.02Z"/></g><g class="cls-52"><path class="cls-4" d="M184.83,226.32c.42,2.39-7,18.89-8.43,19.98-1.42,1.09,14.57,8.28,13.2,7s4.37-16.21,7.58-20.83c3.22-4.62-12.35-6.16-12.35-6.16Z"/></g><g class="cls-53"><path class="cls-4" d="M200.89,233.94c.44,2.39-6.8,19.32-8.3,20.41-1.49,1.09,12.61,7.09,11.17,5.81-1.45-1.28,3.08-17.13,6.45-21.75,3.37-4.62-9.32-4.48-9.32-4.48Z"/></g><g class="cls-58"><path class="cls-6" d="M184.95,228.67c.34,.97-5.07,16.52-7.47,17.87-2.33,1.31,10.35,6.61,9.38,5.33s5.49-17.9,6.8-19.29c1.31-1.38-8.71-3.91-8.71-3.91Z"/></g><g class="cls-54"><path class="cls-7" d="M185.43,229.65c.34,.97-5.06,16.62-7.45,17.97-2.33,1.31,7.92,5.38,6.95,4.09-.97-1.29,4.97-18.08,6.28-19.46,1.31-1.38-5.77-2.6-5.77-2.6Z"/></g><g class="cls-27"><path class="cls-6" d="M197.88,255.54c.46-1.41,.36-2.52-2.18-3.57-2.55-1.05-14.48-6.43-15.62-6.66s-3.01-.3-3.31,.51c-.3,.81,21.11,9.73,21.11,9.73Z"/></g><g class="cls-29"><path class="cls-4" d="M185.98,229.97c.34,.97-4.6,16.05-7,17.39-2.33,1.31,5.75,4.65,4.78,3.37-.97-1.29,5.5-17.97,6.81-19.36,1.31-1.38-4.59-1.4-4.59-1.4Z"/></g><g class="cls-28"><path class="cls-6" d="M202.47,237c.34,.97-5.06,16.62-7.45,17.97-2.33,1.31,7.24,4.91,6.28,3.62-.97-1.29,5.5-17.97,6.81-19.36,1.31-1.38-5.63-2.23-5.63-2.23Z"/></g><g class="cls-31"><path class="cls-3" d="M185.99,228.96c2.42,1.13-4.87,18.71-6.31,18.71-1.44,0,3.41,2.24,2.78,1.54-.63-.71,6.82-17.74,8.02-18.02,1.2-.28-4.48-2.22-4.48-2.22Z"/></g><g class="cls-25"><path class="cls-3" d="M199.49,234.02c-1.97,2.22-5.1,11.04-6.73,16.68l2.94,1.27c2.26-3.53,4.56-9.26,6.84-15.85,.4-1.17-3.05-2.1-3.05-2.1Z"/></g><g class="cls-26"><path class="cls-5" d="M348.12,67.54c3.83,1.6,6.32-4.34,2.49-5.95-3.83-1.6-6.32,4.34-2.49,5.95h0Z"/></g><g class="cls-32"><path class="cls-4" d="M197.69,256.22c.46-1.41,.36-2.52-2.18-3.57-2.55-1.05-15.51-6.79-16.65-7.02-1.14-.23-2.15-.14-2.45,.68-.3,.81,21.28,9.92,21.28,9.92Z"/></g><g class="cls-30"><path class="cls-4" d="M183.56,228.96c-1.09,.84,5.58,3.76,10.6,5.77,5.45,2.19,8.87,3.79,10.23,3.74,1.36-.04,1.37-.73,1.37-.73l-22.2-8.78Z"/></g></g><path class="cls-4" d="M188.58,231.57c.61-1.24,.9-1.78,1.35-2.36,.15-.2-.1-.47,.07-.42,.7,.21,9.86,4.01,10.22,4.29,.1,.08-3.72-1.16-3.75-.8-.08,.92-.62,2.32-.73,2.38-.15,.09-7.16-3.09-7.16-3.09Z"/><path class="cls-6" d="M189.76,231.8c.16-.38,.71-1.5,1.12-2.01,.15-.18-.5-.68-.41-.65,.33,.12,6.7,2.6,6.85,2.94,.04,.1-2.14-.66-2.15-.51-.05,.8-.64,2.2-.64,2.2l-4.76-1.98Z"/><path class="cls-4" d="M199.13,235.88c.47-.96,.99-2.4,.78-2.59-.21-.2-1.78-.85-1.96-1.05-.17-.2,2.27,.7,2.56,.91s.54,.37,.52,.55c-.02,.18-.81,2.61-.81,2.61l-1.09-.43Z"/><path class="cls-4" d="M193.18,229.81c.35-.82,2.91-6.84,2.89-7.11s-.67-1.22-.8-2.11c-.12-.79-.06-.79,.36-.01,.43,.78,1.33,2.68,2.84,3.32,1.01,.43,3.24,.34,3.73,.2,1.64-.46,.16,.35-.27,.47-.43,.12-.89,.17-1.15,.33-.25,.16-2.55,6.96-2.83,6.84-.28-.12-.28-.08-.47-.16-.19-.08,2.95-6.5,2.68-6.54-.27-.04-1.23-.07-1.56-.32-.33-.25-2.6,6.29-2.6,6.29l-2.81-1.19Z"/><path class="cls-6" d="M193.61,230c.23-.47,2.75-6.22,2.77-6.77,.02-.54-.35-1.22-.43-1.56-.09-.42,.6,1.02,1.17,1.57,.58,.55,1.33,.86,1.74,1.01s-.11,0-.54,.15-2.98,6.33-2.98,6.33l-1.74-.73Z"/></g></g><path class="cls-6" d="M178.13,249.5c.42,1.22,.9,2.45,1.77,3.2s3.53,2.07,4.6,2.56c1.07,.5,2.31,1.12,2.75,1.4,.44,.28-.03-.71-.74-1.25-.71-.54-2.79-1.8-3.74-2.3-.95-.5-2.92-1.58-3.2-2.33-.28-.75-1.76-2.23-1.44-1.28Z"/><path class="cls-6" d="M174.41,256.97c.18,.7,1.03,3.09,1.48,3.43,.45,.34,1.49,1.51,2.43,1.95,.95,.45,3.68,1.69,4.68,2.25,1,.56,.28-.32-.54-.72-.82-.4-1.38-.71-2.18-1.39s-3.43-2.04-3.96-3.15c-.53-1.11-2.25-3.71-1.92-2.38Z"/><path class="cls-6" d="M180.42,272.99c-.98-.68-3.3-1.87-4.36-2.51-1.06-.64-3.38-2.06-4.1-3.29-.72-1.24-.86-1.13-.79-2s.47,.05,.69,.82c.22,.77,1,1.26,2.11,2.04,1.1,.78,4.27,2.4,5.47,3.44,1.19,1.04,2.03,2.23,.99,1.5Z"/><path class="cls-6" d="M167.99,272.63c-.16,1.01,.3,2.15,1.18,3.11,.88,.96,2.83,2.09,3.83,2.75,1.01,.66,3.68,1.58,4.85,2.66,1.17,1.08,.79-.13,.01-.74-.78-.61-1.89-1.28-2.81-1.71-.92-.44-3.05-1.47-3.51-1.91-.46-.44-1.62-1.17-2.59-2.66-.97-1.49-.81-2.51-.97-1.49Z"/><path class="cls-6" d="M164.59,280.03c-.03,.84,.38,1.94,1.17,2.72,.79,.78,2.29,2.04,3.14,2.47,.86,.43,3.69,1.57,5.48,3.06,1.79,1.49,.34-.92-.54-1.31-.87-.39-1.84-.92-2.34-1.27s-3.3-1.77-3.95-2.34c-.65-.57-1.53-1.28-1.9-2.52-.37-1.24-1.03-2.02-1.07-.8Z"/><path class="cls-6" d="M162.47,287.68c.02,1.17,.75,2.09,1.81,2.82,1.06,.73,2.16,1.15,3.16,1.53,1,.38,2.61,.85,3.58,1.5s.46-.02,.16-.39c-.3-.37-1.26-.94-1.98-1.28-.72-.34-3.39-1.38-3.98-1.94-.59-.55-1.16-.79-1.61-1.48-.46-.69-1.15-1.55-1.14-.76Z"/><path class="cls-6" d="M159.4,293.17c.11,.52,.77,1.39,2.54,2.33s4.65,1.85,5.63,2.35c.97,.51,.55-.17-.76-.9-.85-.48-1.95-.65-2.8-1.2-.86-.54-2.95-1.68-3.5-2.13-.55-.44-1.31-1.42-1.1-.46Z"/><path class="cls-6" d="M190.02,256.44c1.03,1,2.61,2.6,2.38,3.99s-.86,1.89,.04,.96c1.45-1.5,.38-3.45-.46-4.29-.83-.84-.96-1.14-1.77-1.59-1.91-1.06-1.51-.33-.19,.94Z"/><path class="cls-6" d="M186.09,264.92c.82,.85,1.84,1.96,2.13,2.93,.28,.97,.4,1.94-.06,2.67-.47,.73,.58,.22,.92-.5,.34-.73,.82-1.53,.49-2.39s-1.14-2.02-1.98-2.51c-.84-.48-2.85-1.62-1.49-.2Z"/><path class="cls-6" d="M183.72,272.81c1.5,2.12,1.92,3.4,1.94,3.97,.02,.57-.46,1.78-.74,2.12-.28,.34,.86,.15,1.18-.55,.32-.69,.28-2.29-.16-3.25-.54-1.17-3.06-3.47-2.23-2.3Z"/><path class="cls-6" d="M181.19,281.33c1.37,1.07,1.98,2.72,1.96,3.52s-.29,1.76-.84,2-.98,.45-.64-.24,.8-.9,.74-1.66c-.05-.76-.17-1.33-.65-2.2-.48-.87-1.47-2.12-.57-1.42Z"/><path class="cls-6" d="M178.18,288.34c.41,.37,1.31,1.18,1.42,2.8,.05,.83-.11,1.21-.32,1.42-.21,.21,.5,.29,.92-.48,.28-.52,.32-.83,.22-1.29s-.52-1.35-.98-1.72c-.46-.37-1.79-1.21-1.25-.73Z"/><path class="cls-6" d="M178.02,297.34c.01-.82-.27-1.64-.74-2.26s-1.25-1.34-1.92-1.64c-.66-.3-.18,.11,.39,.61s.96,1.31,1.08,1.61c.18,.44,.44,1.12,.26,1.56-.18,.44,.93,.67,.93,.12Z"/><path class="cls-6" d="M173.12,297.93c.49,.35,2.33,1.95,2.48,2.46s0,.82,.02,1c.02,.18,.73,.38,.86-.35,.14-.73,.1-1-.32-1.47-.42-.47-1.61-1.27-2.07-1.47-.58-.26-1.42-.49-.98-.17Z"/><path class="cls-3" d="M179.04,249.55c-.04,.62,.34,1.83,.77,2.17,.43,.34,1.21,.89,2.28,1.34,.54,.23,2.17,.41,1.42-.27-.75-.68-1.95-1.53-2.62-2.23-.67-.7-1.81-1.64-1.85-1Z"/><path class="cls-3" d="M175.76,257.95c.07,.88,.33,1.38,.75,1.9,.42,.52,1.85,1.57,2.91,1.86s.43-.78-.04-1.34-1.7-1.41-2.22-1.95c-.52-.54-1.46-1.22-1.4-.47Z"/><path class="cls-3" d="M172.42,265.83c-.24,.72,.45,1.7,1.44,2.45s3.43,1.89,3.22,1.16-2-1.87-2.55-2.25c-.55-.38-1.94-1.89-2.11-1.35Z"/><path class="cls-3" d="M169.33,273.71c-.17,.57,.21,1.1,.97,2.06,.76,.96,2.07,1.63,2.87,1.67,.8,.04-.71-1.48-1.4-2.06-.69-.59-2.25-2.3-2.44-1.66Z"/><path class="cls-3" d="M166.29,281.44c-.11,1.13,.46,1.53,1.2,2.11,.83,.66,1.82,.99,2.37,.91,.77-.1-.86-1.1-1.69-1.71-.69-.52-1.8-2.24-1.89-1.31Z"/><path class="cls-3" d="M163.75,288.14c.12,.78,.33,1.29,.89,1.75,.56,.47,2.05,1,2.45,.83s-1.04-1.13-1.43-1.52c-.39-.4-1.97-1.45-1.91-1.06Z"/><path class="cls-3" d="M161.56,293.76c-.09,.6,.42,.96,1.12,1.42,.7,.46,1.44,.81,2.05,.72,.61-.09-.67-1.12-1.19-1.44-.52-.32-1.92-1.09-1.98-.7Z"/><path class="cls-7" d="M170.62,305.24c-2.03-.8-6.03-3.08-9.07-3.95-.5-.14-.49,2.64,.12,2.97,1.38,.76,1.91,.58,2.31,1.01s-9.9,24.55-10.33,25.22c-.43,.67,.98,1.71,1.53,1.28,.55-.43,11.48-25.48,11.89-25.34,.46,.15,1.04,.64,1.65,.86,.62,.21,3.28-1.51,1.9-2.05Z"/></g><g><g><g><g class="cls-33"><rect x="292.08" y="282.77" width="206.17" height="94.3"/></g><g class="cls-34"><path class="cls-6" d="M310,294.91c5.5-.73,11.56-3.12,12.84,0s-12.84,35.77-10.46,50.26c2.25,13.67-7.21,8.07-10.76-6.79-3.55-14.86,8.38-43.47,8.38-43.47Z"/></g><g class="cls-71"><path d="M317.89,296.92c-2.28-1.79-12.47,37.66-11.13,39.68,1.35,2.02,11.98-39.01,11.13-39.68Z"/></g><g class="cls-72"><path class="cls-6" d="M323.58,285.01c.55,3.49,3.49,4.04,5.14,5.14s140.48,1.28,143.99,1.28c6.81,0,13.39-2.38,10.82-6.42-2.57-4.04,7.89,2.82,9.35,6.45,1.47,3.64-13.57,61.78-15.22,66.18-1.65,4.4-13.21,13.57-15.77,14.49s6.97-14.39,1.47-12.92c-5.5,1.47,1.84-4.5,3.67-11.11,1.83-6.6,15.04-48.24,12.29-51.73-2.75-3.49-147.54-2.93-151.14-2.93-10.53,0-13.57-7.1-13.02-8.99s8.44,.55,8.44,.55Z"/></g><g class="cls-73"><g><path class="cls-6" d="M482.72,305.82h-165.21c-1.38,0-2.19-1.12-1.8-2.5l.25-.88c.39-1.38,1.82-2.5,3.21-2.5h165.21c1.38,0,2.19,1.12,1.8,2.5l-.25,.88c-.39,1.38-1.82,2.5-3.21,2.5Z"/><path class="cls-6" d="M479.83,316.09h-165.21c-1.38,0-2.19-1.12-1.8-2.5l.25-.88c.39-1.38,1.82-2.5,3.21-2.5h165.21c1.38,0,2.19,1.12,1.8,2.5l-.25,.88c-.39,1.38-1.82,2.5-3.21,2.5Z"/><path class="cls-6" d="M476.95,326.36h-165.21c-1.38,0-2.19-1.12-1.8-2.5l.25-.88c.39-1.38,1.82-2.5,3.21-2.5h165.21c1.38,0,2.19,1.12,1.8,2.5l-.25,.88c-.39,1.38-1.82,2.5-3.21,2.5Z"/><path class="cls-6" d="M474.06,336.63h-165.21c-1.38,0-2.19-1.12-1.8-2.5l.25-.88c.39-1.38,1.82-2.5,3.21-2.5h165.21c1.38,0,2.19,1.12,1.8,2.5l-.25,.88c-.39,1.38-1.82,2.5-3.21,2.5Z"/><path class="cls-6" d="M471.17,346.9h-165.21c-1.38,0-2.19-1.12-1.8-2.5l.25-.88c.39-1.38,1.82-2.5,3.21-2.5h165.21c1.38,0,2.19,1.12,1.8,2.5l-.25,.88c-.39,1.38-1.82,2.5-3.21,2.5Z"/></g></g><g class="cls-69"><g><path class="cls-7" d="M481.49,308.38h-162.88c-1.36,0-2.16-1.12-1.77-2.5l.24-.88c.38-1.38,1.8-2.5,3.16-2.5h162.88c1.36,0,2.16,1.12,1.77,2.5l-.24,.88c-.38,1.38-1.8,2.5-3.16,2.5Z"/><path class="cls-7" d="M478.64,318.65h-162.88c-1.36,0-2.16-1.12-1.77-2.5l.24-.88c.38-1.38,1.8-2.5,3.16-2.5h162.88c1.36,0,2.16,1.12,1.77,2.5l-.24,.88c-.38,1.38-1.8,2.5-3.16,2.5Z"/><path class="cls-7" d="M475.79,328.93h-162.88c-1.36,0-2.16-1.12-1.77-2.5l.24-.88c.38-1.38,1.8-2.5,3.16-2.5h162.88c1.36,0,2.16,1.12,1.77,2.5l-.24,.88c-.38,1.38-1.8,2.5-3.16,2.5Z"/><path class="cls-7" d="M472.95,339.2h-162.88c-1.36,0-2.16-1.12-1.77-2.5l.24-.88c.38-1.38,1.8-2.5,3.16-2.5h162.88c1.36,0,2.16,1.12,1.77,2.5l-.24,.88c-.38,1.38-1.8,2.5-3.16,2.5Z"/><path class="cls-7" d="M470.1,349.47h-162.88c-1.36,0-2.16-1.12-1.77-2.5l.24-.88c.38-1.38,1.8-2.5,3.16-2.5h162.88c1.36,0,2.16,1.12,1.77,2.5l-.24,.88c-.38,1.38-1.8,2.5-3.16,2.5Z"/></g></g></g><polygon class="cls-6" points="387.86 301.06 380.08 328.35 391.99 328.35 385.74 347.98 408.65 318.11 393.87 318.38 402.43 301.06 387.86 301.06"/><g><g><circle cx="312.29" cy="296.86" r="3.57"/><circle class="cls-6" cx="312.29" cy="296.86" r="2.22"/></g><g><circle cx="302.98" cy="334.72" r="3.57"/><circle class="cls-6" cx="302.98" cy="334.72" r="2.22"/></g><g><circle cx="486.72" cy="309.89" r="3.57"/><circle class="cls-6" cx="486.72" cy="309.89" r="2.22"/></g><g><circle cx="478.33" cy="341.93" r="3.57"/><circle class="cls-6" cx="478.33" cy="341.93" r="2.22"/></g><g><circle cx="448.86" cy="371.89" r="3.57"/><circle class="cls-6" cx="448.86" cy="371.89" r="2.22"/></g><g><circle cx="390.16" cy="371.89" r="3.57"/><circle class="cls-6" cx="390.16" cy="371.89" r="2.22"/></g><g><circle cx="331.46" cy="371.89" r="3.57"/><circle class="cls-6" cx="331.46" cy="371.89" r="2.22"/></g></g></g><path d="M328.03,280.06c-.11,1.59-.26,7.58,0,8.19s151.16,.61,152.38,0,2.53-7.21,2.3-7.7-154.68-.49-154.68-.49Z"/><g><g><g class="cls-70"><rect x="315.11" y="203.08" width="201.22" height="91.53"/></g><g class="cls-74"><path class="cls-7" d="M500,211.33c-.55,0-25.13,.92-25.13,.92-11.22,1.65-10.02,7.79-26.02,8.62-6.72,.35-1.76,1.28,7.01,1.28h38.29c4.4,0,3.29-9.38,6.37-7.11,3.08,2.27,6.46,2.89,6.46,5.64s-7.66,1.93-9.98,3.17c-1.95,1.04-10.37,31.81-13.82,43.67-1.33,4.32-3.16,4.32-15.09,4.32s-123.79,.17-128.3,0c-4.5-.17-6.28,1.85,3.05,2.03,9.33,.18,129.41,2.75,136.13,1.47,6.13-1.17,10.53-5.92,11.79-10.63,1.25-4.72,5.3-5.26,7.9-6.61,2.81-1.47,12.54-43.65,12.54-43.65,0,0-10.64-3.12-11.19-3.12Z"/></g><g class="cls-75"><path class="cls-7" d="M406.82,222.34h-62.46c-3.2,0-5.61-3.85-7.62-2.57-2.01,1.28-2.74,2.55-1.82,2.65s9.16-.39,8.8,2c-.37,2.38-10.83,42.34-12.06,46.25-2.02,6.42-12.21,2.63-11.72-9.15,.35-8.25,10.95-46.33,11.86-47.06,.92-.73,9.51-3.12,9.51-3.12,0,0,10.12-1.28,18.55,0s33.91,7.64,55.09,8.8c12.87,.71,8.58,2.2-8.14,2.2Z"/></g><g class="cls-76"><path class="cls-6" d="M336.74,213.54c.04,1.34,1.78,5.87,6.09,6.42,4.32,.55,38.25,.92,44.85,.92,19.45,0,4.04-1.47-2.58-2.18-6.73-.72-19.31-5.63-24.61-5.89-5.28-.25-23.76,.73-23.76,.73Z"/></g><g class="cls-77"><path class="cls-6" d="M339.97,224.17c2.23,0-10.44,40.54-10.85,42.74-.41,2.2-2.6,4.57-5.71,.73-3.1-3.83,10.62-42.74,12.25-42.74s-10.82,39.25-10,38.89c.82-.37,12.53-39.62,14.32-39.62Z"/></g><g class="cls-85"><path class="cls-6" d="M496.51,215.74c2,.14-.64,4.95-2.29,4.95s-8.35-.09-10.46,0,7.09-1.47,8.47-2.48,1.71-2.65,4.28-2.47Z"/></g><g class="cls-17"><path class="cls-6" d="M496.36,227.64c-.87,2.24-11.47,36.28-11.59,38.72-.12,2.45,1.83-.85,2.57-2.08,3.67-6.11,7.33-7.64,8.8-11.31,2.64-6.56,6.95-24,7.77-26.82,.82-2.81-6.66-.82-7.55,1.48Z"/></g><g class="cls-79"><rect x="492.16" y="231.08" width="14.39" height="1.77"/></g><g class="cls-81"><rect x="488.86" y="237.18" width="14.39" height="1.77"/></g><g class="cls-87"><rect x="488.86" y="243.36" width="14.39" height="1.77"/></g><g class="cls-80"><rect x="486.98" y="249.53" width="14.39" height="1.77"/></g><g class="cls-86"><rect x="484.92" y="255.7" width="14.39" height="1.77"/></g><g class="cls-88"><rect x="482.76" y="261.88" width="14.39" height="1.77"/></g></g><g><g><circle cx="415.45" cy="214.45" r="3.57"/><circle class="cls-6" cx="415.45" cy="214.45" r="2.22"/></g><g><circle cx="477.23" cy="214.45" r="3.57"/><circle class="cls-6" cx="477.23" cy="214.45" r="2.22"/></g><g><circle cx="494.07" cy="269.17" r="3.57"/><circle class="cls-6" cx="494.07" cy="269.17" r="2.22"/></g><g><circle cx="350.98" cy="214.45" r="3.57"/><circle class="cls-6" cx="350.98" cy="214.45" r="2.22"/></g><g><circle cx="330.25" cy="231.89" r="3.57"/><circle class="cls-6" cx="330.25" cy="231.89" r="2.22"/></g><g><circle cx="322.05" cy="261.01" r="3.57"/><circle class="cls-6" cx="322.05" cy="261.01" r="2.22"/></g></g><g><polygon class="cls-4" points="348.52 262.76 499.62 262.76 500.55 259.26 349.37 259.26 348.52 262.76"/><polygon class="cls-4" points="404.58 253.09 350.88 253.09 350.02 256.59 403.79 256.59 412 256.59 501.26 256.59 502.2 253.09 411.34 253.09 404.58 253.09"/><polygon class="cls-4" points="406.78 246.91 352.39 246.91 351.53 250.41 405.98 250.41 410.83 250.41 502.91 250.41 503.84 246.91 410.17 246.91 406.78 246.91"/><polygon class="cls-4" points="404.02 234.57 355.4 234.57 354.55 238.07 403.23 238.07 408.49 238.07 506.19 238.07 507.13 234.57 407.83 234.57 404.02 234.57"/><polygon class="cls-4" points="356.91 228.39 356.06 231.89 507.84 231.89 508.77 228.39 356.91 228.39"/><polygon class="cls-4" points="402.26 240.74 353.9 240.74 353.04 244.24 401.47 244.24 409.66 244.24 504.55 244.24 505.48 240.74 409 240.74 402.26 240.74"/><g><g><path class="cls-6" d="M486.55,228.8c-.84,.18,.22,2.23-1.08,2.55-.83,.2,11.72,.26,12.81,.17,.73-.06-1.78-1.51-.96-2.49,.59-.7-9.93-.42-10.77-.23Z"/><path class="cls-4" d="M491.86,228.76c1.64-.42,2.96-.1,3.4-.02,.24,.05-.35,.13-.51,1.34-.16,1.21,.89,1.21,.69,1.32-.55,.3-2.72,.23-3.58,.08-.36-.06,.66-.23,.64-1.42-.02-1.2-1.03-1.2-.63-1.3Z"/><path class="cls-3" d="M493.47,228.7c.59-.1,1.17-.04,1.31,.04,.08,.04-.29,.03-.34,1.34-.04,1.16,.51,1.38,.28,1.41-.47,.06-1.02,.05-1.23,0-.12-.03,.24-.29,.23-1.43-.01-1.35-.6-1.31-.25-1.37Z"/></g><g><path class="cls-6" d="M484.86,235.04c-.84,.18,.22,2.23-1.08,2.55-.83,.2,11.72,.26,12.81,.17,.73-.06-1.78-1.51-.96-2.49,.59-.7-9.93-.42-10.77-.23Z"/><path class="cls-4" d="M490.17,234.99c1.64-.42,2.96-.1,3.4-.02,.24,.05-.35,.13-.51,1.34-.16,1.21,.89,1.21,.69,1.32-.55,.3-2.72,.23-3.58,.08-.36-.06,.66-.23,.64-1.42-.02-1.2-1.03-1.2-.63-1.3Z"/><path class="cls-3" d="M491.77,234.93c.59-.1,1.17-.04,1.31,.04,.08,.04-.29,.03-.34,1.34-.04,1.16,.51,1.38,.28,1.41-.47,.06-1.02,.05-1.23,0-.12-.03,.24-.29,.23-1.43-.01-1.35-.6-1.31-.25-1.37Z"/></g><g><path class="cls-6" d="M482.92,241.22c-.84,.18,.22,2.23-1.08,2.55-.83,.2,11.72,.26,12.81,.17,.73-.06-1.78-1.51-.96-2.49,.59-.7-9.93-.42-10.77-.23Z"/><path class="cls-4" d="M488.23,241.17c1.64-.42,2.96-.1,3.4-.02,.24,.05-.35,.13-.51,1.34-.16,1.21,.89,1.21,.69,1.32-.55,.3-2.72,.23-3.58,.08-.36-.06,.66-.23,.64-1.42-.02-1.2-1.03-1.2-.63-1.3Z"/><path class="cls-3" d="M489.84,241.11c.59-.1,1.17-.04,1.31,.04,.08,.04-.29,.03-.34,1.34-.04,1.16,.51,1.38,.28,1.41-.47,.06-1.02,.05-1.23,0-.12-.03,.24-.29,.23-1.43-.01-1.35-.6-1.31-.25-1.37Z"/></g><g><path class="cls-6" d="M481.04,247.39c-.84,.18,.22,2.23-1.08,2.55-.83,.2,11.72,.26,12.81,.17,.73-.06-1.78-1.51-.96-2.49,.59-.7-9.93-.42-10.77-.23Z"/><path class="cls-4" d="M486.35,247.34c1.64-.42,2.96-.1,3.4-.02,.24,.05-.35,.13-.51,1.34-.16,1.21,.89,1.21,.69,1.32-.55,.3-2.72,.23-3.58,.08-.36-.06,.66-.23,.64-1.42-.02-1.2-1.03-1.2-.63-1.3Z"/><path class="cls-3" d="M487.96,247.28c.59-.1,1.17-.04,1.31,.04,.08,.04-.29,.03-.34,1.34-.04,1.16,.51,1.38,.28,1.41-.47,.06-1.02,.05-1.23,0-.12-.03,.24-.29,.23-1.43-.01-1.35-.6-1.31-.25-1.37Z"/></g><g><path class="cls-6" d="M479.19,253.56c-.84,.18,.22,2.23-1.08,2.55-.83,.2,11.72,.26,12.81,.17,.73-.06-1.78-1.51-.96-2.49,.59-.7-9.93-.42-10.77-.23Z"/><path class="cls-4" d="M484.5,253.52c1.64-.42,2.96-.1,3.4-.02,.24,.05-.35,.13-.51,1.34s.89,1.21,.69,1.32c-.55,.3-2.72,.23-3.58,.08-.36-.06,.66-.23,.64-1.42-.02-1.2-1.03-1.2-.63-1.3Z"/><path class="cls-3" d="M486.11,253.46c.59-.1,1.17-.04,1.31,.04,.08,.04-.29,.03-.34,1.34-.04,1.16,.51,1.38,.28,1.41-.47,.06-1.02,.05-1.23,0-.12-.03,.24-.29,.23-1.43-.01-1.35-.6-1.31-.25-1.37Z"/></g><g><path class="cls-6" d="M477.5,259.74c-.84,.18,.22,2.23-1.08,2.55-.83,.2,11.72,.26,12.81,.17,.73-.06-1.78-1.51-.96-2.49,.59-.7-9.93-.42-10.77-.23Z"/><path class="cls-4" d="M482.81,259.69c1.64-.42,2.96-.1,3.4-.02,.24,.05-.35,.13-.51,1.34-.16,1.21,.89,1.21,.69,1.32-.55,.3-2.72,.23-3.58,.08-.36-.06,.66-.23,.64-1.42-.02-1.2-1.03-1.2-.63-1.3Z"/><path class="cls-3" d="M484.42,259.63c.59-.1,1.17-.04,1.31,.04,.08,.04-.29,.03-.34,1.34-.04,1.16,.51,1.38,.28,1.41-.47,.06-1.02,.05-1.23,0-.12-.03,.24-.29,.23-1.43-.01-1.35-.6-1.31-.25-1.37Z"/></g></g></g></g></g><g><rect x="322.19" y="190.95" width="28.18" height="16.51"/><rect x="337.06" y="195.65" width="13.31" height="17.65"/></g><path d="M295.43,348.02l-3.86-.57c.06-.43,6.47-43.35,18.84-86.02,13.09-45.18,21.49-53.53,28.61-55.82l1.19,3.71c-5.46,1.76-13.36,9.39-26.06,53.2-12.29,42.41-18.66,85.08-18.73,85.51Z"/><g><g><g class="cls-83"><rect x="91.59" y="149.26" width="250.68" height="68.23"/></g><g class="cls-82"><path class="cls-7" d="M146.19,163.5c-1.22-.07,2.45,4.03,1.32,4.86-4.45,3.3-10.16,6.7-13.57,10.67-3.87,4.52-12.53,15.84-20.04,20.97-1.84,1.25-9.77,.53-9.72,.92,.24,1.96,44.83,2.28,47.77,1.54,2.22-.56,13.18-5.36,17.58-15.67,.59-1.37,29.48,17.32,29.51,16.95,.24-2.69-52.86-40.25-52.86-40.25Z"/></g><g class="cls-18"><path class="cls-7" d="M320.64,182.08c6.75-2.11,12.04-8.24,11.97-4.6-.07,3.63-4.94,23.04-8.37,26.33-3.43,3.3-7.79,2.41-9.6,1.85-1.82-.56,3.68-22.86,5.99-23.59Z"/></g><g class="cls-89"><path class="cls-6" d="M148.67,166.41c-.17,0,2.87,3.49,2.18,4.03-5.89,4.65-30.52,29.21-28.06,30.2,2.75,1.1,14.63,2.66,18.37,.28,3.26-2.08,17.67-16.16,20.43-21.29,.4-.75,32.51,20.48,32.34,20.18-1.28-2.38-45.27-33.4-45.27-33.4Z"/></g><g class="cls-93"><path class="cls-6" d="M331.8,177.91c-.52-.14-3.66,2.35-6.42,3.68-2.39,1.16-4.46,1.12-4.62,1.71-.05,.18,1.48,.03,1.4,.47-.61,3.43-3.75,16.3-3.74,21.02,0,1.3,1.84,.77,3.48,.05,1.25-.55,6.63-19.03,7.01-24.15,.04-.48,3.07-2.72,2.89-2.77Z"/></g><g class="cls-91"><g><path class="cls-7" d="M150.89,165.4c2.17,1.79,7.66,5.64,9.42,6.36,.46,.19,2.65-3.77,2.68-4.07,.2-2.08-13.69-3.6-12.1-2.29Z"/><path class="cls-7" d="M164.71,167.72c-1.7,.7-3.58,4.65-2.72,5.38s5.92,4.62,7.37,4.89c2.67,.49,7.09,2.08,7.83,0,.73-2.08,2.32-7.09,1.71-7.83-.61-.73-11.98-3.35-14.18-2.45Z"/><path class="cls-7" d="M181.5,170.53c-.95,.58-3.94,8.21-1.98,8.88,1.96,.67,13.23,2.5,14.09,.54,.86-1.96,1.89-7.79,1.1-8.19-2.28-1.14-12.26-1.81-13.21-1.23Z"/><path class="cls-7" d="M197.3,171.76c-.87,.43-3.32,8.71-1.3,8.95,2.01,.24,12.52,.8,14.12,0,.95-.47,1.62-6.24,1.13-7.49-.73-1.86-11.7-2.56-13.95-1.46Z"/><path class="cls-7" d="M214.11,173.22c-1.38,.78-3.16,7.04-1.78,7.6,1.38,.56,13.34,1.6,14.82,.77,1.48-.83,2.28-7.46,1.49-7.92s-12.75-1.47-14.53-.46Z"/><path class="cls-7" d="M231.11,173.87c-1.38,1.16-2.72,6.96-1.44,7.76,1.28,.8,13.7,.81,15.08,.65,1.38-.15,2.08-7.03,1.19-7.77-.89-.73-13.74-1.56-14.82-.64Z"/><path class="cls-7" d="M248.51,174.79c-1.38,1.16-2.05,6.03-.77,6.83,1.28,.8,13.7,.81,15.08,.65,1.38-.15,2.14-6.07,1.25-6.8-.89-.73-14.47-1.6-15.56-.69Z"/><path class="cls-7" d="M266.35,175.69c-1.38,1.16-1.65,5.13-.36,5.93,1.28,.8,13.7,.81,15.08,.65,1.38-.15,2.46-5.45,1.57-6.19-.89-.73-15.2-1.31-16.29-.4Z"/><path class="cls-7" d="M285.04,176.04c-1.38,1.16-1.99,4.79-.7,5.59,1.28,.8,13.7,.81,15.08,.65,1.38-.15,2.84-5.38,1.95-6.12-.89-.73-15.24-1.04-16.32-.12Z"/><path class="cls-7" d="M303.81,175.97c-1.38,1.16-2.78,4.85-1.5,5.65,1.28,.8,13.7,.81,15.08,.65,1.38-.15,10.67-5.26,9.78-5.99-.89-.73-22.27-1.22-23.36-.31Z"/><path class="cls-7" d="M171.77,179.91c4.29,.6,73.71,5.46,141.79,4.05,4.79-.1,3.39,1.34-.55,1.47-43.84,1.47-130.69-1.62-135.73-2.78-5.04-1.16-7.72-3.04-5.5-2.73Z"/></g></g><g class="cls-84"><g><path class="cls-6" d="M151.75,165.27c1.1-.47,9.92,2.16,10.63,2.48,.13,.06-.45,1.45-1.03,1.29-.58-.15-10.46-3.41-9.6-3.78Z"/><path class="cls-6" d="M165.08,168.52c-1.34,.43-2.01,1.55-.78,1.98,1.22,.43,12.22,3.31,13.1,2.58s.92-1.31,.4-1.83c-.52-.52-11.72-3.04-12.72-2.72Z"/><path class="cls-6" d="M182.2,171.76c-.53,.15-1.52,2.26-.82,2.63,.7,.37,10.53,1.83,11.58,1.57,.59-.15,1.22-2.67,.89-3.04-.58-.66-10.67-1.43-11.65-1.16Z"/><path class="cls-6" d="M197.51,173.04c-.65,.12-.83,2.9-.06,3.15s11.13,1.67,11.92,1.16c.45-.29,1.35-3.12,.61-3.39-1.11-.41-10.67-1.25-12.47-.92Z"/><path class="cls-6" d="M214.51,174.2c-.77,.08-1.59,3.04-.95,3.15,1.03,.17,12.27,1.38,13.15,1.44,.55,.04,1.9-3.67,1.25-4.04-.87-.49-11.75-.73-13.45-.55Z"/><path class="cls-6" d="M231.91,175.09c-.83-.02-2.23,3.58-1.1,3.7,1.13,.12,12.44,1.64,13.97,.94,1.07-.49,.73-3.77,.3-4-.74-.4-12.01-.6-13.17-.63Z"/><path class="cls-6" d="M249.27,175.72c-1.01,.03-1.4,3.88-.46,4.19,.87,.28,12.2,.7,13.57,.47,1.38-.23,1.24-3.39,.74-3.76-.5-.37-12.5-.94-13.85-.89Z"/><path class="cls-6" d="M266.49,176.78c-.34,.04-.7,3.54-.33,3.63,.37,.09,13.61,.51,14.66,.42,1.05-.09,1.6-3.49,1.12-3.55-.48-.06-11.23-.98-15.45-.5Z"/><path class="cls-6" d="M284.85,177.08c-.7,.13-.78,2.97-.18,3.33,.6,.36,14.26,.32,14.95,.09s2.02-2.89,1.56-3.22c-.46-.34-15.32-.38-16.32-.2Z"/><path class="cls-6" d="M303.98,177.27c-.71,.18-1.01,2.89-.23,3.13s15.27-.35,16.69-.85c1.42-.5,3.8-.72,4.36-1.69,.42-.73-19.81-.85-20.82-.59Z"/></g></g></g><g><g class="cls-95"><rect x="207.05" y="164.48" width="26.29" height="53.07"/></g><path class="cls-7" d="M214.57,170.1c-1.19,.58-2.58,1.74-2.81,6.57-.51,10.88-.75,30.89,.12,31.3,2.98,1.41,.06-20.28,2.93-28.96,.13-.39,.16,3.32,.43,3.13,1.18-.85,4.09-.38,4.68,1.04,.65,1.58,.55,24.86,1.02,24.86,1.8,0,1.67-35.77,2.64-37.01s-7.2-1.82-9.02-.93Z"/><path class="cls-6" d="M222.66,172.26c.04-.9-7.59-1.21-8.38-.5-.51,.46-1.08-.09-1.43,3.32-1.05,10.22-1.01,31.19-.65,31.6,.14,.16,1.31-33.79,2.31-33.68,.31,.03-.09,4.7,.3,4.8,3.11,.82,4.38-.03,5.75-.03,.45,0,.46,20.44,.8,20.43,.57-.03-.65-22.01,.52-25.4,.17-.48,.33,4.97,.39,4.6,.26-1.79,.4-5.14,.4-5.14Z"/></g></g><g><g class="cls-90"><rect x="326.69" y="110.8" width="203.48" height="125.79"/></g><g class="cls-96"><path class="cls-7" d="M515.03,174.46c-7.89-20.73-13.39-10.46-18.71-25.86-1.96-5.67-5.52-7.89-30.2-9.11-19.55-.97-68.48,5.75-100.03,22.87s-24.09,34.73-24.09,38.89-8.07,3.18-4.16,8.8c0,0-10.76-12.96-8.8-26.9,1.96-13.94,31.55-38.64,70.43-51.6,38.89-12.96,95.14-13.45,104.92,0,9.78,13.45,10.64,42.92,10.64,42.92Z"/></g><g class="cls-94"><path class="cls-6" d="M510.21,148.82c-1.9-3-9.7-20.04-31.31-23.16-25.19-3.63-80.33,7.53-113.17,24.58s-32.78,36.91-32.28,40.17c.5,3.26,4.15,8.04,4.52,5.54,.38-2.51-1.65-19.98,21.52-34.64,17.4-11.02,61.34-26.88,99.69-27.83,32.99-.81,39.63,9.35,41.74,12.71,2.94,4.69,10.54,4.62,9.29,2.63Z"/></g><g class="cls-92"><path class="cls-6" d="M484.46,144.61c-18.94-5.74-87.73,1.99-117.08,20.7-10.93,6.96-6.34,6.15,.92,3.12,49.44-20.63,98.7-15.24,110.34-15.52,6.56-.16,8.41-7.51,5.83-8.3Z"/></g><g class="cls-78"><path class="cls-7" d="M504.3,185.79c-1.29-7.98-59.57-12.03-85.57,.59-7.91,3.84-11.01,12.66-22.93,15.8-9.21,2.43-20.14,4.76-13.72,5.31s103.05,4.38,110.2,.16,12.93-16.18,12.01-21.87Z"/></g><g class="cls-41"><path class="cls-6" d="M502.46,193.53c0-4.94-36.77-5.49-45.67-3.66-12.92,2.65-9.21,7.74-27.91,10.13-8.47,1.08-16.86,3.77-19.43,5.79s38.45,2.05,52.39,2.05,26.11-.03,29.23-1.01c3.12-.98,11.39-8.35,11.39-13.3Z"/></g><g class="cls-38"><path class="cls-4" d="M501.6,194.94c1.45-3.58-15.96-4.44-18.89-2.48-2.93,1.96-3.97,5.99-4.22,8.44s.49,6.24,7.89,5.62c7.4-.61,12.63-5.2,15.22-11.58Z"/></g><g class="cls-43"><path class="cls-4" d="M483.33,145.17c-12.63-3.21-60.9-.67-100.63,14.96-15.97,6.29-1.27,1.72,7.25-1,36.96-11.78,82.78-9.72,91.39-9.14,2.27,.15,4.92-4.07,1.98-4.82Z"/></g><g class="cls-39"><path class="cls-6" d="M504.54,181.61c.36-19.14-15.49-27.65-32.72-28.18-36.06-1.16-73.17,4.33-105.71,20.49-11.62,5.83-24.46,17.52-14.59,30.82,.11,.11,.1,.3-.02,.39-.11,.09-.27,.07-.37-.03-2.79-3.2-4.41-7.5-4.03-11.84,2.03-18.58,34.84-28.77,50.23-33.75,24.16-6.95,49.5-9.75,74.62-8.54,4.12,.26,8.59,.88,12.57,2.1,10.69,2.98,19.25,10.92,20.78,22.24,.28,2.11,.39,4.25,.22,6.37-.02,.27-.26,.48-.54,.46-.27-.02-.47-.25-.46-.52h0Z"/></g></g><g><g class="cls-35"><path d="M748.6,243.94l-43.92,24.28s-57.24-31.88-95.76,0-47.88,125.12-47.88,125.12l-44.28,18.36s-2.16-139.14,62.28-174.69,169.56,6.93,169.56,6.93Z"/></g><g class="cls-40"><path class="cls-7" d="M720.71,252.98c-9.99-3.48-66.02-37.74-132.45,6.67-61.14,40.87-51.72,106.24-51.72,109.18s4,1.96,4-1.47-.18-19.75,1.54-22.93,7.76,32.84,7.02,33.75c-.73,.91-20.13,15.59-20.13,15.59,0,0-13.76-48.65,0-82.71,13.76-34.07,45.32-64.59,75.64-78.25,30.33-13.66,95.38-9.5,117.39,7.86l6.36,4.65-7.66,7.66Z"/></g><g class="cls-37"><path class="cls-6" d="M715.08,240.53c-11.28-1.53-7.74,1.69-21.3-1.69-13.55-3.39-53.21-13.94-98.99,12.83-52.56,30.73-61.23,77.45-62.44,95.84-1.07,16.19-.48,27.35,3.39,29.53s1.95-7.26,4.84-3.39c2.9,3.87,3.87,8.3,3.87,8.3l-16.94,12.52s-23.72-108.19,40.9-141.59,74.79-30.95,92.21-28.06c17.43,2.89,54.46,15.72,54.46,15.72Z"/></g><g class="cls-42"><path class="cls-4" d="M700.67,245.36c-1.57-.99-16.44-10.67-47.14-9.33-30.69,1.35-45.65,12.26-45.61,13.49,.12,3.32,19.41-9.46,47.56-11.07,28.15-1.61,48.58,9.05,45.19,6.91Z"/></g></g><g><path class="cls-4" d="M598.38,102.19c-15.77,0-42.45,18.45-42.45,36.42s20.8,38.05,38.96,38.05,23.39-14.83,23.39-37.24c0-19.44-2.3-37.24-19.91-37.24Z"/><path class="cls-6" d="M610.32,118.5c-2.08-1.62-4.86-2.46-14.91-1.8-7.4,.49-24.67,6.97-26.7,12.77-.71,2.04-4.52,5.01,1.26,6.01,10.69,1.85,34.87,.79,36.02,1.53,1.77,1.13,1.71,3.79,.11,4.71-1.6,.92-26.71-1.2-29.18-1.2-5.59,0-7.78,4.05-4.81,4.48,2.33,.34,27.26,3.04,34.91,5.98,3.58,1.38,3.64,4.25,4.66,5.32,1.7,1.79,.42-23.12,1-24.98,.58-1.86,1.16,2.64,1.6,5.11s.29-20.03-2.03-23.65-4.46-7.11-10.08-7.93c-4.56-.67-10.87,.28-15.46,2.48-2.61,1.25,9.85-.81,13.81-.55,7.34,.48,8.22,4.53,9.12,6.68s.69,5.05,.69,5.05Z"/><path class="cls-6" d="M609.78,161.81c-1.56,1.47-3.56,4.78-8.6,4.97-4.37,.16-15.35-5.65-17.56-6.86-10.35-5.63-11.93-10.49-13.93-13.75-2.57-4.19-11.61-1.21-11.15,.48,2.04,7.55,8.55,15.8,13.83,20.03s13.02,7.83,13.68,7.65c1.7-.47-10.92-9.58-7.19-8.5,3.18,.92,13.47,6.64,21.75,6.62,3.22,0,6.08-1.75,7.55-3.48,3.18-3.76,4.75-10.07,1.63-7.15Z"/><path class="cls-6" d="M561.59,125.92c4.52-7.67,15.84-15.53,21.21-17.32,5.89-1.96,5.76,7.6,2.75,8.71-10.03,3.69-16.35,14.68-16.93,15.12-.58,.44-7.76,.39-8.34-.05-.58-.44-3.22,1.21,1.31-6.46Z"/><path class="cls-7" d="M613.21,128.42c.09-.64,0-5.04-.83-12.06-.43-3.65-2.08-5.09-1.79-3.76,.29,1.33,1.24,8.48,.5,8.48-.73,0-1.56-4.13-13.07-3.03-6.41,.61-18.81,3.47-22.89,6.41s-6.74,6.82-5.45,7.95c1.28,1.13,35.4,1.32,36.68,1.68,1.28,.37,2.02,.64,2.38,1.93,.37,1.28,1.28,7.15,.09,7.84-1.19,.69-26.05-1.47-28.25-1.14-2.2,.32,22.33,4.17,27.15,4.81,1.59,.21,2.2,.96,2.75,1.15,.35,.12,.5-16.28,.5-19.86s2.13,.06,2.2-.41Z"/><path class="cls-7" d="M566.28,146.55c2.2,2.29,4.47,9.11,13.23,13.92,4.12,2.27,15.68,8.03,20.45,8.31,4.77,.28,7.7-2.38,9.26-4.31s1.08,1.16-.96,3.61c-2.19,2.62-5.02,3.79-8.87,3.5-9.91-.75-16.48-4.87-17.85-5.24-.51-.14-4.23-1.65-5.13-1.36-1.55,.5,4.08,5.96,3.24,5.52-7.27-3.81-17.1-12.45-19.38-21.8-.74-3.04,6.02-2.14,6.02-2.14Z"/><path class="cls-6" d="M614.51,139.02c-.39,1.63-.92,17.3-1.47,20.36-.55,3.06,1.56-5.69,1.85-10.18,.29-4.49,.29-12.99-.38-10.18Z"/><path class="cls-7" d="M562.08,127.56c5.57-8.58,14.77-15,17.43-16.38,2.66-1.38,3.12,4.77,1.65,5.78-1.47,1.01-10.39,7.07-12.38,10.6s-9.87,4.88-6.69,0Z"/><path class="cls-3" d="M605.44,109.68c-2.87-1.89-15.03-.19-15.95,.73-.92,.92-.1,4.55-.74,5.47-.64,.92-3.17,2.61-2.09,2.25,7.09-2.36,15.52-2.36,21.17-1.58,2,.28-.1-5.36-2.39-6.87Z"/><path class="cls-3" d="M608.19,157.5c3.16,2.28-3.24,9.22-9.15,7.91-1.93-.43-15.47-6.1-17.65-7.86-4.4-3.55-3.12-6.44-.79-6.45,7.43-.02,23.12,3.17,27.59,6.4Z"/><path class="cls-3" d="M616.05,119.49c.48,1.76,3.57,20.5-.98,41.74-1.18,5.49,.79-5.04,.93-17.91,.11-10.32-.76-22.86-.93-23.89-.36-2.15,0-3.48,.98,.06Z"/></g><g><path d="M551.79,153.49s17.28-6.22,27.58-10.12c9.26-3.5,7.91-14.03-3.97-14.52-14.93-.61-35.93-1.3-35.93-1.3l12.32,25.93Z"/><path class="cls-7" d="M540.99,128.51s31.75,1.38,35.33,1.48c2.08,.06,5.98,1.31,7.27,3.52s-.45,1.3-1.56,.39c-1.1-.91-2.04-1.82-5.92-2.28-1.4-.17-34.15-1.26-34.21-1.31s-.91-1.8-.91-1.8Z"/><path class="cls-7" d="M551.64,150.36s20.68-6.86,23.71-7.03c3.03-.17-22.99,8.85-22.99,8.85l-.71-1.82Z"/><circle class="cls-6" cx="576.4" cy="136.69" r="3.96"/></g><g><path d="M542.15,129.81c1.87-1.46,9.78-4.22,12.09-6.36,2.31-2.14,29.5-27.31,25.74-31.37-1.03-1.11-23.98,25.3-25.1,26.21s-3.05,3.7-3.56,3.78-11.85,5.26-11.85,5.26l2.67,2.48Z"/><path class="cls-4" d="M578.19,73.96c.82,1.27,6.9,12.78,6.8,13.45s-27.56,30.89-29.89,31.89c-2.33,1-13.2-3.94-14.6-4.41-1.4-.47,36.12-43.38,37.69-40.92Z"/><path class="cls-6" d="M542.22,113.85c.48-.91,29.32-33.11,30.44-33.67s-20.79,23.78-19.85,26.39c.86,2.38,2.43,3.43,7.1,2.25,2.14-.54,10.46-7.33,10.36-7-.33,1.17-13.06,14.86-14.93,16.02-.48,.3-.43-2.06-1.58-2.78-2.46-1.52-7.75-2.83-8.66-2.3-1.33,.78-3.35,1.99-2.87,1.08Z"/><path class="cls-7" d="M549.83,107.46c-.31,1.55,4.45,5.91,9.06,4.57,1.9-.55-3.98,6.04-3.63,4.5,.38-1.67-7.01-5.09-8.81-4.4-1.79,.69,3.69-6.23,3.37-4.67Z"/></g><g><g class="cls-36"><polygon class="cls-4" points="424.76 124.08 426.59 134.6 472.21 131.09 470.82 121.29 424.76 124.08"/></g><g class="cls-45"><path class="cls-6" d="M428.89,128.29c-.85,.28-.88,1.99-.51,2.53,.37,.54,.06,.25,.93-.64,.87-.89,8.53-2.88,10.13-3.24,1.59-.36-8.47,.67-10.55,1.35Z"/></g><g class="cls-66"><path class="cls-6" d="M430.21,131.72c-.52-.09-.04-2.1,5.63-2.99,1.74-.27,.52,.37,.31,.85-.22,.48,11.19-.5,12.59-.57s14.79-.61,15.88-.7c1.09-.09-2.01,.79-5.37,1.22-3.36,.44-26.5,2.62-29.03,2.18Z"/></g><g class="cls-64"><path class="cls-6" d="M466.22,128.4c.96,.01,4.09,.13,4.37-.16s1.38-1.19,.26-1c-1.12,.2-6.07,1.15-4.63,1.16Z"/></g><g class="cls-67"><path class="cls-6" d="M439.3,128.66c.84,.12,11.83-.44,13.23-.56,1.4-.12-6.55-.73-7.73-.54s-7.38,.83-5.5,1.1Z"/></g><g class="cls-62"><path class="cls-6" d="M470.03,124.96c-1.09,.25-1.96-.43-3.05,0s-3.27,.43-4.32,.69c-1.05,.26,6.41,.26,7.37,.22,.97-.04,0-.91,0-.91Z"/></g><g class="cls-63"><path class="cls-3" d="M442.96,126.31c1.05-.07,13.84-1.34,18.21-.95,.92,.08-5.49,1.1-7.9,1.14-5.68,.08-13.09-.01-10.3-.19Z"/></g><g class="cls-60"><path class="cls-3" d="M459.77,127.17c1.18-.21,5.47-.69,6.19-.47,.71,.22-1.34,.83-2.87,.83s-5.14-.03-3.32-.36Z"/></g></g><path class="cls-4" d="M529.46,325.24c-2.17,0-2.88-1.45-3.07-1.98-1.1-3.15,3.25-7.74,7.73-9.6,.99-.41,2.13,.06,2.55,1.06,.41,.99-.06,2.13-1.06,2.55-2.37,.98-4.06,2.58-4.9,3.74,9.79-4.55,145.11-81.7,151.69-86.53,.75-.55,1.29-1,1.67-1.37-1.32,.14-3.43,.63-5.93,1.82-.97,.46-2.13,.05-2.6-.92-.46-.97-.05-2.13,.92-2.6,3.58-1.7,10.13-3.75,12-.62,1.69,2.83-2.26,5.73-3.75,6.82-2.67,1.96-41.76,24.58-76.44,44.42-21.97,12.56-73.43,41.89-76.91,42.9-.73,.21-1.36,.3-1.89,.3Z"/><g><rect x="542.3" y="122.69" width="15.41" height="72.99" transform="translate(-9.55 280.6) rotate(-28.38)"/><polygon class="cls-4" points="540.52 122.83 537.16 124.65 532.66 127.08 528.15 129.51 524.79 131.33 522 128.91 520.36 125.86 518.71 122.82 518.21 119.16 521.57 117.34 526.08 114.91 530.58 112.47 533.95 110.66 536.73 113.08 538.38 116.12 540.02 119.17 540.52 122.83"/><polygon points="575.22 187.04 571.86 188.86 567.35 191.29 562.85 193.73 559.49 195.54 556.7 193.12 555.05 190.08 553.41 187.03 552.91 183.37 556.27 181.56 560.78 179.12 565.28 176.69 568.64 174.87 571.43 177.3 573.08 180.34 574.72 183.38 575.22 187.04"/><g><g class="cls-65"><polygon class="cls-4" points="588.32 174.55 542.35 195.22 647.72 384.25 693.21 363.62 588.32 174.55"/></g><g class="cls-68"><path class="cls-6" d="M659.57,367.18c-1.35,.12-5.76-.51-4.16-1.93,2.34-2.08,4.16-2.72,3.31-3.82-.86-1.1-6.97-9.29-7.83-9.42-.43-.06,1.9-5.81,1.59-6.24-.61-.86-13.7-23.72-13.7-23.72,0,0-5.38,3.79-5.75,2.45-.37-1.35-1.71-6.79-1.83-7.76-.12-.98,3.3-3.12,3.3-3.12,0,0-19.04-33.77-19.83-34.21-.79-.45-4.52,1.7-5.38,1.21-.2-.11,3.82-3.24,3.3-3.59-1.1-.75-.52-1.53-1.42-2.65-.54-.67-6.19,1.57-6.01,1.04,.61-1.84,3.69-3.2,3.67-3.66-.11-3.32-3.75-8.65-3.75-8.65l1.35-1.47-3.97-6.6s-2.85,.63-3.95,.51c-.3-.03-.62-.1-1.56-.83-.34-.26,5.76-2.95,5.39-3.28-.98-.86-.92-2.52-2.9-2.32-2.82,.28-7.23,3.76-7.43,2.2-.46-3.62,.56-7.59,.88-8.95-.96-2.69-28.46-49.93-28.64-52.62-.18-2.69,12.66-5.38,12.66-5.38l47.08,74.1,44.76,71.78,8.07,32.28s-15.9,4.52-17.24,4.65Z"/></g><g class="cls-44"><path class="cls-7" d="M569.27,186.75l28.49,53.07s3.27-.49,2.94,.07c-.32,.56-3.55,2.32-4.18,2.94-.64,.62,1.6,3.84,2.58,3.84s6.91-2.89,7.28-2.89-1.85,1.96-1.85,1.96c0,0,2.41,4.13,2.47,5.12,.03,.4-2.02,1.09-2.02,1.09,0,0,5.36,7.81,5.36,8.66s-1.96,1.22-1.83,1.83c.12,.61,4.13,8.65,4.33,8.42,.2-.23,4.42-2.03,5.15-1.94s-3.49,2.57-3.49,2.57c0,0,3.22,4.65,2.75,5.01s-1.65,.92-1.9,1.07,3-.18,3.49-1.01c.49-.83,21.46,36.13,19.99,36.75-1.47,.61-1.59,.86-1.35,1.71,.24,.86,2.57,5.38,2.93,5.5,.37,.12,1.53-1.28,3.24-1.16s14.12,22.68,14.25,23.91c.12,1.22-1.22,4.28-1.22,5.26s4.77,7.95,5.01,9.54c.24,1.59-1.47,1.83-1.47,1.83,0,0-7.48-9.29-6.8-10.64,.68-1.35,2.03-4.16,1.54-5.26-.49-1.1-11.98-22.62-13.82-22.5-1.83,.12-1.83,.73-2.81,1.1-.98,.37-4.28-6.24-4.4-6.85-.12-.61,2.93-1.71,2.81-2.32-.12-.61-20.45-33.81-20.91-34.73s-3.32,.86-3.32,.82c.06-1.28,2.71-2.04,2.34-3.14s-1.37-3.67-2.03-3.79c-.66-.12-4.84,2.19-5.33,1.88-.49-.31,3.69-2.61,3.69-2.61l-4.89-8.44s2.32-1.1,1.47-2.57c-.86-1.47-4.11-8.14-4.11-8.14,0,0-6.87,2.5-5.44,1.66,2.43-1.43,5.88-3.1,5.67-3.68-.42-1.16-.57-4.29-2.11-3.66s-6.55,3.02-8.14,3.27c-1.59,.24-1.4-6.2-.18-7.3,1.22-1.1,2.55-2,2.55-2-1.1-1.83-27.99-52.46-27.99-52.46l1.22-1.79Z"/></g><g class="cls-61"><path class="cls-3" d="M564.95,195.92c.65,1.08,26.87,45.49,26.32,46.86-.55,1.38-.55,8.25-1.19,8.53-.64,.28-.28-7.25-.28-8.07s-24.15-43.85-25.04-46.22c-.57-1.51-1.38-3.68,.18-1.1Z"/></g><g class="cls-107"><path class="cls-3" d="M593.75,256.36c.72,.92,3.67,5.04,5.59,7.98,1.93,2.93,4.31,9.54,4.59,9.81,.28,.28-2.11-8.71-3.12-10.18-1.01-1.47-4.86-6.14-5.5-7.15-.64-1.01-2.83-2.08-1.56-.46Z"/></g><g class="cls-111"><path class="cls-3" d="M610.63,283.23c.62,1.08,18.16,33.11,18.34,33.75,.18,.64,.09,7.61,.55,8.25,.46,.64,.46-8.07,.55-9.08s-15.17-26.5-16.08-28.61-4.67-6.58-3.37-4.31Z"/></g><g class="cls-108"><path class="cls-3" d="M632.36,327.9c1.2,2.38,10.82,21.46,11.28,22.1,.46,.64,1.56,.83,1.19-.18-.37-1.01-10.36-19.53-11.01-21.19s-2.54-2.86-1.47-.73Z"/></g><g class="cls-109"><path class="cls-3" d="M648.14,354.49c.73,1.56,4.31,7.15,5.04,7.98s-.73-2.29-2.48-5.23c-1.74-2.93-2.57-2.75-2.57-2.75Z"/></g><g class="cls-110"><path class="cls-4" d="M570.79,186.78c1.96,3.18,27.45,51.92,27.76,51.76,.31-.16,0-.27,1.1,0s5.87,2.29,5.2,2.71c-.67,.43-3.18,1.59-3.18,1.9s.22,1.59,1.04,1.71,2.63-1.14,3.49-1,.3,1.98,.3,2.22,8.38,18.46,8.68,18.83c.31,.37,1.77,1.22,2.02,1.47,.24,.24,1.71,2.81,1.77,3,.06,.18-.24,3.73-.24,3.73,0,0,5.62,10.03,6.3,10.88,.67,.86,15.53,28.92,15.53,28.92,0,0,3.12,3.42,4.04,4.28s16.08,22.44,14.92,25.25-1.28,5.75-1.16,6.11c.12,.37,5.38,9.9,5.32,10.15-.06,.24-.43,4.4-.43,4.4l4.65-2.14,1.16-22.38-92.02-153.89-6.24,2.08Z"/></g></g><path class="cls-6" d="M532.95,112c1.52,.88,1.67,.44,2.5,1.82,.83,1.37,2.95,5.69,3.24,6.23s.34,2.36,.29,2.65-5.11,2.95-5.45,3.19-1.03-1.67-1.47-2.65c-.44-.98-2.8-6.28-3.58-6.04s-2.74,.56-3.38,.62c-.64,.06-1.63-.72-.84-1.16s8.69-4.66,8.69-4.66Z"/><path class="cls-7" d="M531.75,113.46c.75,0,1.59,.7,1.98,1.29,.39,.59,3.24,6.09,3.34,6.77,.1,.69-.15,1.62-.2,1.91s-.98,.54-.98,.54c0,0-.74-1.18-.79-1.57-.05-.39-2.31-5.89-2.85-6.53-.54-.64-1.82-1.18-2.01-1.52-.2-.34,.75-.9,1.51-.9Z"/><path class="cls-3" d="M520.28,118.96c-.1,.42-.06,1.37,.55,2.52s2.98,6.25,3.67,6.9c.43,.41,.88,.52,.45-.52s-2.67-6.28-2.88-7.17c-.21-.89-.68-2.06-.97-2.25-.32-.22-.72,.1-.82,.53Z"/><path class="cls-7" d="M538.81,128.09c.58,1.14,22.24,43.3,25.94,48.59,.25,.35,.41,.54,.49,.54,.15,0,.35,.04,.57,.09,1.56,.4,4.55,1.98,4.93,2.75,.44,.87,1.75,3.19,1.97,4.16,.22,.97-3.06-2.96-3.49-3.4-.44-.44-5.19-1.94-6.07-1.83-.87,.11-3.32,1.79-4.49,1.79-.92,0,3.02-1.64,3.12-3.17,.11-1.53-21.94-43.67-22.82-45.75-.87-2.08-1.89-7.21-.15-3.77Z"/></g></g></g></svg>