<svg xmlns="http://www.w3.org/2000/svg" xmlns:xlink="http://www.w3.org/1999/xlink" viewBox="0 0 574.87 294.61"><defs><style>.cls-1,.cls-15,.cls-3,.cls-4,.cls-52,.cls-88{fill:none;}.cls-2{isolation:isolate;}.cls-3,.cls-4,.cls-52,.cls-88{stroke:#000;}.cls-15,.cls-3,.cls-4,.cls-52,.cls-88{stroke-miterlimit:10;}.cls-4{stroke-width:2.83px;}.cls-5,.cls-90{fill:#4a494a;}.cls-151,.cls-6,.cls-8{fill:#2d2d2d;}.cls-7{fill:#e2e2e2;}.cls-109,.cls-110,.cls-131,.cls-134,.cls-149,.cls-151,.cls-153,.cls-160,.cls-162,.cls-164,.cls-165,.cls-186,.cls-187,.cls-188,.cls-190,.cls-202,.cls-43,.cls-48,.cls-71,.cls-74,.cls-75,.cls-76,.cls-8,.cls-90{mix-blend-mode:multiply;}.cls-9{fill:#515150;}.cls-10{fill:#878787;}.cls-11{fill:#c9c9c9;}.cls-12,.cls-13,.cls-14,.cls-18{fill:#848484;}.cls-12{opacity:0.54;}.cls-128,.cls-13,.cls-139{opacity:0.29;}.cls-131,.cls-14{opacity:0.39;}.cls-15{stroke:#1e1e1e;stroke-width:0.28px;}.cls-16{fill:#1e1e1e;}.cls-16,.cls-64{opacity:0.64;}.cls-17{fill:#7b7b7b;}.cls-188,.cls-19,.cls-75{opacity:0.45;}.cls-20,.cls-79,.cls-80,.cls-82{fill:#171717;}.cls-21{fill:#181818;}.cls-22{fill:url(#radial-gradient);}.cls-23{fill:url(#radial-gradient-2);}.cls-24{fill:url(#radial-gradient-3);}.cls-25{fill:url(#radial-gradient-4);}.cls-26{fill:url(#radial-gradient-5);}.cls-27{fill:url(#radial-gradient-6);}.cls-28{fill:url(#radial-gradient-7);}.cls-29{fill:url(#radial-gradient-8);}.cls-30{fill:url(#radial-gradient-9);}.cls-31{fill:url(#radial-gradient-10);}.cls-32{fill:url(#radial-gradient-11);}.cls-33{fill:url(#radial-gradient-12);}.cls-34{fill:url(#radial-gradient-13);}.cls-35{fill:url(#radial-gradient-14);}.cls-36{fill:url(#radial-gradient-15);}.cls-37{fill:url(#radial-gradient-16);}.cls-38{fill:url(#radial-gradient-17);}.cls-39{fill:url(#radial-gradient-18);}.cls-109,.cls-110,.cls-120,.cls-126,.cls-186,.cls-187,.cls-188,.cls-40,.cls-43,.cls-54,.cls-57{fill:#231f20;}.cls-41{fill:#303030;}.cls-100,.cls-106,.cls-108,.cls-111,.cls-112,.cls-113,.cls-125,.cls-127,.cls-128,.cls-145,.cls-154,.cls-155,.cls-156,.cls-157,.cls-159,.cls-161,.cls-163,.cls-182,.cls-183,.cls-184,.cls-185,.cls-42,.cls-46,.cls-47,.cls-50,.cls-55,.cls-56,.cls-58,.cls-61,.cls-62,.cls-72,.cls-73,.cls-77,.cls-81,.cls-83,.cls-84,.cls-99{fill:#fff;}.cls-42{opacity:0.16;}.cls-43{opacity:0.73;}.cls-44{fill:#151415;}.cls-45{fill:#535452;}.cls-46,.cls-63{opacity:0.57;}.cls-146,.cls-151,.cls-164,.cls-47,.cls-65{opacity:0.4;}.cls-126,.cls-145,.cls-200,.cls-48,.cls-70{opacity:0.36;}.cls-49{fill:#545554;}.cls-110,.cls-50{opacity:0.41;}.cls-162,.cls-51{fill:#4f4f4f;}.cls-52{stroke-width:1.42px;}.cls-53{fill:url(#radial-gradient-19);}.cls-54,.cls-82,.cls-84{opacity:0.2;}.cls-55,.cls-68{opacity:0.06;}.cls-56{opacity:0.09;}.cls-114,.cls-57{opacity:0.24;}.cls-58{opacity:0.21;}.cls-59,.cls-63{fill:#101010;}.cls-60{fill:#555656;}.cls-61,.cls-71{opacity:0.13;}.cls-62{opacity:0.34;}.cls-121,.cls-64,.cls-65{fill:#cfcfce;}.cls-66{fill:#ededed;}.cls-67{opacity:0.05;}.cls-69{fill:#da1f26;}.cls-72{opacity:0.66;}.cls-203,.cls-74{opacity:0.25;}.cls-184,.cls-76{opacity:0.07;}.cls-193,.cls-77{opacity:0.44;}.cls-78{fill:#6d6d6d;}.cls-138,.cls-79{opacity:0.28;}.cls-80{opacity:0.61;}.cls-129,.cls-81{opacity:0.42;}.cls-83{opacity:0.62;}.cls-85{fill:#0b0b0b;}.cls-86{fill:#9f9f9e;}.cls-109,.cls-182,.cls-86{opacity:0.11;}.cls-87{fill:#9c9d9c;}.cls-88{stroke-width:1.98px;}.cls-89,.cls-93,.cls-94,.cls-96,.cls-97{fill:#eaeaea;}.cls-89{opacity:0.82;}.cls-91{fill:#d1d3d1;}.cls-105,.cls-107,.cls-92{fill:#151515;}.cls-93{opacity:0.17;}.cls-95{fill:#9d9c9e;}.cls-149,.cls-96{opacity:0.52;}.cls-97{opacity:0.55;}.cls-98{opacity:0.53;}.cls-99{opacity:0.18;}.cls-100,.cls-135,.cls-140{opacity:0.26;}.cls-101,.cls-102{fill:#b5b5b6;}.cls-102{opacity:0.19;}.cls-103,.cls-199{opacity:0.35;}.cls-104{fill:#818281;}.cls-105,.cls-141{opacity:0.68;}.cls-106{opacity:0.58;}.cls-107{opacity:0.9;}.cls-108{opacity:0.48;}.cls-111{opacity:0.59;}.cls-112,.cls-147,.cls-160{opacity:0.22;}.cls-113,.cls-137,.cls-165{opacity:0.47;}.cls-114{fill:#6d6e71;}.cls-115{fill:#0d0d0d;}.cls-116{fill:#4b4c4b;}.cls-117{opacity:0.23;}.cls-118{opacity:0.14;}.cls-119{fill:#202120;}.cls-120,.cls-121,.cls-198{opacity:0.78;}.cls-122{fill:url(#linear-gradient);}.cls-123{fill:url(#linear-gradient-2);}.cls-124{fill:url(#linear-gradient-3);}.cls-125{opacity:0.04;}.cls-127{opacity:0.31;}.cls-130{fill:#777;}.cls-132,.cls-133,.cls-135,.cls-136,.cls-137,.cls-141,.cls-203{fill:#fffffe;}.cls-132{opacity:0.65;}.cls-133{opacity:0.8;}.cls-134{opacity:0.15;}.cls-136,.cls-159{opacity:0.84;}.cls-142{fill:#8e8e8b;}.cls-143,.cls-192{opacity:0.63;}.cls-144{fill:#b0b0b0;}.cls-148{fill:#f4f4f5;}.cls-149{fill:url(#linear-gradient-4);}.cls-150,.cls-200{fill:#d3d3d3;}.cls-152{fill:#e8e8e8;}.cls-153,.cls-155{opacity:0.32;}.cls-154{opacity:0.87;}.cls-156{opacity:0.33;}.cls-157{opacity:0.56;}.cls-158{fill:#939393;}.cls-161{opacity:0.38;}.cls-163,.cls-194{opacity:0.71;}.cls-166{clip-path:url(#clip-path);}.cls-167{fill:url(#radial-gradient-20);}.cls-168{fill:url(#radial-gradient-21);}.cls-169{fill:url(#radial-gradient-22);}.cls-170{fill:url(#radial-gradient-23);}.cls-171{fill:url(#radial-gradient-24);}.cls-172{fill:url(#radial-gradient-25);}.cls-173{fill:url(#radial-gradient-26);}.cls-174{fill:url(#radial-gradient-27);}.cls-175{fill:url(#radial-gradient-28);}.cls-176{fill:url(#radial-gradient-29);}.cls-177{fill:url(#radial-gradient-30);}.cls-178{fill:url(#radial-gradient-31);}.cls-179{fill:url(#radial-gradient-32);}.cls-180{fill:url(#radial-gradient-33);}.cls-181{fill:url(#radial-gradient-34);}.cls-183{opacity:0.69;}.cls-185{opacity:0.08;}.cls-186{opacity:0.81;}.cls-187{opacity:0.6;}.cls-189{fill:#7d7c7d;}.cls-190{fill:url(#radial-gradient-35);}.cls-191,.cls-192,.cls-193,.cls-194,.cls-195{fill:#939291;}.cls-195{opacity:0.37;}.cls-196{opacity:0.43;}.cls-197{fill:#121212;}.cls-198,.cls-199{fill:#2d2b2b;}.cls-201,.cls-202{fill:#171617;}.cls-204{fill:url(#radial-gradient-36);}.cls-205{fill:url(#radial-gradient-37);}.cls-206{fill:url(#radial-gradient-38);}.cls-207{fill:url(#radial-gradient-39);}.cls-208{fill:url(#radial-gradient-40);}.cls-209{fill:url(#radial-gradient-41);}.cls-210{fill:url(#radial-gradient-42);}.cls-211{fill:url(#radial-gradient-43);}.cls-212{fill:url(#radial-gradient-44);}.cls-213{fill:url(#radial-gradient-45);}.cls-214{fill:url(#radial-gradient-46);}.cls-215{fill:url(#radial-gradient-47);}.cls-216{fill:url(#radial-gradient-48);}.cls-217{fill:url(#radial-gradient-49);}.cls-218{fill:url(#radial-gradient-50);}.cls-219{fill:url(#radial-gradient-51);}.cls-220{fill:url(#radial-gradient-52);}.cls-221{fill:url(#radial-gradient-53);}.cls-222{fill:url(#radial-gradient-54);}.cls-223{fill:url(#radial-gradient-55);}</style><radialGradient id="radial-gradient" cx="319.65" cy="144.53" r="13.45" gradientUnits="userSpaceOnUse"><stop offset="0" stop-color="#434345"/><stop offset="1" stop-color="#231f20"/></radialGradient><radialGradient id="radial-gradient-2" cx="319.59" cy="146.25" r="13.35" xlink:href="#radial-gradient"/><radialGradient id="radial-gradient-3" cx="319.52" cy="147.97" r="13.25" xlink:href="#radial-gradient"/><radialGradient id="radial-gradient-4" cx="319.46" cy="149.7" r="13.14" xlink:href="#radial-gradient"/><radialGradient id="radial-gradient-5" cx="319.39" cy="151.48" r="13.04" xlink:href="#radial-gradient"/><radialGradient id="radial-gradient-6" cx="319.32" cy="153.27" r="12.93" xlink:href="#radial-gradient"/><radialGradient id="radial-gradient-7" cx="319.26" cy="154.99" r="12.83" xlink:href="#radial-gradient"/><radialGradient id="radial-gradient-8" cx="319.2" cy="156.71" r="12.73" xlink:href="#radial-gradient"/><radialGradient id="radial-gradient-9" cx="319.13" cy="158.43" r="12.62" xlink:href="#radial-gradient"/><radialGradient id="radial-gradient-10" cx="319" cy="160.22" r="12.47" xlink:href="#radial-gradient"/><radialGradient id="radial-gradient-11" cx="320.08" cy="130.32" r="13.25" gradientTransform="translate(-94.13) scale(1.29 1)" gradientUnits="userSpaceOnUse"><stop offset="0" stop-color="#7b7c7f"/><stop offset="1" stop-color="#565759"/></radialGradient><radialGradient id="radial-gradient-12" cx="320.02" cy="132.05" r="13.14" xlink:href="#radial-gradient-11"/><radialGradient id="radial-gradient-13" cx="319.95" cy="133.83" r="13.04" xlink:href="#radial-gradient-11"/><radialGradient id="radial-gradient-14" cx="319.89" cy="135.62" r="12.93" xlink:href="#radial-gradient-11"/><radialGradient id="radial-gradient-15" cx="319.82" cy="137.34" r="12.83" xlink:href="#radial-gradient-11"/><radialGradient id="radial-gradient-16" cx="319.76" cy="139.06" r="12.73" xlink:href="#radial-gradient-11"/><radialGradient id="radial-gradient-17" cx="319.69" cy="140.78" r="12.62" xlink:href="#radial-gradient-11"/><radialGradient id="radial-gradient-18" cx="319.56" cy="142.57" r="12.47" xlink:href="#radial-gradient-11"/><radialGradient id="radial-gradient-19" cx="137.42" cy="77.22" r="54.94" xlink:href="#radial-gradient"/><linearGradient id="linear-gradient" x1="399.1" y1="44.79" x2="416.52" y2="44.79" gradientTransform="translate(1.06 43.13) rotate(-5.88)" gradientUnits="userSpaceOnUse"><stop offset="0" stop-color="#d1d3d4"/><stop offset="1" stop-color="#6d6e71"/></linearGradient><linearGradient id="linear-gradient-2" x1="381.47" y1="64.46" x2="405.32" y2="64.46" gradientTransform="matrix(0.96, -0.28, 0.28, 0.96, 14.66, 111.78)" xlink:href="#linear-gradient"/><linearGradient id="linear-gradient-3" x1="395.57" y1="52.43" x2="396.93" y2="52.43" gradientTransform="translate(13.39 98.69) rotate(-14.69)" xlink:href="#linear-gradient"/><linearGradient id="linear-gradient-4" x1="268.77" y1="188.02" x2="268.77" y2="209.08" gradientUnits="userSpaceOnUse"><stop offset="0" stop-color="#c4c6c8"/><stop offset="1" stop-color="#231f20"/></linearGradient><clipPath id="clip-path"><circle class="cls-1" cx="338.25" cy="178.92" r="8.27"/></clipPath><radialGradient id="radial-gradient-20" cx="338.33" cy="177.57" r="5.98" gradientUnits="userSpaceOnUse"><stop offset="0" stop-color="#c4c6c8"/><stop offset="1" stop-color="#7b7c7f"/></radialGradient><radialGradient id="radial-gradient-21" cx="338.33" cy="176.81" r="5.98" xlink:href="#radial-gradient-20"/><radialGradient id="radial-gradient-22" cx="338.45" cy="175.98" r="5.98" xlink:href="#radial-gradient-20"/><radialGradient id="radial-gradient-23" cx="338.45" cy="175.23" r="5.98" xlink:href="#radial-gradient-20"/><radialGradient id="radial-gradient-24" cx="338.45" cy="174.47" r="5.98" xlink:href="#radial-gradient-20"/><radialGradient id="radial-gradient-25" cx="338.45" cy="173.71" r="5.98" xlink:href="#radial-gradient-20"/><radialGradient id="radial-gradient-26" cx="338.33" cy="182.15" r="5.98" xlink:href="#radial-gradient-20"/><radialGradient id="radial-gradient-27" cx="338.33" cy="181.42" r="5.98" xlink:href="#radial-gradient-20"/><radialGradient id="radial-gradient-28" cx="338.45" cy="180.59" r="5.98" xlink:href="#radial-gradient-20"/><radialGradient id="radial-gradient-29" cx="338.45" cy="179.84" r="5.98" xlink:href="#radial-gradient-20"/><radialGradient id="radial-gradient-30" cx="338.45" cy="179.08" r="5.98" xlink:href="#radial-gradient-20"/><radialGradient id="radial-gradient-31" cx="338.45" cy="178.32" r="5.98" xlink:href="#radial-gradient-20"/><radialGradient id="radial-gradient-32" cx="338.45" cy="184.4" r="5.98" xlink:href="#radial-gradient-20"/><radialGradient id="radial-gradient-33" cx="338.45" cy="183.63" r="5.98" xlink:href="#radial-gradient-20"/><radialGradient id="radial-gradient-34" cx="338.45" cy="182.88" r="5.98" xlink:href="#radial-gradient-20"/><radialGradient id="radial-gradient-35" cx="335.51" cy="137.19" r="5.65" gradientTransform="matrix(1, 0, 0, 1, 0, 0)" xlink:href="#radial-gradient-11"/><radialGradient id="radial-gradient-36" cx="437.66" cy="95.14" r="5.61" gradientTransform="matrix(1, 0, 0, 1, 0, 0)" xlink:href="#radial-gradient-11"/><radialGradient id="radial-gradient-37" cx="439.13" cy="96.85" r="5.61" gradientTransform="matrix(1, 0, 0, 1, 0, 0)" xlink:href="#radial-gradient-11"/><radialGradient id="radial-gradient-38" cx="439.69" cy="99.1" r="5.61" gradientTransform="matrix(1, 0, 0, 1, 0, 0)" xlink:href="#radial-gradient-11"/><radialGradient id="radial-gradient-39" cx="441.16" cy="100.81" r="5.61" gradientTransform="matrix(1, 0, 0, 1, 0, 0)" xlink:href="#radial-gradient-11"/><radialGradient id="radial-gradient-40" cx="441.82" cy="102.97" r="5.61" gradientTransform="matrix(1, 0, 0, 1, 0, 0)" xlink:href="#radial-gradient-11"/><radialGradient id="radial-gradient-41" cx="443.29" cy="104.68" r="5.61" gradientTransform="matrix(1, 0, 0, 1, 0, 0)" xlink:href="#radial-gradient-11"/><radialGradient id="radial-gradient-42" cx="443.85" cy="106.93" r="5.61" gradientTransform="matrix(1, 0, 0, 1, 0, 0)" xlink:href="#radial-gradient-11"/><radialGradient id="radial-gradient-43" cx="445.32" cy="108.64" r="5.61" gradientTransform="matrix(1, 0, 0, 1, 0, 0)" xlink:href="#radial-gradient-11"/><radialGradient id="radial-gradient-44" cx="445.44" cy="110.62" r="5.61" gradientTransform="matrix(1, 0, 0, 1, 0, 0)" xlink:href="#radial-gradient-11"/><radialGradient id="radial-gradient-45" cx="446.91" cy="112.33" r="5.61" gradientTransform="matrix(1, 0, 0, 1, 0, 0)" xlink:href="#radial-gradient-11"/><radialGradient id="radial-gradient-46" cx="447.47" cy="114.58" r="5.61" gradientTransform="matrix(1, 0, 0, 1, 0, 0)" xlink:href="#radial-gradient-11"/><radialGradient id="radial-gradient-47" cx="448.94" cy="116.29" r="5.61" gradientTransform="matrix(1, 0, 0, 1, 0, 0)" xlink:href="#radial-gradient-11"/><radialGradient id="radial-gradient-48" cx="449.29" cy="118.47" r="5.61" gradientTransform="matrix(1, 0, 0, 1, 0, 0)" xlink:href="#radial-gradient-11"/><radialGradient id="radial-gradient-49" cx="450.76" cy="120.18" r="5.61" gradientTransform="matrix(1, 0, 0, 1, 0, 0)" xlink:href="#radial-gradient-11"/><radialGradient id="radial-gradient-50" cx="451.32" cy="122.43" r="5.61" gradientTransform="matrix(1, 0, 0, 1, 0, 0)" xlink:href="#radial-gradient-11"/><radialGradient id="radial-gradient-51" cx="452.29" cy="124.36" r="5.61" gradientTransform="matrix(1, 0, 0, 1, 0, 0)" xlink:href="#radial-gradient-11"/><radialGradient id="radial-gradient-52" cx="452.29" cy="126.47" r="5.61" gradientTransform="matrix(1, 0, 0, 1, 0, 0)" xlink:href="#radial-gradient-11"/><radialGradient id="radial-gradient-53" cx="453.76" cy="128.18" r="5.61" gradientTransform="matrix(1, 0, 0, 1, 0, 0)" xlink:href="#radial-gradient-11"/><radialGradient id="radial-gradient-54" cx="454.32" cy="130.43" r="5.61" gradientTransform="matrix(1, 0, 0, 1, 0, 0)" xlink:href="#radial-gradient-11"/><radialGradient id="radial-gradient-55" cx="455.79" cy="132.94" r="5.61" gradientTransform="matrix(1, 0, 0, 1, 0, 0)" xlink:href="#radial-gradient-11"/></defs><g class="cls-2"><g id="Layer_2" data-name="Layer 2"><g id="Layer_23" data-name="Layer 23"><polygon points="124.97 101.75 125.9 107.41 137.42 113.13 140.08 107.9 124.97 101.75"/><path d="M98,195.89l2.93-9.14s3.55-1.82,5.17-1.56,4,2.2,3.16,4.13-1.74,7.66-1.74,7.66L98,197Z"/><path class="cls-3" d="M274.24,98s-8.09,9.62-8.83,18.45-.79,53.46-.79,53.46"/><path class="cls-4" d="M252.48,98.35s1.9,10.82,0,19.89-7.43,23.47,5.08,30.5c3.93,1.75,13.51,1,13.51,1"/><path d="M271.73,114.92c.17-.24,4.66-4.21,10.7,0,1.16,1.23-.66.51-.66.51v1.95l-9.24-.48v-1.68S271,116,271.73,114.92Z"/><path class="cls-5" d="M269.64,126.93l1.9-.25.35-.47.64-9.31,9.24.48v9.42l1.05.51h11l.8-1.1,1.24.59L297.09,141l-2.1.14-.67-1.15-10.25-.16v2.64l-2,1.34-1,5a3.57,3.57,0,0,1-1.58,2.17,8.46,8.46,0,0,0-2.34,3.05l-.76,1.37-5.35.23L270,152.05s-.93-3.62-1.59-4.41c-.5-1.07.31-9.18.31-9.18Z"/><path class="cls-6" d="M269.64,126.93s-6.91,1.27-10.1-1a9.17,9.17,0,0,1-2.25-1.52,33.51,33.51,0,0,1-.62,15.41c1.05-.92,5.94-2.21,12.06-1.09C269.07,138.41,272.89,131.94,269.64,126.93Z"/><path class="cls-6" d="M256.79,139.56c-.33-.2-1.29-1.87-1.44-7.91,0-.05,0-5.2,1.45-6.67a1.12,1.12,0,0,1,.68-.35,28.08,28.08,0,0,1,.47,7A34.47,34.47,0,0,1,256.79,139.56Z"/><path class="cls-7" d="M257.26,125a28.78,28.78,0,0,1,.41,6.62,41.36,41.36,0,0,1-1,7.32c-.36-.71-.95-2.58-1.07-7.28,0-1.41.22-5.32,1.37-6.47a1,1,0,0,1,.26-.19m.31-.64c-2.55,0-2.5,7.3-2.5,7.3.16,6.54,1.25,8.21,1.76,8.21a.21.21,0,0,0,.19-.11c.72-1.9,1-5,1.21-8.1a23.66,23.66,0,0,0-.59-7.3Z"/><path class="cls-8" d="M258.28,126.21a22.43,22.43,0,0,0,7.26,2,21,21,0,0,0,4.49-.64,7.77,7.77,0,0,1,.9,4.4c-1.95-.61-10.25-1.65-12.25-.77A20.21,20.21,0,0,0,258.28,126.21Z"/><path class="cls-9" d="M258.63,132.48s-.05,4.61-1,6.58c.9-.6,6.79-1.88,11.1-.6a22.17,22.17,0,0,0,1.87-6.08C269.6,132.84,258.63,132.48,258.63,132.48Z"/><path class="cls-10" d="M270.37,133.83a38,38,0,0,1-1.46,4.16c-.89,0-2.13-1.74-7.94-.8-1.82.13-2.67,0-1.2-.8a11.36,11.36,0,0,1,6.54-2C269.88,134.36,270.37,133.83,270.37,133.83Z"/><path class="cls-11" d="M258.82,136.75s3.87-2.77,8.2-2.39a11.64,11.64,0,0,0,3.35-.53c.38-.22-.52,1.79-.52,1.79a35.27,35.27,0,0,0-5.46-.34,28.09,28.09,0,0,0-5.37,1.77C258.72,137.37,258.43,137,258.82,136.75Z"/><path class="cls-11" d="M270.17,132.48s-8.2-1.21-8.92-1.24-.28-.36.57-.33,6.21.16,8.64,1C270.93,132,270.17,132.48,270.17,132.48Z"/><polygon class="cls-12" points="284.85 130.66 294.44 130.32 295.44 132.94 284.45 133.5 284.85 130.66"/><polygon class="cls-13" points="284.45 134.66 295.44 134.17 295.33 135.72 284.45 135.98 284.45 134.66"/><path class="cls-14" d="M269.08,140.76l13.74.42s.43.63.32.8a10.83,10.83,0,0,1-1.49.93s-1.45,6.49-2.13,6.79a9.29,9.29,0,0,1-5.53,1.09c-2.93-.36-5.26-3.67-5.26-3.67Z"/><line class="cls-15" x1="268.59" y1="139.97" x2="284.07" y2="140.44"/><path class="cls-16" d="M269.87,137s4.09-.33,4.67-1.28a4.48,4.48,0,0,0,.67-4c-.4.73-.8,3.3-2.32,3.59a5.53,5.53,0,0,1-2.81-.21l-.48,2.12Z"/><polygon class="cls-17" points="284.07 141.02 268.59 140.64 268.6 140.21 284.08 140.58 284.07 141.02"/><path class="cls-14" d="M273.18,117.38l5.49.3a1.91,1.91,0,0,0,0,.69,2,2,0,0,1-.42,1.38c-.34.43-.34,6.17-.34,6.17s.72,1,1.14.8,1.56,3.34,1.59,4.18,0,4.72,0,4.72a8.55,8.55,0,0,1-.57,2.06c-.26.23.34,2.08,1,2.13-1.14.05-11.61-.41-11.61-.41s.23-1.61.94-1.87,5.35,0,5.77-4.39-4.27-2.82-4.27-2.82a5,5,0,0,0-.93-2.84c1-.34,1.78-1.5,1.95-4.68Z"/><path class="cls-18" d="M270.61,127.31a11.3,11.3,0,0,1,.93,4.6c-.17,2.16-1.06,3.19,0,3.16s2.43,1.06,3.49-3c.05-.9-.15-1.66-1.89-1.91A10.57,10.57,0,0,1,270.61,127.31Z"/><path class="cls-19" d="M279.35,117.38l2.07.18v8.36a7.06,7.06,0,0,0,.67,1.52c-.71-.13-2.53-.09-2.57-1.52S279.35,117.38,279.35,117.38Z"/><path class="cls-15" d="M284.07,139.81c.42-11.71-1.25-12.5-1.25-12.5"/><path class="cls-19" d="M284.14,136.39s1.5,1.29,5.13,1.29,5.73-.63,6.17-1.07.53-7,0-8.62a4.32,4.32,0,0,1-.8-1.78l3.38-.29L297.09,141l-2.1.14-.67-1.15-10.25-.16Z"/><path d="M344.81,114.06c-.2-6.28-2.11-5.86-2.11-5.86a10.07,10.07,0,0,1-3.22-1.5v-1.89h-2.35c0,.61-.06,1.22-.13,1.74a1.84,1.84,0,0,1-1.57,1.82h-3.68a2.54,2.54,0,0,1-2.55-2.55l-.08-1h-1.58c0,.08,0,.16,0,.24.12,1.84-.22,2.48-2.77,2.78s-2,4.8-2,4.8v18.1l7.16,4.13,14.8-4.13S345,120.34,344.81,114.06Z"/><path d="M310.32,105.82a2.54,2.54,0,0,1-2.55,2.55h-3.68a1.84,1.84,0,0,1-1.57-1.82,15.34,15.34,0,0,1-.12-1.74h-2.35v1.89a10.07,10.07,0,0,1-3.22,1.5s-1.91-.42-2.1,5.86.06,16.67.06,16.67l14.8,4.13,7.17-4.13v-18.1s.54-4.51-2-4.8-2.89-.94-2.77-2.78c0-.08,0-.16,0-.24H310.4Z"/><rect class="cls-20" x="294.75" y="111.03" width="21.93" height="0.96"/><rect class="cls-20" x="294.75" y="112.49" width="21.93" height="0.96"/><rect class="cls-20" x="294.75" y="113.96" width="21.93" height="0.96"/><rect class="cls-20" x="294.75" y="115.43" width="21.93" height="0.96"/><rect class="cls-20" x="294.75" y="116.9" width="21.93" height="0.96"/><rect class="cls-20" x="294.75" y="118.37" width="21.93" height="0.96"/><rect class="cls-20" x="294.75" y="119.84" width="21.93" height="0.96"/><rect class="cls-20" x="294.75" y="121.3" width="21.93" height="0.96"/><polygon class="cls-21" points="294.78 129.89 296.49 143.32 341.11 143.32 344 129.45 294.78 129.89"/><polygon points="302.67 142.84 303.51 166.34 334.44 166.34 336.64 142.84 302.67 142.84"/><polygon class="cls-22" points="338.67 144.19 300.63 144.19 300.66 144.87 338.59 144.87 338.67 144.19"/><polygon class="cls-23" points="300.74 146.59 338.38 146.59 338.46 145.92 300.71 145.92 300.74 146.59"/><polygon class="cls-24" points="300.82 148.31 338.17 148.31 338.25 147.64 300.79 147.64 300.82 148.31"/><polygon class="cls-25" points="300.9 150.03 337.96 150.03 338.04 149.36 300.87 149.36 300.9 150.03"/><polygon class="cls-26" points="300.99 151.82 337.74 151.82 337.83 151.15 300.96 151.15 300.99 151.82"/><polygon class="cls-27" points="301.07 153.61 337.53 153.61 337.61 152.93 301.04 152.93 301.07 153.61"/><polygon class="cls-28" points="301.15 155.33 337.32 155.33 337.4 154.65 301.12 154.65 301.15 155.33"/><polygon class="cls-29" points="301.23 157.05 337.11 157.05 337.19 156.37 301.2 156.37 301.23 157.05"/><polygon class="cls-30" points="301.31 158.77 336.9 158.77 336.98 158.09 301.28 158.09 301.31 158.77"/><polygon class="cls-31" points="336.63 159.88 301.36 159.88 301.39 160.56 336.63 160.56 336.63 159.88"/><polygon class="cls-32" points="294.36 130.66 342.5 130.66 342.61 129.99 294.32 129.99 294.36 130.66"/><polygon class="cls-33" points="294.47 132.38 342.23 132.38 342.34 131.71 294.43 131.71 294.47 132.38"/><polygon class="cls-34" points="294.57 134.17 341.95 134.17 342.06 133.5 294.54 133.5 294.57 134.17"/><polygon class="cls-35" points="294.68 135.96 341.67 135.96 341.78 135.28 294.64 135.28 294.68 135.96"/><polygon class="cls-36" points="294.79 137.68 341.4 137.68 341.51 137 294.75 137 294.79 137.68"/><polygon class="cls-37" points="294.89 139.4 341.13 139.4 341.24 138.72 294.85 138.72 294.89 139.4"/><polygon class="cls-38" points="294.99 141.12 340.87 141.12 340.97 140.44 294.95 140.44 294.99 141.12"/><polygon class="cls-39" points="340.51 142.23 295.06 142.23 295.1 142.91 340.51 142.91 340.51 142.23"/><path class="cls-21" d="M347.52,129.3l.3-2.28s.14-1.07-2.13-1.1-5.53,0-5.53,0-3.45.08-5,4.68c-.33,3.07-1.48,8.22,3.48,13.6,2.66,1.75,3.76,1.9,4.53,1.72s5.12-2.17,5.12-2.17,1-2.91,0-2.93S347.52,129.3,347.52,129.3Z"/><path class="cls-40" d="M347.52,129.3s-6.7-3.78-7.36,3c0,4.8.61,8.57,4.42,9.92,2.2.88,3.78-.75,3.74-1.38S347.52,129.3,347.52,129.3Z"/><path class="cls-41" d="M216.41,107.41l.36.49,15.91,22s.15,3.17.08,5.15,1.57,34.72,1.57,34.72L234,186.61l-18.5-1.76-20.23-28.48-3.14-28.69s-12.44-19.75-33.9-26.86c-10.42-2.57-13-4-13-4l62.25,2.5Z"/><path class="cls-42" d="M212.31,151.37c-.48-.53-13.59.72-9.28-13.44s8.32-18.48,11.69-22.32,7.55,3.42,7.55,3.42,7.7,8.17,9.2,15a34.8,34.8,0,0,1,.73,11.72Z"/><path class="cls-43" d="M198.58,150.91s6.34-25.74,17.83-29.48c3.06-.75,9.51-2.44,16.27,8.46l-16.27-22.48s-8.41,2.4-15,18.51c-1.94,5.49-3.52,6.72-3.11,16.28C198.35,148.42,198.58,150.91,198.58,150.91Z"/><path class="cls-4" d="M223,131.24s26.2,14.18,27.19,22.72,1.24,13.25-2.88,18.2a27.17,27.17,0,0,1-10.41,7.21"/><path class="cls-44" d="M248.28,175.7s12.17-8.4,23.07-9,20.24,3.5,22.76,4.59,3.66,18,3.66,18L273.63,195l-23.92-1Z"/><path class="cls-3" d="M334.1,229s29-4.4,35.13-34"/><path class="cls-3" d="M332.59,231.19s30.6-.51,37.69-36.19"/><path class="cls-44" d="M343.53,222.45s-8.59,8.46-12.74,10.71-5.36,2.39-6.16,2.52-78.58.41-78.86.41-26.69-9.25-26.56-9.79-4.15-14.93-4.15-14.93l62.23-3.85L325,206.7Z"/><path d="M347.12,175.8l10.06-.92,1.95,14.45-.57,3L349.64,206a5.89,5.89,0,0,0-2,4.65c.15,2.92-.42,10.72-6.83,13.6s-17,6.66-33.91,5.62a20.31,20.31,0,0,1-14-8.17l41.79-41.3Z"/><polygon points="369.84 197.64 365.14 190.59 367.49 184.05 373.33 182.98 369.84 197.64"/><polygon points="296.82 169.64 297.29 167.56 299.72 166.74 300.13 165.19 303.45 164.8 334.1 164.47 336.98 164.97 337.4 166.34 339.81 167.06 341.34 169.64 314.91 173.92 295.19 172.37 296.82 169.64"/><path class="cls-45" d="M232.2,186.42V169H242s3.05.3,6.25,4.86,8,16.71,8,16.71l-9.56-1.27Z"/><circle class="cls-46" cx="241.62" cy="174.29" r="1.81"/><path class="cls-47" d="M234.33,169.76h6.72a11.41,11.41,0,0,1,7.23,5.94,98.26,98.26,0,0,1,5,11.41,33.2,33.2,0,0,0-7.5-15.22C243.78,170.21,243.09,168.61,234.33,169.76Z"/><path class="cls-48" d="M233.69,169l9.73,13.62s5-.39,7,.91,5.9,7,5.9,7l-5-.66,1.93-1.9a12.56,12.56,0,0,0-4.14-3.64,39.73,39.73,0,0,0-6.65.11L232.2,169Z"/><path d="M253.27,188l3.56,2.34,2.91,9.45-6.47,24.12-16.71-6s-3.2-16.54-2.87-17.41S253.27,188,253.27,188Z"/><polygon class="cls-49" points="282.1 188.54 291.92 186.42 297.29 193.89 291.17 195.56 282.1 188.54"/><path class="cls-49" d="M278.84,221.57s24-8.63,13.44-25.38c-2.58-.56,1.19-6.87,1.19-6.87s17,21,23.7,24.38C314.31,216.24,301.67,223.79,278.84,221.57Z"/><path class="cls-50" d="M295.64,200.77a10,10,0,0,1,2.36,8.31c-1,4.83-2.89,8.26-4.53,9.63,1.92.41,8.9-.55,14.51-3.29,2.33-1.09,5.92-3.58,9.19-1.72-1.37,1.05-7.79,8.27-31.95,8.27C288.68,219.94,298,213.64,295.64,200.77Z"/><path class="cls-51" d="M250.84,220.73s-7.73-5.54-10.33-11.65c-1.48-3.7,3.74-9,3.74-9s6.93-12.27,29-12.93c9.49-.8,20.73,7.12,23.58,15.15,2.17,5.86-3.66,19.14-16.94,21.31S254,222.22,250.84,220.73Z"/><path d="M203,236.6v7.74s.67,1.13,3.46,1.85S217.87,251,217.87,251a73.67,73.67,0,0,0,7.77,0c3.62-.24,31.19-1.53,31.19-1.53s5.74-.15,9-3.3S203,236.6,203,236.6Z"/><path class="cls-52" d="M417,96.85s-7.43,37.4,12.67,55"/><path d="M438.7,52.7s.89,1.23-2,1.75-10.54-1.37-13.21-.25-7.07-9.55-7.07-9.55L425.51,39,435,44Z"/><path d="M92.41,138.13A64.07,64.07,0,1,1,28.35,202.2a64.14,64.14,0,0,1,64.06-64.07m0-28.34a92.41,92.41,0,1,0,92.42,92.41,92.41,92.41,0,0,0-92.42-92.41Z"/><path d="M489.33,146.22a62.86,62.86,0,1,1-62.85,62.86,62.93,62.93,0,0,1,62.85-62.86m0-22.67a85.53,85.53,0,1,0,85.54,85.53,85.53,85.53,0,0,0-85.54-85.53Z"/><path class="cls-20" d="M26.78,107.9S56.66,87.8,81.39,84.16c8.61-.18,61.66,13.32,68.6,19s33.37,34.1,39.87,54.55c2.85,10,.13,23.85.13,23.85l-32.06-50.35s-9.45-23-37.57-30.42c-27.16-7.16-35.29-4.2-51.77-.41a19.56,19.56,0,0,0-3.73,1.28,127,127,0,0,0-15.77,8.57,31.82,31.82,0,0,1-6,.25c-2.23-.25-19.34-.25-19.34-.25A24.56,24.56,0,0,1,26.78,107.9Z"/><path d="M90.26,88.34S69.07,84.9,63.54,83.12c-2.5-.36-2.32,4.91,1.25,5.22S105.24,97,123.29,98c-1.23-.45-3.11-5-3.11-5Z"/><path d="M147.2,107.9s4.1-7.84,6.24-8.37,56.85,3,56.85,3L219.4,98s-18-.93-19.51-1.1-60.7-1.24-60.7-1.24Z"/><path d="M120.36,95l6.92,10.13s1.52,1.3,6.28,2,4.62-3.25,8.59,1.51,41.9,65.41,44.91,73c1.08,1.08,2.93,0,2.93,0l.15-7.71L139.19,95.61Z"/><path d="M237.32,99.65,377.07,97.9s6.63-.3,9.55-2.15c-.8,7.16-19.1,115.63-19.1,115.63s-9.28,20.42-42.16,22.28S211.05,235,211.05,235s-3.58,4.25,1.26,5,121.8,0,121.8,0,28.11,0,39.51-26.78c2.39-11.67,17-92.83,17-92.83s11.89-23.34,15.09-26.26c2.68-1.59,5.59-1.59,6.66,1.6s2.65,6.89,2.65,6.89.79-1.06,3.71-1.86S431,92.72,431,92.72L402.51,34.21,385,46.68,270.29,91.93l-28.21-.69s-13.26.53-19.89,4.51S195,107,190.24,134.15a10.76,10.76,0,0,0-.17,1.7c-.49,15.3,0,55.9,0,55.9l-118,3.72v14.85l113.78-2.92s5.31,8.22,8,8.75,3.45,6.1,3.45,6.1l39.25,11.14-17.77-17-9-1.86s-8.22,2.92-9-6.36a142.3,142.3,0,0,1,0-19.63,12.61,12.61,0,0,1,7.7-2.12c4.5.26,19.89-.53,19.89-.53l-.8-11.67-9.55-10.08-5.63-4.51a152.64,152.64,0,0,0-13.73-8.75c-.79-5.83,0-16.44,0-16.44s4.35-19.42,15.92-26C227.28,101.21,234.66,99.87,237.32,99.65Z"/><path class="cls-53" d="M62.53,73.2s26.25-18.83,62.59-16.44c2.12,1.59,0,11.93,0,11.93s-2.39,5.57,9.81,6.9c10.87,1.32,47.21,8.49,73.2,8.49,3.45,1.06,5,2.12,3.71,5.57s-2.65,7.42-2.65,7.42-4.24,1.86-15.65,0c-11.4.27-63.38-1.32-63.38-1.32S99.92,95,79,82.75C72.07,79.83,62.53,73.2,62.53,73.2Z"/><path class="cls-54" d="M209.13,84.72s.45,4-2.4,4.93-42.21-5-42.21-5L111.51,73s-6.54-2-5.69-8.11,1-7.58,1-7.58S80.63,60,62.53,73.2c3.29,2.19,24.82,18.93,54.66,21.35,11.53,1.13,64.94,2.48,76.35,2.52,4.1.46,12.42,1.38,15.65,0l3.08-9A3.81,3.81,0,0,0,209.13,84.72Z"/><path class="cls-55" d="M62.53,73.2S95.45,92,120.18,93s89.46,2.76,89.46,2.76,1.47,2.83-7.31,2.07c-7.82-.42-8.79-.75-8.79-.75s-58.3-.58-64.41-1.32c-4.12-.2-18.9-1.33-29.7-4.89C88.63,87.45,75.94,83,62.53,73.2Z"/><path class="cls-55" d="M122.57,71.46s2.58-9.59.31-11.58c-2.7-1-18.34.71-24.3,1.56S79.77,66,72.07,70.11c-1.49,1.57.64,3.62,5,3.09s48,3.31,54.86,5,50.32,6.63,54,7.37,10,2.71,15.35,4.07,9.1,1.45,8.4-1.91-3.14-2.85-4.7-2.85-41.5-2.27-79.74-10.8A4.33,4.33,0,0,1,122.57,71.46Z"/><path d="M211.34,86c-.26-.2-4.85,11.57-4.85,11.57s2.24.28,2.7-.45c1.08-1.69,3.08-9,3.08-9A4.22,4.22,0,0,0,211.34,86Z"/><path class="cls-56" d="M134.76,76.08s-10.43-1-13-4.54c-.85-2.13,1.79-7.79,1.81-8.1s1.62-5.62-2.45-5.2c-4,.62-4.59,10.44-2.5,12.94s7.1,4.07,8,4.39,18.58,2.82,22.86,3.65S185,84.13,185,84.13l12.32,3.13c2.5.63,11.49,1.85,11.79.63s-1.24-2.92-2-3-12.54-.58-20.26-1.63C177.56,82.15,137.17,76.58,134.76,76.08Z"/><path class="cls-57" d="M72.07,73.31s27.61-.19,50.53,3.5c5,2.39,6.46,4.59,10.9,8.76s16.84,7.69,25.53,7.69S183.27,95,183.27,95l-63.09-2s-14-.84-26.76-5.85S68.19,76.22,68.19,76.22,63.19,73.2,72.07,73.31Z"/><path class="cls-57" d="M207.12,95s2.54-1.89-5.79-5.36S159,81.14,144.14,80.17c-4.29-.61-.65,4.32,1.76,4S161,93.91,163.27,94.42,207.12,95,207.12,95Z"/><path class="cls-58" d="M198.28,85s7.28-1.29,9.88.56c1.24,1.09,3,1.71,1.66,5s-2.63,2.69-2.7,1.34.63-3.2-1.41-4.31-7.43-1.23-7.43-1.23S196.84,85.54,198.28,85Z"/><path class="cls-58" d="M101.81,63.78c.69-.24,16.92-2.79,19.32-1.56s1.08,6.63.48,7.45,2.28,4.43-16.56,1.91C98,69.3,90.31,67.69,101.81,63.78Z"/><path class="cls-58" d="M117.94,74.3s20.92,2.28,34.55,4.8c2.08.24,3.6,1,1.84,1s-37.75-5.07-37.75-5.07S114.18,74.38,117.94,74.3Z"/><polygon class="cls-59" points="337.04 31.13 337.42 27.98 353.3 29.08 353.38 31.86 337.04 31.13"/><polygon class="cls-59" points="332.89 25.56 332.75 28.05 356.9 29.64 356.98 27.46 332.89 25.56"/><path class="cls-60" d="M332.89,25.56s4.09-2.15,12.21-1.37S357,27.46,357,27.46Z"/><polygon class="cls-61" points="335.36 25.76 336.61 27.96 353.79 29.19 355.47 27.3 335.36 25.76"/><polygon class="cls-62" points="333.13 25.61 356.98 27.46 356.92 27.78 352.52 27.61 350.37 28.69 340.97 27.82 337.77 26.38 332.87 25.94 333.13 25.61"/><path class="cls-63" d="M337.71,24.27s-2.34.93-.65,1.17S353,26.6,353,26.6s1.63-.16.05-.86a17,17,0,0,1,4,1.72l-24.09-1.9A15.91,15.91,0,0,1,337.71,24.27Z"/><path class="cls-64" d="M336.84,26s3.48.83,3.54.87,2,.67,2.43.77,7,.5,7,.5.89-.31,1.07-.41,1-.11,1.3-.24,1.27-.11,1.31-.17S336.73,26,336.73,26Z"/><path class="cls-65" d="M338.52,24.18a38.61,38.61,0,0,1,13,1.12c.58.16.43.56-1.78.27a57.7,57.7,0,0,0-6.94-.87C340.48,24.75,336.76,25,338.52,24.18Z"/><path class="cls-66" d="M226.16,89.65l41.38-1.33A13.94,13.94,0,0,0,280,95.75c9,0,112.72-3.72,112.72-3.72s20.69-1.59,9.81-26.52c-6.1-11.67-16.18-30-43.49-33.42-12.73-1.85-69.75-7.42-117.23,19.1C236,56,225.9,63.39,226.16,89.65Z"/><path class="cls-67" d="M267.54,88.32s1.59-36.07,30.23-48.27c-8.22,1.59-54.37,6.36-66.3,31.83-1.59,6.36-5.31,17.77-5.31,17.77Z"/><path class="cls-68" d="M231.47,71.88S240,50.47,279.85,43.29c7.74-1.54,17.92-3.24,17.92-3.24s-15.93,7-23,22.2c-2.88,6.52-5.5,12-7.2,25.31C265.62,80.4,266.06,49.47,231.47,71.88Z"/><path d="M362,47.67c6.68,0,12,2.63,18.2,6.06,4.28,2.36,9.42,7.13,10.52,11.34a4.32,4.32,0,0,1-.39,3.55c-1.9,3.07-5.9,6.28-8.91,8.43a13.18,13.18,0,0,1-7.51,2.48l-93.24,1.23c2.9-6.05,10-20,15.54-24.62,6.79-5.64,16.77-6.55,17.35-6.6,1.47-.06,39.42-1.49,47.28-1.84l1.16,0m0-2-1.24,0c-8.07.36-47.32,1.84-47.32,1.84s-10.93.78-18.5,7S277.5,82.79,277.5,82.79l96.4-1.28a15.23,15.23,0,0,0,8.64-2.84c3.19-2.28,7.38-5.66,9.45-9,3.62-5.82-4.61-14.23-10.86-17.68-5.93-3.27-11.71-6.3-19.16-6.3Z"/><path class="cls-69" d="M283.22,79.58l.18-.4c.34-.79,8.49-19.27,17.56-24.64l.52-.25A27.6,27.6,0,0,1,315.16,51c6.83-.07,46.55-1.83,46.95-1.85.06,0,6.55,0,15.37,4.76,5.61,3.21,9.44,6.09,11.21,10.54.74,1.74-.21,3.91-2.76,6.29-2,1.82-5.62,4.82-5.65,4.85s-3.54,2.24-11.16,2.19c-7.2.2-84.68,1.74-85.46,1.75Zm78.92-29.82h0c-.4,0-40.13,1.78-47,1.85a26.82,26.82,0,0,0-13.44,3.2l-.49.23c-8.17,4.83-15.86,21.17-17.13,24,6.38-.13,78.09-1.56,85-1.75h.29c7.27,0,10.51-2.06,10.54-2.08s3.66-3,5.6-4.81c1.65-1.53,3.44-3.75,2.62-5.65-1.7-4.31-5.45-7.12-11-10.26C368.76,49.84,362.53,49.76,362.14,49.76Z"/><path class="cls-70" d="M232.78,60.57c.36-.64-4.53,23-1.31,25a62.94,62.94,0,0,0,7.32,3.66l-12.63.41A52.76,52.76,0,0,1,232.78,60.57Z"/><path class="cls-70" d="M226.16,89.65l41.38-1.33s2.32,6.19,12.63,6.69c10-.53,114.68-4.48,114.68-4.48s9.31-2.86,9.45-13c-.14-3.53.15-7.16-8.95-24.1,5.08,12,10.88,22.86,6.09,29.59-1.58,2.43-2.87,6.79-16,6.62-12.46.25-102.8,4-102.8,4s-11.06,2.29-14.84-7.37c-4.92.64-41.74,1.31-41.74,1.31Z"/><path class="cls-71" d="M391.76,48.9s7.1,14.94,4.95,22.67-7.16,11.75-24.63,11.89-91.77,3-91.77,3-7.16.15-5.3-7.87,8.45-28.21,23.34-36.08c2-.86,2.58-2.29,6.44-4.15-7.59.57-27.63.81-55.26,15.08C243.23,57,233.37,62.38,229.77,76c-2.15,9.45-.86,13.64-.86,13.64l38.63-1.33s2.74,7.79,14.92,7.43,111.37-3.88,111.37-3.88,13.4-1.36,11.86-16.77C404.58,68.14,398.41,55.25,391.76,48.9Z"/><path class="cls-72" d="M360.77,34.92c.58-.14,16.75,3.15,25.63,11.31S398.86,71,398.86,75.73c0,5.29-5.87,12.53-8.59,9.84S386.83,84,386.83,72,383,57.07,370.08,53.44s-24.2-17.09-9.31-19.23"/><path class="cls-73" d="M249.53,53.44S268,42.65,304.79,38.36c2.29-.86,2.89-5-4-4.15S274.15,39.07,249,50.81C247.66,52,243.8,55.92,249.53,53.44Z"/><path class="cls-73" d="M278.43,54.82a38.85,38.85,0,0,1,15.29-12.64c3.12-1,7.35-3.07,12.1-3.82,3.14-.4-4.48,3.37-4.48,3.37S291,44.92,282.69,58.88c1.25-3,4.75-9.89,7.53-12.13,1.16-.9-.27-1-3.68,1.86s-9.85,7.66-15.19,22C275.19,61.41,278.43,54.82,278.43,54.82Z"/><path class="cls-74" d="M269.82,45.41s19-5.78,34.69-7c-2.42.82-12.89,2.69-21.81,11.43-8.39,8.08-17.64,4.21-17.51.92S269.82,45.41,269.82,45.41Z"/><path class="cls-75" d="M267.54,88.32s.25-7.13,3.81-17.75c.72-1.85,2.43-8,1.66-3.51s-9.4,20.79,5.05,25.47c5.62.69,114.15-3.77,114.15-3.77s11.87-3.14,10.32-12.82c-1-7.61-8.19-23.95-8.19-23.95s7.4,8.77,10.38,19.13c1,4,2.6,14.17-3.32,17.29-5.32,3.66-7.77,4-20,4.59-12.52.62-101.29,3.85-101.29,3.85s-7.87-.46-9.68-2.71A20,20,0,0,1,267.54,88.32Z"/><path class="cls-76" d="M277.5,93.62s100.87-1.76,117.85-4c2.8-1.45,8-3.61,8.95-12.11-1-4.18-2.54-6-3.7-4.23s-6.33,17.12-17,13.1S361.89,81.49,353,69,327.91,40.2,313.41,47.56s-18.75,16.6-13.59,23,8.69,13.38,1.05,17S277.5,93.62,277.5,93.62Z"/><path class="cls-77" d="M237,55.43a42.25,42.25,0,0,0-5.49,14.86c0,1.59,2.8-3.89,5.63-6.48,5.09-4.68,19.1-15,31.42-18.58s27.82-6.3,36.27-6.87c-3.9,2.43-16.46,2.43-26.77,17-2.87,5.58-6.67,15.17-6.67,15.17s8.42-20.66,18.41-24.77c1.14,0,1.94,1.19.1,3.26a64.37,64.37,0,0,0-15,30.35c-.12,2.31-.67,7.29,7.18,7L320,85s2.28-3.26-2.8-6.12-24.55-1.77-20.54-16.5,26.49-24.31,50.11-23,48.61,14.08,48.61,14.08a51.41,51.41,0,0,0-32.53-20.76c-22.38-4.34-55.93-2.22-75.31,2S244.29,47.73,237,55.43Z"/><path class="cls-73" d="M460,14.44a54,54,0,0,1,3.9,21.24c-.23,12.13-5,19.12-5,19.12Z"/><path class="cls-78" d="M423,39.34a3,3,0,0,1-.5-.65c-1-1.68-4.47-8.67.75-13.84,6-5.92,19.23-12,24.82-12.93,2.81-.31,7.72-.21,10.3,1.11A3.05,3.05,0,0,1,460,15.49c.56,6.74-.23,36.5-.23,36.5s0,6.15-5.06,6.36S443,54.77,437.89,52C433.32,49.48,424.61,41,423,39.34Z"/><path class="cls-20" d="M450.47,11.77s1.54,25.73-.38,45.92c.76.21.48.14.48.14s1.39-26.85,1-34.9-.38-11.16-.38-11.16Z"/><path class="cls-20" d="M460,14.44s.71,11,.6,19-.24,17.59-1.18,20.74c-.18-2.34,0-7.35-.54-9.36s-2.8-6.1-1.17-12c-.38-3.16-.29-3.27-.58-4.14s-1.34-2,0-4S459.26,19.75,460,14.44Z"/><path class="cls-79" d="M450.44,53.44s-10.29-5.43-12.3-7.72-3-8,.32-8.89,12.38-.43,12.52,4.3c.36-1.14.49-3.32,2.24-3.81,1.63-.21,6.42,1.69,6.42,1.69l-.38-11.54s-2.78,3.54-6.91,3.27c-.74-.33-1-4.58-1-4.58s.16,4.36-1.22,4.52c-1.94-.05-1.83-1.3-13.37-1.3-8.11,1.08-10.89,2.88-11.21.21s-.72-6.86,4.07-9.61a52.87,52.87,0,0,0-6.37,4.87c-.69.77-5.36,4.52-.93,13.51,1.61,1.89,13.62,15.85,27.81,19.33C450.22,56.26,450.44,53.44,450.44,53.44Z"/><path class="cls-80" d="M431.3,47.29s-2.29-6.58,1.26-9.24,8.52-2.52,10.43-2.38,6.82.61,6.82.61a1.66,1.66,0,0,1,1.37,1.64c.41-1.5,1.09-1.71,2-1.64s5.29.27,5.29.27L458,30s-.75,3.5-3.07,4.21-2.89.22-3.42.6c-.67-.51-.4-.33-2-.49s-8.45-1.72-14.8-.63a16.53,16.53,0,0,0-8,4c-1.23.34-4.57-2-6.14-5.86a16.76,16.76,0,0,0,1.79,6.58C423.35,40,431.3,47.29,431.3,47.29Z"/><path class="cls-81" d="M452,35.74a81,81,0,0,1,3.74-8.26,15.93,15.93,0,0,0,2.21-4,63.76,63.76,0,0,0,2-8s.43-1.1-1.1-2.22a17.44,17.44,0,0,0-7.2-1.5,3.21,3.21,0,0,0,.06,1.86c.11.71,0,3,0,3.32S452,35.74,452,35.74Z"/><path class="cls-80" d="M450.87,11.77h.78s.68,21.06.4,27.91c-.22,6.13-.86,13.76-.86,13.76s5.06,1.51,6.71-.63c1.07-1.36,1.86-.49.61,1.39a9.05,9.05,0,0,1-7.94,3.63C450.4,54.88,450.87,11.77,450.87,11.77Z"/><path class="cls-82" d="M428.23,30.89a.75.75,0,0,0,.11-.15c.66-1.06,4-7.47,9.94-8.25,6.49-.86,12.59-1.2,12.59-1.2V11.77s-3.93-.51-10.59,2.67-11.64,6.14-11.64,6.14-3.55,2.25-3.28,5.9S425.13,31.48,428.23,30.89Z"/><path class="cls-82" d="M450.87,11.77s7.46-.31,9.1,2.67a65.51,65.51,0,0,1-1.12,9.47s.48,8.64-.34,9.35-1.4,3.22-1.4,3.22-5.77-.94-6.13.92C451.62,28.55,450.87,11.77,450.87,11.77Z"/><path class="cls-73" d="M451.74,17s.3,14.16.3,16.63c.06.88.41.41.47,0s.17-14.75.41-17.16C452.62,15.19,451.74,17,451.74,17Z"/><path class="cls-83" d="M426.48,30.31s6-7.78,12-9.36,11.57-3.47,11.57-3.47.45-.23.72,0,.06,8.4.06,8.4.22.47-.34.53-12.31,2.05-14.45,3.05-6,2.3-7.49,2.18S425.6,32.1,426.48,30.31Z"/><path class="cls-83" d="M451.74,13.31A18.83,18.83,0,0,1,460,15.49s.45-.55-.53-1.75-4.93-2-7.77-2C451.63,12.19,451,13,451.74,13.31Z"/><path class="cls-83" d="M422.72,26.88s5.29-6.7,12.87-9.16c2.35-.65,9.27-3.71,14.94-4.09.21-.32.84-1.84-.06-1.86s-4.18.16-10.68,2.9c-4.67,2.17-11.18,5-16.09,9.72C422.36,25.76,421.72,27.53,422.72,26.88Z"/><path class="cls-83" d="M450.09,50.79s1-8.32.78-10.42c-.45-1-7.08-2.82-9.38-2s-1.85,4.46-1.21,4.9S450.09,50.79,450.09,50.79Z"/><path class="cls-83" d="M452,40.68s4.54.16,5.49-.2a2.26,2.26,0,0,1,1,2.17c.05,1.25.77,3.48.64,4.41A46.55,46.55,0,0,0,459.3,52c0-.08-6.87,1.27-7.65.26C450.92,50.85,452,40.68,452,40.68Z"/><path class="cls-81" d="M449.92,11.79s1-.09,1,.64,0,4.27,0,7,0,6.18,0,6.74-11.15,1.65-14.19,3.24-8.21,2.79-10.17,2.27-2.95-8.08,2.09-11.07S439.35,14,446.88,12.2C448.27,12,449.92,11.79,449.92,11.79Z"/><path class="cls-73" d="M431.86,27s10.38-6.88,18.23-8.69a.81.81,0,0,1,.87.54l0,5.38a4.83,4.83,0,0,0-1.66,0c-1,.13-14.41,3.82-14.41,3.82S428.91,29.48,431.86,27Z"/><path class="cls-73" d="M452,40.68s-.56,9.45-.7,11.31.6,1.25.7.48.32-12,.32-12S452.12,39.58,452,40.68Z"/><path class="cls-84" d="M421.92,26.33l5.42,5.44s14.83-5.72,23.6-7.52c.22-3.2-.07-12.48-.07-12.48s-4.51-.65-14.4,4.45S422.81,24.72,421.92,26.33Z"/><path class="cls-81" d="M456.68,27.55s-.81-1,.81-3c.95-1.92,2.78-8.3,2.48-10.07-1.12-1.17-1.86-2.34-8.32-2.67-.41.69.09,2.33.09,2.33s-.44,2.18,0,2.85,1.18,6.45,1.18,6.45a15.61,15.61,0,0,0,1.31,4.15c.88,1.56,2.76,5.43,3.26,3.94A17.26,17.26,0,0,0,456.68,27.55Z"/><path class="cls-73" d="M421.3,28.46a31.81,31.81,0,0,1,14.61-10.8c5.78-2.12,11.71-4.25,13.38-3.22.88,1.39.8,4.53.8,4.53s.72,1.18.87-.1a56.17,56.17,0,0,0-.43-6.48s.08-.36-1.53,0-6.07,1-15.5,5.94S421,27.13,421.3,28.46Z"/><path class="cls-85" d="M461.37,134.19s25.82-8.25,51.52-5.89c9,1.17,11.56,2.83,14.15,1.65s8.26-5.43,8.26-5.43-29.87-15.56-71.42-4.71C459.59,121.69,461.37,134.19,461.37,134.19Z"/><path class="cls-86" d="M392.34,46.74l8-5,8.23,5,15,32.61L414,84.87l-6,5.21s3.39-6.15,2.08-11.22S405.57,52.92,392.34,46.74Z"/><path class="cls-85" d="M445.39,141.29S425.81,160,415.6,183.74c-3.24,8.44-3,11.51-5.31,13.23s-8.7,4.66-8.7,4.66.59-33.68,30-65C435.25,133.76,445.39,141.29,445.39,141.29Z"/><path class="cls-87" d="M431,137.05s6.66-15,39.07-18.7c2.82-.54,1,2.4,1,2.4s-4.72,7.07-2.12,14.62c-.24,1.42-17.66,8.83-17.66,8.83a3.87,3.87,0,0,1-2.62-1.36c-1.18-1.34-10.38-5.58-16.51-4.4-1.45.58-1.2-1.39-1.2-1.39Z"/><path class="cls-88" d="M428.33,13.7s10.41,7.46,11.43,14.68-14.83,20.31-17.14,27.07S404,76.16,414.08,95.23s-27.6,41.82-30.22,53.08"/><path class="cls-89" d="M456.41,128.39c.52.1,9.26-1.4,11.69-.85l.38.25s1.32-5.45,3-7.74c.81-.12-.1-2.12-2.72-1.64A118.12,118.12,0,0,0,455.16,122C454.19,123,450.54,127.31,456.41,128.39Z"/><path class="cls-90" d="M440.43,127.54s8.43.31,8.31,2.29c-.93,1.41-4.89,6.15-4.89,6.15a3.46,3.46,0,0,0,.74,2.63c1,1.2,5.29,5.14,5.29,5.14s.77,1.32,4-.62,10.05-4.35,14.26-6.91c.93-.85,1-1.33.18-4.64a14.68,14.68,0,0,1,.07-3.18c.07-.22,0-1.15-2.59-1s-9.35.95-9.35.95-2,0-1.77-1.42-.4-5.08,8.39-7.56C457.69,120.58,450,122.06,440.43,127.54Z"/><path class="cls-91" d="M432.21,135.16s-.51,2.09,1.21,1.89,7.92-3.5,10.11-5.81,2.9-3,4-2.78a1.43,1.43,0,0,1,1.2,1.37s-4.93,6-5,7.22c.67,2.38,6.16,6.7,6.16,6.7s-3.58-2.79-6.16-3.55-6.59-2-9.54-2c-1.94.2-3.61,1-3.14-1.19S432.21,135.16,432.21,135.16Z"/><path class="cls-91" d="M468.77,118.41s2,.48,1.06,1.84-6.42,5.14-9.32,6-4.33,1-4.1,2.16h0s10.23-1.6,11.94,0c-.05.9,0,3.4,0,3.4s.14.62.14-1.46a22,22,0,0,1,2-8.93c1-1.54,2.43-2.59.37-3.16S468.77,118.41,468.77,118.41Z"/><polygon class="cls-92" points="400.3 31.64 486.63 207.31 496.36 202.69 411.08 27.63 400.3 31.64"/><polygon class="cls-93" points="461 134.71 495.24 202.5 489.74 205.84 487.84 205.84 484.64 201.63 453.91 137.4 461 134.71"/><path class="cls-94" d="M434.39,137.47h3.4a9.65,9.65,0,0,0,4.77-4c1.43-2.75,6.06-5.49,4.2-3.55s-5.42,6.54-4.53,8,5,3.81,5,3.81-7.37-4.38-13-3.53C432.91,138.43,434.39,137.47,434.39,137.47Z"/><polygon class="cls-5" points="446.26 138.02 447.28 140.48 466.51 131.56 465.49 129.3 446.26 138.02"/><path class="cls-90" d="M448.41,138.39c.56.21.94.5,1.24.47s11.17-5.18,11.17-5.18,3.66-1.51,4.17-1.88-.83-1.48-.83-1.48l1.2-.64,1.15,1.88-19.23,8.92-.45-1.75S447.17,137.92,448.41,138.39Z"/><path class="cls-95" d="M447.19,140l-.81-1.65s-.09-.31.41-.54l17.93-8.13s.68-.54,1,.18l.78,1.73-1.59.74L461,134.11a49.57,49.57,0,0,0,4.76-2.58c.27-.37-.1-1.48-.5-1.48S448,137.78,448,137.78s-.57.24-.43.47a2.56,2.56,0,0,0,.23.27c.14.15.23.34,0,.68C447.4,139.73,447.19,140,447.19,140Z"/><path class="cls-96" d="M453.91,137.4l2.53-1.17L461,146.61a15.16,15.16,0,0,0,3.16,1c1.18.15,2.95,1.89,2.35,3.34s-1.75,3.34-1,5.23,22.36,45.44,22.36,45.44a3.64,3.64,0,0,0,2.47.87,12.78,12.78,0,0,0,3.77-.87s1.22.11,1.16.87-7.4,3.34-7.4,3.34l-3.2-4.21Z"/><path class="cls-97" d="M486.18,202.83l-23.76-48.08s-.61-2.5.35-.85,25.38,49.66,25.38,49.66-1.38.79-1.67,0Z"/><path class="cls-98" d="M452.87,138.84s6-3.07,8.65-2.61c1.68,1,11.64,22.54,11.64,22.54s4.49,7.95,6.14,9c-1.16-2.38-16.84-34.29-16.84-34.29l-10,4.62Z"/><path class="cls-56" d="M473.38,120.3s-3.36,4.72-1.45,6.33,7.66.92,9.39,0,19.11-4.15,38.67.34c5,1,10-1.84,9.21-3s-2.16-2-5.11-3.62-19.32-5-36.8-4.17C483.4,116.41,474.89,117.56,473.38,120.3Z"/><path class="cls-99" d="M471.93,120.28s13.48-3.92,26.22-3.08c12.19.84,27,5.14,30.32,6.92.79.24,1.53-.84-1.71-3a121.84,121.84,0,0,0-23.06-4.67,105.39,105.39,0,0,0-32.83,1.79C471.83,118.77,472.7,119.82,471.93,120.28Z"/><path class="cls-72" d="M471.77,123.26A28.23,28.23,0,0,1,484.16,120c2.52.16-1.31.91-2.15,1.09s-7.2,1.66-9.63,3C470.32,125.42,471.77,123.26,471.77,123.26Z"/><path class="cls-72" d="M524.09,120.3s4,1.19,5.19,3.07c.78,1.49-1.93,2.43-3.33,2.71-.66-.19-.94,0,.18-1S527.56,122.09,524.09,120.3Z"/><path class="cls-56" d="M426.11,142.84s7.73-4,10.1-1.07c1,2.37-7.35,10.32-10.1,14.94s-9.27,13.32-15.59,31.7c-1.19,3.55-8.54,8.66-8.54,8.66s1.43-15.87,11-34.3C421.58,146.11,426.11,142.84,426.11,142.84Z"/><path class="cls-72" d="M403.56,200.69s-.41-10.49,5.53-26.13c.76-1.68,1.3,0,0,1.83s-4.79,23.16-4.79,23.16Z"/><path class="cls-72" d="M432.4,140.48a39.77,39.77,0,0,0-11.12,12.45c-.76,1.52.46,1.67,1.07.68s6.15-9.77,11-12.64C433.33,139.89,432.4,140.48,432.4,140.48Z"/><path class="cls-100" d="M420,154.65s1.13.39.69,1.09a7.74,7.74,0,0,0-.69,2s-.88-.08-.84-.69A13.57,13.57,0,0,1,420,154.65Z"/><path class="cls-94" d="M459.64,126.08h6.87s1.86,1.71,1.84,2.32c0-1.89,2.29-5.73,2.8-7.65-.65.66-1.59-.47-2.82,1.54s-5.46,3.08-9.18,2.67A2.15,2.15,0,0,1,459.64,126.08Z"/><path d="M468.34,132.3s-.84-7,3-12c.42-.65,1.33-1.44-.47-2,.61-.12,2.18.32,1.69,1.39a28,28,0,0,0-2.1,6.68c0,1.88.85,3.77,4.8,4.46C473.87,131.06,468.34,132.3,468.34,132.3Z"/><path d="M434.66,138.28a33.21,33.21,0,0,1,10.9,2.71l-.17.3-5.9,1.62Z"/><polygon points="405.69 19.4 414.55 25.74 431.04 7.55 422.23 0 405.69 19.4"/><polygon class="cls-101" points="405.69 19.4 405.69 17.38 420.39 0.32 422.23 0 405.69 19.4"/><polygon class="cls-101" points="414.55 25.74 431.04 7.55 431.31 7.93 415.14 25.87 414.55 25.74"/><path class="cls-102" d="M407,18.33,416,8s-1,1-.63,1.68,7.21,6,7.21,6a3.67,3.67,0,0,0,1.48-1c-1.77,1.77-9.49,10.45-9.49,10.45a1.62,1.62,0,0,0,0-1.45c-.39-.74-6.5-5.8-6.5-5.8A3,3,0,0,0,407,18.33Z"/><path class="cls-81" d="M405.69,17.38,419,2,420.39.32a11.69,11.69,0,0,0-2,3.31,3.5,3.5,0,0,1-.45,1.44,19.2,19.2,0,0,0-1.65,1c-.19.19-1.17,2.3-1.17,2.3l-2.65,2.52-1.33.85Z"/><polygon class="cls-103" points="405.69 19 421.7 0.09 422.23 0 405.69 19.4 405.69 19"/><path class="cls-81" d="M412.68,11.78a2.38,2.38,0,0,0,1,2.66,64.58,64.58,0,0,1,5.78,5s.05,1.07-.91.58-6.25-4.89-6.77-4.89A15.37,15.37,0,0,0,409,16Z"/><polygon class="cls-104" points="397.73 31.54 402.91 42.3 417.55 36.49 412.31 25.87 397.73 31.54"/><path class="cls-105" d="M400.29,31.64,411.69,27s.77.16.55.61-1.55,1.15-1,2.29S414,36.5,414,36.5a3.07,3.07,0,0,1,1.54.21c.68.32,2.05-.22,2.05-.22l-7.8,3.09s1.83-3,1.27-4.52-2.1-4.75-2.1-4.75-.22-.34-2.66.71a31.11,31.11,0,0,1-3.66,1.38l3.77,8.08-2.07,1.27Z"/><path class="cls-106" d="M397.73,31s13.64-5.15,14.58-5.15l-12,5.77s1.7,2.62,1.69,3.42,2.32,6.69,2.32,6.69l-1.39.55Z"/><path class="cls-50" d="M401.71,31.65l7.21-2.79,3.39,8.83s.31.75-.19,1-6.43,2.25-6.43,2.25Z"/><path class="cls-107" d="M409.45,27.93l2.95-1.12,4.48,9.09s.86.23-.84-.16-2.83-.23-3.73-1.53-1.28-4.49-3.11-4.62-7.94,2.24-7.94,2.24-2.13.69-1-.19S409.45,27.93,409.45,27.93Z"/><path class="cls-72" d="M399.22,31s9.88-3.61,10.68-4c.51-.24,1.3.14.28.61s-10.46,4-10.46,4S398.52,31.84,399.22,31Z"/><path class="cls-72" d="M399.24,31.65l3,5a10.13,10.13,0,0,0,5.43,1.51,19.17,19.17,0,0,0,5.85-1s1.74.29-.65,1.17-9.93,3.94-9.93,3.94l-4.82-10-.36-.75,1.83-.65Z"/><polygon class="cls-104" points="423.76 85.02 428.94 95.78 443.57 89.97 438.33 79.35 423.76 85.02"/><path class="cls-105" d="M426.32,85.12l11.39-4.62s.78.16.56.61-1.56,1.15-1,2.29S440,90,440,90a3.14,3.14,0,0,1,1.54.2c.68.33,2.05-.21,2.05-.21l-7.79,3.09s1.82-3,1.27-4.52-2.1-4.75-2.1-4.75-.23-.34-2.67.71a30.7,30.7,0,0,1-3.65,1.38L432.39,94l-2.07,1.27Z"/><path class="cls-106" d="M423.76,84.5s13.64-5.15,14.57-5.15l-12,5.77S428,87.74,428,88.54s2.32,6.69,2.32,6.69l-1.38.55Z"/><path class="cls-50" d="M427.74,85.13,435,82.34l3.38,8.83s.32.75-.19,1-6.43,2.26-6.43,2.26Z"/><path class="cls-107" d="M435.47,81.41l3-1.12,4.48,9.09s.85.23-.84-.16-2.83-.23-3.74-1.53-1.28-4.49-3.1-4.62-7.94,2.24-7.94,2.24-2.14.69-1-.19S435.47,81.41,435.47,81.41Z"/><path class="cls-72" d="M425.24,84.5s9.88-3.61,10.69-4c.51-.24,1.3.14.27.61s-10.46,4-10.46,4S424.55,85.32,425.24,84.5Z"/><path class="cls-72" d="M425.27,85.13l3,5a10.07,10.07,0,0,0,5.42,1.52,19.28,19.28,0,0,0,5.86-1s1.74.29-.66,1.17-9.92,3.94-9.92,3.94l-4.82-10-.36-.75,1.83-.65Z"/><polygon class="cls-84" points="417.1 39.99 409.01 44.47 425.97 79.35 435.76 78.29 417.1 39.99"/><path class="cls-108" d="M431.94,79.35,417.1,47.29s-.52-1.83,1.26,0,15.3,31.23,15.3,31.23S433.82,79.79,431.94,79.35Z"/><polygon class="cls-84" points="409.01 44.47 412.4 42.59 428.86 79.03 425.97 79.35 409.01 44.47"/><path class="cls-81" d="M72.07,195.47l118-3.72s.13,1.88-2.4,1.86-115.63,3.46-115.63,3.46Z"/><path class="cls-109" d="M206.49,156.71s16-7.42,19.9-12.18,6.29-14.64,6.29-14.64L234.29,169l.61,16.14L223,184.44Z"/><path class="cls-110" d="M197.64,145.92c.69,0,18,13,21.76,16.25s6.62,5.44,6.62,5.44l7.65-11.24,1.23,30.74-8.74-.69-28.52-35.63Z"/><polygon class="cls-111" points="72.07 195.47 190.09 191.75 189.7 192.89 72.07 196.19 72.07 195.47"/><circle class="cls-46" cx="87.21" cy="203.3" r="3.06"/><path class="cls-112" d="M190.4,143.28s-.32-11.33,2.19-17.55c1.57-4.16,2-2.35,1.1,5.18s-1.88,18.07-1.41,24.88.78,31,.78,31-1.5,2-2.48-3.92S190.4,143.28,190.4,143.28Z"/><path class="cls-113" d="M200.1,113.62a28.33,28.33,0,0,1,3.32-4.12A55.88,55.88,0,0,1,219.4,98c7.06-3,13.19-6.25,29.81-6.19l16.63,1.18s5.81,2.43.94,2.07-21.65-1.39-21.65-1.39A57,57,0,0,0,223,97.57c-2.36,1.31-10.45,4.45-16.52,10.88C204.34,111,198.76,117,200.1,113.62Z"/><circle class="cls-46" cx="213.35" cy="167.97" r="3.06"/><path class="cls-61" d="M268.73,96.85H235.79s-13.2,2.22-19.38,6.34-17.12,13.12-20,21.36c-1.51,7-2.2,30.44-2.2,30.44s.9-2.1,2-5.29-.41-22.65,8.66-33.7c4.11-4.15,17-14.6,29.49-16.71s37-.07,37-.07Z"/><path class="cls-61" d="M92.41,196.19s18.85,2.77,22.31,4.05,1.08,2.4,7.15,3.68,2.38,2.56,12.34,1.92,18-1.92,18-1.92a6.66,6.66,0,0,1,2.92-3.23c2.28-1.34,16.14-6.63,16.14-6.63Z"/><circle class="cls-46" cx="132.22" cy="100.82" r="2.87"/><path class="cls-100" d="M23.8,110.26l21.3-.89s1,.2,2.33-1.47S67.19,94.38,87.84,95c4.4.17,21.61,2,29,4.91,2.28.58,2.86.2,0-.88S96.38,93,83,93.83c-5.38.9-15.44,1.17-32.15,10.24-1.25,1.08-3.5,2.52-4.4,3.32a7.34,7.34,0,0,1-4.67,1.35c-2.51.36-18.41,1.52-18.41,1.52Z"/><path class="cls-83" d="M26.42,110s-1-.32,0-.44,17.86-1.17,17.86-1.17,1.58,0,0,.51S26.42,110,26.42,110Z"/><path class="cls-42" d="M55,103.1s-6.06,1.19-5.52-.84,4.83-6.86,12-9.6c3.7-1.32,4.65-1.73,4.65-1.73s9.6,2.39,14.67,3.22,5.38.86,5.38.86S75,95.2,66.79,98.22C63.4,99.28,55,103.1,55,103.1Z"/><path class="cls-42" d="M37.92,109.67s-9.12-.31-6.32-2.52A127.78,127.78,0,0,1,53.11,93.33c-5,2.42-22.07,10.91-29.31,16.93C27,110,37.92,109.67,37.92,109.67Z"/><path class="cls-58" d="M98.79,91.48c-.22,0-30.24-5.74-33.15-6.76-2.33-.65-.53,1.09-.53,1.09s26.19,6.55,36.73,7.71A24.56,24.56,0,0,0,98.79,91.48Z"/><path class="cls-114" d="M240.51,209.08l6-.69h4.38l6-2.74.86,1.66s1.39,2.28,8.21.66a143.72,143.72,0,0,1,18.63-.76c3.61-.31,7,0,10.83-2,.67,0,1.36-2.61-1.49-6.34s-6-7.34-11.79-9.52-15.64-2-28.81,3.57C250.37,194.84,240.26,203.26,240.51,209.08Z"/><path class="cls-61" d="M121.69,95.92l2.9.43s2.35,7.54,5.87,9c1.76,1.17,3.14,2.22.39,1.27s-3.11-.22-5.21-4.58C123.6,98.57,121.69,95.92,121.69,95.92Z"/><path class="cls-61" d="M140.11,98,187.18,171s.48,3.44-.77,2-46.68-72.21-46.68-72.21S138.38,97.28,140.11,98Z"/><path class="cls-58" d="M150,103.19s28.81,26.58,38.19,50.08c.9,2.23.59,3.65-1.77,0s-11.2-21.62-23.14-32.16C156,113.67,146.67,102.86,150,103.19Z"/><polygon class="cls-115" points="147.74 107.9 183.27 158.43 188.65 156.37 189.86 157.74 190.14 173.88 146.52 107.9 147.74 107.9"/><path class="cls-83" d="M144.91,105.4l35.52,55.16s.72,2.2,0,1.46-35.52-55.54-35.52-55.54S144,105,144.91,105.4Z"/><path class="cls-83" d="M68.65,86l8.55,1.61s6,2.13,2.36,1.49-12-2.64-12-2.64S64.29,85.48,68.65,86Z"/><path class="cls-21" d="M197.64,100.82,200.8,111s6-6.65,11.75-9.6C204.44,101,197.64,100.82,197.64,100.82Z"/><circle class="cls-116" cx="203.03" cy="104.81" r="1.12"/><path class="cls-45" d="M253.27,188s-2.33-3.42-5-3.89-43.21,1.09-43.21,1.09-5.66,0-5.2,6.52,0,19.91,0,19.91,2,5.63,11.29,3.2l7.56,1.56s23,9.54,24.94,9.85,9.59-2.33,9.59-2.33-20.49-10.27-12.65-22.31A168,168,0,0,1,253.27,188Z"/><path class="cls-47" d="M200.29,190.84s0-3.14,1.76-4.05c1.08-1.15,4.28-1.22,4.28-1.22l41.56-1.07s2.15.3,3,1.29,1.64,1.88,1.64,1.88-2.71-2.64-6-2.56S206,186.18,206,186.18s-3.36.23-4.28,2.21A10,10,0,0,1,200.29,190.84Z"/><path class="cls-117" d="M201.08,187.11a14.71,14.71,0,0,0-.79,6c.23,3.59.38,18.18.38,18.18s1,3.29,5.58,3.29c3-.23,4.82-.46,4.82-.46l7.87,1.6,24.54,9.78a10.25,10.25,0,0,0,5.33-1c2.06-.61,3.67-1,3.67-1l.79.43s-6.9,2.22-8.81,2.36a35.12,35.12,0,0,1-4.29-1.23l-21.43-8.65-7.56-1.56a25.28,25.28,0,0,1-6.26.44,6.46,6.46,0,0,1-5-3.64c.12-4.47,0-21.3,0-21.3S200.12,188,201.08,187.11Z"/><path class="cls-118" d="M205.56,186.22l41.87-1.06s.92.65.85,1.06-6.52,5.61-11.06,9.12-4.82,10.09-3.53,13.45-2.53,6.65-5.74,5.43-11.61-5.2-18.41-4.82-6.95-3.05-6.65-6.34-.61-15.39-.61-15.39A5.45,5.45,0,0,1,205.56,186.22Z"/><circle class="cls-46" cx="208.43" cy="206.7" r="4.44"/><polygon class="cls-48" points="232.2 184.31 241.37 200.69 244.25 198.39 235.21 183.98 232.2 184.31"/><polygon class="cls-119" points="387.94 95.61 380.15 141.18 381.36 142.84 389.69 95.23 387.94 95.61"/><polygon class="cls-119" points="238.78 89.24 237.22 91.65 251.76 91.76 251.56 88.76 238.78 89.24"/><path class="cls-119" d="M226.16,82.81s-1.66,6.69,0,6.84a46,46,0,0,0,5.31-.17l33.72-1.09s2.33-.93,3.06,1.29,4.58,4.9,8.17,5.48c.05-.44-.29-.82-2.37-1.54s-4.61-1.62-6.46-6.06c-.81-.46-1.16.11-2,0s-32.72-.23-34.88,0-2.69.84-2.95-1.15-.91-8-.52-10.3C226.55,79.24,226.16,82.81,226.16,82.81Z"/><path class="cls-120" d="M415.71,62.4s4-4.2,4.78-5.12-.2-6.6.41-7.65l.61-1-1.44-2.51-8.75,5.41Z"/><polygon class="cls-99" points="416.87 61.16 422.93 55.8 432.51 76.02 425.35 78.06 416.87 61.16"/><path class="cls-121" d="M336.73,24.4a29.91,29.91,0,0,1,8.37-.21A39.32,39.32,0,0,1,355,26.45c.61.35-.58.43-1.54.28s-17.57-1.34-17.57-1.34S334.91,24.85,336.73,24.4Z"/><path d="M460.37,131.37l-.43-.9c14-6.71-11.33-21.23-10.56-27.93.35-3,3.86-14.35,1.17-16.51-7-5.64-4.2-7.93-15.78-10.24-7.12-1.43-13.85-2.77-18.32-4.65-11.88-5-9.48-22-9.45-22.19l1,.15c0,.16-2.31,16.41,8.85,21.11,4.38,1.85,11.06,3.18,18.13,4.6,11.68,2.33,9,4.65,16.21,10.44,2.93,2.35-.78,14.52-.65,17.85C450.85,111,474.87,124.4,460.37,131.37Z"/><path class="cls-122" d="M402.66,46.94s10.07-5.76,11.82-7.77S420,44.92,420,44.92l-13.1,8.16Z"/><path class="cls-40" d="M376.44,76.64l23.21-25.12s7.09-.81,8.59,6.26c-5.73,6.31-21.85,25.31-21.85,25.31S378.37,84.94,376.44,76.64Z"/><path class="cls-40" d="M399.28,55.23s-4.77-5.62,0-9.7c4.29-3.7,11.32.69,14,5.81s-1.14,11.65-8,8.22C400.64,57.26,399.28,55.23,399.28,55.23Z"/><path class="cls-40" d="M413.7,40.89s5.83,4,6,6.45S414,53.13,414,53.13a13.81,13.81,0,0,0-7.59-8.21C406.9,43,411.11,38.88,413.7,40.89Z"/><path class="cls-123" d="M417.26,45.94a23.73,23.73,0,0,1,2.16,5.71,6.8,6.8,0,0,1-.75,4s-11.85,11.81-13.81,19.2c.05.74,1.41,1.89.38,3.16s-3,1.16-3-.79S406,66.52,410,61.51c1.85-2.21,5.67-6.18,5.7-7.91-.15-1.24-1.5-4.66-2.38-5.36A12,12,0,0,1,417.26,45.94Z"/><path class="cls-40" d="M401.18,54.51s3.06,2.24,3.84,2.18,2.5-2.13,1.85-3.61S401.18,54.51,401.18,54.51Z"/><circle class="cls-124" cx="409.99" cy="48.95" r="0.68"/><path class="cls-42" d="M401.85,45.82s-.75-1.12.44-1.17,6.24-.07,10.15,6.61c.5.61-.12,1.11-.48.51S409.27,46.37,401.85,45.82Z"/><path class="cls-125" d="M377.84,76.45s4.19,2.27,5.8,1.76c1.19-.38,21.6-23.25,21.6-23.25s.4-2.09-3.19-2.94c1.24-.05,4.76.26,4.25,5.2-.93,1.16-20.6,23.29-20.6,23.29Z"/><path class="cls-126" d="M404.86,74.86s-.17-3.48,4.91-10.56l7.88-9a5.46,5.46,0,0,0,.73-4.11,18.16,18.16,0,0,0-.93-2.48l.47-1.57s1.95,4.74,1.48,6.38-.33,2-3.18,4.77c-2.69,2.74-4.16,4.1-9.49,12.2A44.79,44.79,0,0,0,404.86,74.86Z"/><path class="cls-42" d="M405.72,69.13a44,44,0,0,1,5.49-8.65A35.22,35.22,0,0,0,416,54.05a3.79,3.79,0,0,0-.6-3.16,3.05,3.05,0,0,1,.78,4.43C414.73,57.39,410.53,61.81,405.72,69.13Z"/><path d="M407.69,39.55l-.41-2.49a2.29,2.29,0,0,1,.82-2.17l6.69-5.45a2.28,2.28,0,0,1,1.62-.52l7,.52a2.3,2.3,0,0,1,2.14,2.3V39a2.32,2.32,0,0,1-1.39,2.12l-6.19,2.7a2.25,2.25,0,0,1-1.69.06l-7-2.5A2.32,2.32,0,0,1,407.69,39.55Z"/><path class="cls-84" d="M407.26,36.45l9.12.95L425,30.89a1.55,1.55,0,0,0-1.58-1.45l-7-.52s-.71-.46-2.18.85-6.13,5.12-6.13,5.12-1.19,1.07-.82,2.17"/><path class="cls-127" d="M416.08,28.92l7.7.59s2.21.2,1.73,4.57c-.57.79-1-1-1.47-1.35s-7.66,4.67-7.66,4.67-.95-.14,0-.8,7.11-5.21,7.11-5.21.14-.8-1.57-1.1-7.13-.85-7.13-.85S415,28.92,416.08,28.92Z"/><polygon class="cls-40" points="419.69 47.34 423.76 40.9 416.38 42.98 419.69 47.34"/><path class="cls-128" d="M404.3,72.29s2.09-6.41,11.33-17.49c.52-1.41.65-5.2-1.08-6.51-.84-.47.95-.95.95-.95l.92-.66a1.58,1.58,0,0,1,.68,1,16,16,0,0,1,.83,3.22c.08,1.51-.49,3-2.43,5.37s-8.67,11.46-11.2,17.18C403.68,74,404.3,72.29,404.3,72.29Z"/><path class="cls-128" d="M402.91,77.63s.92-.08,1.19-.46a1.63,1.63,0,0,0,.11-1.06s0-1.08.65-.46a1.72,1.72,0,0,1-.56,2.67C403.1,78.76,401.73,78.09,402.91,77.63Z"/><polygon points="418.81 21.8 422.23 25.67 424.47 23.73 421.51 18.8 418.81 21.8"/><polygon class="cls-49" points="425.35 14.55 427.63 15.99 430.53 12.87 428.17 11.42 425.35 14.55"/><polygon class="cls-102" points="420.76 24.01 422.23 20.11 424.47 23.73 422.23 25.67 420.76 24.01"/><polygon class="cls-129" points="428.7 11.74 426.7 14.44 427.63 15.99 425.35 14.55 428.17 11.42 428.7 11.74"/><path class="cls-3" d="M376.28,95.78s5.39,2.9,4.72,6.25.27,23.7.85,29.21"/><path class="cls-52" d="M341.34,169.64s8-36.44,30.78-49.34,17.57-10.06,17.57-10.06"/><path class="cls-52" d="M386.35,132.3S409,98.86,414.1,96.85"/><path class="cls-130" d="M348.32,140.82a4,4,0,0,1-4.25-.44c-1.46-1.18-2.8-3.51-2.25-8.08,0-4.75,8.06-3,13.34-2.62s15.74,2,21.12,8.6,9.86,13.15,10.07,35.1-1.43,38.88-1.43,38.88S384.11,225.9,368,239a96,96,0,0,1-31,15.56c-7.16,2.18-15.64,3.54-30.27,0l-.25-.05c-16.18-2.7-93.57-15.1-97.84-15.78l-.37,0c-2.52-.17-30-2-39.28-3.54-9.06-1.52-51.27-7.9-57.1-8.78a4.1,4.1,0,0,1-1.28-.42l-7.93-4.15a4.07,4.07,0,0,1-2.11-4.4,55.72,55.72,0,0,1,3-10.72,4.1,4.1,0,0,1,3.73-2.42c5.15,0,9.43-.25,10.93-.33a4.11,4.11,0,0,1,1.16.09l96.1,22.25,85.4,16.2a3.58,3.58,0,0,1,.54.14c1.16.39,5.77,2,7.67,2.91s10.45,2.29,12.79,2.64a3.51,3.51,0,0,0,1.21,0,114.55,114.55,0,0,0,26.12-7.81c8.46-3.83,22.38-18.3,22.38-18.3s3.76-2.74,4.72-15.38c.87-11.5-2.17-48.52-2.72-55.11a4,4,0,0,0-.71-2,26.57,26.57,0,0,0-15.42-10.09,4.63,4.63,0,0,0-.91-.12A18.22,18.22,0,0,0,348.32,140.82Z"/><path class="cls-131" d="M344.53,129.3s16.45-1.19,26.87,4.89c5.22,3.18,14,13.34,14.47,29s.62,36.15-.82,47.6c-1.13,2.73-2.25,3.34-1.74,1.61s1.81-40.56.55-44.69-2-17-8.86-22.36-18.43-10.72-27.85-6c-2,.79-1.52,2.2-2.62,1.28s-2.67-1.06-2.81-7.26C341.72,129.68,343.33,129.74,344.53,129.3Z"/><path class="cls-132" d="M348.68,131.37s7.87-1,14.46,2.07,11.94,2.1,18.71,17.15c.91,1.27-.86.8-5.57-6.39-5.74-4.56-11.94-8.5-27.6-9.8C345.18,133.79,348.68,131.37,348.68,131.37Z"/><path class="cls-133" d="M352.92,132.3c.62,0,10.54,2.31,12.46,2.78s7.8,2.08,11.34,6.69a38.76,38.76,0,0,1,5.13,8.82c-.26.66-2.07-.36-2.79-1.67s-3.65-8.15-9.22-9.5-12.36-2.89-15.09-4.34S348,132.09,352.92,132.3Z"/><path class="cls-131" d="M341.89,136s-1.07-2.58.71-2.54,22.54,3.77,30.94,7.25c2.17,1.32,5.79,6.67,8.31,13.54,2,5.6,2.6-.35,2-2.41,1.27,4.5,3.07,11.23,2.39,32.71,0,1.78-2-.28-1.82-3.45s0-30.14-13-38.24C366.67,140.86,363,137.84,341.89,136Z"/><path class="cls-134" d="M346.34,140.11s7.38-3.25,14.38-1.69,15.28,4.35,16.68,17.92,2.8,56,2.8,56,.17,10.25-11.27,19.67c-10.55,8.79-15.54,15.66-42.28,20.75-11.59,3.31-55.25-6.88-56.23-7.06s-49.84-9.68-55.85-10.53-101.42-17.29-101.42-17.29l-10.29-3.23,1.81-6.39,12.82,1.12,98.29,22.23,54.64,8.94s41.24,11.86,54.79,8.43c9.76-2,28.88-3.17,43.36-20.94,3.09-2.95,10-8,8.91-26s-2.94-52.28-2.94-52.28-2.11-6.54-13.13-8.44c-9-1-13.78,0-13.78,0Z"/><path class="cls-135" d="M364.64,140a24.47,24.47,0,0,1,16.41,15.36c3.06,13.4,2.23,16.92,3.27,18,.87,1.86,1.33,8.47.6,14.29s-1.06,23.47-1.06,23.47-1,10.12-3.66,14c-2.95,4.37-11.43,15.9-24.63,21.76s-23.73,11-38.34,9.5C303.3,254,112.18,224,112.18,224l-10.34-6.14,1-3.27,14.38,4,200.19,34.51s22.77,0,34-8.49c10.84-8.13,21.36-10.42,28.75-30.14.34-9.43,1-44.92-3.87-62.6C374.53,148.14,371.8,143.76,364.64,140Z"/><path class="cls-136" d="M106.33,205.88l11.08-.7,181.7,39.45s2.3.89,0,1.55-183.32-36.31-183.32-36.31l-11.12-1.65Z"/><path class="cls-137" d="M117.41,205.18s-3.34,7.43-3.34,8.21v3.53l5.28-12.87Z"/><path class="cls-138" d="M101.84,211.73s-.44,4.73,1.77,7.2,6.8,4,6.8,4,.39,2.39,1.6-.71,7.34-18.21,7.34-18.21-4.94,15.51-5.28,17.86,5.28,3.77,5.28,3.77l90.77,13.1s-34.66-1.27-93.41-11.65c-6.6-.23-15.39-6.44-15.39-6.44S99.09,218.16,101.84,211.73Z"/><path class="cls-139" d="M100.89,214.48a2.08,2.08,0,0,1,2-1.09c1.4.09,10.35,2.5,10.35,2.5a4.16,4.16,0,0,0,2.9-1.41c1.58-1.52,2.51-8.12,2.51-8.12s-2.65,5-6.1,4.78-7.78-2.56-9.66-2.06C102.12,210.73,100.89,214.48,100.89,214.48Z"/><path class="cls-140" d="M116.11,214.48,115,218.16l204.62,34.9s17.26-1.31,26.93-5.57,24.94-16,26-19.16,9.27-13.85,6.48-21.63c-.62,7.73-10.08,22.1-23.32,31.05a182.52,182.52,0,0,1-21.35,9.47s-8.86,4.74-38.21-1.73C261.63,237.88,116.11,214.48,116.11,214.48Z"/><path class="cls-141" d="M324.41,254.79a77.91,77.91,0,0,0,29.26-8.6c8.95-5.52,18.89-11.33,26-24.77,1.57-7.6-1.33-59.25-1.33-59.25s-4.75-12,2-8.94c2.68,3.2,4.1,17.67,5,27.72s-1,33.39-2.86,39.76S371.77,236.35,366,240.44s-20.37,13.68-38.65,16C310.12,257.16,324.41,254.79,324.41,254.79Z"/><path class="cls-140" d="M281.07,243l18,3.19s3.16,1.64,6.14-2.18c2.83,1.11,16.38,4.91,23,3.19,6.35-1.64,22.51-4.1,37.73-19.67,5.55-5.44,7.61-5.26,10.27-18.44.9,2.9.45,19.16-24.1,31.3-20.68,9.49-16,15.17-71.79,6C267.66,244.58,115,218.16,115,218.16Z"/><polygon class="cls-142" points="386.36 39.99 387.6 44.8 397.15 38.36 393.64 35.74 386.36 39.99"/><path class="cls-143" d="M387.15,40.27l6.45-3.82s-.48,1.43-.72,1.91.72,2.18.72,2.18l-2.48,1.76-2.19-1.82Z"/><polygon class="cls-72" points="385.94 39.99 393.64 35.74 394.25 36.19 386.36 40.9 385.94 39.99"/><path class="cls-144" d="M381.27,25.2s-7.66-.8-9.35,3.72c-.4,1.46,2.58,1.52,3.06,1.08s5.81-2,6.61-2.85a1.86,1.86,0,0,1,1.94,1c.24.67,5.94,9.39,4.26,10.79,1.42-.79,4.55-2.47,4.55-2.47a3.22,3.22,0,0,1-2.24-.76c-.85-1.49-4.56-8.93-4.56-8.93A5.15,5.15,0,0,1,387.15,24c.89-.84,2.41-.06,3.74-.57s4.93-2.69,4.46-3.74a2.13,2.13,0,0,0-3-.86l-6,3A18.54,18.54,0,0,0,385,24C384.53,24.93,381.76,25.24,381.27,25.2Z"/><path class="cls-145" d="M371.92,28.92s1.61.13,2.05-.23,6.58-2.13,6.58-2.13a1.9,1.9,0,0,0,.83-.54c.33-.4.88.43.55.78s-1.35,1-6.95,3.2C374.52,30.18,371.47,30.67,371.92,28.92Z"/><path class="cls-58" d="M386.68,21.8a1,1,0,0,0,1.1.44c.72-.21,5.61-3.19,6.47-3.08.52-.23-.84-.93-1.37-.64s-6.53,3.24-6.53,3.24Z"/><path class="cls-80" d="M386.82,24.27s-1.65,1.8-1.28,2.54,4.56,8.93,4.56,8.93a2.84,2.84,0,0,0,2.24.76c-.62,0-1.7.9-1.7.9s-1.55-.18-1.71-1.17-4.08-9.43-4.08-9.43a1.26,1.26,0,0,1,.23-1.41A3.54,3.54,0,0,1,386.82,24.27Z"/><path class="cls-146" d="M382.53,26s-.49-.68.45-.35,3,5.67,3.92,7.45-1-.65-1-.65S383.8,26.84,382.53,26Z"/><path class="cls-72" d="M388.37,38.36a26.27,26.27,0,0,0-2.43-7.47c-2-4-2.29-5.35-1.19-4.41.78,1.78,4.18,9.75,4.18,9.75a2.66,2.66,0,0,0,2.5.88c-1.33.55-3.39,1.72-3.39,1.72Z"/><path class="cls-58" d="M390.89,23.4s3.36-1.35,4.46-3.29c0-.45-.43-.49-1.1,0s-3.79,2.68-5.32,2.42c-1.65.11-1.65,1.17-1.15,1.1S390.89,23.4,390.89,23.4Z"/><path class="cls-147" d="M385.52,25.39s-.07-.95-.79-.88-.67.39-.61.69a25.1,25.1,0,0,0,1.6,3.49c.18.08.86.82.63.23S385.29,26,385.52,25.39Z"/><path class="cls-80" d="M372,29.63a4,4,0,0,1,2.32-2A61.31,61.31,0,0,0,380.44,26c.71-.34,2.11-.82,1.21-.83a15.23,15.23,0,0,0-5.35.37c-1.85.68-3.34,1-4.38,3.36A1.61,1.61,0,0,0,372,29.63Z"/><path class="cls-80" d="M393.6,18.51s1.86.11,1.75,1.6c-.33-.07-.43-.47-1.1,0S391,22.06,390.1,21.8s-1.2-.1-.28-.61,4.43-2,4.43-2S394.06,18.57,393.6,18.51Z"/><path class="cls-148" d="M372.3,29.65s.87.79,3.46,0c1.51-.56,5.83-2.48,5.83-2.48s.14-.58-.53-.35-4.16,2.18-6.59,2.51C372.76,29.41,371.55,28.89,372.3,29.65Z"/><path class="cls-148" d="M384.09,25.74s-1-.1-.45.46a74,74,0,0,1,3.19,6.7s.87.9.32-.61S384.09,25.74,384.09,25.74Z"/><path class="cls-148" d="M388.38,38.65a20.58,20.58,0,0,0-.89-3.93c-.59-1.6.37-1,.37-1s1,3.59,2.5,3.63a6,6,0,0,0,1.39-.57Z"/><path class="cls-148" d="M387.15,21.36s.25.21,1,0,4.35-2.47,5.3-2.58.36-.27.36-.27-.9-.22-2.65.87A34,34,0,0,1,387,21.46Z"/><path class="cls-149" d="M241.05,209.08l6-.69h4.37l6-2.74.86,1.66s1.39,2.28,8.21.66a143.91,143.91,0,0,1,18.64-.76c3.6-.31,7,0,10.82-2,.67,0,1.36-2.61-1.49-6.34s-6-7.34-11.79-9.52-15.64-2-28.81,3.57C250.91,194.84,240.81,203.26,241.05,209.08Z"/><path class="cls-148" d="M389.52,23.4a.86.86,0,0,1,0-.87c.26-.54,5-2.55,5-2.55s.75-.22.65.19A5.8,5.8,0,0,1,392,22.89C390.08,23.57,389.52,23.4,389.52,23.4Z"/><path d="M227.85,148.74,239,141.18s3.41.71,3.51,3c.05,1.47-.29,1.66-.29,1.66l-10,8.09-4.88-3.79Z"/><path d="M223.09,152.93s-.66-3.25,1.92-4a5.87,5.87,0,0,1,6.81,2.86c1.43,2.59,1.21,6.24-1.72,5.88a11,11,0,0,1-5.4-2.71Z"/><path class="cls-150" d="M227.48,155.33s-3.9,1.82.14,6.84,22.79,34.9,22.79,34.9,1.82,2.6,2.6,3,5.07,4,3.46,7.27a5.54,5.54,0,0,1-9.81,0c-2.15-2.45-1.07-3.13-1.61-5.11s-23.21-42-23.21-42-2.32-4.23,1.25-7.29S228.62,154.32,227.48,155.33Z"/><path class="cls-151" d="M226.25,152.05s1.84,1.09,1.53,2.18c-1.52.47-4.62,2.78-2.94,4.54s23.56,40,25,40.2a7.39,7.39,0,0,1,5.35,4.95c-.17,1.66-4.1-2.95-7.67-1.72-2.5-4.3-25.12-44.11-25.12-44.11s-.76-4.28,1.55-5.16Z"/><path class="cls-152" d="M221.73,154.59A9.71,9.71,0,0,0,223,161c1.93,3.35,23.75,41.8,23.75,41.8s-1.7,2.66-.09,4.53c-2.14-2.6-1.18-3.56-1.61-5.11-1.25-2.46-22.1-40-22.1-40S220.16,158.45,221.73,154.59Z"/><ellipse cx="250.86" cy="206.01" rx="2.79" ry="3.66" transform="translate(-70.61 251.04) rotate(-47.37)"/><path class="cls-152" d="M227.48,155.33s-3.93,1.2-.27,6.3,24.55,37.21,24.55,37.21-.85-.08-2.07-1.77-24-36.85-24-36.85-2.14-3.44,0-4.72S228,154.65,227.48,155.33Z"/><path class="cls-152" d="M246.75,204.65s.66,4,4.11,4.79c1.46.16,3.4-.09,3.72-3.14-.28-1.32-.6-3.05-4.48-4.14-.81-.14.78-.62,2.33.23s2.5,1.39,2.75,3.85a3,3,0,0,1-2.91,3.58,4.72,4.72,0,0,1-5.12-2.51C246,205.48,246.65,204.24,246.75,204.65Z"/><path class="cls-153" d="M247.33,200.57,234,177.45s-.7-1.37,0-.69,14.68,22.45,14.91,22.51a6.69,6.69,0,0,1,3.21,1.3c1.08,1,1.81,1.86.29,1.33a11.11,11.11,0,0,0-3.78-.71C248.29,201.3,247.9,201.55,247.33,200.57Z"/><path class="cls-153" d="M226.25,152.05s1.58.81,1.39,1.56c-.84.37-4.28,1.87-3.56,4.48.72,1.62,4.37,8.25,4.37,8.25s.07,1.18-1.15-.69-4.51-8.6-4.51-8.6-.77-2.2,1.91-3.78A5.33,5.33,0,0,1,226.25,152.05Z"/><path class="cls-84" d="M229.62,164.91s3.12,8.65,2.34,13.26c1.11,2.26,8.84,16.24,8.84,16.24s6.33-1.62,3.11-7.59C240.41,181.34,229.62,164.91,229.62,164.91Z"/><path class="cls-84" d="M224.39,150.22s-.1-1.07,2-1.13a5.61,5.61,0,0,1,5.16,3.41,8.78,8.78,0,0,1,.66,3s-.19.69-.47,0-.12-3.63-3-5C227,149.75,225.11,150.61,224.39,150.22Z"/><path class="cls-84" d="M226,149.56a4.42,4.42,0,0,1,4.22,1c.85,1,.07.9-.6.47s-.94-1-3.62-.82C225.19,150.32,226,149.56,226,149.56Z"/><path d="M237.7,142.36a1.31,1.31,0,0,1,.18-1.47c.62-.76,3.42-.57,4.6,1.23s1.44,3.18,1,4.08-1.69,0-1.69,0Z"/><path class="cls-84" d="M238.21,141.49s-.06-.66,1.22-.7a3.46,3.46,0,0,1,3.18,2.1,5.48,5.48,0,0,1,.41,1.86s-.11.42-.29,0-.07-2.24-1.87-3.08C239.81,141.2,238.66,141.73,238.21,141.49Z"/><path class="cls-84" d="M239.2,141.08a2.73,2.73,0,0,1,2.6.64c.53.61,0,.55-.37.29s-.58-.62-2.23-.51C238.7,141.55,239.2,141.08,239.2,141.08Z"/><path class="cls-84" d="M228.89,148.74s2.18.66,2.74,1.64c1.71-1.63,9.9-6.85,9.9-6.85a3.07,3.07,0,0,0-2.8-1.55C237.46,142.74,228.89,148.74,228.89,148.74Z"/><path class="cls-58" d="M240.51,209.08l6-.69s.81,2.39,6,2.75c3.31.24,5.21-3.83,5.21-3.83a7.14,7.14,0,0,0,3.66,1.22c1.62-.14,9.75-1.35,12.33-1.22s8.53.14,9.75,0,7.05-.61,7.05-.61a22.5,22.5,0,0,0,4.88-1.52c1.22-.31,1.08.92.68,2.13s-.41,8.7-11.66,14.11c-4.47,2.15-12.35,2.24-18.48,2-4.55-.82-11.84-.55-18.57-6.24C245.22,214.63,240.51,209.08,240.51,209.08Z"/><path class="cls-154" d="M252.48,193.46s9.24-5.8,23.77-5.44c5,.22,12.65,2.13,18.44,12,.54,1.18-1.33-.22-3-1.2s-6.53-7.86-16-7.09-9.29-.71-7.91-1.8C265.87,190.55,255.81,192.09,252.48,193.46Z"/><path class="cls-155" d="M249.71,195.69s2.57-4.74,19.06-7.32c5.41-.36,13.53-1.94,21.38,5.6a19.41,19.41,0,0,1,5.49,8.09c-.31,1.24.58,2.43-4.76,1.24S272,201,262.22,201.42c-3.76-.49-5.39.48-5.39.48s.64.24-.74-1.21-1.67-.66-2.82-2.14A14.5,14.5,0,0,0,249.71,195.69Z"/><path class="cls-156" d="M257.69,207.31s2.5,1.43,9.67.73c3.36-.59,19.27-.89,20.86-1a17,17,0,0,0,7.14-1.88c1-.4,1,1.22,1,3.06s-3.66,10.75-11,13.18c-2.67-1.61,5.34-6-4.35-6.94s-24.05.78-25.82,1.47,1.5,6.11,0,5.58c-2.81-1.09-10.09-3.21-14.13-12.45,2.09-.3,5.41-.69,5.41-.69s.39,2.46,5.3,2.69C254.21,211.21,255.93,210.24,257.69,207.31Z"/><path class="cls-62" d="M257.58,207.49l37.78-2.31s1.71,1.34.68,2.13-48.71,6.08-48.71,6.08-3.53,1-4.31-.67a38.38,38.38,0,0,0-2-3.64l5.41-.69s.92,3.24,6.81,2.6C254.91,211,257.58,207.49,257.58,207.49Z"/><path class="cls-81" d="M250.86,195.17s2.66-4,14-6.24c6.22-1,14.24-2.56,22.31,2.69s9.24,10.3,8.47,10.44-6.87-3.51-13.92-4.35-18.27,1-20.12,1.13-5.65,1.58-7.25,0S250.24,196.35,250.86,195.17Z"/><path class="cls-157" d="M241.05,209.08l5.41-.69s1.42,3.56,6.81,2.6a5.79,5.79,0,0,0,4.31-3.5s4.68,1.64,23.06-.79c9.84,0,13.59-.17,14.72-1.52a1.87,1.87,0,0,1,1,3.06c-1.53,2.24-3.08,13.91-22.7,15.28C254.68,224.89,248.48,221,241.05,209.08Z"/><polygon class="cls-50" points="285.9 188.78 291.79 187.28 292.84 188.78 289.69 190.84 295.64 197.07 285.9 188.78"/><path class="cls-70" d="M290.22,186.42A94.61,94.61,0,0,0,312,212.21c3.4,2.09,5.22,1.49,5.22,1.49s-13.47-8.82-25.25-27.28l-.93.2Z"/><path class="cls-51" d="M302.87,168.5h33s11.32.38,12.12,8.93c.8,7.75-6.84,24.19-18.3,34-3.34,2.84-10,6.3-16.73,0s-18.61-17.41-22.75-26.7C288.49,180.4,288,170.16,302.87,168.5Z"/><path class="cls-157" d="M290.77,183s12.69,11.71,28.88,12.91c12.11,0,14-7.89,14-7.89s8.46,3.11,12.54-2.84c-.63,3.93-9.72,20.59-18.81,26.21a13,13,0,0,1-14.75-1.09C307.62,205.4,295.08,193.17,290.77,183Z"/><path class="cls-158" d="M338.25,188.2a9.28,9.28,0,1,1,9.28-9.28A9.29,9.29,0,0,1,338.25,188.2Zm0-17.56a8.28,8.28,0,1,0,8.28,8.28A8.3,8.3,0,0,0,338.25,170.64Z"/><path class="cls-159" d="M290.77,178.24a13.29,13.29,0,0,1,10.59-8.6c5.26-.2,31.66,0,31.66,0a12,12,0,0,0-4.64,7.63,11.7,11.7,0,0,0,.39,4.77,7.94,7.94,0,0,1-.47-7.41c1.28-2.89-11.8-2.47-11.8-2.47s-12.46-.42-18.5,1.11S290.77,178.24,290.77,178.24Z"/><path class="cls-145" d="M290.77,178.24s1.66-7.46,10.59-8.6c5.08-.08,32,0,32,0s-3.39,1.5-4.77,6.61c-.26,2-.64,3.1.91,7.8,1.06,1.6,1.74,2.65,1.74,2.65s-4.47,4.73-13.11,1.5-22.12-8.45-26.22-8.73A1.34,1.34,0,0,1,290.77,178.24Z"/><path class="cls-160" d="M289.69,181.08s4.14,8.34,24.66,14.48c3.25.63,15.49,1.52,19.3-7.56,2.22,1,8.21,1.58,11.47-1.58-2.42,1.61-7.75,2.41-12.75,0a17.15,17.15,0,0,1-3.4-6.62,13.67,13.67,0,0,0,1.56,6.62c-2.34,1.68-5.82,8.4-21.35.86C294.83,181.85,288.76,176.55,289.69,181.08Z"/><path class="cls-161" d="M333.65,188s7.42,2.82,12.54-2.84c-.32,3.12-9,20.7-18.81,26.21s-3.19-5.36-3.19-5.36S333.63,193.6,333.65,188Z"/><path class="cls-73" d="M294,173.6s2.61-4.43,12-4.41,27,.45,27,.45a8.48,8.48,0,0,0-1.89,1.76C330.26,172.51,330,173,330,173a13,13,0,0,0-7.49-1.67c-4.38.34-18.78.1-18.78.1S291.91,175.93,294,173.6Z"/><path class="cls-73" d="M284.27,189.82s-6.48-3-11.6-2.15,2.69,2.56,2.84,3.32,6.37-1.88,13.86,4.7c3.1,2.52,3.08.92.85-1.13S284.27,189.82,284.27,189.82Z"/><circle class="cls-162" cx="338.25" cy="178.92" r="8.27"/><path class="cls-163" d="M330,175.23a9.25,9.25,0,0,1,3.87-4.3,9.7,9.7,0,0,1,8.32-.28,9.24,9.24,0,0,1,4.37,5.55c.12.41.12.56-.82-1.19a9.56,9.56,0,0,0-5-4.36,9.15,9.15,0,0,0-6.34.65c-.57.32-1.89.72-4,4C330.17,175.89,329.72,177.17,330,175.23Z"/><path class="cls-163" d="M330.21,182.67a9.23,9.23,0,0,0,4,4.21,9.67,9.67,0,0,0,8.32.07,9.24,9.24,0,0,0,4.24-5.64c.11-.41.1-.57-.8,1.21a9.52,9.52,0,0,1-4.85,4.47,9.16,9.16,0,0,1-6.36-.5c-.57-.3-1.9-.68-4.11-3.86C330.39,182,329.91,180.73,330.21,182.67Z"/><path class="cls-164" d="M329.74,175.23c0-.07-.45,1.6-.2,1.63s1.25-1.49,1.25-1.49-1.5,2.12-.34,6.45c-.38-.5-.9-1.88-.66.88A8.9,8.9,0,0,1,329.74,175.23Z"/><path class="cls-165" d="M346.74,175.23c0-.07.45,1.6.2,1.63s-1.25-1.49-1.25-1.49,1.5,2.12.34,6.45c.38-.5.9-1.88.66.88A9.2,9.2,0,0,0,346.74,175.23Z"/><path class="cls-163" d="M334.49,171.53a4.42,4.42,0,0,1-1.47.63c-.77-.11-.42-.92.33-1.23s3.42-1.91,6.31-1.07c1,.31.28.82-.14.79A13.3,13.3,0,0,0,334.49,171.53Z"/><circle class="cls-73" cx="338.45" cy="172.11" r="0.64"/><circle class="cls-73" cx="338.45" cy="186.11" r="0.64"/><g class="cls-166"><rect class="cls-167" x="329.87" y="177.38" width="16.92" height="0.37"/><rect class="cls-168" x="329.87" y="176.63" width="16.92" height="0.37"/><rect class="cls-169" x="329.99" y="175.8" width="16.92" height="0.37"/><rect class="cls-170" x="329.99" y="175.04" width="16.92" height="0.37"/><rect class="cls-171" x="329.99" y="174.28" width="16.92" height="0.37"/><rect class="cls-172" x="329.99" y="173.53" width="16.92" height="0.37"/><rect class="cls-173" x="329.87" y="181.97" width="16.92" height="0.37"/><rect class="cls-174" x="329.87" y="181.24" width="16.92" height="0.37"/><rect class="cls-175" x="329.99" y="180.41" width="16.92" height="0.37"/><rect class="cls-176" x="329.99" y="179.65" width="16.92" height="0.37"/><rect class="cls-177" x="329.99" y="178.89" width="16.92" height="0.37"/><rect class="cls-178" x="329.99" y="178.14" width="16.92" height="0.37"/><rect class="cls-179" x="329.99" y="184.21" width="16.92" height="0.37"/><rect class="cls-180" x="329.99" y="183.45" width="16.92" height="0.37"/><rect class="cls-181" x="329.99" y="182.7" width="16.92" height="0.37"/></g><path class="cls-40" d="M333,171s-3.95,2.91-4,7.68a9.4,9.4,0,0,0,4.65,8.29c1.33.79,6.5,3,10.86-1.17a9.19,9.19,0,0,0,3-8.13,8.93,8.93,0,0,1-3,8.45c-2.9,2.29-4.35,3.07-9.94,1.74-1.63-.36-3.53-.61-5.26-4.87a10.1,10.1,0,0,1,.08-8.19A9.74,9.74,0,0,1,333,171Z"/><path class="cls-51" d="M345.12,191l10.6-16.27A5.42,5.42,0,0,1,363,175.8c3.32,3.79,8,9.67,8,9.67s2.56,4.74-4.77,6.28-20.52,2.5-20.52,2.5S343.63,193.29,345.12,191Z"/><path class="cls-161" d="M289.69,220.64c.34.33,9.89,1.46,20.11-3.32,4.14-1.54,6.09-4.32,3.57-3.54-2.92,1.43-7.93,5.24-15.37,5.48C291.38,219.59,288.09,219.1,289.69,220.64Z"/><path class="cls-182" d="M317.36,215.69s8.67,3.62,16.74-5.41a62.52,62.52,0,0,0,6.53-9.51s5.74,3.24,4.49,11-2.7,10.64-9.76,12.46S316.32,227.22,317.36,215.69Z"/><polygon class="cls-183" points="348.25 175.98 354.85 175.45 353.87 176.73 348.25 175.98"/><path class="cls-184" d="M296.49,222.51c-.25-.43,13.26-2,16.88-5.19,2.68-1.46,2.68-2.52,3.24,1s.65,8.36,11.12,8.85C322.94,228.11,302.33,232.57,296.49,222.51Z"/><path class="cls-3" d="M345.69,194.25s5.91,17.56,13.44,19.45,14.2-16.06,14.2-16.06"/><path class="cls-161" d="M347.12,192.89s-2.38.6-.93-1.48,10.25-16.18,10.25-16.18,3.16-1.79,5.57.67,8.65,10.21,8.65,10.21l.32-.64-8.59-10.24s-2.76-2.12-4.71-1.31-1.84.62-3.16,2.65-9.79,15.18-9.79,15.18a2.52,2.52,0,0,0,.39,2.08S346.69,194.92,347.12,192.89Z"/><path class="cls-160" d="M346.6,190.79l9.84-15.56a4.8,4.8,0,0,1,4.74,0c1.61,1.49,9.48,10.88,9.48,10.88s-.19,1.94-3,1.17-8.73-3.71-12.29-1.17S344.89,194.61,346.6,190.79Z"/><circle class="cls-111" cx="358.73" cy="176.47" r="1.03"/><circle class="cls-111" cx="369.23" cy="187.65" r="1.03"/><path class="cls-18" d="M273.18,117.38l7.22.09-2.72.4c-.5.07-3.91.74-3.91.74s.24,5.09-.94,6.77c-1.09,1.88-.87,1.46-.68.54A52.89,52.89,0,0,0,273.18,117.38Z"/><circle class="cls-111" cx="347.22" cy="192.03" r="1.03"/><path class="cls-42" d="M348.07,175.71l7.26-.66-6.2,8.88h-1.31S349,178,348.07,175.71Z"/><path class="cls-81" d="M255.18,173.16a42.19,42.19,0,0,1,35.59-1.69c.23.6-.92.87-1.48.69s-9.78-2.95-17.24-2.3c-4.42.74-9.82,1.22-15.74,4.41C253.89,175.22,255.18,173.16,255.18,173.16Z"/><path class="cls-185" d="M250.86,175.43s11.17-6.78,21.38-7,16.38,1.83,19.05,3.51c-1.18.85-4.71,1.6-3.78,6.33s.54,3.35.54,3.35l-9.91,1.72s-5.78-1.77-9.91-.61-10.71,3.41-10.71,3.41Z"/><path class="cls-3" d="M265.78,98s-5.48,12.32,5.29,18.7S306,125,315.16,120a15.67,15.67,0,0,0,4.23-5.16"/><path class="cls-3" d="M274.24,114.57s.44-14.71,2.18-16.62"/><path class="cls-3" d="M276.94,113.51s4.91-15.13,5.15-15.94"/><path class="cls-3" d="M280.4,114.44c.11.08,3-14,7.11-16.87"/><path class="cls-186" d="M183.85,117.55s-3.37-5.2,3.42-7.17a35.2,35.2,0,0,1,13-1.15l-2.3-7.44s-40.5-2.7-44.5-2.26C158.23,100.82,176,106.62,183.85,117.55Z"/><path class="cls-187" d="M189.78,124.11c.64-1.35,9.3-14,7.86-16.7s-2.47-4.23-2.47-4.23l-29,.89a44.91,44.91,0,0,0-14.44-4.59c15.63-1.18,46.25,2.31,46.25,2.31L200.8,111a56.67,56.67,0,0,0-8.67,16A16.91,16.91,0,0,1,189.78,124.11Z"/><path class="cls-188" d="M217.75,131.24s0,1.65,2.23,2.52a16.51,16.51,0,0,1,4.72,3.53l1.32-.24,5.45,9.54,1.86-.94-5.48-9.3-2.43-2.59-5.44-4Z"/><path class="cls-42" d="M169.43,105.92s13.4,9.18,19.69,17.63c1.35-.62,9.58-12.15,4-15.65S172.34,102.49,169.43,105.92Z"/><circle class="cls-189" cx="219.98" cy="129.72" r="2.7"/><path class="cls-190" d="M335.61,129.51s-2.74.75-2.26,5.84a29.93,29.93,0,0,0,2.73,9.52l1.64-1.25a13.62,13.62,0,0,1-2-8.54C336.24,130,335.61,129.51,335.61,129.51Z"/><polygon class="cls-189" points="221.1 132.42 226.39 135.62 228.29 132.28 222.27 129.04 221.1 132.42"/><path class="cls-191" d="M334.84,132h4.7a.52.52,0,0,1,0,.76c-.38.39-4.7,0-4.7,0Z"/><path class="cls-192" d="M335,130.19h4.71a.54.54,0,0,1,0,.77c-.39.38-4.71,0-4.71,0Z"/><path class="cls-192" d="M335.61,128.74h4.7a.53.53,0,0,1,0,.77c-.38.38-4.7,0-4.7,0Z"/><path class="cls-193" d="M336.23,127.31h4.71a.54.54,0,0,1,0,.77c-.39.38-4.71,0-4.71,0Z"/><path class="cls-191" d="M335,133.9h4.71a.54.54,0,0,1,0,.77c-.39.39-4.71,0-4.71,0Z"/><path class="cls-191" d="M334.75,135.51h4.71a.54.54,0,0,1,0,.77c-.39.38-4.71,0-4.71,0Z"/><path class="cls-191" d="M335,137.52h4.71a.54.54,0,0,1,0,.77c-.39.39-4.71,0-4.71,0Z"/><path class="cls-194" d="M335.81,139.34h4.71a.54.54,0,0,1,0,.77c-.38.38-4.71,0-4.71,0Z"/><path class="cls-194" d="M336.61,141.17h4.71a.54.54,0,0,1,0,.77c-.39.38-4.71,0-4.71,0Z"/><path class="cls-195" d="M337.72,142.85h4.71a.54.54,0,0,1,0,.77c-.39.39-4.71,0-4.71,0Z"/><path class="cls-196" d="M348.32,140.82s1.41,3.62-2.31,3.71c-2.43-.16-6.35-2.06-6.34-9.86.21-5-.25-8.11,6.66-8,1.41,0,1.19,2.61,1.19,2.61l-5.16.89-.64,3.25a17.74,17.74,0,0,0,1.54,4.55c1.34,3,1.54,3,1.86,3S348.32,140.82,348.32,140.82Z"/><path class="cls-197" d="M302.66,129.82l.69-5.21s.35-1.07,2.2-1.06h6.51a2.87,2.87,0,0,1,2.27,1.93c.44,1.67.83,4.41.83,4.41Z"/><path class="cls-197" d="M322.73,129.82l.69-5.21s.35-1.07,2.19-1.06h6.51a2.87,2.87,0,0,1,2.27,1.93c.44,1.67.83,4.41.83,4.41Z"/><path d="M318.38,114.8s2.32-1.81,3.14-.12,1.21,15.14,1.21,15.14-7.06-.08-6.8-.1S315.56,118.69,318.38,114.8Z"/><path class="cls-198" d="M323.77,129.45l1-4.35s.19-.54,1.56-.65,5.68,0,5.68,0,.73,0,1.27,1.19a23.51,23.51,0,0,1,1,3.57Z"/><path class="cls-198" d="M314.12,129.21,313.07,125a4.28,4.28,0,0,0-2.24-.56c-1.2.09-5.43,0-5.43,0a1.23,1.23,0,0,0-1.12.95c-.33,1-.8,3.69-.8,3.69Z"/><path class="cls-199" d="M293.5,122.2s12.8,1.51,21-1.92c1.76-1.35,2.55-2.16,3.84-5.48.43-.28,2.4-1.37,2.7-.19s.65,14.43.65,14.43l-2.32.17L319,115.4a8.75,8.75,0,0,1-6.82,6.1C306.56,122.6,296.2,123.65,293.5,122.2Z"/><path class="cls-200" d="M319.65,129h2.08l-1.1-12.74s-.14-.85-.4,0S319.65,129,319.65,129Z"/><rect class="cls-20" x="322.73" y="111.03" width="21.93" height="0.96"/><rect class="cls-20" x="322.73" y="112.49" width="21.93" height="0.96"/><rect class="cls-20" x="322.73" y="113.96" width="21.93" height="0.96"/><rect class="cls-20" x="322.73" y="115.43" width="21.93" height="0.96"/><rect class="cls-20" x="322.73" y="116.9" width="21.93" height="0.96"/><rect class="cls-20" x="322.73" y="118.37" width="21.93" height="0.96"/><rect class="cls-20" x="322.73" y="119.84" width="21.93" height="0.96"/><rect class="cls-20" x="322.73" y="121.3" width="21.93" height="0.96"/><path class="cls-15" d="M293.84,127.31a12.21,12.21,0,0,1,1.79,6,12.82,12.82,0,0,1-1.31,6.66"/><polygon points="101.84 187.28 107.48 170.64 113.14 172.05 107.96 188.97 101.84 187.28"/><polygon class="cls-201" points="121.69 106.01 116.71 122.04 137.4 129.11 142.15 113.51 121.69 106.01"/><polygon class="cls-135" points="131.83 109.72 125.9 125.18 135.09 128.32 140.08 113 131.83 109.72"/><polygon class="cls-135" points="135.09 110.38 128.91 126.21 132 127.02 137.4 111.77 135.09 110.38"/><polygon class="cls-201" points="118.62 122.8 106.82 158.49 107.48 170.64 113.14 172.05 121.69 162.85 135.09 128.32 118.62 122.8"/><polygon class="cls-202" points="117.41 125.92 125.9 133.9 117.41 162.17 109.39 171.42 113.14 172.05 121.69 162.85 135.09 128.32 118.62 122.8 117.41 125.92"/><polygon class="cls-203" points="107.49 169.37 106.82 158.49 117.41 125.92 109.39 157.73 116.71 161.14 108.22 159.38 107.49 169.37"/><path class="cls-204" d="M430.86,97.43l12.71-5.64s1.47.1,1.27.72S431,98.35,431,98.35,429.89,99,430.86,97.43Z"/><path class="cls-205" d="M432.33,99.14,445,93.49s1.47.11,1.27.72-13.79,5.85-13.79,5.85S431.36,100.74,432.33,99.14Z"/><path class="cls-206" d="M432.89,101.39l12.71-5.64s1.47.1,1.27.71-13.8,5.85-13.8,5.85S431.92,103,432.89,101.39Z"/><path class="cls-207" d="M434.36,103.09l12.71-5.64s1.47.1,1.27.72S434.55,104,434.55,104,433.39,104.7,434.36,103.09Z"/><path class="cls-208" d="M435,105.26l12.71-5.64s1.47.1,1.26.71-13.79,5.85-13.79,5.85S434,106.86,435,105.26Z"/><path class="cls-209" d="M436.49,107l12.71-5.64s1.47.11,1.26.72-13.79,5.85-13.79,5.85S435.52,108.57,436.49,107Z"/><path class="cls-210" d="M437.05,109.22l12.71-5.65s1.47.11,1.26.72-13.79,5.85-13.79,5.85S436.07,110.82,437.05,109.22Z"/><path class="cls-211" d="M438.52,110.92l12.71-5.64s1.47.1,1.26.72-13.79,5.85-13.79,5.85S437.55,112.53,438.52,110.92Z"/><path class="cls-212" d="M438.64,112.91l12.71-5.64s1.47.1,1.26.72-13.79,5.84-13.79,5.84S437.67,114.51,438.64,112.91Z"/><path class="cls-213" d="M440.11,114.62,452.82,109s1.47.1,1.27.71-13.8,5.85-13.8,5.85S439.14,116.22,440.11,114.62Z"/><path class="cls-214" d="M440.67,116.87l12.71-5.64s1.47.1,1.26.72-13.79,5.84-13.79,5.84S439.7,118.47,440.67,116.87Z"/><path class="cls-215" d="M442.14,118.58l12.71-5.65s1.47.11,1.27.72-13.8,5.85-13.8,5.85S441.17,120.18,442.14,118.58Z"/><path class="cls-216" d="M442.49,120.76l12.71-5.64s1.47.1,1.26.72-13.79,5.84-13.79,5.84S441.52,122.36,442.49,120.76Z"/><path class="cls-217" d="M444,122.47l12.71-5.65s1.47.11,1.27.72-13.8,5.85-13.8,5.85S443,124.07,444,122.47Z"/><path class="cls-218" d="M444.52,124.72l12.71-5.64s1.47.1,1.26.71-13.79,5.85-13.79,5.85S443.55,126.32,444.52,124.72Z"/><path class="cls-219" d="M445.49,126.65l12.7-5.64s1.47.1,1.27.72-13.79,5.84-13.79,5.84S444.51,128.25,445.49,126.65Z"/><path class="cls-220" d="M445.49,128.76l12.7-5.64s1.47.1,1.27.71-13.79,5.85-13.79,5.85S444.51,130.36,445.49,128.76Z"/><path class="cls-221" d="M447,130.47l12.71-5.65s1.46.11,1.26.72-13.79,5.85-13.79,5.85S446,132.07,447,130.47Z"/><path class="cls-222" d="M447.52,132.72l12.7-5.65s1.47.11,1.27.72-13.79,5.85-13.79,5.85S446.54,134.32,447.52,132.72Z"/><path class="cls-223" d="M449,135.23l12.71-5.64s1.46.1,1.26.72-13.79,5.85-13.79,5.85S448,136.84,449,135.23Z"/><polygon class="cls-108" points="433.08 95.23 452.76 135.07 458.85 132.1 438.87 91.84 433.08 95.23"/></g></g></g></svg>