<svg xmlns="http://www.w3.org/2000/svg" xmlns:xlink="http://www.w3.org/1999/xlink" viewBox="0 0 650.06 284.06"><defs><style>.cls-1{isolation:isolate;}.cls-15,.cls-2,.cls-37,.cls-38,.cls-46,.cls-48,.cls-50,.cls-52,.cls-60,.cls-69,.cls-72,.cls-73,.cls-76,.cls-77,.cls-83,.cls-84{fill:#fff;}.cls-3{fill:#212121;}.cls-4{fill:#b4b5b6;}.cls-5{fill:#383f3f;}.cls-6{fill:#48494a;}.cls-10,.cls-14,.cls-20,.cls-22,.cls-23,.cls-24,.cls-28,.cls-29,.cls-30,.cls-35,.cls-41,.cls-43,.cls-47,.cls-55,.cls-6,.cls-61,.cls-62,.cls-65,.cls-67,.cls-71,.cls-9{mix-blend-mode:multiply;}.cls-7,.cls-9{fill:#c8cccb;}.cls-8{fill:#e3e5e4;}.cls-10{fill:#9f9f9f;}.cls-11{fill:#e5e5e5;}.cls-12,.cls-14,.cls-28,.cls-29,.cls-55,.cls-85{fill:#231f20;}.cls-13{fill:#939999;}.cls-14{opacity:0.58;}.cls-15{opacity:0.43;}.cls-16{fill:#777f7f;}.cls-17{fill:#070707;}.cls-18{fill:#171717;}.cls-19,.cls-20{fill:#282727;}.cls-20{opacity:0.37;}.cls-21{fill:#414849;}.cls-22,.cls-79{opacity:0.4;}.cls-23{fill:#4d504f;}.cls-24{opacity:0.66;}.cls-25,.cls-67{fill:#0b0b0b;}.cls-26,.cls-78{fill:#101010;}.cls-27{fill:#555656;}.cls-28{opacity:0.8;}.cls-30{fill:#4f5b5b;opacity:0.19;}.cls-31,.cls-49{fill:#1d1d1d;}.cls-31{opacity:0.42;}.cls-32{fill:#acbdc1;opacity:0.45;}.cls-33,.cls-34,.cls-42,.cls-44{fill:#f7f7f7;}.cls-34,.cls-72{opacity:0.29;}.cls-35{opacity:0.51;}.cls-36{fill:#252b2b;}.cls-37{opacity:0.71;}.cls-38,.cls-43,.cls-58{opacity:0.2;}.cls-39{fill:#f9f9fa;opacity:0.14;}.cls-40,.cls-41,.cls-43{fill:#a91f23;}.cls-42{opacity:0.21;}.cls-44{mix-blend-mode:soft-light;}.cls-45{fill:#fdfefe;}.cls-45,.cls-55,.cls-56,.cls-73{opacity:0.17;}.cls-46,.cls-59{opacity:0.12;}.cls-47{opacity:0.73;}.cls-48{opacity:0.72;}.cls-50{opacity:0.23;}.cls-51{fill:#181818;}.cls-52{opacity:0.68;}.cls-53{fill:#f2f2f3;opacity:0.82;}.cls-54{fill:#d4d6d6;}.cls-56,.cls-57,.cls-58,.cls-59{fill:#ced3d3;}.cls-60{opacity:0.13;}.cls-61{opacity:0.87;}.cls-62{fill:#202626;}.cls-63{fill:#a6adad;}.cls-64{fill:#d1d3d3;}.cls-65{opacity:0.75;}.cls-66{fill:#c3c7c8;}.cls-67{opacity:0.07;}.cls-68{fill:#2e3333;}.cls-69{opacity:0.62;}.cls-70,.cls-71{fill:#171818;}.cls-71{opacity:0.28;}.cls-74{opacity:0.49;}.cls-75{opacity:0.54;}.cls-76{opacity:0.35;}.cls-77{opacity:0.34;}.cls-78{opacity:0.57;}.cls-79{fill:#cfcfce;}.cls-80{fill:url(#linear-gradient);}.cls-81{fill:url(#linear-gradient-2);}.cls-82{fill:url(#linear-gradient-3);}.cls-83{opacity:0.16;}.cls-84{opacity:0.04;}.cls-85{opacity:0.36;}</style><linearGradient id="linear-gradient" x1="437.54" y1="10.65" x2="454.96" y2="10.65" gradientTransform="translate(4.09 0.69) rotate(0.15)" gradientUnits="userSpaceOnUse"><stop offset="0" stop-color="#d1d3d4"/><stop offset="1" stop-color="#6d6e71"/></linearGradient><linearGradient id="linear-gradient-2" x1="424.49" y1="27.63" x2="448.33" y2="27.63" gradientTransform="translate(13.26 80.31) rotate(-10.38)" xlink:href="#linear-gradient"/><linearGradient id="linear-gradient-3" x1="437.81" y1="15.99" x2="439.17" y2="15.99" gradientTransform="translate(12.78 65.58) rotate(-8.66)" xlink:href="#linear-gradient"/></defs><g class="cls-1"><g id="Layer_2" data-name="Layer 2"><g id="Side_car" data-name="Side car"><path class="cls-2" d="M542.4,8.47s2.74,6,2.72,15.76-1.31,22.44-8.44,30.22c1.11-19.31,4.22-46,4.22-46Z"/><polygon class="cls-3" points="446.9 19.23 446.54 16.94 457.03 11.62 459.37 13.37 446.9 19.23"/><path class="cls-4" d="M544.55,2.41A149.85,149.85,0,0,0,529.31.31c1,2.85,8.5,25.59-5.28,57.2,6,.34,10.31-.06,11.44-.77,10.59-15.24,5.8-41.23,6.31-44.75s1.76-4.54,2.77-5.3A2.71,2.71,0,0,0,544.55,2.41Z"/><path class="cls-5" d="M529.31.31C517.64-.64,511.13.75,506,2.41,486.06,8.2,474.21,18.79,472.34,26.1c-1.62,7.82,4.14,11.24,4.14,11.24s2.77,4.9,10.34,10.42C499.28,54.37,514,57,524,57.51,537.81,25.9,530.35,3.16,529.31.31Z"/><path class="cls-6" d="M530,.36a57.54,57.54,0,0,1,3.24,16c.34,8.41-.23,24.49-6.48,38.48,2.08.12,6.13.47,7.29,0s7.71-7,8.31-31.81c.07,7.28,1.08,22.1-6.86,33.72a43.37,43.37,0,0,1-11.44.77c1.23-2.93,10.52-30.29,5.28-57.2Z"/><path class="cls-7" d="M533.07,27s1.52-16.2-3.1-26.63c1.7.16,11.81,1.33,14.58,2.05,0,0,2,3.49-1.62,4.3-1.39,1-3,3.59-2.67,8.56a71.11,71.11,0,0,1,.35,10.39C540.26,27.3,534.55,28.41,533.07,27Z"/><path class="cls-8" d="M531.75,38,531,41.65s6.82.45,8.1,0,1.39-1.17,0-1.75S531.75,38,531.75,38Z"/><path class="cls-7" d="M527.54,52.92l.68-.06c1.43-.14,4.77-.52,6-1.15,1.62-.81,4.75-5.4,4.75-5.4s-1.63,6.56-5,8.52c-1.39,1-7.29,0-7.29,0Z"/><path class="cls-9" d="M544.55,6.69S541.4,8.33,541.78,14s1.05,11.21.62,13.64-.66,11.26-2.84,16.85-2.65,5.15-.45-2.84,1.9-13.39,1.58-19.07-1.47-11.39,1.71-15.89c1.16-.17,3.42-1,2.15-4.28C545.4,3.43,546.31,4.76,544.55,6.69Z"/><path class="cls-10" d="M532.26,25.66c-.21.71.25,5.23,1.53,5.69a35.33,35.33,0,0,0,4.62.93s3.23-.49,3.93-8.17c-.08,4.58-.53,13.23-2.23,16.73,0-3.69-2.17-6.83-5.29-6.83-1.61.46-3.81,6.83-3.81,6.83Z"/><path class="cls-10" d="M530,43s5.12,2.32,10.14,1A29,29,0,0,1,539,48.7s-3.59,3.59-11.58-.11A35.11,35.11,0,0,0,530,43Z"/><path class="cls-11" d="M530,.36s3.95,8,3.25,25.3c.4,1.67,1.48.11,1.6-1.55s.92-5.25,0-9.54,2.91-6.36,4.18-6.71,4.27-2,2.07-2.66a41.77,41.77,0,0,0-7.31-.92S532.3,3.7,533.22,3s11.86-.1,11.86-.1.39-.39-1.46-.71S530,.36,530,.36Z"/><path d="M473.06,24.11s-.51,4.7,1.77,5.94S483.62,27,483.62,27s8.82-6.24,25.9-4.41c-2.22,0-27.45,10.35-27.66,10.41l-7.61,2S470,31.4,473.06,24.11Z"/><polygon points="449.65 71.3 447.87 39.22 452.85 28.82 459.11 28.82 489.64 81.17 490.6 84.26 490.13 87.97 431.55 79.74 412.11 72.7 446.12 70.03 449.65 71.3"/><path class="cls-12" d="M559.31,120.25a62.41,62.41,0,1,1-62.4,62.4,62.48,62.48,0,0,1,62.4-62.4m0-28.35a90.75,90.75,0,1,0,90.75,90.75A90.75,90.75,0,0,0,559.31,91.9Z"/><path class="cls-13" d="M485.25,84.67c1.07-1.08,30.14-18.3,80.39-15.07,19.74,1.43,36.61,12.2,45.58,20.09,3.59,3.59,3.23,5.75-4.67,8.26s-21.89,5.74-43.78,2.87c-9.69-.72-51,.36-67.12,28.35C487.4,96.15,485.25,84.67,485.25,84.67Z"/><path class="cls-14" d="M499.38,77.81s26.2-8.34,43.74-8.34c2.55,1.44.64,3.18-4.76,5.49S519.31,85.52,519,92.82c3.18,3.18,15.89,5.08,30.33,0,15.09-4.76,32.24,1.59,32.24,1.59s9.74,4.37,29.8,1.55c-4.81,2-14.05,7.19-36,5.92s-68.25,14.84-68.25,14.84S498.56,82.61,499.38,77.81Z"/><path class="cls-15" d="M514.05,73.16s27.31-5.64,49.47-3.69c8.51,0,31.39,4,49.12,21.87.7,1.45,1.27,2.68,0,3.65-2.94-3-14.67-15.4-37.73-20.66-11.53-2.53-21-6-56.91,0A5.41,5.41,0,0,1,514.05,73.16Z"/><path class="cls-15" d="M528.78,94.3s-7.26.12-4.28-6.35,26.16-16.22,28.09-18.76c1.62-.12,30.77-3.91,58.63,20.5-.24,1.51,1.09,3.28-5.56,2.69s-36.07-9-53.07-4.43S528.78,94.3,528.78,94.3Z"/><polygon class="cls-16" points="447.87 20.91 460.74 15.27 564.98 181.09 569.62 188.15 557.56 194.98 447.87 20.91"/><path class="cls-16" d="M487.57,72.94s0-21.37,13.11-30.2,10.84-6.48,10.84-6.48,11.65-8.64.15-12.93c-9-2.77-29.14,2-43,16.89C471.69,46.27,487.57,72.94,487.57,72.94Z"/><path d="M125.54,245.06a56.79,56.79,0,1,1,28.8-105.7l21.95-19.44a85.13,85.13,0,1,0-6.74,141.23L148,240.43A56.44,56.44,0,0,1,125.54,245.06Z"/><path class="cls-17" d="M121.71,211.19H87.26a71,71,0,0,1-20.19-6.14c-14.3-.71-26.67,0-26.67,0L31.3,198H63.49s1.41-5.1,5.45-5.1,5.84-7.69,10.69-7.94,42.08-2.28,42.08-2.28Z"/><path class="cls-18" d="M246.58,74.08l58.52-3.83L309.64,59l19.17.7,46.42,10.8L386.1,89l-5,21.47L306.79,115l-20.42,75.29-54.12-73.21L175.49,125l-20.16,33.18-25,25.24-35.25,6.86,3.18-29.71s43.77-55.78,44.83-57.73,60.57-24,63.31-24.23S246.58,74.08,246.58,74.08Z"/><path class="cls-19" d="M309.64,59s-2-6.2-8.47-5.63c-5.35,2-19.71,11-36.89,5.63-11.82-4.79-28.15-15.77-63.92-15.49-5.35.57-29.28,3.06-29.56,11.39a4.29,4.29,0,0,0,1.92,2.49L189.66,70.5l70.5,4.5s49.48,4.27,49.48-5.86C309.66,63.26,308,62.63,309.64,59Z"/><path class="cls-20" d="M170.8,54.9s.8-5.63,7.79-3.36S197.48,61.65,216,64.15s48.8,6.26,52.54,6.64,24.51,2.83,29.61,0,6.23-14.17,10.57-12c.94.2,2.46,4.26,2.46,4.26l1.28,9.82-1.28,6.79S289.44,85,288.87,85s-38.33-6.44-38.33-6.44L182.13,70Z"/><path class="cls-21" d="M280.44,82.26s-1.58-5.3,4-5.93,47.24-2.49,61.17,0c4.24,1.29,8.91,5.53,1.73,14.41-4.76,2.14-26.88,12.45-43.48,12.08C297.8,98.21,280.24,89,280.24,89Z"/><path class="cls-14" d="M511.3,74.15s-4.38,4.4-.92,7.73,13.4,17.24,13.4,17.24,4.6,2.83,14.27,2C546.12,100.43,557,97,571.71,99c7.61.47,33.65-.73,33.65-.73-6,2.88-21.19,4.61-21.19,4.61l-64.11,6.71L499.87,77.52Z"/><path class="cls-22" d="M280.24,80.62S307.18,93.23,310.8,98c4.73.32,25-5.3,39.91-13A36.41,36.41,0,0,1,346,93.7c-3.94,2.2-39.82,11.85-39.82,11.85L276.76,85Z"/><path class="cls-16" d="M377.05,70.5A1223.92,1223.92,0,0,1,517.21,88.83c2.29,1.91.76,5.73,0,11.46s-17.19,97-17.19,97-4.2,13.37-37.81,13.37H285l-44.3-126,48.12,19.86S341.53,104.87,377.05,70.5Z"/><path class="cls-23" d="M307.77,107.34s48.47-6.23,68.85-29a35,35,0,0,0,7.4-2.21l19,8.93-2.93,13.87s4.05-1.22,19.72-1.25c2.09.3,8.07.52,10.78,3.08a28.89,28.89,0,0,1,1.62,2.43s-7.73,36.56-18.92,54.57c-4.82,1.41-6.79,4-55.66,2.81-14-.41-25.53-.77-25.53-.77S327.11,134.05,307.77,107.34Z"/><path class="cls-24" d="M304.3,103.25s14.22,16.91,22.36,38.89c3,8.44,5.48,17.61,5.48,17.61s58.35,1.91,64.57,1.08,14.35-2,16.62-3.12,17.59-32.79,18.92-54.57c.94-1.24-.7-4.24-.7-4.24s-9.5-1.81-18.22-2.82c-4,1.8-14.51,1.28-14.51,1.28L400.13,85l-6.76-2s.62,17.71-7,29.76-36.51,18.76-45.59,18S304.3,103.25,304.3,103.25Z"/><path class="cls-5" d="M187.77,68.77,172.72,57.39s-5.39-3.59-11.13-2.15S31,106.2,31,106.2s-19.74,6.1-21.18,22.25-4.31,44.86-4.31,44.86.72,17.59,20.82,19.38,50.07,0,50.07,0l38.94-73.21Z"/><path class="cls-16" d="M314.12,74.26s91.42,1.63,133.75,0c3.35-1.08,7.65-14,1.55-33.38-5.38-13.64-17.58-24.4-46.3-19.74-16.13,3.7-27.86,2.67-76.46,19.63a25,25,0,0,0-17,22.49C309.49,67.88,310.62,72.1,314.12,74.26Z"/><path class="cls-25" d="M309.64,59s1,11.16,6,12.5,16.47,1.38,16.47,1.38,89.49.46,99.41-.88c9.25-.83,16.41-.93,18.1-5.65a45.8,45.8,0,0,0,2.27-13.58c.59,4.68,1.26,12-1.58,18.56-1.28,2.38-2,3-7.2,3.12s-85.48,2.36-91,1.88c-6.49,0-40.64-1.26-40.64-1.26A35.4,35.4,0,0,1,309.64,59Z"/><path class="cls-22" d="M312.44,72.88s-5.28-4.74-1.81-15.52C313.82,50.62,322,45,331,41.89c7.74-2.33,31.64-10.9,78.49-17.65,6.35-.78,5.05,2.08,1.16,2.6s-75.22,13-89,28.06c-1.85,3.61-5.49,5.92.23,13.07,4.93,1.7,48.54,0,48.54,0s39.67-.8,46.37-4.47c4.45-2.43,8.41-10.27,7.11-17.24s.52-14,5.45-11.12,13.75,7.14,13.5,24.56c-1.56,6.6.78,5.41,1.56,4.45s9.63-12.17-3.62-36c3.94,4.26,12.48,12.8,11.42,36-1.15,5.4-1.92,9.85-4.35,10.11-3.36.34-78.58,1.82-78.58,1.82l-55.17-1.82Z"/><polygon class="cls-26" points="393.37 23.02 393.09 19.86 408.84 17.63 409.51 20.33 393.37 23.02"/><polygon class="cls-26" points="388.15 18.44 388.53 20.91 412.48 17.42 412.11 15.27 388.15 18.44"/><path class="cls-27" d="M388.15,18.44s3.55-3,11.66-3.89,12.3.72,12.3.72Z"/><polygon class="cls-18" points="297.85 195.5 315.67 195.5 315.67 144.96 267.47 90.74 240.61 93.61 244.94 124.19 297.85 195.5"/><path class="cls-12" d="M210.67,131.27a62.22,62.22,0,1,1-62.22,62.22,62.29,62.29,0,0,1,62.22-62.22m0-28.35a90.57,90.57,0,1,0,90.57,90.57,90.57,90.57,0,0,0-90.57-90.57Z"/><path class="cls-28" d="M386.33,188.27s-26.48,3.68-28.88,5.22-6.32,3.54-7.46,5.74,14.27,3.41,19.07,4S481,205.05,481,205.05s11.3-1.49,19.06-7.76c-1.24,3-6.22,12-31.46,13.08-24.83.29-173.56.82-173.56.82l3.6-17.7,34.95-5.81Z"/><polygon class="cls-29" points="337.09 188.04 338.82 205.05 396.71 210.71 298.31 211.19 298.6 193.49 337.09 188.04"/><path class="cls-30" d="M403.06,87.26l-.55,9.06s21.14-1.32,31,2.09l1.2.43,2.2,2.07a1.4,1.4,0,0,1,.11.74c-.06.4-4,20.67-10.71,36.18-2.19,5.47-14.21,39.34-35.67,49.7-4.34.75-55.7,0-55.7,0l-35.29,6L297,211.19l6.25-.53H459.86c1,0,12.91-.26,17-1s16.06-1.74,21.11-9.17c1.07-1.35,2.07-3.14,3.16-9.19S518.42,91.9,518.42,91.9Z"/><path class="cls-31" d="M120.16,190.26s-14.06.15-16.12,1.18-5.32,2.46-6.65,4.06-17.62,4.69-17.62,4.69-6.62-.23-7.9-.76-4.89,0-4.89,0H36.6l3.8,3.08H70.56l6.9,2.54s22.62-.29,23.19,0,20-1.27,20-1.27S120.06,192.45,120.16,190.26Z"/><path class="cls-22" d="M73,192.87s3.18-42.48,21.1-62.13c6.65-10.18,22.29-32,44.57-43.48,6.26-3.85,36.56-17.36,40.08-19.11.78-1-.35-6.85-4.14-9.35,6.88,4.67,13.19,10,13.19,10l-66.33,45.14L95.12,159.34,79.6,192.87Z"/><path class="cls-16" d="M76.18,196.28s.39-59.4,49.52-97.62C167.69,66,219,52.72,281.82,84.31c25.12,15.79,54.91,48.81,55.27,121.66-7.54-3.23-20.46-7.54-20.46-7.54s-5.38-2.51-6.46-15.07-4.3-58.5-55.27-78.6-82-11-114.64,17.76c-20.09,18-28.19,28.9-36.81,58,0,7.89-1.07,10-5,12.2s-22.65,9-22.65,9Z"/><path class="cls-12" d="M4.79,89.4A6.4,6.4,0,0,0,.88,93.87C.32,96.2-.25,99,.12,99.67a36,36,0,0,1,1.54,4.21,6.39,6.39,0,0,0,5.05,4.33,52.58,52.58,0,0,0,7.22.87c1.89-.12,128.51-49.32,147.5-56.7a6.4,6.4,0,0,0,3.46-3.23h0A6.41,6.41,0,0,0,165,43.9l-2.29-5.4a6.4,6.4,0,0,0-3.08-3.26l-4.26-2.09a6.47,6.47,0,0,0-5.14-.22Z"/><path class="cls-32" d="M164,55l9.68,7.55s3.27,4.72-4.84,8.28-48.33,16.52-70.37,49.85-39.13,60.07-39.13,60.07-3.3,3.58-10.47,3.3-30.58,6.62-30-13.5,2.48-44.08,2.48-44.08,2.76-11.27,17.08-17.34,78.53-34,78.53-34l38.29-17.8S161.35,54.92,164,55Z"/><path class="cls-22" d="M76.36,192.69l-51.14-9.6s-6.5-3.49-6.33-10.92S21.09,130,21.09,130s0-13.44,17.35-20.89c15.54-6.68,102-44.94,102-44.94S42.4,104.39,25.59,112.93c-5.78,4.13-9.92,11.3-11,21.49-1.1,9.64-6.3,10.39-5.91,6.16-1.15,12.06-3.19,32.73-3.19,32.73s1,8.14,4.68,11.62c3.32,1,12.6,4.67,19.49,6.2S76.36,192.69,76.36,192.69Z"/><path class="cls-33" d="M82.75,89.94l80.33-32.25a24.26,24.26,0,0,1,4.46,0c2.65.22,5.72-.56,3.26-1.39-3.62-1.11-5.53-2.85-16.76,1.54S82.75,89.94,82.75,89.94Z"/><path class="cls-34" d="M156,58.8s.22,8.9-4.45,13.67-44.67,21.45-61.78,49.89c-11.34,20.23-24.67,53.34-38.9,57.56s-18.9,6.46-27.78,1.57c-6.22-2.23-4.19-15.34-4.19-15.34s10.31-34.94,15.2-39.45S92,84,138.19,66.31C144.85,63.91,156,58.8,156,58.8Z"/><path class="cls-35" d="M320.2,127.68l14,20.38a18.59,18.59,0,0,0,10.22,2.72c5.63-.32,35.12-11.91,35.12-11.91s15.29-4.87,20.51-11.07c6.33-7.51,10.61-15.62,11-22.25-1.55-4.94-6.9-7.2-6.9-7.2l12.63-1.56,19,3.09-4,11.24-10.32,33.81-6.9,13.52s-33.3,5.8-82.37,1.3C331,153.81,325.5,136.25,320.2,127.68Z"/><path class="cls-34" d="M35,184.93s-12.79-1.32-14.42-5.31-1.25-9.68-1.75-18.45c2.33-2.58,6.46-3.33,11.91,3.93S54.37,180.26,35,184.93Z"/><path class="cls-36" d="M403.06,87.26l-.55,9.06s21.27-1.71,32.16,2.52c2.72,2.72,2.42,1.33,2.12,4.3s-14.22,62-40.24,81.79c-4.23,2.56-8.71,3.93-17,3.34s-46.23-.2-46.23-.2l.22-3.49,51.72.35s7.92-.47,15.05-8.94c5-5.45,21.64-23.78,31.93-72.85-1.51-2.18-.58-3.92-12.4-5.51-6.36,0-18.41.91-18.41.91Z"/><path class="cls-15" d="M77.46,201.05s18.79-6.89,21-8.36c1.27-.76,1.6-6,2.75-12.37s5.76-39.2,45.34-66.67c20.37-15.18,35.93-28.82,82-20.75,20.36,3.26,59.37,10.18,77.81,56.29,3.08,6.92,6.85,12.88,9.29,41.89.51,2.88,3.88,8.34,3.88,8.34l15.33,5.63s1.67-54.9-23.89-89.67c-7.68-10.76-23.63-34-74.74-44.88-11.53-2.58-45.67-6.87-79.35,11.64-3.46,2.3-33.88,13.14-54.76,46.28C95.42,139.18,82.75,151.5,77.46,201.05Z"/><path class="cls-37" d="M101.53,190.26c1.16-.32.91-.72,2.67-12.25,2.11-6.54,10.16-35.23,33.34-53,10.72-9.11,37.71-34.23,75.45-30.74,10.32,1.29,47.52,5.74,71.4,29,7.75,7,20.19,22.47,24.75,50.55.36,2.75-.09,17.81,6.53,23.92,1.58.89,1.82-1.07,0-4.26s-3.93-8.47-4.08-25.05c-2.11-8.29-8.9-30-25.33-46.9-6.48-6-23.22-22.14-57.13-27-7.39-1.51-35.25-6.93-57.43,4.07-6.49,3.47-29.56,16-46.89,35.73-2.72,3.47-15.08,15.68-21.26,38.89C103,177.48,98.9,191,101.53,190.26Z"/><path class="cls-38" d="M98.1,134.46s15.25-31.82,54.67-50.24C164,78.57,191,63.54,236.25,70.5c17.21,4,33.8,12.18,20.27,10.12s-50.6-15.12-103.9,15.56c-16.59,11.49-39.32,37.74-49.27,63.16-4.34,19-4.52,31-6.73,32.32s-11.4,4.59-6.8-12.76S98.1,134.46,98.1,134.46Z"/><path class="cls-38" d="M269.75,81.17s38.63,13.54,54.95,60.61c4.3,14.08,9.69,43.75,3.56,35.84s-11.31-44.93-38.8-66.38C261.59,89.51,246,87.82,210.67,85c-7.25.48-6.23-3.86,4.24-2.58s37,1.1,49.53,6.55c5.36,1.36,6.36-3.75,4.07-5.53S269.75,81.17,269.75,81.17Z"/><path class="cls-38" d="M98.1,134.46s-5.79,8,0,8.66,17.64-24.48,32.27-38.34,40.49-27.1,80.3-34c7.39-.31,12.56-2.64,7.15-2.64S188.93,65,149.46,85C138.47,92.07,120.5,100,98.1,134.46Z"/><path class="cls-18" d="M120.53,102.92l-9.39.22-19.29,27.6H90.4l2.53,6.59a1.94,1.94,0,0,0,2.19-.73c.85-1.2,17.28-25.17,25-31C121.31,104.5,122.81,102.87,120.53,102.92Z"/><path class="cls-39" d="M92.18,131.25s16.4-21.15,19.9-26.75c.39-1.39-.85-1.47-1.4-.23s-19.17,27-19.17,27Z"/><path class="cls-40" d="M111.14,103.14s-26.14,3-30.71,6a3.79,3.79,0,0,0-1.9,3.86l3,17.79a9,9,0,0,0,3.27.87,45.59,45.59,0,0,0,7.38-.36Z"/><path class="cls-41" d="M78.59,111.53a8.24,8.24,0,0,0,3.15-.5,114.17,114.17,0,0,1,18.91-4.2c2.58-.24,1.8-.26,1.18.33S86.71,110,84.28,112.94c-1.49,1.38-2,1.06-1.53,3.81s1.84,12.81,1.84,12.81a6.81,6.81,0,0,0,2.67.5c1.36-.08,5.84,0,5.84,0l-.92,1.19a54.73,54.73,0,0,1-6.58.42,11.84,11.84,0,0,1-4.07-.93l-2.94-17.45A3.94,3.94,0,0,1,78.59,111.53Z"/><path class="cls-42" d="M78.59,111.53s1.06.43,6-1.33c4.2-1.12,14.85-3.81,24.83-4.44l1.76-2.62s-19.45,2.5-25.81,4.22C83.75,107.78,79,108.69,78.59,111.53Z"/><path class="cls-43" d="M109.09,106.18S89.93,111.34,87.26,115s-1.13,13-1.13,13l7,2.08Z"/><path class="cls-44" d="M80,111.58s-1.22-.72,0-1.14A159,159,0,0,1,108.43,105c1.3-.11,1.44,0,1.44,0l-.49.73S96,106.91,90,108.83C86.77,109.49,80,111.58,80,111.58Z"/><path class="cls-45" d="M179.33,51.79s-1.84-2.69,3.59-3.61,27.81-4.47,48,2.82c9.67,3.22,24,11,37.6,11.87,6,.34,17.36,2.29,30.92-6.57,1.87-1.06,3.06-3,6.7-1.79-1.44.56-6.36,3.1-7.88,6.24C296.72,63.21,286.71,72,264,66.33c-11.2-4-33.19-15-57.55-15.33C198.18,50.83,179.33,51.79,179.33,51.79Z"/><path class="cls-46" d="M280.24,80.62s.63-4.22,7.48-3.82c5.65,0,44-2.66,59.77,1.9,1.31.22,2.86,2,2.42,5.56-1.11-.1-4-3.05-14.31-3.09s-47.17-.55-47.17-.55S281.9,78.54,280.24,80.62Z"/><path class="cls-47" d="M280.44,82.26s-.78-2.69,3.75-2.51,53.93.56,60.68,1.42c1.91.47,5.34,1.51,5.84,3.81-.4,2.1-3,5.33-3,5.33a143.61,143.61,0,0,1-43.39,12.94c-1.85-2-15.53-14.84-23.93-19.66C279.94,82.59,280.44,82.26,280.44,82.26Z"/><path class="cls-48" d="M312.44,52.92s.48-10.39,59.61-24.54c5.19-.9,40.91-8.46,53.56-5.36,6.45,1.6,10.84,2.87,15.19,5.1-1.66-1.36-8.74-8.54-26.29-8.08-6.81.28-39.11,5.78-49.81,8.88C356.75,31.1,315.89,39.3,312.44,52.92Z"/><path class="cls-49" d="M41.64,200.18H66.31s2.64.3,1.51.75-26.48,0-26.48,0S40.14,200.18,41.64,200.18Z"/><path class="cls-49" d="M79.25,202.36c.52.32,10.08,4.66,16.32,4.06s23.32-1.33,23.32-1.33,4.36-3.38-1.13-4-32.94.63-34,1S77.87,201.5,79.25,202.36Z"/><path class="cls-50" d="M332.25,47.88a334.83,334.83,0,0,1,73.59-20.22c4.83-.82,12.79-4.3,21.92-1.61,9.14,2.87.36,9.32-5,9.14S355.07,43.07,339.08,49C334.56,51.32,326.86,51.8,332.25,47.88Z"/><path class="cls-50" d="M325.5,66.31s16.78,2.21,45.23.5c8.16,0,24.48-10.06,26.26-11.35,4.45-3.2,15.12-3.43,18.79-3.55,3.09-.09,8.48-7.56,3.79-9.85s-10.54-4.58-19.25-.92-15.36,6.64-20.05,7-12.39.31-12.39.31a9.15,9.15,0,0,1,2.77,7.81c-.58,5-1.73,7.64-3.1,8.1S325.5,66.31,325.5,66.31Z"/><path class="cls-51" d="M326,66.31s-10.77-3.86-2.87-11.41c4.67-3.25,38-8.64,38-8.64s8.26.72,9.33,5.75-1.07,14.25-7.89,14.3S326,66.31,326,66.31Z"/><path class="cls-52" d="M435.8,37.73s-5-3.09-3.9-7.56,5-3.78,6.91-.69,9.36,18.76,4.89,28.63C442.33,57.21,443.13,43.11,435.8,37.73Z"/><polygon class="cls-53" points="403.06 87.25 518.41 91.9 518.41 90.74 404.16 85.01 403.06 87.25"/><path class="cls-54" d="M333.44,185.72H388.1s6.51-1.61,9.41-4.83c-4.27,1.19-11.32,2.49-15.57,2.42s-46-1.59-47-.52A7.29,7.29,0,0,0,333.44,185.72Z"/><polygon class="cls-14" points="334.22 187.69 334.22 190.26 386.33 188.27 334.22 187.69"/><path class="cls-55" d="M401.44,210.76s44.32-24.23,62.12-58.21,26.08-61.81,26.08-61.81l28.78,1.16L500,197.29s-2.73,11.69-28,12.87C447.38,211.07,401.44,210.76,401.44,210.76Z"/><path class="cls-56" d="M403.06,210.66s50.55-28.26,65.5-68c12.81-28.9,17.23-39.3,21.08-51.93-6.92-.28-33.09-1.79-33.09-1.79s-3.89,31.24-18.13,58.74-65,63-65,63Z"/><path class="cls-57" d="M331,50.1c2.44.13,41.09-16.44,79.92-19.38,7.5-.54,18.53-5,10.47-4.9s-43.51,6.44-61.14,12.1S323.74,49.69,331,50.1Z"/><path class="cls-58" d="M324.13,57.36s.58-1.74,2-2,30.31-6.67,30.74-6.53a9.62,9.62,0,0,0,2.61-.62l5.22.77s-.29,1.5,0,1.84-2.61.21-2.61.21a7.06,7.06,0,0,1-3.77,1.14c-2.17,0-4.64-.29-5.65,0S324.13,57.36,324.13,57.36Z"/><path class="cls-59" d="M324.13,63.6l41.76-2.85s3.77-5.17.73-7.83c-.87-1.65-.53-2.67,1.19-.93s.84,7.84-1.92,10.3c-3.19.73-41,2.32-41,2.32Z"/><path class="cls-60" d="M378.23,25.82s32,1,29.47,14.82a46.12,46.12,0,0,1-11,22.73c-1.41,1.8-.5,8.62,14.21,4.09s14.39-5.76,13-21.2,10.66-18.62,16.89-18.14c-5.17-3.71-10.05-8.44-25-8.1C401.33,21.25,378.23,25.82,378.23,25.82Z"/><path class="cls-14" d="M438.7,209.6s43.71-1.94,51.2-12.61S518.7,90.92,518.7,90.92l.17-.39L500.52,197s-6.44,10.66-23.41,11.67S438.7,209.6,438.7,209.6Z"/><path class="cls-61" d="M332.14,159.75S378.93,161.24,383,161s23.52-.22,30.34-3.32c-1.87,3.83-11.3,18.34-18.27,23.18a2.51,2.51,0,0,1-1.4.93A64.53,64.53,0,0,1,372.73,183c-11.91-.33-36.86-.45-36.86-.45S333.33,164.61,332.14,159.75Z"/><path class="cls-62" d="M374.31,70.5s-2.14,5,0,7.71c2.15.14,4.94.22,6.76-.86,2,.43,14.53,6.15,16.53,8.58s0,9.28,0,9.28.43,5.14,4.43,3.29c1.72-2,7.07-8.53,4.43-12.29-4.69-2.47-26.9-14.36-26.9-14.36Z"/><path class="cls-63" d="M377.05,70.5,404.16,85l114.26,5.73s1.91-1.34-4.25-2.48S427.77,73,377.05,70.5Z"/><path class="cls-64" d="M380.88,70.5A1337,1337,0,0,1,518.42,89c-1.21-.12,0,1.79,0,1.79l-130-16.08Z"/><path class="cls-65" d="M337.09,159.91s12.11,11.67,12.9,11.82,46.72,0,46.72,0,7.78-2,16.62-14c-1.88,3.31-12.25,20-18.95,23.81a65.7,65.7,0,0,1-22.19,1.5c-7.61-.15-36.32-.43-36.32-.43l-3.73-22.84Z"/><path class="cls-22" d="M329.42,149.88s3.95,6.19,6.53,6.84,59.63,2.75,70.61,0c3.07-1.29,6.95-5.91,9.54-11.76s12.11-33.16,12.11-36.71c0-4.53.76-7.76-4-8.57s-20.07-1.33-20.07-1.33,12.81-1,15.69-.72,9.75-.36,11.88,4.65c.69,2.09-4.81,22.83-6.83,28.46-2.22,6.33-9.38,24.18-11.57,27a70,70,0,0,1-20.5,2.73,582.06,582.06,0,0,1-60.69-.69C331.62,157.4,329.42,149.88,329.42,149.88Z"/><path class="cls-66" d="M304.3,103.25A138.64,138.64,0,0,0,349,90c7.9-4.24,20.69-12.68,24.37-16.07,1.42.7,2.53,2.23.1,4.87s-18.11,15.37-33.87,18.82c-11.44,3.32-32.63,8.77-32.63,8.77Z"/><path class="cls-56" d="M305.18,104.1s10.3,7.79,42.87,12.39c20.37,2.93,28.35,2.65,30.18.92,2.84-2.69,25.93-19.06-3.34-40.32-1.36-1.53-3.88-1.2-3.88-1.2s-13.38,10.78-25.55,16-41.16,11.35-41.16,11.35Z"/><path class="cls-25" d="M320.2,59.85s3.87,4.67,4.91,4.76c1.13-.06,36.08-1.55,40.78-2.32.33-.32,3-1.88,2.8-9.52-.32-3-.16-3.58-1.14-4.49,1.48,1.15,3.15,1.59,3.15,6.59-.05,1.43-.16,7.48-4.89,10.59-.62.31-1.69,1-5.65.87l-34.2,0a10.23,10.23,0,0,1-5-3.62A6.69,6.69,0,0,1,320.2,59.85Z"/><path class="cls-25" d="M324.13,58.11s36.55-5.7,39.14-5.78c.67-.07,1.46-1.54,1.46-1.54l-2.61.21s-1.23,1.76-7.15,1a46.66,46.66,0,0,0-7.25,1.06l-23.59,4.27-.79.75Z"/><path d="M363.27,52.33A5,5,0,0,1,366.16,56a16.17,16.17,0,0,1-1,4.79s.8.22,1.43-1,2.08-4.84.47-6.36a17.9,17.9,0,0,1-2.29-2.55Z"/><polygon class="cls-67" points="327.71 57 325.5 63.5 346.07 62.1 348.93 54.31 327.71 57"/><path class="cls-67" d="M357.34,52.92l-3,8.62,10.82-.79s1.78-1.61,1.78-2.9a50.62,50.62,0,0,0-.85-5.49l-2.78-.62Z"/><path class="cls-68" d="M404.16,87.85a2.83,2.83,0,0,1-2.82-2.59c-.94-10.76-8.26-20.63-13.69-21.62-3.8-.69-7.1,5.6-7.95,7.86a2.84,2.84,0,0,1-5.31-2c1.82-4.88,6.89-12.79,14.27-11.45,8.66,1.58,17.23,14.06,18.33,26.71a2.84,2.84,0,0,1-2.58,3.07Z"/><path class="cls-60" d="M386.1,58s6.14-1.52,13.2,7.47c2.15,3,5.95,6.55,7.69,19.34-.09.92-.85,4.65-4.42,2.58-.71-2.69-1.2-13.29-6-19.2-1.34-1.92-4.72-6.12-12.4-6.12-2.15.21-4.58,2.55-4.58,2.55s-2.47,1.16-.43-1.73A11,11,0,0,1,386.1,58Z"/><path class="cls-62" d="M374.21,72.27s2.32-4.3,3.77-5.42,3.62-3.34,7.18-3.79c1.34,0,3.78-.28,5.93,2.2-1.88-1.11-5-2.78-8.11.71-1.17,1.64-3.42,5.88-3.42,5.88l-.54,2h-1.79Z"/><path class="cls-60" d="M389.56,58.11s10.09,2.77,15.25,17.3c1,2.9,2.22,7,2.18,9.36-.07.81-.66,3-1.89,1.68S402.41,83,402.34,81,400.81,68.49,396,64.61s-5.31-5.13-12-5.7c.19-.28.78-1.09,1.62-.8A17.21,17.21,0,0,0,389.56,58.11Z"/><path class="cls-69" d="M398,64.87s2.21,1.12,5.2,7.29A31.66,31.66,0,0,1,406,84.3c-.07.34-1.16,2.25-2.05-.18s-.29-6-1.43-9.66S396.64,64.08,398,64.87Z"/><path class="cls-64" d="M518.42,91.9a1.74,1.74,0,0,0,.29-2.54,1.33,1.33,0,0,0-.47-.41l-1.2-.26.3.93.14,1.71Z"/><polygon class="cls-15" points="517.04 118.95 563.72 191.49 569.62 188.15 517.23 105.13 517.04 118.95"/><polygon class="cls-15" points="454.3 18.09 495.08 83 505.56 86.58 489.31 60.76 473.53 35.62 460.74 15.27 454.3 18.09"/><path class="cls-15" d="M473.53,35.62s14.43-13.94,33.35-13c3.1.34,7.1.42,9.54,4.41a12,12,0,0,1-1,5.15s.4-5.86-5-6.32-19.09-2-34.64,13.4Z"/><path class="cls-15" d="M505.56,22.54s-5.74,4.69-6.24,7.68-.9,14.27-.9,14.27-6.87,4.93-9.11,16.27c-1.35-2.82-15.78-25.14-15.78-25.14S485,23.1,505.56,22.54Z"/><path class="cls-15" d="M476.36,33.05l16.18,18.69a40.4,40.4,0,0,0-3.23,9C485,54,473.53,35.62,473.53,35.62Z"/><circle class="cls-70" cx="509.52" cy="29.64" r="2.65"/><path class="cls-71" d="M514.8,25.05s3.48,1.14,2.79,4.59.67,5.31-10.71,12c-3.52,3-2.12,7.53,1.87,8.45s11.62,2.42,13.35,1.38,10.11-11.4,9.22-43c.65,5.18,4.25,21-7.29,49-2.95-.21-17.51-1.24-30.37-6.59.91-1.76,3.62-6.66,10.74-10.66,5-2.66,9.85-5.59,11.06-8.12A6.41,6.41,0,0,0,514.8,25.05Z"/><path class="cls-71" d="M479.17,16.35s-5.19,8.87.36,8.7c5.09-.64,11.42-5.22,27.35-4.14,2.84.72,5.05.38,7.92,4.14-1.37-.76-6.81-4.11-18.15-1.8-3.12.93-15.53,4.45-22.4,11.71-.95-1.14-4-6-.35-12.42A66.43,66.43,0,0,1,479.17,16.35Z"/><path class="cls-72" d="M529.31.31s-19.68-3.24-45.89,12.63c-1.23,2.21-2.62,5.9,3.05,5.5s21.45-4.21,44.85-1A44.31,44.31,0,0,0,529.31.31Z"/><path class="cls-73" d="M517,24.11s5,5.44,2.1,10.85-13.66,9.46-7,11.95,14.91.28,16-11.4S521.7,12.47,517,24.11Z"/><polygon class="cls-74" points="449.94 20 490.6 83 506.88 86.58 486.23 83 447.87 20.91 449.94 20"/><polygon class="cls-74" points="516.74 104.51 515.21 122.68 560.75 193.17 557.56 194.98 513.01 124.59 516.74 104.51"/><polygon class="cls-75" points="516.54 104.04 512.93 124.95 518.41 135 519.35 108.48 516.54 104.04"/><polygon class="cls-75" points="483.03 77.83 504.58 85.01 505.56 86.58 484.44 83 483.03 77.83"/><path d="M511.52,36.26s-11.07,7-12.14,11.25c-.35,2.19.06,2.64,1.2,3.29s12.82,4.39,20.89,4.08c1.65-.21,4.45-5,5.95-8.23a56.07,56.07,0,0,1-2.34,8.24,4.22,4.22,0,0,0,3.14,1.33h5.54a11.62,11.62,0,0,0,4-3.45,26.13,26.13,0,0,1-2.33,4s-5.39,2.12-17.83,0c-11.89-1.86-16.86-2.55-24.51-6,1.47-1.43,3.61-6.13,10.29-9.87C506.38,39.18,511.52,36.26,511.52,36.26Z"/><path class="cls-12" d="M505.82,75.89s-2.8,2.42-2.23,3.88,5.16,7.38,5.16,7.38l-3.19-.57-5.69-9.06Z"/><path class="cls-12" d="M518.32,93.7l-1.86,10.81s2.88,4.29,3,4.29,18.36-6,18.36-6-12.76,1-15,0S518.32,93.7,518.32,93.7Z"/><polygon class="cls-12" points="336.66 188.04 340.64 202.35 381.8 210.66 337.7 210.66 336.66 188.04"/><path class="cls-12" d="M23.28,192.78s10.08,1.29,17.33,1.37,35.69-.74,35.69-.74,1.17-23.17,11.16-44.85c1.18-2.65,5.47-11.23,5.47-11.23S86.57,143.8,80,164.5c-2.26,7.12-6.58,22.32-6.58,22.32s-14,5.93-50.12,2.15C17.24,187.68,12,186.82,8,181.75,10.62,185.49,13.15,190.7,23.28,192.78Z"/><path class="cls-15" d="M461.61,23,493.74,76.4s5.38,6.22,4.89,3.75a34.18,34.18,0,0,0-2.14-6L464.37,23S459.86,20.11,461.61,23Z"/><path class="cls-15" d="M523.78,115.51l39.94,63.58s6.11,8.15,1.57,5.43S522.81,122,522.81,122,520,113.74,523.78,115.51Z"/><polygon class="cls-26" points="445.87 19.23 460.23 11.94 467.3 24.11 453.33 32.28 445.87 19.23"/><polygon class="cls-3" points="449.65 18.09 459.93 13.37 466.29 24.11 457.97 28.97 460.74 23.02 456.58 24.11 458.63 20.55 454.3 21.17 455.82 17.58 449.65 18.09"/><path class="cls-76" d="M449.65,18.09,459.37,13s1.06,0,.92.33,6,10.74,6,10.74a.64.64,0,0,1-1-.29c-.28-.71-5.95-9.22-5.95-9.22a4.17,4.17,0,0,0-1.4.28c-.23.22-9.73,4.35-9.73,4.35S447.86,19.1,449.65,18.09Z"/><polygon class="cls-76" points="449.53 15.43 457.03 11.62 458.26 12.54 453.89 14.81 454.69 13.53 449.53 15.43"/><polygon class="cls-26" points="448.74 15.82 448.74 16.35 453.29 14.72 452.76 15.73 446.82 18.75 446.54 16.94 448.74 15.82"/><polygon class="cls-60" points="390.6 18.12 392.29 20.02 409.35 17.63 410.59 15.43 390.6 18.12"/><polygon class="cls-77" points="388.39 18.44 412.11 15.27 412.11 15.6 407.78 16.35 405.89 17.85 396.52 18.97 393.09 18.23 388.21 18.82 388.39 18.44"/><path class="cls-78" d="M392.59,16.18s-2.09,1.39-.39,1.28S408,15.27,408,15.27s1.55-.5-.14-.85a17,17,0,0,1,4.26.85l-24,3.17A15.86,15.86,0,0,1,392.59,16.18Z"/><path class="cls-79" d="M392.11,18.09s3.57.08,3.64.1,2.1.24,2.54.25,6.91-1,6.91-1,.81-.48,1-.62.94-.32,1.22-.51,1.22-.37,1.24-.44S392,18.09,392,18.09Z"/><path class="cls-79" d="M393.36,15.91a38.9,38.9,0,0,1,12.91-1.61c.61,0,.54.47-1.68.64a58.18,58.18,0,0,0-7,.6C395.4,16.06,391.82,17.1,393.36,15.91Z"/><path d="M475,78.78l-.34-.94c14.61-5.21,27.45-4.65,28.93-11.23.65-3-.25-5.67-2.7-8.1-6.38-6.34-19.16-10.33-30.43-13.84-6.93-2.17-13.48-4.21-17.73-6.55-11.29-6.23-7.11-22.89-7.07-23.06l1,.25c0,.16-4,16.08,6.58,21.93,4.16,2.3,10.67,4.33,17.55,6.47,11.38,3.55,24.28,7.57,30.84,14.09,2.66,2.65,3.69,5.77,3,9C503,73.86,490.19,73.37,475,78.78Z"/><path class="cls-80" d="M441.6,12.61s10.62-4.67,12.57-6.49,4.86,6.3,4.86,6.3l-13.89,6.73Z"/><path class="cls-12" d="M412.4,39.39l25.72-22.55s7.14-.06,7.89,7.13c-6.36,5.67-24.39,22.87-24.39,22.87S413.45,47.85,412.4,39.39Z"/><path class="cls-12" d="M437.37,20.49s-4.16-6.08,1-9.64c4.65-3.23,11.18,1.87,13.29,7.25s-2.35,11.46-8.79,7.33C438.51,22.66,437.37,20.49,437.37,20.49Z"/><path class="cls-12" d="M453.21,7.75s5.37,4.59,5.28,7S452.17,20,452.17,20a13.79,13.79,0,0,0-6.69-9C446.23,9.12,450.84,5.48,453.21,7.75Z"/><path class="cls-81" d="M456.22,13.15a23.56,23.56,0,0,1,1.55,5.91A6.81,6.81,0,0,1,456.6,23s-13,10.49-15.75,17.64c0,.73,1.2,2,0,3.18s-3.14.83-2.87-1.1,4.86-10.25,9.29-14.83c2.07-2,6.29-5.55,6.5-7.26,0-1.25-1-4.8-1.81-5.58A12,12,0,0,1,456.22,13.15Z"/><path class="cls-12" d="M439.33,20s2.8,2.55,3.59,2.57,2.71-1.86,2.22-3.4S439.33,20,439.33,20Z"/><circle class="cls-82" cx="448.67" cy="15.38" r="0.68"/><path class="cls-83" d="M440.91,11.41s-.63-1.2.56-1.12,6.21.59,9.4,7.64c.43.66-.24,1.09-.53.46S448.23,12.74,440.91,11.41Z"/><path class="cls-84" d="M413.82,39.35s3.93,2.7,5.58,2.36c1.23-.26,23.92-20.86,23.92-20.86s.61-2-2.87-3.26c1.25.08,4.71.77,3.69,5.63-1.05,1.05-22.93,21-22.93,21Z"/><path class="cls-85" d="M440.85,40.61s.2-3.49,6-10l8.78-8.18a5.41,5.41,0,0,0,1.16-4,18.31,18.31,0,0,0-.67-2.56l.64-1.51s1.44,4.91.8,6.5-.53,1.92-3.66,4.41c-3,2.44-4.57,3.64-10.72,11.13A44.7,44.7,0,0,0,440.85,40.61Z"/><path class="cls-83" d="M442.31,35a43.58,43.58,0,0,1,6.37-8,34.9,34.9,0,0,0,5.47-5.89,3.75,3.75,0,0,0-.26-3.2,3,3,0,0,1,.32,4.48C452.51,24.26,447.86,28.22,442.31,35Z"/></g></g></g></svg>