<svg xmlns="http://www.w3.org/2000/svg" xmlns:xlink="http://www.w3.org/1999/xlink" viewBox="0 0 654.82 339.03"><defs><style>.cls-1{isolation:isolate;}.cls-132,.cls-157,.cls-2,.cls-93{fill:none;stroke-miterlimit:10;}.cls-157,.cls-2{stroke:#000;}.cls-2{stroke-width:0.57px;opacity:0.61;}.cls-3{fill:#353535;}.cls-4{fill:#a3a9aa;}.cls-5,.cls-7{fill:#cccccb;}.cls-102,.cls-6{fill:#282828;}.cls-11,.cls-7{opacity:0.16;}.cls-147,.cls-150,.cls-8{fill:#9b9a9a;}.cls-9{fill:url(#linear-gradient);}.cls-10,.cls-29{opacity:0.36;}.cls-11,.cls-110,.cls-122,.cls-123,.cls-124,.cls-13,.cls-131,.cls-138,.cls-139,.cls-140,.cls-142,.cls-149,.cls-162,.cls-163,.cls-164,.cls-21,.cls-33,.cls-41,.cls-43,.cls-45,.cls-52,.cls-53{fill:#fff;}.cls-12{fill:url(#linear-gradient-2);}.cls-13{opacity:0.04;}.cls-14{fill:#020202;opacity:0.52;}.cls-101,.cls-102,.cls-108,.cls-109,.cls-111,.cls-113,.cls-118,.cls-119,.cls-121,.cls-132,.cls-135,.cls-137,.cls-14,.cls-141,.cls-144,.cls-145,.cls-147,.cls-148,.cls-150,.cls-151,.cls-156,.cls-160,.cls-166,.cls-25,.cls-29,.cls-38,.cls-39,.cls-44,.cls-49,.cls-94,.cls-95,.cls-96{mix-blend-mode:multiply;}.cls-15{fill:url(#linear-gradient-3);}.cls-16{fill:#5d5f5d;}.cls-17{fill:url(#linear-gradient-4);}.cls-18{opacity:0.25;}.cls-19{fill:url(#linear-gradient-5);}.cls-20{fill:#1e1e1e;}.cls-21,.cls-46{opacity:0.55;}.cls-22{fill:url(#linear-gradient-6);}.cls-23,.cls-30{fill:#c4c4c4;}.cls-24{fill:#212121;}.cls-127,.cls-25{opacity:0.3;}.cls-26{fill:#171717;}.cls-27{fill:#3a3b3a;}.cls-28{fill:#2d2e2d;}.cls-30,.cls-31,.cls-33{opacity:0.1;}.cls-32{fill:#010101;}.cls-34{fill:url(#linear-gradient-7);}.cls-35{fill:url(#linear-gradient-8);}.cls-36{fill:url(#linear-gradient-9);}.cls-37{fill:url(#linear-gradient-10);}.cls-38,.cls-44,.cls-97{fill:#808285;}.cls-113,.cls-142,.cls-38{opacity:0.51;}.cls-39{opacity:0.6;}.cls-103,.cls-104,.cls-143,.cls-154,.cls-40,.cls-48,.cls-55,.cls-56{fill:#d8d6d7;}.cls-140,.cls-40{opacity:0.69;}.cls-111,.cls-41{opacity:0.42;}.cls-42{fill:#8c8b8c;}.cls-100,.cls-128,.cls-43{opacity:0.46;}.cls-44{opacity:0.13;}.cls-45{opacity:0.19;}.cls-47{fill:#414042;}.cls-118,.cls-150,.cls-48,.cls-52{opacity:0.47;}.cls-49{fill:#636464;}.cls-50{fill:#bcbcbc;}.cls-146,.cls-50{opacity:0.06;}.cls-100,.cls-51,.cls-99{fill:#d2d2d3;}.cls-107,.cls-51{opacity:0.18;}.cls-53{opacity:0.2;}.cls-54{fill:#262626;}.cls-114,.cls-54,.cls-57,.cls-58,.cls-59,.cls-60{opacity:0.58;}.cls-55{opacity:0.43;}.cls-56{opacity:0.57;}.cls-57{fill:url(#radial-gradient);}.cls-58{fill:url(#radial-gradient-2);}.cls-59{fill:url(#radial-gradient-3);}.cls-60{fill:url(#radial-gradient-4);}.cls-116,.cls-156,.cls-61,.cls-62,.cls-63,.cls-64,.cls-65,.cls-66,.cls-67,.cls-68,.cls-69,.cls-70,.cls-71,.cls-72,.cls-73,.cls-74,.cls-75,.cls-76,.cls-77,.cls-78,.cls-79,.cls-80,.cls-81,.cls-82,.cls-83,.cls-84,.cls-85,.cls-86,.cls-87,.cls-88,.cls-89,.cls-90,.cls-91,.cls-92{opacity:0.22;}.cls-61{fill:url(#radial-gradient-5);}.cls-62{fill:url(#radial-gradient-6);}.cls-63{fill:url(#radial-gradient-7);}.cls-64{fill:url(#radial-gradient-8);}.cls-65{fill:url(#radial-gradient-9);}.cls-66{fill:url(#radial-gradient-10);}.cls-67{fill:url(#radial-gradient-11);}.cls-68{fill:url(#radial-gradient-12);}.cls-69{fill:url(#radial-gradient-13);}.cls-70{fill:url(#radial-gradient-14);}.cls-71{fill:url(#radial-gradient-15);}.cls-72{fill:url(#radial-gradient-16);}.cls-73{fill:url(#radial-gradient-17);}.cls-74{fill:url(#radial-gradient-18);}.cls-75{fill:url(#radial-gradient-19);}.cls-76{fill:url(#radial-gradient-20);}.cls-77{fill:url(#radial-gradient-21);}.cls-78{fill:url(#radial-gradient-22);}.cls-79{fill:url(#radial-gradient-23);}.cls-80{fill:url(#radial-gradient-24);}.cls-81{fill:url(#radial-gradient-25);}.cls-82{fill:url(#radial-gradient-26);}.cls-83{fill:url(#radial-gradient-27);}.cls-84{fill:url(#radial-gradient-28);}.cls-85{fill:url(#radial-gradient-29);}.cls-86{fill:url(#radial-gradient-30);}.cls-87{fill:url(#radial-gradient-31);}.cls-88{fill:url(#radial-gradient-32);}.cls-89{fill:url(#radial-gradient-33);}.cls-90{fill:url(#radial-gradient-34);}.cls-91{fill:url(#radial-gradient-35);}.cls-92{fill:url(#radial-gradient-36);}.cls-93{stroke:#231f20;}.cls-94{fill:url(#linear-gradient-11);}.cls-95{fill:url(#linear-gradient-12);}.cls-96{fill:url(#linear-gradient-13);}.cls-166,.cls-98{opacity:0.54;}.cls-148,.cls-99{opacity:0.32;}.cls-101{opacity:0.79;}.cls-102,.cls-134{opacity:0.33;}.cls-103{opacity:0.09;}.cls-105{fill:url(#linear-gradient-14);}.cls-106{fill:url(#linear-gradient-15);}.cls-107,.cls-116,.cls-117{fill:#a9a8a9;}.cls-108{opacity:0.29;}.cls-109{opacity:0.12;}.cls-110,.cls-129{opacity:0.31;}.cls-112{fill:url(#linear-gradient-16);}.cls-115{fill:#eae2d3;}.cls-119{opacity:0.49;}.cls-120{fill:#ab2123;}.cls-121,.cls-158{fill:#a9a296;}.cls-121,.cls-139{opacity:0.34;}.cls-122{opacity:0.05;}.cls-123{mix-blend-mode:soft-light;opacity:0.72;}.cls-124,.cls-151{opacity:0.75;}.cls-125{fill:#3a3a3a;}.cls-126{fill:#b5b5b5;opacity:0.66;}.cls-127,.cls-128,.cls-129,.cls-130{fill:#fffefb;}.cls-130{opacity:0.65;}.cls-131{opacity:0.21;}.cls-132{stroke:#808285;stroke-width:0.28px;}.cls-133,.cls-134{fill:#f2f4f4;}.cls-133,.cls-145,.cls-161{opacity:0.23;}.cls-135{fill:url(#linear-gradient-17);}.cls-136{fill:url(#linear-gradient-18);}.cls-137{fill:url(#linear-gradient-19);}.cls-138{opacity:0.07;}.cls-141{fill:#2d2d2d;}.cls-143,.cls-144{opacity:0.39;}.cls-146{fill:#f0edf3;}.cls-148,.cls-153,.cls-155{fill:#121112;}.cls-149{opacity:0.35;}.cls-152{fill:#1e1d1e;}.cls-154{opacity:0.28;}.cls-155{opacity:0.85;}.cls-157{stroke-width:1.42px;}.cls-159,.cls-161{fill:#121212;}.cls-160{fill:#4d4b49;opacity:0.68;}.cls-162{opacity:0.27;}.cls-163{opacity:0.48;}.cls-165{fill:#231f20;}.cls-166{fill:#d1d3d4;}</style><linearGradient id="linear-gradient" x1="432.73" y1="36.41" x2="453.55" y2="36.41" gradientTransform="translate(7.43 -32.45) rotate(4.16)" gradientUnits="userSpaceOnUse"><stop offset="0" stop-color="#d1d3d4"/><stop offset="1" stop-color="#6d6e71"/></linearGradient><linearGradient id="linear-gradient-2" x1="464.7" y1="18.17" x2="460.29" y2="45.99" gradientTransform="matrix(1, 0, 0, 1, 0, 0)" xlink:href="#linear-gradient"/><linearGradient id="linear-gradient-3" x1="459.83" y1="0.18" x2="454.79" y2="32.04" gradientTransform="matrix(1, 0, 0, 1, 0, 0)" xlink:href="#linear-gradient"/><linearGradient id="linear-gradient-4" x1="70.71" y1="215.44" x2="98.53" y2="277.94" gradientTransform="matrix(1, 0, 0, 1, 0, 0)" xlink:href="#linear-gradient"/><linearGradient id="linear-gradient-5" x1="530.75" y1="145.31" x2="515.52" y2="152.09" gradientTransform="matrix(1, 0, 0, 1, 0, 0)" xlink:href="#linear-gradient"/><linearGradient id="linear-gradient-6" x1="86.28" y1="228.5" x2="107.27" y2="228.5" gradientTransform="matrix(1, 0, 0, 1, 0, 0)" xlink:href="#linear-gradient"/><linearGradient id="linear-gradient-7" x1="422.65" y1="21.59" x2="446.5" y2="21.59" xlink:href="#linear-gradient"/><linearGradient id="linear-gradient-8" x1="449.53" y1="8.87" x2="450.89" y2="8.87" gradientTransform="matrix(1, 0, 0, 1, 0, 0)" xlink:href="#linear-gradient"/><linearGradient id="linear-gradient-9" x1="97.17" y1="178.79" x2="122.7" y2="182.36" gradientTransform="matrix(0.9, 0.44, -0.44, 0.9, 114.47, -40.16)" gradientUnits="userSpaceOnUse"><stop offset="0" stop-color="#808285"/><stop offset="0.31" stop-color="#59585b"/><stop offset="0.6" stop-color="#3b393b"/><stop offset="0.84" stop-color="#292627"/><stop offset="1" stop-color="#231f20"/></linearGradient><linearGradient id="linear-gradient-10" x1="153.67" y1="123.55" x2="163.15" y2="138.72" gradientTransform="matrix(1, 0, 0, 1, 0, 0)" xlink:href="#linear-gradient"/><radialGradient id="radial-gradient" cx="365.79" cy="178.65" r="15.56" gradientTransform="matrix(1, 0, 0, 1, 0, 0)" xlink:href="#linear-gradient"/><radialGradient id="radial-gradient-2" cx="368.6" cy="166.46" r="22.67" gradientUnits="userSpaceOnUse"><stop offset="0" stop-color="#c7c8ca"/><stop offset="0.16" stop-color="#b9b9bb"/><stop offset="0.46" stop-color="#939395"/><stop offset="0.86" stop-color="#575658"/><stop offset="1" stop-color="#414042"/></radialGradient><radialGradient id="radial-gradient-3" cx="368.76" cy="164.13" r="22.81" xlink:href="#radial-gradient-2"/><radialGradient id="radial-gradient-4" cx="369.03" cy="161.94" r="22.85" xlink:href="#radial-gradient-2"/><radialGradient id="radial-gradient-5" cx="390.03" cy="134.5" r="8.21" gradientTransform="translate(0 63.92) scale(1 0.71)" xlink:href="#radial-gradient-2"/><radialGradient id="radial-gradient-6" cx="390.44" cy="132.03" r="8.21" gradientTransform="translate(4.98 63.92) scale(0.99 0.71)" xlink:href="#radial-gradient-2"/><radialGradient id="radial-gradient-7" cx="390.67" cy="129.57" r="8.21" gradientTransform="translate(4.56 63.92) scale(0.99 0.71)" xlink:href="#radial-gradient-2"/><radialGradient id="radial-gradient-8" cx="391.11" cy="126.98" r="8.21" gradientTransform="translate(10.15 63.92) scale(0.97 0.71)" xlink:href="#radial-gradient-2"/><radialGradient id="radial-gradient-9" cx="391.15" cy="124.88" r="8.21" gradientTransform="translate(3.59 63.92) scale(0.99 0.71)" xlink:href="#radial-gradient-2"/><radialGradient id="radial-gradient-10" cx="391.42" cy="122.41" r="8.21" gradientTransform="translate(0 63.92) scale(1 0.71)" xlink:href="#radial-gradient-2"/><radialGradient id="radial-gradient-11" cx="391.64" cy="119.95" r="8.21" gradientTransform="translate(0 63.92) scale(1 0.71)" xlink:href="#radial-gradient-2"/><radialGradient id="radial-gradient-12" cx="391.81" cy="117.36" r="8.21" gradientTransform="translate(5.1 63.92) scale(0.99 0.71)" xlink:href="#radial-gradient-2"/><radialGradient id="radial-gradient-13" cx="391.87" cy="115.17" r="8.21" gradientTransform="translate(24.53 63.92) scale(0.94 0.71)" xlink:href="#radial-gradient-2"/><radialGradient id="radial-gradient-14" cx="393.2" cy="112.7" r="8.21" gradientTransform="translate(0 63.92) scale(1 0.71)" xlink:href="#radial-gradient-2"/><radialGradient id="radial-gradient-15" cx="393.41" cy="110.23" r="8.21" gradientTransform="translate(0 63.92) scale(1 0.71)" xlink:href="#radial-gradient-2"/><radialGradient id="radial-gradient-16" cx="394.02" cy="107.65" r="8.21" gradientTransform="translate(0 63.92) scale(1 0.71)" xlink:href="#radial-gradient-2"/><radialGradient id="radial-gradient-17" cx="394.37" cy="104.9" r="8.21" gradientTransform="translate(0 63.92) scale(1 0.71)" xlink:href="#radial-gradient-2"/><radialGradient id="radial-gradient-18" cx="394.93" cy="102.43" r="8.21" gradientTransform="translate(0 63.92) scale(1 0.71)" xlink:href="#radial-gradient-2"/><radialGradient id="radial-gradient-19" cx="395.14" cy="99.97" r="8.21" gradientTransform="translate(0 63.92) scale(1 0.71)" xlink:href="#radial-gradient-2"/><radialGradient id="radial-gradient-20" cx="395.2" cy="97.38" r="8.21" gradientTransform="translate(18.36 63.92) scale(0.95 0.71)" xlink:href="#radial-gradient-2"/><radialGradient id="radial-gradient-21" cx="415" cy="135.14" r="8.21" gradientTransform="matrix(1, 0, 0, -0.71, -66.83, 256.87)" xlink:href="#radial-gradient-2"/><radialGradient id="radial-gradient-22" cx="415.74" cy="132.67" r="8.21" gradientTransform="matrix(0.99, 0, 0, -0.71, -62.67, 253.35)" xlink:href="#radial-gradient-2"/><radialGradient id="radial-gradient-23" cx="415.93" cy="130.21" r="8.21" gradientTransform="matrix(0.99, 0, 0, -0.71, -63.54, 249.82)" xlink:href="#radial-gradient-2"/><radialGradient id="radial-gradient-24" cx="416.74" cy="127.62" r="8.21" gradientTransform="matrix(0.97, 0, 0, -0.71, -58.85, 246.14)" xlink:href="#radial-gradient-2"/><radialGradient id="radial-gradient-25" cx="416.35" cy="125.52" r="8.21" gradientTransform="matrix(0.99, 0, 0, -0.71, -65.47, 243.13)" xlink:href="#radial-gradient-2"/><radialGradient id="radial-gradient-26" cx="416.39" cy="123.05" r="8.21" gradientTransform="matrix(1, 0, 0, -0.71, -69.59, 239.61)" xlink:href="#radial-gradient-2"/><radialGradient id="radial-gradient-27" cx="416.6" cy="120.58" r="8.21" gradientTransform="matrix(1, 0, 0, -0.71, -70.03, 236.09)" xlink:href="#radial-gradient-2"/><radialGradient id="radial-gradient-28" cx="417.11" cy="118" r="8.21" gradientTransform="matrix(0.99, 0, 0, -0.71, -65.29, 232.4)" xlink:href="#radial-gradient-2"/><radialGradient id="radial-gradient-29" cx="418.51" cy="115.8" r="8.21" gradientTransform="matrix(0.94, 0, 0, -0.71, -46.06, 229.26)" xlink:href="#radial-gradient-2"/><radialGradient id="radial-gradient-30" cx="418.17" cy="113.34" r="8.21" gradientTransform="matrix(1, 0, 0, -0.71, -73.16, 225.74)" xlink:href="#radial-gradient-2"/><radialGradient id="radial-gradient-31" cx="418.38" cy="110.87" r="8.21" gradientTransform="matrix(1, 0, 0, -0.71, -73.58, 222.22)" xlink:href="#radial-gradient-2"/><radialGradient id="radial-gradient-32" cx="418.99" cy="108.29" r="8.21" gradientTransform="matrix(1, 0, 0, -0.71, -74.8, 218.53)" xlink:href="#radial-gradient-2"/><radialGradient id="radial-gradient-33" cx="419.34" cy="105.54" r="8.21" gradientTransform="matrix(1, 0, 0, -0.71, -75.51, 214.61)" xlink:href="#radial-gradient-2"/><radialGradient id="radial-gradient-34" cx="419.9" cy="103.07" r="8.21" gradientTransform="matrix(1, 0, 0, -0.71, -76.63, 211.08)" xlink:href="#radial-gradient-2"/><radialGradient id="radial-gradient-35" cx="420.11" cy="100.61" r="8.21" gradientTransform="matrix(1, 0, 0, -0.71, -77.05, 207.56)" xlink:href="#radial-gradient-2"/><radialGradient id="radial-gradient-36" cx="421.38" cy="98.02" r="8.21" gradientTransform="matrix(0.95, 0, 0, -0.71, -58.84, 203.87)" xlink:href="#radial-gradient-2"/><linearGradient id="linear-gradient-11" x1="504.58" y1="138.18" x2="522.66" y2="138.18" gradientTransform="matrix(1, 0, 0, 1, 0, 0)" xlink:href="#linear-gradient"/><linearGradient id="linear-gradient-12" x1="476.4" y1="84.2" x2="504.58" y2="84.2" gradientTransform="matrix(1, 0, 0, 1, 0, 0)" xlink:href="#linear-gradient"/><linearGradient id="linear-gradient-13" x1="468.67" y1="41.97" x2="477.27" y2="41.97" gradientTransform="matrix(1, 0, 0, 1, 0, 0)" xlink:href="#linear-gradient"/><linearGradient id="linear-gradient-14" x1="191.9" y1="214.4" x2="186.52" y2="275.89" gradientUnits="userSpaceOnUse"><stop offset="0" stop-color="#5a5b5d"/><stop offset="1" stop-color="#3e3e3f"/></linearGradient><linearGradient id="linear-gradient-15" x1="145.89" y1="210.37" x2="143.34" y2="239.51" xlink:href="#linear-gradient-14"/><linearGradient id="linear-gradient-16" x1="206.92" y1="197.14" x2="201.25" y2="261.98" gradientTransform="translate(46.38 -37.69) rotate(11.38)" xlink:href="#linear-gradient-14"/><linearGradient id="linear-gradient-17" x1="301.08" y1="251.41" x2="401.47" y2="251.41" gradientTransform="matrix(1, 0, 0, 1, 0, 0)" xlink:href="#linear-gradient"/><linearGradient id="linear-gradient-18" x1="289.58" y1="241.6" x2="301.08" y2="241.6" gradientTransform="matrix(1, 0, 0, 1, 0, 0)" xlink:href="#linear-gradient"/><linearGradient id="linear-gradient-19" x1="311.09" y1="210.95" x2="396.69" y2="210.95" gradientTransform="matrix(1, 0, 0, 1, 0, 0)" xlink:href="#linear-gradient"/></defs><g class="cls-1"><g id="Layer_2" data-name="Layer 2"><g id="Tracker"><polygon points="405.77 146.55 366.45 143.24 336.44 146.29 336.54 168.25 342.27 169.72 344.19 201.45 387.74 210.23 391.63 168.25 402.03 168.25 405.77 146.55"/><path d="M342.25,204.83v-3.66L389,202.76s1.44,0,1,.71.41,3.74.41,3.74,15,6,17.47,7.27c2.67,2.26,5.75,7.74,3.61,12.9l-14.83,35.81H282.23l2.68-38.72s2.54,7.3,18.12,7.93S342.25,204.83,342.25,204.83Z"/><circle class="cls-2" cx="386.86" cy="230.4" r="10.19"/><path class="cls-3" d="M297.35,247.46s-9.14-8-3.17-17.78,27.19-26,66.18-26.2c18.57-.21,36.52,1.76,40,17.9s1.93,33.87-14.85,38S314,261.86,297.35,247.46Z"/><path class="cls-4" d="M294.86,241.6s-2.65-6.61.47-10.23,15.25-20.49,52-25.64c8.29-.82,41.56-3.28,49.35,10.77,1.12,2.35,5.92,15.37,1,31.18-1.29,3-3.14,13.22-37.84,11.82-14.06-.94-35.3-1.05-58.36-11.13C298.46,246.26,295.54,243.88,294.86,241.6Z"/><path class="cls-5" d="M494,37.71l30.43,71.77s1.05.65.92-.64-30.59-72.06-30.59-72.06S493.58,36.71,494,37.71Z"/><polygon class="cls-6" points="488.32 42.94 494 37.71 524.43 109.48 511.92 110.27 486.4 48.99 488.32 42.94"/><polygon class="cls-7" points="494 37.71 491.47 40.04 519.63 109.78 525.35 108.84 494 37.71"/><path class="cls-8" d="M282,266.62,273.5,266l4.88-70.22c.18-1.9,4.57-46.68,13.63-62.92,9.65-17.31,40.13-21.53,41.43-21.71l1.12,8.43c-7.64,1-28.84,6.15-35.13,17.42-8.06,14.46-12.41,57.75-12.58,59.54Z"/><path class="cls-9" d="M457.57,24.62a20.64,20.64,0,0,1,0,5.33A5.93,5.93,0,0,1,455.75,33s-13.31,6-17.18,11.45c-.19.62.57,2-.65,2.7s-2.84,0-2.19-1.55,6.35-7.6,11.1-10.5c2.19-1.24,6.53-3.31,7.08-4.71.26-1.06.2-4.28-.3-5.12A10.45,10.45,0,0,1,457.57,24.62Z"/><path class="cls-10" d="M438.57,44.45s.93-2.89,7.25-7.12l9.22-5a4.75,4.75,0,0,0,1.86-3.13,15.82,15.82,0,0,0,0-2.31l.87-1.14s.14,4.47-.75,5.67-.87,1.51-4.06,2.92-4.66,2.08-11.5,7.06A39.65,39.65,0,0,0,438.57,44.45Z"/><path class="cls-11" d="M441,40a38.15,38.15,0,0,1,7.14-5.4,30,30,0,0,0,5.92-3.77,3.24,3.24,0,0,0,.48-2.76,2.65,2.65,0,0,1-.71,3.85A150.44,150.44,0,0,0,441,40Z"/><path class="cls-12" d="M452.66,28.65S462.58,23,466.07,30s6.35,17.9,6.35,17.9l7.5-4-6.27-18.77s-4.51-10.92-17.44-5.76-11.67,4.37-11.67,4.37Z"/><path d="M414.79,37.2l26.68-13.43s6,1.52,5.1,7.75c-6.61,3.41-25.62,14-25.62,14S413.83,44.57,414.79,37.2Z"/><path d="M440,26.69s-2.18-6.05,2.94-7.94c4.64-1.71,9,4,9.65,9s-4.51,9.18-9,4.28C440.52,28.77,440,26.69,440,26.69Z"/><path d="M456.21,19.4s3.54,5.06,2.93,7.11-6.47,3-6.47,3a12.09,12.09,0,0,0-3.69-9C450,19,454.71,17,456.21,19.4Z"/><path d="M453.14,24.92s2.45,2.22,3.13,2.23,2.37-1.62,1.93-3S453.14,24.92,453.14,24.92Z"/><path class="cls-10" d="M451.25,21.36s3.34,3.16,5,3.16,8.14-.63,10.47,2.86,7.51,19,7.51,19l-2.09.92S468.88,35.15,466,29.81c-.55-1.21-3.33-5-9.68-2.66s-5,1.81-5,1.81L449,22.24Z"/><path class="cls-11" d="M451.49,23.87s11.46-4.64,15.62-1.65,10.71,16.36,12.48,20.72C477,35.1,473.32,24.5,473.32,24.5s-3.13-6.25-10.1-6.48c-4.7-.06-13,3.75-13,3.75Z"/><path class="cls-11" d="M445,19.79s-.27-1.15.71-.82,5.13,1.86,6.28,8.51c.21.66-.44.88-.55.28S450.91,22.52,445,19.79Z"/><path class="cls-13" d="M416,37.47s2.73,3.14,4.2,3.22C421.29,40.74,445,28.3,445,28.3s1-1.58-1.71-3.38c1,.34,3.81,1.68,1.88,5.56-1.12.66-24,12.71-24,12.71Z"/><ellipse class="cls-11" cx="436.5" cy="46.29" rx="0.5" ry="0.78"/><ellipse class="cls-11" cx="418.34" cy="41.74" rx="1.73" ry="4.37" transform="translate(50.71 245.7) rotate(-34.72)"/><path class="cls-14" d="M480.29,43.93l-.33-1h0L474,25.16a6.27,6.27,0,0,0-.33-.66h0s-.1-.2-.29-.52a12.27,12.27,0,0,0-7.24-5.58l-.36-.08-.54-.11c-.34-.06-.7-.11-1.07-.14l-.33,0-.27,0a1.15,1.15,0,0,0-.26,0,17.2,17.2,0,0,0-6.75,1.37c-1.5-2.44-6.2-.38-7.24,1-1.7-1.64-3.82-2.49-6-1.69-3.21,1.19-3.54,4-3.34,6L415.16,37.2c-.64,4.86,2.25,6.92,4.28,7.76a2.1,2.1,0,0,0,1.47.47,4.16,4.16,0,0,0,.41.08s15.43-8.59,23.32-12.78a5.19,5.19,0,0,0,4.21,1.47c-.61.33-1.18.63-1.65.9C442.45,38,436.75,44,436.1,45.6s1,2.28,2.18,1.55.47-2.08.66-2.7c0,0,1-1.2,2-2.22.6-.54,1.26-1.09,2-1.62s1.57-1.13,2.25-1.59a79.35,79.35,0,0,1,8.14-4.67,22.37,22.37,0,0,0,2.19-1.08l.6-.27a6.68,6.68,0,0,0,1.25-1.54l0,0a2.16,2.16,0,0,0,.28-.59A4.22,4.22,0,0,0,458,30a14.19,14.19,0,0,0,.17-2.06,2.76,2.76,0,0,0,1.34-1.32,7.41,7.41,0,0,1,4.81,1,5.59,5.59,0,0,1,.82.65h0c.11.1.21.21.31.31a3.11,3.11,0,0,1,.23.28l.07.08a7,7,0,0,1,.57.88l0,.07.24.44c.54,1.11,1.07,2.31,1.58,3.55,2.32,5.84,4.39,13.54,4.39,13.54l.09,0,.17.61ZM450.52,21.79c-.23-.31-.47-.61-.72-.89.27.29.53.58.76.87ZM453,28.64h0a6.09,6.09,0,0,1,0,.84s.58-.09,1.38-.28a6.49,6.49,0,0,1-.13,1.19c-.26.67-1.4,1.49-2.75,2.31A6.15,6.15,0,0,0,453,28.64Z"/><path d="M558.74,239.46c-18.7-5.88-35.1-16.29-46.19-29.28s-15.7-27.41-12.75-40.29c5.71-24.95-1.61-53.41-2.25-55.8-8.53-6.56-12.92-13.68-13-21.15-.17-11.33,9.46-19.28,9.87-19.61,12.18-9.61,18.75-19,18-25.68-.32-3-2-5.29-5.15-6.81-8.07-4-21.45-3.65-33.25-3.38-7.27.17-14.13.33-18.9-.53-12.69-2.29-14.06-19.41-14.07-19.59l1-.07c0,.17,1.33,16.52,13.25,18.67,4.67.85,11.48.69,18.69.52,11.92-.27,25.43-.59,33.72,3.48,3.38,1.66,5.35,4.29,5.7,7.61.76,7.16-5.77,16.59-18.41,26.56-.09.07-9.65,8-9.49,18.82.11,7.19,4.41,14.08,12.77,20.47l.14.1,0,.16c.08.3,8.3,30.26,2.3,56.45-2.88,12.56,1.58,26.56,12.54,39.42s27.21,23.15,45.73,29Z"/><path d="M496.74,69.59l-.41-.93c12.18-9.6,19.92-20.45,19.21-27.16-.32-3-2-5.29-5.15-6.81-8.07-4-21.45-3.65-33.25-3.38-7.27.17-14.13.33-18.9-.54-12.69-2.29-14.06-19.4-14.07-19.58l1-.07c0,.17,1.33,16.52,13.25,18.67,4.67.85,11.48.69,18.69.52,11.92-.28,25.43-.59,33.73,3.48,3.37,1.66,5.34,4.29,5.69,7.6C517.29,48.56,509.37,59.62,496.74,69.59Z"/><path class="cls-15" d="M446.05,12.18s11.36-6.43,15.35,1.56,7.27,20.5,7.27,20.5l8.6-4.56L470.09,8.19s-5.17-12.51-20-6.61-13.37,5-13.37,5Z"/><polygon points="338.23 163.72 292.38 163.72 292.38 146.29 336.44 146.29 338.23 163.72"/><polygon class="cls-16" points="305.94 145.52 309.54 134.58 325.63 134.58 328.33 145.52 305.94 145.52"/><polygon class="cls-16" points="305.95 164.43 309.55 175.37 325.64 175.37 328.34 164.43 305.95 164.43"/><path class="cls-8" d="M151.52,116.43h0a2.15,2.15,0,0,0,2.15,2.15l293.52-3.13,3.61,17.11L394.61,268.23,409,262.34l59.51-143.86s2.14-8.13,13.38-8.13,15.25,5.89,15.25,5.89L503,113.3,478.09,55.5s-18,15-31.42,4.28c-11.24,14.64-164.6,54.16-164.6,54.16l-125.91,2.53c-.23,0-1.72-1.51-1.94-1.43l-1.31-.62A2.14,2.14,0,0,0,151.52,116.43Z"/><path d="M566.23,190.21A60.24,60.24,0,1,1,506,250.45a60.3,60.3,0,0,1,60.24-60.24m0-28.35a88.59,88.59,0,1,0,88.59,88.59,88.58,88.58,0,0,0-88.59-88.59Z"/><path d="M85.59,197.94A51.58,51.58,0,1,1,34,249.52a51.64,51.64,0,0,1,51.57-51.58m0-34a85.59,85.59,0,1,0,85.59,85.59,85.59,85.59,0,0,0-85.59-85.59Z"/><circle class="cls-17" cx="84.62" cy="246.69" r="34.19"/><path class="cls-18" d="M292,132.9s1.73,4.48,4.92,2.68,9.72-12.19,17.48-14.63S318,116.7,318,116.7l20.23,1.54s-20.7,3.47-32.3,11.88c-4.09,3.62-5.6,4.43-7.67,9.29-1.86,2.68-.46,7.74-.46,7.74l-5.42-.86-3.27-6.88Z"/><polygon class="cls-19" points="468.67 37.53 563.43 259.69 570.29 263.12 576.64 260.05 576.64 252.43 480.73 32.96 468.67 37.53"/><polygon class="cls-20" points="517.85 160.89 536.19 152.91 544 170.36 543.22 172.17 578.32 251.73 578.32 261.44 570.38 265.5 561.88 260.69 527.48 179.53 525.52 179.04 517.85 160.89"/><rect class="cls-21" x="501.71" y="28.72" width="4.1" height="132.37" transform="translate(3.19 205.38) rotate(-23.11)"/><path class="cls-10" d="M100.56,216.74,88,234.93s-2,2.76,1.58,5.92,7.5-.92,7.5-.92l11.37-18S102.54,217.61,100.56,216.74Z"/><path d="M75.67,248.29c-1.06,1.2-3.93,12.09,9,9.26s141.2-39,141.2-39l-5.32-11.35L82.14,245.84S76.74,247.08,75.67,248.29Z"/><path class="cls-22" d="M99.4,215.84,86.82,234s-2,2.76,1.58,5.92,7.5-.92,7.5-.92l11.37-18S101.38,216.71,99.4,215.84Z"/><circle class="cls-10" cx="92.4" cy="234.75" r="2.61"/><circle class="cls-23" cx="92.58" cy="234.59" r="2.34"/><polygon class="cls-24" points="102.44 217.6 104.95 219.19 167.5 120.25 164 120.25 102.44 217.6"/><polygon points="496.74 115.96 500.44 123.69 518.7 115.36 514.97 107.21 496.74 115.96"/><polygon points="470.09 48.63 473.85 56.82 491.19 48.98 487.47 41.16 470.09 48.63"/><path class="cls-25" d="M281,175.37l.7,2.68s.95-5.22,2.24-5.83,3.8-.17,4.57,1.13c.18,1.64-3.65,18.54-3.07,22.43.74.34,1.45-1.22,1.45-1.22s2.66-19.68,3.35-23.16-8.09-3.14-8.09-3.14Z"/><path d="M403.33,148.4H333.75l-1.57-16.35s3.48-7.17,5.26-9.28c3.63.07,62.57,0,62.57,0l6,10.07"/><polygon class="cls-26" points="287.55 162.37 286.86 145.56 286.67 138.53 294.33 138.53 297.4 171.41 287.58 171.41 287.55 171.4 287.31 162.32 287.55 162.37"/><polygon class="cls-27" points="287.55 171.4 269.67 161.08 269.67 158.59 287.31 162.32 287.55 171.4"/><polygon class="cls-27" points="286.86 145.56 269.67 152.5 269.67 148.5 286.67 138.53 286.86 145.56 286.86 145.56"/><polygon class="cls-24" points="287.31 162.32 286.86 145.56 287.55 162.37 287.31 162.32"/><polygon class="cls-28" points="287.11 154.83 269.67 155.41 269.67 152.5 286.86 145.56 286.86 145.56 287.31 162.32 269.67 158.59 269.67 155.41 287.11 154.83"/><rect class="cls-27" x="305.46" y="148.08" width="23.37" height="13.78"/><rect class="cls-16" x="304.04" y="161.88" width="26.56" height="3.59"/><rect class="cls-16" x="303.86" y="144.5" width="26.56" height="3.59"/><polygon class="cls-29" points="488.3 50.28 479.6 56.6 492.18 92.64 476.4 55.66 488.3 50.28"/><polygon class="cls-10" points="517.06 116.15 507.54 122.39 520.56 159.25 504.58 121.8 517.06 116.15"/><polygon points="520.75 159.63 528.44 176.39 544 170.36 543.22 172.17 529.97 178.05 563.13 255.28 569.3 254.4 578.32 261.44 570.38 265.5 561.88 260.69 527.48 179.53 525.52 179.04 517.85 160.89 520.75 159.63"/><circle class="cls-23" cx="569.3" cy="254.4" r="3.95"/><polygon class="cls-30" points="528.21 157.64 534.18 155.27 540.73 170.26 534.37 172.74 528.21 157.64"/><polygon class="cls-30" points="536.01 176.38 541.54 174.13 576.64 252.43 568.51 250.53 536.01 176.38"/><path class="cls-31" d="M61.18,221.8s-3.7,37,17.1,44.91c6.34,1.52,19.84,5.46,38.34-7.94-1.3,3-9,23.81-36.6,21.8-15.1-1.88-24.93-12.6-28.59-25.65A32.69,32.69,0,0,1,61.18,221.8Z"/><path d="M402.67,22,433.22,6.6s6.93,1.73,5.85,8.87c-7.58,3.9-29.35,16-29.35,16S401.56,30.41,402.67,22Z"/><path d="M431.58,9.94S429.08,3,434.94.85c5.32-2,10.35,4.61,11.05,10.35s-5.16,10.51-10.35,4.9C432.14,12.32,431.58,9.94,431.58,9.94Z"/><polygon points="464.88 35.12 466.42 38.62 482.37 32.33 479.85 28.55 464.88 35.12"/><polygon class="cls-28" points="305.46 161.86 328.83 148.08 328.83 161.86 305.46 161.86"/><path class="cls-32" d="M302.65,138.54c.33.49,2.81,32.87,2.81,32.87h-7.27s-2.81-33-3.31-32.87S302.65,138.54,302.65,138.54Z"/><polygon class="cls-33" points="304.04 145.53 330.42 145.53 330.42 144.5 303.86 144.5 304.04 145.53"/><polygon class="cls-33" points="304.79 162.84 330.6 162.84 330.6 161.88 304.71 161.88 304.79 162.84"/><path d="M450.11,1.58s4.05,5.8,3.35,8.15-7.41,3.4-7.41,3.4a13.81,13.81,0,0,0-4.23-10.35C443,1.16,448.39-1.21,450.11,1.58Z"/><path class="cls-34" d="M451.67,7.56a23.65,23.65,0,0,1,0,6.11,6.85,6.85,0,0,1-2.11,3.49s-15.24,6.89-19.68,13.12c-.21.71.66,2.27-.75,3.1s-3.25,0-2.5-1.79,7.28-8.7,12.71-12c2.51-1.42,7.48-3.79,8.12-5.4.29-1.22.23-4.9-.35-5.85A12,12,0,0,1,451.67,7.56Z"/><path d="M446.59,7.91s2.81,2.54,3.59,2.55,2.71-1.85,2.21-3.4S446.59,7.91,446.59,7.91Z"/><circle class="cls-35" cx="450.21" cy="8.87" r="0.68"/><polygon class="cls-36" points="128.6 201.34 106.99 198.35 142.28 134.97 159.8 141.56 128.6 201.34"/><path class="cls-26" d="M137.63,188.83a2.89,2.89,0,0,1-.65-.08l-23.82-5.51a2.83,2.83,0,1,1,1.28-5.52l23.82,5.51a2.84,2.84,0,0,1-.63,5.6Z"/><path class="cls-26" d="M142.65,181a2.88,2.88,0,0,1-.65-.07l-23.82-5.51a2.83,2.83,0,1,1,1.28-5.52l23.82,5.51a2.83,2.83,0,0,1-.63,5.59Z"/><path class="cls-26" d="M146.88,174.36a2.85,2.85,0,0,1-.64-.07l-23.82-5.51a2.83,2.83,0,1,1,1.27-5.52l23.83,5.5a2.84,2.84,0,0,1-.64,5.6Z"/><path class="cls-26" d="M151.22,166.74a2.79,2.79,0,0,1-.64-.07l-23.83-5.51a2.83,2.83,0,1,1,1.28-5.52l23.83,5.5a2.84,2.84,0,0,1-.64,5.6Z"/><path class="cls-26" d="M128.61,204.18a2.73,2.73,0,0,1-.64-.07l-23.83-5.51a2.83,2.83,0,1,1,1.28-5.52l23.82,5.5a2.84,2.84,0,0,1-.63,5.6Z"/><path class="cls-26" d="M132.64,196.12a2.88,2.88,0,0,1-.65-.07l-23.82-5.51a2.83,2.83,0,1,1,1.28-5.52l23.82,5.51a2.83,2.83,0,0,1-.63,5.59Z"/><path class="cls-26" d="M118.9,220a2.85,2.85,0,0,1-.64-.07l-23.83-5.51a2.83,2.83,0,1,1,1.28-5.52l23.83,5.5a2.84,2.84,0,0,1-.64,5.6Z"/><path class="cls-26" d="M121.8,212.24a2.89,2.89,0,0,1-.65-.08l-23.82-5.5a2.84,2.84,0,0,1,1.28-5.53l23.82,5.51a2.84,2.84,0,0,1-.63,5.6Z"/><path class="cls-26" d="M154.86,159.53a2.87,2.87,0,0,1-.64-.08L130.4,154a2.84,2.84,0,0,1,1.27-5.53l23.83,5.51a2.84,2.84,0,0,1-.64,5.6Z"/><path class="cls-26" d="M159.8,151.46a2.87,2.87,0,0,1-.64-.08l-23.82-5.5a2.84,2.84,0,1,1,1.27-5.53l23.83,5.51a2.84,2.84,0,0,1-.64,5.6Z"/><path class="cls-26" d="M163.45,144.24a2.79,2.79,0,0,1-.64-.07L139,138.66a2.83,2.83,0,1,1,1.28-5.52l23.82,5.51a2.83,2.83,0,0,1-.63,5.59Z"/><polygon class="cls-37" points="164 120.25 159.8 120.25 158.08 123.69 149.71 126.02 144.67 134.58 163.45 138.53 164.82 129.4 163.95 125.88 167.5 120.25 164 120.25"/><circle class="cls-10" cx="156.09" cy="132.01" r="2.61"/><circle class="cls-23" cx="156.26" cy="131.85" r="2.34"/><polygon class="cls-10" points="141.74 235.85 159.26 208.02 139.6 207.75 132.11 218.19 141.74 235.85"/><polygon class="cls-10" points="132.11 218.19 139.6 207.75 159.26 208.02 245.03 263.14 245.3 280.88 141.74 235.85 132.11 218.19"/><polygon class="cls-29" points="327.61 167.4 328.11 165.38 306.29 165.47 309.55 175.37 311.34 175.37 309.82 167.94 327.61 167.4"/><polygon class="cls-29" points="309.54 134.58 310.76 134.58 309.54 142.97 327.8 143.38 328.11 144.5 306.27 144.5 309.54 134.58"/><rect class="cls-29" x="303.86" y="144.5" width="6.25" height="3.59"/><rect class="cls-29" x="304.04" y="161.88" width="6.08" height="3.59"/><path class="cls-10" d="M444.43,3.83s3.82,3.62,5.76,3.62,9.32-.72,12,3.27,8.6,21.81,8.6,21.81l-2.4,1.06s-3.77-14-7.11-20.08c-.64-1.39-3.83-5.73-11.09-3s-5.75,2.08-5.75,2.08l-2.61-7.7Z"/><path class="cls-11" d="M444.7,6.71s13.13-5.32,17.89-1.9,12.27,18.74,14.3,23.74c-3-9-7.18-21.13-7.18-21.13S466.12.27,458.14,0c-5.39-.06-14.92,4.3-14.92,4.3Z"/><path class="cls-38" d="M401.82,236.88s-.87-1.83-2.53-1.51-2.47,2.22-3.1,3a12.59,12.59,0,0,1-8.54,4c-4.91.31-6.92-.72-10.16-4-2.44-2.38-4.49-3.41-7.35-1.43s-9.66,6-24.94,6.86-31.68-.36-36.91-1.63-11.32-4-17.5-3.09,11.43,11.76,11.43,11.76,18.1,11,60.08,10.55c13.78.74,29.42-.77,35.14-9.84S401.82,236.88,401.82,236.88Z"/><path class="cls-11" d="M437.29,2s-.31-1.31.82-.93,5.87,2.12,7.18,9.74c.25.75-.5,1-.62.32S444,5.16,437.29,2Z"/><path class="cls-13" d="M404.05,22.28s3.13,3.6,4.81,3.69c1.25.06,28.39-14.19,28.39-14.19s1.11-1.81-2-3.87c1.19.39,4.37,1.92,2.16,6.36C436.17,15,410,28.84,410,28.84Z"/><path class="cls-10" d="M429.9,30.28S431,27,438.21,22.12l10.56-5.71a5.38,5.38,0,0,0,2.12-3.59,16.9,16.9,0,0,0,0-2.64l1-1.31s.16,5.12-.86,6.49-1,1.73-4.65,3.35c-3.48,1.62-5.33,2.38-13.17,8.09A45.67,45.67,0,0,0,429.9,30.28Z"/><ellipse class="cls-11" cx="427.53" cy="32.38" rx="0.57" ry="0.89"/><path class="cls-39" d="M292.16,233.68s6.52.41,8.38,2.17,3,5.68.95,9.51c-.16,1.87,6.75,9,10.41,10.31-9.1-.1-26.4-7.07-26.29-7.75s4-14.24,4-14.24Z"/><path class="cls-11" d="M432.72,25.22a44.1,44.1,0,0,1,8.18-6.17,35.19,35.19,0,0,0,6.78-4.33,3.76,3.76,0,0,0,.55-3.16,3.06,3.06,0,0,1-.82,4.42C445.29,17.39,439.79,20.06,432.72,25.22Z"/><ellipse class="cls-11" cx="406.73" cy="27.17" rx="1.99" ry="5" transform="translate(56.95 236.5) rotate(-34.72)"/><polygon class="cls-10" points="151.07 125.64 162.01 125.64 163.95 122.27 159.8 120.25 167.5 120.25 163.95 125.88 164.82 129.4 163.45 138.53 144.67 134.58 160.99 135.06 162.11 129.03 149.71 126.02 151.07 125.64"/><polygon class="cls-10" points="404.05 143.8 405.97 144.19 404.05 167.8 409.72 169.45 409.06 172.17 400.12 169.6 404.05 143.8"/><path class="cls-40" d="M215,203.47a13.79,13.79,0,0,1,5.48,3.74c2.4,2.74,27.13,51.66,27.13,51.66s-1.57,2.52-3,1.68S215,203.47,215,203.47Z"/><path class="cls-41" d="M143.25,137.31s14.12,3.42,16.95,3.37c0,0,1.94-.16-2.37-1.22s-13.65-2.74-13.65-2.74S139.65,135.68,143.25,137.31Z"/><path class="cls-41" d="M139,144.65s14.12,3.41,17,3.36c0,0,1.94-.16-2.37-1.22s-13.65-2.74-13.65-2.74S135.41,143,139,144.65Z"/><path class="cls-41" d="M135,152.72s14.13,3.41,17,3.36c0,0,1.94-.16-2.37-1.22s-13.65-2.74-13.65-2.74S131.35,151.08,135,152.72Z"/><path class="cls-41" d="M131.31,159.93s14.12,3.41,16.95,3.36c0,0,1.94-.15-2.38-1.22s-13.64-2.74-13.64-2.74S127.71,158.29,131.31,159.93Z"/><path class="cls-41" d="M127,167.37s14.13,3.41,16.95,3.36c0,0,1.94-.16-2.37-1.22s-13.65-2.74-13.65-2.74S123.37,165.73,127,167.37Z"/><path class="cls-41" d="M121.92,174.14s14.12,3.42,17,3.37c0,0,1.94-.16-2.37-1.22s-13.65-2.74-13.65-2.74S118.32,172.51,121.92,174.14Z"/><path class="cls-41" d="M117.71,182s14.13,3.41,17,3.36c0,0,1.94-.16-2.37-1.22s-13.65-2.74-13.65-2.74S114.11,180.38,117.71,182Z"/><path class="cls-41" d="M112.22,189.31s14.13,3.42,17,3.37c0,0,1.93-.16-2.38-1.22s-13.65-2.74-13.65-2.74S108.62,187.68,112.22,189.31Z"/><path class="cls-41" d="M107.36,196.72s14.13,3.42,17,3.37c0,0,1.94-.16-2.37-1.22s-13.65-2.74-13.65-2.74S103.76,195.09,107.36,196.72Z"/><path class="cls-41" d="M102.83,206s14.13,3.42,17,3.37c0,0,1.93-.16-2.38-1.22s-13.64-2.74-13.64-2.74S99.24,204.36,102.83,206Z"/><path class="cls-42" d="M212.12,194.11l42.13,17.68s10.54,3.77,12.76,13.09,2.66,39.86,2.66,39.86H248.15L242.41,258l-26.86-56.66Z"/><path class="cls-41" d="M98,213.27s14.13,3.41,17,3.36c0,0,1.93-.16-2.38-1.22s-13.65-2.74-13.65-2.74S94.37,211.63,98,213.27Z"/><path class="cls-43" d="M148.69,137.56a8.58,8.58,0,0,1,2.84,0,5.48,5.48,0,0,1,2.69,1.09s-.05,1.12-2.26.64S147.24,138.71,148.69,137.56Z"/><path class="cls-43" d="M144.94,145.29a8.56,8.56,0,0,1,2.84,0,5.49,5.49,0,0,1,2.69,1.1s-.06,1.12-2.27.64S143.48,146.44,144.94,145.29Z"/><path class="cls-43" d="M140.4,153.07a8.56,8.56,0,0,1,2.84,0,5.48,5.48,0,0,1,2.69,1.09s-.05,1.12-2.27.64S139,154.22,140.4,153.07Z"/><path class="cls-43" d="M136.76,160.48a8.56,8.56,0,0,1,2.84,0,5.49,5.49,0,0,1,2.69,1.1s-.06,1.12-2.27.64S135.3,161.63,136.76,160.48Z"/><path class="cls-43" d="M132.46,167.39a8.58,8.58,0,0,1,2.84,0,5.37,5.37,0,0,1,2.69,1.09s-.05,1.12-2.26.64S131,168.54,132.46,167.39Z"/><path class="cls-43" d="M127.37,174.49a8.56,8.56,0,0,1,2.84,0,5.49,5.49,0,0,1,2.69,1.1s-.05,1.12-2.27.64S125.91,175.65,127.37,174.49Z"/><path class="cls-44" d="M292.16,236.48s5-4.93,6.91-5.67,8-.08,9.7-.41,15.68-7.54,22.49-8.49,37.17-4,44.92-1.7c2.75.27,2.52.8,5.92-.62,3.17-1.09,9.51-2,13,2.87,1.5,1.66,2.53,4.83,3.88,4s2.53-1.75,1.28-5.49-2.62-10.08-13.39-14.33c-6.53-2.57-18.7-3.75-33.43-3.13-7.57.88-17.53,1.81-31.44,6.48-4.54,1.84-14.23,5.2-24.46,15.35C295.45,227.8,292.18,231.09,292.16,236.48Z"/><path class="cls-43" d="M124.08,182.36a8.91,8.91,0,0,1,2.84,0,5.49,5.49,0,0,1,2.69,1.1s-.05,1.12-2.27.64S122.62,183.52,124.08,182.36Z"/><path class="cls-43" d="M113.77,197.72a8.58,8.58,0,0,1,2.84,0,5.43,5.43,0,0,1,2.69,1.1s0,1.11-2.26.63S112.32,198.87,113.77,197.72Z"/><path class="cls-43" d="M118.17,190a8.56,8.56,0,0,1,2.84,0,5.43,5.43,0,0,1,2.69,1.1s0,1.12-2.27.64S116.72,191.19,118.17,190Z"/><path class="cls-43" d="M109.83,206.88a8.56,8.56,0,0,1,2.84,0,5.43,5.43,0,0,1,2.69,1.1s0,1.12-2.27.64S108.38,208,109.83,206.88Z"/><path class="cls-43" d="M104.44,213.58a8.56,8.56,0,0,1,2.84,0,5.49,5.49,0,0,1,2.69,1.1s-.06,1.12-2.27.63S103,214.73,104.44,213.58Z"/><path class="cls-45" d="M215.77,190.14s3.72-17.06-11.79-45.9c-1.4-2.7-.22-3.62,1.7.35s15.11,31.57,13.26,48.09C218.43,199.43,216.06,192.37,215.77,190.14Z"/><path class="cls-45" d="M115.36,108.34c10.78,0,29.42,2.22,19.61,2.47"/><path class="cls-18" d="M429.37,184.29s3.1,3.74,3.27,6.92S406.23,256,406.23,256l-7.07,1.27-2.47,6,5.64,2.31s21.94-20.25,22.44-20.92,19.91-70.76,19.91-70.76l-10.87,1.55Z"/><path class="cls-46" d="M173,132s8.15-8.91,20.26-8.58a77.54,77.54,0,0,1-11.07-7.16l-26-.86L153.92,121Z"/><path class="cls-8" d="M178,115c-11.21-.51-27.72-.3-31.12-1.16-27.18-22.92-42.43-14-43.71-14a2.87,2.87,0,0,0-2.93,2.76,2.81,2.81,0,0,0,2.73,2.91c.11,0,18.09-6.45,41.69,12.84l5.8.6c.46.91,1.57,3.5,4.4-.29.51.39.66-.35,1.26-.35a2.33,2.33,0,0,0,.38,0c4.19,1,10.8,2,21.24,2.44,22.65,1,151.5-1.78,152.67-1.78l48-6.07C377.27,112.78,200.54,116,178,115Z"/><path class="cls-8" d="M297.82,272.16c-6.64,0-14.61-.06-23.59-.25-29.47-.62-32.05-5.17-32.9-6.67l-.09-.17L167.11,119.7l10.25.23,71,140.39c1.47.68,7.36,2.7,26.05,3.09,26.61.56,44.18,0,44.36,0l.27,8.5C318.92,271.91,311,272.16,297.82,272.16Z"/><polygon class="cls-47" points="454.81 162.26 412.39 148.08 408.95 169.22 440.63 178.59 408.95 258.06 400.49 263.14 245.03 263.14 159.26 208.02 139.6 207.75 137.26 211.01 137.26 211.01 135.52 213.44 135.52 213.44 132.11 218.19 141.74 235.85 245.3 280.88 405.04 280.88 419.22 271.17 429.46 246.69 429.46 246.69 429.46 246.69 429.46 246.69 458.33 177.96 454.81 162.26"/><polygon class="cls-47" points="400.12 169.6 409.06 172.17 415.48 146.09 404.05 143.8 400.12 169.6"/><path class="cls-48" d="M215.24,197.61S253.78,213,262,219c2.51,2.65,3.7,7.56,4.1,10.39s1.85,33.08,1.85,33.08-1.45,2.25-1.45-1.45-.53-34.75-6.48-39.24-45.47-22.66-45.47-22.66S213.39,195.64,215.24,197.61Z"/><path class="cls-40" d="M215.24,197.61S253.31,212.88,262,219c3.73,2.37,4.56,16.81,4.56,16.81s-.5,2.42-1.33-1.39.09-11.19-6.36-15S211.67,198.3,215.24,197.61Z"/><polygon class="cls-49" points="169.22 120.45 240.89 260.49 237.64 258.01 167.5 120.41 169.22 120.45"/><path class="cls-50" d="M269.24,126.54a3.23,3.23,0,0,0,.14-1.56,1.71,1.71,0,0,0-.8-1.14c-.19-.22.14-.16.46.13a2,2,0,0,1,.72,1.34C269.77,125.91,269.28,127,269.24,126.54Z"/><path class="cls-51" d="M293.68,130.31s-.51,6.52,4.12,1.54,7.62-8,7.62-8-2.13-3.83-6.93,1.3Z"/><polygon class="cls-52" points="315.1 134.58 320.36 134.58 321.69 143.24 314.41 143.24 315.1 134.58"/><polygon class="cls-53" points="303.86 144.5 330.42 144.5 330.42 146.29 304.04 146.04 303.86 144.5"/><polygon class="cls-53" points="304.04 161.94 330.6 161.94 330.6 163.74 304.21 163.48 304.04 161.94"/><polygon class="cls-54" points="349.61 192.53 383.3 192.53 383.3 204.48 348.17 199.08 348.17 192.79 349.61 192.53"/><path class="cls-55" d="M245.28,256.3l-20.26-42s-3-3.37-1.55,1.77,19.08,40.26,19.08,40.26S246.27,261.29,245.28,256.3Z"/><path class="cls-56" d="M215.24,197.61l41.88,19.5s7.54,2.27,7.7,9.13,3.1,36.95,3.1,36.95H246.87Z"/><polygon class="cls-54" points="384.09 188.04 384.09 204.63 386.98 205.28 386.98 188.04 384.09 188.04"/><polygon class="cls-54" points="344.65 190.46 344.65 198.36 347.33 198.79 347.33 192.12 344.65 190.46"/><path class="cls-57" d="M384.09,169.62H366.62l.11-2.47a.28.28,0,0,0-.26-.3h0a.28.28,0,0,0-.28.27l-.12,2.5H347.5a.28.28,0,0,0-.28.28.29.29,0,0,0,.28.28H366l-.11,2.24H348.16a.29.29,0,0,0,0,.57h17.73l-.1,2.09h-17a.29.29,0,0,0,0,.57h17l-.13,2.72H349.77a.29.29,0,0,0,0,.57H365.6l-.12,2.55H350.05a.29.29,0,0,0-.28.28.28.28,0,0,0,.28.28h15.4l-.12,2.55h-14.9a.29.29,0,0,0,0,.57h14.88l-.13,2.59H350.9a.29.29,0,0,0,0,.57h14.25l-.08,1.83a.28.28,0,0,0,.27.3h0a.28.28,0,0,0,.28-.27l.09-1.86h13.94a.29.29,0,1,0,0-.57H365.75l.12-2.59H380a.29.29,0,0,0,0-.57H365.9l.12-2.55h14.25a.27.27,0,0,0,.28-.28.28.28,0,0,0-.28-.28H366.05l.12-2.55h14.5a.29.29,0,0,0,0-.57H366.2l.13-2.72h15.36a.29.29,0,0,0,0-.57H366.36l.1-2.09h16.36a.29.29,0,1,0,0-.57H366.48l.11-2.24h17.5a.29.29,0,0,0,.28-.28A.28.28,0,0,0,384.09,169.62Z"/><polygon class="cls-58" points="400.54 166.85 336.55 166.85 336.55 166.07 400.66 166.07 400.54 166.85"/><polygon class="cls-59" points="400.9 164.52 336.51 164.52 336.51 163.74 401.01 163.74 400.9 164.52"/><polygon class="cls-60" points="401.23 162.33 336.72 162.33 336.72 161.55 401.35 161.55 401.23 162.33"/><rect class="cls-61" x="378.44" y="159.55" width="23.19" height="0.78"/><rect class="cls-62" x="379" y="157.79" width="22.89" height="0.78"/><rect class="cls-63" x="379.21" y="156.03" width="22.92" height="0.78"/><rect class="cls-64" x="379.82" y="154.18" width="22.59" height="0.78"/><rect class="cls-65" x="379.66" y="152.68" width="22.98" height="0.78"/><rect class="cls-66" x="379.82" y="150.92" width="23.19" height="0.78"/><rect class="cls-67" x="380.04" y="149.16" width="23.19" height="0.78"/><rect class="cls-68" x="380.37" y="147.31" width="22.89" height="0.78"/><rect class="cls-69" x="381.04" y="145.75" width="21.74" height="0.78"/><rect class="cls-70" x="381.6" y="143.99" width="23.19" height="0.78"/><rect class="cls-71" x="381.82" y="142.22" width="23.19" height="0.78"/><rect class="cls-72" x="382.43" y="140.38" width="23.19" height="0.78"/><rect class="cls-73" x="382.78" y="138.42" width="23.19" height="0.78"/><rect class="cls-74" x="383.34" y="136.66" width="23.19" height="0.78"/><rect class="cls-75" x="383.55" y="134.9" width="23.19" height="0.78"/><rect class="cls-76" x="384.16" y="133.05" width="22.11" height="0.78"/><rect class="cls-77" x="336.58" y="160" width="23.19" height="0.78" transform="translate(696.35 320.79) rotate(-180)"/><rect class="cls-78" x="336.32" y="158.24" width="22.89" height="0.78" transform="translate(695.53 317.27) rotate(-180)"/><rect class="cls-79" x="336.08" y="156.48" width="22.92" height="0.78" transform="translate(695.07 313.75) rotate(-180)"/><rect class="cls-80" x="335.8" y="154.64" width="22.59" height="0.78" transform="translate(694.18 310.06) rotate(-180)"/><rect class="cls-81" x="335.57" y="153.14" width="22.98" height="0.78" transform="translate(694.11 307.05) rotate(-180)"/><rect class="cls-82" x="335.2" y="151.37" width="23.19" height="0.78" transform="translate(693.58 303.53) rotate(-180)"/><rect class="cls-83" x="334.98" y="149.61" width="23.19" height="0.78" transform="translate(693.14 300.01) rotate(-180)"/><rect class="cls-84" x="334.95" y="147.77" width="22.89" height="0.78" transform="translate(692.79 296.32) rotate(-180)"/><rect class="cls-85" x="335.42" y="146.2" width="21.74" height="0.78" transform="translate(692.59 293.18) rotate(-180)"/><rect class="cls-86" x="333.42" y="144.44" width="23.19" height="0.78" transform="translate(690.02 289.66) rotate(-180)"/><rect class="cls-87" x="333.2" y="142.68" width="23.19" height="0.78" transform="translate(689.59 286.14) rotate(-180)"/><rect class="cls-88" x="332.59" y="140.84" width="23.19" height="0.78" transform="translate(688.37 282.45) rotate(-180)"/><rect class="cls-89" x="332.24" y="138.87" width="23.19" height="0.78" transform="translate(687.67 278.53) rotate(-180)"/><rect class="cls-90" x="331.68" y="137.11" width="23.19" height="0.78" transform="translate(686.55 275.01) rotate(-180)"/><rect class="cls-91" x="331.47" y="135.35" width="23.19" height="0.78" transform="translate(686.12 271.49) rotate(-180)"/><rect class="cls-92" x="331.93" y="133.51" width="22.11" height="0.78" transform="translate(685.98 267.8) rotate(-180)"/><polygon points="517.85 160.89 518.7 156.26 532.42 149.7 536.3 153.16 517.85 160.89"/><polygon class="cls-20" points="524.43 154.26 530 151.62 534.1 153.72 526.53 156.72 524.43 154.26"/><path d="M560,251.75,571.06,246l.57-.29s1.86.31,0,1.7-11.63,7-11.63,7Z"/><path class="cls-30" d="M532.19,183.2l29.13,67.87s2.63-.2,1.43-2.42-28.65-66.44-28.65-66.44S531,179.42,532.19,183.2Z"/><path class="cls-30" d="M521.46,161.29l5.62,12.84s2.53,2,2.19,0-5.26-14.5-5.26-14.5S521,159,521.46,161.29Z"/><polygon class="cls-21" points="530 151.62 534.1 153.72 531.42 154.78 528.54 152.31 530 151.62"/><polygon class="cls-21" points="531.63 154.97 534.31 153.99 541.06 170.38 541.06 170.7 538.4 171.72 531.63 154.97"/><line class="cls-93" x1="524.43" y1="174.13" x2="542.33" y2="166.63"/><path class="cls-21" d="M541.54,174.13,573,243.94l-1.41,1.77-8.57,4.34s7.46-4.85,7.78-6.74S539.36,175,539.36,175Z"/><polygon class="cls-94" points="508.31 120.1 522.66 154.37 518.7 156.26 504.58 121.8 508.31 120.1"/><polygon class="cls-95" points="479.92 54.16 504.58 112.19 501.1 114.24 476.4 55.66 479.92 54.16"/><polygon class="cls-96" points="468.67 37.53 472.42 47.91 477.27 46.29 472.65 36.03 468.67 37.53"/><circle class="cls-97" cx="378.93" cy="229.96" r="1.44"/><circle class="cls-97" cx="394.76" cy="230.81" r="1.44"/><path class="cls-98" d="M482.37,76.88c-1.31-4.6-5.48-1.56-5.48-1.56l-1.6,3.08L472,84.76l-6.33,13.49-6.26,13.31a7.37,7.37,0,0,1-3.1,2.68c-2.7,1-9.11,1.21-9.11,1.21l3.59,17-10.3,25,3.69,1.12s30.55-73.15,33.1-78.15c4.26-2.34,5.1,5.93,7,8.08A44.87,44.87,0,0,0,482.37,76.88Z"/><path class="cls-18" d="M447.86,159.94l18.64-44.07s5.87-8.77,16.92-7.78c10.07,1,13.33,3.34,15.25,7.36l-1.58.79s-3.6-5.5-12.43-5.75c-5.34-1-13.64,1.67-15.78,6.56S451,161.55,451,161.55Z"/><polygon class="cls-99" points="401.35 255.95 431.46 184.81 433.43 188.91 404.13 258.01 401.35 255.95"/><path class="cls-99" d="M445.81,156.82l1.78,3.11,27.9-64.15s-1-5.27-2-3.18S445.81,156.82,445.81,156.82Z"/><path class="cls-100" d="M473.62,100.07l-24.09,56.19s-2.47,1.59.65-4.95,23.08-53.73,23.08-53.73S475.5,95.7,473.62,100.07Z"/><path class="cls-101" d="M299.54,138.18s2.35-8.49,14.87-12.16c10.66-3.93,41.24-12.7,41.24-12.7l-73.58.62s-1.18,2.68-6.35,2.76-105,.7-105,.7l1.17,2.86,127.61,19.15Z"/><path class="cls-100" d="M430.47,194.2l-24.09,56.19s-2.47,1.59.65-4.95,23.08-53.73,23.08-53.73S432.35,189.82,430.47,194.2Z"/><path class="cls-6" d="M171.18,119.28,307.9,117.4s-.08,4.08-5,10.71c-6,7.47-56,80.63-56,80.63l-33.82-14.19-40-71.78S169.56,119.3,171.18,119.28Z"/><path class="cls-102" d="M171.93,119.28l42.25,74.83,27.4,8.55,6.88-1.6,52.62-74.25s3.59-5,3.63-9.37l3.19,0s-.45,4.55-5,10.71-56,80.63-56,80.63l-33.82-14.19-41.23-74.29Z"/><path class="cls-103" d="M176,122.5s124.16-3,125.07-3.22,2,2.3.41,4.43-95,49.51-95,49.51-.9.76-3.91-3.5S176,122.5,176,122.5Z"/><circle class="cls-104" cx="236.7" cy="126.15" r="2.45"/><circle class="cls-104" cx="244.86" cy="201.17" r="1.59"/><circle class="cls-104" cx="197.86" cy="155.17" r="1.59"/><polygon class="cls-105" points="244.69 266.64 245.56 281.06 141.4 239.34 131.77 221.68 139.26 211.25 158.91 211.51 244.69 266.64"/><polygon class="cls-106" points="141.4 239.34 158.91 211.51 139.26 211.25 131.77 221.68 141.4 239.34"/><polygon class="cls-107" points="405.97 144.19 415.48 146.09 409.72 169.45 410.72 149.55 405.97 144.19"/><polygon class="cls-108" points="416.78 149.55 415.48 167.28 441.06 176.32 444.5 180.15 412.52 258.87 400.49 263.14 408.95 258.06 440.63 178.59 409.72 169.45 414.72 149.16 416.78 149.55"/><polygon class="cls-109" points="245.45 268.23 245.3 280.88 405.04 280.88 419.22 271.17 429.46 246.69 415.07 269.46 402.33 274.07 245.45 268.23"/><rect x="245.03" y="263.14" width="4.93" height="17.57"/><polygon class="cls-110" points="138.11 212.85 156.54 214.92 244.69 269 244.69 274.11 149.88 225.86 136.92 214.51 138.11 212.85"/><polygon class="cls-111" points="133.45 219.34 142.61 232.71 155.49 216.96 144.47 234.47 241.89 278.64 244.69 266.64 245.3 280.88 141.4 239.34 131.77 221.68 133.45 219.34"/><polygon class="cls-110" points="145.59 215.73 151.18 223.53 207.17 251.17 155.49 216.96 145.59 215.73"/><polygon class="cls-112" points="251.91 258.09 248.68 275.53 156.05 210.95 150.09 191.73 159.49 182.98 178.71 187.12 251.91 258.09"/><polygon class="cls-110" points="158.05 184.33 175.7 189.99 251.45 260.4 250.44 265.42 167.02 199.41 156.56 185.72 158.05 184.33"/><polygon class="cls-111" points="152.2 189.77 158.54 204.68 174.27 191.79 160.02 206.77 246.8 269.3 251.91 258.09 248.45 275.31 156.05 210.95 150.09 191.73 152.2 189.77"/><polygon class="cls-110" points="164.81 188.63 168.75 197.38 218.19 235.53 174.27 191.79 164.81 188.63"/><path class="cls-113" d="M282.07,113.94s34.65,2.74,39.62,2.52,39.54-.31,39.54-.31l86-.7s12.46-3.2,10.58-34.84c-1.08-8.78-9.6-19.75-9.6-19.75Z"/><polygon class="cls-114" points="414.72 149.16 409.72 169.45 419.83 172.32 412.14 168.25 414.72 149.16"/><path class="cls-115" d="M284.65,114.51s137.6-1.71,149.25-1.57c7.38.44,15.16-1.29,17.12-5.74s6.76-26.67,3-34.06S449.91,51,422,53.47s-80.16,15.91-135,47.41C281.82,104.76,272.59,113.34,284.65,114.51Z"/><path d="M386.7,59.78s.41-2.4,2.19-3,18.43-5.07,18.43-5.07,3.28-.23,3.43,2.89S386.7,59.78,386.7,59.78Z"/><path class="cls-116" d="M389,57.59s12.29-4.22,18.79-4.88c1.9-.33,3,.9,2.12,1.54-1.38.2-18.29,4.1-19.6,3.72Z"/><path class="cls-117" d="M407.79,52.71s2.37-.51,2.12,1.54S407.79,52.71,407.79,52.71Z"/><path class="cls-8" d="M143,116.7s3.86,9.32,5.31,9.32,28,8.43,33.63,14c-4.76-7.44-14.39-23.35-14.39-23.35Z"/><polygon class="cls-118" points="148.69 127.22 164.43 132.01 164.43 131.29 149.71 126.02 148.69 127.22"/><polygon class="cls-119" points="279.48 166.74 296.13 146.14 294.88 138.53 276.74 165.38 279.48 166.74"/><path class="cls-120" d="M299.54,107.21l133.89-3a11.83,11.83,0,0,0,9.79-9.3c2-8.48,2.12-21.69,2.12-21.69s-.89-10.22-14.12-10c-13,.21-38.21,3-102.39,28.91C311.09,99.18,290.71,106.25,299.54,107.21Z"/><path class="cls-121" d="M288.19,114.47s59.38-20.73,77.43-24.91,58-12.62,81.57-3.35a17.23,17.23,0,0,1,7.22,6.71l-2.88,12.89s-1.71,7.83-15.95,7.51C420.29,113,288.19,114.47,288.19,114.47Z"/><path class="cls-121" d="M278.93,112S361.37,70.4,400.12,64.59C420.6,61,428,56.79,451.53,65.74c-2.41-3.45-4.62-10.93-20.62-12.55-7.1.14-27.82,1.12-60.89,11.38-13.13,4.31-53.47,17.2-83,36.31C285.42,102.11,277.28,107.09,278.93,112Z"/><path class="cls-122" d="M285.87,114.51S371.76,81.46,418.34,82c5.43.06,28.7-2,36.07,10.89.47-3.41,3.54-13.55-2.88-27.18-3.84-1.39-19.19-9.44-45.56-2.25-12.75,2.4-42.55,7.55-107.38,38.94-8,3.83-20.33,9.52-20.33,9.52S283.54,114.56,285.87,114.51Z"/><path class="cls-123" d="M315.3,97.41s64.55-28.8,108.39-34.22c6.36-.52,10.25-2.15,23.5,4.37,10.95,8.64,1,25.59-1.37,31.62-1.59,3.43-9.06,9.34-15.92,8.83-4.9-.68-3.41-5.24,0-7.85s13.47-22,2.82-23.8S337.2,95.11,310.11,103.58C303.4,107.5,302.27,101.82,315.3,97.41Z"/><path class="cls-124" d="M305.42,112l-.8-.13c-3.32-.53-15.54-2.9-8.49-7.62C304.75,98,347.78,82.85,350.89,82s7.23-.4,3.36,2.17S314.74,108.89,305.42,112Z"/><path class="cls-124" d="M416,58.59l.66-.14c3.19-.62,17.2-3,25.16,1.33,4.43,3.2,9.32,5.14,9.07,20.78-1.28,9.85-5.42,13.76-6.39,8.11s.53-17.55-11.78-20-24.23,2.58-22.79-4.4C409.93,64.27,410.43,60.66,416,58.59Z"/><path class="cls-125" d="M331.68,137.89h73.77a2.79,2.79,0,0,0,2.35-2.15c.38-1.91.07-9.76-6.17-13.24-6-3.2-56.34-1.49-64.91,0-2.7,1.1-8.53,6.05-7.19,11.22A15,15,0,0,0,331.68,137.89Z"/><path class="cls-126" d="M336.72,122.5s44-4,63.4-.51a9.92,9.92,0,0,1,5.33,7.3c1.64,6-8.2,5.36-29.8,5.26s-41.73.09-41.73.09-4.63-1.62-3.32-5.35C332.49,126.3,333.25,124.38,336.72,122.5Z"/><path class="cls-108" d="M329.34,131.92a7.32,7.32,0,0,0,3.53,4.07c2.59,1.14,71.53,0,71.53,0s2.46-.07,2.94-5.78c.44,2.19,2,6.38-1.89,7.68-6.33.53-73.77,0-73.77,0S328.84,134.21,329.34,131.92Z"/><path class="cls-39" d="M329.63,130.21s4.8-7.52,11.21-7.71,36.23-1.68,58.7,0c2.09,0,5.69,3.84,7,5.87-.53-1.47-.88-5.42-9.06-6.87-4.66-.73-37.86-1.71-60.75,1C335.36,123.05,330.83,125.57,329.63,130.21Z"/><path class="cls-127" d="M340.33,132.56s-6.89-.19-5.77-2.89,1.94-4.55,5.77-5.28,51.55-.62,57.76,0c2.28.42,4.08,3.9,3.54,4.9a5.29,5.29,0,0,1-5.3,3.27C392.71,132.47,340.33,132.56,340.33,132.56Z"/><path class="cls-128" d="M402.93,130.45s2.48,2.13.37,3.27-69.39.94-69.39.94-1.84-1.09,0-1.58S402.93,130.45,402.93,130.45Z"/><path class="cls-129" d="M403.26,133.05a4.44,4.44,0,0,0-1-6.41c-3.69-3.07-5.94-3-7.93-2.75s-34.06-.34-39.45-.11c-5.79.82.11,4.71-1,5.51s-15.5,3.31-18.12,3.76c-2,.56-.62,1.68,0,1.53s59,.62,63.26-.45C402.87,133.83,403.26,133.05,403.26,133.05Z"/><path class="cls-130" d="M394.37,123.89s6.57-1.5,9.24,4.22c1.27,1.62,1.62,5.86-5.57,6.06s-4-2.25-4-2.25,4.59-1.79,3.51-3.55S391.48,125.43,394.37,123.89Z"/><path class="cls-131" d="M301.08,119.28l-124.93,1.3a1.66,1.66,0,0,0-.14,1.92l37.25,68.41s1.65,1.15.92-.46-35.38-67.68-35.38-67.68a1.39,1.39,0,0,1,1.52-.84c1.14.17,119.22-1.52,119.22-1.52S302.82,121,301.08,119.28Z"/><circle class="cls-132" cx="386.98" cy="230.4" r="10.8"/><path class="cls-38" d="M377,232.91a10.66,10.66,0,0,0,9,7.68c2.77.08,8.12.09,11-8.35-1.33,1-2,3-3.39,3.09a33.58,33.58,0,0,0-5.54,1.1,17.17,17.17,0,0,1-5.94-.58A51.93,51.93,0,0,1,377,232.91Z"/><path class="cls-133" d="M378.93,224a11.71,11.71,0,0,1,10.54-3.78c1.26.43,5.34,1.46,7.58,8.31.18.67.21,2.94,0,2.87s-.46-3.31-1.88-3.31-2.61,1.61-2.85,1.88,1.11,1.92-1.9,2.95-5.94-1.18-9.11-1.11c-.87-.15,0,0-.08-1.4s.4-4-1.82-3.76S378.93,224,378.93,224Z"/><path class="cls-133" d="M401.83,236.48s-1.51-1.75-3.22-.88c-1.47,1.38-4.07,5.76-9.1,6.48-4.71.73-7.05.88-11.23-3-2.73-2.39-3.46-3.37-4.9-3.23s-1.61.22-6.7,3.08c-2.68,1.19-13.28,6.92-42.55,4.8-6.63-.4-13.68-.42-24-3.95-4.25-1.4,6.21-6.07,7.79-7s25.74-10.93,50.68-10.06c12-.06,17.11.56,24.39-2.61-2.13,1.42-5.75,1.44-7.17,7.66s2.55,12.17,9.39,13.76c2.81.43,9-1,11.15-5.26,1.06-1.72,3.49-7.44-.87-12.53.73.66,1.46,3.57,4.67,2.51a10.2,10.2,0,0,0,1-.49S402.24,232.94,401.83,236.48Z"/><path class="cls-134" d="M381.37,221.91s7.86-4.85,12.91,1.4c1.1,1.53,3.39,3.83,2.77,8.08-.34.2-.6-1-1.08-2.87s-1.26-5.2-5.19-6.76a10.71,10.71,0,0,0-9.89,1.35C380.22,223.58,380.27,222.48,381.37,221.91Z"/><path class="cls-134" d="M367.78,238.31s3.67-2.57,4.83-2.46,1.34-.56,5.15,2.77,5.56,4.61,11.75,3.46c2.08-.54,5-1.24,8.56-5.9.54-.58.62-3.18,0-2.24s-2.18,5.84-8.9,7.26-9.67-2-12.14-5.41c-2-2.39-1.52-3.73-4.35-3.39s-4.91,3-7.87,4.08-31.16,8.54-46.7,4.11c-12-2.21-20.52-3.49-18.1-1.54s12.58,4.85,25,4.85C333.86,244.17,355.42,245.89,367.78,238.31Z"/><path class="cls-135" d="M301.08,250.56s22.91,3.32,36.3,1.87,32.53-5.08,32.53-5.08a6.56,6.56,0,0,1,6.75,0c3.64,2.12,8.27,7.07,13.9,3.72s9.15-6.72,10.9-10.48c.24,4.75-2.39,10.48-2.39,10.48l-6.26,9.54-24.9,1.62-55.18-2.6-11.65-8.22Z"/><circle class="cls-136" cx="295.33" cy="241.6" r="5.75"/><path d="M329.85,173.82l-22.35,5a2.12,2.12,0,0,0-4.17.6c0,.3.61,29.88.49,37.33-.1,6.4-1.59,8.58-1.59,8.58h0l-8.75,15.27a2.12,2.12,0,0,0,.79,2.9,2.09,2.09,0,0,0,1.05.28,2.14,2.14,0,0,0,1.85-1.07l8.46-14.84c.62-.85,2.32-3.84,2.43-11,.1-6.19-.28-26.73-.43-34.5h0L330,177.22l.59-.83v-1.28Z"/><rect class="cls-24" x="308.13" y="175.09" width="21.82" height="5.91" transform="translate(-29.52 68.53) rotate(-11.72)"/><path class="cls-103" d="M306.29,181.08v39.71a16.06,16.06,0,0,1-.83,4.91c-.77,1.58-8.06,14.16-8.06,14.16s-1.84.79,0-1.82,7.13-13.85,7.13-13.85.87-1.42.72-6.64.21-35.76.21-35.76S306.78,179.42,306.29,181.08Z"/><path class="cls-40" d="M306.29,181.08l-.34,39s-.12,2,.34.71.46-38.76.46-38.76S306.78,178.55,306.29,181.08Z"/><path class="cls-137" d="M311.9,216.14s29.34-7.87,42.79-4,20.62,5.45,25.68,4.56,13.25-2.51,16.32-.15c-1.66-2.21-5.8-11.86-36.83-11.47-11.82.24-24.17.48-48.77,11.11"/><path class="cls-138" d="M311.09,250.45c-3.22-1.13-10.6-27.39,4.21-35.17,6.83-3.53,32.59-8.22,58.89-5.05,8.58,3,13.3,2.6,9.09,5.91-5,1.55-10.45,5.05-10.56,12.38a15.38,15.38,0,0,0,11.65,15.21c3.72.26,9.73,1.6,7.56,4.68s-16.11,7.26-32.37,6.67S317.3,252.62,311.09,250.45Z"/><path class="cls-139" d="M374.19,210.23s-9.82,29.41-8.45,36.46-34.27,6.66-36,6.5S300.3,256,320.11,224c8.23-11.95,34.65-16.76,45.63-16.29S374.19,210.23,374.19,210.23Z"/><path class="cls-140" d="M374.48,229.48s.4,13.87,15,11.66c4.63-1.45,7-2.24,8.64-9,1.35-4.4.92-1,.38,1.4-.94,4.06-5,10.65-12.92,10.74-7.7,0-10.57-6.94-11.87-9.81S374.3,226.75,374.48,229.48Z"/><path class="cls-141" d="M143.25,117.4a3.53,3.53,0,0,1,2.68-2c2.15-.47,27.65-.6,27.65-.6l-26.69-1S142.13,114.91,143.25,117.4Z"/><path class="cls-142" d="M178.67,138.91l35.51,63.85,4.93,3.39L169.83,119H147.49s-1.46.59-.6,1.57,2.83,4.16,2.83,4.16l27.33,11Z"/><path class="cls-142" d="M145.58,118.38s-1.23-1.27-.31-1.68,1.23-.8,2.33-.68,51.86-.41,51.86-.41l-28.7,1.79-1,1Z"/><path class="cls-141" d="M144.67,115.41s-.9,2.84,0,2.94c3.59.29,27.05.23,27.05.23l.42,1-26.21-.5a.74.74,0,0,0-.5,1.24c.64,1,3.26,4.28,3.26,4.28a8.64,8.64,0,0,0,2.19,1.49c1.13.46,18.57,6.22,26,10.68-3.1-1.26-20.9-8.54-28.61-10.68-.79-.57-1.19-.71-2.56-3.44a31.87,31.87,0,0,1-2.45-5.19S142.8,115.54,144.67,115.41Z"/><path class="cls-41" d="M145.93,117.4s-1.43-.9,0-1.38,30.94.08,30.94.08,2.66-.19.76.24-7.54.47-8.27,1.06c-.92.53-4,0-5.63,0S145.93,117.4,145.93,117.4Z"/><path class="cls-41" d="M147.89,120.41s18.45,0,19.22.46,3.72,1.6,4,2.15,6.31,11.6,6.31,11.6.37,1.43-1.67.61-24.58-10.25-25.3-10.74S147.26,121.23,147.89,120.41Z"/><path class="cls-25" d="M276.49,223l2.23,15.35s2.25,9.87,2.85,10.11,1.78,3.64,1.78,3.64l-1.12,11.14-8.73.2Z"/><polygon class="cls-25" points="273.5 263.39 274.68 249.83 283.35 255.67 283.35 263.39 273.5 263.39"/><path class="cls-143" d="M277.11,233.68s2.08-49.08,6.24-60.88c.56-.58,5.32-2.09,4.84,1.84-.51,4.11-5.47,57-6.12,75.19-.7,4.51-4.44,1.81-5-4.12A71.39,71.39,0,0,1,277.11,233.68Z"/><path class="cls-104" d="M282.07,183.83s3.21-3.43,4.36,1c-.26,4.86-2.12,15.45-3.08,25.62,0,5.6-2.55,3.72-3,0S279.7,188.09,282.07,183.83Z"/><path class="cls-39" d="M431.71,178.65s3.67,5.39,2.69,7.83-11.9,37.59-11.9,37.59l18.13-45.48-7.9-2.39Z"/><polygon class="cls-39" points="450.9 160.33 444.17 152.5 457.11 117.31 440.48 157.47 451.04 161.55 450.9 160.33"/><polygon class="cls-39" points="398.83 258.04 408 255.13 426.73 213.47 408.95 258.06 400.49 263.14 395.22 263.12 398.83 258.04"/><polygon class="cls-144" points="400.49 263.14 436.98 177.51 440.63 178.59 408.95 258.06 400.49 263.14"/><path class="cls-145" d="M278.87,191.16l.41,25.69a1.77,1.77,0,0,0,1.45,1.71,2.52,2.52,0,0,0,2.62-.64c1-1.51,3.51-23.36,3.51-23.36l-4.63,68.63-8.73.2Z"/><path class="cls-146" d="M426.48,157.79l23.7,7.68s4.33,6.52.72,17.77-32.56,79.88-32.56,79.88-5.46,6.72-17.56,7.5S259,268.73,259,268.73s-6.08-3.76,4.22-3.23,139.12,0,139.12,0,10.31-.78,16-13.41,27.47-74.44,27.47-74.44,1.69-6-9.11-9.49-20-9.47-11.73-11.29"/><path class="cls-147" d="M458.33,114.24s1.55-16.28,6.56-27.8-9.79-23.25-9.79-23.25-1.27.62-6.93-2.33C456.3,75,457.49,81.6,452.85,101c-1.83,6.22-.57,8.89-11,12.2,6.74,3.11,5.37,2.27,5.37,2.27Z"/><path class="cls-148" d="M222.17,229.26l-1.36-1.33-.13.59-5.44,24.74a10.81,10.81,0,0,0,5.54,5.25c4.32,2,19.64,11.21,22.3,13.06a67.8,67.8,0,0,0,6.88,4,7.7,7.7,0,0,1,4.78-6.15,30,30,0,0,0,5.1-4.41l9.83-1.18-.5-5.78Z"/><path class="cls-149" d="M459.53,63.47a51.23,51.23,0,0,0,16.62-6.65c2.47,5.43,2.9,6.86-3.64,22.63S461.27,103,461.27,103s-1.55-.17.91-6.18,10-20.29,5.38-25.34A108.32,108.32,0,0,0,459.53,63.47Z"/><path class="cls-150" d="M481.7,75.42c.62,1.48,6.54,15.94,6.73,16.69s10.24,23.34,10.24,23.34l-1.58.79s-5.38-7.91-16.45-5.78c-6.24,1.58-9.85,1.33-12.18,8-.26-5.76,2.23-30.95,2.23-30.95l6.2-12.21S480.38,72.25,481.7,75.42Z"/><path class="cls-151" d="M477.29,58l19.56,52.46L485.06,108s-6.95-1-13.38,5.75c2.36-1.45,6.4-5.61,17.86-2.63a27.69,27.69,0,0,1,7.6,4.83l4-1.91-24-57.54-.42.73.06.76Z"/><path class="cls-152" d="M222.17,229.26l-5.38,24a8.64,8.64,0,0,0,2.13,2.41c1.9,1.77,27.54,15.09,27.54,15.09a7.05,7.05,0,0,0,5-.77,13.1,13.1,0,0,0,3.73-3.37Z"/><polygon class="cls-153" points="257.21 264.75 269.6 261.48 269.17 258.01 222.17 229.26 255.18 266.62 257.21 264.75"/><polygon class="cls-154" points="216.79 252.6 223.06 232.1 269.31 259.63 269.17 258.01 222.17 229.26 216.79 252.6"/><path class="cls-155" d="M227.88,261.48l19.62,9.44s3.63.33,8.14-4.72A13.7,13.7,0,0,1,264,263c3.4-.09,37.49.18,37.49.18s-32.19,2-38.58,9c-3.92,3.5,9.83,8.55,9.83,8.55l-27.44.17-52.55-21Z"/><polygon class="cls-20" points="501.1 114.24 513.83 108.92 516.58 114.51 503.76 120.58 507.72 114.75 501.1 114.24"/><polygon class="cls-149" points="513.83 108.92 516.9 115.14 514.04 116.33 511.28 109.78 513.83 108.92"/><polygon class="cls-45" points="500.01 114.84 502.61 121.48 501.1 122.11 498.33 115.57 500.01 114.84"/><polygon class="cls-20" points="474.12 47.71 486.85 42.39 489.6 47.99 476.78 54.06 480.74 48.23 474.12 47.71"/><polygon class="cls-149" points="486.85 42.39 489.93 48.61 487.06 49.8 484.3 43.26 486.85 42.39"/><polygon class="cls-45" points="473.04 48.32 475.63 54.96 474.12 55.59 471.36 49.04 473.04 48.32"/><polygon class="cls-156" points="494 37.71 492.18 47.91 516.58 105.64 524.43 109.48 516.58 109.8 514.53 107.42 513.31 108.01 488.3 50.28 491.19 48.98 488.32 42.94 494 37.71"/><path class="cls-21" d="M453.88,62.63s4,5.56,23.28-6.12c0,2.76,2,17.87-12.75,40.67-1.92,3.64-5.14.53-1.78-4.54s6.7-13.86-.42-21.65l-7.11-7.8Z"/><path class="cls-21" d="M466.5,115.87s2.64-8,18.56-7.86l11.79,2.45L480.64,83.85s-1.08-2-2.82,0-27.64,63.46-27.64,63.46.1,3.22,1.87,1.09S466.5,115.87,466.5,115.87Z"/><path class="cls-157" d="M358,138.91s-14-9.56-8.24-15,13.82-7.21,33.06-.2,41.09,9.12,50.65,6.76,13.76-15,13.76-15"/><path class="cls-158" d="M273.5,114.24s6.14.87,4.76-2.29a15.09,15.09,0,0,1-1.44-4.74s-97.09,1.72-110.54,0-21.86-8.56-24.42-15.94-3.42-6.34-8.3-5.94S99.78,84,77.46,91.27c-13.54,6.17-2.82,8.43-2.82,8.43s40.86,14,72,15.18S234.63,115.3,273.5,114.24Z"/><path class="cls-159" d="M140.46,87.53s-.07-2.68,1.83-2.48,4.77.08,5.2,1.23.12,10.6,9.07,13.68,25.43,4.4,30.49,4.19S273.5,103,273.5,103s4.06-.4,3.32,4.23c-2.28,0-91.56,1.6-101,.8s-21.74-.43-30.84-10.83A17.27,17.27,0,0,1,140.46,87.53Z"/><path class="cls-160" d="M120.72,85.2s15.67-1.23,18.59,6.07,9.78,17.1,31.45,18.21c14,.45,106.15-1.14,106.15-1.14l-.09-1.13s-86.24,1-106.06.34a42.49,42.49,0,0,1-24.61-9.45,79.58,79.58,0,0,1-5.69-10.57s-1.37-2.77-4.14-2.48S120.72,85.2,120.72,85.2Z"/><path class="cls-131" d="M70.62,96.64s1-6,18.15-8.25,26.73-3.93,44.79-3.06c4.49,1.59,9.57,8.79,1.91,10.9s-25.83,11.17-38.89,8.07S70.62,96.64,70.62,96.64Z"/><path class="cls-161" d="M70.61,98.25s-2.21-2.11,6.38.51,50,12.43,50,12.43,11.72,3.46,34.86,3c14.34.06,116.46-2.29,116.46-2.29l-.82,2.08s-123.52,3.15-141.12.24C119,111.41,84.84,104.34,70.61,98.25Z"/><path class="cls-162" d="M90.24,100.26s41.47-7.15,46.55-6.67.38,5.17.38,5.17l-15.44,11S85.05,102.64,90.24,100.26Z"/><path class="cls-163" d="M162.64,109.48l110.86-1.24s4.32,2.14,3.24,3-14.16-1.28-19.53-.92S158.7,112,158.7,112s-22-6.48-18.73-18.39c-.66-2.29,2.18,4.09,3.35,4.69S145.89,104.94,162.64,109.48Z"/><path class="cls-164" d="M132,99.93c-2.37,5.91-9.59,9.12-15.55,7.9S103.31,100.89,105.68,95s9.59-9.12,15.56-7.9S134.33,94,132,99.93Z"/><path class="cls-165" d="M117,90.81c-1.49,4.63-2.52,7.25-3.32,12l-2.92-.54a34.88,34.88,0,0,1,2.36-8.86l-1.57.08c.39-1,.6-1.49,1-2.46Z"/><path class="cls-165" d="M117.19,103.43c1.3-1.22,2-1.85,3.47-3.1a5.17,5.17,0,0,1-3-2,3.47,3.47,0,0,1-.57-3.14,4.42,4.42,0,0,1,2.34-2.68,5.53,5.53,0,0,1,3.81-.54,5.83,5.83,0,0,1,3.42,1.89,3.42,3.42,0,0,1,.87,3.28A4,4,0,0,1,126.34,99c-.14.12-.36.34-.47.43-2.25,1.88-3.44,2.82-5.51,4.63ZM121.75,98a2.38,2.38,0,0,0,2.76-1.4,2,2,0,0,0-1.8-2.24,2.31,2.31,0,0,0-2.69,1.4A1.93,1.93,0,0,0,121.75,98Z"/><path class="cls-166" d="M109.28,104.32,133.14,97s4.74-1.55,5.23-1.06,1.51,4.91,4.83,7.56,8.33,9,30.38,8.49c13.36-.37,56.72-1.1,56.72-1.1s41.18,1.25,30.1,1.5-91,3.26-113.94,1.58c-16.6-1.56-45.23-8.42-49.17-10.07C103.15,105,105.47,105.49,109.28,104.32Z"/></g></g></g></svg>