<svg xmlns="http://www.w3.org/2000/svg" xmlns:xlink="http://www.w3.org/1999/xlink" viewBox="0 0 693.82 353.09"><defs><style>.cls-1{isolation:isolate;}.cls-114,.cls-2,.cls-6,.cls-7,.cls-9{fill:#515251;}.cls-3{fill:url(#linear-gradient);}.cls-4{fill:#050505;}.cls-5{fill:#c9c9c9;}.cls-106,.cls-6{opacity:0.32;}.cls-7{opacity:0.67;}.cls-115,.cls-116,.cls-117,.cls-118,.cls-20,.cls-22,.cls-44,.cls-47,.cls-49,.cls-73,.cls-8,.cls-90,.cls-92{fill:#fff;}.cls-8{opacity:0.29;}.cls-116,.cls-9{opacity:0.18;}.cls-10{fill:url(#linear-gradient-2);}.cls-11{fill:#898989;}.cls-12{fill:#070808;}.cls-13{fill:#181818;}.cls-14{fill:#40403f;}.cls-15,.cls-16,.cls-72,.cls-93{fill:#414042;}.cls-106,.cls-107,.cls-112,.cls-16,.cls-19,.cls-34,.cls-48,.cls-63,.cls-74,.cls-75,.cls-79,.cls-85{mix-blend-mode:multiply;}.cls-16{opacity:0.55;}.cls-17{fill:#8e8e8e;}.cls-18{fill:url(#linear-gradient-3);}.cls-19,.cls-89{opacity:0.27;}.cls-20{opacity:0.77;}.cls-21,.cls-79{fill:#171717;}.cls-23{fill:url(#linear-gradient-4);}.cls-24{fill:#9b9a9a;}.cls-25{fill:#1e1e1e;}.cls-26{fill:#020202;}.cls-27,.cls-88{opacity:0.46;}.cls-28{fill:#938f90;}.cls-29{fill:#787678;}.cls-30{fill:url(#linear-gradient-5);}.cls-31{fill:url(#linear-gradient-6);}.cls-32{fill:url(#linear-gradient-7);}.cls-33{opacity:0.54;}.cls-34{fill:#4c4c4d;}.cls-35,.cls-45{fill:#282727;}.cls-36{fill:url(#linear-gradient-8);}.cls-37{fill:#262626;}.cls-38{fill:#58595b;}.cls-39,.cls-40{fill:#0d0d0d;}.cls-40{opacity:0.84;}.cls-41{fill:#787878;}.cls-42{fill:#d3d2d1;}.cls-43{fill:#999;}.cls-44{opacity:0.64;}.cls-117,.cls-45{opacity:0.65;}.cls-102,.cls-103,.cls-104,.cls-46{fill:#262525;}.cls-113,.cls-47,.cls-62,.cls-64,.cls-65{opacity:0.36;}.cls-48{opacity:0.28;}.cls-49{opacity:0.43;}.cls-50{opacity:0.11;fill:url(#linear-gradient-9);}.cls-51{fill:url(#radial-gradient);}.cls-52{fill:url(#radial-gradient-2);}.cls-53{fill:url(#radial-gradient-3);}.cls-54{fill:url(#radial-gradient-4);}.cls-55{fill:url(#radial-gradient-5);}.cls-56{fill:url(#radial-gradient-6);}.cls-57{fill:url(#radial-gradient-7);}.cls-58{fill:url(#radial-gradient-8);}.cls-59{fill:url(#radial-gradient-9);}.cls-60{fill:url(#radial-gradient-10);}.cls-61{fill:url(#radial-gradient-11);}.cls-62{fill:url(#radial-gradient-12);}.cls-63{opacity:0.49;}.cls-64{fill:url(#radial-gradient-13);}.cls-65{fill:url(#radial-gradient-14);}.cls-66{fill:url(#radial-gradient-15);}.cls-105,.cls-109,.cls-110,.cls-113,.cls-67,.cls-96{fill:#b7b7b7;}.cls-67{opacity:0.61;}.cls-68,.cls-76,.cls-77,.cls-87{opacity:0.2;}.cls-68{fill:url(#linear-gradient-10);}.cls-69{fill:#282828;}.cls-114,.cls-70,.cls-71{opacity:0.51;}.cls-70{fill:url(#linear-gradient-11);}.cls-71{fill:url(#linear-gradient-12);}.cls-72{opacity:0.58;}.cls-73{opacity:0.71;}.cls-104,.cls-74{opacity:0.33;}.cls-75{opacity:0.25;}.cls-76{fill:url(#linear-gradient-13);}.cls-77{fill:url(#linear-gradient-14);}.cls-78{opacity:0.3;}.cls-79{opacity:0.14;}.cls-80{fill:#b0b0b0;}.cls-80,.cls-82{opacity:0.13;}.cls-81{fill:url(#linear-gradient-15);}.cls-82{fill:#c1bfc0;}.cls-83{fill:#939598;}.cls-84{fill:#383838;}.cls-85{opacity:0.59;}.cls-86{fill:#7e1416;}.cls-87{fill:url(#linear-gradient-16);}.cls-88{fill:url(#linear-gradient-17);}.cls-89,.cls-97{fill:#bcbcbc;}.cls-90{opacity:0.05;}.cls-91{opacity:0.5;fill:url(#linear-gradient-18);}.cls-92{opacity:0.72;}.cls-93{opacity:0.21;}.cls-94{opacity:0.1;fill:url(#linear-gradient-19);}.cls-95{fill:#d8d8d8;}.cls-98{fill:#3a3b3a;}.cls-99{fill:#212121;}.cls-100{fill:#2d2e2d;}.cls-101{fill:#010101;}.cls-102{opacity:0.7;}.cls-103{opacity:0.78;}.cls-105{opacity:0.79;}.cls-107{opacity:0.35;}.cls-108{opacity:0.47;}.cls-109{opacity:0.16;}.cls-110{opacity:0.38;}.cls-111{opacity:0.63;}.cls-112{opacity:0.8;}.cls-115{opacity:0.34;}.cls-118{opacity:0.12;}</style><linearGradient id="linear-gradient" x1="435.12" y1="229.2" x2="468.96" y2="229.2" gradientUnits="userSpaceOnUse"><stop offset="0" stop-color="#0a0a0a"/><stop offset="1" stop-color="#080808"/></linearGradient><linearGradient id="linear-gradient-2" x1="468.13" y1="38.29" x2="457.61" y2="36.05" gradientUnits="userSpaceOnUse"><stop offset="0" stop-color="#1f1f1f"/><stop offset="0.12" stop-color="#222"/><stop offset="0.23" stop-color="#2c2c2c"/><stop offset="0.32" stop-color="#3d3d3e"/><stop offset="0.41" stop-color="#545556"/><stop offset="0.5" stop-color="#727375"/><stop offset="0.58" stop-color="#97999b"/><stop offset="0.61" stop-color="#a9abae"/><stop offset="0.65" stop-color="#95979a"/><stop offset="0.73" stop-color="#666768"/><stop offset="0.81" stop-color="#404142"/><stop offset="0.89" stop-color="#252526"/><stop offset="0.95" stop-color="#151515"/><stop offset="1" stop-color="#0f0f0f"/></linearGradient><linearGradient id="linear-gradient-3" x1="467.75" y1="39.05" x2="476.28" y2="39.05" gradientUnits="userSpaceOnUse"><stop offset="0" stop-color="#5c5c5c"/><stop offset="0.45" stop-color="#424244"/><stop offset="1" stop-color="#0d0d0d"/></linearGradient><linearGradient id="linear-gradient-4" x1="392.26" y1="60.14" x2="444.08" y2="149.89" gradientUnits="userSpaceOnUse"><stop offset="0" stop-color="#212121"/><stop offset="0.05" stop-color="#1f1f1f"/><stop offset="0.63" stop-color="#080808"/><stop offset="1"/></linearGradient><linearGradient id="linear-gradient-5" x1="388.66" y1="151.11" x2="388.66" y2="124.9" gradientUnits="userSpaceOnUse"><stop offset="0"/><stop offset="0.66" stop-color="#1b1b1b"/><stop offset="1" stop-color="#2b2b2b"/></linearGradient><linearGradient id="linear-gradient-6" x1="435.63" y1="151.11" x2="435.63" y2="124.9" xlink:href="#linear-gradient-5"/><linearGradient id="linear-gradient-7" x1="311.91" y1="197.46" x2="311.91" y2="259.69" gradientUnits="userSpaceOnUse"><stop offset="0" stop-color="#424244"/><stop offset="1" stop-color="#0d0d0d"/></linearGradient><linearGradient id="linear-gradient-8" x1="401.35" y1="188.5" x2="429.2" y2="265.04" xlink:href="#linear-gradient-3"/><linearGradient id="linear-gradient-9" x1="403.37" y1="64.61" x2="421.73" y2="115.05" gradientUnits="userSpaceOnUse"><stop offset="0" stop-color="#fff"/><stop offset="0.07" stop-color="#dfdfdf"/><stop offset="0.22" stop-color="#a5a5a5"/><stop offset="0.36" stop-color="#727272"/><stop offset="0.5" stop-color="#494949"/><stop offset="0.64" stop-color="#292929"/><stop offset="0.77" stop-color="#121212"/><stop offset="0.89" stop-color="#050505"/><stop offset="1"/></linearGradient><radialGradient id="radial-gradient" cx="412.89" cy="152.08" r="29.87" gradientTransform="translate(20.46) scale(0.95 1)" gradientUnits="userSpaceOnUse"><stop offset="0" stop-color="#cfcfcf"/><stop offset="0.2" stop-color="#b3b3b3"/><stop offset="0.62" stop-color="#6d6d6d"/><stop offset="1" stop-color="#2b2b2b"/></radialGradient><radialGradient id="radial-gradient-2" cx="412.89" cy="155.4" r="29.87" xlink:href="#radial-gradient"/><radialGradient id="radial-gradient-3" cx="412.89" cy="158.93" r="29.87" gradientTransform="translate(22.67) scale(0.95 1)" xlink:href="#radial-gradient"/><radialGradient id="radial-gradient-4" cx="412.89" cy="162.25" r="29.87" gradientTransform="translate(22.67) scale(0.95 1)" xlink:href="#radial-gradient"/><radialGradient id="radial-gradient-5" cx="412.89" cy="165.57" r="29.87" gradientTransform="translate(24.88) scale(0.94 1)" xlink:href="#radial-gradient"/><radialGradient id="radial-gradient-6" cx="412.89" cy="168.89" r="29.87" gradientTransform="translate(24.88) scale(0.94 1)" xlink:href="#radial-gradient"/><radialGradient id="radial-gradient-7" cx="412.9" cy="172.42" r="29.87" gradientTransform="translate(29.19) scale(0.93 1)" xlink:href="#radial-gradient"/><radialGradient id="radial-gradient-8" cx="412.9" cy="175.74" r="29.87" gradientTransform="translate(34.7) scale(0.91 1)" xlink:href="#radial-gradient"/><radialGradient id="radial-gradient-9" cx="420.6" cy="179.24" r="29.87" gradientTransform="translate(80.36) scale(0.79 1)" gradientUnits="userSpaceOnUse"><stop offset="0" stop-color="#5c5c5c"/><stop offset="0.37" stop-color="#424244"/><stop offset="1" stop-color="#0d0d0d"/></radialGradient><radialGradient id="radial-gradient-10" cx="420.66" cy="182.56" r="29.87" gradientTransform="translate(87.05) scale(0.78 1)" xlink:href="#radial-gradient-9"/><radialGradient id="radial-gradient-11" cx="420.71" cy="185.87" r="29.87" gradientTransform="translate(93.73) scale(0.76 1)" xlink:href="#radial-gradient-9"/><radialGradient id="radial-gradient-12" cx="420.77" cy="192.07" r="29.87" gradientTransform="translate(100.6) scale(0.74 1)" xlink:href="#radial-gradient-9"/><radialGradient id="radial-gradient-13" cx="420.83" cy="195.39" r="29.87" gradientTransform="translate(106.88) scale(0.73 1)" xlink:href="#radial-gradient-9"/><radialGradient id="radial-gradient-14" cx="420.89" cy="198.71" r="29.87" gradientTransform="translate(113.16) scale(0.71 1)" xlink:href="#radial-gradient-9"/><radialGradient id="radial-gradient-15" cx="420.77" cy="189.19" r="29.87" gradientTransform="translate(100.6) scale(0.74 1)" xlink:href="#radial-gradient-9"/><linearGradient id="linear-gradient-10" x1="48.87" y1="174.95" x2="201.64" y2="174.95" gradientTransform="translate(64.76 -25.43) rotate(17.15)" gradientUnits="userSpaceOnUse"><stop offset="0" stop-color="#fff"/><stop offset="1"/></linearGradient><linearGradient id="linear-gradient-11" x1="540.23" y1="51.44" x2="540.23" y2="95.82" gradientUnits="userSpaceOnUse"><stop offset="0" stop-color="#d1d3d4"/><stop offset="0.06" stop-color="#bdbebf"/><stop offset="0.23" stop-color="#8e8e8f"/><stop offset="0.4" stop-color="#686667"/><stop offset="0.56" stop-color="#4a4748"/><stop offset="0.71" stop-color="#343132"/><stop offset="0.86" stop-color="#272425"/><stop offset="1" stop-color="#231f20"/></linearGradient><linearGradient id="linear-gradient-12" x1="529.31" y1="51.64" x2="529.31" y2="101.59" xlink:href="#linear-gradient-11"/><linearGradient id="linear-gradient-13" x1="113.65" y1="256.71" x2="147.05" y2="256.71" gradientTransform="matrix(1, 0, 0, 1, 0, 0)" xlink:href="#linear-gradient-10"/><linearGradient id="linear-gradient-14" x1="79.85" y1="170.43" x2="126.67" y2="170.43" gradientTransform="translate(100.91 -18.57) rotate(29.35)" xlink:href="#linear-gradient-10"/><linearGradient id="linear-gradient-15" x1="290.32" y1="204.04" x2="290.32" y2="220.5" gradientUnits="userSpaceOnUse"><stop offset="0" stop-color="#919396"/><stop offset="0.59" stop-color="#444546"/><stop offset="1" stop-color="#0d0d0d"/></linearGradient><linearGradient id="linear-gradient-16" x1="88.91" y1="126.3" x2="103.32" y2="126.3" gradientTransform="matrix(1, 0, 0, 1, 0, 0)" xlink:href="#linear-gradient-10"/><linearGradient id="linear-gradient-17" x1="506.94" y1="48.5" x2="493.63" y2="54.99" xlink:href="#linear-gradient-3"/><linearGradient id="linear-gradient-18" x1="397.55" y1="67.65" x2="416.96" y2="120.98" gradientTransform="matrix(0.98, 0.01, -0.01, 1, 12.6, -4.7)" xlink:href="#linear-gradient-9"/><linearGradient id="linear-gradient-19" x1="412.65" y1="89.99" x2="425.12" y2="124.23" gradientUnits="userSpaceOnUse"><stop offset="0" stop-color="#fff"/><stop offset="0.45" stop-color="#8e8e8e"/><stop offset="1"/></linearGradient></defs><g class="cls-1"><g id="Layer_2" data-name="Layer 2"><g id="Bobber"><path d="M457.11,145.14a5.48,5.48,0,0,1,2.86-4.37c2.91-1.83,45.42-21.94,45.42-21.94l.77-10.21-47.68,25.54-8.28,3.05-1.3,6.68Z"/><polygon class="cls-2" points="256.77 167.68 289.27 153.06 286.95 150 253.19 164.4 256.77 167.68"/><polygon class="cls-3" points="441.25 198.51 468.96 200.1 466.46 231.03 451.1 259.89 435.12 241.62 441.25 198.51"/><path d="M270.27,180.56s-2.39-3.68-1.45-5.51c1.17-2.29,2-2,5.6-2.29s11.18.8,13-.34,6.45-12.82,0-19.36l-4.81-3.86L332,125.39s-8.9,10.28-7.49,16.6c1.26,6.61,1.1,26.9,1.1,26.9s-12,28.74-9.16,28.34,13.56,6,13.56,6l21,11.58,14.91-1L415.72,265l-3.78,10.58,46.54.94-2.67,13.64-142.88-2.85-76.1-36.36-20.49-21.67L228.05,212Z"/><path d="M229.1,217.94a5.68,5.68,0,0,1-5.2-3.4c-5.78-13.21-12.47-28-13.67-29.95a9.19,9.19,0,0,1-1.31-7.21,10.14,10.14,0,0,1,4.51-6c.18-.11.36-.2.54-.29l115.62-53.1a5.67,5.67,0,0,1,4.73,10.31l-113.5,52.12c3.36,6.58,11.67,25.5,13.47,29.62a5.68,5.68,0,0,1-5.19,7.95Z"/><path class="cls-4" d="M236.31,209.59l13.85,11.92a17.77,17.77,0,0,1,4.09,11.23c.19,7.14-5.44,20.78-5.44,20.78s-11-6.74-11.44-6.65-14-13.46-14-13.46L227.25,223Z"/><circle cx="242.72" cy="233.22" r="8.29"/><circle class="cls-5" cx="242.72" cy="233.35" r="1.69"/><path class="cls-6" d="M248.91,233.35a7,7,0,0,1-1.64,4.55,5.74,5.74,0,0,1-4.55,2,6.53,6.53,0,0,1-4.45-2.08,6.89,6.89,0,0,1-2-4.45,6.23,6.23,0,0,1,1.74-4.66,6.46,6.46,0,0,1,4.66-2,6,6,0,0,1,4.56,2.08A7,7,0,0,1,248.91,233.35Zm-.1,0a5.45,5.45,0,0,0-2-4.12,6.36,6.36,0,0,0-4.12-1.52,5.89,5.89,0,0,0-4,1.61,6.1,6.1,0,0,0-1.85,4,5.51,5.51,0,0,0,1.64,4.23,5.76,5.76,0,0,0,4.24,1.52,6.84,6.84,0,0,0,4.13-1.62A5.48,5.48,0,0,0,248.81,233.35Z"/><path class="cls-7" d="M247.36,233.35a5.46,5.46,0,0,1-1.18,3.46,4.23,4.23,0,0,1-3.46,1.53,5,5,0,0,1-3.36-1.63,5.42,5.42,0,0,1-1.5-3.36,4.7,4.7,0,0,1,1.29-3.57,4.9,4.9,0,0,1,3.57-1.53,4.53,4.53,0,0,1,3.47,1.63A5.4,5.4,0,0,1,247.36,233.35Zm-.09,0a3.92,3.92,0,0,0-1.52-3,4.83,4.83,0,0,0-3-1.07,4.38,4.38,0,0,0-2.94,1.16,4.57,4.57,0,0,0-1.4,2.94,4,4,0,0,0,1.19,3.14,4.24,4.24,0,0,0,3.15,1.07,5.38,5.38,0,0,0,3-1.17A3.91,3.91,0,0,0,247.27,233.35Z"/><path class="cls-8" d="M236.31,212.2,249.69,223s.65,1.93-.88.94-13.05-10.49-13.05-10.49S235.42,211.49,236.31,212.2Z"/><circle class="cls-6" cx="246.32" cy="246.87" r="1.6"/><circle class="cls-6" cx="236.83" cy="220.41" r="1.6"/><path class="cls-8" d="M234.35,220.48s-.59-.24-.55.17a4.81,4.81,0,0,0,1.82,2.23,4.49,4.49,0,0,0,1.67.17c.35,0,.46-.25,0-.25a2.47,2.47,0,0,1-1.84-.54A9.75,9.75,0,0,1,234.35,220.48Z"/><path class="cls-9" d="M247.93,251.46s5-10.24,5-21.15c-.22-1.18.67-.36.67.68s.6,7.6-5.15,21.36C247.76,252.73,247.93,251.46,247.93,251.46Z"/><path class="cls-4" d="M265.62,277.07a5.59,5.59,0,0,1-3.41-1.15l-37-28c-5.89-4.17-14.42-15.87-5.16-30.82a5.64,5.64,0,0,1,.77-1c11.59-11.83,56.35-39.28,58.24-40.44A5.67,5.67,0,1,1,285,185.4c-12.4,7.59-46.13,29-55.61,38.25-5,8.67.6,13.75,2.47,15.12l.13.1,37.07,28a5.67,5.67,0,0,1-3.43,10.19Z"/><path d="M408.93,140.19A20.24,20.24,0,0,1,410.18,124c4-7.26,12.76-11.91,25.9-13.8l.85,6.29c-11,1.58-18.35,5.24-21.38,10.6a13.51,13.51,0,0,0-.92,10.75Z"/><ellipse class="cls-10" cx="462.87" cy="37.17" rx="5.25" ry="7.71"/><path d="M462.87,45.38c-3.17,0-5.75-3.68-5.75-8.21S459.7,29,462.87,29s5.75,3.68,5.75,8.21S466,45.38,462.87,45.38Zm0-15.42c-2.62,0-4.75,3.24-4.75,7.21s2.13,7.21,4.75,7.21,4.75-3.23,4.75-7.21S465.49,30,462.87,30Z"/><path class="cls-11" d="M526.36,34.51a27.32,27.32,0,0,0-4-1.21c-1.11.06-15.38,8-21.19,12.33-.79.65-1.19,3-1.27,3.37l-.07.39s5.5-.89,6.63-1.84,18.64-11.31,18.64-11.31Z"/><path class="cls-12" d="M506.48,47.55,503.09,53s-.26,10.91,8.16,7.31c1.92-.83,3.8-1.76,5.57-2.72L512,44.33Z"/><path class="cls-13" d="M512,44.33l4.86,13.24a87.15,87.15,0,0,0,11.4-7.36c-1.15-6.91-3.36-10.78-4.76-12.65Z"/><path class="cls-14" d="M528.9,39.05A6.92,6.92,0,0,0,527,35.48l-3.55,2.08c1.4,1.87,3.61,5.74,4.76,12.65l.21-.17a7.55,7.55,0,0,0,1.85-3.12S529.51,41.57,528.9,39.05Z"/><path class="cls-11" d="M526,36.06s3.54,7.25,3.29,11.49a1,1,0,0,0,1-.63S530,37.76,527,35.48Z"/><polygon points="490.77 140.26 500.94 140.26 502.88 142.6 499.92 159.43 474.2 275.02 454.48 275.02 490.77 140.26"/><polygon class="cls-12" points="365.9 180.22 375.26 214.04 407.21 214.04 397.06 180.16 386.56 161.28 362.88 167.91 365.9 180.22"/><path d="M475.37,46.92s-4.54-.9-8.21-1.19c-2.1-.12-10.24-.29-10.24-.29H446.61s-1,0-1.16,1.48.12,3.52.7,3.76,16,1,16,1l18.56,5.65,3-2.64L479,47.55Z"/><path d="M470.41,33.53l5.35-.23a115.57,115.57,0,0,1,12,1.8c3.91,1,10.68,6.28,11.45,8s-.24,6.27-.24,6.27L492.12,53,494,58.56l3.84,6.11,7.49,16.1.83,19.7-4-3.09L481.05,57.32s-4.52-7.73-4.41-8.94-6.83-4-6.83-4Z"/><path class="cls-15" d="M489.5,0s-11.38,8.69-4.86,28.12c.9,1.15,2.67.67,4.22-1.66,2.78-4.18,9-8,2.19-24.8C490.39,0,489.5,0,489.5,0Z"/><path class="cls-16" d="M482.86,13.17s.64,4.19,1.91,2.16.89-9.08,4.76-12.25c.82-.26,2.28,2.16,2.35,4.06s-1.65,17.45-1.65,17.45L488,27.49s-2.06,2.25-3.4.63C484.32,27.12,481.9,22.12,482.86,13.17Z"/><path class="cls-17" d="M494.12,16.15c-.55,5-2.92,8.85-4.07,8.72s-1.64-4.3-1.08-9.32,1.94-9,3.09-8.85S494.68,11.14,494.12,16.15Z"/><path class="cls-15" d="M472,33.3s12.52,2.2,14.55,2.43,4.35-.83,6.61-4.67,3.24-10.53,2.64-12.26c-.53-1-4.21-1.73-4.21-1.73s-.68-.83-.08-1,1.63,1.06,4.46,1.36c1,0,4.06-.3,3.94.75s-1.4,1.5-1.85,1.65c-.61.68.37,10.08-4.41,15.5-2.66,2.41-5.32,5.45-11.39,6.54-4.29,1.36-8.66,2.68-8.66,2.68l1.06-3.13,5.79-1.58s4.82-1.2,1.28-1.5a27.47,27.47,0,0,1-5.85-1.08Z"/><circle cx="472.01" cy="39.05" r="5.75"/><circle class="cls-18" cx="472.01" cy="39.05" r="4.27"/><path class="cls-19" d="M509.68,41.51,508.35,45l.55.67,3.86,11.18L528,49.39l2.3-2.47a7.51,7.51,0,0,1-2.54,3.66c-1.9,1.39-10.25,7.5-16.49,9.71-3.18-2.07-11.4-10.9-11.4-10.9s.51-3.07,1.34-3.76,7.71-5.05,7.71-5.05Z"/><circle class="cls-20" cx="472.01" cy="39.05" r="2.56"/><path d="M439.44,239.39s17.7,9,16.29,25a77.52,77.52,0,0,1-2.3,8.35L394.51,274V260.49Z"/><path d="M103.12,195A54.94,54.94,0,1,1,48.19,250,55,55,0,0,1,103.12,195m0-48.19A103.13,103.13,0,1,0,206.25,250,103.12,103.12,0,0,0,103.12,146.84Z"/><path class="cls-21" d="M40.77,157.75s41.94-38,116.07-2.5,58,117,58,117-4.41,20.64-7.89,25.56c-4.69-1.34-15.11-7-15.11-7s13.63-41.6,6.37-61.31S179,186.53,148.86,171C132,162.19,114.57,156.23,71,161.51,61.64,161.27,40.77,157.75,40.77,157.75Z"/><path class="cls-22" d="M544.4,103.11s3.57-6.49,3.83-26.49-3.83-19.29-3.83-19.29Z"/><polygon points="374.13 151.22 374.13 176.7 380.12 176.7 387.31 208.18 440.59 208.75 446.26 176.34 449.49 176.34 451.41 151.89 419.9 134.28 408.04 134.28 374.13 151.22"/><path d="M590.7,186.52A63.44,63.44,0,1,1,527.26,250a63.51,63.51,0,0,1,63.44-63.44m0-39.68A103.13,103.13,0,1,0,693.82,250,103.12,103.12,0,0,0,590.7,146.84Z"/><path class="cls-23" d="M332.55,123.34H490.07s24.61-12.78,10.5-44.61c-10.18-21.33-22.65-36.1-86-20.68-60.38,14.77-87.61,42-86.3,55.46C328.28,119.75,328.94,122,332.55,123.34Z"/><path d="M313.19,126.64l-70.88,20.2s-31.18.43-51.52-23.5c-3-4.9.32-27.88,28.22-16.06,19.69,8.86,34.45,19,57.1,13.78a353,353,0,0,0,37.08-10.5S327.3,115.48,313.19,126.64Z"/><polygon class="cls-24" points="494 59.04 508.12 53.13 547.88 143.91 534.23 150.04 494 59.04"/><polygon class="cls-25" points="528.9 152.24 551.87 141.73 558.1 155.45 559.74 167.33 598.35 248.12 598.35 256 593.43 259.28 586.42 255.67 546.62 175.53 536.12 167.33 528.9 152.24"/><polygon points="515.04 119.45 536.91 108.62 536.91 113.14 541.96 116.1 539.87 120.45 545.09 123.34 542.48 128.11 547.88 130.11 545.74 135.45 551.71 137.33 549.47 142.83 530.3 151.6 525.39 149.21 526.99 143.95 522.8 142.39 525.6 137.85 519.51 136.27 522.47 131.76 517.39 128.98 520.38 123.08 515.04 119.45"/><path d="M515,68.93s7.88-15.73,21.05-17.25c6.71-.7,9.3.59,9.41,9.53s-.23,39.06-1.41,43.88c-1.06,3.18-10.82,5.43-10.82,5.43Z"/><path d="M518.28,114s-22.89,5.6-25.6,17.72L456.57,293.82H447.5L485.23,123s4.06.91,8.44-2.68c5-4.08,10.08-9.09,11.26-24.1s-1.32-15.47-1.32-15.47Z"/><polygon class="cls-26" points="459.23 280.96 457.04 290.13 457.04 293.82 212.26 293.82 200.35 277.75 325.96 280.96 346.98 281.81 459.23 280.96"/><rect class="cls-12" x="303.82" y="157.57" width="71.31" height="18.62"/><path class="cls-27" d="M438.8,123.34S474.47,75.07,442,70.05c-28.27-4.37-72.14-4.55-113.31,49.09,1.32,2.66,6.48,4.2,8.91,4.2Z"/><rect class="cls-28" x="328.04" y="142.57" width="19.77" height="43.56"/><rect class="cls-28" x="349.91" y="142.57" width="19.77" height="43.56"/><path class="cls-29" d="M349.91,142.57h19.77s-.8-6.48-9.81-6.57S349.91,142.57,349.91,142.57Z"/><path class="cls-29" d="M349.91,186.13h19.77s-.8,6.48-9.81,6.57S349.91,186.13,349.91,186.13Z"/><path class="cls-30" d="M407.21,149.74V131.28s1.55-8.26-9.23-6-25.64,5.51-25.64,5.51-2.64,1.56-2.28,7.67.48,12.64.48,12.64Z"/><path class="cls-31" d="M417.08,149.74V131.28s-1.56-8.26,9.22-6S452,130.8,452,130.8s2.63,1.56,2.27,7.67-.48,12.64-.48,12.64Z"/><polygon points="111.11 248.53 208.43 278.68 208.43 290.13 103.43 256.21 111.11 248.53"/><polyline points="274.34 137.71 317.38 130.4 331.95 123.09 328.24 114.46 318.19 115.62 318.39 121.08 313.19 126.64 273.49 137.95"/><path class="cls-32" d="M259.63,220.14s-4.81,21.72,10.59,29.84,59.91,12.19,78,8.11c12.52-2.82,30.37-26.72,0-50.19C326.05,190.78,258.67,194.63,259.63,220.14Z"/><polygon class="cls-21" points="465.59 155.45 502.88 155.45 474.82 280.13 346.98 280.96 346.98 272.01 464.97 272.01 489.35 165.95 462.93 165.95 465.59 155.45"/><polygon class="cls-33" points="494 59.04 498.09 57.33 523.79 115.34 519.69 117.14 494 59.04"/><polygon class="cls-33" points="505.85 53.98 508.12 53.13 534.01 110.86 531.54 112.08 505.85 53.98"/><polygon class="cls-20" points="501.39 56.81 503.16 56.01 528.43 113.14 526.95 113.96 501.39 56.81"/><polyline class="cls-34" points="533.27 110.52 520.94 113.22 508.08 90.89 519.69 117.14 534.01 110.86"/><polygon class="cls-35" points="539.87 120.45 543.08 123.37 530.28 128.85 543.08 124.65 542.48 128.11 545.09 123.34 539.87 120.45"/><polygon class="cls-35" points="542.48 128.11 545.86 130.05 533.07 135.53 545.86 131.33 545.78 135.34 547.88 130.11 542.48 128.11"/><path class="cls-36" d="M375.54,198.73h72.53s17.14,3.42,7.43,21.7-18.57,30.91-24.23,37.62c-9.52,11.39-25.46,22.86-42.6-1.95s-24-33.32-24-33.32S350.4,202.15,375.54,198.73Z"/><path class="cls-37" d="M405,233.46h14.86s3.51.7,1.52,4.45a46.61,46.61,0,0,1-5,7.7c-2,2.33-5.22,4.68-8.73-.4s-4.92-6.82-4.92-6.82S399.82,234.16,405,233.46Z"/><path class="cls-38" d="M412,248.49h-.17c-1.54-.07-3-1.12-4.42-3.13-3.46-5-4.89-6.79-4.9-6.81s-1.37-2-.68-3.58c.41-.94,1.45-1.53,3.07-1.75h14.89a3.15,3.15,0,0,1,2.14,1.55,3.6,3.6,0,0,1-.4,3.26,44.73,44.73,0,0,1-5,7.75C415.07,247.57,413.54,248.49,412,248.49ZM405,233.71c-1.43.2-2.32.69-2.66,1.46-.58,1.31.61,3.06.62,3.07s1.44,1.8,4.92,6.83c1.29,1.87,2.64,2.85,4,2.91s2.84-.79,4.3-2.53a44.53,44.53,0,0,0,4.94-7.66,3.18,3.18,0,0,0,.39-2.81,2.69,2.69,0,0,0-1.74-1.27Z"/><path class="cls-39" d="M454.42,223.69S447.89,234,443,241.8s-13.5,20-17.87,22.52c9.34-7.95,18.84-32.85,18.84-32.85a11.24,11.24,0,0,1-5.4-1.12c-9-6.86-9.07-12.95-8.66-15.37a5.42,5.42,0,0,1,.29-1.11Z"/><path class="cls-40" d="M438.6,198.73s-62.37-.49-65.18,0c-12.63,3.46-12,8-12.78,11.05-1.33,7.08,4.53,13.6,4.53,13.6s11.88,16.15,21.66,30.06,12.63,14,12.63,14S391.6,255.22,384,244.1a5.19,5.19,0,0,0-1.11-5.76,6.94,6.94,0,0,0-3.89-1.46c-2.57-3.63-4.85-6.73-6.45-8.63a78.89,78.89,0,0,1-5.73-7.37c1.38-1.27,1.59-3.48.49-5.66-.76-1.52-2.85-2.07-4.23-2.27a8.08,8.08,0,0,1,.07-3.63c2.17-6.44,10.07-7.26,10.07-7.26h6.18a8.15,8.15,0,0,0,4.31,1.86,7.39,7.39,0,0,0,4.64-1.86H405a7.73,7.73,0,0,0,4.53,1.39,5,5,0,0,0,4.08-1.39h21.44Z"/><path class="cls-41" d="M445.1,200.1v-2.87a14.87,14.87,0,0,0-14.87,14.87h2.87A12,12,0,0,1,445.1,200.1Z"/><path class="cls-41" d="M433.1,212.1h-2.87A14.88,14.88,0,0,0,445.1,227v-2.87A12,12,0,0,1,433.1,212.1Z"/><path class="cls-41" d="M445.1,224.11V227A14.87,14.87,0,0,0,460,212.1h-2.86A12,12,0,0,1,445.1,224.11Z"/><path class="cls-41" d="M445.1,197.23v2.87a12,12,0,0,1,12,12H460A14.87,14.87,0,0,0,445.1,197.23Z"/><path class="cls-42" d="M445.1,224.11a12,12,0,0,0,12-12h-12Z"/><path class="cls-43" d="M433.1,212.1a12,12,0,0,0,12,12v-12Z"/><path class="cls-43" d="M457.11,212.1a12,12,0,0,0-12-12v12Z"/><path class="cls-42" d="M433.1,212.1h12v-12A12,12,0,0,0,433.1,212.1Z"/><polygon class="cls-35" points="545.74 135.45 549.69 137.37 536.89 142.85 549.69 138.65 549.47 142.83 551.71 137.34 545.74 135.45"/><polygon class="cls-35" points="536.91 113.14 539.94 116.16 527.15 121.64 539.94 117.44 539.87 120.45 541.96 116.13 536.91 113.14"/><polygon class="cls-44" points="541.59 115.91 535.21 118.59 541.7 116.58 541.96 116.13 541.59 115.91"/><polygon class="cls-44" points="544.73 123.14 538.34 125.82 544.84 123.81 545.09 123.36 544.73 123.14"/><polygon class="cls-44" points="547.51 129.95 540.92 132.51 547.76 130.39 547.88 130.11 547.51 129.95"/><polygon class="cls-44" points="551.34 137.21 544.75 139.77 551.59 137.65 551.71 137.37 551.34 137.21"/><polygon class="cls-45" points="523.15 125.4 535.21 121.36 534.01 124.48 526.04 127.46 523.15 125.4"/><polygon class="cls-45" points="519.19 118.9 531.25 114.86 530.05 117.98 522.08 120.96 519.19 118.9"/><polygon class="cls-45" points="526.62 132.22 538.68 128.18 537.48 131.31 529.51 134.28 526.62 132.22"/><polygon class="cls-45" points="529.18 138.2 541.24 134.16 540.04 137.28 532.07 140.26 529.18 138.2"/><polygon class="cls-45" points="532.31 145.78 544.37 141.73 543.17 144.86 535.2 147.84 532.31 145.78"/><polygon points="530.28 153.55 552.79 143.76 551.87 141.73 528.9 152.24 529.72 153.95 530.28 153.55"/><polygon points="534.55 164.06 557.19 153.43 557.81 154.8 535.21 165.43 534.55 164.06"/><polygon points="535.21 149.6 541.96 163.6 550.15 170.82 590.7 249.96 589.08 252.48 590.7 256.25 594.19 256.25 598.35 256 593.43 259.28 586.42 255.67 547.04 176.39 536.12 167.33 528.9 152.24 535.21 149.6"/><polygon points="551.87 141.73 557.81 154.8 559.74 167.33 598.35 248.12 598.35 251.31 596.3 249.96 556.5 167.82 552.98 153.95 547.88 143.91 551.87 141.73"/><polygon class="cls-21" points="150.03 260.96 328.29 260.96 346.98 270.34 346.98 281.81 327.29 290.13 169.72 290.13 150.03 260.96"/><polygon class="cls-46" points="328.29 260.96 328.29 290.13 346.98 281.81 346.98 270.34 328.29 260.96"/><polygon class="cls-47" points="464.81 158.5 497.37 158.48 471.87 275.55 347.49 275.02 347.02 273.26 469.64 273.26 495.03 159.75 464.34 160.36 464.81 158.5"/><polygon class="cls-48" points="162.95 280.1 328.29 280.1 346.91 277.13 346.98 281.81 328.29 290.13 169.72 290.13 162.95 280.1"/><polygon class="cls-49" points="153.71 264.97 329.6 264.97 346.98 272.01 347.49 275.02 328.29 272.01 158.37 273.31 153.71 264.97"/><path class="cls-50" d="M493.17,66.07S410.6,35.63,334.7,103.3c-22.05,22.56,57.5,7.62,57.5,7.62s42.74-4.77,45.12-2.63c.79-1.82,11-8.55,7.09-34.27,0-2.77,6.47-2.87,9.47,3.86C456.09,83,456.5,90.35,452,104c4.69-4.28,6.26-14.57,9-30.4C466.61,70.45,482.19,69.13,493.17,66.07Z"/><polygon points="453.93 144.65 471.75 145.53 464.89 172.63 449.78 172.63 451.41 151.02 453.74 151.1 453.93 144.65"/><rect class="cls-51" x="373.1" y="151.11" width="80.35" height="1.96"/><rect class="cls-52" x="373.1" y="154.42" width="80.35" height="1.96"/><rect class="cls-53" x="373.1" y="157.96" width="79.84" height="1.96"/><rect class="cls-54" x="373.1" y="161.27" width="79.84" height="1.96"/><rect class="cls-55" x="373.1" y="164.59" width="79.34" height="1.96"/><rect class="cls-56" x="373.1" y="167.91" width="79.34" height="1.96"/><rect class="cls-57" x="373.1" y="171.44" width="78.36" height="1.96"/><rect class="cls-58" x="373.1" y="174.76" width="77.1" height="1.96"/><rect class="cls-59" x="379.83" y="178.26" width="66.84" height="1.96"/><rect class="cls-60" x="380.62" y="181.58" width="65.52" height="1.96"/><rect class="cls-61" x="381.3" y="184.9" width="64.17" height="1.96"/><rect class="cls-62" x="382.04" y="191.1" width="62.79" height="1.96"/><polygon class="cls-63" points="351.17 152.66 369.68 152.11 351.15 152.11 350.9 142.6 349.91 142.57 349.91 152.11 349.91 152.7 349.91 161.86 353.95 156.27 357 154.18 351.24 155.45 351.17 152.66"/><rect class="cls-64" x="382.78" y="194.41" width="61.54" height="1.96"/><rect class="cls-65" x="383.42" y="197.73" width="60.28" height="1.96"/><rect class="cls-66" x="382.04" y="188.21" width="62.79" height="1.96"/><rect class="cls-67" x="352.94" y="142.6" width="4.78" height="43.33"/><path class="cls-68" d="M59.18,158.34s20.85-15.92,61.94-5.88c27.52,7,47.63,11.3,71.25,52.86,6.23,12.94,6.92,17.11,6.92,17.11s-12.64-33.84-47.9-55.31c-9-5-29.2-11.19-53.88-11.88-8.92,0-24.55,3.14-24.55,3.14A26.85,26.85,0,0,1,59.18,158.34Z"/><polygon class="cls-63" points="369.68 142.57 369.68 160.68 364.6 156.05 363.02 154.31 367.68 155.45 368.43 142.57 369.68 142.57"/><rect class="cls-67" x="327.94" y="145.08" width="19.96" height="17.44"/><rect class="cls-29" x="327.85" y="142.57" width="19.96" height="2.63"/><rect class="cls-29" x="327.85" y="183.62" width="19.96" height="2.88"/><rect class="cls-67" x="327.85" y="166.18" width="19.96" height="17.44"/><rect class="cls-69" x="455.86" y="145.53" width="12.32" height="1.63" transform="translate(8.81 -25.35) rotate(3.17)"/><rect class="cls-69" x="455.71" y="148.28" width="12.32" height="1.63" transform="translate(8.96 -25.33) rotate(3.17)"/><rect class="cls-69" x="455.1" y="151.27" width="12.32" height="1.63" transform="translate(9.12 -25.3) rotate(3.17)"/><rect class="cls-69" x="454.94" y="154.25" width="12.32" height="1.63" transform="translate(9.29 -25.28) rotate(3.17)"/><rect class="cls-69" x="454.61" y="157.24" width="12.32" height="1.63" transform="translate(9.45 -25.26) rotate(3.17)"/><polygon class="cls-26" points="346.98 272.01 346.98 280.96 371.29 280.81 351 278.55 346.98 272.01"/><polygon class="cls-26" points="468.58 155.45 468.9 163.21 491.43 165.95 465.93 165.95 468.58 155.45"/><polygon class="cls-44" points="540.28 149.2 544.75 158.5 545.09 159.12 549.77 156.91 544.4 147.4 540.28 149.2"/><polygon class="cls-44" points="546.18 160.7 550.41 158.48 553.93 168.91 593.44 248.26 592.48 248.26 552.79 169.11 546.18 161.13 546.18 160.7"/><path class="cls-70" d="M535.21,95.82l3.47-44.3s6-1.26,6.41,6.48-.18,37.82-.18,37.82-.1-37.57-2.44-38.49-3.79,8.28-3.79,8.28Z"/><path class="cls-71" d="M537.69,51.68s-8.92-1-16.75,8.84c0,0,11.63-7.07,13.07-4.51.18.89.27,4.65.29,9.65l-.29.39a38.5,38.5,0,0,1-10.86,7.58c-2,2.57-.69,3.57-.69,3.57l11.83-.58L534,78.49l-6.86,4.72s.43,2,1,2.43,6.05-.66,6.05-.66h0c-.09,9-.21,16.61-.21,16.61Z"/><path class="cls-72" d="M190.11,116.54s0-10.22,12.36-12.6c10.86,0,14.69,2.42,23.35,6.43s17.25,9.58,35,12c10.16,1.71,38.35-7.23,52.37-11.82,0-.21,6.27,1.73,6.18,7-3.52,1.33-27.34,12.09-64.69,17.53C238.38,136.57,211.86,133.29,190.11,116.54Z"/><polygon class="cls-73" points="488.44 134.16 484.29 153.43 485.49 153.43 489.86 134.28 488.44 134.16"/><polygon class="cls-73" points="481.14 166.88 482.89 166.88 459.23 269.75 457.69 269.33 481.14 166.88"/><polygon class="cls-74" points="407.14 128.84 403.1 142.17 370.49 148.92 370.54 151.1 407.21 149.74 407.14 128.84"/><polygon class="cls-75" points="417 130.2 417.08 149.74 453.45 151.1 422.18 143.22 417 130.2"/><path d="M102.05,241.6a4.26,4.26,0,0,1-2.17-3.81l2.54-112.62a4.26,4.26,0,0,1,8.51.19L108.38,238a4.25,4.25,0,0,1-4.34,4.15A4.17,4.17,0,0,1,102.05,241.6Z"/><polygon class="cls-76" points="113.64 256.21 126.57 260.96 121.2 254.62 147.05 262.21 145.59 260.96 114.67 251.21 113.64 256.21"/><polygon class="cls-77" points="109.9 128.34 108.7 166.29 107.21 148.05 104.85 232.85 105.04 140.97 109.9 128.34"/><ellipse class="cls-78" cx="325.56" cy="210.26" rx="12.63" ry="8.61"/><polygon class="cls-79" points="261.44 229.65 319.69 230.25 320.5 237.6 338.19 250.68 299.81 252.09 267.62 244.92 261.44 229.65"/><path class="cls-21" d="M354.84,213.8s22.05,32.1-14.51,31.82c-7.73.14-19.78.23-21.63-22-.31,15.56-1.86,20.34,12.49,25-9.56.71-60.75-4.6-60.75-4.6s-9.11-3.85-9.83-29.44c-.79,2.79-8.33,23.62,7.43,34.11,7.42,3.58,18.25,9.55,52.59,10.86,5.92.17,29.63,2.52,36.76-6.81,2.09-2.3,12.07-10.06,5.66-26.71C360.86,219.6,360.55,219,354.84,213.8Z"/><path class="cls-80" d="M312.93,212s1,5.57,10.24,6.86c3.94.17,15.54-.58,14.87-9.84,1.31,4.81,0,9.21-10.09,11.37C322.61,221.15,314.37,220.59,312.93,212Z"/><path class="cls-81" d="M269.17,216.23a21.88,21.88,0,0,1,15.89-10.55c11.25-1.55,22.22-2,24.47-1.41,1.55.85,2.68,1.69,2.11,8.44-.7,5.91-2.39,7.22-4.64,7.69s-31.64-.94-34.6-.8C270.15,219.32,268,218,269.17,216.23Z"/><path d="M270.07,218.87s3-6.12,6.38-7.92,7.17-2.92,15-3.88a138.3,138.3,0,0,1,15.08-1s2.95,0,2.74,2.32.42,10.67-5.48,12c3.23,0,7,1.16,7.87-5.56.38-2.63,1.13-6.64-.74-9.48-1.33-1.68-2.18-1.39-9.14-1.32-4.52.36-16.71-.12-24.22,3.91-2.72,1.73-5.94,3.11-8.37,8.28C268.85,217.08,267.74,218.14,270.07,218.87Z"/><path class="cls-82" d="M272,219.54l35.84.94s3.69-1.06,4-7.55c-.27,1.91.34,7-3.46,8.44a18.27,18.27,0,0,1-4.52.24Z"/><circle class="cls-83" cx="379.78" cy="240.75" r="1.86"/><path class="cls-84" d="M379.78,238.88a1.87,1.87,0,1,1-1.86,1.87,1.87,1.87,0,0,1,1.86-1.87m0-.62a2.49,2.49,0,1,0,2.49,2.49,2.49,2.49,0,0,0-2.49-2.49Z"/><circle class="cls-83" cx="364.74" cy="217.99" r="1.86"/><path class="cls-84" d="M364.74,216.13a1.87,1.87,0,1,1-1.86,1.86,1.86,1.86,0,0,1,1.86-1.86m0-.62a2.49,2.49,0,1,0,2.49,2.48,2.49,2.49,0,0,0-2.49-2.48Z"/><circle class="cls-83" cx="384.41" cy="200.88" r="1.78"/><path class="cls-84" d="M384.41,199.1a1.78,1.78,0,1,1-1.78,1.78,1.78,1.78,0,0,1,1.78-1.78m0-.59a2.38,2.38,0,1,0,2.38,2.37,2.37,2.37,0,0,0-2.38-2.37Z"/><circle class="cls-83" cx="410.17" cy="200.88" r="1.78"/><path class="cls-84" d="M410.17,199.1a1.78,1.78,0,1,1-1.78,1.78,1.78,1.78,0,0,1,1.78-1.78m0-.59a2.38,2.38,0,1,0,2.37,2.37,2.38,2.38,0,0,0-2.37-2.37Z"/><path class="cls-85" d="M215,258.21l-12.59-1.5s-6.41-24.85-6.85-27.52c1,7.48,2.24,31.77,2.24,31.77h16.95Z"/><polygon class="cls-85" points="167.15 180.37 184.47 193.68 196.28 187.64 197.88 190.21 183.41 197.4 167.15 180.37"/><path class="cls-86" d="M89,123.38H87a15.21,15.21,0,0,0-.34,7.55A13.15,13.15,0,0,0,89,136.26l2.79-.56Z"/><path d="M89.06,123s8.51-.61,13.8,2.17c2.93,2.49,2.35,5.92,0,7.14s-8.23,3.41-12,3.49C89.06,132,87,130.64,89.06,123Z"/><path class="cls-87" d="M89.66,124.57s-1,2.53-.65,3.41c1.15.13,14.31,0,14.31,0S101.93,126.08,89.66,124.57Z"/><polygon class="cls-63" points="329.94 142.6 332.14 180.03 347.81 183.62 347.81 186.5 327.85 186.5 327.85 142.57 329.94 142.6"/><polygon points="494 59.04 507.88 53.13 508.9 51.24 506.85 46.92 505.35 46.92 491.65 52.16 490.94 53.37 493.37 59.04 494 59.04"/><polygon class="cls-88" points="494.54 56.85 507.77 50.86 506.48 47.55 493.66 52.2 494.54 56.85"/><path class="cls-89" d="M515,68.93s5.84-11.14,14.27-15.13a16.57,16.57,0,0,1,8.38-2.12L535.6,79.93s-8.22-2.1-14,3.58Z"/><path class="cls-89" d="M536.43,80.22s2.05-3.77,4.79-3.6a4.25,4.25,0,0,1,3.94,3.6c.26-2-.07-22.22-.07-22.22s.32-4.56-3.24-6.08a13,13,0,0,0-3.17-.4Z"/><path class="cls-90" d="M447.5,67.58s8.67,10.66,9,15.93S454.27,98.78,452,104c-.14,1.79,1.24,1.27,3.61-2.43s8.44-18.2,3.54-29.18c4.67-2.77,22.25-8.51,27.88-8.18,2.05-.42,2.44-.57-3.44-3.56s-45.4-3.87-74.51,3c-20,4.62-40,9.17-75.35,42.89-.25,3.14,4,4.69,4,4.69S360,97.44,376.71,91.76,431.12,73.23,440.09,74,447.5,67.58,447.5,67.58Z"/><polygon class="cls-34" points="507.88 53.13 497.6 61.53 505.47 84.98 494 59.04 507.88 53.13"/><path class="cls-91" d="M338.82,101.86s12.44-21.16,71-36.83c16.13-3.51,50.24-10.68,65.85-4.2,2,1.58,1.23,1.9-4.53,1.14s-11.95,10.44-11.95,10.44,3.43,4.72,1.43,13-3.95,15.46-7.33,18.41l3.54-15.09s.36-11.46-7.58-16.49c2.19,8,5.4,18.48,1.92,28.36-2,4.47-7.74,13.72-7.19,10.39.56-3.59,1.18-11,.66-13.1-2.83-1.09-106.84,13.31-106.84,13.31S329.52,107.73,338.82,101.86Z"/><path class="cls-92" d="M470.46,56a23,23,0,0,1,18.78,11.46c-1.53,3.32-6.47,3.62-9.39,0s-11-9.51-15.67-8.48C459.22,58.19,464,54.19,470.46,56Z"/><path class="cls-93" d="M455.65,101.59l47.23-10.7s1.67,14.19-6.66,25c-2.55,4.43-6.88,5.87-13.33,5.73s-148.78,0-148.78,0l3.78-2,109.75-3.77S456.19,110.36,455.65,101.59Z"/><path class="cls-94" d="M335,119.68c4.49-.33,9-.6,13.5-.86s9-.56,13.5-.79c9-.49,18-.91,27-1.32l13.5-.59,13.51-.54c9-.4,18-.65,27-1.16l-.35.07c1.15-.33,1.94-.37,2.72-.59a8.1,8.1,0,0,0,2.15-.9,14.14,14.14,0,0,0,3.63-3.31,34.11,34.11,0,0,0,2.91-4.3l1.27-2.32,1.18-2.38.08-.15.06-.08a7.23,7.23,0,0,1,2.72-1.92,15.68,15.68,0,0,1,2.87-.92,46,46,0,0,1,5.71-.89,96.94,96.94,0,0,0,11.11-1.65q5.55-1,11-2.39c1.83-.44,3.66-.92,5.47-1.43a46.05,46.05,0,0,0,5.37-1.74,74,74,0,0,1-10.63,3.92q-5.43,1.65-10.93,3a100.83,100.83,0,0,1-11.19,2.14,47.36,47.36,0,0,0-5.43,1c-1.71.46-3.48,1.14-4.33,2.22l.15-.24-1.15,2.5c-.4.82-.84,1.63-1.26,2.45a36.76,36.76,0,0,1-3.05,4.68,16.35,16.35,0,0,1-4.25,4,10.16,10.16,0,0,1-2.8,1.23c-.95.27-2,.4-2.54.59l-.18.06h-.17c-4.52.29-9,.51-13.53.71s-9,.4-13.52.55l-13.51.45-13.52.35q-13.52.31-27,.46c-4.51.07-9,.06-13.53.07S339.52,119.74,335,119.68Z"/><path class="cls-92" d="M538.85,52.24a5.31,5.31,0,0,1,5.81,3.63c0,2.24.39,6.58.39,6.58a11.15,11.15,0,0,1-4.8-5.38C538.76,53.36,538.85,52.24,538.85,52.24Z"/><path class="cls-92" d="M528.8,55.07a15,15,0,0,1,8.13-2.87c.4.14.11,1.3,0,2.87s.17,6-.81,5.1-1.22-5.45-3.78-4.87S526.4,56.52,528.8,55.07Z"/><path class="cls-92" d="M497.37,158.48s-1.49-2.52-2.34,1.27-3.73,7.48-3.36,10.41,4.65,4.87,5.29,2.59S500,161.52,497.37,158.48Z"/><path class="cls-92" d="M328.29,261l-.15,14.58-.1,10.24s2-3.25,1.75-9.29,0-15.16,0-15.16Z"/><polygon class="cls-8" points="265.75 230.23 318.53 230.25 318.62 226.62 265.75 230.23"/><path class="cls-8" d="M319.69,230.25l10.27-8.6s-5.54,2.54-10.92,0C318.7,223.59,319.69,230.25,319.69,230.25Z"/><rect x="349.91" y="151.95" width="19.77" height="0.16"/><polygon class="cls-63" points="351.17 176.11 369.68 176.67 351.15 176.67 350.9 186.17 349.91 186.21 349.91 176.67 349.91 176.08 349.91 166.91 353.95 172.5 357 174.59 351.24 173.33 351.17 176.11"/><polygon class="cls-63" points="369.68 186.21 369.68 168.1 364.6 172.72 363.02 174.47 367.68 173.33 368.43 186.21 369.68 186.21"/><rect x="349.91" y="176.67" width="19.77" height="0.16"/><circle class="cls-95" cx="359.79" cy="164.35" r="10.55"/><circle class="cls-96" cx="359.87" cy="164.35" r="9.55"/><polygon class="cls-14" points="527.01 35.48 526.36 34.51 504.51 47.24 506.48 47.55 527.01 35.48"/><path d="M500.94,46.28s7.79-4.14,11-6.09,9.77-6,10.42-6.89C520.66,34,501.15,45.07,500.94,46.28Z"/><path class="cls-97" d="M513.92,39.4s7.07-3.95,8.46-5.62c.47.14,3.3.73,3.3.73s-9.2,5.63-10.22,6.05C515.74,40,515.08,39.11,513.92,39.4Z"/><path d="M517.67,74.24,517,73c5.73-3.42,8.92-8.91,8.54-14.71-.28-4.11-2.45-7.53-5.68-8.91-11.23-3.85-23.34-1.17-23.46-1.14L496,46.87c.51-.11,12.63-2.79,24.29,1.21,3.77,1.61,6.27,5.49,6.58,10.14C527.32,64.55,523.87,70.54,517.67,74.24Z"/><path d="M599.05,248.23l-1.4-.22c.05-.29,4.25-29.06-9.66-43.07-8.72-8.78-32.26-21.46-51.17-31.64-12-6.46-22.32-12-26.06-15.09-9.63-7.89-13.91-33.86-14.09-35l1.4-.22c0,.26,4.37,26.54,13.59,34.08,3.63,3,13.92,8.52,25.83,14.94,19,10.23,42.63,23,51.5,31.89,7.56,7.61,9.89,19.26,10.51,27.7A83.2,83.2,0,0,1,599.05,248.23Z"/><path d="M533,179.72H531.6c.11-35.9-30.36-61.78-30.67-62l.91-1.09C502.16,116.86,533.12,143.17,533,179.72Z"/><polygon class="cls-21" points="309.55 173.58 308.85 156.77 308.67 149.74 316.33 149.74 319.39 182.62 309.57 182.62 309.55 182.6 309.3 173.53 309.55 173.58"/><polygon class="cls-98" points="309.55 182.6 291.66 172.28 291.66 169.79 309.3 173.53 309.55 182.6"/><polygon class="cls-98" points="308.85 156.77 291.66 163.71 291.66 159.71 308.67 149.74 308.85 156.77 308.85 156.77"/><polygon class="cls-99" points="309.3 173.53 308.85 156.77 309.55 173.58 309.3 173.53"/><polygon class="cls-100" points="309.1 166.04 291.66 166.62 291.66 163.71 308.85 156.77 308.85 156.77 309.3 173.53 291.66 169.79 291.66 166.62 309.1 166.04"/><path class="cls-101" d="M325.27,149.85c.31.51,1.54,33,1.54,33l-7.26-.28s-1.54-33.12-2-33S325.27,149.85,325.27,149.85Z"/><path d="M107.38,250.75a5.67,5.67,0,0,1-3-10.48l93-58.22a5.61,5.61,0,0,1,3.43-.85c.69.05,6.86.66,10.24,5.9,1.49,2.33,14.06,20.58,20.49,29.9a5.67,5.67,0,1,1-9.33,6.44c-.76-1.1-18.73-27.14-20.7-30.2a.76.76,0,0,0-.26-.24l-90.84,56.88A5.58,5.58,0,0,1,107.38,250.75Z"/><path class="cls-8" d="M243.92,246.44s-.62-.26-.57.18a5,5,0,0,0,1.92,2.36,4.83,4.83,0,0,0,1.77.18c.37,0,.48-.27,0-.27a2.6,2.6,0,0,1-1.95-.57A10.38,10.38,0,0,1,243.92,246.44Z"/><path class="cls-46" d="M248.5,198.71l30.23-20.45s5.67-.13,5.94,2-9.45,9.73-10.8,10-2.82-.33-7.28,1.9-17.78,8.81-17.78,8.81S247.16,199.62,248.5,198.71Z"/><path class="cls-46" d="M242.82,202.66s-16.15,10.52-16,11.14-.62,1.86,1.41,1S244.4,204,244.4,204,244.79,201.37,242.82,202.66Z"/><path class="cls-46" d="M224.88,221.65s-3.37,10.22.68,15.19,19.8,15.58,19.8,15.58,3.36,2-2,1.1-21.16-13.63-21.16-13.63-5.22-2.44-3.92-12.18C219.22,220.9,225,218.36,224.88,221.65Z"/><path class="cls-96" d="M269.75,185.06s7.05-6,8.57-5.82a5.71,5.71,0,0,1,2.63,1s-11.57,7.28-11.2,5.58S269.75,185.06,269.75,185.06Z"/><path class="cls-96" d="M250.75,198.51l.78-.49,15.72-9.81s2.81-1.15,1.6,0S250.75,198.51,250.75,198.51Z"/><path class="cls-96" d="M223.38,228.58s-.75,6.7,6.62,12.49,19.82,15.14,19.82,15.14-8.11-3-10.55-4.12S223.35,237,223.35,237s-4-8-1.43-11C224.3,223.85,223.38,228.58,223.38,228.58Z"/><circle class="cls-41" cx="103.43" cy="248.53" r="7.67"/><path d="M103.43,240.86a7.68,7.68,0,1,1-7.67,7.67,7.67,7.67,0,0,1,7.67-7.67m0-2.84a10.51,10.51,0,1,0,10.51,10.51A10.53,10.53,0,0,0,103.43,238Z"/><circle class="cls-96" cx="272.75" cy="176.59" r="1.6"/><path class="cls-8" d="M270.27,176.66s-.59-.25-.55.17a4.81,4.81,0,0,0,1.82,2.23,4.68,4.68,0,0,0,1.67.17c.35,0,.46-.25,0-.25a2.47,2.47,0,0,1-1.84-.54A9.75,9.75,0,0,1,270.27,176.66Z"/><circle class="cls-96" cx="294.21" cy="183.1" r="1.6"/><path class="cls-8" d="M291.73,183.17s-.58-.24-.54.17a4.75,4.75,0,0,0,1.82,2.23,4.66,4.66,0,0,0,1.67.17c.35,0,.45-.25,0-.25a2.5,2.5,0,0,1-1.85-.54A10.39,10.39,0,0,1,291.73,183.17Z"/><path class="cls-46" d="M285,174.46l13.16,6.42s.71.83.91.61-.46-1.19-1.58-1.86S285,173.91,285,173.91,284.6,174.26,285,174.46Z"/><path class="cls-102" d="M289.9,183.1s1.64-4.36,6.69-2.42a15.42,15.42,0,0,1,2.49.81s2-.37-5.6-3.77-9.08-4-11.91-4.82c-2.53-.48,0,1,0,1s4.69.08,7.74,6.1C289.45,181.35,288.41,183.88,289.9,183.1Z"/><polygon class="cls-46" points="218.06 181.18 230.85 206.35 228.89 208.71 216.34 183.53 218.06 181.18"/><path class="cls-103" d="M211,175.74a14.11,14.11,0,0,1,3.07-3.32c1.54-1,83.83-38.14,83.83-38.14s5.17.33,7.4,1.48c-1.39.73-3.9-.82-6,.24s-84.81,38.76-84.81,38.76S210.93,178.17,211,175.74Z"/><path class="cls-104" d="M299.81,131.62s11.23,2,13.12,3.8c1.05.79.87-1.3,1.1-2.42s2-5.31,4.94-6.15a72.75,72.75,0,0,0,7.84-3.07s4.6-3.91,0-3.49-27.69,11.65-27.69,11.65Z"/><path class="cls-46" d="M300.6,131.77s9.91,1.36,13.39,4.23c1.46.91-1.26-2.7,1.51-6.23,2.22-2.33,2.39-2.4,5.17-3.47s6.56-2.9,6.56-2.9.53-1.31-4.08.4-10.39,6.78-14.48,7.18S299.66,131,300.6,131.77Z"/><path class="cls-105" d="M213.34,175.74l86-39.74s1.64-.86.95.14-85.89,41-85.89,41S210.37,177.78,213.34,175.74Z"/><path class="cls-46" d="M203.58,184.42c.57.79,11.92,11.69,15.46,17.23,3.38,5.55-6-3.11-6.8-4.42s-4.79-7.93-10.11-9.53S201,180.81,203.58,184.42Z"/><path class="cls-46" d="M111.11,239.89l84.06-54.1s6.14.5,4.4,3.63-85.63,53.82-85.63,53.82S109.14,242.46,111.11,239.89Z"/><path class="cls-105" d="M177.33,197.4c3.55-1.8,16.75-10.55,16.75-10.55s6.85.16,3.21,3.4-18.35,10.63-18.35,10.63-4.18,2-1.61-2.37Z"/><path class="cls-106" d="M234.65,114.65s18.34,8.09,42.87,16.2c3-.71,16.63-1.78,25.2-4.65-5.11.12-22.55-.73-44.47-4.2A101.47,101.47,0,0,1,234.65,114.65Z"/><path class="cls-107" d="M263.22,122.75A104.28,104.28,0,0,0,284,119.22c11.47-3.14,29.15-8.66,29.15-8.66s4.8,1.08,5.83,4.84,0,5.31,0,5.31l-36.31,13Z"/><path class="cls-108" d="M202.47,103.94s-5.78,7.26-2.59,12.77,25,15.64,44,19.43c-4.33,2.34-8.27,3.13-10.5,2.61s-43.25-19.07-43.25-19.07-.71-6.54,3.7-11.44S202.47,103.94,202.47,103.94Z"/><path class="cls-109" d="M201.49,108.32s3.67-4.33,16.79,1.18,23.25,11.33,36.4,14.69,19.21,6.24,13.05,6.66-15.35,2.65-30.83-2.93-33.44-13.27-33.44-13.27S199,113.43,201.49,108.32Z"/><path class="cls-110" d="M201.25,108.67s3.26-1.68,9.39.08,37.59,13.44,45.43,15.86,19.37,5.86,19.37,5.86,2,.09,1,.05-35.69-11.39-35.69-11.39L212.3,108.54a24.1,24.1,0,0,0-8.81-1.37C201.62,107.81,199.83,108.6,201.25,108.67Z"/><path class="cls-111" d="M277.36,131.44l-48.28-15.87s-.3.41.45.71,46.7,15.16,46.7,15.16Z"/><path class="cls-72" d="M267.29,123.32s18.59-2,45.85-11.57c1-.1,2.18.91,2,1.45s-4.83,5.57-22.06,8.21C277.59,123.87,276.32,124.64,267.29,123.32Z"/><path d="M467.64,202.66s-1.19,3.44-3.17,3.44c-2.6,0-4,3-2.6,4.69a12.41,12.41,0,0,1,2.79,5.34c.63,2.36,2.06-.62,2.06-.62l3.09-12.14Z"/><circle class="cls-43" cx="463.77" cy="209.35" r="1.14"/><path d="M224.66,190.17s-2-3.74.39-5.27,33.87-16,33.87-16l-3-5.66-37.25,16Z"/><polygon class="cls-112" points="257.45 166.13 288.17 152.3 289.16 153.29 257.45 167.38 257.45 166.13"/><polygon class="cls-112" points="255.76 164.07 286.49 150.24 287.48 151.23 255.76 165.32 255.76 164.07"/><polygon class="cls-113" points="259.85 163.99 284.83 152.84 285.21 153.08 259.85 164.42 259.85 163.99"/><polygon class="cls-46" points="254.68 164.01 257.64 169.87 259.57 169.08 256.44 162.74 254.68 163.49 254.68 164.01"/><path d="M257.45,162.1a68.47,68.47,0,0,0,3.64,6c.38.27.74-.22.38-.69s-3.31-5.76-3.31-5.76Z"/><path d="M259.53,161.11a69.46,69.46,0,0,0,3.64,6c.39.27.75-.21.39-.69s-3.31-5.76-3.31-5.76Z"/><path d="M261.62,160.26a68.47,68.47,0,0,0,3.64,6c.39.27.75-.21.39-.69s-3.31-5.76-3.31-5.76Z"/><path d="M263.71,159.32a68.47,68.47,0,0,0,3.64,6c.39.27.74-.21.39-.69s-3.32-5.76-3.32-5.76Z"/><path d="M265.8,158.37a68.49,68.49,0,0,0,3.64,6c.38.27.74-.22.38-.69s-3.31-5.76-3.31-5.76Z"/><path d="M267.88,157.42s3.08,5.49,3.64,6c.39.27.75-.21.39-.69s-3.31-5.76-3.31-5.76Z"/><path d="M269.53,156.43a68.49,68.49,0,0,0,3.64,6c.39.26.75-.22.39-.69s-3.31-5.76-3.31-5.76Z"/><path d="M271.22,155.57a68.47,68.47,0,0,0,3.64,6c.38.27.74-.21.38-.69s-3.31-5.76-3.31-5.76Z"/><path d="M273.52,154.58s3.07,5.5,3.63,6c.39.26.75-.22.39-.69s-3.31-5.76-3.31-5.76Z"/><path d="M275.78,153.67s3.08,5.49,3.64,6c.39.27.75-.22.39-.69s-3.31-5.76-3.31-5.76Z"/><path d="M277.69,152.66a67,67,0,0,0,3.64,6c.39.27.75-.21.39-.69s-3.31-5.76-3.31-5.76Z"/><path d="M280,151.85a68.47,68.47,0,0,0,3.64,6c.39.27.75-.21.39-.69s-3.32-5.76-3.32-5.76Z"/><path d="M281.87,150.84s3.07,5.5,3.63,6c.39.27.75-.22.39-.69s-3.31-5.76-3.31-5.76Z"/><polygon class="cls-112" points="257.13 164.13 268.24 159.22 271.84 160.42 258.31 166.52 257.13 164.13"/><path class="cls-114" d="M258.75,164l1,1.64s.26.29.32.11a1.66,1.66,0,0,0-.14-.68l-.79-1.44S258.48,163.4,258.75,164Z"/><path class="cls-114" d="M260.89,163.07l1,1.64s.25.29.31.11-.14-.68-.14-.68l-.79-1.44S260.62,162.43,260.89,163.07Z"/><path class="cls-114" d="M262.85,162.05l1,1.65s.25.28.32.1a1.7,1.7,0,0,0-.14-.68l-.8-1.44S262.57,161.41,262.85,162.05Z"/><path class="cls-114" d="M265,161.14l1,1.64s.25.29.32.11a1.7,1.7,0,0,0-.14-.68l-.79-1.44S264.73,160.5,265,161.14Z"/><path class="cls-114" d="M267.09,160.29l1,1.65s.25.28.31.11-.14-.68-.14-.68l-.79-1.44S266.82,159.65,267.09,160.29Z"/><polygon class="cls-112" points="271.23 157.9 273.15 160.03 274.01 159.59 272.3 156.77 274.81 158.92 276.28 158.63 274.83 156.19 277.1 158.1 278.45 157.41 277.1 155.09 279.46 157.08 280.6 156.72 279.02 153.88 281.33 156.12 282.54 155.39 281.07 152.84 283.22 154.82 284.25 154.33 283.06 151.94 285.62 153.76 286.5 153.52 285.57 151.56 288.31 152.3 288.05 153.78 272.53 160.63 271.23 157.9"/><path class="cls-114" d="M269.08,159.17l1,1.65s.25.29.31.11-.14-.68-.14-.68l-.79-1.44S268.81,158.54,269.08,159.17Z"/><path class="cls-114" d="M271,158.52l1,1.65s.25.29.32.11a1.66,1.66,0,0,0-.14-.68l-.8-1.44S270.73,157.89,271,158.52Z"/><path class="cls-114" d="M272.6,157.66l1,1.65s.25.28.31.1-.14-.67-.14-.67l-.79-1.45S272.33,157,272.6,157.66Z"/><path class="cls-114" d="M274.88,156.54l1,1.65s.25.28.32.11a1.66,1.66,0,0,0-.14-.68l-.8-1.44S274.6,155.9,274.88,156.54Z"/><path class="cls-114" d="M277.17,155.65l1,1.65s.25.28.31.11-.14-.68-.14-.68l-.79-1.45S276.9,155,277.17,155.65Z"/><path class="cls-114" d="M279.09,154.64l1,1.64s.25.29.32.11a1.66,1.66,0,0,0-.14-.68l-.8-1.44S278.81,154,279.09,154.64Z"/><path class="cls-114" d="M281.25,153.63l1,1.65s.25.29.31.11-.14-.68-.14-.68l-.79-1.44S281,153,281.25,153.63Z"/><path class="cls-114" d="M283.13,152.72l1,1.65s.25.28.31.1-.14-.67-.14-.67l-.79-1.45S282.86,152.08,283.13,152.72Z"/><polygon points="370.25 142.2 407.29 140.65 407.21 140.19 370.24 141.82 370.25 142.2"/><polygon points="454.14 142.2 417.1 140.65 417.18 140.19 454.15 141.82 454.14 142.2"/><path class="cls-115" d="M371.7,133.45a3.74,3.74,0,0,1,2.43-2.18c1.69-.34,25.39-5.31,25.39-5.31s4.84-.67,6.86,2.19c.76,2-.08,5.14-2.27,4.13s-2.86-2.94-7.83-2.61-22.65,3.78-22.65,3.78S370.78,134.8,371.7,133.45Z"/><path class="cls-116" d="M453,133a3.8,3.8,0,0,0-2.43-2.19c-1.7-.33-25.39-5.3-25.39-5.3s-4.85-.68-6.87,2.19c-.76,2,.09,5.13,2.27,4.12s2.87-2.93,7.83-2.6S451.08,133,451.08,133,453.94,134.3,453,133Z"/><path class="cls-117" d="M451.29,131.07s3.4.77,2.55,10.52a28,28,0,0,0-2.86-.09s2.19-5.82-.52-9.44A.66.66,0,0,1,451.29,131.07Z"/><polygon class="cls-118" points="370.95 142.57 404.5 140.77 370.95 143.79 370.95 142.57"/><path class="cls-116" d="M418.56,140.77l34.89,1.8-.25,6.94s-.13-4.77-3-5.72c-2.86-.58-31.25-2.59-31.25-2.59Z"/></g></g></g></svg>