<svg xmlns="http://www.w3.org/2000/svg" xmlns:xlink="http://www.w3.org/1999/xlink" viewBox="0 0 660.54 417.14"><defs><style>.cls-1{isolation:isolate;}.cls-2{fill:#e7a723;}.cls-3,.cls-5{fill:#231f20;}.cls-4{fill:url(#linear-gradient);}.cls-103,.cls-5,.cls-74{opacity:0.36;}.cls-120,.cls-121,.cls-40,.cls-6,.cls-9,.cls-90,.cls-92,.cls-97{fill:#fff;}.cls-6{opacity:0.16;}.cls-7{fill:#ced5dd;}.cls-108,.cls-12,.cls-29,.cls-30,.cls-32,.cls-34,.cls-41,.cls-44,.cls-46,.cls-8{fill:#14283d;}.cls-12,.cls-8{opacity:0.48;}.cls-9{opacity:0.04;}.cls-10{fill:#020202;opacity:0.52;}.cls-10,.cls-100,.cls-103,.cls-104,.cls-106,.cls-107,.cls-109,.cls-117,.cls-12,.cls-24,.cls-28,.cls-29,.cls-30,.cls-33,.cls-34,.cls-51,.cls-53,.cls-63,.cls-67,.cls-73,.cls-74,.cls-79,.cls-81,.cls-89,.cls-91{mix-blend-mode:multiply;}.cls-11{fill:#f2f3f4;}.cls-13{fill:#1e2428;}.cls-14{fill:#aab0b5;}.cls-15{fill:#f0efef;}.cls-16{fill:#121415;}.cls-17{fill:#ababab;}.cls-18{fill:#131517;}.cls-19{fill:#61686b;}.cls-20{fill:#969da8;opacity:0.49;}.cls-21{fill:#444445;}.cls-22{fill:#797f84;}.cls-23,.cls-24{fill:#747576;}.cls-25{fill:#2a2a2b;}.cls-26,.cls-33,.cls-48,.cls-51,.cls-52{fill:#1b1a1c;}.cls-27{fill:#0c0c0d;}.cls-28{fill:#5c5f61;}.cls-29,.cls-44{opacity:0.65;}.cls-31{fill:#afb3b7;}.cls-32,.cls-34{opacity:0.85;}.cls-33{opacity:0.38;}.cls-35{fill:#232323;}.cls-36{fill:#1d1d1e;}.cls-37{fill:#2d2d2d;}.cls-38{fill:#dee0e2;}.cls-39{fill:#8f979e;}.cls-106,.cls-41{opacity:0.58;}.cls-42{fill:#979ca0;}.cls-43{fill:#7c8084;}.cls-45,.cls-47{fill:#cdd2d6;}.cls-111,.cls-45{opacity:0.4;}.cls-48{opacity:0.29;}.cls-49{fill:#f3f9fd;}.cls-50{fill:url(#linear-gradient-2);}.cls-51{opacity:0.51;}.cls-115,.cls-52{opacity:0.56;}.cls-53,.cls-63{fill:#4f545b;}.cls-53{opacity:0.8;}.cls-54{fill:#bfc0c1;}.cls-55{fill:#cccccb;}.cls-56{fill:#181c1d;}.cls-57{fill:url(#linear-gradient-3);}.cls-58{fill:url(#linear-gradient-4);}.cls-59{opacity:0.09;fill:url(#linear-gradient-5);}.cls-60{fill:url(#linear-gradient-6);}.cls-61{fill:#555656;opacity:0.62;}.cls-62{fill:url(#linear-gradient-7);}.cls-64{fill:#c9c9c9;}.cls-65{fill:#151617;}.cls-66,.cls-67,.cls-74,.cls-78{fill:#262728;}.cls-68,.cls-73{fill:#576067;}.cls-69{fill:#dcdfe2;}.cls-70{fill:#ccd2d8;}.cls-71,.cls-84{fill:none;}.cls-71{stroke:#ccd2d8;stroke-linecap:round;stroke-linejoin:round;stroke-width:0;}.cls-72{fill:#e8eaec;}.cls-75{fill:#7f8184;}.cls-76{fill:url(#linear-gradient-8);}.cls-77{fill:#bab9ba;}.cls-78{opacity:0.24;}.cls-100,.cls-103,.cls-104,.cls-79,.cls-81{fill:#2f3844;}.cls-79{opacity:0.55;}.cls-111,.cls-112,.cls-80{fill:#ddd;}.cls-80,.cls-88,.cls-94,.cls-96{opacity:0.97;}.cls-81{opacity:0.72;}.cls-82{fill:#1b1c1b;}.cls-83{fill:#c1c2c4;}.cls-117,.cls-85{fill:#414a50;}.cls-86{fill:#1c2023;}.cls-87{fill:url(#linear-gradient-9);}.cls-88{fill:url(#linear-gradient-10);}.cls-89{fill:#969ea8;}.cls-90{opacity:0.63;}.cls-91{fill:#838a93;}.cls-117,.cls-92{opacity:0.71;}.cls-93{fill:url(#linear-gradient-11);}.cls-94{fill:url(#linear-gradient-12);}.cls-95{fill:url(#linear-gradient-13);}.cls-96{fill:url(#linear-gradient-14);}.cls-97{opacity:0.64;}.cls-98{fill:url(#linear-gradient-15);}.cls-99{fill:#727a82;}.cls-101{fill:#81878c;}.cls-102{fill:#bbbbbc;}.cls-104{opacity:0.61;}.cls-105{fill:#0c0d0d;}.cls-106,.cls-107{fill:url(#linear-gradient-16);}.cls-107{opacity:0.19;}.cls-108{opacity:0.21;}.cls-109{fill:#d7d9db;}.cls-110{fill:url(#radial-gradient);}.cls-112{opacity:0.84;}.cls-113,.cls-114{opacity:0.26;}.cls-113{fill:url(#linear-gradient-18);}.cls-114{fill:url(#linear-gradient-19);}.cls-116{opacity:0.57;}.cls-118{fill:#c42026;}.cls-119{fill:#a7a3a3;opacity:0.18;}.cls-120{opacity:0.45;}.cls-121{opacity:0.22;}.cls-122{fill:#bababa;}.cls-123{fill:#707071;}.cls-124{fill:#f7f7fb;}.cls-125{fill:#e38d25;}</style><linearGradient id="linear-gradient" x1="325.91" y1="89.43" x2="346.73" y2="89.43" gradientTransform="translate(-24.15 62.96) rotate(-13.04)" gradientUnits="userSpaceOnUse"><stop offset="0" stop-color="#d1d3d4"/><stop offset="1" stop-color="#6d6e71"/></linearGradient><linearGradient id="linear-gradient-2" x1="165.78" y1="242.29" x2="172.03" y2="242.29" gradientUnits="userSpaceOnUse"><stop offset="0" stop-color="#141414"/><stop offset="1"/></linearGradient><linearGradient id="linear-gradient-3" x1="106.84" y1="-27.68" x2="197.5" y2="288.48" gradientUnits="userSpaceOnUse"><stop offset="0" stop-color="#454545"/><stop offset="1"/></linearGradient><linearGradient id="linear-gradient-4" x1="8.85" y1="133.19" x2="286.83" y2="133.19" gradientUnits="userSpaceOnUse"><stop offset="0" stop-color="#b6b8ba"/><stop offset="1"/></linearGradient><linearGradient id="linear-gradient-5" x1="5.36" y1="138.84" x2="291.09" y2="138.84" xlink:href="#linear-gradient-4"/><linearGradient id="linear-gradient-6" x1="85.05" y1="261.78" x2="214.02" y2="261.78" gradientUnits="userSpaceOnUse"><stop offset="0" stop-color="#231f20"/><stop offset="1"/></linearGradient><linearGradient id="linear-gradient-7" x1="337.74" y1="55.45" x2="358.56" y2="55.45" gradientTransform="translate(6.54 -31.95) rotate(4.16)" xlink:href="#linear-gradient"/><linearGradient id="linear-gradient-8" x1="251.31" y1="377.34" x2="258.1" y2="364.02" gradientTransform="translate(52.22 -30.92) rotate(7.74)" gradientUnits="userSpaceOnUse"><stop offset="0" stop-color="#333"/><stop offset="0.53" stop-color="#282526"/><stop offset="1" stop-color="#231f20"/></linearGradient><linearGradient id="linear-gradient-9" x1="315.54" y1="315.12" x2="315.54" y2="295.39" gradientUnits="userSpaceOnUse"><stop offset="0.04" stop-color="#8f8f8f"/><stop offset="0.32" stop-color="#333"/><stop offset="0.65" stop-color="#30363e"/><stop offset="1" stop-color="#2f3844"/></linearGradient><linearGradient id="linear-gradient-10" x1="305.65" y1="300.9" x2="325.36" y2="300.9" gradientUnits="userSpaceOnUse"><stop offset="0" stop-color="#e8e8e8"/><stop offset="1" stop-color="#333"/></linearGradient><linearGradient id="linear-gradient-11" x1="277.5" y1="293.08" x2="277.5" y2="273.36" xlink:href="#linear-gradient-9"/><linearGradient id="linear-gradient-12" x1="267.61" y1="278.86" x2="287.32" y2="278.86" xlink:href="#linear-gradient-10"/><linearGradient id="linear-gradient-13" x1="370.22" y1="310.45" x2="370.22" y2="290.72" xlink:href="#linear-gradient-9"/><linearGradient id="linear-gradient-14" x1="360.33" y1="296.23" x2="380.04" y2="296.23" xlink:href="#linear-gradient-10"/><linearGradient id="linear-gradient-15" x1="100.82" y1="371.09" x2="107.61" y2="357.77" gradientTransform="translate(50.01 -10.71) rotate(7.74)" xlink:href="#linear-gradient-8"/><linearGradient id="linear-gradient-16" x1="335.21" y1="235.25" x2="338.08" y2="245.25" gradientUnits="userSpaceOnUse"><stop offset="0" stop-color="#b8c1c9"/><stop offset="0.01" stop-color="#b0bac3"/><stop offset="0.08" stop-color="#8894a1"/><stop offset="0.16" stop-color="#657383"/><stop offset="0.24" stop-color="#47576a"/><stop offset="0.32" stop-color="#2f4056"/><stop offset="0.42" stop-color="#1c2f46"/><stop offset="0.54" stop-color="#0f223b"/><stop offset="0.69" stop-color="#071b35"/><stop offset="1" stop-color="#051933"/></linearGradient><radialGradient id="radial-gradient" cx="337.88" cy="245.34" r="6.92" gradientUnits="userSpaceOnUse"><stop offset="0.04" stop-color="#fff"/><stop offset="0.97" stop-color="#b8c1c9"/></radialGradient><linearGradient id="linear-gradient-18" x1="345.2" y1="247.04" x2="348.35" y2="247.04" gradientUnits="userSpaceOnUse"><stop offset="0" stop-color="#071a32"/><stop offset="0.14" stop-color="#071a32"/><stop offset="1" stop-color="#071a32"/></linearGradient><linearGradient id="linear-gradient-19" x1="338.92" y1="247.42" x2="342.07" y2="247.42" gradientTransform="matrix(-0.96, 0.27, 0.27, 0.96, 590.69, -81.05)" xlink:href="#linear-gradient-18"/></defs><g class="cls-1"><g id="Layer_2" data-name="Layer 2"><g id="Chopper"><path class="cls-2" d="M450.23,117.89s4.76,6.86,5.5,18.47A69.79,69.79,0,0,1,454,157Z"/><path class="cls-3" d="M411.8,131.27c-2.33-31.38-23.7-48.58-41.21-57.48a126.66,126.66,0,0,0-38-12l.12-1a127.6,127.6,0,0,1,38.27,12c17.76,9,39.43,26.46,41.79,58.31Z"/><path class="cls-4" d="M330.64,60.13a20.6,20.6,0,0,1,1.59,5.09,5.94,5.94,0,0,1-.86,3.46s-10.93,9.68-13,16c0,.65,1.13,1.72.17,2.78s-2.7.85-2.54-.84,3.82-9.14,7.49-13.32c1.73-1.83,5.26-5.09,5.38-6.59-.07-1.09-1.08-4.15-1.81-4.8A10.56,10.56,0,0,1,330.64,60.13Z"/><path class="cls-5" d="M318.35,84.7s0-3,4.82-9c1.41-1.43,7.33-7.49,7.33-7.49a4.73,4.73,0,0,0,.85-3.54,16.21,16.21,0,0,0-.68-2.21l.49-1.35s1.46,4.24,1,5.65-.39,1.69-3,4-3.84,3.36-8.9,10.14A40,40,0,0,0,318.35,84.7Z"/><path class="cls-6" d="M319.4,79.76a37.9,37.9,0,0,1,5.22-7.27,30.5,30.5,0,0,0,4.54-5.35,3.27,3.27,0,0,0-.36-2.78,2.66,2.66,0,0,1,.46,3.89A149.23,149.23,0,0,0,319.4,79.76Z"/><path class="cls-7" d="M327.14,65.43s8.44-12.45,19.8,4C358.43,86,384,136.47,384,136.47l5.51-7s-38.46-70.27-41-72.26-9.92-10.45-20.74-1.7-9.87,7.63-9.87,7.63Z"/><path class="cls-3" d="M293.49,84.8,315,64.09s6.23-.34,7.17,5.9c-5.31,5.2-20.34,20.93-20.34,20.93S294.75,92.13,293.49,84.8Z"/><path class="cls-3" d="M314.5,67.3s-3.88-5.14.45-8.45c3.93-3,9.83,1.18,11.89,5.78s-1.59,10.1-7.37,6.76C315.58,69.14,314.5,67.3,314.5,67.3Z"/><path class="cls-3" d="M327.8,55.55s4.87,3.79,4.89,5.93-5.3,4.75-5.3,4.75a12,12,0,0,0-6.2-7.54C321.76,57,325.64,53.66,327.8,55.55Z"/><path class="cls-3" d="M326.49,61.73s3,1.4,3.66,1.21,1.77-2.25,1-3.41S326.49,61.73,326.49,61.73Z"/><path class="cls-8" d="M323.63,58.89s4.13,2,5.74,1.53,7.59-3,10.85-.36c7.53,3.24,45.12,74.55,45.12,74.55L384,136.47s-35.1-69-43.84-73.86c-.89-1-4.67-3.78-10,.33s-4.27,3.22-4.27,3.22l-4.16-5.75Z"/><path class="cls-6" d="M317.22,59.23s-.6-1,.44-1,5.44.26,8.51,6.28c.4.56-.16,1-.44.42S323.66,60.1,317.22,59.23Z"/><path class="cls-9" d="M294.72,84.7s3.54,2.2,5,1.83c1.05-.27,20-19.16,20-19.16s.46-1.79-2.63-2.72c1.09,0,4.14.48,3.44,4.75-.87,1-19.14,19.24-19.14,19.24Z"/><ellipse class="cls-6" cx="316.91" cy="87.07" rx="0.5" ry="0.78" transform="translate(-11.57 97.6) rotate(-17.2)"/><ellipse class="cls-6" cx="298.22" cy="88.09" rx="1.73" ry="4.37" transform="translate(44.95 268.5) rotate(-51.92)"/><path class="cls-10" d="M323.07,59.51c-.31-.22-.63-.44-1-.63.35.2.68.4,1,.61Zm4.42,5.81h0a7.15,7.15,0,0,1,.25.8s.52-.25,1.23-.67a6.55,6.55,0,0,1,.23,1.17,7.24,7.24,0,0,1-1.95,3A6.11,6.11,0,0,0,327.49,65.32Z"/><path class="cls-8" d="M328.79,56.38s8.69-4.76,15.24-1.17a70.8,70.8,0,0,1,9.2,12.13c2.42,4.12,35,63.76,35,63.76l1.26-1.59S357.44,71.14,353,64.19s-5.42-10.14-15.31-12.7c-3.35-.48-9.88,4.06-9.88,4.06Z"/><path class="cls-11" d="M329.91,57.39s12.1-3.86,16.5,2.08c4,6.18,41.16,72.52,41.16,72.52l-1.24,1.56L345,59.91s-3.49-3.25-14.15-1.61Z"/><polygon class="cls-12" points="376.25 121.53 383.34 128.66 387.17 125.21 389.21 129.01 384.02 136.47 376.25 121.53"/><path class="cls-13" d="M396.31,180.14s3.84,1.44,3.84,3.6,5.18,26.65,5.18,26.65l7.86-28.67-7.42-7.33Z"/><path class="cls-14" d="M330.9,152.34s-.89-2.12,0-3.39a62.4,62.4,0,0,1,8.4-9.6,2.74,2.74,0,0,1,3.39,0C341.89,140.46,330.9,152.34,330.9,152.34Z"/><path class="cls-8" d="M332,147.49l.64,3.53-1.49,1.68a6,6,0,0,1-.6-2.27C330.48,149.29,331.14,148.56,332,147.49Z"/><path class="cls-8" d="M338.12,140.48l3.23.49,1.85-1.37a3.74,3.74,0,0,0-2.32-.84c-1.37,0-2.92,1.88-2.92,1.88Z"/><polygon class="cls-15" points="333.68 145.32 335.95 142.72 337.96 143.66 334.77 146.95 333.68 145.32"/><path class="cls-15" d="M330.51,149.8l4.33-5.26,5.41-5.65s-.87-.4-5.92,5.62c-2.19,2.6-3.07,3.9-3.07,3.9A2.65,2.65,0,0,0,330.51,149.8Z"/><polygon points="205.84 295.42 211.17 312.66 222.12 310.44 267.34 304.55 289.41 299.15 300.95 267.79 292.29 253.78 264.84 260.52 205.84 295.42"/><polygon class="cls-16" points="277.2 357.98 372.11 335.85 384.51 307.56 405.38 302.21 400.34 341.93 379.32 355.26 248.89 377.39 258.13 363.16 277.2 357.98"/><polygon points="323.96 255.57 371.36 256.44 354.98 300.58 330.96 300.13 323.96 255.57"/><path class="cls-17" d="M323.19,299.15,340,291.51l9,1.4,12,3.34,14.73,8s10.17-2.86,11.74,0,3.57,13.23-1.07,19.22-10.47,17.7-32.39,22.64-68.35,16.82-81.16,17.06-21.26-.72-22.23-27.28c2.07-4.51,30.84-24.26,30.84-24.26Z"/><path class="cls-18" d="M209,293.5l55.88-33s4.22,0,5.1,2.75S272.81,307,272.81,307l-56.43,5.7Z"/><path class="cls-12" d="M388.27,131l1.26-1.59s-13.14-24-24.56-44.36c-5.65-10.09-10.45-18.57-12-21h0c-2.36-4-4-6.57-4.44-6.93-.24-.19-.53-.44-.85-.72a13.63,13.63,0,0,0-2.78-2.24,13.84,13.84,0,0,0-6.39-2.56l-.84-.24a7.2,7.2,0,0,0-3.2.52,17.37,17.37,0,0,0-6.68,3.54c-2.16-1.89-6,1.48-6.61,3.14h0c-2.11-1.06-4.39-1.25-6.24.16-2.72,2.08-2.2,4.88-1.44,6.68l-20,19.27c.83,4.84,4.19,6,6.39,6.15a2,2,0,0,0,1.53,0c.26,0,.42-.05.42-.05s12.2-12.77,18.5-19.1a5.19,5.19,0,0,0,4.46.15c-.49.5-1,1-1.32,1.35-3.67,4.17-7.33,11.62-7.49,13.32s1.59,1.89,2.54.84-.17-2.13-.17-2.78c0,0,.63-1.45,1.28-2.71.41-.7.89-1.42,1.4-2.14s1.18-1.54,1.68-2.19a84.31,84.31,0,0,1,6.4-6.87A23.52,23.52,0,0,0,330.89,69l.48-.44a6.56,6.56,0,0,0,.74-1.84v0a2.06,2.06,0,0,0,.1-.65,4.21,4.21,0,0,0,0-.94,13.86,13.86,0,0,0-.44-2,2.76,2.76,0,0,0,.9-1.73s0,0,0-.05a10.29,10.29,0,0,1,1.13-.4,8.91,8.91,0,0,1,6,1.22,4.65,4.65,0,0,1,.38.36c6.13,3.39,25.22,38.35,36.08,58.93L384,136.37l2.31-2.92h0l1.24-1.56h0l.7-.89ZM328.62,65.46a.19.19,0,0,1,0,.08c-.53.3-.9.48-.9.48l0-.06Zm-5.88-6,0,0a11.3,11.3,0,0,0-1-.63A8.57,8.57,0,0,1,322.74,59.5Zm4.4,5.83h0a7.15,7.15,0,0,1,.25.8l.26-.13a6.07,6.07,0,0,1-.22,3l-.53.61A6.12,6.12,0,0,0,327.14,65.33Z"/><path d="M131.8,284.24a51,51,0,1,1-51,51,51.09,51.09,0,0,1,51-51m0-28.34a79.37,79.37,0,1,0,79.37,79.37A79.36,79.36,0,0,0,131.8,255.9Z"/><path class="cls-19" d="M75.22,265.48s4.13,7.82,18.3,7.82c6.2-3.25,28.63-16.51,60.5-7.82,13.29,4.87,28.63,12.83,39.26,32.31,2.95,5.91,9.81,14.09,12.1,37.48.59,6.79,8.26,15.06,9.44,13.58,1.48-9.44,5.91-34.79-15.93-65.5-13.29-16-27.75-30.92-68.18-32.59C116.25,250.87,103.85,249.41,75.22,265.48Z"/><path class="cls-20" d="M138.22,262.77s11.3-2.63,31.44,8.34c6.55,3.61,21.45,10.81,31.11,38.16,1.64,4.25,3.93,19,5.41,22.1s1.53,10.56,1.53,10.56a63.7,63.7,0,0,1-2.38-6.08c-1.47-4.44,2.19-19.36-20.67-50.49C170.84,272.19,159,263.88,138.22,262.77Z"/><polygon class="cls-21" points="381.27 132.01 396.85 119.78 402.77 125.89 383.47 139.35 378.51 134.17 381.27 132.01"/><polygon points="392.56 169.95 393.2 173.94 404.51 169.95 404.51 167.89 395.61 171.53 394.21 169.09 392.56 169.95"/><path class="cls-22" d="M567,339.22l-1.1,1.14a5.19,5.19,0,0,1-7.66-.23l-175.5-203.6,7.9-6.46L567.19,330.8A6.21,6.21,0,0,1,567,339.22Z"/><path class="cls-23" d="M483.22,256.29l73.62,85.61a4.75,4.75,0,0,0,6.52.64l5.31-4.16a4.74,4.74,0,0,0,.62-6.87L495,247.06c-1.81-2.05-2.17,1.23-4.11,3.15l-3.92,3.9C485.18,255.87,481.59,254.4,483.22,256.29Z"/><path class="cls-24" d="M483.22,256.29l73.62,85.61a4.75,4.75,0,0,0,6.52.64l5.31-4.16a4.74,4.74,0,0,0,.62-6.87L495,247.06c-1.81-2.05-2.17,1.23-4.11,3.15l-3.92,3.9C485.18,255.87,481.59,254.4,483.22,256.29Z"/><polygon class="cls-25" points="477.68 249.44 488.91 239.06 494.68 240.48 497.59 245.6 482.63 258.23 478.02 254.4 477.68 249.44"/><polygon class="cls-26" points="478.02 254.4 494.68 240.48 497.59 245.6 482.63 258.23 478.02 254.4"/><polygon class="cls-27" points="487.28 246.66 491.23 243.36 494.44 248.25 491.47 250.76 487.28 246.66"/><polygon class="cls-26" points="484.68 242.97 487.28 246.66 494.68 240.48 488.91 239.06 484.68 242.97"/><path class="cls-28" d="M497.59,250s-8.28,3.5-7.9,7.28c-.19,2.45,1.28,5.23,3.94,7.9s66.46,73.26,66.46,73.26,2.77,1.88,7.52,0c-1.73,1.9-4.25,4.08-4.25,4.08s-3.46,2.92-7.49-1.76L491.23,265.6l-7.29-8.48,11-10.06Z"/><polygon class="cls-29" points="494.98 247.06 487.63 256.74 499 274.65 483.94 257.12 494.98 247.06"/><polygon class="cls-30" points="485.56 257.57 496.77 249.09 494.98 247.06 483.94 257.12 484.88 258.23 485.56 257.57"/><polygon class="cls-31" points="433.22 189.59 437.48 186.5 485.78 241.96 482.1 245.36 433.22 189.59"/><polygon class="cls-32" points="431.44 190.88 480.25 247.06 479 248.22 430.29 191.72 431.44 190.88"/><polygon class="cls-8" points="439.17 185.27 487.63 240.37 486.66 241.14 437.99 186.15 439.17 185.27"/><polygon class="cls-31" points="385.17 134.52 389.21 131.22 432.25 180.63 428.3 183.74 385.17 134.52"/><polygon class="cls-32" points="383.45 135.93 426.45 185.41 425.47 186.34 382.58 136.57 383.45 135.93"/><polygon class="cls-8" points="390.62 130.07 434.22 179.31 433.24 180.09 389.72 130.8 390.62 130.07"/><polygon class="cls-33" points="439.17 185.27 439.76 185.94 487.63 240.37 479 248.22 430.29 191.72 439.17 185.27"/><polygon class="cls-33" points="393.4 132.78 393.98 133.45 441.86 187.88 433.22 195.74 384.51 139.23 393.4 132.78"/><polygon class="cls-34" points="393.11 132.78 393.69 133.45 387.34 141.09 402.77 160 384.63 138.94 393.11 132.78"/><polygon class="cls-35" points="424.8 186.5 435.26 178.26 440.37 184.41 429.39 192.37 424.8 186.5"/><polygon class="cls-36" points="425.39 186.03 430.14 189.43 439.66 183.56 440.37 184.41 429.39 192.37 424.8 186.5 425.39 186.03"/><polygon class="cls-37" points="378.51 134.17 388.98 125.93 394.09 132.08 383.11 140.04 378.51 134.17"/><polygon class="cls-36" points="379.11 133.71 383.86 137.1 393.38 131.23 394.09 132.08 383.11 140.04 378.51 134.17 379.11 133.71"/><path class="cls-3" d="M410.33,231.76l-.45-.89c12.78-6.5,16.9-34,18.88-47.26.41-2.75.73-4.93,1-6.37,1.88-8.81-4-31.81-8.2-35.6-4.71-3.56-5.06-12.34-5.07-12.71l1,0c0,.09.35,8.68,4.7,12,4.89,4.4,10.38,28,8.55,36.58-.3,1.41-.62,3.57-1,6.3C427.59,198.18,423.58,225,410.33,231.76Z"/><path class="cls-38" d="M405.07,122.07s5.19-4.64,9.39-4.71c1,.37,2.19,1.71,1.19,2,1.43,1.91,6.11,7.37,6.11,7.37s-1.41,3-8.35,5.43c-3.7,0-3,.79-3,.79l-8.19-9.17Z"/><path d="M567.61,259.62A64.59,64.59,0,1,1,503,324.2a64.66,64.66,0,0,1,64.59-64.58m0-28.35a92.94,92.94,0,1,0,92.93,92.93,92.94,92.94,0,0,0-92.93-92.93Z"/><path class="cls-7" d="M434.54,157a13.61,13.61,0,0,1-12.09-11c-2.31-10.55-1.8-20.07,17.75-28,2.31-2.57,9-5.66,10,0s4.37,37,3.6,41.41c-.77,1.8-5.92,3.09-6.95,0C441.74,158.27,434.54,157,434.54,157Z"/><path class="cls-39" d="M421.62,136.2s-1.11,4.42,9.57,3.49,11.11-1.62,11.37-4.1c.68,3.23,2.85,22,2.85,22l-10.31-2-10.74-7.76-2.78-7.38A23.16,23.16,0,0,1,421.62,136.2Z"/><path class="cls-39" d="M443.24,135.23s1.93,4.34,4.91,3.71c2.61-.49,3.76-2,4-5.22a225.07,225.07,0,0,1,1.77,23.86c-.05,1.23.73,2.45-2.94,3.58-.84.35-3.6.48-4.12-1.86S443.24,135.23,443.24,135.23Z"/><path class="cls-40" d="M421.76,135.23s.12-10.38,18.44-17.34c.56-.56,5.71-5.26,9.06-2.16-.86-.14-4.28-1.82-8.63,2.78C438,119.69,426,123.26,421.76,135.23Z"/><path class="cls-40" d="M442.2,123.59s-13,3.18-16,7.16c.31.8,16-3.11,16-3.11l.2-3.67-.06,5.53s-10.53,2.35-13.07,4.22c-.25,1.5,13.18-.8,13.18-.8l.36-4.53Z"/><path class="cls-40" d="M443.24,121.8s-1.06-4,2.17-4.41,4.35,3.11,4.35,3.11l1,9.07s1.05,5.49-1.06,5.66-4.41.24-4.84-.7S443.24,121.8,443.24,121.8Z"/><path class="cls-8" d="M442.15,119.4s-3.26,23.31-.72,30.41c-5.86-2.09-14.66,3.51-19.85-9.36-.37,2.24.82,11,7.17,14.61,3,1.78,6.86,3.27,18.13,4.24C446.06,156.68,442,124.66,442.15,119.4Z"/><path class="cls-32" d="M442.15,119.4s-.46,28.18,2.08,35.28c-5.85-2.09-17.46-1.36-22.65-14.23-.37,2.24.82,11,7.17,14.61,3,1.78,6.86,3.27,18.13,4.24C446.06,156.68,442,124.66,442.15,119.4Z"/><path class="cls-41" d="M445.47,150.43s0,.15.09.41c.4,1.67,2.11,8,5.16,8,1.13-.37,1.69-1,1.75-3s.49-15.12.11-18.45c.47,4.4,1.27,14.31,1.4,19.64,0,1.7.81,3-2,3.81-2.73,1.09-4.25.63-5.06-1.53C446.24,157,445.47,150.43,445.47,150.43Z"/><path class="cls-14" d="M578.67,330.06l-1.1,1.13a5.19,5.19,0,0,1-7.66-.22L394.4,127.37l7.9-6.46L578.87,321.64A6.21,6.21,0,0,1,578.67,330.06Z"/><path class="cls-42" d="M494.9,247.12l73.63,85.62a4.75,4.75,0,0,0,6.52.64l5.3-4.16a4.74,4.74,0,0,0,.63-6.87L506.67,237.9c-1.81-2.05-2.17,1.22-4.11,3.15l-3.93,3.9C496.87,246.7,493.28,245.24,494.9,247.12Z"/><polygon class="cls-25" points="489.37 240.28 500.6 229.9 506.36 231.31 509.27 236.44 494.31 249.06 489.7 245.24 489.37 240.28"/><polygon class="cls-26" points="489.7 245.24 506.36 231.31 509.27 236.44 494.31 249.06 489.7 245.24"/><polygon class="cls-25" points="498.96 237.5 502.91 234.2 506.13 239.09 503.16 241.6 498.96 237.5"/><polygon class="cls-21" points="496.37 233.81 498.96 237.5 502.91 234.2 498.34 231.98 496.37 233.81"/><path class="cls-43" d="M509.27,240.86s-8.28,3.5-7.9,7.27c-.19,2.46,1.29,5.24,3.95,7.91s66.45,73.25,66.45,73.25,2.77,1.89,7.52,0c-1.72,1.9-4.24,4.09-4.24,4.09s-3.46,2.92-7.49-1.77l-64.65-75.17L495.62,248l11.05-10.06Z"/><polygon class="cls-44" points="506.67 237.9 499.32 247.57 510.69 265.48 495.62 247.96 506.67 237.9"/><path class="cls-45" d="M502.55,249.06s-.64-2.77,4.67-4.14c3,2.79,68.71,78.14,68.71,78.14s4.71,3.59,1.88,4.16-6.41-1.7-6.41-1.7Z"/><polygon class="cls-46" points="497.24 248.41 508.45 239.93 506.67 237.9 495.62 247.96 496.57 249.06 497.24 248.41"/><path class="cls-47" d="M499.47,245.12l4.84-4.41,1.15-.2.17,1-5.13,4.28S499.12,246.6,499.47,245.12Z"/><polygon class="cls-47" points="501.89 244.4 502.91 243.27 573.54 323.43 501.89 244.4"/><polygon class="cls-38" points="444.91 180.43 449.16 177.34 497.46 232.79 493.79 236.19 444.91 180.43"/><polygon class="cls-32" points="443.13 181.72 491.94 237.9 490.68 239.06 441.98 182.56 443.13 181.72"/><polygon class="cls-8" points="450.86 176.11 499.32 231.2 498.34 231.98 449.68 176.99 450.86 176.11"/><polygon class="cls-38" points="396.85 125.36 400.89 122.06 443.93 171.47 439.99 174.58 396.85 125.36"/><polygon class="cls-32" points="395.13 126.77 438.13 176.25 437.16 177.17 394.26 127.4 395.13 126.77"/><polygon class="cls-8" points="402.3 120.91 445.9 170.15 444.93 170.92 401.41 121.64 402.3 120.91"/><polygon class="cls-34" points="450.86 176.11 451.45 176.78 445.09 184.42 460.14 203.63 441.98 182.56 450.86 176.11"/><polygon class="cls-34" points="404.79 123.62 405.38 124.29 399.03 131.93 414.46 150.83 396.31 129.78 404.79 123.62"/><polygon class="cls-21" points="436.48 177.34 446.95 169.09 452.05 175.24 441.08 183.21 436.48 177.34"/><polygon class="cls-36" points="437.08 176.87 441.82 180.27 451.35 174.4 452.05 175.24 441.08 183.21 436.48 177.34 437.08 176.87"/><polygon class="cls-21" points="390.2 125.01 400.67 116.77 405.77 122.92 394.8 130.88 390.2 125.01"/><polygon class="cls-36" points="390.8 124.54 395.54 127.94 405.07 122.06 405.77 122.92 394.8 130.88 390.2 125.01 390.8 124.54"/><path class="cls-8" d="M405.33,124.35s5.17-4.62,10.32-4.95a46.17,46.17,0,0,0-9.76,5.56C405.72,124.75,405.33,124.35,405.33,124.35Z"/><path class="cls-8" d="M412.3,117.74s2,0,1.74,1.9c.83,1.45,6.35,7.21,6.35,7.21l1.37-.08-6.11-7.37s.92-.25,0-1.22C415,117.5,414.51,116.83,412.3,117.74Z"/><path class="cls-8" d="M406,121.28s-.3,2.26,1.22,2.31c.75,1,5.94,6.64,5.94,6.64L412.13,132l-7.39-8.35-.23-1.25Z"/><polygon class="cls-48" points="547.51 331.06 568.53 332.74 524.18 281.17 511.66 286.12 514.37 292.51 547.51 331.06"/><path class="cls-46" d="M413.41,132.2s-2,.58-1.11-1,3.79-4.09,8.54-4.76c.41,0,1.52-.06.38,1.07a15.78,15.78,0,0,1-6.18,4C414.28,131.88,413.41,132.2,413.41,132.2Z"/><path class="cls-49" d="M407.88,120.36s-.28,1.09.6.92a34.12,34.12,0,0,0,3.82-1.56s.43-1.64-.73-1.43S407.88,120.36,407.88,120.36Z"/><path class="cls-49" d="M410.11,122.58a5.53,5.53,0,0,1,2.66-1.28c1.1,1.18,5.1,5.89,5.1,5.89a22.14,22.14,0,0,0-2.85,1.4C413.87,127.1,410.11,122.58,410.11,122.58Z"/><path class="cls-50" d="M165.93,252.48s-1.53-17,5.27-22.59a22.59,22.59,0,0,0,.83,6.3l-3.13,18.49Z"/><polygon class="cls-51" points="495.62 270.71 499.41 256.06 493.8 251.34 496.77 249.09 505.63 259.6 504.45 269.21 495.62 270.71"/><polygon class="cls-52" points="520.38 300.54 546.21 306.96 523.21 280.04 516.57 285.82 514.37 292.51 520.38 300.54"/><path d="M121.25,338.94v-3.67l13.63-8L302.73,226.84l93.19-55.92s4.67-10.93-.86-19.45c-4.13-5.49-9.7-13.54-9.7-13.54l4.84-3.61,40.09,47.85-7.37,5.8s-4.22-6.29-5.05-3.63-9.76,95.7-9.76,95.7l-6.38-11.31,5.62-83.41s-1.31-10.73-8.73-6.52S128.16,338.94,128.16,338.94,122.13,342.26,121.25,338.94Z"/><path class="cls-53" d="M100.7,254.05s49.91-5.05,85.39,18.74c4.83,2.39,13.08,16.32,9,18.72,8.16-1.53,8.29-4.88,8.29-4.88L184.53,259.9l-35.79-15Z"/><polygon class="cls-35" points="387.09 167.77 388.32 173.94 394.8 169.28 393.81 165.97 387.09 167.16 387.09 167.77"/><circle class="cls-54" cx="393.81" cy="167.77" r="1.8"/><circle class="cls-35" cx="393.78" cy="167.89" r="1.28"/><circle class="cls-55" cx="393.84" cy="167.66" r="1.28"/><path class="cls-56" d="M384.4,149.48l-1.53.66-1.18-6.62a8.25,8.25,0,0,0-.47-1.61c-1.76-4.29-10.51-22.69-27.17-12.13-18.79,11.91-50.11,51.81-62.64,91-1.84,3.45,4.94,12.84,4.94,12.84l91.31-56.82,1.66-1Z"/><polygon points="422.92 187.97 422.51 189 421.76 190.88 424.8 193.22 426.22 194.55 441.08 183.21 437.2 178.26 430.29 182.17 422.92 187.97"/><path class="cls-57" d="M292.11,234.88s-.18-10.45-6.38-8-48.79,23.43-55,27.37c-3.38.75-10.51,5.63-14.55-1.69s-20.73-40.72-20.73-40.72-3.95-7.32-19.52,0-37.72,18-49.17,19.51c-10.13,1.7-21.58,2.07-25-7.69S12.49,1.43,12.49,1.43,5.36-1.39,5.36,3.87c1.13,6,79.19,239.83,79.19,239.83s1.37,11.93,23.4,8.5c6.83-1,42-3.21,73.38,13.67,3.56,2.81,13.95,13.3,16.39,17.81,1.9.71,1.31,7.13,16.14-1.32C226.06,274.67,292.11,234.88,292.11,234.88Z"/><path class="cls-58" d="M219.08,263.93a7.22,7.22,0,0,1-3-.6,5.31,5.31,0,0,1-3-3.31c-.09-.19-12.11-27.14-17.78-40.27-1.86-4.31-4.26-6.88-7.12-7.63a8.89,8.89,0,0,0-6.9,1.48c-1.8,1-42.77,23.66-53.55,27.07-20.6,4.05-30-5.18-30.38-5.58l-.11-.17L8.85,2.8l.93-.35,88.36,232c.9.83,10.29,9,29.35,5.24,10.63-3.37,52.83-26.69,53.26-26.93a9.67,9.67,0,0,1,7.7-1.61c3.17.82,5.79,3.58,7.78,8.2,5.67,13.12,17.68,40.07,17.8,40.34a4.41,4.41,0,0,0,2.47,2.73c2.42,1.08,6.13.38,10.72-2,11.93-6.22,58.66-31.82,59.13-32.07l.48.87c-.47.26-47.21,25.86-59.15,32.09C224.32,263.05,221.44,263.93,219.08,263.93Z"/><path class="cls-59" d="M5.36,3.87S90.29,237.48,94.68,246c3.62,1.39,19.12,4.31,37.12,1,7.53-.45,52.19-5.75,65.86,23.65,5.23,6.47,13.68,8.24,22.93,3.94S291.09,232,291.09,232l-.78-3.89-66.56,34.4s-6.37,6-12-6.59-18-40-18-40-2.13-8.42-17.78,0-48.44,24.26-48.44,24.26-19,3.5-29.87-5.45C91.64,218.79,9.31.67,9.31.67Z"/><path class="cls-60" d="M167.81,252.64s3.11-13.81,4.22-16.45c-.45,6.89-2,13.1,0,17.53s4.29,8.77,4.29,8.77,2.8-10.33,6.57-13.43a21.4,21.4,0,0,0,5.31-6.2,16.31,16.31,0,0,1-5.09,8.83c-3.11,4.25-1.28,14.54-.23,15.5s3.77.5,7.54,4.93,8,10.86,10,10.64,14-14.91,13.18-22.86c1.76,1.67-1.85,14.7-7.19,20.64s-4.77,6.82-4.77,6.82-6.65-7.79-10.69-12.18-8.56-10.55-25.7-16.34a145.35,145.35,0,0,0-32.43-6.77c-7.31-.46-26.64,2.07-34.12.57s-12.27-3.06-13.62-7.28c5,2.16,18,8.93,40.65,4,12.42-.06,15.24-2.19,22.25-1.13-1-1.8-4.39-3.92-2.24-7.08,1.49,2.39,3.49,7.33,8.14,9.62C156.29,251.73,167.81,252.64,167.81,252.64Z"/><path d="M224.51,384.45c-15.85,0-23.55-5.34-25.7-7.14L124,339.06l3.88-7.58,75.85,38.79.46.46s7.44,6.57,26.27,4.95c21-1.81,158.72-27.91,160.11-28.17l.07,0c1.07-.89,8.39-8.7,8.84-56l8.5.08c-.32,34.57-4.19,55.47-11.5,62.13a7.87,7.87,0,0,1-4.6,2.23c-8.73,1.66-139.55,26.41-160.68,28.24C228.83,384.36,226.6,384.45,224.51,384.45Z"/><polyline class="cls-61" points="123.16 333.81 300.86 229.31 300.86 233.03 125.63 335.27 121.49 333.69"/><path class="cls-62" d="M360.56,37.22a20.66,20.66,0,0,1,0,5.33,5.93,5.93,0,0,1-1.84,3.05s-13.31,6-17.18,11.46c-.19.62.57,2-.65,2.7s-2.84,0-2.19-1.56,6.35-7.6,11.1-10.5c2.19-1.23,6.53-3.31,7.08-4.71.26-1.06.2-4.28-.3-5.11A10.54,10.54,0,0,1,360.56,37.22Z"/><path class="cls-5" d="M341.56,57.06s.93-2.9,7.25-7.13L358,45a4.76,4.76,0,0,0,1.86-3.14,15.88,15.88,0,0,0,0-2.31l.86-1.14s.15,4.47-.74,5.67S359.13,45.54,356,47,351.29,49,344.45,54A39.65,39.65,0,0,0,341.56,57.06Z"/><path class="cls-6" d="M344,52.64a38.32,38.32,0,0,1,7.14-5.39,31,31,0,0,0,5.92-3.77,3.3,3.3,0,0,0,.48-2.77,2.66,2.66,0,0,1-.72,3.86A151.45,151.45,0,0,0,344,52.64Z"/><path class="cls-7" d="M355.65,41.25s11.75-9.4,17.75,9.66c6.06,19.26,15.58,75,15.58,75l7.17-5.59s-15.8-77.93-17.64-80.58S372.13,26.85,359.2,32s-11.67,4.38-11.67,4.38Z"/><path class="cls-3" d="M317.78,49.8l26.68-13.42s6.05,1.51,5.1,7.75c-6.61,3.4-25.62,14-25.62,14S316.81,57.17,317.78,49.8Z"/><path class="cls-3" d="M343,39.3s-2.18-6.06,2.94-7.94c4.64-1.71,9,4,9.65,9s-4.51,9.17-9,4.27C343.51,41.38,343,39.3,343,39.3Z"/><path class="cls-3" d="M359.2,32s3.54,5.06,2.92,7.11-6.46,3-6.46,3a12,12,0,0,0-3.7-9C353,31.63,357.7,29.56,359.2,32Z"/><path class="cls-3" d="M356.12,37.52s2.46,2.23,3.14,2.24,2.37-1.63,1.93-3S356.12,37.52,356.12,37.52Z"/><path class="cls-8" d="M354.24,34s3.34,3.16,5,3.16,8.14-.64,10.47,2.85c6.23,5.32,21.06,84.56,21.06,84.56L389,125.93s-13.11-76.32-20-83.52c-.55-1.21-3.33-5-9.68-2.65s-5,1.81-5,1.81L352,34.85Z"/><path class="cls-6" d="M348,32.39s-.27-1.14.71-.81,5.13,1.85,6.27,8.51c.22.65-.43.87-.54.27S353.9,35.12,348,32.39Z"/><path class="cls-9" d="M319,50.07s2.73,3.15,4.2,3.22c1.09.05,24.79-12.38,24.79-12.38s1-1.59-1.71-3.39c1,.34,3.81,1.68,1.88,5.56-1.12.66-24,12.72-24,12.72Z"/><ellipse class="cls-6" cx="339.49" cy="58.89" rx="0.5" ry="0.78"/><ellipse class="cls-6" cx="321.33" cy="54.34" rx="1.73" ry="4.37" transform="translate(26.26 192.69) rotate(-34.72)"/><path class="cls-10" d="M353.51,34.39c-.23-.31-.47-.6-.72-.88a10.29,10.29,0,0,1,.76.87ZM356,41.25h0a6,6,0,0,1,0,.83s.58-.09,1.38-.27a6.37,6.37,0,0,1-.13,1.18,7.17,7.17,0,0,1-2.75,2.31A6.14,6.14,0,0,0,356,41.25Z"/><path class="cls-8" d="M359.91,33.09s9.7-2,14.9,3.39a70.53,70.53,0,0,1,5.2,14.3c1.1,4.66,14.53,70.81,14.53,70.81l1.61-1.25s-13.24-64.68-15.44-72.63-2.17-11.29-10.86-16.66c-3.07-1.45-10.65.95-10.65.95Z"/><path class="cls-11" d="M360.68,34.39s12.7-.12,15.15,6.86c2,7.09,17.79,81.07,17.79,81.07L392,123.59l-17.7-82.34s-2.37-4.15-13.05-5.73Z"/><polygon class="cls-12" points="385.98 109.36 390.64 118.27 395.32 116.1 396.15 120.34 388.98 125.93 385.98 109.36"/><path class="cls-63" d="M195.1,301.5s7.39-2.41,11.57.71c2.17,2.86,8.28,22.19,5.77,45.7,1.34.93,3.06,2.81,2.72-1.26s3.89-15.74-1.67-33.19c-2.73-8.34-4.73-14.25-8.3-20.17L194,299.89Z"/><path class="cls-64" d="M92.71,272s-6.28.1-15.62-7.55c-3.27,1-1.87,1-1.87,1s4.13,6.95,14.39,7.6C93.52,273.3,92.71,272,92.71,272Z"/><polygon class="cls-65" points="280.22 254.23 309.59 304.16 321.88 308.9 338.54 300.9 341.67 288.57 322.96 233.25 317.61 233.93 283.05 250.51 280.22 254.23"/><rect class="cls-66" x="279.52" y="246.4" width="46.9" height="0.81" transform="translate(-76.94 155.29) rotate(-25.62)"/><rect class="cls-66" x="280.38" y="248.04" width="46.64" height="0.81" transform="translate(-77.57 155.76) rotate(-25.62)"/><rect class="cls-66" x="281.3" y="249.53" width="46.2" height="0.81" transform="translate(-78.15 156.21) rotate(-25.62)"/><rect class="cls-66" x="282.24" y="251.17" width="45.87" height="0.81" transform="translate(-78.78 156.71) rotate(-25.62)"/><rect class="cls-66" x="283.18" y="252.81" width="45.51" height="0.81" transform="translate(-79.42 157.2) rotate(-25.62)"/><rect class="cls-66" x="284.11" y="254.45" width="45.13" height="0.81" transform="translate(-80.05 157.68) rotate(-25.62)"/><rect class="cls-66" x="284.98" y="255.91" width="44.86" height="0.81" transform="translate(-80.61 158.14) rotate(-25.62)"/><rect class="cls-66" x="285.84" y="257.6" width="44.51" height="0.81" transform="translate(-81.28 158.6) rotate(-25.62)"/><rect class="cls-66" x="286.59" y="259.24" width="44.54" height="0.81" transform="translate(-81.91 159.09) rotate(-25.62)"/><rect class="cls-66" x="287.45" y="260.88" width="44.29" height="0.81" transform="translate(-82.55 159.57) rotate(-25.62)"/><rect class="cls-66" x="288.36" y="262.36" width="43.86" height="0.81" transform="translate(-83.12 160.02) rotate(-25.62)"/><rect class="cls-66" x="289.29" y="264" width="43.55" height="0.81" transform="translate(-83.75 160.52) rotate(-25.62)"/><rect class="cls-66" x="290.23" y="265.65" width="43.22" height="0.81" transform="translate(-84.39 161.01) rotate(-25.62)"/><rect class="cls-66" x="291.14" y="267.28" width="42.85" height="0.81" transform="translate(-85.02 161.49) rotate(-25.62)"/><rect class="cls-66" x="292.01" y="268.75" width="42.6" height="0.81" transform="translate(-85.58 161.95) rotate(-25.62)"/><rect class="cls-66" x="292.86" y="270.43" width="42.26" height="0.81" transform="translate(-86.24 162.41) rotate(-25.62)"/><rect class="cls-66" x="294.06" y="272.05" width="41.54" height="0.81" transform="translate(-86.86 162.93) rotate(-25.62)"/><rect class="cls-66" x="294.9" y="273.68" width="41.31" height="0.81" transform="translate(-87.49 163.41) rotate(-25.62)"/><rect class="cls-66" x="295.8" y="275.17" width="40.91" height="0.81" transform="translate(-88.07 163.86) rotate(-25.62)"/><rect class="cls-66" x="296.72" y="276.81" width="40.63" height="0.81" transform="translate(-88.7 164.36) rotate(-25.62)"/><rect class="cls-66" x="297.65" y="278.45" width="40.31" height="0.81" transform="translate(-89.34 164.85) rotate(-25.62)"/><rect class="cls-66" x="298.56" y="280.08" width="39.97" height="0.81" transform="translate(-89.97 165.33) rotate(-25.62)"/><rect class="cls-66" x="299.41" y="281.55" width="39.73" height="0.81" transform="translate(-90.53 165.79) rotate(-25.62)"/><rect class="cls-66" x="300.26" y="283.23" width="39.42" height="0.81" transform="translate(-91.19 166.26) rotate(-25.62)"/><rect class="cls-66" x="301.41" y="284.94" width="38.39" height="0.81" transform="translate(-91.87 166.7) rotate(-25.62)"/><rect class="cls-66" x="302.25" y="286.57" width="38.18" height="0.81" transform="translate(-92.5 167.18) rotate(-25.62)"/><rect class="cls-66" x="303.14" y="288.06" width="37.81" height="0.81" transform="translate(-93.07 167.63) rotate(-25.62)"/><rect class="cls-66" x="304.05" y="289.69" width="37.55" height="0.81" transform="translate(-93.71 168.13) rotate(-25.62)"/><rect class="cls-66" x="304.96" y="291.34" width="37.25" height="0.81" transform="translate(-94.34 168.62) rotate(-25.62)"/><rect class="cls-66" x="305.86" y="292.97" width="36.94" height="0.81" transform="translate(-94.97 169.1) rotate(-25.62)"/><rect class="cls-66" x="307.55" y="296.12" width="36.43" height="0.81" transform="translate(-96.19 170.03) rotate(-25.62)"/><rect class="cls-66" x="306.71" y="294.44" width="36.72" height="0.81" transform="translate(-95.54 169.56) rotate(-25.62)"/><polygon class="cls-67" points="288.4 249.5 320.46 308.35 325.49 307.17 293.67 246.97 288.4 249.5"/><polygon class="cls-67" points="313.18 237.62 339 299.46 334.93 302.64 307.9 240.14 313.18 237.62"/><rect class="cls-68" x="305.51" y="243.82" width="3.16" height="68.39" transform="translate(-94.98 178.31) rotate(-28.23)"/><rect class="cls-68" x="322.18" y="235.83" width="3.16" height="68.39" transform="translate(-79.63 147.5) rotate(-22.93)"/><path class="cls-69" d="M317.18,230.26l-11.08.88a.81.81,0,0,0-.72,1l.53,2.17a.8.8,0,0,1-.44.92l-6.8,3.2-1,6.61L319,234.78a.82.82,0,0,0,.38-1.08l-1.43-3A.83.83,0,0,0,317.18,230.26Z"/><path class="cls-70" d="M291.77,241.67a.83.83,0,0,1-.91-.15l-1.79-1.74a.82.82,0,0,0-1.15,0L281.05,247a.8.8,0,0,0-.14.91l1.65,3.44a.8.8,0,0,0,1.08.38l14-6.71,1-6.61Z"/><line class="cls-71" x1="298.75" y1="238.39" x2="297.54" y2="245.08"/><polygon class="cls-68" points="281.05 247.02 278.31 251.62 279.74 254.59 283.64 251.75 281.05 247.02"/><polygon class="cls-68" points="317.18 230.26 321.78 230.78 323.2 233.74 318.54 235.01 317.18 230.26"/><path class="cls-68" d="M310.05,236.14a1.24,1.24,0,0,1-1.12-.7,1.24,1.24,0,1,1,2.24-1.07,1.24,1.24,0,0,1-.58,1.65A1.29,1.29,0,0,1,310.05,236.14Zm0-2.2a1,1,0,0,0-.41.1.93.93,0,1,0,.41-.1Z"/><polygon class="cls-72" points="288.37 245.3 287.57 244.65 288.25 244.14 289.13 244.27 289.49 244.76 289.57 245.45 288.54 245.33 288.37 245.3"/><path class="cls-68" d="M288.5,246.48a1.23,1.23,0,0,1-.42-.07,1.21,1.21,0,0,1-.7-.63,1.24,1.24,0,0,1,.58-1.66,1.24,1.24,0,1,1,1.07,2.24A1.24,1.24,0,0,1,288.5,246.48Zm0-2.2a.88.88,0,0,0-.41.1,1,1,0,0,0-.45,1.27.92.92,0,0,0,.55.49.93.93,0,0,0,.73,0,.95.95,0,0,0,.45-1.27A1,1,0,0,0,288.49,244.28Z"/><circle class="cls-68" cx="288.5" cy="245.24" r="0.29"/><polygon class="cls-72" points="309.93 234.96 309.12 234.31 309.8 233.8 310.69 233.93 311.04 234.43 311.13 235.11 310.1 235 309.93 234.96"/><path class="cls-68" d="M310.05,236.14a1.24,1.24,0,0,1-1.12-.7,1.24,1.24,0,1,1,2.24-1.07,1.24,1.24,0,0,1-.58,1.65A1.29,1.29,0,0,1,310.05,236.14Zm0-2.2a1,1,0,0,0-.41.1.93.93,0,1,0,.41-.1Z"/><circle class="cls-68" cx="310.05" cy="234.9" r="0.29"/><circle class="cls-68" cx="310.05" cy="234.9" r="0.29"/><path class="cls-68" d="M281.92,250.36a2.58,2.58,0,0,0,2.42.62c1.22-.5,35.14-16.86,35.14-16.86l.27.56a28.26,28.26,0,0,0-2.95,1.21c-1.09.57-32.65,15.62-32.65,15.62s-1,.62-1.86,1.22-1.63-.49-1.63-.49Z"/><path class="cls-73" d="M291.31,252s-.54-1.83.48-2.39c.78-.44,2,.39,2.37,1l-1.65-3.07-2.85,1.37Z"/><path class="cls-73" d="M310.51,242.75s-.36-1.9.66-2.46c.78-.45,1.85.45,2.19,1.09-.91-2.08-1.36-3.2-1.36-3.2l-2.85,1.36Z"/><path class="cls-70" d="M291.17,250.83s-.13-1.17.62-1.27a2,2,0,0,1,1.1.09l30.79,58.28-.84.45Z"/><path class="cls-70" d="M310.37,241.52s0-1.18.74-1.2a2,2,0,0,1,1.09.19l25.1,60.94-.87.37Z"/><polygon class="cls-67" points="280.76 255.34 289.23 251.02 288.4 249.5 284.15 251.51 280.22 254.23 280.76 255.34"/><polygon class="cls-67" points="293.67 246.97 307.9 240.14 308.46 241.42 294.37 248.29 293.67 246.97"/><polygon class="cls-67" points="313.18 237.62 317.81 235.43 319.87 234.65 323.04 233.78 323.2 233.74 323.58 235.09 313.45 239.14 313.18 237.62"/><polygon class="cls-74" points="303.74 266.37 316.03 275.26 316.58 260.21 327.64 283.5 335.63 302.13 325.49 307.17 303.74 266.37"/><polygon class="cls-74" points="322.36 260.56 337.74 276.68 341.67 288.57 338.54 300.9 322.36 260.56"/><polygon class="cls-74" points="300.19 269.63 301.98 291.21 309.59 304.16 321.88 308.9 300.19 269.63"/><polygon class="cls-65" points="354.94 229.31 344.06 286.21 350.16 297.87 367.96 302.87 378.45 295.66 400.9 241.75 396.43 238.74 359.52 228.38 354.94 229.31"/><rect class="cls-66" x="353.48" y="238.34" width="46.9" height="0.81" transform="matrix(0.96, 0.27, -0.27, 0.96, 78.51, -92.94)"/><rect class="cls-66" x="353.07" y="240.05" width="46.64" height="0.81" transform="translate(78.95 -92.74) rotate(15.67)"/><rect class="cls-66" x="352.84" y="241.63" width="46.2" height="0.81" transform="translate(79.36 -92.55) rotate(15.67)"/><rect class="cls-66" x="352.51" y="243.38" width="45.87" height="0.81" transform="translate(79.81 -92.35) rotate(15.67)"/><rect class="cls-66" x="352.17" y="245.12" width="45.51" height="0.81" transform="translate(80.26 -92.15) rotate(15.67)"/><rect class="cls-66" x="351.84" y="246.83" width="45.13" height="0.81" transform="translate(80.7 -91.94) rotate(15.67)"/><rect class="cls-66" x="351.56" y="248.42" width="44.86" height="0.81" transform="translate(81.12 -91.78) rotate(15.67)"/><rect class="cls-66" x="351.13" y="250.13" width="44.51" height="0.81" transform="translate(81.56 -91.55) rotate(15.67)"/><rect class="cls-66" x="350.61" y="251.88" width="44.54" height="0.81" transform="translate(82.01 -91.35) rotate(15.67)"/><rect class="cls-66" x="350.21" y="253.59" width="44.29" height="0.81" transform="translate(82.45 -91.14) rotate(15.67)"/><rect class="cls-66" x="349.96" y="255.16" width="43.86" height="0.81" transform="translate(82.86 -90.96) rotate(15.67)"/><rect class="cls-66" x="349.62" y="256.91" width="43.55" height="0.81" transform="translate(83.32 -90.76) rotate(15.67)"/><rect class="cls-66" x="349.28" y="258.65" width="43.22" height="0.81" transform="matrix(0.96, 0.27, -0.27, 0.96, 83.77, -90.56)"/><rect class="cls-66" x="348.94" y="260.36" width="42.85" height="0.81" transform="translate(84.21 -90.35) rotate(15.67)"/><rect class="cls-66" x="348.65" y="261.95" width="42.6" height="0.81" transform="translate(84.62 -90.18) rotate(15.67)"/><rect class="cls-66" x="348.22" y="263.67" width="42.26" height="0.81" transform="translate(85.06 -89.95) rotate(15.67)"/><rect class="cls-66" x="348.14" y="265.43" width="41.54" height="0.81" transform="translate(85.52 -89.77) rotate(15.67)"/><rect class="cls-66" x="347.73" y="267.14" width="41.31" height="0.81" transform="matrix(0.96, 0.27, -0.27, 0.96, 85.97, -89.56)"/><rect class="cls-66" x="347.47" y="268.72" width="40.91" height="0.81" transform="translate(86.38 -89.38) rotate(15.67)"/><rect class="cls-66" x="347.12" y="270.47" width="40.63" height="0.81" transform="translate(86.83 -89.18) rotate(15.67)"/><rect class="cls-66" x="346.77" y="272.21" width="40.31" height="0.81" transform="translate(87.28 -88.98) rotate(15.67)"/><rect class="cls-66" x="346.42" y="273.92" width="39.97" height="0.81" transform="translate(87.72 -88.78) rotate(15.67)"/><rect class="cls-66" x="346.12" y="275.51" width="39.73" height="0.81" transform="translate(88.14 -88.61) rotate(15.67)"/><rect class="cls-66" x="345.69" y="277.23" width="39.42" height="0.81" transform="translate(88.58 -88.38) rotate(15.67)"/><rect class="cls-66" x="345.55" y="278.93" width="38.39" height="0.81" transform="translate(89.02 -88.14) rotate(15.67)"/><rect class="cls-66" x="345.13" y="280.65" width="38.18" height="0.81" transform="translate(89.46 -87.94) rotate(15.67)"/><rect class="cls-66" x="344.87" y="282.22" width="37.81" height="0.81" transform="matrix(0.96, 0.27, -0.27, 0.96, 89.87, -87.76)"/><rect class="cls-66" x="344.5" y="283.97" width="37.55" height="0.81" transform="translate(90.32 -87.56) rotate(15.67)"/><rect class="cls-66" x="344.14" y="285.71" width="37.25" height="0.81" transform="translate(90.77 -87.36) rotate(15.67)"/><rect class="cls-66" x="343.78" y="287.42" width="36.94" height="0.81" transform="translate(91.22 -87.15) rotate(15.67)"/><rect class="cls-66" x="343.03" y="290.73" width="36.43" height="0.81" transform="translate(92.07 -86.76) rotate(15.67)"/><rect class="cls-66" x="343.47" y="289.01" width="36.72" height="0.81" transform="translate(91.63 -86.98) rotate(15.67)"/><polygon class="cls-67" points="364.2 231.15 349.46 296.53 354.01 298.95 369.83 232.73 364.2 231.15"/><polygon class="cls-67" points="390.67 238.57 369.25 302.08 364.1 301.78 385.03 237 390.67 238.57"/><rect class="cls-68" x="357.85" y="230.72" width="3.16" height="68.39" transform="translate(69.2 -74.4) rotate(13.07)"/><rect class="cls-68" x="375.65" y="235.71" width="3.16" height="68.39" transform="translate(104.22 -105.09) rotate(18.36)"/><path class="cls-69" d="M398.53,235.7,389.62,229a.8.8,0,0,0-1.2.28l-1,2a.81.81,0,0,1-.95.41l-7.22-2.09-5.14,4.29,22.85,6.41a.81.81,0,0,0,1-.56l.89-3.19A.79.79,0,0,0,398.53,235.7Z"/><path class="cls-70" d="M371.91,227.5a.82.82,0,0,1-.59-.72l-.2-2.49a.81.81,0,0,0-.88-.74l-9.92.89a.8.8,0,0,0-.7.59l-1,3.68a.81.81,0,0,0,.56,1l14.94,4.19,5.14-4.29Z"/><line class="cls-71" x1="379.32" y1="229.64" x2="373.99" y2="233.87"/><polygon class="cls-68" points="360.32 224.44 355.23 226.09 354.34 229.26 359.14 229.71 360.32 224.44"/><polygon class="cls-68" points="398.53 235.69 401.64 239.11 400.75 242.28 396.41 240.16 398.53 235.69"/><path class="cls-68" d="M390.11,235.72a1.27,1.27,0,0,1-1.09-.64,1.23,1.23,0,0,1-.11-.94,1.25,1.25,0,0,1,1.53-.86,1.24,1.24,0,0,1,.27,2.28A1.25,1.25,0,0,1,390.11,235.72Zm0-2.2a1,1,0,0,0-.26,1.88,1,1,0,0,0,1.18-.67,1,1,0,0,0-.66-1.18Z"/><polygon class="cls-72" points="366.96 227.98 366.78 226.96 367.63 227.03 368.21 227.71 368.15 228.31 367.76 228.88 367.06 228.12 366.96 227.98"/><path class="cls-68" d="M367.09,229.26a1.33,1.33,0,0,1-.34,0,1.23,1.23,0,0,1-.74-.58,1.22,1.22,0,0,1,.47-1.69,1.19,1.19,0,0,1,.94-.12,1.24,1.24,0,0,1,.86,1.53,1.22,1.22,0,0,1-.58.75A1.32,1.32,0,0,1,367.09,229.26Zm0-2.2a1,1,0,0,0-.92.7.94.94,0,0,0,.66,1.18.94.94,0,0,0,.73-.09,1,1,0,0,0-.21-1.75A.82.82,0,0,0,367.09,227.06Z"/><circle class="cls-68" cx="367.09" cy="228.02" r="0.29"/><polygon class="cls-72" points="389.97 234.44 389.8 233.42 390.64 233.48 391.23 234.17 391.17 234.77 390.78 235.34 390.08 234.57 389.97 234.44"/><path class="cls-68" d="M390.11,235.72a1.27,1.27,0,0,1-1.09-.64,1.23,1.23,0,0,1-.11-.94,1.25,1.25,0,0,1,1.53-.86,1.24,1.24,0,0,1,.27,2.28A1.25,1.25,0,0,1,390.11,235.72Zm0-2.2a1,1,0,0,0-.26,1.88,1,1,0,0,0,1.18-.67,1,1,0,0,0-.66-1.18Z"/><circle class="cls-68" cx="390.11" cy="234.47" r="0.29"/><circle class="cls-68" cx="390.11" cy="234.47" r="0.29"/><path class="cls-68" d="M358.77,227.52s.16,1.63,1.41,2.06,37.52,10.53,37.52,10.53l-.16.6a27.58,27.58,0,0,0-3-1c-1.2-.3-34.83-9.82-34.83-9.82s-1.19-.21-2.2-.31-.91-1.45-.91-1.45Z"/><path class="cls-73" d="M364.77,234.92s.81-1.73,1.94-1.48c.88.18,1.27,1.63,1.1,2.33l.79-3.39-3-.85Z"/><path class="cls-73" d="M385.27,240.67s1-1.66,2.12-1.41c.88.18,1.09,1.56.93,2.26.68-2.16,1.09-3.3,1.09-3.3l-3.05-.86Z"/><path class="cls-70" d="M365.41,234s.67-1,1.3-.54a2,2,0,0,1,.77.8l-15.32,64.1-.93-.22Z"/><path class="cls-70" d="M386,239.66s.76-.9,1.34-.42a2,2,0,0,1,.7.87l-21.35,62.35-.91-.3Z"/><polygon class="cls-67" points="354.61 230.5 363.82 232.84 364.2 231.15 359.69 229.86 354.94 229.31 354.61 230.5"/><polygon class="cls-67" points="369.83 232.73 385.03 237 384.61 238.32 369.49 234.18 369.83 232.73"/><polygon class="cls-67" points="390.67 238.57 395.58 239.99 397.64 240.76 400.6 242.2 400.75 242.28 400.15 243.55 389.86 239.9 390.67 238.57"/><polygon class="cls-74" points="364.6 253.95 367.97 268.74 378.31 257.79 371.25 282.6 364.96 301.87 354.01 298.95 364.6 253.95"/><polygon class="cls-74" points="382.42 261.87 383.34 284.13 378.45 295.66 367.96 302.87 382.42 261.87"/><polygon class="cls-74" points="359.78 254.06 346.88 271.45 344.06 286.21 350.16 297.87 359.78 254.06"/><path class="cls-75" d="M253.46,376.12a5.67,5.67,0,0,1-.17-11.34c4.64-.14,113.73-3.52,121.82-3.52a17.52,17.52,0,0,0,7.8-1.58c14-25.62,29.23-54.14,30.77-58.19a10.53,10.53,0,0,0,.15-2.67l-27.16-34.57a5.67,5.67,0,1,1,8.92-7l28,35.69a5.55,5.55,0,0,1,1,1.9,19.7,19.7,0,0,1,.11,9.22c-.8,3.78-18.15,36-32.56,62.35a5.74,5.74,0,0,1-1.39,1.67c-.57.47-5.83,4.52-15.66,4.52-7.91,0-120.33,3.48-121.47,3.51Zm160.17-74.41Z"/><path class="cls-17" d="M262.91,367.24l114.27-2.19s6.69-.82,9-4.29,31.72-61,31.72-61a7.62,7.62,0,0,0-.82-4.51c-1.22-2.48-27.48-37.73-27.48-37.73l29.56,35.16s4.25,4.79-1.26,14.18-28,54.51-28,54.51-3.07,6.95-12.77,6.95-114.27,3.26-114.27,3.26Z"/><ellipse class="cls-76" cx="254.71" cy="370.68" rx="9.19" ry="6.49" transform="translate(-47.59 37.67) rotate(-7.74)"/><path class="cls-77" d="M253.83,377.37a10.81,10.81,0,0,1-5-1.15,5.8,5.8,0,0,1-3.36-4.29c-.49-3.62,3.26-7.13,8.36-7.82a11.39,11.39,0,0,1,6.78,1,5.83,5.83,0,0,1,3.36,4.29c.49,3.62-3.26,7.13-8.36,7.83A13.38,13.38,0,0,1,253.83,377.37Zm1.76-13.1a12.94,12.94,0,0,0-1.74.12c-4.94.67-8.58,4-8.11,7.5A5.57,5.57,0,0,0,249,376a11.14,11.14,0,0,0,6.61,1c4.95-.67,8.59-4,8.12-7.5a5.57,5.57,0,0,0-3.21-4.08A10.66,10.66,0,0,0,255.59,364.27Z"/><path class="cls-78" d="M292.45,261.21s6.07,1.55,6,2.5a22.76,22.76,0,0,1-1.14,3.86s3.12,1.69,3.22,2.55c.39-2.33.57-5,.57-5s.19-2.84-4.32-3.87C293,260.76,292.45,261.21,292.45,261.21Z"/><path class="cls-75" d="M396.85,259s-5.92-1.23-8.87,7.07c-1.68-2.24-2.93-4.15-2.93-4.15s-1.4-2.4,1.91-5.47a6.16,6.16,0,0,1,7-1Z"/><path class="cls-74" d="M396.85,259s-2.69-.53-6.45,2.55a7.46,7.46,0,0,0-2.42,4.52l5.27,6.7s-6.6-6.54-2.51-10.61a10.44,10.44,0,0,1,6.52-2.63Z"/><path class="cls-78" d="M390.79,254.32s-4.57,4.3-4.08,5.11a23.41,23.41,0,0,0,2.86,2.83s-1.91,3-1.59,3.79c-1.46-1.86-2.93-4.15-2.93-4.15s-1.54-2.39,1.91-5.47C390.07,254.2,390.79,254.32,390.79,254.32Z"/><path class="cls-70" d="M396.57,258.89a11.19,11.19,0,0,0-5.19,2,10.42,10.42,0,0,0-3.2,4.89c.06-.92.13-2.83,2.63-5.08A9.68,9.68,0,0,1,396.57,258.89Z"/><path class="cls-79" d="M261.82,374.29l119.36-3.61s7.52-1.47,10.61-6.47S421.63,306,421.63,306s3-7.14,0-13.28C417.66,288,390,255.2,390,255.2s2.37-1.61,4,.22,28.49,36,28.49,36,4.52,3.61,1.92,13.34c-3.11,8.8-29,55.62-29,55.62l-3.27,6a14.6,14.6,0,0,1-9,5.17,136.43,136.43,0,0,1-14.83,1.15l-109.32,3.39Z"/><circle class="cls-80" cx="277.2" cy="283.35" r="9.86"/><path class="cls-81" d="M388.52,306.54c-.83-4.16-3.08-3.46-3.08-3.46s1.37,10.05.92,14.06c-1.54,9.58-13.17,15.63-13.17,15.63h0c1.24-6,2-14.43.3-20.11,2.44-1.75,7.46-5.46,6.53-11-5-.46-19.32-3.83-19.32-3.83s-4.22,10.46,6.16,14a10.82,10.82,0,0,0,4.36.8s2.77,12.64-2.67,24c-2.65,3.4-9.87,6.74-18.15,8.6s-59.31,14.33-59.31,14.33l6.12-.19,61.22-14.31s8.45-2.71,12.79-5.86a33.59,33.59,0,0,0,5.71-4.36,69.83,69.83,0,0,0,10.79-13.32C390,318.08,389.42,311,388.52,306.54Z"/><polygon class="cls-82" points="328.46 352.05 322.7 311.61 322.98 311.57 328.74 352.01 328.46 352.05"/><circle class="cls-83" cx="370.18" cy="300.58" r="9.86"/><polygon class="cls-84" points="349.34 256.5 348.51 257.41 348.92 257.45 349.34 256.5"/><path class="cls-85" d="M349.39,285.33c-.07-.17-.15-.34-.21-.52Z"/><path class="cls-85" d="M348.5,258.41l.42-1-.41,0-.84.93c-.79,8.69-1.19,17.24,2.32,26.32,3.05,7.86,8.77,15.2,17.38,22.24l.62-.56C347.69,289.87,347,274.77,348.5,258.41Z"/><path class="cls-85" d="M346.77,257.25l-.08.8c-.76,8.28-1.13,17,2.26,26.15C345.48,274.7,346,265.64,346.77,257.25Z"/><path class="cls-85" d="M419.87,308.67a16.85,16.85,0,0,0,.95-1.54A16.85,16.85,0,0,1,419.87,308.67Z"/><path class="cls-86" d="M349.18,284.81c-.08-.2-.15-.41-.23-.61C349,284.4,349.1,284.61,349.18,284.81Z"/><path class="cls-86" d="M349.34,256.5l-.42.95.67.06-.08.8c-1.36,14.87-2.58,30.63,18.91,47.65l.32-.3c-21-16.91-20.55-31.85-19.19-46.71l.28-1.78.81-5.2-3.87,5.28,1.74.16Z"/><path class="cls-86" d="M349.39,285.33c2.86,7.2,8.08,14.63,17.26,22.22l.06-.05C357.51,299.85,352.27,292.46,349.39,285.33Z"/><path class="cls-86" d="M366.71,307.5l.66-.6c-8.61-7-14.33-14.38-17.38-22.24-3.51-9.08-3.11-17.63-2.32-26.32l.84-.93-1.74-.16c-.78,8.39-1.29,17.45,2.18,26.95.08.2.15.41.23.61s.14.35.21.52C352.27,292.46,357.51,299.85,366.71,307.5Z"/><path class="cls-86" d="M349.51,258.31l.08-.8-.67-.06-.42,1c-1.49,16.36-.81,31.46,19.49,47.93l.43-.38C346.93,288.94,348.15,273.18,349.51,258.31Z"/><circle class="cls-87" cx="315.54" cy="305.26" r="9.86"/><path class="cls-88" d="M313.37,305.26s-2.29-1.82-4.23-1.34-3,1.31-3.4,2.46a9.64,9.64,0,0,1,5.09-9.79A9.91,9.91,0,0,1,323,298.83c.85,1.15,2.55,2.8,2.32,7.55a5.19,5.19,0,0,0-3.84-2.5,7,7,0,0,0-3.79,1.38Z"/><path class="cls-89" d="M314.36,301.53s1,.12.27.78-1.73,2.35-1.21,3.22a2.18,2.18,0,0,0,1.73,1.51,2.25,2.25,0,0,0,2.24-1,4.32,4.32,0,0,0,.25-2.32c.12-.38.56-.95.92-.42a3.47,3.47,0,0,1-.46,3.38,3,3,0,0,1-3.59.57c-1.08-.46-2.18-1.27-1.5-3.52S314.36,301.53,314.36,301.53Z"/><path class="cls-90" d="M315,303.89v-1.53a.26.26,0,0,1,0-.42c.26-.21.31-6.55.31-6.55a10.57,10.57,0,0,1,4.92,1.14,7.43,7.43,0,0,1,3.46,3.11c-1.64.74-7.13,4.6-7.13,4.6Z"/><path class="cls-91" d="M306,307.56a15,15,0,0,0,1.09,2.69c.52.15,1.49.43,1.85,0a3.64,3.64,0,0,1,1.55-.86,6.89,6.89,0,0,1,1.45.14,30.47,30.47,0,0,0,3.46.51c.22-.07,3.06-.34,3.46-1s1.74-.78,2.17-.78a4.21,4.21,0,0,1,1.62.78c.07.12.52.59.82.59s1,0,1,0A10.44,10.44,0,0,0,325,308c.17-.66-1.26-1-1.37-1a15.39,15.39,0,0,0-2.15-.29c-.34.11-1.34,0-1.74.22s-1.92,1-2.1,1.12a9.94,9.94,0,0,1-1.47.68,2.06,2.06,0,0,1-1,0,10.38,10.38,0,0,1-2-.51,3.77,3.77,0,0,0-.69-.54c-.14-.11-2-.83-2-.83s-1.66,0-2,0a16.71,16.71,0,0,1-1.88-.2Z"/><circle class="cls-80" cx="315.54" cy="304.95" r="2.2"/><circle class="cls-92" cx="315.54" cy="304.95" r="1.21"/><circle class="cls-93" cx="277.5" cy="283.22" r="9.86"/><path class="cls-94" d="M275.33,283.22s-2.29-1.81-4.23-1.34-3,1.31-3.4,2.46a9.61,9.61,0,0,1,5.08-9.78A9.89,9.89,0,0,1,285,276.79c.86,1.15,2.56,2.8,2.32,7.55a5.16,5.16,0,0,0-3.83-2.5,6.94,6.94,0,0,0-3.79,1.38Z"/><path class="cls-89" d="M276.31,279.49s1,.12.27.78-1.72,2.35-1.2,3.23a2.16,2.16,0,0,0,1.73,1.5,2.26,2.26,0,0,0,2.24-1,4.35,4.35,0,0,0,.24-2.32c.13-.38.56-.94.92-.41a3.45,3.45,0,0,1-.46,3.37c-.89,1.19-2.5,1-3.58.58s-2.19-1.28-1.5-3.53S276.31,279.49,276.31,279.49Z"/><path class="cls-90" d="M276.92,281.86v-1.54a.25.25,0,0,1,0-.42c.26-.21.3-6.54.3-6.54a10.52,10.52,0,0,1,4.93,1.13,7.44,7.44,0,0,1,3.45,3.12c-1.63.73-7.13,4.59-7.13,4.59Z"/><path class="cls-91" d="M267.91,285.53a15,15,0,0,0,1.08,2.69c.52.14,1.5.43,1.86,0a3.68,3.68,0,0,1,1.55-.87,7.58,7.58,0,0,1,1.44.15,33.55,33.55,0,0,0,3.46.5c.22-.07,3.07-.34,3.47-1s1.74-.79,2.17-.79a4.09,4.09,0,0,1,1.61.79c.07.11.52.58.82.58l1,0a11.56,11.56,0,0,0,.62-1.61c.16-.65-1.26-1-1.38-1a17.12,17.12,0,0,0-2.14-.29c-.35.11-1.35,0-1.75.22s-1.92,1-2.1,1.12a8.25,8.25,0,0,1-1.47.68,2.06,2.06,0,0,1-1,0,11.87,11.87,0,0,1-2-.5c0-.11-.54-.44-.68-.55s-2.06-.82-2.06-.82-1.66,0-1.94,0-1.88-.2-1.88-.2Z"/><circle class="cls-80" cx="277.5" cy="282.92" r="2.2"/><circle class="cls-92" cx="277.5" cy="282.92" r="1.21"/><circle class="cls-95" cx="370.22" cy="300.59" r="9.86"/><path class="cls-96" d="M368.05,300.59s-2.29-1.82-4.23-1.34-3,1.31-3.39,2.46a9.61,9.61,0,0,1,5.08-9.79,9.88,9.88,0,0,1,12.19,2.24c.86,1.15,2.56,2.8,2.32,7.55a5.17,5.17,0,0,0-3.84-2.5,6.94,6.94,0,0,0-3.78,1.38Z"/><path class="cls-89" d="M369,296.86s1,.12.27.78-1.73,2.35-1.2,3.22a2.15,2.15,0,0,0,1.73,1.51,2.26,2.26,0,0,0,2.24-1,4.35,4.35,0,0,0,.24-2.32c.13-.38.56-.95.92-.42a3.47,3.47,0,0,1-.46,3.38,3,3,0,0,1-3.58.57c-1.09-.46-2.19-1.27-1.51-3.52S369,296.86,369,296.86Z"/><path class="cls-90" d="M369.64,299.22v-1.53a.26.26,0,0,1,0-.42c.27-.21.31-6.55.31-6.55a10.6,10.6,0,0,1,4.93,1.14,7.44,7.44,0,0,1,3.45,3.11c-1.64.74-7.13,4.6-7.13,4.6Z"/><path class="cls-91" d="M360.63,302.89a15,15,0,0,0,1.09,2.69c.52.15,1.49.43,1.86,0a3.59,3.59,0,0,1,1.55-.86,6.86,6.86,0,0,1,1.44.14,30.47,30.47,0,0,0,3.46.51c.22-.07,3.07-.34,3.46-1s1.75-.78,2.17-.78a4.21,4.21,0,0,1,1.62.78c.07.12.52.59.82.59s1,0,1,0a11.22,11.22,0,0,0,.62-1.6c.16-.66-1.27-1-1.38-1a15.39,15.39,0,0,0-2.15-.29c-.34.11-1.34,0-1.74.22s-1.92,1-2.1,1.12a9.94,9.94,0,0,1-1.47.68,2.19,2.19,0,0,1-1,0,10.58,10.58,0,0,1-2-.51,4,4,0,0,0-.68-.54c-.15-.11-2.06-.83-2.06-.83s-1.66,0-1.95,0a16.5,16.5,0,0,1-1.87-.2Z"/><circle class="cls-80" cx="370.22" cy="300.28" r="2.2"/><circle class="cls-92" cx="370.22" cy="300.28" r="1.21"/><path class="cls-97" d="M417.06,292.68s2.94,4.64,0,8.94c-.75,3.15,1.64,3.36,3.41,2s1.9-5.5,0-9.15S417.06,290.32,417.06,292.68Z"/><path class="cls-97" d="M388.39,359s-1.4,5.3-6.55,6.08c-2.82,1.59-1.35,3.49.84,3.87s5.32-2.35,6.71-6.22S390.12,357.4,388.39,359Z"/><path class="cls-75" d="M176,369.65c-29.63,0-69.44-.17-72-.19a5.67,5.67,0,0,1,0-11.33h0c.94,0,93.91.41,102.72,0,4.64-.21,6.66-1.47,7.23-1.91l.48-1.06.65,0c25.11-19.62,63.29-49.55,66.1-52.06a5.27,5.27,0,0,0,1-1.29L287.38,270a5.67,5.67,0,0,1,11.19,1.83l-5.33,32.62a14.5,14.5,0,0,1-4.05,6.68c-2.1,2.11-46.91,37.16-66.62,52.55-1.69,1.85-6.06,5.34-15.27,5.77C204.17,369.6,191.46,369.65,176,369.65Z"/><path class="cls-17" d="M111.9,360.38h97.88a38.34,38.34,0,0,0,5.85-2.73c3.15-1.8,67.66-53,67.66-53a20.77,20.77,0,0,0,2.84-5.6c1.05-3.25,7.09-31.56,7.09-31.56L287,303.19s0,2.71-3.73,5.86-64.51,51.33-64.51,51.33a11.89,11.89,0,0,1-8.78,4.05c-5.84.19-96.68,0-96.68,0Z"/><path class="cls-75" d="M287,272.26s4.58-3.93,11.17,1.91c.39-2.78.56-5.05.56-5.05s.07-2.77-4.31-3.86a6.17,6.17,0,0,0-6.64,2.5Z"/><path class="cls-74" d="M287,272.26s2.09-1.76,6.87-.87a7.42,7.42,0,0,1,4.3,2.78l-1.37,8.41s2.62-8.92-2.93-10.5a10.49,10.49,0,0,0-7,.85Z"/><path class="cls-70" d="M287.21,272.06a11.16,11.16,0,0,1,5.51-.77,10.38,10.38,0,0,1,5.17,2.73,6.77,6.77,0,0,0-4.76-3.18A9.7,9.7,0,0,0,287.21,272.06Z"/><path class="cls-79" d="M110.91,368.41l98.75-1.26s6.55-.32,10-4.09,70.27-55.93,70.27-55.93,2.06-3,2.45-9.13,4-32.05,4-32.05a4.79,4.79,0,0,1,2.24,4.84c-.45,3.38-5,31.22-5,31.22a13.43,13.43,0,0,1-4.45,9.13c-4.27,3.53-67.36,53.29-67.36,53.29a23.73,23.73,0,0,1-11.36,4.74c-8.58,1-102.67.48-102.67.48Z"/><ellipse class="cls-98" cx="104.21" cy="364.43" rx="9.19" ry="6.49" transform="translate(-48.12 17.35) rotate(-7.74)"/><path class="cls-77" d="M103.35,371.12c-4.35,0-7.95-2.23-8.38-5.43a5.84,5.84,0,0,1,2.09-5,12.22,12.22,0,0,1,13-1.77,5.84,5.84,0,0,1,3.36,4.29h0c.49,3.63-3.25,7.14-8.35,7.83A13.24,13.24,0,0,1,103.35,371.12ZM105.1,358a12.83,12.83,0,0,0-1.74.12,11.21,11.21,0,0,0-6.11,2.72,5.55,5.55,0,0,0-2,4.79c.47,3.47,4.88,5.74,9.82,5.07s8.58-4,8.11-7.51a5.57,5.57,0,0,0-3.21-4.08A10.61,10.61,0,0,0,105.1,358Z"/><path class="cls-97" d="M287.81,297.83s.23,5.48-4.46,7.74c-2.23,2.36-.26,3.73,1.95,3.45s4.38-3.81,4.56-7.92S289,295.79,287.81,297.83Z"/><path class="cls-99" d="M216.38,312.66,209,293.5l55.88-33s6.23-1.63,5.83,9.45c-1.36-3-2.59-9.41-7.64-6.26s-51.86,31-51.86,31Z"/><polygon class="cls-100" points="250.58 338.71 289.81 307.73 294.26 306.7 250.93 341.7 250.58 338.71"/><circle class="cls-101" cx="344.5" cy="319.92" r="13.54"/><circle class="cls-102" cx="344.36" cy="319.92" r="10.5"/><path class="cls-103" d="M253.84,355.77s26.29-10.72,49.11-22.32c3.6-3.8,19.89-20.79,19.89-20.79L328.6,352l-33.67,8.35-36.33.22S254,357.37,253.84,355.77Z"/><path class="cls-79" d="M322.84,312.66l6.72,14.67,6-2.27,18.85-8.22,3.3.05,9.16-5,4.36-1.38,7.11-8.14,1.38,1,7.72-.41a38.64,38.64,0,0,1,1.45,5.7c.27,2.18,3.24,6.3-1.1,16.47s-14.38,15.35-19.23,17.5S328.6,352,328.6,352Z"/><path class="cls-104" d="M304.52,304.71s-.43,9.8,8.28,11.33S323.38,312.1,325,308c-3.31,4.45-5.16,6.48-9.21,6.48a11.32,11.32,0,0,1-9.43-5.64,22.55,22.55,0,0,1-.66-4.49Z"/><path class="cls-105" d="M294.26,229.89l82.87-53.78s3.24-1,2-10.14-5.62-28-5.62-28-4.87-8.16-12.84-5.63-26.89,14.89-49.41,51.44c-6,9-18.1,35.81-18.1,35.81s-.51,1.09.3,5.72c-1.6.27-3.39-.87-1.33-6.63s13.93-37.09,30.58-56.75c4.15-5.4,17.24-23.18,30.65-31.65,3.68-2.86,14.49-7.68,22,2.06,4.8,3.88,7,10.73,7.58,17.84l1.53-.66,4.92,26.28-93,57.85Z"/><path class="cls-85" d="M356.61,280.24a28.84,28.84,0,0,1-14.5-3.58c-10.37-5.88-12.89-16.8-13-17.26l2.77-.62c0,.1,2.48,10.49,11.75,15.73,7.3,4.12,16.77,4,28.46.36,35.18-11.08,38.35-28.76,41.09-45.39l.13-.79,2.79.46-.13.79c-2.77,16.87-7.53,35.14-43,47.34A50.41,50.41,0,0,1,356.61,280.24Z"/><path class="cls-86" d="M413.81,227.78,415,230c-1.42,8.61-3.18,17-8.87,24.89-6.57,9.13-17.51,16.15-33.45,21.47a51.36,51.36,0,0,1-16,2.91,28,28,0,0,1-14-3.45,27.28,27.28,0,0,1-12.24-15.64l.82-.19c.85,2.74,3.91,10.63,11.87,15.12a27.12,27.12,0,0,0,13.57,3.32,50.44,50.44,0,0,0,15.75-2.86c33.41-11.15,38.73-27.29,41.77-45.71m-1-1.54-.17,1.8c-2.73,16.62-6.63,33.06-40.93,44.5a49.5,49.5,0,0,1-15.44,2.81,26.1,26.1,0,0,1-13.08-3.19c-9.28-5.24-11.63-15.33-11.65-15.43l-2.77.62c.1.46,2.62,11.38,13,17.26a28.84,28.84,0,0,0,14.5,3.58,52.17,52.17,0,0,0,16.34-3c35.93-12,40.39-31.26,43.16-48.13l-2.42-6.09-.53,5.23Z"/><circle class="cls-3" cx="337.88" cy="247.45" r="15.2"/><circle class="cls-14" cx="337.88" cy="245.34" r="15.2"/><path class="cls-106" d="M337.88,238.42a6.92,6.92,0,0,1,6.48,4.51l3.54-.49a10.43,10.43,0,0,0-20.45,2.81l3.54-.49A6.92,6.92,0,0,1,337.88,238.42Z"/><path class="cls-107" d="M337.88,238.42a6.92,6.92,0,0,1,6.48,4.51l3.54-.49a10.43,10.43,0,0,0-20.45,2.81l3.54-.49A6.92,6.92,0,0,1,337.88,238.42Z"/><path class="cls-108" d="M344.8,245.34a6.92,6.92,0,0,1-13.35,2.54h0l-4-2.17a10.43,10.43,0,0,0,20.85-.37A10,10,0,0,0,348,243Z"/><path class="cls-8" d="M337.88,252.26a6.92,6.92,0,0,0,6.92-6.92l-13.35,2.54A6.92,6.92,0,0,0,337.88,252.26Z"/><path class="cls-8" d="M337.88,238.42a6.92,6.92,0,0,0-6.89,6.34l13.37-1.83A6.92,6.92,0,0,0,337.88,238.42Z"/><path class="cls-109" d="M331.45,247.88a6.92,6.92,0,0,1-.49-2.54,5.49,5.49,0,0,1,0-.58l-3.54.49v.09c0,.13,0,.25,0,.37l4,2.17Z"/><path class="cls-109" d="M344.8,245.34,348,243c0-.19-.09-.38-.14-.56l-3.54.49A6.87,6.87,0,0,1,344.8,245.34Z"/><path class="cls-110" d="M344.36,242.93A6.91,6.91,0,0,0,331,244.76a5.49,5.49,0,0,0,0,.58,6.92,6.92,0,1,0,13.4-2.41Z"/><path class="cls-111" d="M337.88,259.27a13.93,13.93,0,1,1,13.93-13.93A13.95,13.95,0,0,1,337.88,259.27Zm0-25a11.1,11.1,0,1,0,11.1,11.1A11.11,11.11,0,0,0,337.88,234.24Z"/><path class="cls-112" d="M337.88,258.56a13.22,13.22,0,1,1,13.23-13.22A13.23,13.23,0,0,1,337.88,258.56Zm0-25a11.81,11.81,0,1,0,11.81,11.81A11.82,11.82,0,0,0,337.88,233.53Z"/><path class="cls-113" d="M345.44,242.78s2.8,3,.76,8.85a10.32,10.32,0,0,0,1.7-9.19l-2.7.37Z"/><path class="cls-114" d="M330,244.8s-1.88,3.67,1.66,8.73a10.33,10.33,0,0,1-4.12-8.39l2.7-.38Z"/><path class="cls-112" d="M332,233.91s2.58-2.1,4.15-2.32,4.76-.13,6.24,1.57c1.93,1.47,2.5,2.19,3.22,2.36a9.17,9.17,0,0,1,4.75,5.2,13.67,13.67,0,0,1,.68,6.32c-.17,1.06-2.46,4-2.58,4.93.88-2.78.66-7,.79-7.21a6.36,6.36,0,0,0,.22-2.08c-.05-.56-.7-1.22-.83-1.92a3.09,3.09,0,0,0-.64-1.44c-.37-.57.15-.39-1.27-1.35a30.92,30.92,0,0,1-3.07-1.92,11.29,11.29,0,0,0-1.05-1.49,5.31,5.31,0,0,0-2.57-1.18c-1.14-.08-2.41,0-3.93-.17a15.68,15.68,0,0,0-4.33.74"/><path class="cls-112" d="M339.13,239.57s-3.81,6.77-3.57,7,8.8-.92,8.8-.92S344,240.49,339.13,239.57Z"/><path class="cls-115" d="M412.85,230.9a1.53,1.53,0,0,1,1.57,1.29,53.64,53.64,0,0,1-.25,6.66,86,86,0,0,0,1.94-9.7l-2.74-6.94-2.87,7.68Z"/><polygon class="cls-116" points="330.76 264.39 334.86 263.83 334.26 261.77 328.99 259.51 330.76 264.39"/><path class="cls-117" d="M323.42,241.6l4.08,3.54s4.54,8.21,12.45,9.54,13.13-7.23,13.13-7.23-2.31,11.63-12.83,13.4-16.83-7.28-18.43-12.25S323.42,241.6,323.42,241.6Z"/><path class="cls-118" d="M301,222h-.18a2.83,2.83,0,0,1-2.5-1.17c-1-1.66.26-4.59,1.21-6.72,17-42.37,53.54-74.38,55.08-75.72,3.31-2.86,6.41-4,9.22-3.41,3.88.84,5.72,4.7,5.79,4.86l0,.12c0,.11,2.19,11.11,4.71,21.33,2.61,10.55-1.29,13.57-1.45,13.7L304.4,220.92A6.13,6.13,0,0,1,301,222Zm61.35-86.18c-2.16,0-4.54,1.11-7.08,3.32-1.54,1.33-37.92,33.19-54.81,75.35-.83,1.84-2.05,4.59-1.3,5.8a1.93,1.93,0,0,0,1.69.7,4.91,4.91,0,0,0,2.95-.9l68.54-45.93s3.49-2.82,1.06-12.64-4.53-20.39-4.71-21.32c-.22-.43-1.9-3.57-5.08-4.25A5.86,5.86,0,0,0,362.39,135.82Z"/><path class="cls-119" d="M312.91,211.33,370.59,172s3.23-2.44.62-10.7A199.37,199.37,0,0,1,366.46,141s-3.4-6.37-11.58.83-34.3,34.37-45.83,64.72c-1,2.35-2.4,5.69.8,5.78A5.13,5.13,0,0,0,312.91,211.33Z"/><path class="cls-90" d="M341.51,144.34s11.26-13.81,21.24-14.27,14.41,9.59,14.38,10.9c-4.82-4.63-5.89-5.39-11.09-5S355.59,137.49,341.51,144.34Z"/><path class="cls-120" d="M295.36,221.5s-.24-4.5,4.67-13.8,20.16-35.8,20.16-35.8-18,33.13-18,43C300.88,221.49,294.12,227.47,295.36,221.5Z"/><path class="cls-121" d="M360.63,152.7,346.2,192.3a16.48,16.48,0,0,1-6.25,7.94c6.37-4.13,30.44-18.52,30.44-18.52s2.42-1.91,0-11.77-2-31.55-9.76-17.25"/><polygon class="cls-116" points="357.86 294.52 356.79 297.74 360.43 301.83 360.7 298 357.86 294.52"/><path class="cls-116" d="M347.39,279s2.52.62,2.78.67c.21.53.61,1.95.61,1.95l-2.77.31a22.49,22.49,0,0,1-.62-2.65"/><path class="cls-116" d="M346.74,275.57a6.31,6.31,0,0,0,3,.93c-.23-.77-.53-3.49-.53-3.49a8.36,8.36,0,0,1-2.75,0A13.92,13.92,0,0,0,346.74,275.57Z"/><path class="cls-122" d="M125.63,337.4a2.14,2.14,0,0,1-1.92-1.21L83.13,251.72a1.86,1.86,0,0,1-.1-.25L.61,3.3A2.12,2.12,0,1,1,4.64,2L87,250l40.52,84.35a2.12,2.12,0,0,1-1,2.84A2.17,2.17,0,0,1,125.63,337.4Z"/><path class="cls-123" d="M125.63,337.9a2.64,2.64,0,0,1-2.37-1.49L82.68,251.94a2,2,0,0,1-.12-.31L.14,3.45a2.58,2.58,0,0,1,.14-2A2.61,2.61,0,0,1,3.8.28,2.58,2.58,0,0,1,5.12,1.8L87.5,249.85,128,334.13a2.56,2.56,0,0,1,.11,2,2.6,2.6,0,0,1-1.34,1.5A2.63,2.63,0,0,1,125.63,337.9ZM2.63,1a1.75,1.75,0,0,0-.51.08,1.64,1.64,0,0,0-1,2.06L83.5,251.31l.08.2L124.16,336a1.65,1.65,0,0,0,2.17.76,1.61,1.61,0,0,0,.76-2.16L86.57,250.22,4.17,2.11a1.67,1.67,0,0,0-.81-.94A1.7,1.7,0,0,0,2.63,1Z"/><polygon class="cls-124" points="123.91 333.67 89.63 262.58 84.58 249.72 0.8 5.46 1.75 5.13 85.52 249.37 90.54 262.18 124.81 333.24 123.91 333.67"/><path class="cls-3" d="M404.74,122.85l-.45-.89c.09,0,9.43-5.61.61-45.76-4.64-21.11-16.78-29.75-26.16-33.29a44.65,44.65,0,0,0-19.41-2.66l-.13-1c.37,0,37.61-4.53,46.67,36.72S405.16,122.64,404.74,122.85Z"/><path class="cls-125" d="M452.17,133.72s1.64,4.67,2.76,4.8c.44,0,.86-1.06.86-1.06s.49,11.17-1.81,19.56C453.76,152.77,452.17,133.72,452.17,133.72Z"/></g></g></g></svg>