<svg xmlns="http://www.w3.org/2000/svg" xmlns:xlink="http://www.w3.org/1999/xlink" viewBox="0 0 661.83 339.03"><defs><style>.cls-1{isolation:isolate;}.cls-2{fill:#c42026;}.cls-15,.cls-154,.cls-17,.cls-27,.cls-3,.cls-4,.cls-5,.cls-50,.cls-63,.cls-64,.cls-68,.cls-83,.cls-85,.cls-9,.cls-93{fill:#fff;}.cls-3{opacity:0.19;}.cls-4{opacity:0.08;}.cls-6{fill:#931a1d;}.cls-7{fill:#2d2a2b;}.cls-8{fill:#414042;}.cls-35,.cls-36,.cls-9{opacity:0.1;}.cls-10{fill:#eaeaea;}.cls-11{fill:#1e1e1e;}.cls-12,.cls-56,.cls-58{fill:#ddd;}.cls-12,.cls-15{opacity:0.16;}.cls-13{fill:url(#linear-gradient);}.cls-14,.cls-34{opacity:0.36;}.cls-16{fill:url(#linear-gradient-2);}.cls-17{opacity:0.04;}.cls-18{fill:#020202;}.cls-134,.cls-135,.cls-136,.cls-138,.cls-140,.cls-141,.cls-142,.cls-152,.cls-153,.cls-155,.cls-18,.cls-34,.cls-43,.cls-44,.cls-45,.cls-62,.cls-69,.cls-70,.cls-77,.cls-78,.cls-79,.cls-86,.cls-88,.cls-89,.cls-90,.cls-92{mix-blend-mode:multiply;}.cls-18,.cls-25{opacity:0.52;}.cls-19{fill:url(#linear-gradient-3);}.cls-20{fill:#5d5f5d;}.cls-21{fill:#2d2e2d;}.cls-22{fill:url(#linear-gradient-4);}.cls-100,.cls-23,.cls-94,.cls-97,.cls-98,.cls-99{opacity:0.58;}.cls-24{fill:url(#linear-gradient-5);}.cls-26{fill:url(#linear-gradient-6);}.cls-27,.cls-67{opacity:0.55;}.cls-28{fill:url(#linear-gradient-7);}.cls-29,.cls-35{fill:#c4c4c4;}.cls-30,.cls-44{fill:#212121;}.cls-31{fill:#171717;}.cls-32{fill:#3a3b3a;}.cls-33{fill:url(#linear-gradient-8);}.cls-37{fill:#010101;}.cls-38{fill:url(#linear-gradient-9);}.cls-39{fill:url(#linear-gradient-10);}.cls-40{fill:url(#linear-gradient-11);}.cls-41{opacity:0.57;}.cls-42{fill:url(#linear-gradient-12);}.cls-43,.cls-93{opacity:0.2;}.cls-44{opacity:0.24;}.cls-45,.cls-46{opacity:0.21;}.cls-47{fill:url(#linear-gradient-13);}.cls-48{fill:url(#linear-gradient-14);}.cls-49,.cls-51,.cls-95,.cls-96{fill:#d8d6d7;}.cls-49,.cls-58{opacity:0.69;}.cls-50{opacity:0.37;}.cls-51{opacity:0.09;}.cls-52{fill:#981b1f;}.cls-53{mix-blend-mode:color-burn;}.cls-154,.cls-53{opacity:0.31;}.cls-151,.cls-54,.cls-55{fill:#a9a8a9;}.cls-101,.cls-102,.cls-103,.cls-104,.cls-105,.cls-106,.cls-107,.cls-108,.cls-109,.cls-110,.cls-111,.cls-112,.cls-113,.cls-114,.cls-115,.cls-116,.cls-117,.cls-118,.cls-119,.cls-120,.cls-121,.cls-122,.cls-123,.cls-124,.cls-125,.cls-126,.cls-127,.cls-128,.cls-129,.cls-130,.cls-131,.cls-132,.cls-54{opacity:0.22;}.cls-56{opacity:0.26;}.cls-57{fill:#521010;}.cls-59{fill:#d2d2d1;}.cls-60{fill:#0b0b0b;}.cls-61{fill:#ededed;opacity:0.64;}.cls-62{opacity:0.28;}.cls-63{opacity:0.42;}.cls-148,.cls-64{opacity:0.46;}.cls-65{opacity:0.51;}.cls-66,.cls-69{opacity:0.56;}.cls-68{opacity:0.05;}.cls-70{opacity:0.23;}.cls-71,.cls-72,.cls-73{fill:#bcbcbc;}.cls-72,.cls-83{opacity:0.38;}.cls-73{opacity:0.06;}.cls-147,.cls-148,.cls-74,.cls-75{fill:#d2d2d3;}.cls-151,.cls-74{opacity:0.18;}.cls-75{opacity:0.53;}.cls-76{fill:url(#linear-gradient-15);}.cls-134,.cls-77,.cls-88{opacity:0.74;}.cls-77{fill:url(#linear-gradient-16);}.cls-78{fill:url(#linear-gradient-17);}.cls-79{fill:url(#linear-gradient-18);}.cls-80{fill:#bcbec0;}.cls-81{opacity:0.4;}.cls-82{fill:#d3d3d3;}.cls-84{fill:url(#linear-gradient-19);}.cls-85{opacity:0.47;}.cls-138,.cls-86,.cls-92{opacity:0.68;}.cls-86{fill:url(#linear-gradient-20);}.cls-87{fill:url(#linear-gradient-21);}.cls-88{fill:url(#linear-gradient-22);}.cls-89{fill:url(#linear-gradient-23);}.cls-90{fill:url(#linear-gradient-24);}.cls-91{fill:url(#linear-gradient-25);}.cls-92{fill:url(#linear-gradient-26);}.cls-94{fill:#262626;}.cls-95{opacity:0.43;}.cls-155,.cls-96{opacity:0.13;}.cls-97{fill:url(#radial-gradient);}.cls-98{fill:url(#radial-gradient-2);}.cls-99{fill:url(#radial-gradient-3);}.cls-100{fill:url(#radial-gradient-4);}.cls-101{fill:url(#radial-gradient-5);}.cls-102{fill:url(#radial-gradient-6);}.cls-103{fill:url(#radial-gradient-7);}.cls-104{fill:url(#radial-gradient-8);}.cls-105{fill:url(#radial-gradient-9);}.cls-106{fill:url(#radial-gradient-10);}.cls-107{fill:url(#radial-gradient-11);}.cls-108{fill:url(#radial-gradient-12);}.cls-109{fill:url(#radial-gradient-13);}.cls-110{fill:url(#radial-gradient-14);}.cls-111{fill:url(#radial-gradient-15);}.cls-112{fill:url(#radial-gradient-16);}.cls-113{fill:url(#radial-gradient-17);}.cls-114{fill:url(#radial-gradient-18);}.cls-115{fill:url(#radial-gradient-19);}.cls-116{fill:url(#radial-gradient-20);}.cls-117{fill:url(#radial-gradient-21);}.cls-118{fill:url(#radial-gradient-22);}.cls-119{fill:url(#radial-gradient-23);}.cls-120{fill:url(#radial-gradient-24);}.cls-121{fill:url(#radial-gradient-25);}.cls-122{fill:url(#radial-gradient-26);}.cls-123{fill:url(#radial-gradient-27);}.cls-124{fill:url(#radial-gradient-28);}.cls-125{fill:url(#radial-gradient-29);}.cls-126{fill:url(#radial-gradient-30);}.cls-127{fill:url(#radial-gradient-31);}.cls-128{fill:url(#radial-gradient-32);}.cls-129{fill:url(#radial-gradient-33);}.cls-130{fill:url(#radial-gradient-34);}.cls-131{fill:url(#radial-gradient-35);}.cls-132{fill:url(#radial-gradient-36);}.cls-133{fill:url(#linear-gradient-27);}.cls-134{fill:url(#linear-gradient-28);}.cls-135{fill:url(#linear-gradient-29);}.cls-136{fill:url(#linear-gradient-30);}.cls-137{fill:url(#linear-gradient-31);}.cls-138{fill:url(#linear-gradient-32);}.cls-139,.cls-144{fill:none;stroke-miterlimit:10;}.cls-139{stroke:#231f20;}.cls-140{fill:url(#linear-gradient-33);}.cls-141{fill:url(#linear-gradient-34);}.cls-142{fill:url(#linear-gradient-35);}.cls-143{opacity:0.72;fill:url(#linear-gradient-36);}.cls-144{stroke:#000;stroke-width:0.57px;opacity:0.61;}.cls-145{fill:#808285;}.cls-146{fill:#d6d6d6;}.cls-147{opacity:0.32;}.cls-149{fill:url(#linear-gradient-37);}.cls-150{fill:url(#linear-gradient-38);}.cls-152{opacity:0.29;}.cls-153{opacity:0.12;}</style><linearGradient id="linear-gradient" x1="437.36" y1="35.41" x2="458.18" y2="35.41" gradientTransform="translate(2.74 -31.79) rotate(4.16)" gradientUnits="userSpaceOnUse"><stop offset="0" stop-color="#d1d3d4"/><stop offset="1" stop-color="#6d6e71"/></linearGradient><linearGradient id="linear-gradient-2" x1="464.7" y1="18.17" x2="460.29" y2="45.99" gradientTransform="matrix(1, 0, 0, 1, 0, 0)" xlink:href="#linear-gradient"/><linearGradient id="linear-gradient-3" x1="459.83" y1="0.18" x2="454.79" y2="32.04" gradientTransform="matrix(1, 0, 0, 1, 0, 0)" xlink:href="#linear-gradient"/><linearGradient id="linear-gradient-4" x1="210.75" y1="81.55" x2="207.39" y2="119.92" gradientUnits="userSpaceOnUse"><stop offset="0" stop-color="#4d1616"/><stop offset="0.34" stop-color="#431616"/><stop offset="0.92" stop-color="#271515"/><stop offset="1" stop-color="#221515"/></linearGradient><linearGradient id="linear-gradient-5" x1="70.71" y1="215.44" x2="98.53" y2="277.94" gradientTransform="matrix(1, 0, 0, 1, 0, 0)" xlink:href="#linear-gradient"/><linearGradient id="linear-gradient-6" x1="530.75" y1="145.31" x2="515.52" y2="152.09" gradientTransform="matrix(1, 0, 0, 1, 0, 0)" xlink:href="#linear-gradient"/><linearGradient id="linear-gradient-7" x1="86.28" y1="228.5" x2="107.27" y2="228.5" gradientTransform="matrix(1, 0, 0, 1, 0, 0)" xlink:href="#linear-gradient"/><linearGradient id="linear-gradient-8" x1="374.36" y1="192.48" x2="302.34" y2="281.43" gradientUnits="userSpaceOnUse"><stop offset="0" stop-color="#464547"/><stop offset="0.23" stop-color="#3b393b"/><stop offset="0.69" stop-color="#292627"/><stop offset="1" stop-color="#231f20"/></linearGradient><linearGradient id="linear-gradient-9" x1="427.28" y1="20.59" x2="451.12" y2="20.59" xlink:href="#linear-gradient"/><linearGradient id="linear-gradient-10" x1="449.53" y1="8.87" x2="450.89" y2="8.87" gradientTransform="matrix(1, 0, 0, 1, 0, 0)" xlink:href="#linear-gradient"/><linearGradient id="linear-gradient-11" x1="124.21" y1="167.22" x2="149.74" y2="170.79" gradientTransform="matrix(0.9, 0.44, -0.44, 0.9, 85.09, -41.64)" gradientUnits="userSpaceOnUse"><stop offset="0" stop-color="#808285"/><stop offset="0.31" stop-color="#59585b"/><stop offset="0.6" stop-color="#3b393b"/><stop offset="0.84" stop-color="#292627"/><stop offset="1" stop-color="#231f20"/></linearGradient><linearGradient id="linear-gradient-12" x1="153.67" y1="123.55" x2="163.15" y2="138.72" gradientTransform="matrix(1, 0, 0, 1, 0, 0)" xlink:href="#linear-gradient"/><linearGradient id="linear-gradient-13" x1="310.11" y1="258.87" x2="330.42" y2="258.87" gradientTransform="matrix(1, 0, 0, 1, 0, 0)" xlink:href="#linear-gradient"/><linearGradient id="linear-gradient-14" x1="289.58" y1="241.6" x2="301.08" y2="241.6" gradientTransform="matrix(1, 0, 0, 1, 0, 0)" xlink:href="#linear-gradient"/><linearGradient id="linear-gradient-15" x1="375.78" y1="130.7" x2="359.69" y2="150.58" gradientUnits="userSpaceOnUse"><stop offset="0" stop-color="#c7c8ca"/><stop offset="0.16" stop-color="#b9b9bb"/><stop offset="0.46" stop-color="#939395"/><stop offset="0.86" stop-color="#575658"/><stop offset="1" stop-color="#414042"/></linearGradient><linearGradient id="linear-gradient-16" x1="362.1" y1="128.42" x2="359.36" y2="142.52" xlink:href="#linear-gradient-15"/><linearGradient id="linear-gradient-17" x1="357.82" y1="140.64" x2="354.93" y2="140.64" xlink:href="#linear-gradient-15"/><linearGradient id="linear-gradient-18" x1="379.73" y1="141.99" x2="376.63" y2="141.99" gradientTransform="translate(756.49 284.63) rotate(-179.71)" xlink:href="#linear-gradient-15"/><linearGradient id="linear-gradient-19" x1="369.63" y1="131.78" x2="366.06" y2="150.17" xlink:href="#linear-gradient-15"/><linearGradient id="linear-gradient-20" x1="368.57" y1="142.35" x2="367" y2="150.42" xlink:href="#linear-gradient-15"/><linearGradient id="linear-gradient-21" x1="341.71" y1="128.84" x2="331.63" y2="141.29" gradientTransform="matrix(-1, 0, 0, 1, 673.21, 0)" xlink:href="#linear-gradient-15"/><linearGradient id="linear-gradient-22" x1="335.1" y1="126.04" x2="333.11" y2="136.29" gradientTransform="matrix(-1, 0, 0, 1, 673.21, 0)" xlink:href="#linear-gradient-15"/><linearGradient id="linear-gradient-23" x1="333.17" y1="135.07" x2="332.15" y2="135.07" gradientTransform="matrix(-1, 0, 0, 1, 673.21, 0)" xlink:href="#linear-gradient-15"/><linearGradient id="linear-gradient-24" x1="417.14" y1="147.39" x2="416.05" y2="147.39" gradientTransform="matrix(1, -0.01, -0.01, -1, -83.29, 284.63)" xlink:href="#linear-gradient-15"/><linearGradient id="linear-gradient-25" x1="338.03" y1="128.49" x2="335.38" y2="142.15" gradientTransform="matrix(-1, 0, 0, 1, 673.21, 0)" xlink:href="#linear-gradient-15"/><linearGradient id="linear-gradient-26" x1="337.02" y1="137" x2="335.98" y2="142.31" gradientTransform="matrix(-1, 0, 0, 1, 673.21, 0)" xlink:href="#linear-gradient-15"/><radialGradient id="radial-gradient" cx="365.79" cy="178.65" r="15.56" gradientTransform="matrix(1, 0, 0, 1, 0, 0)" xlink:href="#linear-gradient"/><radialGradient id="radial-gradient-2" cx="368.6" cy="166.46" r="22.67" xlink:href="#linear-gradient-15"/><radialGradient id="radial-gradient-3" cx="368.76" cy="164.13" r="22.81" xlink:href="#linear-gradient-15"/><radialGradient id="radial-gradient-4" cx="369.03" cy="161.94" r="22.85" xlink:href="#linear-gradient-15"/><radialGradient id="radial-gradient-5" cx="390.03" cy="160.25" r="8.21" gradientTransform="translate(0 45.54) scale(1 0.71)" xlink:href="#linear-gradient-15"/><radialGradient id="radial-gradient-6" cx="390.59" cy="157.79" r="8.21" gradientTransform="translate(4.84 45.54) scale(0.99 0.71)" xlink:href="#linear-gradient-15"/><radialGradient id="radial-gradient-7" cx="390.8" cy="155.32" r="8.21" gradientTransform="translate(4.42 45.54) scale(0.99 0.71)" xlink:href="#linear-gradient-15"/><radialGradient id="radial-gradient-8" cx="391.42" cy="152.74" r="8.21" gradientTransform="translate(9.85 45.54) scale(0.97 0.71)" xlink:href="#linear-gradient-15"/><radialGradient id="radial-gradient-9" cx="391.26" cy="150.63" r="8.21" gradientTransform="translate(3.49 45.54) scale(0.99 0.71)" xlink:href="#linear-gradient-15"/><radialGradient id="radial-gradient-10" cx="391.42" cy="148.16" r="8.21" gradientTransform="translate(0 45.54) scale(1 0.71)" xlink:href="#linear-gradient-15"/><radialGradient id="radial-gradient-11" cx="391.64" cy="145.7" r="8.21" gradientTransform="translate(0 45.54) scale(1 0.71)" xlink:href="#linear-gradient-15"/><radialGradient id="radial-gradient-12" cx="391.96" cy="143.11" r="8.21" gradientTransform="translate(4.95 45.54) scale(0.99 0.71)" xlink:href="#linear-gradient-15"/><radialGradient id="radial-gradient-13" cx="392.64" cy="140.92" r="8.21" gradientTransform="translate(23.81 45.54) scale(0.94 0.71)" xlink:href="#linear-gradient-15"/><radialGradient id="radial-gradient-14" cx="393.2" cy="138.45" r="8.21" gradientTransform="translate(0 45.54) scale(1 0.71)" xlink:href="#linear-gradient-15"/><radialGradient id="radial-gradient-15" cx="393.41" cy="135.98" r="8.21" gradientTransform="translate(0 45.54) scale(1 0.71)" xlink:href="#linear-gradient-15"/><radialGradient id="radial-gradient-16" cx="394.02" cy="133.4" r="8.21" gradientTransform="translate(0 45.54) scale(1 0.71)" xlink:href="#linear-gradient-15"/><radialGradient id="radial-gradient-17" cx="394.37" cy="130.65" r="8.21" gradientTransform="translate(0 45.54) scale(1 0.71)" xlink:href="#linear-gradient-15"/><radialGradient id="radial-gradient-18" cx="394.93" cy="128.19" r="8.21" gradientTransform="translate(0 45.54) scale(1 0.71)" xlink:href="#linear-gradient-15"/><radialGradient id="radial-gradient-19" cx="395.14" cy="125.72" r="8.21" gradientTransform="translate(0 45.54) scale(1 0.71)" xlink:href="#linear-gradient-15"/><radialGradient id="radial-gradient-20" cx="395.76" cy="123.14" r="8.21" gradientTransform="translate(17.83 45.54) scale(0.95 0.71)" xlink:href="#linear-gradient-15"/><radialGradient id="radial-gradient-21" cx="392.03" cy="160.89" r="8.21" gradientTransform="matrix(1, 0, 0, -0.71, -43.86, 275.25)" xlink:href="#linear-gradient-15"/><radialGradient id="radial-gradient-22" cx="392.61" cy="158.42" r="8.21" gradientTransform="matrix(0.99, 0, 0, -0.71, -39.84, 271.73)" xlink:href="#linear-gradient-15"/><radialGradient id="radial-gradient-23" cx="392.82" cy="155.96" r="8.21" gradientTransform="matrix(0.99, 0, 0, -0.71, -40.7, 268.21)" xlink:href="#linear-gradient-15"/><radialGradient id="radial-gradient-24" cx="393.46" cy="153.37" r="8.21" gradientTransform="matrix(0.97, 0, 0, -0.71, -36.17, 264.52)" xlink:href="#linear-gradient-15"/><radialGradient id="radial-gradient-25" cx="393.27" cy="151.27" r="8.21" gradientTransform="matrix(0.99, 0, 0, -0.71, -42.6, 261.51)" xlink:href="#linear-gradient-15"/><radialGradient id="radial-gradient-26" cx="393.41" cy="148.8" r="8.21" gradientTransform="matrix(1, 0, 0, -0.71, -46.62, 257.99)" xlink:href="#linear-gradient-15"/><radialGradient id="radial-gradient-27" cx="393.63" cy="146.34" r="8.21" gradientTransform="matrix(1, 0, 0, -0.71, -47.06, 254.47)" xlink:href="#linear-gradient-15"/><radialGradient id="radial-gradient-28" cx="393.98" cy="143.75" r="8.21" gradientTransform="matrix(0.99, 0, 0, -0.71, -42.47, 250.78)" xlink:href="#linear-gradient-15"/><radialGradient id="radial-gradient-29" cx="394.77" cy="141.56" r="8.21" gradientTransform="matrix(0.94, 0, 0, -0.71, -23.8, 247.65)" xlink:href="#linear-gradient-15"/><radialGradient id="radial-gradient-30" cx="395.19" cy="139.09" r="8.21" gradientTransform="matrix(1, 0, 0, -0.71, -50.18, 244.12)" xlink:href="#linear-gradient-15"/><radialGradient id="radial-gradient-31" cx="395.4" cy="136.62" r="8.21" gradientTransform="matrix(1, 0, 0, -0.71, -50.61, 240.6)" xlink:href="#linear-gradient-15"/><radialGradient id="radial-gradient-32" cx="396.02" cy="134.04" r="8.21" gradientTransform="matrix(1, 0, 0, -0.71, -51.83, 236.91)" xlink:href="#linear-gradient-15"/><radialGradient id="radial-gradient-33" cx="396.37" cy="131.29" r="8.21" gradientTransform="matrix(1, 0, 0, -0.71, -52.54, 232.99)" xlink:href="#linear-gradient-15"/><radialGradient id="radial-gradient-34" cx="396.93" cy="128.82" r="8.21" gradientTransform="matrix(1, 0, 0, -0.71, -53.65, 229.47)" xlink:href="#linear-gradient-15"/><radialGradient id="radial-gradient-35" cx="397.14" cy="126.36" r="8.21" gradientTransform="matrix(1, 0, 0, -0.71, -54.08, 225.95)" xlink:href="#linear-gradient-15"/><radialGradient id="radial-gradient-36" cx="397.85" cy="123.77" r="8.21" gradientTransform="matrix(0.95, 0, 0, -0.71, -36.4, 222.26)" xlink:href="#linear-gradient-15"/><linearGradient id="linear-gradient-27" x1="407.82" y1="130.31" x2="397.75" y2="142.75" xlink:href="#linear-gradient-15"/><linearGradient id="linear-gradient-28" x1="401.22" y1="127.5" x2="399.23" y2="137.75" xlink:href="#linear-gradient-15"/><linearGradient id="linear-gradient-29" x1="399.29" y1="136.53" x2="398.27" y2="136.53" xlink:href="#linear-gradient-15"/><linearGradient id="linear-gradient-30" x1="351.02" y1="146.26" x2="349.93" y2="146.26" gradientTransform="translate(756.49 284.63) rotate(-179.71)" xlink:href="#linear-gradient-15"/><linearGradient id="linear-gradient-31" x1="404.15" y1="129.96" x2="401.5" y2="143.61" xlink:href="#linear-gradient-15"/><linearGradient id="linear-gradient-32" x1="403.13" y1="138.47" x2="402.1" y2="143.78" xlink:href="#linear-gradient-15"/><linearGradient id="linear-gradient-33" x1="504.58" y1="138.18" x2="522.66" y2="138.18" gradientTransform="matrix(1, 0, 0, 1, 0, 0)" xlink:href="#linear-gradient"/><linearGradient id="linear-gradient-34" x1="476.4" y1="84.2" x2="504.58" y2="84.2" gradientTransform="matrix(1, 0, 0, 1, 0, 0)" xlink:href="#linear-gradient"/><linearGradient id="linear-gradient-35" x1="468.67" y1="41.97" x2="477.27" y2="41.97" gradientTransform="matrix(1, 0, 0, 1, 0, 0)" xlink:href="#linear-gradient"/><linearGradient id="linear-gradient-36" x1="356.17" y1="201.12" x2="359.55" y2="239.71" gradientUnits="userSpaceOnUse"><stop offset="0" stop-color="#c9cacc"/><stop offset="0.15" stop-color="#a5a5a7" stop-opacity="0.78"/><stop offset="0.37" stop-color="#777677" stop-opacity="0.51"/><stop offset="0.57" stop-color="#535052" stop-opacity="0.29"/><stop offset="0.75" stop-color="#393536" stop-opacity="0.13"/><stop offset="0.9" stop-color="#292526" stop-opacity="0.03"/><stop offset="1" stop-color="#231f20" stop-opacity="0"/></linearGradient><linearGradient id="linear-gradient-37" x1="192.08" y1="210.89" x2="186.41" y2="275.73" gradientTransform="matrix(1, 0, 0, 1, 0, 0)" xlink:href="#linear-gradient"/><linearGradient id="linear-gradient-38" x1="146.23" y1="206.88" x2="143.68" y2="236.02" gradientTransform="matrix(1, 0, 0, 1, 0, 0)" xlink:href="#linear-gradient"/></defs><g class="cls-1"><g id="Layer_2" data-name="Layer 2"><g id="Brat_Vector" data-name="Brat Vector"><polygon points="405.77 146.55 366.45 143.24 336.44 146.29 336.54 168.25 339.53 168.25 337.43 200.09 390.9 210.87 396.1 168.25 402.03 168.25 405.77 146.55"/><path class="cls-2" d="M86.57,86.51l-1.28.67a.79.79,0,0,0-.55.68c-.07.56-.48,14.13-.48,14.13s.1.22.69.42l.58.2Z"/><path d="M101.23,90.41a14.83,14.83,0,0,0-4.8-.37L94.9,88.67c-.07-.89-.19-1.78-.35-2.68a1.48,1.48,0,0,0-1.23-1.19c-1.58-.23-4.55-.54-6,.18-1.66.83-1.81,13.36-1.81,17.63A1.46,1.46,0,0,0,87,104.07a42.81,42.81,0,0,0,4.59,0,1,1,0,0,0,.36-.17c-.06,3,.19,6.11,1.46,6.67,2.47,1.08,2.66-2.47,2.66-2.47a32.56,32.56,0,0,1,0-5.1,19.21,19.21,0,0,0,0-3.83,1.48,1.48,0,0,1,1.29-1.54l2.88-.37a1.46,1.46,0,0,0,.94-.52c.28-.34.68-.8,1-1.15s.24-2.72.1-3.91A1.46,1.46,0,0,0,101.23,90.41Z"/><path d="M133.21,112.88c-2.37-1.1-5.66-4.19-9.78-8.07-1.42-1.34-3-2.77-4.57-4.25-6.19-5.65-17.39-6.92-17.5-6.93l.18-1.65c.48,0,11.86,1.35,18.44,7.35,1.63,1.49,3.16,2.93,4.58,4.27,4.17,3.92,7.46,7,9.56,7.87l-.63,1.53A1.69,1.69,0,0,1,133.21,112.88Z"/><path class="cls-3" d="M86.6,98s4.13.48,4.9,0,.71-1.36,1-3c.12,1.51.77,3.57-1.17,4.09a16.55,16.55,0,0,1-5.22,0S85.38,97.89,86.6,98Z"/><path class="cls-3" d="M92,93.65s.22-5,1.07-7.31a4.65,4.65,0,0,1,.33-.7c.69-.73.39.49.39.49A21.35,21.35,0,0,0,92.4,92.5C92.5,93.68,92,93.65,92,93.65Z"/><path class="cls-3" d="M100.51,96a7.13,7.13,0,0,1,.43-4,3.82,3.82,0,0,1,.33-.7c.68-.72.38.5.38.5s-.75.16-.77,3C101,96,100.51,96,100.51,96Z"/><path class="cls-4" d="M86.29,87.86H93s-1,6.38-.39,9.77c-.34,1-2,1.48-2.94,1.36s-4.1-.39-4.1-.39S85.75,90.05,86.29,87.86Z"/><path class="cls-3" d="M93.72,95.54l6-.23s.3,0,.73-1.66.33-2.52.77-2.36-.74,2.75-.75,3.7.12.88-1.78,1S92.57,96.83,93.72,95.54Z"/><path class="cls-4" d="M93.72,95.54s-.91-3,.16-4.48c1-.18,7.39.23,7.39.23a26.38,26.38,0,0,0-.87,4.11C99.45,95.33,93.72,95.54,93.72,95.54Z"/><ellipse class="cls-5" cx="93.07" cy="92.63" rx="0.11" ry="0.65"/><path class="cls-6" d="M84.37,98.37l1.2.24,0,4a3.33,3.33,0,0,1-1.16-.5c-.11-.12-.14-.16-.11-.59S84.37,98.37,84.37,98.37Z"/><path class="cls-7" d="M216.12,120.26l3,11.59a5.49,5.49,0,0,0,3.07,1.22c2,.21,52.11-1,52.11-1s1,.21,2.06-1.31,2.39-12.5,2.39-12.5Z"/><path class="cls-8" d="M282,266.62,273.5,266l4.88-70.22c.18-1.9,4.57-46.68,13.63-62.92,9.65-17.31,40.13-21.53,41.43-21.71l1.12,8.43c-7.64,1-28.84,6.15-35.13,17.42-8.06,14.46-12.41,57.75-12.58,59.54Z"/><path d="M71.33,118.48s34.77-20.9,69.46-15.27,66.42,15.46,77.44,61.78c8.89,31.79,2.8,45.44,2.8,45.44l-17.74-15.52s.69-43.45-38.47-65.51c-17.79-8.6-57.55-9.14-72.24-3.81C89.19,126.82,71.33,118.48,71.33,118.48Z"/><path class="cls-9" d="M74.64,118.48l10,3.15s20.82-10.68,64.07-5.48c21.74,3.41,38.54,13.07,50.16,35.31,8.5,16.84,15.14,26.69,13.27,42.65,1.45,4.68,3.32,7.91,5,5.46s4.05-13.43-1-28.16-10.54-33-23.24-43.76c-12.08-10.37-24.82-15.56-56.09-20.74C124.38,105.66,111.18,104.13,74.64,118.48Z"/><path class="cls-10" d="M522.66,55.5s5.17,2.56,5.67,14.06,0,25.34,0,25.34-1.3,3.85-3.53,4.62S521.07,74,521.07,74Z"/><path class="cls-11" d="M516.88,54.16s-11.4.86-19.54,14.07S499.2,95.28,505,97.38a62.67,62.67,0,0,0,13.29,2.8A205.56,205.56,0,0,0,516.88,54.16Z"/><path class="cls-12" d="M516.58,57.88a45,45,0,0,0-15.06,7.68c-2.23,2.49-1.47,8.09-1.47,8.09s2.8,4.64,4.53,4.92,12.12-1.43,12.12-1.43Z"/><path class="cls-11" d="M518.27,100.18s.18,2.27,5.48,2.08c1.7-1.51,1.51-10.2,1.51-10.2s-.18-33.45-3.49-38.93c-2-2.27-5.13-.68-4.89,1S518.27,100.18,518.27,100.18Z"/><path d="M395.15,51.49s.91-3.07,3.34-3.61,25-3.77,25-3.77,4.34.21,4,4.33S395.15,51.49,395.15,51.49Z"/><path class="cls-13" d="M457.57,24.62a20.64,20.64,0,0,1,0,5.33A5.93,5.93,0,0,1,455.75,33s-13.31,6-17.18,11.45c-.19.62.57,2-.65,2.7s-2.84,0-2.19-1.55,6.35-7.6,11.1-10.5c2.19-1.24,6.53-3.31,7.08-4.71.26-1.06.2-4.28-.3-5.12A10.45,10.45,0,0,1,457.57,24.62Z"/><path class="cls-14" d="M438.57,44.45s.93-2.89,7.25-7.12l9.22-5a4.75,4.75,0,0,0,1.86-3.13,15.82,15.82,0,0,0,0-2.31l.87-1.14s.14,4.47-.75,5.67-.87,1.51-4.06,2.92-4.66,2.08-11.5,7.06A39.65,39.65,0,0,0,438.57,44.45Z"/><path class="cls-15" d="M441,40a38.15,38.15,0,0,1,7.14-5.4,30,30,0,0,0,5.92-3.77,3.24,3.24,0,0,0,.48-2.76,2.65,2.65,0,0,1-.71,3.85A150.44,150.44,0,0,0,441,40Z"/><path class="cls-16" d="M452.66,28.65S462.58,23,466.07,30s6.35,17.9,6.35,17.9l7.5-4-6.27-18.77s-4.51-10.92-17.44-5.76-11.67,4.37-11.67,4.37Z"/><path d="M414.79,37.2l26.68-13.43s6,1.52,5.1,7.75c-6.61,3.41-25.62,14-25.62,14S413.83,44.57,414.79,37.2Z"/><path d="M440,26.69s-2.18-6.05,2.94-7.94c4.64-1.71,9,4,9.65,9s-4.51,9.18-9,4.28C440.52,28.77,440,26.69,440,26.69Z"/><path d="M456.21,19.4s3.54,5.06,2.93,7.11-6.47,3-6.47,3a12.09,12.09,0,0,0-3.69-9C450,19,454.71,17,456.21,19.4Z"/><path d="M453.14,24.92s2.45,2.22,3.13,2.23,2.37-1.62,1.93-3S453.14,24.92,453.14,24.92Z"/><path class="cls-14" d="M451.25,21.36s3.34,3.16,5,3.16,8.14-.63,10.47,2.86,7.51,19,7.51,19l-2.09.92S468.88,35.15,466,29.81c-.55-1.21-3.33-5-9.68-2.66s-5,1.81-5,1.81L449,22.24Z"/><path class="cls-15" d="M451.49,23.87s11.46-4.64,15.62-1.65,10.71,16.36,12.48,20.72C477,35.1,473.32,24.5,473.32,24.5s-3.13-6.25-10.1-6.48c-4.7-.06-13,3.75-13,3.75Z"/><path class="cls-15" d="M445,19.79s-.27-1.15.71-.82,5.13,1.86,6.28,8.51c.21.66-.44.88-.55.28S450.91,22.52,445,19.79Z"/><path class="cls-17" d="M416,37.47s2.73,3.14,4.2,3.22C421.29,40.74,445,28.3,445,28.3s1-1.58-1.71-3.38c1,.34,3.81,1.68,1.88,5.56-1.12.66-24,12.71-24,12.71Z"/><ellipse class="cls-15" cx="436.5" cy="46.29" rx="0.5" ry="0.78"/><ellipse class="cls-15" cx="418.34" cy="41.74" rx="1.73" ry="4.37" transform="translate(50.71 245.7) rotate(-34.72)"/><path class="cls-18" d="M480.29,43.93l-.33-1h0L474,25.16a6.27,6.27,0,0,0-.33-.66h0s-.1-.2-.29-.52a12.27,12.27,0,0,0-7.24-5.58l-.36-.08-.54-.11c-.34-.06-.7-.11-1.07-.14l-.33,0-.27,0a1.15,1.15,0,0,0-.26,0,17.2,17.2,0,0,0-6.75,1.37c-1.5-2.44-6.2-.38-7.24,1-1.7-1.64-3.82-2.49-6-1.69-3.21,1.19-3.54,4-3.34,6L415.16,37.2c-.64,4.86,2.25,6.92,4.28,7.76a2.1,2.1,0,0,0,1.47.47,4.16,4.16,0,0,0,.41.08s15.43-8.59,23.32-12.78a5.19,5.19,0,0,0,4.21,1.47c-.61.33-1.18.63-1.65.9C442.45,38,436.75,44,436.1,45.6s1,2.28,2.18,1.55.47-2.08.66-2.7c0,0,1-1.2,2-2.22.6-.54,1.26-1.09,2-1.62s1.57-1.13,2.25-1.59a79.35,79.35,0,0,1,8.14-4.67,22.37,22.37,0,0,0,2.19-1.08l.6-.27a6.68,6.68,0,0,0,1.25-1.54l0,0a2.16,2.16,0,0,0,.28-.59A4.22,4.22,0,0,0,458,30a14.19,14.19,0,0,0,.17-2.06,2.76,2.76,0,0,0,1.34-1.32,7.41,7.41,0,0,1,4.81,1,5.59,5.59,0,0,1,.82.65h0c.11.1.21.21.31.31a3.11,3.11,0,0,1,.23.28l.07.08a7,7,0,0,1,.57.88l0,.07.24.44c.54,1.11,1.07,2.31,1.58,3.55,2.32,5.84,4.39,13.54,4.39,13.54l.09,0,.17.61ZM450.52,21.79c-.23-.31-.47-.61-.72-.89.27.29.53.58.76.87ZM453,28.64h0a6.09,6.09,0,0,1,0,.84s.58-.09,1.38-.28a6.49,6.49,0,0,1-.13,1.19c-.26.67-1.4,1.49-2.75,2.31A6.15,6.15,0,0,0,453,28.64Z"/><path d="M558.74,239.46c-18.7-5.88-35.1-16.29-46.19-29.28s-15.7-27.41-12.75-40.29c5.71-24.95-1.61-53.41-2.25-55.8-8.53-6.56-12.92-13.68-13-21.15-.17-11.33,9.46-19.28,9.87-19.61,12.18-9.61,18.75-19,18-25.68-.32-3-2-5.29-5.15-6.81-8.07-4-21.45-3.65-33.25-3.38-7.27.17-14.13.33-18.9-.53-12.69-2.29-14.06-19.41-14.07-19.59l1-.07c0,.17,1.33,16.52,13.25,18.67,4.67.85,11.48.69,18.69.52,11.92-.27,25.43-.59,33.72,3.48,3.38,1.66,5.35,4.29,5.7,7.61.76,7.16-5.77,16.59-18.41,26.56-.09.07-9.65,8-9.49,18.82.11,7.19,4.41,14.08,12.77,20.47l.14.1,0,.16c.08.3,8.3,30.26,2.3,56.45-2.88,12.56,1.58,26.56,12.54,39.42s27.21,23.15,45.73,29Z"/><path d="M496.74,69.59l-.41-.93c12.18-9.6,19.92-20.45,19.21-27.16-.32-3-2-5.29-5.15-6.81-8.07-4-21.45-3.65-33.25-3.38-7.27.17-14.13.33-18.9-.54-12.69-2.29-14.06-19.4-14.07-19.58l1-.07c0,.17,1.33,16.52,13.25,18.67,4.67.85,11.48.69,18.69.52,11.92-.28,25.43-.59,33.73,3.48,3.37,1.66,5.34,4.29,5.69,7.6C517.29,48.56,509.37,59.62,496.74,69.59Z"/><path class="cls-19" d="M446.05,12.18s11.36-6.43,15.35,1.56,7.27,20.5,7.27,20.5l8.6-4.56L470.09,8.19s-5.17-12.51-20-6.61-13.37,5-13.37,5Z"/><polygon points="338.23 163.72 292.38 163.72 292.38 146.29 336.44 146.29 338.23 163.72"/><polygon class="cls-20" points="305.94 145.52 309.54 134.58 325.63 134.58 328.33 145.52 305.94 145.52"/><polygon class="cls-20" points="305.95 164.43 309.55 175.37 325.64 175.37 328.34 164.43 305.95 164.43"/><path class="cls-21" d="M151.52,116.43h0a2.15,2.15,0,0,0,2.15,2.15l289.9,1.68,7.23,12.3L394.61,268.23,409,262.34l59.51-143.86s2.14-8.13,13.38-8.13,15.25,5.89,15.25,5.89L503,113.3,478.09,55.5s-6.42,14.59-19.8,3.82C447.05,74,276.07,108.21,276.07,108.21l-121,5.51a2.29,2.29,0,0,0-.68.14l-1.47.56A2.14,2.14,0,0,0,151.52,116.43Z"/><path class="cls-22" d="M164.92,89.58H302.54l-8.22,25.83H156.14a6.07,6.07,0,0,1-4.51-2c-4.19-4.63-15.58-16.1-29.82-21.33a6.08,6.08,0,0,1-1.88-10.28l3.95-3.43a12.53,12.53,0,0,1,13-2.08,57.8,57.8,0,0,1,14,8.41A22.39,22.39,0,0,0,164.92,89.58Z"/><path class="cls-23" d="M516.88,54.16l1.91,36.44s3.81,4.93,6.43-2.13c0,2.53.3,8.4-.55,11.71s-1.23,2-4.23,1.78-2.17-1.78-2.17-1.78-8.21-.85-11.08-2.48S495.83,72,495.83,72s-.42-1.74,4.22-7.58c-.8,3.9,3.81,16.55,8.11,17s7.36.26,8.19-1.4S516.88,54.16,516.88,54.16Z"/><path d="M573.24,190.21A60.24,60.24,0,1,1,513,250.45a60.3,60.3,0,0,1,60.23-60.24m0-28.35a88.59,88.59,0,1,0,88.59,88.59,88.58,88.58,0,0,0-88.59-88.59Z"/><path d="M85.59,197.94A51.58,51.58,0,1,1,34,249.52a51.64,51.64,0,0,1,51.57-51.58m0-34a85.59,85.59,0,1,0,85.59,85.59,85.59,85.59,0,0,0-85.59-85.59Z"/><circle class="cls-24" cx="84.62" cy="246.69" r="34.19"/><path class="cls-25" d="M292,132.9s1.73,4.48,4.92,2.68,9.72-12.19,17.48-14.63S318,116.7,318,116.7l20.23,1.54s-20.7,3.47-32.3,11.88c-4.09,3.62-5.6,4.43-7.67,9.29-1.86,2.68-.46,7.74-.46,7.74l-5.42-.86-3.27-6.88Z"/><polygon class="cls-26" points="468.67 37.53 563.43 259.69 570.29 263.12 576.64 260.05 576.64 252.43 480.73 32.96 468.67 37.53"/><polygon class="cls-11" points="517.85 160.89 536.19 152.91 544 170.36 543.22 172.17 578.32 251.73 578.32 261.44 570.38 265.5 561.88 260.69 527.48 179.53 525.52 179.04 517.85 160.89"/><rect class="cls-27" x="501.71" y="28.72" width="4.1" height="132.37" transform="translate(3.19 205.38) rotate(-23.11)"/><path class="cls-14" d="M100.56,216.74,88,234.93s-2,2.76,1.58,5.92,7.5-.92,7.5-.92l11.37-18S102.54,217.61,100.56,216.74Z"/><path d="M75.67,248.29c-1.06,1.2-3.93,12.09,9,9.26s141.2-39,141.2-39l-5.32-11.35L82.14,245.84S76.74,247.08,75.67,248.29Z"/><path class="cls-28" d="M99.4,215.84,86.82,234s-2,2.76,1.58,5.92,7.5-.92,7.5-.92l11.37-18S101.38,216.71,99.4,215.84Z"/><circle class="cls-14" cx="92.4" cy="234.75" r="2.61"/><circle class="cls-29" cx="92.58" cy="234.59" r="2.34"/><polygon class="cls-30" points="102.44 217.6 104.95 219.19 167.5 120.25 164 120.25 102.44 217.6"/><polygon points="496.74 115.96 500.44 123.69 518.7 115.36 514.97 107.21 496.74 115.96"/><polygon points="470.09 48.63 473.85 56.82 491.19 48.98 487.47 41.16 470.09 48.63"/><path class="cls-25" d="M281,175.37l.7,2.68s.95-5.22,2.24-5.83,3.8-.17,4.57,1.13c.18,1.64-3.65,18.54-3.07,22.43.74.34,1.45-1.22,1.45-1.22s2.66-19.68,3.35-23.16-8.09-3.14-8.09-3.14Z"/><path d="M403.33,148.4H333.75l-1.57-16.35s3.48-7.17,5.26-9.28c3.63.07,62.57,0,62.57,0l6,10.07"/><polygon class="cls-31" points="287.55 162.37 286.86 145.56 286.67 138.53 294.33 138.53 297.4 171.41 287.58 171.41 287.55 171.4 287.31 162.32 287.55 162.37"/><polygon class="cls-32" points="287.55 171.4 269.67 161.08 269.67 158.59 287.31 162.32 287.55 171.4"/><polygon class="cls-32" points="286.86 145.56 269.67 152.5 269.67 148.5 286.67 138.53 286.86 145.56 286.86 145.56"/><polygon class="cls-30" points="287.31 162.32 286.86 145.56 287.55 162.37 287.31 162.32"/><polygon class="cls-21" points="287.11 154.83 269.67 155.41 269.67 152.5 286.86 145.56 286.86 145.56 287.31 162.32 269.67 158.59 269.67 155.41 287.11 154.83"/><path class="cls-33" d="M270,241.6s6.62-36.11,30.18-41.19c34.38-7.41,65.21,4.2,96.82,11.44,8.67,2.68,11.34,13.83,2.89,34.09-8.44,19.13-5,19.61-15.66,19.56s-103-1.18-103-1.18S268.18,253,270,241.6Z"/><rect class="cls-32" x="305.46" y="148.08" width="23.37" height="13.78"/><rect class="cls-20" x="304.04" y="161.88" width="26.56" height="3.59"/><rect class="cls-20" x="303.86" y="144.5" width="26.56" height="3.59"/><polygon class="cls-34" points="488.3 50.28 479.6 56.6 492.18 92.64 476.4 55.66 488.3 50.28"/><polygon class="cls-14" points="517.06 116.15 507.54 122.39 520.56 159.25 504.58 121.8 517.06 116.15"/><polygon points="520.75 159.63 528.44 176.39 544 170.36 543.22 172.17 529.97 178.05 563.13 255.28 569.3 254.4 578.32 261.44 570.38 265.5 561.88 260.69 527.48 179.53 525.52 179.04 517.85 160.89 520.75 159.63"/><circle class="cls-29" cx="569.3" cy="254.4" r="3.95"/><polygon class="cls-35" points="528.21 157.64 534.18 155.27 540.73 170.26 534.37 172.74 528.21 157.64"/><polygon class="cls-35" points="536.01 176.38 541.54 174.13 576.64 252.43 568.51 250.53 536.01 176.38"/><path class="cls-36" d="M61.18,221.8s-3.7,37,17.1,44.91c6.34,1.52,19.84,5.46,38.34-7.94-1.3,3-9,23.81-36.6,21.8-15.1-1.88-24.93-12.6-28.59-25.65A32.69,32.69,0,0,1,61.18,221.8Z"/><path d="M402.67,22,433.22,6.6s6.93,1.73,5.85,8.87c-7.58,3.9-29.35,16-29.35,16S401.56,30.41,402.67,22Z"/><path d="M431.58,9.94S429.08,3,434.94.85c5.32-2,10.35,4.61,11.05,10.35s-5.16,10.51-10.35,4.9C432.14,12.32,431.58,9.94,431.58,9.94Z"/><polygon points="464.88 35.12 466.42 38.62 482.37 32.33 479.85 28.55 464.88 35.12"/><polygon class="cls-21" points="305.46 161.86 328.83 148.08 328.83 161.86 305.46 161.86"/><path class="cls-37" d="M302.65,138.54c.33.49,2.81,32.87,2.81,32.87h-7.27s-2.81-33-3.31-32.87S302.65,138.54,302.65,138.54Z"/><polygon class="cls-9" points="304.04 145.53 330.42 145.53 330.42 144.5 303.86 144.5 304.04 145.53"/><polygon class="cls-9" points="304.79 162.84 330.6 162.84 330.6 161.88 304.71 161.88 304.79 162.84"/><path d="M450.11,1.58s4.05,5.8,3.35,8.15-7.41,3.4-7.41,3.4a13.81,13.81,0,0,0-4.23-10.35C443,1.16,448.39-1.21,450.11,1.58Z"/><path class="cls-38" d="M451.67,7.56a23.65,23.65,0,0,1,0,6.11,6.85,6.85,0,0,1-2.11,3.49s-15.24,6.89-19.68,13.12c-.21.71.66,2.27-.75,3.1s-3.25,0-2.5-1.79,7.28-8.7,12.71-12c2.51-1.42,7.48-3.79,8.12-5.4.29-1.22.23-4.9-.35-5.85A12,12,0,0,1,451.67,7.56Z"/><path d="M446.59,7.91s2.81,2.54,3.59,2.55,2.71-1.85,2.21-3.4S446.59,7.91,446.59,7.91Z"/><circle class="cls-39" cx="450.21" cy="8.87" r="0.68"/><polygon class="cls-40" points="128.6 201.34 106.99 198.35 142.28 134.97 159.8 141.56 128.6 201.34"/><path class="cls-31" d="M137.63,188.83a2.89,2.89,0,0,1-.65-.08l-23.82-5.51a2.83,2.83,0,1,1,1.28-5.52l23.82,5.51a2.84,2.84,0,0,1-.63,5.6Z"/><path class="cls-31" d="M142.65,181a2.88,2.88,0,0,1-.65-.07l-23.82-5.51a2.83,2.83,0,1,1,1.28-5.52l23.82,5.51a2.83,2.83,0,0,1-.63,5.59Z"/><path class="cls-31" d="M146.88,174.36a2.85,2.85,0,0,1-.64-.07l-23.82-5.51a2.83,2.83,0,1,1,1.27-5.52l23.83,5.5a2.84,2.84,0,0,1-.64,5.6Z"/><path class="cls-31" d="M151.22,166.74a2.79,2.79,0,0,1-.64-.07l-23.83-5.51a2.83,2.83,0,1,1,1.28-5.52l23.83,5.5a2.84,2.84,0,0,1-.64,5.6Z"/><path class="cls-31" d="M128.61,204.18a2.73,2.73,0,0,1-.64-.07l-23.83-5.51a2.83,2.83,0,1,1,1.28-5.52l23.82,5.5a2.84,2.84,0,0,1-.63,5.6Z"/><path class="cls-31" d="M132.64,196.12a2.88,2.88,0,0,1-.65-.07l-23.82-5.51a2.83,2.83,0,1,1,1.28-5.52l23.82,5.51a2.83,2.83,0,0,1-.63,5.59Z"/><path class="cls-31" d="M118.9,220a2.85,2.85,0,0,1-.64-.07l-23.83-5.51a2.83,2.83,0,1,1,1.28-5.52l23.83,5.5a2.84,2.84,0,0,1-.64,5.6Z"/><path class="cls-41" d="M440.48,157.47l24.45-59.3L472,84.76l3.3-6.36,1.6-3.08s4.17-3,5.48,1.56a44.87,44.87,0,0,1,1.92,11.64c-1.92-2.15-2.76-10.42-7-8.08-2.55,5-33.1,78.15-33.1,78.15Z"/><path class="cls-31" d="M121.8,212.24a2.89,2.89,0,0,1-.65-.08l-23.82-5.5a2.84,2.84,0,0,1,1.28-5.53l23.82,5.51a2.84,2.84,0,0,1-.63,5.6Z"/><path class="cls-31" d="M154.86,159.53a2.87,2.87,0,0,1-.64-.08L130.4,154a2.84,2.84,0,0,1,1.27-5.53l23.83,5.51a2.84,2.84,0,0,1-.64,5.6Z"/><path class="cls-31" d="M159.8,151.46a2.87,2.87,0,0,1-.64-.08l-23.82-5.5a2.84,2.84,0,1,1,1.27-5.53l23.83,5.51a2.84,2.84,0,0,1-.64,5.6Z"/><path class="cls-31" d="M163.45,144.24a2.79,2.79,0,0,1-.64-.07L139,138.66a2.83,2.83,0,1,1,1.28-5.52l23.82,5.51a2.83,2.83,0,0,1-.63,5.59Z"/><polygon class="cls-42" points="164 120.25 159.8 120.25 158.08 123.69 149.71 126.02 144.67 134.58 163.45 138.53 164.82 129.4 163.95 125.88 167.5 120.25 164 120.25"/><circle class="cls-14" cx="156.09" cy="132.01" r="2.61"/><circle class="cls-29" cx="156.26" cy="131.85" r="2.34"/><g id="Brat_Shading" data-name="Brat Shading"><polygon class="cls-43" points="300.56 89.58 288.9 109.81 296.12 109.73 302.54 89.58 300.56 89.58"/><polygon class="cls-14" points="141.74 235.85 159.26 208.02 139.6 207.75 132.11 218.19 141.74 235.85"/><polygon class="cls-14" points="132.11 218.19 139.6 207.75 159.26 208.02 245.03 263.14 245.3 280.88 141.74 235.85 132.11 218.19"/><polygon class="cls-34" points="327.61 167.4 328.11 165.38 306.29 165.47 309.55 175.37 311.34 175.37 309.82 167.94 327.61 167.4"/><polygon class="cls-34" points="309.54 134.58 310.76 134.58 309.54 142.97 327.8 143.38 328.11 144.5 306.27 144.5 309.54 134.58"/><rect class="cls-34" x="303.86" y="144.5" width="6.25" height="3.59"/><rect class="cls-34" x="304.04" y="161.88" width="6.08" height="3.59"/><path class="cls-44" d="M301.85,92.3s-4-1.47-5.5,0-6.66,11.84-7.45,23.11c-1.59-7.07,4-21.49,5-23.76,0,0,.07-2.07-1.88-2.07h10.51Z"/><path class="cls-44" d="M292.19,89.58A9.87,9.87,0,0,0,286,92.3c-1.57,1.48-6.66,11.84-7.45,23.11-1.59-7.07,4-21.49,5-23.76,0,0,.07-2.07-1.88-2.07Z"/><path class="cls-44" d="M280.94,89.58a9.85,9.85,0,0,0-6.19,2.72c-1.58,1.48-6.67,11.84-7.46,23.11-1.59-7.07,4-21.49,5-23.76,0,0,.07-2.07-1.87-2.07Z"/><path class="cls-44" d="M268.18,89.58A9.87,9.87,0,0,0,262,92.3c-1.57,1.48-6.66,11.84-7.45,23.11-1.59-7.07,4-21.49,5-23.76,0,0,.07-2.07-1.88-2.07Z"/><path class="cls-44" d="M256.93,89.58a9.85,9.85,0,0,0-6.19,2.72c-1.58,1.48-6.67,11.84-7.46,23.11-1.59-7.07,4-21.49,5-23.76,0,0,.07-2.07-1.87-2.07Z"/><path class="cls-44" d="M246.22,89.58A9.85,9.85,0,0,0,240,92.3c-1.58,1.48-6.67,11.84-7.46,23.11-1.59-7.07,4-21.49,5-23.76,0,0,.07-2.07-1.87-2.07Z"/><path class="cls-44" d="M235,89.58a9.85,9.85,0,0,0-6.19,2.72c-1.58,1.48-6.67,11.84-7.46,23.11-1.59-7.07,4-21.49,5-23.76,0,0,.07-2.07-1.87-2.07Z"/><path class="cls-44" d="M222.21,89.58A9.85,9.85,0,0,0,216,92.3c-1.58,1.48-6.67,11.84-7.46,23.11-1.59-7.07,4-21.49,5-23.76,0,0,.07-2.07-1.87-2.07Z"/><path class="cls-44" d="M211,89.58a9.85,9.85,0,0,0-6.19,2.72c-1.57,1.48-6.67,11.84-7.46,23.11-1.59-7.07,4-21.49,5-23.76,0,0,.08-2.07-1.87-2.07Z"/><path class="cls-44" d="M199.84,89.58a9.87,9.87,0,0,0-6.19,2.72c-1.57,1.48-6.66,11.84-7.45,23.11-1.59-7.07,4-21.49,5-23.76,0,0,.07-2.07-1.88-2.07Z"/><path class="cls-44" d="M189.13,89.58a9.87,9.87,0,0,0-6.19,2.72c-1.57,1.48-6.66,11.84-7.45,23.11-1.59-7.07,4-21.49,5-23.76,0,0,.07-2.07-1.88-2.07Z"/><path class="cls-44" d="M177.88,89.58a9.85,9.85,0,0,0-6.19,2.72c-1.58,1.48-6.67,11.84-7.46,23.11-1.59-7.07,4-21.49,5-23.76,0,0,.07-2.07-1.87-2.07Z"/><path class="cls-44" d="M167.22,89.58A9.85,9.85,0,0,0,161,92.3c-1.57,1.48-6.66,11.84-7.46,23.11-1.58-7.07,4-21.49,5-23.76,0,0,.07-2.07-1.88-2.07Z"/><path class="cls-44" d="M156.83,89.8s-.76-1.17-4.66-.45c-1.21.23-4.77,3.85-11.38,13.86,3.44-6.37,4.92-11.61,10-15.95a1.91,1.91,0,0,0-.06-2.79l7.94,6.89Z"/><path class="cls-44" d="M148.45,82.92s-.92-1-4.68.23c-1.16.4-4.17,4.49-9.27,15.35,2.48-6.8,3.2-12.2,7.56-17.22a1.91,1.91,0,0,0-.46-2.75l8.85,5.68Z"/><path class="cls-44" d="M137.07,76.51s-1-1-4.4,1.11c-1,.65-4.24,4.27-6.72,16,.86-7.19,1.54-11.56,4.64-17.44a1.8,1.8,0,0,0-1.29-2.27,62.2,62.2,0,0,1,10,3.38Z"/><path class="cls-9" d="M133.61,78.18s2.15-1.9,4.39-1.11,4.51,2.19,3.72,4.88C140.24,80.63,136.6,77.78,133.61,78.18Z"/><path class="cls-9" d="M143,83.84s2.11-1.9,4.31-1.11,4.42,2.19,3.65,4.88C149.45,86.29,145.88,83.44,143,83.84Z"/><path class="cls-9" d="M150.45,90.14a5.3,5.3,0,0,1,4.05-.82c2.06.59,4.16,1.63,3.44,3.62C156.56,92,153.21,89.85,150.45,90.14Z"/><path class="cls-9" d="M169,92.35a1.68,1.68,0,0,0-1.32-2.61c-2-.42-5.82,1.32-7.31,3.47C162.16,92.82,167.3,90.51,169,92.35Z"/><path class="cls-9" d="M179.91,92.35a1.68,1.68,0,0,0-1.31-2.61c-2-.42-5.82,1.32-7.31,3.47C173.12,92.82,178.27,90.51,179.91,92.35Z"/><path class="cls-9" d="M190.79,92.35a1.67,1.67,0,0,0-1.31-2.61c-2-.42-5.82,1.32-7.31,3.47C184,92.82,189.15,90.51,190.79,92.35Z"/><path class="cls-9" d="M201.86,92.35a1.68,1.68,0,0,0-1.31-2.61c-2-.42-5.82,1.32-7.31,3.47C195.07,92.82,200.22,90.51,201.86,92.35Z"/><path class="cls-9" d="M213.05,92.35a1.67,1.67,0,0,0-1.31-2.61c-2-.42-5.82,1.32-7.31,3.47C206.27,92.82,211.41,90.51,213.05,92.35Z"/><path class="cls-9" d="M224.74,92.35a1.68,1.68,0,0,0-1.32-2.61c-2-.42-5.82,1.32-7.3,3.47C218,92.82,223.1,90.51,224.74,92.35Z"/><path class="cls-9" d="M236.94,92.35a1.68,1.68,0,0,0-1.31-2.61c-2-.42-5.82,1.32-7.31,3.47C230.15,92.82,235.3,90.51,236.94,92.35Z"/><path class="cls-9" d="M247.87,92.35a1.67,1.67,0,0,0-1.31-2.61c-2-.42-5.82,1.32-7.31,3.47C241.09,92.82,246.23,90.51,247.87,92.35Z"/><path class="cls-9" d="M258.92,92.35a1.68,1.68,0,0,0-1.31-2.61c-2-.42-5.82,1.32-7.31,3.47C252.13,92.82,257.28,90.51,258.92,92.35Z"/><path class="cls-9" d="M271.18,92.35a1.68,1.68,0,0,0-1.32-2.61c-2-.42-5.81,1.32-7.3,3.47C264.39,92.82,269.54,90.51,271.18,92.35Z"/><path class="cls-9" d="M282.94,92.35a1.67,1.67,0,0,0-1.31-2.61c-2-.42-5.82,1.32-7.31,3.47C276.16,92.82,281.3,90.51,282.94,92.35Z"/><path class="cls-9" d="M293.75,92.35a1.67,1.67,0,0,0-1.31-2.61c-2-.42-5.82,1.32-7.31,3.47C287,92.82,292.11,90.51,293.75,92.35Z"/><path class="cls-9" d="M300.18,93.34A1.68,1.68,0,0,0,297.59,92c-1.84.81-4,4.47-3.91,7.09C294.94,97.69,297.77,92.81,300.18,93.34Z"/><path class="cls-14" d="M444.43,3.83s3.82,3.62,5.76,3.62,9.32-.72,12,3.27,8.6,21.81,8.6,21.81l-2.4,1.06s-3.77-14-7.11-20.08c-.64-1.39-3.83-5.73-11.09-3s-5.75,2.08-5.75,2.08l-2.61-7.7Z"/><path class="cls-15" d="M444.7,6.71s13.13-5.32,17.89-1.9,12.27,18.74,14.3,23.74c-3-9-7.18-21.13-7.18-21.13S466.12.27,458.14,0c-5.39-.06-14.92,4.3-14.92,4.3Z"/><path class="cls-15" d="M437.29,2s-.31-1.31.82-.93,5.87,2.12,7.18,9.74c.25.75-.5,1-.62.32S444,5.16,437.29,2Z"/><path class="cls-17" d="M404.05,22.28s3.13,3.6,4.81,3.69c1.25.06,28.39-14.19,28.39-14.19s1.11-1.81-2-3.87c1.19.39,4.37,1.92,2.16,6.36C436.17,15,410,28.84,410,28.84Z"/><path class="cls-14" d="M429.9,30.28S431,27,438.21,22.12l10.56-5.71a5.38,5.38,0,0,0,2.12-3.59,16.9,16.9,0,0,0,0-2.64l1-1.31s.16,5.12-.86,6.49-1,1.73-4.65,3.35c-3.48,1.62-5.33,2.38-13.17,8.09A45.67,45.67,0,0,0,429.9,30.28Z"/><ellipse class="cls-15" cx="427.53" cy="32.38" rx="0.57" ry="0.89"/><path class="cls-15" d="M432.72,25.22a44.1,44.1,0,0,1,8.18-6.17,35.19,35.19,0,0,0,6.78-4.33,3.76,3.76,0,0,0,.55-3.16,3.06,3.06,0,0,1-.82,4.42C445.29,17.39,439.79,20.06,432.72,25.22Z"/><ellipse class="cls-15" cx="406.73" cy="27.17" rx="1.99" ry="5" transform="matrix(0.82, -0.57, 0.57, 0.82, 56.95, 236.5)"/><polygon class="cls-14" points="151.07 125.64 162.01 125.64 163.95 122.27 159.8 120.25 167.5 120.25 163.95 125.88 164.82 129.4 163.45 138.53 144.67 134.58 160.99 135.06 162.11 129.03 149.71 126.02 151.07 125.64"/><path class="cls-45" d="M277.71,252.16s17,7.22,26.15,2.24c-1.67-3.91-10.24-33.57,11.86-48.63-5.41,8.77-8.53,28.53-1.31,43.75,4.49.56,17.41,11.4,51.17,9.35,21.64-3,30.32-2.87,33.63-11.05-5.4,14.94-7.55,15.32-7.55,15.32l-13.72,0-97.65,0Z"/><path class="cls-46" d="M321.69,203.39a19.5,19.5,0,0,1,16.78-5.88C348.87,199,397,211.85,397,211.85a13.15,13.15,0,0,1,9.11,11.21c.9,9-.78,9.19-.91,9.55s5.37-17.82-8.2-20.76C383,208.83,340.26,201.4,321.69,203.39Z"/><rect class="cls-47" x="310.11" y="250.08" width="20.31" height="17.58" rx="8.79"/><rect class="cls-30" x="310.11" y="247.16" width="20.31" height="17.58" rx="8.79"/><circle class="cls-48" cx="295.33" cy="241.6" r="5.75"/><polygon class="cls-14" points="404.05 143.8 405.97 144.19 404.05 167.8 409.72 169.45 409.06 172.17 400.12 169.6 404.05 143.8"/><path class="cls-49" d="M215,203.47a13.79,13.79,0,0,1,5.48,3.74c2.4,2.74,27.13,51.66,27.13,51.66s-1.57,2.52-3,1.68S215,203.47,215,203.47Z"/><path class="cls-50" d="M310.29,225.91s-1.68-21.35,20.13-24.1,69.34,10.95,69.34,10.95,6,1.78,6.77,15.32c-.69,1.47-1.4,3.06-3.61-3.77s-3.59-11.53-35.18-15.54c-22.07-1.67-26.95-3.65-44.72,2.57-1.7,2.54-8.32,5.81-9.35,28.63C313.06,241.83,310.9,238.15,310.29,225.91Z"/><path d="M329.85,173.82l-22.35,5a2.12,2.12,0,0,0-4.17.6c0,.3.61,29.88.49,37.33-.1,6.4-1.59,8.58-1.59,8.58h0l-8.75,15.27a2.12,2.12,0,0,0,.79,2.9,2.09,2.09,0,0,0,1.05.28,2.14,2.14,0,0,0,1.85-1.07l8.46-14.84c.62-.85,2.32-3.84,2.43-11,.1-6.19-.28-26.73-.43-34.5h0L330,177.22l.59-.83v-1.28Z"/><rect class="cls-30" x="308.13" y="175.09" width="21.82" height="5.91" transform="translate(-29.52 68.53) rotate(-11.72)"/><path class="cls-51" d="M306.29,181.08v39.71a16.06,16.06,0,0,1-.83,4.91c-.77,1.58-8.06,14.16-8.06,14.16s-1.84.79,0-1.82,7.13-13.85,7.13-13.85.87-1.42.72-6.64.21-35.76.21-35.76S306.78,179.42,306.29,181.08Z"/><path class="cls-49" d="M306.29,181.08l-.34,39s-.12,2,.34.71.46-38.76.46-38.76S306.78,178.55,306.29,181.08Z"/></g><path class="cls-52" d="M294.32,115.41H451.53s10.4-2.67,13.36-8.2,8.73-17.53,8.73-17.53,1.59-7.63-3.53-17.19-19.91-24.58-19.91-24.58-65.66-1.57-140.07,20c-6.62,5.36-7.57,11.45-7.57,11.45Z"/><path class="cls-53" d="M296.12,109.73s-.09,4.67,4.53,4.5,148.56,0,148.56,0,7.34-1.47,9.08-2.93a23.68,23.68,0,0,0,6.4-8c2-4.15,7.3-15.22,7.3-15.22s-.26-9.47-4.16-15.56S450.19,49,450.19,49s16.55,21.69,18.48,28.61c.8,2.77,2.54,8.56,1.42,11.07s-6.66,15-10.44,17.88-5.22,5.79-18.59,5.79-140.9.25-140.9.25S297.85,112.67,296.12,109.73Z"/><path class="cls-54" d="M398.51,49s16.79-3.63,25.42-3.48c2.55-.14,3.77,1.65,2.55,2.35-1.84.06-24.66,2.53-26.31,1.83Z"/><path class="cls-55" d="M423.93,45.51s3.2-.3,2.55,2.35S423.93,45.51,423.93,45.51Z"/><path class="cls-56" d="M505.11,85.49s6.53,2.27,10.8,1.33c1-.48.68-3.7.68-3.7s-8.17-.22-11.48.85A.92.92,0,0,0,505.11,85.49Z"/><path class="cls-57" d="M306.44,94l128.49-3.81,4.76-6.06a70.45,70.45,0,0,1,7-1.51c.73.09,16.48,2.26,16.48,2.26l-1.53,4.72-3.89,9.5-6.42,7.21-6.32.63s-70.85-.23-71.29,0-63.24-.43-63.24-.43-3.25.06-4.52-1-2.36-5.79-2.36-5.79Z"/><path class="cls-56" d="M518.7,82.74s-.77,4,.25,4.31,4.57,0,5.39-.8c.28-1,.28-2.94-.86-3.51S518.7,82.74,518.7,82.74Z"/><path class="cls-58" d="M517.66,53.85s3.6-2.09,4.23,1a90.64,90.64,0,0,1,1.84,17.77c-.54.47-1,0-1.11-1.33s-.51-14-2.32-15.92C518.93,55.18,516.57,55.18,517.66,53.85Z"/><path class="cls-12" d="M517.07,57.88l1,19.06s3.06,1.58,4.31.58,1.51-1.11,1.62-2.32-.81-16.15-1.83-18.92S517.07,57.88,517.07,57.88Z"/><path class="cls-59" d="M464,83.59h0a5.17,5.17,0,0,0-.6-2.55c-12.05-27.55-23-28.35-24.19-28.35h0a3.51,3.51,0,0,0-.82.08c-52.09.59-123.59,17.21-124.3,17.37A7.11,7.11,0,0,0,308.8,75v.07c0,.07-.67,4.12-1.84,9.36l-.13.14V85c-.45,2-1,4.15-1.55,6.3h-.21l0,.68c-.51,1.83-1.05,3.65-1.64,5.37-1.12,3.26-.93,5.81.57,7.59,1.65,2,4.42,2.39,6.45,2.39a12.49,12.49,0,0,0,1.77-.12c6.39.11,60.3,1,99.36,1,37.71,0,39.44-.83,40.09-1.14l.05,0,0,0c6.83-4.43,10.58-12.72,11.82-19a24.06,24.06,0,0,0,.4-3l.08-.56Zm-.93,1.74-1-.13c0-.36.05-.7.05-1l1,.13c0,.17,0,.34,0,.53ZM445.33,83.6h-.24c-6.12,0-10,6.27-10,6.34l-.14.23L307.57,93.1c.1-.33.19-.67.28-1l126.51-2.91c.81-1.22,4.68-6.58,10.73-6.58h.27c4.93.14,12.47,1,16,1.49,0,.29,0,.62,0,1C457.84,84.65,450.27,83.74,445.33,83.6Zm15.86,2.33c-.06.47-.14,1-.25,1.55-1.13,5.72-4.48,13.24-10.52,17.19-.9.32-7.05.85-37.47.85-29.87,0-71.68-.51-100.84-1H312a12.24,12.24,0,0,1-1.51.09c-1.2,0-3.37-.18-4.4-1.42-.85-1-.87-2.68-.09-5,.47-1.38.92-2.82,1.34-4.28L435,91h.47l.24-.4.14-.23c0-.06,3.7-5.93,9.29-5.93h.21C450.19,84.59,457.76,85.5,461.19,85.93Zm-153.83.5h.35l.69,0c-.37,1.56-.77,3.2-1.21,4.85l-1,0C306.59,89.64,307,88,307.36,86.43Zm.43-1.86,1,0c-.08.33-.15.66-.23,1l-.9,0,0-.51ZM414.34,82c.52-1.31,3.05-5.38,14.05-5.38.49,0,1,0,1.53,0,11.63.37,25.17,1.41,29.32,1.74.16.35.33.69.49,1.05-3.27-.27-17.62-1.4-29.84-1.79-.51,0-1,0-1.47,0-12,0-13.22,4.92-13.23,5l-.09.38h-.39L309.47,85.53c.07-.34.15-.67.22-1Zm46.12-3-.24-.52.29,0Zm.65,3.44a2.26,2.26,0,0,1,.18.81c-3.57-.46-11-1.34-15.91-1.48h-.29c-6,0-10,4.89-11.18,6.59l-125.83,2.9c.43-1.65.83-3.29,1.19-4.85l105.46-2.55h.41l.65,0,.14-.63.09-.38s1.36-4.32,12.4-4.32c.46,0,.94,0,1.44,0,12.89.41,28.32,1.66,30.29,1.82.29.64.58,1.29.87,2l0,.08ZM307,92.11c-.09.34-.18.68-.28,1l-.72,0,0-1Zm156.2-8.64-1-.13a3.11,3.11,0,0,0-.35-1.41c-.23-.52-.46-1-.68-1.54h.07l.08-.85.08-1v0c.44.94.88,1.9,1.32,2.91A4.09,4.09,0,0,1,463.16,83.47ZM309.62,75.24A6.28,6.28,0,0,1,314.3,71c.85-.2,72.17-16.77,124.2-17.35a3.13,3.13,0,0,1,.73-.08c3.43,0,12.24,4.23,21.72,24.13l-.37,0-.79-.07c-8.56-17.61-17-23-20.42-23a2.32,2.32,0,0,0-.67.08l-.12,0c-52,.56-123.34,17.16-124.06,17.33h0a5.29,5.29,0,0,0-3.93,3.5S310,79,309,83.69l-1,0C309,78.91,309.61,75.3,309.62,75.24Zm141.69,31.05c-1.66.8-18.37,1.06-39.69,1.06h0c-39.88,0-95.85-.92-99.42-1a11.07,11.07,0,0,1-1.71.12c-1.72,0-4.33-.33-5.8-2.09-1.29-1.53-1.43-3.81-.42-6.76.4-1.18.79-2.4,1.15-3.64h1.05c-.4,1.36-.81,2.7-1.25,4-.89,2.6-.81,4.55.23,5.8,1.21,1.45,3.5,1.72,5.06,1.72a12.92,12.92,0,0,0,1.62-.1c27.62.45,70.14,1,100.85,1,21,0,36.41-.25,37.87-1,6.29-4.07,9.79-11.86,10.95-17.78.12-.57.2-1.1.26-1.6l.93.13H463c-.07.53-.15,1.08-.26,1.66C461.55,94,457.92,102,451.31,106.29Z"/><path class="cls-60" d="M463.17,84.33h0a5.2,5.2,0,0,0-.5-2.88C451.78,56.52,441.4,52.92,438.5,53.62c-52,.58-123.35,17.15-124.2,17.35a6.28,6.28,0,0,0-4.68,4.27c0,.07-.67,4.11-1.83,9.33h-.13v.49a123.92,123.92,0,0,1-3.43,12.57c-1,3-.87,5.23.42,6.76,2.3,2.75,7.38,2,7.51,2,3.57.06,59.57,1,99.45,1,21.32,0,38-.26,39.69-1.06C457.92,102,461.55,94,462.76,87.84a22.65,22.65,0,0,0,.39-3Zm-1-.13c-2.94-.39-11.42-1.45-16.81-1.6-6.21-.16-10.18,5.35-11,6.58L307,92.11c.62-2.24,1.16-4.48,1.63-6.56L414.71,83h.39l.09-.38c0-.06,1.37-5.38,14.7-5,13.82.44,30.89,1.93,31.06,2l-.49-.6c.45,1,.9,1.92,1.34,2.94A4.36,4.36,0,0,1,462.17,84.2ZM310.59,75.45a5.29,5.29,0,0,1,3.93-3.5h0c.72-.17,72.08-16.77,124.06-17.33l.12,0c3-.82,12.19,4.23,21.52,23.86-2.24-.18-17.44-1.41-30.3-1.82-12.3-.4-15,4-15.58,5.36L308.82,84.55C310,79.41,310.59,75.49,310.59,75.45Zm140.23,30c-3.59,1.72-92.25.72-138.72,0-.05,0-4.74.7-6.68-1.62-1-1.25-1.12-3.2-.23-5.8.53-1.55,1-3.19,1.49-4.84l128.25-3,.14-.23c0-.07,3.9-6.34,10-6.34h.24c5.39.15,13.94,1.22,16.79,1.6a19.85,19.85,0,0,1-.35,2.44C460.61,93.56,457.11,101.35,450.82,105.42Z"/><path class="cls-61" d="M435.58,51.49c-.28-.15,10.47,1.13,15.79,10.5,5.13,9,11.57,16.3,15,29.45.64,2.14-.7,6.47-.7,6.47s-2.71,6.61-7.86,10.18c1.14-2.53-.8-17.28-2.37-21.74C454,82.37,442.62,55.28,435.58,51.49Z"/><path class="cls-62" d="M303.22,77.14s-4.61,23,2.72,28.34,54.9,4.33,54.9,4.33,89.41,4,100.09-1a24.9,24.9,0,0,1-.88,7.35H411.1l-116.78-.74,8.22-36Z"/><path class="cls-63" d="M143.25,137.31s14.12,3.42,16.95,3.37c0,0,1.94-.16-2.37-1.22s-13.65-2.74-13.65-2.74S139.65,135.68,143.25,137.31Z"/><path class="cls-63" d="M139,144.65s14.12,3.41,17,3.36c0,0,1.94-.16-2.37-1.22s-13.65-2.74-13.65-2.74S135.41,143,139,144.65Z"/><path class="cls-63" d="M135,152.72s14.13,3.41,17,3.36c0,0,1.94-.16-2.37-1.22s-13.65-2.74-13.65-2.74S131.35,151.08,135,152.72Z"/><path class="cls-63" d="M131.31,159.93s14.12,3.41,16.95,3.36c0,0,1.94-.15-2.38-1.22s-13.64-2.74-13.64-2.74S127.71,158.29,131.31,159.93Z"/><path class="cls-63" d="M127,167.37s14.13,3.41,16.95,3.36c0,0,1.94-.16-2.37-1.22s-13.65-2.74-13.65-2.74S123.37,165.73,127,167.37Z"/><path class="cls-63" d="M121.92,174.14s14.12,3.42,17,3.37c0,0,1.94-.16-2.37-1.22s-13.65-2.74-13.65-2.74S118.32,172.51,121.92,174.14Z"/><path class="cls-63" d="M117.71,182s14.13,3.41,17,3.36c0,0,1.94-.16-2.37-1.22s-13.65-2.74-13.65-2.74S114.11,180.38,117.71,182Z"/><path class="cls-63" d="M112.22,189.31s14.13,3.42,17,3.37c0,0,1.93-.16-2.38-1.22s-13.65-2.74-13.65-2.74S108.62,187.68,112.22,189.31Z"/><path class="cls-63" d="M107.36,196.72s14.13,3.42,17,3.37c0,0,1.94-.16-2.37-1.22s-13.65-2.74-13.65-2.74S103.76,195.09,107.36,196.72Z"/><path class="cls-63" d="M102.83,206s14.13,3.42,17,3.37c0,0,1.93-.16-2.38-1.22s-13.64-2.74-13.64-2.74S99.24,204.36,102.83,206Z"/><path class="cls-8" d="M212.12,194.11l42.13,17.68s10.54,3.77,12.76,13.09,2.66,39.86,2.66,39.86H248.15L242.41,258l-26.86-56.66Z"/><path class="cls-63" d="M98,213.27s14.13,3.41,17,3.36c0,0,1.93-.16-2.38-1.22s-13.65-2.74-13.65-2.74S94.37,211.63,98,213.27Z"/><path class="cls-64" d="M148.69,137.56a8.58,8.58,0,0,1,2.84,0,5.48,5.48,0,0,1,2.69,1.09s-.05,1.12-2.26.64S147.24,138.71,148.69,137.56Z"/><path class="cls-64" d="M144.94,145.29a8.56,8.56,0,0,1,2.84,0,5.49,5.49,0,0,1,2.69,1.1s-.06,1.12-2.27.64S143.48,146.44,144.94,145.29Z"/><path class="cls-64" d="M140.4,153.07a8.56,8.56,0,0,1,2.84,0,5.48,5.48,0,0,1,2.69,1.09s-.05,1.12-2.27.64S139,154.22,140.4,153.07Z"/><path class="cls-64" d="M136.76,160.48a8.56,8.56,0,0,1,2.84,0,5.49,5.49,0,0,1,2.69,1.1s-.06,1.12-2.27.64S135.3,161.63,136.76,160.48Z"/><path class="cls-64" d="M132.46,167.39a8.58,8.58,0,0,1,2.84,0,5.37,5.37,0,0,1,2.69,1.09s-.05,1.12-2.26.64S131,168.54,132.46,167.39Z"/><path class="cls-64" d="M127.37,174.49a8.56,8.56,0,0,1,2.84,0,5.49,5.49,0,0,1,2.69,1.1s-.05,1.12-2.27.64S125.91,175.65,127.37,174.49Z"/><path class="cls-64" d="M124.08,182.36a8.91,8.91,0,0,1,2.84,0,5.49,5.49,0,0,1,2.69,1.1s-.05,1.12-2.27.64S122.62,183.52,124.08,182.36Z"/><path class="cls-64" d="M113.77,197.72a8.58,8.58,0,0,1,2.84,0,5.43,5.43,0,0,1,2.69,1.1s0,1.11-2.26.63S112.32,198.87,113.77,197.72Z"/><path class="cls-64" d="M118.17,190a8.56,8.56,0,0,1,2.84,0,5.43,5.43,0,0,1,2.69,1.1s0,1.12-2.27.64S116.72,191.19,118.17,190Z"/><path class="cls-64" d="M109.83,206.88a8.56,8.56,0,0,1,2.84,0,5.43,5.43,0,0,1,2.69,1.1s0,1.12-2.27.64S108.38,208,109.83,206.88Z"/><path class="cls-64" d="M104.44,213.58a8.56,8.56,0,0,1,2.84,0,5.49,5.49,0,0,1,2.69,1.1s-.06,1.12-2.27.63S103,214.73,104.44,213.58Z"/><path class="cls-3" d="M215.77,190.14s3.72-17.06-11.79-45.9c-1.4-2.7-.22-3.62,1.7.35s15.11,31.57,13.26,48.09C218.43,199.43,216.06,192.37,215.77,190.14Z"/><path class="cls-3" d="M81.84,115.74s22.74-7.4,33.52-7.4,29.42,2.22,19.61,2.47-47,5.67-50.35,6.66S73.29,121.79,81.84,115.74Z"/><path class="cls-65" d="M429.37,184.29s3.1,3.74,3.27,6.92S406.23,256,406.23,256l-7.07,1.27-2.47,6,5.64,2.31s21.94-20.25,22.44-20.92,19.91-70.76,19.91-70.76l-10.87,1.55Z"/><path class="cls-66" d="M134.5,104.92s6.93,13.1,11.43,15.34,7.74-1.68,7.74-1.68l2.47-1.84-11.47-10.23Z"/><path class="cls-67" d="M173,132s8.15-8.91,20.26-8.58a77.54,77.54,0,0,1-11.07-7.16l-26-.86L153.92,121Z"/><path d="M178,115c-11.21-.51-17.48-1.57-20.88-2.43C129.94,89.62,118,88.64,116.77,88.61a2.86,2.86,0,0,0-2.94,2.76,2.82,2.82,0,0,0,2.73,2.91c.11,0,10.42.9,34,20.2l-.94,1c.43.43,1.64,1.3,4.78,2.22a2.81,2.81,0,0,0,1.71.59,2.33,2.33,0,0,0,.38,0c4.19,1,10.8,2,21.24,2.44,22.65,1,139.05,1.72,140.22,1.73l59.66-5.58C376.46,116.78,200.54,116,178,115Z"/><path class="cls-8" d="M297.82,272.16c-6.64,0-14.61-.06-23.59-.25-29.47-.62-32.05-5.17-32.9-6.67l-.09-.17L167.5,120.41l10.25.23,70.61,139.68c1.47.68,7.36,2.7,26.05,3.09,26.61.56,44.18,0,44.36,0l.27,8.5C318.92,271.91,311,272.16,297.82,272.16Z"/><polygon class="cls-8" points="454.81 162.26 412.39 148.08 408.95 169.22 440.63 178.59 408.95 258.06 400.49 263.14 245.03 263.14 159.26 208.02 139.6 207.75 137.26 211.01 137.26 211.01 135.52 213.44 135.52 213.44 132.11 218.19 141.74 235.85 245.3 280.88 405.04 280.88 419.22 271.17 429.46 246.69 429.46 246.69 429.46 246.69 429.46 246.69 458.33 177.96 454.81 162.26"/><polygon class="cls-8" points="400.12 169.6 409.06 172.17 415.48 146.09 404.05 143.8 400.12 169.6"/><rect class="cls-8" x="203.33" y="175.49" width="81.93" height="8.5" transform="translate(-7.24 10.28) rotate(-2.38)"/><path class="cls-51" d="M215.24,197.61S253.78,213,262,219c2.51,2.65,3.7,7.56,4.1,10.39s1.85,33.08,1.85,33.08-1.45,2.25-1.45-1.45-.53-34.75-6.48-39.24-45.47-22.66-45.47-22.66S213.39,195.64,215.24,197.61Z"/><path class="cls-49" d="M215.24,197.61S253.31,212.88,262,219c3.73,2.37,4.56,16.81,4.56,16.81s-.5,2.42-1.33-1.39.09-11.19-6.36-15S211.67,198.3,215.24,197.61Z"/><polygon class="cls-25" points="169.22 120.45 240.89 260.49 237.64 258.01 167.5 120.41 169.22 120.45"/><path class="cls-25" d="M280.27,180.15s3,.14,3,1.89-3.42,14.57,2.13,12.94a13.27,13.27,0,0,0-7.64,5.93Z"/><polygon class="cls-25" points="206.27 177.06 207.17 178.84 280.97 175.37 281.21 173.8 206.27 177.06"/><path class="cls-25" d="M208.88,184.22s1.23,1.79,1.75,1.47S280,182.25,280,182.25l.29-2.1Z"/><path class="cls-68" d="M278.26,258s-10.19-11.63-1.88-27.61,8.46-24.73,41.67-30c-6.45,4.09-19.42,19.62-17.89,31.69C300.56,236.8,278.26,258,278.26,258Z"/><circle class="cls-69" cx="267.41" cy="125.59" r="2.59"/><circle class="cls-69" cx="261.08" cy="125.42" r="1.54"/><polygon class="cls-70" points="220.56 120.11 223.06 130.65 276.38 130.74 275.72 131.51 223.06 132.01 220.56 132.67 219.14 131.85 216.12 120.25 220.56 120.11"/><circle class="cls-71" cx="267.41" cy="125.59" r="1.88"/><path class="cls-72" d="M265.29,125.49a3.24,3.24,0,0,0,.6,1.45,1.71,1.71,0,0,0,1.23.65c.27.11-.05.2-.46.09a1.9,1.9,0,0,1-1.26-.86C265.11,126.3,265,125.12,265.29,125.49Z"/><path class="cls-73" d="M269.24,126.54a3.23,3.23,0,0,0,.14-1.56,1.71,1.71,0,0,0-.8-1.14c-.19-.22.14-.16.46.13a2,2,0,0,1,.72,1.34C269.77,125.91,269.28,127,269.24,126.54Z"/><path class="cls-74" d="M175.2,121l28,56.24s-.42,4.83,1,5.75,4.68,1.28,4.68,1.28l5.3,12.79s-2.53,1.37-2.06,3.08c-1.61-3.16-40.19-79.83-40.19-79.83Z"/><path class="cls-74" d="M208.28,182.94s-3.45-2.24-.45-2.79,72.44-3.83,72.44-3.83,2.79-.38,1.4,1.73S208.28,182.94,208.28,182.94Z"/><path class="cls-74" d="M293.68,130.31s-.51,6.52,4.12,1.54,7.62-8,7.62-8-2.13-3.83-6.93,1.3Z"/><path class="cls-75" d="M175.2,121l28.17,54.42s-.29,5.12-.24,3.47-29.55-58.24-29.55-58.24Z"/><path class="cls-75" d="M208.88,184.81s1.44-.37,0-.59-5.77-1.41-3.89-6.16c0,0,.27-1.79-.79-.5s-1.21,4.33.73,5.38A42.65,42.65,0,0,0,208.88,184.81Z"/><path class="cls-75" d="M209.52,180.15s29.3-1.8,34.81-2.07c4.83-.25,26.75-1.32,26.75-1.32s3.41-.36,1.37.33-64.3,4.95-64.3,4.95S206,180.48,209.52,180.15Z"/><circle cx="367.22" cy="141.15" r="12.79"/><circle class="cls-76" cx="367.74" cy="140.64" r="12.79"/><path class="cls-77" d="M358.48,142.34a9.38,9.38,0,0,1,3.86-8.94,9.88,9.88,0,0,1,4.11-1.79l-3.16-3a13,13,0,0,0-8.25,10.8A4.11,4.11,0,0,0,358.48,142.34Z"/><path class="cls-78" d="M355,142.18a3.16,3.16,0,0,0,1.91,0c.93-.45,1.38-2.48,0-3.08a1.62,1.62,0,0,0-1.9.35A9.16,9.16,0,0,0,355,142.18Z"/><path class="cls-79" d="M380.49,139.19a4.52,4.52,0,0,0-1.83-.17,1.73,1.73,0,0,0-.08,3.24,1.62,1.62,0,0,0,1.9-.34A9.26,9.26,0,0,0,380.49,139.19Z"/><circle class="cls-80" cx="355.95" cy="140.66" r="1.52"/><circle class="cls-80" cx="365.71" cy="139.64" r="1.52"/><path class="cls-81" d="M356.45,140.35a.06.06,0,0,0-.1,0l-.46.29-.32-.49a.07.07,0,0,0-.12.08l.32.49-.46.3a.08.08,0,0,0,0,.1.09.09,0,0,0,.06,0h0l.46-.3.32.49s0,0,.06,0l0,0a.07.07,0,0,0,0-.09l-.32-.5.46-.29A.08.08,0,0,0,356.45,140.35Z"/><circle class="cls-82" cx="379.15" cy="140.64" r="1.52"/><path class="cls-81" d="M379.65,141a.07.07,0,0,0,0-.09l-.48-.27.28-.52a.06.06,0,0,0,0-.09.06.06,0,0,0-.09,0l-.29.52-.48-.26a.07.07,0,0,0-.09,0,.09.09,0,0,0,0,.07s0,0,0,0l.47.27-.28.51a.09.09,0,0,0,0,.07l0,0a.07.07,0,0,0,.1,0l.28-.52.48.27A.06.06,0,0,0,379.65,141Z"/><path class="cls-83" d="M369.07,131.69v-3.84a13.56,13.56,0,0,1,9.93,6.73c-1.79,1-3.6,2.07-3.6,2.07Z"/><circle class="cls-84" cx="367.85" cy="140.97" r="9.37"/><path class="cls-85" d="M359.16,144.5s-3.3-7.07,4.11-11.7c3.44-2.1,9.78-1.88,13.07,4.24.55,1.5,1.32,3,.39,6.9-.65-.1-1.4.79-.85-1.4a4.6,4.6,0,0,0-4.93-5.27l-7.73.78s-2.33,1-2.26,2S361.2,147.24,359.16,144.5Z"/><path class="cls-83" d="M367.85,131.61a2.57,2.57,0,0,1,.57,1.46c-.08.63-2,6.05-2,6.05a4,4,0,0,0,3.15,1.25c2.32.1,3.43-.8,3.77-1.25s1.84-2,3.29-1.21a9.88,9.88,0,0,0-4.6-5.26C369.4,131.23,367.85,131.61,367.85,131.61Z"/><path class="cls-85" d="M359.16,144.5a11.7,11.7,0,0,0,3.18,4.05c-.54.83-2,2.53-2,2.53a12.8,12.8,0,0,1-4.4-5.47C356.9,145.26,359.16,144.5,359.16,144.5Z"/><path class="cls-86" d="M359.54,145.2s5.49,2,17.19-1.26c-.3.8-1.38,5.25-7.66,6.32S359.54,145.2,359.54,145.2Z"/><ellipse cx="336.72" cy="135.45" rx="4.51" ry="9.63"/><ellipse class="cls-87" cx="336.54" cy="135.07" rx="4.51" ry="9.63"/><path class="cls-88" d="M339.8,136.34s.36-4.06-1.36-6.73a3.25,3.25,0,0,0-1.45-1.35c.26-.5,1.12-2.23,1.12-2.23s2.57,1.8,2.9,8.14C340.69,136.22,339.8,136.34,339.8,136.34Z"/><path class="cls-89" d="M341,136.22s-.4.27-.67,0a2.34,2.34,0,0,1,0-2.32c.21-.15.5-.21.67.27A14.86,14.86,0,0,1,341,136.22Z"/><path class="cls-90" d="M332,134a.79.79,0,0,1,.64-.13c.42.16.66,1.83,0,2.44-.2.15-.49.22-.66-.26A13.77,13.77,0,0,1,332,134Z"/><ellipse class="cls-80" cx="340.69" cy="135.08" rx="0.53" ry="1.14"/><ellipse class="cls-80" cx="337.25" cy="134.31" rx="0.53" ry="1.14"/><path class="cls-81" d="M340.52,134.85s0,0,0,0l.16.22.12-.37s0,0,0,0a.08.08,0,0,1,0,.07l-.11.37.16.23a.08.08,0,0,1,0,.07s0,0,0,0h0l-.16-.23-.12.37s0,0,0,0h0a.11.11,0,0,1,0-.08l.12-.37-.17-.22A.09.09,0,0,1,340.52,134.85Z"/><ellipse class="cls-82" cx="332.51" cy="135.07" rx="0.53" ry="1.14"/><path class="cls-81" d="M332.34,135.3a.08.08,0,0,1,0-.07l.17-.2-.1-.39s0-.06,0-.07,0,0,0,0l.1.39.17-.2s0,0,0,0v0s0,0,0,0l-.17.2.1.39a0,0,0,0,1,0,0s0,0,0,0,0,0,0,0l-.1-.39-.17.2S332.34,135.33,332.34,135.3Z"/><path class="cls-83" d="M336.07,128.32v-2.89s-2.34.47-3.5,5.07c.63.76,1.27,1.56,1.27,1.56Z"/><ellipse class="cls-91" cx="336.5" cy="135.32" rx="3.3" ry="7.06"/><path class="cls-85" d="M339.56,138s1.16-5.32-1.45-8.81c-1.21-1.58-3.45-1.41-4.61,3.19a15.07,15.07,0,0,0-.13,5.2c.22-.08.49.59.3-1.06s.53-4.22,1.73-4l2.73.58a2.45,2.45,0,0,1,.8,1.55C338.9,135.46,338.84,140,339.56,138Z"/><path class="cls-83" d="M336.5,128.26a3.35,3.35,0,0,0-.2,1.1c0,.48.69,4.56.69,4.56a1.44,1.44,0,0,1-1.11,1,1.32,1.32,0,0,1-1.33-1c-.12-.33-.65-1.53-1.16-.91a8.71,8.71,0,0,1,1.62-4C336,128,336.5,128.26,336.5,128.26Z"/><path class="cls-85" d="M339.56,138a11.47,11.47,0,0,1-1.12,3.06c.19.62.7,1.9.7,1.9a11,11,0,0,0,1.55-4.12C340.36,138.54,339.56,138,339.56,138Z"/><path class="cls-92" d="M339.43,138.5s-1.94,1.48-6.06-.95c.1.6.48,4,2.7,4.76S339.43,138.5,339.43,138.5Z"/><polygon class="cls-85" points="315.1 134.58 320.36 134.58 321.69 143.24 314.41 143.24 315.1 134.58"/><polygon class="cls-93" points="303.86 144.5 330.42 144.5 330.42 146.29 304.04 146.04 303.86 144.5"/><polygon class="cls-93" points="304.04 161.94 330.6 161.94 330.6 163.74 304.21 163.48 304.04 161.94"/><polygon class="cls-94" points="349.61 192.53 383.3 192.53 383.3 204.48 345.62 198.82 345.62 192.53 349.61 192.53"/><path class="cls-95" d="M245.28,256.3l-20.26-42s-3-3.37-1.55,1.77,19.08,40.26,19.08,40.26S246.27,261.29,245.28,256.3Z"/><path class="cls-96" d="M215.24,197.61l41.88,19.5s7.54,2.27,7.7,9.13,3.1,36.95,3.1,36.95H246.87Z"/><polygon class="cls-94" points="384.09 188.04 384.09 204.63 386.98 205.28 386.98 188.04 384.09 188.04"/><polygon class="cls-94" points="342.27 190.17 342.27 198.08 344.95 198.5 344.95 191.84 342.27 190.17"/><path class="cls-97" d="M384.09,169.62H366.62l.11-2.47a.28.28,0,0,0-.26-.3h0a.28.28,0,0,0-.28.27l-.12,2.5H347.5a.28.28,0,0,0-.28.28.29.29,0,0,0,.28.28H366l-.11,2.24H348.16a.29.29,0,0,0,0,.57h17.73l-.1,2.09h-17a.29.29,0,0,0,0,.57h17l-.13,2.72H349.77a.29.29,0,0,0,0,.57H365.6l-.12,2.55H350.05a.29.29,0,0,0-.28.28.28.28,0,0,0,.28.28h15.4l-.12,2.55h-14.9a.29.29,0,0,0,0,.57h14.88l-.13,2.59H350.9a.29.29,0,0,0,0,.57h14.25l-.08,1.83a.28.28,0,0,0,.27.3h0a.28.28,0,0,0,.28-.27l.09-1.86h13.94a.29.29,0,1,0,0-.57H365.75l.12-2.59H380a.29.29,0,0,0,0-.57H365.9l.12-2.55h14.25a.27.27,0,0,0,.28-.28.28.28,0,0,0-.28-.28H366.05l.12-2.55h14.5a.29.29,0,0,0,0-.57H366.2l.13-2.72h15.36a.29.29,0,0,0,0-.57H366.36l.1-2.09h16.36a.29.29,0,1,0,0-.57H366.48l.11-2.24h17.5a.29.29,0,0,0,.28-.28A.28.28,0,0,0,384.09,169.62Z"/><polygon class="cls-98" points="400.54 166.85 336.55 166.85 336.55 166.07 400.66 166.07 400.54 166.85"/><polygon class="cls-99" points="400.9 164.52 336.51 164.52 336.51 163.74 401.01 163.74 400.9 164.52"/><polygon class="cls-100" points="401.23 162.33 336.72 162.33 336.72 161.55 401.35 161.55 401.23 162.33"/><rect class="cls-101" x="378.44" y="159.55" width="23.19" height="0.78"/><rect class="cls-102" x="379" y="157.79" width="22.89" height="0.78"/><rect class="cls-103" x="379.21" y="156.03" width="22.92" height="0.78"/><rect class="cls-104" x="379.82" y="154.18" width="22.59" height="0.78"/><rect class="cls-105" x="379.66" y="152.68" width="22.98" height="0.78"/><rect class="cls-106" x="379.82" y="150.92" width="23.19" height="0.78"/><rect class="cls-107" x="380.04" y="149.16" width="23.19" height="0.78"/><rect class="cls-108" x="380.37" y="147.31" width="22.89" height="0.78"/><rect class="cls-109" x="381.04" y="145.75" width="21.74" height="0.78"/><rect class="cls-110" x="381.6" y="143.99" width="23.19" height="0.78"/><rect class="cls-111" x="381.82" y="142.22" width="23.19" height="0.78"/><rect class="cls-112" x="382.43" y="140.38" width="23.19" height="0.78"/><rect class="cls-113" x="382.78" y="138.42" width="23.19" height="0.78"/><rect class="cls-114" x="383.34" y="136.66" width="23.19" height="0.78"/><rect class="cls-115" x="383.55" y="134.9" width="23.19" height="0.78"/><rect class="cls-116" x="384.16" y="133.05" width="22.11" height="0.78"/><rect class="cls-117" x="336.58" y="160" width="23.19" height="0.78" transform="translate(696.35 320.79) rotate(-180)"/><rect class="cls-118" x="336.32" y="158.24" width="22.89" height="0.78" transform="translate(695.53 317.27) rotate(-180)"/><rect class="cls-119" x="336.08" y="156.48" width="22.92" height="0.78" transform="translate(695.07 313.75) rotate(-180)"/><rect class="cls-120" x="335.8" y="154.64" width="22.59" height="0.78" transform="translate(694.18 310.06) rotate(-180)"/><rect class="cls-121" x="335.57" y="153.14" width="22.98" height="0.78" transform="translate(694.11 307.05) rotate(-180)"/><rect class="cls-122" x="335.2" y="151.37" width="23.19" height="0.78" transform="translate(693.58 303.53) rotate(-180)"/><rect class="cls-123" x="334.98" y="149.61" width="23.19" height="0.78" transform="translate(693.14 300.01) rotate(-180)"/><rect class="cls-124" x="334.95" y="147.77" width="22.89" height="0.78" transform="translate(692.79 296.32) rotate(-180)"/><rect class="cls-125" x="335.42" y="146.2" width="21.74" height="0.78" transform="translate(692.59 293.18) rotate(-180)"/><rect class="cls-126" x="333.42" y="144.44" width="23.19" height="0.78" transform="translate(690.02 289.66) rotate(-180)"/><rect class="cls-127" x="333.2" y="142.68" width="23.19" height="0.78" transform="translate(689.59 286.14) rotate(-180)"/><rect class="cls-128" x="332.59" y="140.84" width="23.19" height="0.78" transform="translate(688.37 282.45) rotate(-180)"/><rect class="cls-129" x="332.24" y="138.87" width="23.19" height="0.78" transform="translate(687.67 278.53) rotate(-180)"/><rect class="cls-130" x="331.68" y="137.11" width="23.19" height="0.78" transform="translate(686.55 275.01) rotate(-180)"/><rect class="cls-131" x="331.47" y="135.35" width="23.19" height="0.78" transform="translate(686.12 271.49) rotate(-180)"/><rect class="cls-132" x="331.93" y="133.51" width="22.11" height="0.78" transform="translate(685.98 267.8) rotate(-180)"/><ellipse cx="402.6" cy="136.92" rx="4.51" ry="9.63"/><ellipse class="cls-133" cx="402.78" cy="136.53" rx="4.51" ry="9.63"/><path class="cls-134" d="M399.52,137.81s-.36-4.07,1.36-6.73a3.25,3.25,0,0,1,1.45-1.35l-1.11-2.23s-2.58,1.8-2.91,8.14C398.63,137.69,399.52,137.81,399.52,137.81Z"/><path class="cls-135" d="M398.31,137.69s.41.27.67,0a2.34,2.34,0,0,0,0-2.32c-.21-.15-.5-.22-.67.27A14.86,14.86,0,0,0,398.31,137.69Z"/><path class="cls-136" d="M407.28,135.44a.82.82,0,0,0-.64-.13c-.42.17-.66,1.83,0,2.45.2.15.49.22.67-.26A15,15,0,0,0,407.28,135.44Z"/><ellipse class="cls-80" cx="398.63" cy="136.55" rx="0.53" ry="1.14"/><ellipse class="cls-80" cx="402.07" cy="135.78" rx="0.53" ry="1.14"/><path class="cls-81" d="M398.81,136.31s0,0,0,0l-.16.22-.12-.37s0,0,0,0a.11.11,0,0,0,0,.08l.12.37-.17.22a.11.11,0,0,0,0,.08l0,0a0,0,0,0,0,0,0l.16-.22.12.37s0,0,0,0h0a.11.11,0,0,0,0-.08l-.11-.37.16-.22A.19.19,0,0,0,398.81,136.31Z"/><ellipse class="cls-82" cx="406.81" cy="136.53" rx="0.53" ry="1.14"/><path class="cls-81" d="M407,136.77s0-.06,0-.07l-.17-.2.1-.39a.19.19,0,0,0,0-.08s0,0,0,0l-.1.39-.16-.2s0,0,0,0v.08l.17.2-.1.39v0s0,0,0,0,0,0,0,0l.1-.39.17.2S407,136.79,407,136.77Z"/><path class="cls-83" d="M403.26,129.79V126.9s2.33.47,3.5,5.07c-.63.75-1.27,1.56-1.27,1.56Z"/><ellipse class="cls-137" cx="402.82" cy="136.79" rx="3.3" ry="7.06"/><path class="cls-85" d="M399.76,139.44s-1.16-5.33,1.45-8.81c1.21-1.58,3.45-1.42,4.61,3.19A15.24,15.24,0,0,1,406,139c-.23-.08-.5.59-.31-1.06s-.53-4.22-1.73-4l-2.73.59a2.41,2.41,0,0,0-.79,1.55C400.42,136.93,400.48,141.5,399.76,139.44Z"/><path class="cls-83" d="M402.82,129.73a3.35,3.35,0,0,1,.2,1.1c0,.47-.69,4.56-.69,4.56a1.41,1.41,0,0,0,1.11.94,1.31,1.31,0,0,0,1.33-.94c.12-.33.65-1.54,1.16-.92a8.72,8.72,0,0,0-1.62-3.95C403.37,129.45,402.82,129.73,402.82,129.73Z"/><path class="cls-85" d="M399.76,139.44a11.44,11.44,0,0,0,1.12,3.05c-.19.63-.7,1.91-.7,1.91a11,11,0,0,1-1.55-4.12C399,140,399.76,139.44,399.76,139.44Z"/><path class="cls-138" d="M399.89,140s1.94,1.48,6.07-.95c-.11.6-.49,4-2.7,4.76S399.89,140,399.89,140Z"/><polygon points="517.85 160.89 518.7 156.26 532.42 149.7 536.3 153.16 517.85 160.89"/><polygon class="cls-11" points="524.43 154.26 530 151.62 534.1 153.72 526.53 156.72 524.43 154.26"/><path d="M560,251.75,571.06,246l.57-.29s1.86.31,0,1.7-11.63,7-11.63,7Z"/><path class="cls-35" d="M532.19,183.2l29.13,67.87s2.63-.2,1.43-2.42-28.65-66.44-28.65-66.44S531,179.42,532.19,183.2Z"/><path class="cls-35" d="M521.46,161.29l5.62,12.84s2.53,2,2.19,0-5.26-14.5-5.26-14.5S521,159,521.46,161.29Z"/><polygon class="cls-27" points="530 151.62 534.1 153.72 531.42 154.78 528.54 152.31 530 151.62"/><polygon class="cls-27" points="531.63 154.97 534.31 153.99 541.06 170.38 541.06 170.7 538.4 171.72 531.63 154.97"/><line class="cls-139" x1="524.43" y1="174.13" x2="542.33" y2="166.63"/><path class="cls-27" d="M541.54,174.13,573,243.94l-1.41,1.77-8.57,4.34s7.46-4.85,7.78-6.74S539.36,175,539.36,175Z"/><polygon class="cls-140" points="508.31 120.1 522.66 154.37 518.7 156.26 504.58 121.8 508.31 120.1"/><polygon class="cls-141" points="479.92 54.16 504.58 112.19 501.1 114.24 476.4 55.66 479.92 54.16"/><polygon class="cls-142" points="468.67 37.53 472.42 47.91 477.27 46.29 472.65 36.03 468.67 37.53"/><path class="cls-143" d="M313.67,243.73s-7.51-22,3.46-35c4.5-2.08,13.06-7.89,29.66-5.3,14.1,1.76,45.46,5.57,54.84,11.49,2.15,1.82,6,11.28,3.57,17.65C401.19,232.59,313.67,243.73,313.67,243.73Z"/><circle class="cls-144" cx="386.86" cy="230.4" r="10.19"/><circle class="cls-145" cx="378.93" cy="229.96" r="1.44"/><circle class="cls-146" cx="365.62" cy="207.99" r="1.44"/><circle class="cls-145" cx="394.76" cy="230.81" r="1.44"/><circle class="cls-146" cx="392.59" cy="213.05" r="1.44"/><circle class="cls-146" cx="403.4" cy="230.81" r="1.44"/><circle class="cls-146" cx="289.96" cy="209.64" r="1.44"/><circle class="cls-146" cx="311.87" cy="201.8" r="1.44"/><circle class="cls-146" cx="275.72" cy="231.77" r="1.44"/><path class="cls-41" d="M450.8,132.56l-7.23-12.3,3.62-4.81s6.41-.18,9.11-1.21,6.88-4.8,6.88-4.8Z"/><path class="cls-41" d="M447.86,159.94l18.64-44.07s5.87-8.77,16.92-7.78c10.07,1,13.33,3.34,15.25,7.36l-1.58.79s-3.6-5.5-12.43-5.75c-5.34-1-13.64,1.67-15.78,6.56S451,161.55,451,161.55Z"/><polygon class="cls-147" points="401.35 255.95 431.46 184.81 433.43 188.91 404.13 258.01 401.35 255.95"/><path class="cls-147" d="M445.81,156.82l1.78,3.11,27.9-64.15s-1-5.27-2-3.18S445.81,156.82,445.81,156.82Z"/><path class="cls-148" d="M473.62,100.07l-24.09,56.19s-2.47,1.59.65-4.95,23.08-53.73,23.08-53.73S475.5,95.7,473.62,100.07Z"/><path class="cls-148" d="M430.47,194.2l-24.09,56.19s-2.47,1.59.65-4.95,23.08-53.73,23.08-53.73S432.35,189.82,430.47,194.2Z"/><polygon class="cls-149" points="245.03 263.14 245.3 280.88 141.74 235.85 132.11 218.19 139.6 207.75 159.26 208.02 245.03 263.14"/><polygon class="cls-150" points="141.74 235.85 159.26 208.02 139.6 207.75 132.11 218.19 141.74 235.85"/><polygon class="cls-151" points="405.97 144.19 415.48 146.09 409.72 169.45 410.72 149.55 405.97 144.19"/><polygon class="cls-152" points="416.78 149.55 415.48 167.28 441.06 176.32 444.5 180.15 412.52 258.87 400.49 263.14 408.95 258.06 440.63 178.59 409.72 169.45 414.72 149.16 416.78 149.55"/><polygon class="cls-153" points="245.45 268.23 245.3 280.88 405.04 280.88 419.22 271.17 429.46 246.69 415.07 269.46 402.33 274.07 245.45 268.23"/><rect x="245.03" y="263.14" width="4.93" height="17.57"/><polygon class="cls-154" points="138.45 209.36 156.88 211.43 245.03 265.5 245.03 270.62 150.23 222.37 137.26 211.01 138.45 209.36"/><polygon class="cls-155" points="133.79 215.84 142.95 229.21 155.83 213.47 144.81 230.97 242.23 275.15 245.03 263.14 245.03 280.71 141.74 235.85 132.11 218.19 133.79 215.84"/><polygon class="cls-154" points="145.93 212.24 151.52 220.04 207.51 247.68 155.83 213.47 145.93 212.24"/><polygon class="cls-23" points="414.72 149.16 409.72 169.45 419.83 172.32 412.14 168.25 414.72 149.16"/></g></g></g></svg>